<?xml version="1.0" encoding="utf-8"?>
<!-- Generator: Adobe Illustrator 19.0.0, SVG Export Plug-In . SVG Version: 6.00 Build 0)  -->
<svg version="1.1" id="Layer_1" xmlns="http://www.w3.org/2000/svg" xmlns:xlink="http://www.w3.org/1999/xlink" x="0px" y="0px"
	 viewBox="0 0 1195.5 1194.9" style="enable-background:new 0 0 1195.5 1194.9;" xml:space="preserve">
<style type="text/css">
	.st0{opacity:0.65;fill:#2179A0;}
</style>
<polygon class="st0" points="1196,550.3 1178.5,447.2 645.7,579.9 1143.5,347.7 1091.7,256.9 637.4,564.5 1024.6,175.6 944.7,108.1 
	624.3,553 853.8,54.8 755.6,18.8 608,546.7 651.9,0 547.3,0 589.9,537.2 461.3,13.5 362,46.4 575.4,551.3 269.1,96.1 187.2,161.1 
	561.5,561.8 117,239.7 62.4,328.9 552.1,576.5 23.5,426.9 2.9,529.4 548.3,593.6 0,634.8 15.9,738.1 550.6,610.9 49.4,838.1 
	99.8,929.7 558.8,626.3 165.6,1012 244.4,1080.7 571.7,638.1 334.5,1135.4 432.2,1172.9 587.8,644.7 535.6,1193.3 640.1,1194.9 
	605.3,645.3 744.3,1178.6 843,1144.1 621.9,639.9 935.2,1093 1016.1,1026.7 635.6,629.1 1085.1,947 1138.3,857 644.8,614.2 
	1175.7,758.5 1194.7,655.7 648.3,597.1 "/>
</svg>
