<svg id="Layer_1" data-name="Layer 1" xmlns="http://www.w3.org/2000/svg" viewBox="0 0 1366 1213.25"><title>bck</title><polygon points="853.7 108.15 867.1 182.15 867 503.65 1366 898.35 1366 1213.25 0 1213.25 0 941.25 473.3 490.65 489.7 147.55 670.1 18.85 746.1 114.75 853.7 108.15" fill="#fff"/><polygon points="880.1 117.85 877 108.95 740.5 94.65 713.3 50.65 670.1 56.85 724.6 118.15 880.1 117.85" fill="#ffed00"/><polygon points="453.8 173.97 426.6 482.27 0 793.07 0 484.57 120.3 435.37 135 264.67 453.8 173.97" fill="#fff"/><polyline points="256.2 222.67 365.6 246.57 402.8 205.97 411.3 227.37 433 207.37 433.8 169.97 256.1 219.57" fill="#ffed00"/><polygon points="952.35 95.8 914.45 199.7 923.25 493.4 1366 769.84 1366 423.14 1274.35 399.7 1260.25 131.7 1113.05 0 1049.75 101.6 952.35 95.8" fill="#fff"/><polygon points="944.15 106 946.45 99.9 1049.15 90 1069.55 59.7 1101.95 64 1061.05 106.2 944.15 106" fill="#ffed00"/></svg>