<svg xmlns="http://www.w3.org/2000/svg" viewBox="0 0 553.15 184"><title>title.it</title><polygon points="341.86 38 417.86 8.67 419.86 16 344.53 42.67 341.86 38" fill="#e42326"/><polygon points="345.2 52 346.53 58 415.2 40 414.53 34.67 345.2 52" fill="#e42326"/><polyline points="339.2 27.33 377.86 5.33 375.2 2 335.86 23.33 337.86 26" fill="#e42326"/><polygon points="341.2 36 417.2 6.67 419.2 14 343.86 40.67 341.2 36" fill="#ffeb08"/><polygon points="344.53 50 345.86 56 414.53 38 413.86 32.67 344.53 50" fill="#ffeb08"/><polyline points="338.53 25.33 377.2 3.33 374.53 0 335.2 21.33 337.2 24" fill="#ffeb08"/><path d="M547.5,77.81a28.91,28.91,0,0,0-6.89-3.41,15.06,15.06,0,0,0-5.07-.9,13.58,13.58,0,0,0-11.87,6.9c-1.73,2.92-3.75,6.32-5.68,9.81-0.11.19-.18,0.38-0.28,0.57a14.53,14.53,0,0,0-5.05-4.84l-0.22-.13c-0.66-.38-1.32-0.76-2-1.18a16.28,16.28,0,0,0-8.82-2.7,15.17,15.17,0,0,0-13.38,8.24c-0.18.27-.36,0.55-0.51,0.81l-5.09,8.61-0.12-.07a17.45,17.45,0,0,0-9-2.74,14.46,14.46,0,0,0-9.9,3.92l-0.57-.37a50.29,50.29,0,0,0-9.69-4.57,10.88,10.88,0,0,0-3.75-.66A13.38,13.38,0,0,0,439,100.76c-0.47.69-.94,1.4-1.42,2.13-0.52-.44-1.06-0.87-1.66-1.3a35.17,35.17,0,0,0-8.38-4.14c-0.92-.35-1.79-0.67-2.52-1A14.84,14.84,0,0,0,419,95.13a14.38,14.38,0,0,0-9,3.15c-0.67.53-1.35,1-2,1.56s-1.6,1.23-2.43,1.88a14.08,14.08,0,0,0-4.9-2.43l-0.6-.19A18.15,18.15,0,0,0,394.22,98a13.07,13.07,0,0,0-8.19,2.83,99.44,99.44,0,0,0-10-4.91,10.54,10.54,0,0,0-4.26-.89,12.84,12.84,0,0,0-10.14,5.37c-0.5.72-1,1.43-1.41,2.14-4.82-4.79-12.08-7.62-19.71-7.62a25.51,25.51,0,0,0-15.13,4.59,53.28,53.28,0,0,0-4.27,3.45,16.28,16.28,0,0,0-1.87-1.29c-2.18-1.29-4.31-2.33-6.37-3.33-0.84-.41-1.68-0.82-2.52-1.24a16.61,16.61,0,0,0-7.59-1.87c-5.12,0-9,2.42-11.91,4.56A16.34,16.34,0,0,0,281,96.49a16.18,16.18,0,0,0-9,2.66h-0.32a11.21,11.21,0,0,0,.77-0.82A11.63,11.63,0,0,0,275,88.86a14.28,14.28,0,0,0-6.32-9.6c-3.47-2.14-7.08-4.13-10.73-5.93a12.22,12.22,0,0,0-5.44-1.22A12.82,12.82,0,0,0,244,75.24l-1.69,1.49A50.53,50.53,0,0,0,234,85.29c-15.61,21.87-25.69,41.68-31.71,62.34l-0.4,1.37v3.53l0.27,1.15a17,17,0,0,0,9.6,11.81,13.64,13.64,0,0,0,5.58,1.16,11.72,11.72,0,0,0,9-3.85,28.74,28.74,0,0,0,4.07-6.53l0.13-.27,2.65-5.38a16.1,16.1,0,0,0,9.64,6.26,17.89,17.89,0,0,0,3.78.42c3,0,10.23-1,13.69-10.33a15.93,15.93,0,0,1,4.84-6.42,14.33,14.33,0,0,0,7.61,2.74,21.69,21.69,0,0,0,4.74,7.07c4.33,4.35,10.08,6.94,15.38,6.94h0c0.45,0,.9,0,1.33-0.06a32.8,32.8,0,0,0,16-5.58c0.43,0.43.87,0.83,1.3,1.2a22.35,22.35,0,0,0,3.69,2.7,30.25,30.25,0,0,0-2.7,14.66A14.54,14.54,0,0,0,321.68,183a13,13,0,0,0,5,1c2.11,0,7.37-.67,10.54-6.83,2.17-4.22,4.68-8.73,7.68-13.78,1.91-3.22,3.91-6.49,5.84-9.66l0.86-1.42a20.32,20.32,0,0,0,10.92,4.82,11.75,11.75,0,0,0,1.48.09,12.58,12.58,0,0,0,6.63-1.93l0.79-.49a25,25,0,0,0,5.13-3.84l1.38-1.42a21.49,21.49,0,0,0,7.34,3.09,14.54,14.54,0,0,0,3.33.38,17.19,17.19,0,0,0,6.86-1.47,23.11,23.11,0,0,0,15.25,5.78h0a23.47,23.47,0,0,0,9.82-2.16,44.61,44.61,0,0,0,5-2.65,13.77,13.77,0,0,0,10.34,4.73,15.48,15.48,0,0,0,9.71-3.64c1.62-1.29,3.13-2.67,4.46-4a14.36,14.36,0,0,0,12.23,6.76h0a18.79,18.79,0,0,0,10.42-3.51q0.78-.51,1.52-1.08a15.47,15.47,0,0,0,10.64,4.44,14,14,0,0,0,3-.33,31.93,31.93,0,0,0,7.59-2.65l0.91-.48a28.81,28.81,0,0,0,2.82,2.37,12.86,12.86,0,0,0,7.73,2.69,12.16,12.16,0,0,0,7.92-3c0.92-.77,1.87-1.52,2.82-2.27a59.53,59.53,0,0,0,8.51-7.72c3.7-4.29,7-8.77,10.21-13.12,1.21-1.65,2.43-3.3,3.65-4.91a15.83,15.83,0,0,0,1.64-2.75l0.08-.16-6.74-5.51,0.3-.44a13.43,13.43,0,0,0,2-10.59c-0.06-.25-0.14-0.49-0.21-0.74a17.48,17.48,0,0,0,3-2c2.38-2,4.91-3.79,7.3-5.47a13.27,13.27,0,0,0,5.88-10.89A12.79,12.79,0,0,0,547.5,77.81Z" fill="#93c019" fill-rule="evenodd"/><path d="M211.91,156.42c6.32-21.69,17.21-41.08,30.24-59.32,2.29-3.2,5.53-5.75,8.5-8.43a3.21,3.21,0,0,1,2.89-.36c3.38,1.66,6.69,3.49,9.89,5.46a4.35,4.35,0,0,1,1.7,2.73,1.49,1.49,0,0,1-2,1.73c-2.6-.72-4.89.16-7,1.39-6.13,3.52-9.68,9.26-13.23,15.51h9.38c-3.71,4.26-6.54,9.14-12.76,9.89a3.83,3.83,0,0,0-2.61,1.71c-5.15,10.24-10.15,20.55-15.22,30.83a21.38,21.38,0,0,1-2.78,4.66c-0.46.53-2.09,0.53-2.91,0.16a7.11,7.11,0,0,1-4-5v-0.93Z" fill="#e42326" fill-rule="evenodd"/><path d="M282.25,132.85a44,44,0,0,1,14.55-19c2.78-2.08,5.55-3.64,9.06-1.85,2.78,1.41,5.65,2.68,8.32,4.26s3,4.39,2.21,7.26a22.43,22.43,0,0,1-8.77,12.12c-2.85,2-6.17,1.45-9.23,0a18.62,18.62,0,0,1-2.76-2,15.28,15.28,0,0,0-3.12,10.82c0.17,1.71,2.23,2.7,4.25,1.73a131.68,131.68,0,0,0,12.13-6.62A63.65,63.65,0,0,0,316,134a4,4,0,0,0,.6-1.48,43.18,43.18,0,0,1,14.71-18.92c6.17-4.48,17.29-3.17,22.4,2.53,1.5,1.68,1.75,3,1,5.36-1.72-.78-3.38-1.91-5.17-2.24s-4.11-.51-5.54.35c-9.62,5.71-15.77,14.35-20,24.44l0.54,0.55c3.45-3,7-5.93,10.33-9.06,4.05-3.8,7.93-7.77,11.89-11.67,2-2,3.34-2.06,6.7-.42a3.84,3.84,0,0,1,2.28,4.8,58.06,58.06,0,0,1-4.32,10.86c-4.82,8.5-10.09,16.75-15.08,25.16-2.79,4.7-5.47,9.46-8,14.31-0.79,1.53-1.49,1.66-2.85,1.1a4.59,4.59,0,0,1-3-4.29c-0.39-4.75,1.33-9,3.44-13,3.85-7.28,8-14.37,12.08-21.55a20.81,20.81,0,0,0,2.28-5.27c-1.66,1.76-3.29,3.56-5,5.29-3.51,3.58-7,7.2-10.62,10.65-2.75,2.6-3.82,2.21-6.64-.22-4.81-4.14-5.05-9-3.21-14.56-0.48.76-1,1.52-1.45,2.29s-1,1.73-1.49,2.57c-4.3,6.84-10.25,11-18.5,11.69-4.59.39-12-4.82-12-10.92,0-3.2.6-6.4,0.93-9.6Zm25.2-12.24c-2.91,3.07-5.65,5.91-8.3,8.81a2.08,2.08,0,0,0-.5,1.79,2.49,2.49,0,0,0,1.78.74C304.73,132.27,309.12,125.7,307.45,120.61Z" fill="#e42326" fill-rule="evenodd"/><path d="M501.9,139.45c-2.12,5.23-6.25,8.45-11.07,10.9a22,22,0,0,1-5.21,1.8c-2.6.57-5.54-1.62-6.52-4.74a22.57,22.57,0,0,1-.93-4.27,40.84,40.84,0,0,1,0-4.37c-2.69,3.11-5.24,6.13-7.88,9.06a16.52,16.52,0,0,1-3.14,2.71c-5.5,3.62-8.69,1.89-10.69-4.52-1.06-3.41.17-6.86,1.43-10.12a25.08,25.08,0,0,0,1.57-4.76c-4.69,5-9.34,10-14.08,15a62.72,62.72,0,0,1-6.07,5.69c-3.15,2.51-5.87,1.71-7.68-1.87a11.26,11.26,0,0,1,0-10.68c3-5.73,6.24-11.31,9.47-16.9,2-3.38,4-6.72,6.21-9.94a3.17,3.17,0,0,1,2.67-1.22,40.54,40.54,0,0,1,7.78,3.63c3.38,2.14,3.38,4.1.2,6.43-6,4.42-10.33,10.29-14,16.79,0.57-.5,1.14-1,1.7-1.5q10.66-9.77,21.32-19.55c1-.93,2.25-1.64,3.23-2.62,2.41-2.42,5-1.64,7.34-.22a3.89,3.89,0,0,1,1.69,3,14.22,14.22,0,0,1-1.68,5.82c-2.52,4.23-5.41,8.24-8.13,12.35-0.5.75-.86,1.58-1.52,2.81a6.92,6.92,0,0,0,1.82-.57c3.24-2.49,6.46-5,9.63-7.56a8.74,8.74,0,0,0,1.94-2.28q7.63-12.78,15.18-25.6c0.2-.33.43-0.64,0.61-1,1.71-3.28,4.93-4.1,8.07-2.07,0.84,0.54,1.71,1,2.57,1.54,2.35,1.36,2.77,3.67,1.21,5.87-2.13,3-4.17,6.07-6.5,9.49h8.35a9.17,9.17,0,0,1-9.58,7.48c-3.8-.18-5.82,1.39-7.32,4.52-2.29,4.76-4.72,9.46-7.05,14.2a8.36,8.36,0,0,0-.31,2A32,32,0,0,0,503,135.56l0.13,1Z" fill="#e42326" fill-rule="evenodd"/><path d="M380.33,138.32c-3.76,4-7.26,7.9-10.93,11.63a22.44,22.44,0,0,1-4.14,2.89,2.47,2.47,0,0,1-1.5.36c-6.06-.78-9.73-5.79-8.44-11.75,1.73-8,5.57-15.11,9.94-22,1.57-2.46,3-5,4.66-7.41a2.58,2.58,0,0,1,2.15-1,86.89,86.89,0,0,1,9.41,4.67c1.32,0.78.84,2.16-.06,3.4-4.3,5.91-8.57,11.86-12.73,17.87a40.38,40.38,0,0,0-3.55,6.65A83,83,0,0,0,381.6,128c3.32-4.24,6.59-8.53,10-12.71,1.89-2.33,4.27-1,6.4-.4,1.83,0.51,3,2,2.39,3.88a40.28,40.28,0,0,1-2.73,6.79c-2.16,4.25-4.53,8.4-6.78,12.6a18.86,18.86,0,0,0-.86,2.25l0.47,0.53,6.41-3.59,0.63,0.4c-1.71,3.34-3.16,6.85-5.26,9.91-0.71,1-3.25,1.53-4.7,1.19C382.17,147.63,380.89,145.55,380.33,138.32Z" fill="#e42326" fill-rule="evenodd"/><path d="M282.32,132.77c-0.91,1.12-1.89,2.19-2.71,3.37a7.43,7.43,0,0,1-6.35,3.18c-1.3,0-2.89-1.2-3.81-2.3s-1.46-3-2.23-4.71c-6.33,4.9-13.26,9.1-16.26,17.19-1.29,3.47-3,4.25-6,3.62a5.93,5.93,0,0,1-4.7-6.3,32.25,32.25,0,0,1,2.67-10c3.12-6.24,6.84-12.19,10.34-18.24,1.08-1.86,2.33-3.63,3.43-5.48,1.33-2.22,2.71-2.62,5-1.34,1.27,0.72,2.54,1.44,3.76,2.22,3,1.9,3.29,4.05,1.2,7-1.57,2.19-3,4.48-4.45,6.75a11.81,11.81,0,0,0-.72,1.57l0.63,0.5,12.22-13.11a29,29,0,0,1,2.87-3,6.47,6.47,0,0,1,7.86.24c1.32,1.23,1.34,4.05-.2,6.47-2.27,3.56-4.68,7-7,10.53l0.53,0.61,5-3.5c-0.36,1.52-.75,3.16-1.14,4.79Z" fill="#e42326" fill-rule="evenodd"/><path d="M412.3,133.73A16.1,16.1,0,0,0,409.13,144c0.09,1.85,1.62,2.94,3.62,2.47a16.61,16.61,0,0,0,3.87-1.47c5.61-2.93,11-6.15,15.79-10.68-0.47,1-1,2.06-1.41,3.11-2.89,6.86-8,11.52-14.65,14.58-8.93,4.08-18.81-2.31-18.46-11.81,0.29-8.18,4-14.82,9.29-20.59,2.64-2.85,5.93-5.11,9-7.53a4.43,4.43,0,0,1,4.78-.56c3.06,1.36,6.48,2.22,9.14,4.13,4.08,2.92,4.33,5.1,2.34,9.77a26.39,26.39,0,0,1-7.33,9.67c-2.56,2.19-7.28,2.33-10.21.47C414.08,135.09,413.31,134.47,412.3,133.73Zm11.86-13.15c-2.93,3.08-5.6,5.82-8.17,8.64a2.4,2.4,0,0,0-.66,2,2.7,2.7,0,0,0,2,.78C421.52,132.13,425.74,125.66,424.16,120.58Z" fill="#e42326" fill-rule="evenodd"/><path d="M501.9,139.45l1.25-2.89c4.5-7.77,9-15.57,13.52-23.31,1.73-2.92,3.46-3.21,6.33-1.46,0.85,0.52,1.74,1,2.61,1.49a3.49,3.49,0,0,1,1.35,5.08c-4.86,7.11-9.75,14.2-14.62,21.3a8.91,8.91,0,0,0-1.25,2.48c8-4.66,14.66-11,21.77-17a12.18,12.18,0,0,1-.89,1.62c-4.44,5.88-8.65,12-13.46,17.54-2.91,3.38-6.75,6-10.2,8.87-1.07.9-2,.8-3.27-0.11-4.11-3-5.08-5.36-3.89-10.28C501.42,141.7,501.65,140.57,501.9,139.45Z" fill="#e42326" fill-rule="evenodd"/><path d="M525.76,104.11a17.26,17.26,0,0,1,1-3.06c1.78-3.21,3.64-6.38,5.52-9.54a3.81,3.81,0,0,1,5-1.69A19,19,0,0,1,541.76,92c2,1.41,1.75,3.62-.26,5-2.69,1.9-5.37,3.84-7.91,5.93C531.25,104.91,528.75,104.85,525.76,104.11Z" fill="#e42326" fill-rule="evenodd"/><polygon points="461.47 91.71 462.81 96.24 466.55 93.36 464.96 97.81 469.68 97.67 465.79 100.34 469.68 103.01 464.96 102.88 466.55 107.33 462.81 104.45 461.47 108.97 460.14 104.45 456.4 107.33 457.98 102.88 453.26 103.01 457.16 100.34 453.26 97.67 457.98 97.81 456.4 93.36 460.14 96.24 461.47 91.71" fill="#fff"/><polygon points="359.4 90.16 360.73 94.68 364.47 91.81 362.89 96.25 367.61 96.12 363.71 98.79 367.61 101.46 362.89 101.33 364.47 105.77 360.73 102.89 359.4 107.42 358.06 102.89 354.32 105.77 355.9 101.33 351.19 101.46 355.08 98.79 351.19 96.12 355.9 96.25 354.32 91.81 358.06 94.68 359.4 90.16" fill="#fff"/><g style="isolation:isolate"><path d="M329,54.14l-14.75-8h0L314.07,46h0a0.79,0.79,0,0,0-.28,0l-0.18,0-17.24,6.15-0.83-15.9,11.75,6.39,14.17-5,0.17,0a0.79,0.79,0,0,1,.44.08l-14.75-8h0l-0.13,0h0a0.72,0.72,0,0,0-.26,0l-0.17,0-11.31,4-0.21-4a1.37,1.37,0,0,1,.05-0.43l0-.09a1.82,1.82,0,0,1,.18-0.4l0,0a1.69,1.69,0,0,1,.31-0.36h0a1.25,1.25,0,0,1,.39-0.23l28.17-10,0.2-.05a0.71,0.71,0,0,1,.25,0,0.6,0.6,0,0,1,.16.06l-14.75-8h0l-0.11,0h0a0.69,0.69,0,0,0-.25,0l-0.2.05-28.17,10-0.1,0-0.18.1-0.12.09h0l-0.13.14-0.12.16,0,0.06,0,0-0.06.1a1.79,1.79,0,0,0-.11.23s0,0,0,.07l0,0.08a1.39,1.39,0,0,0-.05.43L282.79,67a0.93,0.93,0,0,0,.45.79l14.75,8a0.94,0.94,0,0,1-.45-0.79l-1-20.06,11.69,6.36,20.15-7.19,0.18,0a0.8,0.8,0,0,1,.28,0A0.7,0.7,0,0,1,329,54.14Z"/><path d="M249.46,45.49a1.68,1.68,0,0,1,.17-0.39l0,0a1.66,1.66,0,0,1,.3-0.36l0,0a1.37,1.37,0,0,1,.42-0.24l11.51-4.11A36.52,36.52,0,0,1,269,38.51c0.62-.09,1.23-0.14,1.83-0.18l0.54,0q0.65,0,1.29,0l0.56,0q0.75,0,1.49.13l0.25,0c0.56,0.08,1.12.2,1.66,0.33L277.21,39c0.31,0.09.61,0.18,0.91,0.29l0.59,0.23c0.29,0.12.58,0.24,0.86,0.37s0.62,0.29.92,0.45l-14.75-8-0.6-.31-0.32-.14c-0.29-.13-0.58-0.26-0.87-0.37l-0.58-.22c-0.31-.11-0.62-0.2-0.93-0.29l-0.4-.12-0.15,0c-0.55-.14-1.1-0.25-1.67-0.33l-0.23,0q-0.74-.1-1.51-0.13l-0.55,0q-0.64,0-1.3,0l-0.54,0c-0.6,0-1.21.09-1.83,0.18a36.52,36.52,0,0,0-7.12,1.83l-11.51,4.11-0.11,0-0.2.11-0.11.09h0l0,0-0.13.13-0.12.15,0,0.06,0,0,0,0.07a1.72,1.72,0,0,0-.1.22s0,0.06,0,.1l0,0.1a1.45,1.45,0,0,0,0,.42L235,45.29l-9.29-5.05h0l-0.14-.05h0a0.81,0.81,0,0,0-.3,0l-0.22.06-8.33,3-0.11,0-0.2.12-0.11.09,0,0,0,0-0.14.14-0.12.16,0,0.06,0,0-0.06.09a2,2,0,0,0-.1.23s0,0.07,0,.1l0,0.1a1.43,1.43,0,0,0,0,.46L217,70.66l14.75,8-1.34-25.83a1.37,1.37,0,0,1,0-.46l0-.1a1.79,1.79,0,0,1,.18-0.42l0,0a1.78,1.78,0,0,1,.32-0.37l0,0a1.45,1.45,0,0,1,.42-0.25l3.82-1.36L237,83.27a1,1,0,0,0,.43.8L247,89.29l5.16,2.81a1,1,0,0,1-.43-0.8l-1-19.51,11.7,6.37,5.78-2.06c0.52-.19,1-0.41,1.54-0.64l0.19-.08,0.29-.15,0.74-.38,0.51-.29,0.71-.45,0.32-.2h0l0.12-.09a16,16,0,0,0,1.41-1.11l0.09-.07,0.22-.23c0.27-.25.53-0.52,0.78-0.79l0.19-.19c0.06-.07.11-0.14,0.17-0.21,0.2-.23.39-0.47,0.57-0.72s0.16-.19.23-0.29l0.23-.34q0.28-.44.53-0.9l0-.08a13.82,13.82,0,0,0,.69-1.54l0.06-.14c0.11-.29.21-0.59,0.3-0.9h0c0.11-.39.2-0.79,0.28-1.2,0-.11,0-0.22.06-0.34,0.06-.33.1-0.67,0.14-1,0-.09,0-0.19,0-0.28q0.05-.65.05-1.32c0-.1,0-0.2,0-0.29q0-.56-0.06-1.13c0-.13,0-0.26,0-0.39-0.05-.48-0.12-1-0.21-1.47-0.75-3.94-2.36-6.72-4.68-8.24a8.31,8.31,0,0,0-.72-0.44l-14.75-8a8.07,8.07,0,0,1,.72.44c2.32,1.52,3.93,4.29,4.68,8.24,0.09,0.5.16,1,.21,1.47,0,0.13,0,.27,0,0.4,0,0.38.05,0.75,0.06,1.12,0,0.1,0,.2,0,0.3,0,0.45,0,.89-0.05,1.32,0,0.1,0,.19,0,0.29,0,0.34-.08.68-0.14,1,0,0.11,0,.23-0.06.34a13.67,13.67,0,0,1-.64,2.24,14,14,0,0,1-.69,1.54c-0.18.34-.37,0.67-0.57,1s-0.3.42-.46,0.62-0.38.49-.58,0.73l-0.35.4q-0.39.42-.8,0.81l-0.3.28a15.84,15.84,0,0,1-1.42,1.12l-0.44.3-0.7.44-0.52.3-0.72.38-0.5.24c-0.5.23-1,.45-1.54,0.64l-2.88,1L249.4,46a1.44,1.44,0,0,1,0-.43Z"/><path d="M232.48,98.1L215.7,77.78l-11-6-0.51-9.56a2,2,0,0,1,.06-0.52l0-.11a1.6,1.6,0,0,1,.18-0.41v0a1.48,1.48,0,0,1,.31-0.34l0,0a1.56,1.56,0,0,1,.42-0.22L213,57.8a3.13,3.13,0,0,1,.63-0.17,1.41,1.41,0,0,1,.51,0,1.15,1.15,0,0,1,.31.11l-14.75-8,0,0-0.22-.08h0a1.44,1.44,0,0,0-.51,0,3.13,3.13,0,0,0-.63.17l-7.76,2.77-0.16.06-0.22.13,0,0,0,0-0.08.06L189.8,53l-0.1.13,0,0v0l-0.07.11a1.86,1.86,0,0,0-.09.21,0.89,0.89,0,0,0,0,.1l0,0.11a2,2,0,0,0-.06.52l2.4,45.14a1,1,0,0,0,.39.88l14.75,8a1,1,0,0,1-.39-0.88L204.8,74.42l12.93,15.66a2.37,2.37,0,0,0,.64.56L228,95.85l5.16,2.81A2.37,2.37,0,0,1,232.48,98.1Z"/><path d="M190.8,113l-2.41-6.7-11.16-6.07,7.92-2.82-5.46-14.88-8.76-4.77,0.88-4.32a4.69,4.69,0,0,1,.15-0.58,2.43,2.43,0,0,1,.15-0.37h0a1.41,1.41,0,0,1,.27-0.35h0a1.18,1.18,0,0,1,.4-0.24l11.88-4.23,0.2,0a0.88,0.88,0,0,1,.32,0,0.89,0.89,0,0,1,.24.09l-14.75-8,0,0-0.18-.07h0a0.88,0.88,0,0,0-.32,0l-0.2.05-11.88,4.23-0.11,0-0.17.1-0.12.09h0l-0.09.09-0.1.12-0.09.15h0a2.32,2.32,0,0,0-.13.29l0,0.08a4.83,4.83,0,0,0-.15.57l-10.13,50a0.81,0.81,0,0,0,.27.92l14.75,8a0.8,0.8,0,0,1-.27-0.92l5.71-28.14,6.42,3.49,2.25,6.24a1.29,1.29,0,0,0,.51.81l14.75,8A1.3,1.3,0,0,1,190.8,113ZM168.43,90.11l0.79-3.91,1.18,3.21Z"/><path d="M143.23,105l-7.33-4,3.66-15.87a3.9,3.9,0,0,1,.15-0.54,2.44,2.44,0,0,1,.18-0.41l0,0a1.36,1.36,0,0,1,.7-0.61l8.33-3,0.19,0a0.72,0.72,0,0,1,.26,0,0.65,0.65,0,0,1,.17.06l-14.75-8h0l-0.12,0h0a0.71,0.71,0,0,0-.26,0l-0.19,0-8.33,3-0.11,0-0.18.1-0.13.1h0l-0.11.11-0.11.14-0.06.1,0,0,0,0a2.47,2.47,0,0,0-.14.32v0a4,4,0,0,0-.15.54l-2.91,12.64-14-7.62h0l-0.11,0h0a0.61,0.61,0,0,0-.22,0l-0.18,0-8,2.85-0.1,0-0.16.09-0.12.1h0l-0.1.1-0.11.14-0.06.1,0,0,0,0a2.11,2.11,0,0,0-.13.29v0a2.51,2.51,0,0,0-.13.55l-5.46,48.08a0.74,0.74,0,0,0,.37.78l14.75,8a0.74,0.74,0,0,1-.37-0.78l2.7-23.74,1.9,5.68a0.94,0.94,0,0,0,.43.59l14.75,8a0.94,0.94,0,0,1-.43-0.59l-6.53-19.49-8.91-4.85,1.56-13.7a2.56,2.56,0,0,1,.13-0.55,2.2,2.2,0,0,1,.17-0.38l0,0a1.6,1.6,0,0,1,.28-0.35h0a1.12,1.12,0,0,1,.38-0.23l7.68-2.73-4.29,18.62,14.74,8,0.65,3.46a1.09,1.09,0,0,0,.48.79l14.75,8a1.09,1.09,0,0,1-.48-0.79Z"/><path d="M72.11,108.09q0.62-.42,1.26-0.8l0.31-.19q0.74-.42,1.5-0.79l0.27-.12c0.62-.29,1.25-0.55,1.9-0.78a24.67,24.67,0,0,1,4.85-1.23c0.53-.07,1-0.12,1.55-0.15h0.47c0.36,0,.71,0,1.05,0l0.49,0c0.36,0,.71.06,1.06,0.11l0.39,0c0.47,0.07.93,0.17,1.38,0.28l0.25,0.07c0.37,0.1.74,0.22,1.1,0.35l0.44,0.17q0.46,0.18.92,0.4l0.64,0.3-14.75-8-0.38-.19-0.26-.11q-0.46-.21-0.93-0.4l-0.43-.16q-0.56-.2-1.13-0.36l-0.19-.06h0c-0.45-.12-0.91-0.21-1.38-0.28l-0.39,0c-0.35,0-.7-0.08-1.05-0.1l-0.5,0c-0.35,0-.7,0-1.05,0L69,96c-0.51,0-1,.07-1.55.15a24.68,24.68,0,0,0-4.85,1.23c-0.65.23-1.28,0.5-1.9,0.78l-0.18.07-0.1.06q-0.76.36-1.5,0.78l-0.32.19q-0.64.38-1.26,0.8l-0.18.11-0.08.06q-0.6.42-1.17,0.87l-0.11.1q-0.51.41-1,.84l-0.12.1-0.27.26-0.63.6-0.39.4-0.59.63-0.22.23-0.16.19-0.58.69-0.33.41c-0.21.28-.42,0.56-0.63,0.84l-0.19.26,0,0q-0.44.63-.84,1.28l-0.19.31c-0.2.34-.4,0.68-0.59,1l-0.11.19-0.1.2c-0.3.56-.59,1.14-0.85,1.73s-0.54,1.27-.79,1.92l-0.07.16,0,0.09c-0.23.63-.43,1.26-0.62,1.91l-0.1.34q-0.27,1-.48,2l-0.07.33c-0.14.68-.26,1.37-0.35,2.06,0,0.06,0,.12,0,0.18q-0.13,1-.2,2.1v0.19c0,0.31,0,.62,0,0.94l-9-4.88-5.16-2.81-0.61-.31-0.31-.13q-0.44-.2-0.88-0.38l-0.58-.22c-0.31-.11-0.62-0.2-0.93-0.29l-0.39-.12-0.15,0c-0.55-.14-1.11-0.25-1.67-0.33l-0.23,0q-0.75-.1-1.51-0.14l-0.54,0q-0.65,0-1.31,0l-0.53,0c-0.6,0-1.21.09-1.84,0.18A36.49,36.49,0,0,0,12.51,116L1,120.06l-0.12,0-0.19.11h0l-0.1.08,0,0,0,0-0.13.13-0.11.15,0,0.07,0,0,0,0.07a1.74,1.74,0,0,0-.1.22s0,0.07,0,.1l0,0.1a1.43,1.43,0,0,0,0,.43l2.37,45.28a0.94,0.94,0,0,0,.43.8l14.75,8a0.94,0.94,0,0,1-.43-0.8l-1-19.51,11.7,6.37,5.78-2.06c0.52-.19,1-0.41,1.55-0.64l0.19-.08,0.29-.15,0.74-.38,0.51-.29,0.71-.45,0.32-.2,0.12-.1a15.91,15.91,0,0,0,1.41-1.11l0.09-.07,0.21-.22c0.28-.26.54-0.53,0.8-0.81l0.18-.18,0.17-.21c0.2-.24.39-0.48,0.58-0.73l0.22-.28,0.24-.36q0.28-.44.54-0.91l0-.08a13.58,13.58,0,0,0,.69-1.53l0.06-.14c0.1-.28.2-0.57,0.28-0.86v0c0.11-.38.2-0.78,0.28-1.19,0-.11,0-0.23.06-0.34q0.09-.49.14-1c0-.1,0-0.19,0-0.29q0.05-.64.05-1.32c0-.1,0-0.2,0-0.3q0-.55-0.06-1.12c0-.13,0-0.27,0-0.4-0.05-.48-0.12-1-0.21-1.47-0.74-3.94-2.35-6.72-4.67-8.24a8.2,8.2,0,0,0-.72-0.44l-14.75-8q0.37,0.2.72,0.44c2.32,1.52,3.93,4.3,4.67,8.24,0.09,0.5.16,1,.21,1.47,0,0.13,0,.27,0,0.4q0,0.57.06,1.12c0,0.1,0,.2,0,0.3q0,0.67-.05,1.32c0,0.1,0,.2,0,0.29q-0.05.51-.14,1c0,0.12,0,.23-0.06.34-0.08.4-.17,0.8-0.28,1.19v0c-0.1.34-.22,0.67-0.35,1a13.52,13.52,0,0,1-.69,1.53c-0.18.34-.37,0.67-0.57,1s-0.31.43-.47,0.64-0.37.49-.57,0.72l-0.35.4c-0.26.28-.52,0.55-0.8,0.81l-0.29.28a15.85,15.85,0,0,1-1.41,1.11l-0.45.3-0.7.44-0.51.29-0.73.38-0.48.23c-0.51.23-1,.45-1.55,0.64l-2.88,1-1.21-23.08a1.43,1.43,0,0,1,0-.43l0-.1a1.69,1.69,0,0,1,.17-0.39l0,0a1.61,1.61,0,0,1,.31-0.36l0,0a1.33,1.33,0,0,1,.42-0.24L27.26,124a36.48,36.48,0,0,1,7.12-1.83c0.62-.09,1.23-0.14,1.83-0.18l0.53,0q0.66,0,1.31,0l0.54,0q0.76,0,1.51.13l0.23,0a16.88,16.88,0,0,1,1.67.33l0.54,0.15c0.31,0.09.62,0.18,0.93,0.29l0.59,0.22q0.44,0.17.87,0.37l0.31,0.15q0,0.59,0,1.18c0,0.12,0,.24,0,0.36q0,1.05.11,2.12c0,0.13,0,.26,0,0.4,0.07,0.72.15,1.44,0.27,2.17l0.05,0.31c0.13,0.77.27,1.54,0.45,2.31,1.41,6.06,4.52,9.94,8.44,12l14.75,8c-3.92-2.09-7-6-8.44-12-0.18-.77-0.33-1.55-0.45-2.32l-0.05-.3c-0.11-.73-0.2-1.46-0.27-2.18,0-.13,0-0.26,0-0.38Q60,134.25,60,133.19c0-.12,0-0.24,0-0.36,0-.72,0-1.44,0-2.15,0-.06,0-0.13,0-0.19q0.07-1.05.2-2.09l0-.19c0.09-.69.21-1.37,0.35-2l0.07-.34q0.21-1,.48-1.93l0.11-.37c0.19-.64.39-1.26,0.61-1.88l0.11-.29c0.24-.64.5-1.28,0.78-1.9s0.55-1.15.84-1.71l0.22-.41c0.18-.33.37-0.66,0.57-1L64.6,116q0.4-.65.83-1.26l0.25-.34c0.2-.27.4-0.55,0.6-0.81l0.33-.42,0.57-.68,0.38-.43,0.58-.62,0.39-.39,0.64-.61,0.38-.35q0.48-.43,1-0.84l0.12-.1,0.45-.34L71.37,109c1.48,1,2.59,2.93,3.22,5.56a22.47,22.47,0,0,1,.17,10.63c-0.15.54-.33,1.05-0.52,1.55l-0.13.31c-0.17.43-.36,0.84-0.56,1.23l-0.08.15c-0.11.2-.23,0.38-0.34,0.56s-0.33.57-.51,0.83-0.44.58-.67,0.86c-0.08.1-.16,0.22-0.25,0.31a12.13,12.13,0,0,1-1,1c-0.22.2-.46,0.37-0.7,0.55s-0.29.24-.44,0.35l0,0a11,11,0,0,1-1,.63l-0.24.12a10.35,10.35,0,0,1-1.15.5,9.16,9.16,0,0,1-1.81.45,7.81,7.81,0,0,1-.94.07H64.11a6.8,6.8,0,0,1-.93-0.07l-0.08,0a6.36,6.36,0,0,1-.87-0.21l-0.16,0a6.07,6.07,0,0,1-.93-0.4l14.75,8,0.22,0.11a6.07,6.07,0,0,0,.71.29l0.16,0,0.3,0.09c0.19,0,.39.09,0.58,0.12h0.07a6.93,6.93,0,0,0,.93.07h0.23a7.74,7.74,0,0,0,.94-0.07,9.09,9.09,0,0,0,1.81-.45q0.48-.17.94-0.39l0.21-.11,0.24-.12a10.83,10.83,0,0,0,1-.62l0,0h0c0.12-.08.23-0.19,0.35-0.28s0.53-.39.77-0.61h0a12.14,12.14,0,0,0,1-1l0,0c0.08-.09.16-0.2,0.24-0.3,0.22-.26.44-0.52,0.64-0.81l0-.06c0.18-.26.34-0.54,0.5-0.81s0.23-.34.33-0.53l0-.06,0.07-.14c0.21-.4.39-0.81,0.57-1.24l0.13-.31,0.1-.24q0.23-.63.42-1.31a22.47,22.47,0,0,0-.17-10.63C88.7,119.9,87.6,118,86.12,117a6.3,6.3,0,0,0-.65-0.41l-14.31-7.78,0.68-.51Z"/><path d="M54.84,138.18A25.15,25.15,0,0,1,51,157.66c-4,5.77-10.37,10.11-17.88,12.79l-14.87,5.31L18,175.8a0.81,0.81,0,0,1-.9-0.87l-2.37-45.28a1.6,1.6,0,0,1,1-1.57L27.26,124a36.48,36.48,0,0,1,7.12-1.83,17.83,17.83,0,0,1,12.22,2.21C50.6,126.85,53.54,131.29,54.84,138.18Zm-12.93,15.3a14.74,14.74,0,0,0,1.87-11c-0.74-3.94-2.35-6.72-4.67-8.24a8.65,8.65,0,0,0-6.35-1.31,18.65,18.65,0,0,0-3.63.94l-2.74,1,1.42,26.95,5.78-2.06a16.46,16.46,0,0,0,8.32-6.25" fill="#e42326"/></g><path d="M324.53,18a0.8,0.8,0,0,1,.84.89l0.4,8.62a1.59,1.59,0,0,1-.94,1.47l-18,6.42,0.42,7.26,14.17-5,0.17,0a0.78,0.78,0,0,1,.86.81l0.35,8.65a1.58,1.58,0,0,1-.94,1.55l-14,5,0.35,7.65,20.15-7.19,0.18,0a0.75,0.75,0,0,1,.86.82l0.47,8.59A1.52,1.52,0,0,1,328.9,65L298.64,75.81l-0.18,0a0.83,0.83,0,0,1-.92-0.87l-2.37-45.28a1.68,1.68,0,0,1,1-1.57l28.17-10Z" fill="#e42326"/><path d="M289.48,54.55A25.15,25.15,0,0,1,285.62,74c-4,5.77-10.37,10.12-17.88,12.79l-14.87,5.31-0.22.05a0.81,0.81,0,0,1-.89-0.88L249.4,46a1.61,1.61,0,0,1,1-1.57l11.51-4.11A36.52,36.52,0,0,1,269,38.51a17.83,17.83,0,0,1,12.22,2.21C285.24,43.22,288.18,47.66,289.48,54.55ZM276.55,69.85a14.79,14.79,0,0,0,1.87-11c-0.75-3.94-2.36-6.72-4.68-8.24a8.65,8.65,0,0,0-6.35-1.31,18.66,18.66,0,0,0-3.64.94l-2.73,1,1.42,26.95,5.78-2.06a16.5,16.5,0,0,0,8.32-6.24" fill="#e42326"/><path d="M240,48.18a0.87,0.87,0,0,1,1,.91l2.33,45.15a1.69,1.69,0,0,1-1,1.66l-7.62,2.71a3.36,3.36,0,0,1-.66.18,1.54,1.54,0,0,1-1.49-.7L215.7,77.78l1.4,25.8a1.6,1.6,0,0,1-1,1.66l-8.39,3-0.26.06c-0.5.07-.84-0.22-0.86-1l-2.4-45.14a1.59,1.59,0,0,1,1-1.65L213,57.8a3.13,3.13,0,0,1,.63-0.17,1.41,1.41,0,0,1,1.44.71l16.73,20.34-1.34-25.83a1.68,1.68,0,0,1,1-1.66l8.33-3Z" fill="#e42326"/><path d="M202.24,109a1.26,1.26,0,0,1-.81,1.5l-9.53,3.4-0.2,0a0.91,0.91,0,0,1-.91-0.87l-2.41-6.7-13.29,4.74-1.34,8a1.94,1.94,0,0,1-1,1.57l-10.29,3.67-0.18,0c-0.47.07-.74-0.35-0.61-1l10.13-50a1.84,1.84,0,0,1,1-1.57l11.88-4.23,0.2,0a1,1,0,0,1,1.1.79Zm-25.43-8.54,8.33-3-5.46-14.88-2.87,17.85" fill="#e42326"/><path d="M149.13,80.56a0.86,0.86,0,0,1,.91.87l8.14,43.22a1.51,1.51,0,0,1-1,1.56l-8.46,3-0.19,0a0.86,0.86,0,0,1-.91-0.86L143.23,105l-4.87,23.48a1.72,1.72,0,0,1-1.21,1.5l-9.09,3.25-0.17,0a0.81,0.81,0,0,1-.89-0.67l-6.53-19.49-2.33,25.79a1.84,1.84,0,0,1-1,1.57l-8.39,3-0.2.05a0.76,0.76,0,0,1-.9-0.87l5.46-48.08a1.82,1.82,0,0,1,1-1.56l8-2.85,0.18,0a1,1,0,0,1,.93.86l9,25.94,7.31-31.76a1.94,1.94,0,0,1,1.06-1.59l8.33-3Z" fill="#e42326"/><path d="M100.37,118.09a33.59,33.59,0,0,1-1.18,19.68A25.77,25.77,0,0,1,83.88,153a22.79,22.79,0,0,1-4.45,1.11,16.36,16.36,0,0,1-10.09-1.56c-3.92-2.09-7-6-8.44-12a32.79,32.79,0,0,1,1.87-21,25.75,25.75,0,0,1,14.59-14,24.67,24.67,0,0,1,4.85-1.23,15.66,15.66,0,0,1,9.74,1.59C96.25,108.09,99,112.16,100.37,118.09ZM89.51,133.17a22.47,22.47,0,0,0-.17-10.63C88.7,119.9,87.6,118,86.12,117a6.49,6.49,0,0,0-4.79-1.1,9.18,9.18,0,0,0-1.78.44c-2.73,1-5.76,4-7.32,8.31a20,20,0,0,0-.43,11.06c0.79,3.08,2.09,5,3.71,6a6.54,6.54,0,0,0,4.52.9,9.09,9.09,0,0,0,1.81-.45c3.43-1.22,6.37-4.34,7.67-9" fill="#e42326"/><circle cx="20" cy="132.26" r="2.88" fill="#ffeb08"/><circle cx="20.79" cy="140.63" r="2.88" fill="#ffeb08"/><circle cx="20.79" cy="149.26" r="2.88" fill="#ffeb08"/><circle cx="20.79" cy="158.41" r="2.88" fill="#ffeb08"/><circle cx="22.1" cy="168.09" r="2.88" fill="#ffeb08"/><circle cx="31.25" cy="165.74" r="2.88" fill="#ffeb08"/><circle cx="39.62" cy="161.55" r="2.88" fill="#ffeb08"/><circle cx="46.16" cy="155.53" r="2.88" fill="#ffeb08"/><circle cx="48.51" cy="145.33" r="2.88" fill="#ffeb08"/><circle cx="47.47" cy="136.44" r="2.88" fill="#ffeb08"/><circle cx="40.14" cy="130.16" r="2.88" fill="#ffeb08"/><circle cx="29.68" cy="128.86" r="2.88" fill="#ffeb08"/><circle cx="78.59" cy="110.81" r="2.88" fill="#ffeb08"/><circle cx="70.22" cy="117.35" r="2.88" fill="#ffeb08"/><circle cx="65.78" cy="126.5" r="2.88" fill="#ffeb08"/><circle cx="65.51" cy="136.7" r="2.88" fill="#ffeb08"/><circle cx="69.96" cy="145.33" r="2.88" fill="#ffeb08"/><circle cx="80.16" cy="147.69" r="2.88" fill="#ffeb08"/><circle cx="88.79" cy="143.5" r="2.88" fill="#ffeb08"/><circle cx="94.55" cy="135.13" r="2.88" fill="#ffeb08"/><circle cx="112.86" cy="136.7" r="2.88" fill="#ffeb08"/><circle cx="113.9" cy="128.33" r="2.88" fill="#ffeb08"/><circle cx="114.69" cy="118.92" r="2.88" fill="#ffeb08"/><circle cx="115.47" cy="109.76" r="2.88" fill="#ffeb08"/><circle cx="116.78" cy="100.09" r="2.88" fill="#ffeb08"/><circle cx="122.53" cy="107.67" r="2.88" fill="#ffeb08"/><circle cx="125.93" cy="116.3" r="2.88" fill="#ffeb08"/><circle cx="129.86" cy="124.93" r="2.88" fill="#ffeb08"/><circle cx="136.66" cy="116.3" r="2.88" fill="#ffeb08"/><circle cx="139.01" cy="104.53" r="2.88" fill="#ffeb08"/><circle cx="141.63" cy="93.55" r="2.88" fill="#ffeb08"/><circle cx="147.64" cy="102.7" r="2.88" fill="#ffeb08"/><circle cx="149.47" cy="111.86" r="2.88" fill="#ffeb08"/><circle cx="150.78" cy="121.79" r="2.88" fill="#ffeb08"/><circle cx="168.31" cy="116.3" r="2.88" fill="#ffeb08"/><circle cx="170.14" cy="106.36" r="2.88" fill="#ffeb08"/><circle cx="171.97" cy="95.12" r="2.88" fill="#ffeb08"/><circle cx="174.06" cy="85.18" r="2.88" fill="#ffeb08"/><circle cx="177.2" cy="76.02" r="2.88" fill="#ffeb08"/><circle cx="184.52" cy="80.73" r="2.88" fill="#ffeb08"/><circle cx="187.66" cy="89.36" r="2.88" fill="#ffeb08"/><circle cx="191.32" cy="98.25" r="2.88" fill="#ffeb08"/><circle cx="194.72" cy="106.1" r="2.88" fill="#ffeb08"/><circle cx="211.72" cy="101.39" r="2.88" fill="#ffeb08"/><circle cx="210.94" cy="91.98" r="2.88" fill="#ffeb08"/><circle cx="210.94" cy="82.3" r="2.88" fill="#ffeb08"/><circle cx="210.15" cy="73.14" r="2.88" fill="#ffeb08"/><circle cx="209.37" cy="65.04" r="2.88" fill="#ffeb08"/><circle cx="218.52" cy="72.62" r="2.88" fill="#ffeb08"/><circle cx="224.8" cy="80.21" r="2.88" fill="#ffeb08"/><circle cx="231.34" cy="86.22" r="2.88" fill="#ffeb08"/><circle cx="236.57" cy="91.71" r="2.88" fill="#ffeb08"/><circle cx="236.83" cy="73.93" r="2.88" fill="#ffeb08"/><circle cx="237.88" cy="81.77" r="2.88" fill="#ffeb08"/><circle cx="256.97" cy="84.13" r="2.88" fill="#ffeb08"/><circle cx="256.45" cy="75.24" r="2.88" fill="#ffeb08"/><circle cx="255.67" cy="66.6" r="2.88" fill="#ffeb08"/><circle cx="254.88" cy="57.97" r="2.88" fill="#ffeb08"/><circle cx="254.1" cy="50.13" r="2.88" fill="#ffeb08"/><circle cx="262.73" cy="45.94" r="2.88" fill="#ffeb08"/><circle cx="271.1" cy="44.37" r="2.88" fill="#ffeb08"/><circle cx="278.68" cy="48.03" r="2.88" fill="#ffeb08"/><circle cx="282.61" cy="57.19" r="2.88" fill="#ffeb08"/><circle cx="282.34" cy="67.13" r="2.88" fill="#ffeb08"/><circle cx="277.64" cy="75.24" r="2.88" fill="#ffeb08"/><circle cx="268.48" cy="80.73" r="2.88" fill="#ffeb08"/><circle cx="300.65" cy="33.39" r="2.88" fill="#ffeb08"/><circle cx="301.18" cy="42.54" r="2.88" fill="#ffeb08"/><circle cx="301.96" cy="52.22" r="2.88" fill="#ffeb08"/><circle cx="301.96" cy="61.63" r="2.88" fill="#ffeb08"/><circle cx="302.49" cy="70.27" r="2.88" fill="#ffeb08"/><circle cx="311.12" cy="66.34" r="2.88" fill="#ffeb08"/><circle cx="319.23" cy="63.2" r="2.88" fill="#ffeb08"/><circle cx="309.55" cy="47.51" r="2.88" fill="#ffeb08"/><circle cx="317.66" cy="44.89" r="2.88" fill="#ffeb08"/><circle cx="308.24" cy="29.2" r="2.88" fill="#ffeb08"/><circle cx="317.13" cy="26.59" r="2.88" fill="#ffeb08"/><circle cx="235.79" cy="65.82" r="2.88" fill="#ffeb08"/><circle cx="235.53" cy="57.19" r="2.88" fill="#ffeb08"/><circle cx="181.12" cy="103.75" r="2.88" fill="#ffeb08"/><circle cx="95.59" cy="124.93" r="2.88" fill="#ffeb08"/><circle cx="92.45" cy="115.26" r="2.88" fill="#ffeb08"/><circle cx="86.44" cy="110.55" r="2.88" fill="#ffeb08"/><polygon points="187.86 136.33 103.2 157.67 106.53 163.67 189.2 140.33 187.86 136.33" fill="#e42326" fill-rule="evenodd"/><polygon points="189.2 148.33 130.53 168.33 135.2 173.67 178.53 163 178.53 159.67 190.53 153 189.2 148.33" fill="#e42326" fill-rule="evenodd"/><polygon points="187.86 133 103.2 154.33 106.53 160.33 189.2 137 187.86 133" fill="#ffeb08" fill-rule="evenodd"/><polygon points="189.2 145 130.53 165 135.2 170.33 178.53 159.67 178.53 156.33 190.53 149.67 189.2 145" fill="#ffeb08" fill-rule="evenodd"/></svg>