<?xml version="1.0" encoding="utf-8"?>
<!-- Generator: Adobe Illustrator 16.0.0, SVG Export Plug-In . SVG Version: 6.00 Build 0)  -->
<!DOCTYPE svg PUBLIC "-//W3C//DTD SVG 1.1//EN" "http://www.w3.org/Graphics/SVG/1.1/DTD/svg11.dtd">
<svg version="1.1" id="Layer_1" xmlns="http://www.w3.org/2000/svg" xmlns:xlink="http://www.w3.org/1999/xlink" x="0px" y="0px"
   width="1027.778px" height="331.481px" viewBox="0 0 1027.778 331.481" enable-background="new 0 0 1027.778 331.481"
   xml:space="preserve">
<g>
  <polygon fill-rule="evenodd" clip-rule="evenodd" points="224.027,84.618 113.511,6.651 101.063,18.578  "/>
  <polygon fill-rule="evenodd" clip-rule="evenodd" fill="#FFFFFF" points="221.487,89.44 110.968,11.475 98.52,23.402   "/>
</g>
<g>
  <path fill-rule="evenodd" clip-rule="evenodd" fill="#FFFFFF" d="M444.887,98.909c0,0,12.717-2.114,16.338,0.144
    c3.623,2.259,23.203,9.636,26.043,11.6c2.833,1.962,16.344,8.84,20.36,7.669c4.019-1.169,13.594-2.333,13.594-2.333
    s1.289,7.941-0.19,11.857c-1.473,3.915-1.794,18.999-12.799,43.474c-11.008,24.473-18.281,41.411-23.968,44.63
    c-5.687,3.223-17.844,9.379-20.294,11.138c-2.453,1.76-14.708,1.031-14.708,1.031s-15.75-8.032-18.291-10.78
    c-2.54-2.746-31.52-13.664-31.52-13.664l-8.712,0.226l-14.405-67.067L444.887,98.909z"/>
  <path fill-rule="evenodd" clip-rule="evenodd" fill="#E2000B" d="M449.263,228.119c2.479-5.506,6.549-10.031,10.41-14.727
    c5.927-7.205,11.794-14.46,17.555-21.801c3.049-3.884,5.081-8.355,6.437-13.095c1.358-4.742,3.457-8.949,7.381-12.166
    c3.092-2.534,4.207-6.158,4.595-9.995c0.361-3.612,0.428-7.258,0.904-10.853c0.622-4.667,2.531-8.602,6.387-11.708
    c5.425-4.365,9.108-10.299,13.125-15.891c1.941-2.703,1.896-2.819,5.165-1.895c1.984,0.56,3.892,1.38,5.831,2.095
    c2.466,0.913,4.881,1.995,7.402,2.726c5.096,1.479,10.056,0.625,14.889-1.311c8.569-3.433,16.474-1.854,23.846,3.272
    c2.258,1.569,4.433,3.292,6.477,5.127c5.529,4.966,12.01,7.045,19.356,6.682c0.501-0.024,1.005-0.002,1.501,0.032
    c0.171,0.01,0.338,0.116,0.817,0.297c-1.447,2.492-2.604,5.105-4.303,7.297c-5.278,6.822-8.61,14.466-10.803,22.761
    c-1.588,5.993-3.606,11.875-5.55,17.768c-1.447,4.392-1.967,8.877-2.307,13.471c-0.259,3.515-0.834,7.173-2.147,10.415
    c-3.936,9.694-8.514,19.126-12.442,28.824c-3.691,9.112-6.925,18.412-10.255,27.667c-1.508,4.188-2.75,8.47-4.127,12.7
    c-0.186,0.58-0.473,1.126-0.783,1.84c-1.418-0.697-2.702-1.312-3.977-1.955c-6.604-3.332-13.576-5.462-20.884-6.617
    c-7.975-1.264-14.815-4.838-19.887-11.15c-6.383-7.952-14.374-12.876-24.458-14.495c-7.52-1.209-14.16-4.381-20.19-9.069
    C456.198,232.008,452.709,230.248,449.263,228.119z"/>
  <path fill-rule="evenodd" clip-rule="evenodd" fill="#008C34" d="M445.029,99.6c-4.182,1.215-5.405,4.547-6.346,8.183
    c-0.571,2.183-1.583,4.007-4.354,4.253c-0.829,0.076-1.872,1.311-2.242,2.242c-0.701,1.785-1.188,3.707-1.416,5.614
    c-0.825,7.01-3.248,13.514-6.208,19.824c-0.683,1.458-2.174,2.522-3.237,3.818c-1.414,1.72-3.152,3.304-4.066,5.267
    c-2.907,6.248-5.667,12.579-8.167,19c-4.317,11.094-8.321,22.31-12.627,33.409c-1.765,4.56-0.6,4.128-5.626,2.691
    c-8.192-2.338-16.263-5.153-24.534-7.151c-9.667-2.34-19.503-2.901-29.467-1.53c-6.44,0.885-12.971,1.093-19.462,1.613
    c-1.396,0.111-2.783,0.26-4.518,0.424c3.027-4.94,5.803-9.527,8.632-14.085c5.989-9.643,12.022-19.249,17.98-28.908
    c2.095-3.397,4.021-6.909,6.025-10.363c0.189-0.32,0.399-0.648,0.665-0.901c0.085-0.078,0.546,0.161,0.58,0.11
    c2.891-5.135,6.638-9.691,9.861-14.605c7.8-11.896,15.843-23.634,23.685-35.5c1.503-2.271,2.924-2.938,5.832-2.44
    c9.436,1.619,18.965,2.657,28.448,3.979c10.145,1.417,20.281,2.907,30.418,4.364C444.935,99.139,444.985,99.37,445.029,99.6z"/>
</g>
<g>
  <polygon points="813.5,298.483 826.44,308.755 1021.403,320.621 1017.574,306.669   "/>
  <polygon points="786.593,276.031 967.574,259.702 970.501,244.567 781.157,272.802  "/>
  <polygon points="834.301,234.262 917.143,214.207 892.6,205.266 825.925,230.156  "/>
  <polygon fill="#FFFFFF" stroke="#FFFFFF" stroke-width="4" stroke-miterlimit="10" points="815.121,303.77 828.059,314.04 
    1023.024,325.91 1019.19,311.957   "/>
  <polygon fill="#FFFFFF" stroke="#FFFFFF" stroke-width="4" stroke-miterlimit="10" points="788.215,281.317 969.201,264.99 
    972.122,249.855 782.778,278.089   "/>
  <polygon fill="#FFFFFF" stroke="#FFFFFF" stroke-width="4" stroke-miterlimit="10" points="835.924,239.55 918.765,219.493 
    894.222,210.554 827.546,235.443   "/>
</g>
<polygon fill-rule="evenodd" clip-rule="evenodd" points="198.595,121.14 25.05,21.005 8.514,41.234 191.861,129.617 "/>
<polygon fill-rule="evenodd" clip-rule="evenodd" fill="#FFFFFF" points="198.791,127.492 25.25,27.358 8.713,47.586 
  192.059,135.968 "/>
<g>
  <path d="M254.433,142.499c1.427,0.068,3.545-1.191,4.81-2.107c7.046-5.109,13.225-11.797,18.807-18.737l0.412-0.577
    c1.824-2.425,4.447-5.844,5.017-9.428c0.224-1.405,0.134-2.856-0.422-4.382c-4.487,0.083-8.313,2.033-11.801,3.873
    c-7.161,3.813-17.222,11.802-24.013,16.311c-2.891,2.099-6.373,4.9-8.847,7.383c-2.858,2.901-5.668,5.486-8.372,8.414
    c-2.858,2.9-5.274,6.029-7.74,9.474c-2.417,3.133-4.333,7.142-6.251,11.151c-2.198,4.763-4.642,11.086-5.635,17.319
    c-0.67,4.209-0.716,8.515,0.296,12.192c1.878,1.257,4.166,1.941,6.66,2.338c3.582,0.57,7.448,0.389,10.51,0.236
    c5.677-0.536,10.52-1.841,14.97-3.687c4.423-1.695,8.898-3.697,12.929-5.934c4.237-2.519,7.745-5.475,11.122-8.616
    c-1.219,3.642-4.209,6.363-6.002,9.593c-0.641,1.014-0.865,2.417-1.53,3.591c-0.643,1.016-1.545,1.673-2.162,2.534l-0.052,0.312
    c-0.247,1.556-1.461,2.163-2.127,3.334c-0.591,0.705-0.585,1.665-1.153,2.214c-0.821,1.149-2.683,1.809-3.998,3.038
    c-2.013,1.599-4.107,2.701-5.881,4.817l-8.818,4.189c-2.668,0.693-5.36,1.544-8.264,1.722c-1.296,0.114-2.723,0.044-3.971-0.154
    c-1.714-0.274-3.561-0.726-5.717-1.229c-1.403-0.222-2.854-0.137-4.101-0.335c-2.469-0.551-4.888-1.417-6.841-2.209
    c-1.927-0.945-3.649-2.176-4.903-3.335c-2.719-2.99-4.946-6.062-6.476-9.502c-1.056-2.403-2.061-5.123-2.263-7.871l-0.113-1.296
    c0.075-0.467-0.186-0.83-0.268-1.32c-0.177-2.905,0.113-5.738,0.348-9.215c0.117-1.74,0.415-3.609,0.713-5.479
    c1.241-7.792,3.753-15.543,6.46-21.503c4.674-10.282,10.427-18.313,17.379-25.839c6.9-7.21,14.818-13.78,22.12-19.491
    c5.653-4.373,12.293-7.948,18.804-11.706c2.325-1.546,4.387-3.456,6.225-3.962c1.813-0.349,3.685-0.053,5.292-0.116l0.468,0.074
    c1.402,0.222,2.993,1.277,4.321,1.969c4.167,1.938,8.233,4.506,12.191,6.738c5.755,2.99,10.191,6.253,13.08,11.19
    c1.261,2.116,1.519,5.512,0.948,9.101c-0.124,0.777-0.248,1.558-0.552,2.468c-0.686,2.29-2.354,4.739-3.506,6.953
    c-2.508,4.714-5.334,8.417-8.343,12.254c-3.936,4.647-7.542,8.227-11.567,11.423l-0.902,0.654c-3.41,2.333-7.359,5.06-12.396,4.578
    l-0.779-0.125c-2.026-0.322-3.485-1.19-4.79-2.041c-3.104-2.569-5.906-6.052-7.198-8.977c-0.213-0.67-0.039-1.763-0.225-2.592
    c-0.214-0.672-0.917-1.265-0.793-2.045C251.048,140.683,252.563,142.201,254.433,142.499z"/>
  <path d="M292.864,186.176c11.011-5.917,21.702-12.842,31.59-19.741c-1.59,2.945-4.167,5.09-6.436,7.288
    c-0.748,0.678-1.388,1.695-2.136,2.375c-0.821,1.149-2.037,1.753-3.146,2.695c-0.953,0.967-1.644,2.293-2.572,3.106
    c-1.133,1.099-3.021,1.916-3.606,3.581c-1.551,0.71-2.735,2.121-4.047,3.349c-1.135,1.097-2.531,1.834-3.845,3.063
    c-0.387,0.418-0.462,0.887-0.848,1.305c-0.978,1.123-2.815,1.63-3.583,3.424c-3.438,1.53-6.428,4.25-9.763,6.115
    c-0.181,0.133-0.23,0.444-0.255,0.598c-0.025,0.157-0.05,0.311-0.23,0.443c-2.587,1.188-5.632,3.26-9.022,4.478
    c-0.879,0.5-2.068,0.947-3.16,0.772l-0.311-0.05c-1.091-0.172-1.491-1.672-2.483-2.47c-1.952-0.792-2.245-1.958-3.269-3.558
    c0.025-0.156-0.131-0.18-0.106-0.335c-1.129-1.937-2.104-3.85-1.789-6.837l0.149-0.933c0.968-6.078,4.512-11.27,6.92-15.359
    c3.027-4.95,6.06-8.945,9.322-13.377c6.733-9.155,14.282-16.424,20.921-23.999l0.362-0.26c0.155,0.024,0.179-0.13,0.335-0.106
    c1.214-0.605,2.407-1.055,4.277-0.759l0.623,0.099c1.976,0.636,3.704,2.83,5.27,4.038c1.408,1.184,2.763,1.715,3.859,2.853
    c0.451,1.189,0.801,3.005,0.528,4.717c-0.101,0.623-0.224,1.401-0.634,1.976c-0.798,0.994-2.218,1.885-3.016,2.876l-6.005,5.595
    c-1.133,1.099-2.243,2.041-2.883,3.058c-0.361,0.262-0.435,0.729-0.641,1.015c-0.773,0.836-1.676,1.493-2.423,2.172
    c-2.112,2.222-4.117,4.778-6.229,6.999c-2.909,3.211-5.638,6.292-8.208,9.398c-2.145,1.417-3.451,3.605-5.07,5.745
    C285.369,190.095,289.324,188.329,292.864,186.176z M317.216,130.607c0.197-1.249,0.996-2.241,1.481-3.283
    c1.538-2.631,3.494-4.878,5.474-7.276c0.978-1.122,2.111-2.22,2.933-3.367c0.41-0.576,0.509-1.199,1.077-1.748
    c1.027-1.434,2.735-2.123,3.451-3.607c1.601-1.024,3.178-1.89,5.515-1.518c0.468,0.075,0.911,0.305,1.378,0.38
    c1.352,0.535,3.076,1.769,4.222,2.592c0.443,0.227,0.73,0.432,0.992,0.795c0.91,0.303,1.666,0.586,2.214,1.154
    c0.681,0.747,1.156,1.779,2.015,2.396c0.163,0.983,0.301,2.125,0.152,3.062c-0.173,1.09-0.633,1.976-1.226,2.681
    c-0.592,0.705-1.862,0.66-2.741,1.159c-4.244,1.563-8.393,5.538-12.432,6.812c-1.576,0.868-3.389,1.218-4.704,2.448
    c-1.14,0.135-2.207-0.194-3.191-0.032c-0.491,0.083-0.854,0.347-1.321,0.271l-0.313-0.051c-0.467-0.074-0.884-0.462-1.327-0.69
    c-1.197-0.513-2.47-0.555-3.691-0.909C317.091,131.388,317.166,130.919,317.216,130.607z"/>
  <path d="M322.12,210.171c-2.61,1.342-4.271,4.755-7.775,4.675l-0.311-0.049c-2.027-0.324-2.895-1.901-4.224-2.59l-1.246-0.197
    c-3.591-1.531-5.458-4.866-6.57-7.919c-0.793-2.042-1.643-4.734-1.327-7.723l0.075-0.469c0.993-6.233,4.412-10.641,7.419-14.478
    l0.413-0.575c9.327-12.416,21.985-23.667,35.433-29.833c0.46-0.882,1.053-1.591,2.062-1.909c2.182,0.349,3.978,1.112,6.086,1.927
    c2.106,0.817,4.165,1.941,6.117,2.731l4.863,1.576c2.106,0.817,4.14,2.098,6.068,3.043c4.14,2.098,6.048,4.161,5.41,9.173
    l-0.173,1.09c-0.299,1.869-1.145,3.172-3.01,3.838c-1.034,0.471-2.304,0.43-3.553,0.232c-1.558-0.25-3.199-0.991-4.189-1.787
    c-0.524-0.725-0.948-2.071-1.704-2.351l-0.467-0.073c-1.714-0.273-5.342,0.426-6.868,0.985c-2.071,0.948-3.827,1.946-5.405,2.814
    c-10.435,6.329-22.952,15.681-31.918,27.837c2.798-0.513,5.042-2.554,7.522-4.078c6.971-4.641,17.581-12.061,25.423-18.161
    l0.026-0.155c0.223-1.405,1.874-2.74,3.17-2.854l0.313,0.051c1.714,0.273,3.411,1.658,4.427,2.3l0.623,0.1
    c0.468,0.077,0.755,0.283,1.172,0.668c3.535,0.883,7.109,3.529,6.588,6.803c-0.074,0.467-0.33,1.064-0.559,1.508
    c-0.668,1.173-2.194,1.727-2.966,2.565c-2.784,2.431-6.795,7.547-7.479,9.834c0.079,0.494,0.5,0.878,1.122,0.977
    c0.312,0.051,0.624,0.1,0.96-0.008c2.306-0.43,4.842-1.304,6.936-2.409c1.06-0.628,1.855-1.621,3.151-1.736
    c-0.689,1.331-1.438,2.01-1.817,3.385c-0.149,0.937,0.219,1.636,0.121,2.257c-0.256,0.601-0.873,1.461-1.464,2.163
    c-1.34,1.385-2.287,3.313-3.6,4.542c-1.987,1.44-4.649,3.097-7.077,4.308c-1.241,0.763-2.43,1.211-3.957,1.766
    c-1.215,0.607-2.718,1.005-3.808,0.833c-0.78-0.125-1.272-0.042-1.742-0.118l-0.31-0.051c-1.403-0.221-2.215-1.151-2.813-1.406
    c-2.246-1.956-3.318-3.244-2.959-7.503c0.57-3.585,1.472-8.236,2.894-12.163C335.034,198.327,328.494,205.271,322.12,210.171z"/>
  <path d="M433.991,180.045c-0.791,1.953-1.711,3.723-2.083,6.062c-1.103,1.904-1.738,3.879-2.815,5.625
    c-0.944,1.927-2.153,3.494-3.256,5.395c-0.306,0.908-0.609,1.821-1.587,2.941c-0.281,0.757-1.003,1.279-1.776,2.117
    c-1.233,1.72-2.359,3.779-3.386,5.213l-3.938,4.646c-1.363,1.541-3.015,2.875-4.639,4.056c-2.966,2.564-6.711,5.003-10.538,6.954
    c-2.404,1.05-6.838,1.785-10.751,2.279l-1.141,0.138c-0.959,0.008-1.738-0.116-2.723,0.047c-0.911-0.304-1.689-0.428-2.313-0.527
    c-2.181-0.349-4.756-1.239-6.478-2.471c-3.985-2.074-5.146-4.816-6.533-10.15c-0.875-2.537-1.39-5.334-1.303-7.876
    c0.067-1.428,0.134-2.856,0.381-4.413c0.573-3.589,1.791-7.226,3.741-10.433c2.04-4.788,5.179-8.443,8.211-12.436
    c1.397-0.735,2.193-1.729,2.811-2.59l2.81-2.586c0.877-0.501,1.495-1.36,2.085-2.064c1.545-1.674,3.926-2.574,6.324-4.589
    c4.081-2.546,11.329-4.908,13.715-4.844c1.454-0.091,3.783-0.68,6.041-0.796c1.633-0.222,3.815,0.126,6.489,0.391l2.339,0.372
    c2.805,0.447,5.116,0.977,7.02,2.081c1.328,0.688,2.737,1.874,3.549,2.801c1.392,2.298,1.568,5.204,1.146,7.854
    c-0.323,2.024-0.907,3.69-1.624,5.175C434.214,178.643,433.935,179.396,433.991,180.045z M420.41,175.008
    c-2.043,0.792-3.776,1.634-5.221,2.683l-4.392,2.495c-1.109,0.943-3.129,1.58-4.575,2.629c-0.542,0.392-1.134,1.099-1.52,1.514
    c-0.722,0.527-1.396,0.74-1.987,1.443c-3.95,2.724-5.998,6.556-9.579,9.98c-1.021,2.394-3.47,4.722-4.565,7.586l-0.18,0.128
    c-1.103,1.903-2.254,4.116-2.625,6.454c-0.249,1.559-0.031,3.192,0.683,4.743c5.022-1.438,10.244-4.121,13.283-7.152
    c7.04-6.071,12.627-12.052,16.855-19.529c2.053-2.867,3.479-6.796,4.023-10.225l0.175-1.094c0.049-0.308,0.255-0.597,0.306-0.909
    c0.048-0.313-0.083-0.491-0.526-0.721L420.41,175.008z"/>
  <path d="M515.423,128.291c1.871,0.3,3.437,1.508,5.207,2.428c2.393,1.021,5.462,1.83,7.315,3.242
    c1.901,1.101,3.499,3.116,3.052,5.921c-0.124,0.779-0.405,1.533-0.866,2.418c-0.64,1.017-1.726,1.802-2.186,2.686
    c-1.338,1.387-5.026,4.475-6.053,5.911c-7.143,9.729-13.864,16.808-21.318,26.491c-4.241,5.555-18.975,23.824-23.709,29.464
    c-3.55,4.227-6.141,8.449-9.068,12.778c-1.182,1.408-2.546,2.95-3.418,4.408c-0.386,0.417-0.486,1.042-0.872,1.46
    c-0.691,1.326-1.719,2.761-3.056,4.148c-1.589,2.941-4.088,5.58-6.249,8.114c-1.668,2.45-3,4.795-5.069,5.744l-1.683,0.53
    c-1.034,0.473-1.264,0.917-1.578,0.865c-0.335,0.106-1.892-0.141-2.984-0.313l-1.092-0.175c-0.286-0.204-0.655-0.9-0.891-1.42
    c-0.106-0.336-0.887-0.461-1.148-0.819c-0.707-0.595-1.465-1.831-2.071-3.047c-1.531-3.441-2.086-4.969-1.863-6.372
    c0.248-1.557,1.458-3.121,3.169-6.845c8.017-14.225,27.715-38.573,36.864-50.861c9.559-12.857,18.896-24.317,28.635-37.31
    c0.592-0.704,5.375-6.653,5.628-7.252c0.799-0.994,2.556-1.991,3.877-2.259C514.488,128.144,514.957,128.217,515.423,128.291z"/>
  <path d="M538.422,187.567c1.714,0.273,3.609,0.417,5.373,0.379c1.453-0.09,2.848-0.825,3.471-0.726l-0.05,0.31
    c-0.199,1.247-1.045,2.553-1.947,3.207c-2.919,5.287-9.307,8.266-15.591,7.584c-2.363-0.216-5.504-0.556-8.154-0.978
    c-5.183,4.449-6.614,7.415-11.429,12.563c-1.102,1.9-2.311,3.464-3.649,4.851l-0.386,0.418c-3.576,4.384-5.162,7.324-7.171,12.921
    c0.286,0.204,0.754,0.28,1.222,0.354c0.933,0.149,2.052,0.167,3.348,0.053c7.853-1.145,16.987-4.323,21.998-7.682
    c1.42-0.893,2.217-1.884,3.901-2.416c-0.717,1.483-1.539,2.632-2.566,4.066c-0.436,0.729-0.741,1.64-1.308,2.19
    c-1.026,1.436-1.511,2.477-2.408,4.09c-0.099,0.625-1.233,1.721-2.317,2.508c-1.134,1.096-3.097,2.383-4.542,3.433
    c-3.588,2.462-9.72,4.842-14.095,6.225c-1.559-0.25-3.086,0.308-4.561,0.55c-1.478,0.247-2.749,0.202-3.685,0.054
    c-3.896-0.619-4.696-3.626-6.762-5.715c-0.581-1.369-1.211-2.426-1.168-3.701c-0.506-1.839-0.338-3.889-0.51-5.832
    c-0.087-1.451,0.162-3.011,0.41-4.569c0.843-5.298,3.089-10.373,4.852-14.409c8.326-18.171,26.53-34.128,37.87-48.143
    c0.205-0.287,0.255-0.599,0.279-0.756l0.148-0.935c0.922-1.77,3.983-1.921,6.946-1.45c1.712,0.273,3.247,0.678,4.42,1.342
    c1.017,0.644,1.907,2.062,2.899,2.858c1.253,1.161,2.607,1.697,3.444,2.467c1.228,1.315,2.021,3.359,1.699,5.384
    c-0.174,1.092-0.659,2.134-1.457,3.125c-0.592,0.706-1.47,1.202-2.374,1.86c-1.676,1.489-2.729,3.083-4.272,4.752
    c-3.501,3.918-3.755,4.515-7.387,8.253C534.396,186.769,536.24,187.219,538.422,187.567z"/>
  <path d="M543.276,245.391c-2.61,1.343-4.271,4.755-7.775,4.676l-0.312-0.05c-2.026-0.323-2.893-1.9-4.222-2.589l-1.247-0.197
    c-3.592-1.532-5.457-4.867-6.57-7.919c-0.793-2.043-1.643-4.736-1.326-7.725l0.074-0.466c0.993-6.234,4.413-10.643,7.42-14.478
    l0.412-0.577c9.328-12.416,21.986-23.667,35.434-29.833c0.459-0.883,1.051-1.591,2.061-1.908c2.184,0.347,3.977,1.11,6.086,1.927
    c2.107,0.814,4.165,1.942,6.116,2.729l4.864,1.575c2.107,0.817,4.141,2.1,6.066,3.043c4.142,2.098,6.049,4.162,5.411,9.173
    l-0.173,1.09c-0.297,1.868-1.146,3.174-3.007,3.839c-1.036,0.47-2.308,0.429-3.554,0.231c-1.559-0.249-3.199-0.989-4.191-1.784
    c-0.523-0.727-0.949-2.074-1.703-2.352l-0.468-0.074c-1.714-0.273-5.34,0.428-6.869,0.986c-2.067,0.949-3.826,1.945-5.401,2.815
    c-10.436,6.327-22.953,15.682-31.919,27.835c2.797-0.514,5.04-2.553,7.52-4.077c6.973-4.643,17.583-12.061,25.425-18.163
    l0.025-0.155c0.224-1.404,1.875-2.74,3.172-2.853l0.311,0.05c1.714,0.273,3.412,1.66,4.428,2.301l0.624,0.099
    c0.467,0.075,0.754,0.283,1.171,0.672c3.535,0.88,7.109,3.528,6.589,6.799c-0.075,0.467-0.33,1.064-0.561,1.508
    c-0.667,1.174-2.191,1.728-2.965,2.567c-2.785,2.43-6.796,7.545-7.479,9.835c0.082,0.492,0.499,0.876,1.123,0.976
    c0.311,0.049,0.624,0.098,0.96-0.008c2.305-0.431,4.841-1.306,6.936-2.41c1.058-0.63,1.855-1.622,3.153-1.736
    c-0.692,1.331-1.44,2.008-1.817,3.387c-0.149,0.936,0.219,1.633,0.119,2.254c-0.256,0.599-0.872,1.463-1.465,2.163
    c-1.338,1.386-2.285,3.314-3.599,4.541c-1.987,1.444-4.647,3.099-7.079,4.309c-1.238,0.764-2.431,1.21-3.956,1.766
    c-1.215,0.607-2.716,1.007-3.809,0.834c-0.779-0.125-1.272-0.043-1.739-0.119l-0.312-0.049c-1.403-0.224-2.212-1.15-2.814-1.409
    c-2.246-1.954-3.317-3.241-2.96-7.501c0.571-3.585,1.472-8.233,2.898-12.164C556.19,233.547,549.649,240.491,543.276,245.391z"/>
  <path d="M614.845,228.503c-3.954,5.764-8.227,14.513-8.97,19.188c-0.297,1.87-0.028,3.192,1.063,3.363l0.623,0.103
    c2.025,0.321,4.331-0.11,6.195-0.772c3.546-1.194,4.628-1.976,8.25-3.639c1.42-0.892,2.842-1.786,4.575-2.63
    c6.278-3.313,12.767-6.916,18.022-11.829c-0.297,1.867-2.646,3.573-3.518,5.029c-0.872,1.461-1.718,2.765-3.033,3.995
    c-0.279,0.752-1.339,1.385-2.187,2.685c-2.685,1.813-4.429,4.73-6.802,6.588c-2.194,1.729-3.275,2.514-5.001,4.319
    c-5.7,4.686-11.092,5.425-15.008,5.92c-1.321,0.271-3.396,0.256-5.423-0.065c-2.024-0.322-4.157-0.979-5.616-1.854
    c-2.008-1.437-3.818-4.124-4.947-6.061c-2.087-4.965-3.978-8.145-3.158-13.29c0.099-0.62,0.354-1.221,0.453-1.84
    c1.174-6.368,3.39-12.245,5.715-16.831c1.129-2.06,2.198-4.765,5.972-10.397c0.173-1.09,1.464-2.165,2.261-3.157
    c7.751-11.547,18.976-23.825,29.161-32.589c3.869-3.221,7.845-6.101,11.844-9.139c1.521-1.517,3.899-2.416,5.395-3.775
    c0.336-0.107,0.437-0.73,0.799-0.99c1.469-1.205,3.356-2.024,5.162-3.334c1.758-1,3.253-2.36,4.936-2.889
    c0.544-0.394,1.192-0.451,1.889-0.822c1.525-0.554,3.858-1.141,5.83-1.468c0.153,0.023,0.489-0.083,0.646-0.056
    c1.559,0.248,3.781,2.359,5.237,3.233c2.583,1.85,5.364,2.451,7.298,4.355c0.918,1.265,1.762,2.999,1.931,4.942
    c0.083,0.493-0.021,1.118-0.118,1.74c-0.322,2.027-1.188,4.447-1.821,6.422c-2.463,7.44-6.629,12.527-10.634,18.604
    c-2.589,4.219-5.965,7.36-8.852,10.417c-2.552,1.987-5.025,4.471-7.604,6.619c-9.209,7.642-18.814,13.783-31.005,18.074
    c-3.39,1.216-4.573,2.625-8.938,1.932L614.845,228.503z M643.051,192.882c-8.273,7.792-16.646,16.209-22.777,25.619
    c5.877-1.779,11.302-4.751,16.107-7.821c5.115-3.019,9.968-6.402,14.221-10.043c6.525-5.83,12.496-12.231,16.955-20.151
    c1.62-2.139,2.977-4.64,3.396-7.29c0.183-0.131,0.389-0.416,0.436-0.728c0.026-0.156,0.053-0.313-0.261-0.362
    c-2.078-0.009-3.39,1.219-4.836,2.268C657.662,179.392,649.804,186.607,643.051,192.882z"/>
  <path d="M661.77,244.924c11.013-5.913,21.701-12.842,31.592-19.739c-1.592,2.946-4.168,5.091-6.438,7.289
    c-0.746,0.678-1.388,1.692-2.135,2.377c-0.821,1.147-2.037,1.75-3.147,2.691c-0.951,0.97-1.644,2.298-2.571,3.106
    c-1.132,1.098-3.021,1.919-3.607,3.581c-1.55,0.713-2.733,2.123-4.046,3.352c-1.137,1.098-2.532,1.835-3.844,3.063
    c-0.387,0.418-0.463,0.884-0.85,1.304c-0.978,1.122-2.815,1.626-3.581,3.422c-3.438,1.53-6.428,4.252-9.764,6.118
    c-0.182,0.132-0.23,0.443-0.257,0.597c-0.022,0.157-0.049,0.313-0.229,0.444c-2.587,1.188-5.633,3.259-9.022,4.479
    c-0.878,0.497-2.069,0.943-3.159,0.77l-0.312-0.049c-1.092-0.173-1.491-1.672-2.483-2.473c-1.952-0.79-2.245-1.956-3.268-3.555
    c0.024-0.155-0.133-0.182-0.108-0.336c-1.13-1.939-2.104-3.851-1.788-6.837l0.15-0.936c0.966-6.078,4.511-11.267,6.92-15.357
    c3.027-4.952,6.059-8.943,9.322-13.38c6.732-9.156,14.28-16.421,20.921-23.997l0.358-0.259c0.157,0.026,0.182-0.13,0.339-0.106
    c1.216-0.605,2.403-1.057,4.275-0.758l0.623,0.1c1.977,0.634,3.704,2.825,5.269,4.035c1.409,1.184,2.767,1.715,3.862,2.852
    c0.45,1.19,0.801,3.005,0.527,4.716c-0.1,0.626-0.224,1.403-0.636,1.977c-0.796,0.993-2.218,1.886-3.015,2.877l-6.005,5.597
    c-1.133,1.099-2.241,2.038-2.883,3.057c-0.36,0.261-0.435,0.728-0.64,1.015c-0.772,0.837-1.677,1.491-2.424,2.171
    c-2.113,2.22-4.119,4.779-6.23,7c-2.908,3.211-5.637,6.293-8.207,9.396c-2.146,1.418-3.451,3.607-5.07,5.746
    C654.275,248.848,658.23,247.079,661.77,244.924z M686.119,189.358c0.199-1.249,0.996-2.241,1.485-3.284
    c1.536-2.632,3.489-4.878,5.474-7.277c0.976-1.122,2.108-2.22,2.932-3.367c0.409-0.575,0.509-1.196,1.079-1.748
    c1.024-1.434,2.731-2.121,3.449-3.605c1.601-1.023,3.178-1.891,5.515-1.517c0.466,0.074,0.912,0.303,1.379,0.379
    c1.351,0.536,3.074,1.767,4.221,2.592c0.444,0.227,0.729,0.431,0.992,0.796c0.91,0.304,1.664,0.583,2.214,1.151
    c0.681,0.749,1.153,1.78,2.015,2.398c0.163,0.984,0.3,2.124,0.151,3.06c-0.173,1.092-0.634,1.978-1.227,2.681
    c-0.591,0.707-1.862,0.66-2.742,1.161c-4.241,1.563-8.393,5.537-12.431,6.81c-1.576,0.868-3.39,1.219-4.703,2.451
    c-1.139,0.134-2.208-0.198-3.19-0.031c-0.493,0.08-0.855,0.343-1.322,0.268l-0.313-0.049c-0.467-0.074-0.884-0.461-1.326-0.691
    c-1.197-0.511-2.469-0.554-3.691-0.911C685.997,190.136,686.072,189.667,686.119,189.358z"/>
  <path d="M691.024,268.922c-2.609,1.34-4.27,4.754-7.775,4.675l-0.31-0.049c-2.027-0.322-2.893-1.9-4.224-2.591l-1.246-0.198
    c-3.592-1.529-5.458-4.866-6.57-7.918c-0.792-2.046-1.642-4.734-1.326-7.725l0.073-0.467c0.994-6.233,4.413-10.642,7.422-14.476
    l0.409-0.579c9.33-12.414,21.989-23.665,35.436-29.83c0.459-0.885,1.052-1.592,2.06-1.908c2.182,0.346,3.98,1.111,6.087,1.925
    c2.106,0.817,4.166,1.942,6.115,2.73l4.865,1.577c2.106,0.815,4.142,2.098,6.066,3.042c4.14,2.098,6.05,4.163,5.412,9.175
    l-0.175,1.09c-0.297,1.87-1.143,3.171-3.009,3.835c-1.03,0.476-2.304,0.433-3.551,0.234c-1.561-0.246-3.198-0.99-4.192-1.784
    c-0.521-0.729-0.947-2.072-1.703-2.353l-0.467-0.073c-1.713-0.275-5.341,0.427-6.869,0.984c-2.069,0.949-3.823,1.947-5.402,2.815
    c-10.434,6.327-22.952,15.682-31.917,27.835c2.797-0.512,5.04-2.551,7.519-4.074c6.974-4.643,17.583-12.062,25.426-18.165
    l0.024-0.155c0.224-1.403,1.876-2.739,3.172-2.852l0.312,0.049c1.715,0.272,3.41,1.66,4.427,2.304l0.623,0.101
    c0.469,0.073,0.756,0.278,1.173,0.668c3.535,0.882,7.108,3.53,6.589,6.8c-0.075,0.467-0.33,1.063-0.559,1.51
    c-0.668,1.171-2.196,1.728-2.968,2.563c-2.785,2.433-6.796,7.55-7.48,9.837c0.082,0.493,0.501,0.878,1.125,0.979
    c0.312,0.047,0.625,0.098,0.959-0.009c2.306-0.434,4.844-1.306,6.937-2.41c1.062-0.631,1.855-1.623,3.151-1.737
    c-0.69,1.33-1.438,2.011-1.817,3.386c-0.148,0.938,0.222,1.636,0.12,2.259c-0.254,0.598-0.869,1.459-1.46,2.164
    c-1.343,1.383-2.288,3.313-3.603,4.54c-1.985,1.44-4.646,3.097-7.078,4.305c-1.239,0.762-2.429,1.212-3.956,1.769
    c-1.215,0.606-2.718,1.006-3.81,0.833c-0.778-0.124-1.27-0.043-1.738-0.12l-0.312-0.049c-1.401-0.223-2.216-1.149-2.811-1.406
    c-2.247-1.955-3.319-3.244-2.96-7.502c0.568-3.586,1.469-8.236,2.893-12.166C703.938,257.075,697.4,264.024,691.024,268.922z"/>
  <path d="M743.482,296.775c-2.493-0.397-3.877-1.738-5.985-2.553c-1.817-3.648-6.661-6.338-5.899-12.127l0.148-0.936
    c0.446-2.805,1.643-6.29,2.744-8.191c0.182-0.134,0.182-0.134,0.334-0.107c0.157,0.024,0.756,0.281,1.07,0.33
    c0.976-1.125,2.297-1.392,4.011-1.118c0.623,0.1,1.092,0.173,1.846,0.45c1.848,0.456,3.05,1.927,5.082,3.21
    c2.479,1.512,5.053,2.399,5.771,4.909c0.186,0.832,0.662,1.866,0.46,3.115c-0.047,0.31-0.228,0.442-0.276,0.752
    c-0.356,1.224-1.465,2.167-2.288,3.31c-2.078,3.029-4.258,6.676-6.549,9.029L743.482,296.775z M789.912,230.019
    c-1.587,2.939-4.429,4.727-5.838,7.537c-3.119,2.541-5.479,6.319-9.257,7.955c-2.793,4.511-7.03,7.03-10.483,10.636
    c-1.165,0.296-1.962,1.285-3.153,1.736c-2.21,2.844-5.101,4.941-7.835,7.061c-1.141,0.138-2.019,0.637-2.799,0.515
    c-0.312-0.051-0.754-0.283-1.041-0.488c-1.171-0.662-2.139-1.618-2.563-2.964c-0.369-0.697-0.271-1.322-0.353-1.812
    c0.876-4.496,3.605-7.578,5.892-10.889c2.08-3.024,3.846-6.101,6.008-8.633c3.88-5.295,8.507-11.27,12.36-16.407
    c4.038-5.272,15.214-20.273,19.636-25.957c3.059-4.151,6.319-8.584,9.528-13.668c0.919-1.771,2.407-4.089,2.607-5.336
    c0.118-1.74-1.652-2.661-1.354-4.531c0.615-0.863,1.42-0.894,2.353-0.744c1.09,0.173,2.288,0.685,3.223,0.833
    c0.628,0.098,1.141-0.14,1.609-0.065l0.469,0.076c2.495,0.395,4.345,1.809,6.223,3.068l0.573,0.41
    c3.6,2.493,5.714,4.268,5.565,9.199l-0.147,0.934c-0.421,2.65-1.902,5.929-3.728,8.355c-5.826,8.502-15.552,20.375-23.044,28.292
    C793.082,227.165,791.69,228.864,789.912,230.019z"/>
</g>
</svg>
