<svg id="Layer_1" data-name="Layer 1" xmlns="http://www.w3.org/2000/svg" viewBox="0 0 755.39 281.86"><title>title</title><path d="M173.52,88.2c8-.93,15-1.67,22-2.64a4.27,4.27,0,0,0,2.42-2.13q15.3-26.87,30.48-53.8c0.48-.85.78-1.79,1.34-3.08,6.78,0.64,13.42,1.72,17.41,8.2a6.91,6.91,0,0,1,.12,5.43c-1.3,3.2-3.29,6.12-5,9.17Q215.39,98,188.48,146.55c-2.17,3.9-4.43,7.94-7.51,11.07-1.46,1.48-5.13,1.73-7.48,1.17-3.5-.83-5.81-3.7-4.73-7.58a142.75,142.75,0,0,1,5.66-17c4.5-10.7,9.42-21.23,14.17-31.83-6.49-.56-12.71-1.29-18.94-1.49a5.78,5.78,0,0,0-4.36,2.65c-6.87,13.46-13.53,27-20.16,40.61-2.61,5.34-7.23,8.6-10.85,7.36-5.72-2-10.37-9.07-8.35-14.54,5-13.37,9.86-26.84,16.13-39.62C151.44,78.3,162,59.79,172,41c1.8-3.36,4.09-6.58,5.21-10.16s3.31-4.19,6.28-4.18a9.92,9.92,0,0,1,2.89.65c14.4,4.65,15.6,7,8.77,20.35-6,11.8-12.71,23.28-19.07,34.92C175.29,84,174.72,85.54,173.52,88.2Z" fill="#fff" fill-rule="evenodd"/><path d="M324.16,33.2c-3.44,1.44-6.92,3.44-10.66,4.34-8.23,2-16.61,3.34-24.88,5.18-1.55.34-3.51,1.4-4.19,2.69-5.23,10-10.2,20.08-16,31.61l28.65-2.15c-1.42,8-7.54,11.78-15.17,13.61-6,1.43-12.13,2-18.1,3.42-2.35.55-5.43,1.7-6.45,3.54-7.33,13.18-14.21,26.6-21.43,40.31,13.11,1.4,27.3-6.8,39.12,6.8-3.94,1.32-6.81,2.21-9.65,3.24q-17.55,6.37-35.07,12.83c-4,1.49-7.77,2.38-10.17-2.51a1,1,0,0,0-.33-0.37c-3.71-2.52-8.41-4.8-8.11-9.93,0.33-5.68.91-11.8,3.29-16.83,10.59-22.36,21.77-44.44,32.92-66.53,4.57-9,9.72-17.79,14.35-26.81,1.6-3.11,2.43-6.61,3.83-10.55h5.32l2.66-4.23a2.86,2.86,0,0,1,1.17.18c2.59,5.73,7.29,6.08,12.83,5.76,9.13-.53,18.29-0.3,27.44-0.5C319.9,26.23,322.87,27.84,324.16,33.2Z" fill="#fff" fill-rule="evenodd"/><path d="M113.4,45c-24.24-1.73-24.85-2.22-26.57-21.52,1.68,0.34,3.51.21,4.6,1,4.82,3.63,10.26,3.37,15.79,3.12,15.3-.7,30.6-1.22,45.89-2,6.22-.34,10.83,3,15.37,6.24,2.7,1.94,2.24,4.4-1.28,5.29-7.71,2-15.44,3.87-23.21,5.6a10,10,0,0,0-7.23,5.14c-18.73,31.82-36.72,64-53,97.21a74.59,74.59,0,0,1-7.07,11.45c-3.74,5-10,4.24-14.3-.32-4.44-4.75-3-8.52-.45-13.29,16.82-31.54,33.44-63.19,50.12-94.81C112.53,47.24,112.83,46.34,113.4,45Z" fill="#fff" fill-rule="evenodd"/><path d="M372.32,102.31c10.41-10.93,19.78-21,29.46-30.85,11.35-11.5,23-22.7,34.46-34.08a16.49,16.49,0,0,0,3-3.91c3.2-6.08,7.36-8,13.9-6.31,10.69,2.81,11.17,3.49,5.6,13.15-7.8,13.54-16.58,26.54-23.94,40.3-12.3,23-23.81,46.36-35.65,69.57a53,53,0,0,1-2.52,4.86c-2,3.05-4.42,5.36-8.54,4.47-4.55-1-7.87-3.6-7.9-8.29,0-4.21.44-8.8,2.12-12.58,7.56-17,15.63-33.74,23.52-50.57a11.6,11.6,0,0,0,1.53-5.25Q390.46,103,373.56,123.16c-2.24,2.68-4.32,5.5-6.59,8.16-2.11,2.48-4,6-8.1,4.13-4.9-2.21-10.9-3.88-10.87-10.8a46.82,46.82,0,0,1,1.91-11.73c3.09-11.52,6.45-23,9.7-34.46l-1.26-.53c-2.36,3.92-4.87,7.76-7.07,11.77-10.08,18.36-20,36.79-30.13,55.12a103.47,103.47,0,0,1-7.56,11.73c-3.08,4.15-6.22,3.71-11.21-.94-3.54-3.3-1.19-5.29,1.28-7.66a23.79,23.79,0,0,0,4-5.65c12.54-22.5,24.76-45.2,37.65-67.5,6.31-10.92,13.85-21.14,20.83-31.68a33.53,33.53,0,0,0,1.83-3c4.26-8.17,9.57-10.59,18.61-8.43,3.7,0.88,5.51,4.3,4.26,9.22-1.84,7.24-4,14.42-6.15,21.57C380.78,75.35,376.73,88.15,372.32,102.31Z" fill="#fff" fill-rule="evenodd"/><path d="M596.49,133.62c3.23-5.35,6.63-10.61,9.67-16.07q21.91-39.45,43.62-79A10.37,10.37,0,0,0,651,34.39c0.34-5,2.32-7.21,7.32-7.4,3.12-.12,6.25,0,11,0-2.4,5.51-3.93,9.93-6.15,14Q636.77,89.24,610,137.38c-2.82,5.08-6.1,9.9-9.29,14.76a12.22,12.22,0,0,1-16.62,3.14c-7-4.89-11.34-11.87-10.86-20.26,0.76-13.08,2.54-26.13,4.43-39.12,1.83-12.63,4.33-25.16,5.77-38.06-3.77,6.95-7.75,13.79-11.28,20.86q-19,38.13-37.75,76.42c-1.48,3-3.17,4.68-6.73,4.7-8.4,0-10.71-3.39-6.78-10.82,15.76-29.83,31.72-59.55,47.3-89.47a110.79,110.79,0,0,1,19.9-27.07c3.89-3.91,9.13-2.75,13.7-1.61a10.73,10.73,0,0,1,8.45,9.49,57.14,57.14,0,0,1-.58,14.87c-3.46,19.81-7.3,39.55-11,59.32-1.15,6.2-2.21,12.41-3.31,18.62Z" fill="#fff" fill-rule="evenodd"/><path d="M435.43,89.51a22.51,22.51,0,0,1,3.08,1.25c6.3,3.69,6,3.49,10.69-2.33,13.22-16.46,26.47-32.9,40.17-49,3.57-4.18,8.56-7.36,13.35-10.24,5.17-3.11,15-.4,20.47,4.88,3.83,3.67,4.63,9.34,1.38,15.71-10.11,19.83-20.53,39.5-30.69,59.3-6.66,13-13,26.13-19.69,39.09-1.87,3.63-4,7.44-6.88,10.15-4.62,4.27-9.39,2.43-10.25-3.83a25.6,25.6,0,0,1,.84-11.27C462,131,466.71,119,471.18,106.83c0.39-1.06.75-2.12,1.13-3.17-7.29,2.48-14.47,4.7-21.46,7.43-1.94.76-3.65,2.79-4.86,4.63-7.7,11.65-15.2,23.42-22.83,35.12a40.6,40.6,0,0,1-4,5.1c-2.56,2.81-6.09,5.82-9.44,3.49-3-2.11-4.66-6.38-6.64-9.86-0.47-.83.12-2.27,0.29-4.2,3.94,2.92,5.57,0,7.36-2.53,8.26-11.68,16.58-23.31,24.67-35.1,0.86-1.25.66-3.48,0.42-5.18-0.58-4.11-1.48-8.18-2.25-12.26ZM498.3,48.05L497,47.25,460.87,93c4.65,0,7.58-.12,10.51,0,5,0.25,7.67-2.08,9.65-6.68,4.65-10.8,9.91-21.34,14.86-32C496.84,52.29,497.51,50.14,498.3,48.05Z" fill="#fff" fill-rule="evenodd"/><path d="M501.67,156.59c-7.35.18-13.19-8.57-11.12-14.4a135.12,135.12,0,0,1,7.69-18.37C514.68,92.85,531.39,62,548,31.11c1.83-3.41,4.35-4.79,8.21-3.54C559,28.48,562,29,564.85,29.9c6.3,1.9,7.7,5.68,4.38,11.32-13.07,22.19-26.37,44.25-39.07,66.64-7.86,13.86-14.67,28.31-22.3,42.3C506.27,153.08,503.11,155.13,501.67,156.59Z" fill="#fff" fill-rule="evenodd"/><path d="M181.6,85.06c8-.93,15-1.67,22-2.64A4.27,4.27,0,0,0,206,80.29q15.3-26.87,30.48-53.8c0.48-.85.78-1.79,1.34-3.08,6.78,0.64,13.42,1.72,17.41,8.2a6.91,6.91,0,0,1,.12,5.43c-1.3,3.2-3.29,6.12-5,9.17q-26.88,48.61-53.79,97.2c-2.17,3.9-4.43,7.94-7.51,11.07-1.46,1.48-5.13,1.73-7.48,1.17-3.5-.83-5.81-3.7-4.73-7.58a142.72,142.72,0,0,1,5.66-17c4.5-10.7,9.42-21.23,14.17-31.83-6.49-.56-12.71-1.29-18.94-1.49a5.78,5.78,0,0,0-4.36,2.65c-6.87,13.46-13.53,27-20.16,40.61-2.61,5.34-7.23,8.6-10.85,7.36-5.72-2-10.37-9.07-8.35-14.54,5-13.37,9.86-26.84,16.13-39.62C159.52,75.16,170,56.65,180.06,37.9c1.8-3.36,4.09-6.58,5.21-10.16s3.31-4.19,6.28-4.18a9.92,9.92,0,0,1,2.89.65c14.4,4.65,15.6,7,8.77,20.35-6,11.8-12.71,23.28-19.07,34.92C183.37,80.88,182.8,82.4,181.6,85.06Z" fill-rule="evenodd"/><path d="M332.24,30.06c-3.44,1.44-6.92,3.44-10.66,4.34-8.23,2-16.61,3.34-24.88,5.18-1.55.34-3.51,1.4-4.19,2.69-5.23,10-10.2,20.08-16,31.61l28.65-2.15c-1.42,8-7.54,11.78-15.17,13.61-6,1.43-12.13,2-18.1,3.42-2.35.55-5.43,1.7-6.45,3.54-7.33,13.18-14.21,26.6-21.43,40.31,13.11,1.4,27.3-6.8,39.12,6.8-3.94,1.32-6.81,2.21-9.65,3.24q-17.55,6.37-35.07,12.83c-4,1.49-7.77,2.38-10.17-2.51a1,1,0,0,0-.33-0.37c-3.71-2.52-8.41-4.8-8.11-9.93,0.33-5.68.91-11.8,3.29-16.83C233.69,103.5,244.87,81.42,256,59.33c4.57-9,9.72-17.79,14.35-26.81,1.6-3.11,2.43-6.61,3.83-10.55h5.32l2.66-4.23a2.86,2.86,0,0,1,1.17.18c2.59,5.73,7.29,6.08,12.83,5.76,9.13-.53,18.29-0.3,27.44-0.5C328,23.08,330.94,24.7,332.24,30.06Z" fill-rule="evenodd"/><path d="M121.48,41.85C97.23,40.12,96.62,39.63,94.9,20.33c1.68,0.34,3.51.21,4.6,1,4.82,3.63,10.26,3.37,15.79,3.12,15.3-.7,30.6-1.22,45.89-2,6.22-.34,10.83,3,15.37,6.24,2.7,1.94,2.24,4.4-1.28,5.29-7.71,2-15.44,3.87-23.21,5.6a10,10,0,0,0-7.23,5.14c-18.73,31.82-36.72,64-53,97.21a74.59,74.59,0,0,1-7.07,11.45c-3.74,5-10,4.24-14.3-.32-4.44-4.75-3-8.52-.45-13.29,16.82-31.54,33.44-63.19,50.12-94.81C120.6,44.1,120.91,43.19,121.48,41.85Z" fill-rule="evenodd"/><path d="M380.4,99.16c10.41-10.93,19.78-21,29.46-30.85,11.35-11.5,23-22.7,34.46-34.08a16.49,16.49,0,0,0,3-3.91c3.2-6.09,7.36-8,13.9-6.31,10.69,2.81,11.17,3.49,5.6,13.15C459,50.7,450.25,63.7,442.88,77.46c-12.3,23-23.81,46.36-35.65,69.57a53,53,0,0,1-2.52,4.86c-2,3.05-4.42,5.36-8.54,4.47-4.55-1-7.87-3.6-7.9-8.29,0-4.21.44-8.8,2.12-12.58,7.56-17,15.63-33.74,23.52-50.57a11.6,11.6,0,0,0,1.53-5.25Q398.54,99.84,381.63,120c-2.24,2.68-4.32,5.5-6.59,8.16-2.11,2.48-4,6-8.1,4.13-4.9-2.21-10.9-3.88-10.87-10.8A46.82,46.82,0,0,1,358,109.78c3.09-11.52,6.45-23,9.7-34.46l-1.26-.53c-2.36,3.92-4.87,7.76-7.07,11.77-10.08,18.36-20,36.79-30.13,55.12a103.46,103.46,0,0,1-7.56,11.73c-3.08,4.15-6.22,3.71-11.21-.94-3.54-3.3-1.19-5.29,1.28-7.66a23.79,23.79,0,0,0,4-5.65c12.54-22.5,24.76-45.2,37.65-67.5C359.7,60.73,367.24,50.52,374.22,40A33.51,33.51,0,0,0,376,37c4.26-8.17,9.57-10.59,18.61-8.43,3.7,0.88,5.51,4.3,4.26,9.22-1.84,7.24-4,14.42-6.15,21.57C388.86,72.21,384.81,85,380.4,99.16Z" fill-rule="evenodd"/><path d="M604.56,130.48c3.23-5.35,6.63-10.61,9.67-16.07q21.91-39.45,43.62-79a10.37,10.37,0,0,0,1.27-4.15c0.34-5,2.32-7.21,7.32-7.4,3.12-.12,6.25,0,11,0-2.4,5.51-3.93,9.93-6.15,14q-26.47,48.29-53.2,96.43c-2.82,5.08-6.1,9.9-9.29,14.76a12.22,12.22,0,0,1-16.62,3.14c-7-4.89-11.34-11.87-10.86-20.26,0.76-13.08,2.54-26.13,4.43-39.12,1.83-12.63,4.33-25.16,5.77-38.06-3.77,6.95-7.75,13.79-11.28,20.86q-19,38.13-37.75,76.42c-1.48,3-3.17,4.68-6.73,4.7-8.4,0-10.71-3.39-6.78-10.82,15.76-29.83,31.72-59.55,47.3-89.47A110.79,110.79,0,0,1,596.2,29.3c3.89-3.91,9.13-2.75,13.7-1.61a10.73,10.73,0,0,1,8.45,9.49A57.13,57.13,0,0,1,617.77,52c-3.46,19.81-7.3,39.55-11,59.32-1.15,6.2-2.21,12.41-3.31,18.62Z" fill-rule="evenodd"/><path d="M443.5,86.36a22.52,22.52,0,0,1,3.08,1.25c6.3,3.69,6,3.49,10.69-2.33,13.22-16.46,26.47-32.9,40.17-49C501,32.15,506,29,510.79,26.09c5.17-3.11,15-.4,20.47,4.88,3.83,3.66,4.63,9.34,1.38,15.71C522.54,66.51,512.12,86.18,502,106c-6.66,13-13,26.13-19.69,39.09-1.87,3.63-4,7.44-6.88,10.15-4.62,4.27-9.39,2.43-10.25-3.83a25.6,25.6,0,0,1,.84-11.27c4.12-12.25,8.81-24.31,13.28-36.44,0.39-1.06.75-2.12,1.13-3.17-7.29,2.48-14.47,4.7-21.46,7.43-1.94.76-3.65,2.79-4.86,4.63-7.7,11.65-15.2,23.42-22.83,35.12a40.58,40.58,0,0,1-4,5.1c-2.56,2.81-6.09,5.82-9.44,3.49-3-2.11-4.66-6.38-6.64-9.86-0.47-.83.12-2.27,0.29-4.2,3.94,2.92,5.57,0,7.36-2.53,8.26-11.68,16.58-23.31,24.67-35.1,0.86-1.25.66-3.48,0.42-5.18-0.58-4.11-1.48-8.18-2.25-12.26Zm62.87-41.46L505,44.1,468.95,89.84c4.65,0,7.58-.12,10.51,0,5,0.25,7.67-2.08,9.65-6.68,4.65-10.8,9.91-21.34,14.86-32C504.91,49.15,505.58,47,506.38,44.91Z" fill-rule="evenodd"/><path d="M509.74,153.45c-7.35.18-13.19-8.57-11.12-14.4a135.19,135.19,0,0,1,7.69-18.37c16.45-31,33.15-61.82,49.75-92.71,1.83-3.41,4.35-4.79,8.21-3.54,2.84,0.92,5.79,1.47,8.65,2.33,6.3,1.9,7.7,5.68,4.38,11.32-13.07,22.19-26.37,44.25-39.07,66.64-7.86,13.86-14.67,28.31-22.3,42.3C514.34,149.93,511.19,152,509.74,153.45Z" fill-rule="evenodd"/><circle cx="51.51" cy="95.62" r="9.98" fill="#fff"/><circle cx="666.51" cy="102.62" r="9.98" fill="#fff"/><circle cx="55.51" cy="91.62" r="9.98"/><circle cx="670.51" cy="98.62" r="9.98"/><polygon points="44.7 72.26 26.34 6 0 8.39 38.32 76.25 44.7 72.26" fill="#fff" fill-rule="evenodd"/><polygon points="672.55 82.63 682.13 86.62 748.39 29.14 720.45 8.39 672.55 82.63" fill="#fff" fill-rule="evenodd"/><polygon points="48.7 66.26 30.34 0 4 2.4 42.32 70.25 48.7 66.26" fill-rule="evenodd"/><polygon points="679.55 80.63 689.13 84.62 755.39 27.14 727.45 6.39 679.55 80.63" fill-rule="evenodd"/><path d="M185.16,243l0.69-1.44-0.17-.25-7.07-.24a11,11,0,0,1,8-1.08l1.7-3.56a6.25,6.25,0,0,1-3.73-1.8c-3-3.73-6.06-7.34-11.82-8.88a4.23,4.23,0,0,1-2.28-2.11c-2.55-4.28-5.69-8-12.25-9.08a3.09,3.09,0,0,1-1.91-1.91c-2-4.24-5.56-7.35-10.52-9.5a24,24,0,0,1-5.08-3.21c-3.13-2.4-6.16-4.88-9.15-7.39a3.64,3.64,0,0,1-1.6-2.13c-0.4-7.13-5.09-11.27-13-13.33a6.94,6.94,0,0,1-3.07-1.9c-1.25-1.25-2-2.81-3.34-4-3.14-2.92-7.21-5.36-5.63-10.54a1.86,1.86,0,0,0-.36-1.08c-2.12-5.68-7.37-8.64-14.72-9.78L77,155.22c-1.17,2.07-2.79,4.14-3.44,6.21-2,6.47,3.2,12.49,11.26,13.81,1.88,0.3,4,.87,5,2,1.7,1.86,1.75,4.7,6.53,4.14,2.17-.25,4.11,1.16,6.23,1.84-0.73,1.06-2.29,2.6-2.75,4.12-1.91,6.33,3.14,14.91,10.8,15.53a6.41,6.41,0,0,1,3.34,1.54c2.36,1.87,4.53,3.89,6.8,5.83a1.56,1.56,0,0,0,.63,0l-1-1.3a16.83,16.83,0,0,1,6.25,1,1.68,1.68,0,0,1,.6,1.88c-1.62,6,3.57,13.89,10.2,15.89a8.82,8.82,0,0,1,4.57,3.16c3.07,4.42,8,6.07,14,4.2,0,1.16-.45,2.63.19,3.42,3,3.7,6.1,7.3,11.51,9.18a5.15,5.15,0,0,1,3.12,2.82A13.21,13.21,0,0,0,178,258l2.47-5.17a14.73,14.73,0,0,1-3.27-3.38Zm-7.52-7.74a17.61,17.61,0,0,1,.7-3.64c1.27,1.23,2.54,2.34,3.58,3.58,0.16,0.2-.53,1.17-1.06,1.47a3.05,3.05,0,0,1-2.09.37A2.4,2.4,0,0,1,177.64,235.26ZM106,195c-3.56-.91-4.64-4-2.6-8.33Zm61.67,38.9c1.36,0.1,2.26,0,2.67.23a47.2,47.2,0,0,1,5.3,4,1.66,1.66,0,0,1-.21,2,3.81,3.81,0,0,1-2.63.7,36.79,36.79,0,0,1-5.95-4.17C166.43,236.24,167.28,235,167.64,233.9ZM151,210.25l1.25-.55a23.36,23.36,0,0,1,2.24,3.6c0.09,0.22-1.33,1.09-2.91,2.33Zm-50.68-51.06,1.44-.51,1.61,5-1.76.62ZM86.86,171c-4.7-.35-8.25-4-7.38-8.58,7.2-1.81,9.35-3.2,11.91-8,4.37,2.2,7.59,4.76,7.88,8.64Zm7.38-.69c4.6-.57,7.28,1.16,7.74,5.13Zm16.84,27.58-5.41-7.46,11.47-8.07,6.19,7.39Zm20.43,13.69,3.48,8.19C129.94,218.79,128.5,215.38,131.51,211.53Zm0.3-5.24a15.52,15.52,0,0,1-8.42-5.84C127.59,200.08,131.66,203.07,131.81,206.29Zm-7.54-22,1-.48c2.23,1.61,3.87,3.46,2.92,6.43l-1.19.53ZM140.66,222c-1.91-2.45-3.72-4.64-5.32-6.94a1.85,1.85,0,0,1,.54-1.91c2-1.48,4.11-2.8,6.68-4.51l6.14,6Zm13.88,8.8c-1.27-.31-2.06-1.31-3.09-2-1.75-1.12-1.89-2.21.69-3.85,1.37-.87,2.3-2.25,4.07-4.07,2,1.45,4,2.62,5.53,4.19,2.11,2.24-2.12,3.49-3.42,5.15C157.91,230.7,155.57,231,154.54,230.75Zm5.06,8.79c-1.21-2-.67-4.32.84-6.62l1.44-.27,4.78,7.1C163.2,241,160.77,241.53,159.6,239.54Zm9.47,3.32,7.66,2.54-1.58,2.17C168.11,245.71,166.23,246.33,169.07,242.86Z" fill-rule="evenodd"/><path d="M186.6,240l-0.75,1.56,0.4,0.56-1.08.88-4.68,9.82a12.62,12.62,0,0,0,6.38,2.42l8.74-9.47A15.26,15.26,0,0,0,186.6,240Z" fill-rule="evenodd"/><path d="M592.87,174.64c11.14,0,19-8.49,14.88-17.17-1.56-3.29-.6-5.14,1.38-7.06l-11.49-4.26c0.12,2-1.6,2.32-3.9,2.3-9.46-.08-14.73,3.81-16.5,10.27-1,3.69-.2,7.78,5.73,10.83a2.35,2.35,0,0,1,.91,1.92c-0.26,3-2.27,4.93-5.64,5.89a5.08,5.08,0,0,1-2.21-.44,33.08,33.08,0,0,1-5.38.82c-13-.16-20.12,10.53-15.21,17.59,0.59,0.84.06,2,0,2.78l2.84-1.06c2.1,3.6-3,8.71-8.45,8.56l0.53-1.41a38.55,38.55,0,0,1-6.52,1c-11.27.11-18.52,8.62-14.3,17.06,0.28,0.56.57,1.46,1,1.59,4.15,1.31,2.92,3,1.08,3.7-2.67,1-2.6,5.5-8.69,2.58-2.13-1-5.58-.48-8.22-0.13-2.06.27-3.83,1.49-5.72,1.49h0s0,0.25,0,.27c3.18-.21,6.36-0.29,9.54-0.5,0.09,0.26.18,0.58,0.27,0.85-3.5.43-7,.89-10.77,1.35l1-1.49h-0.12l0.15,0c-0.72,0-1.75-.23-2.11,0-3.57,2.68-7.22,5.4-7.41,9.85-0.09,2.06-.15,5.05,1.48,6.3,2.29,1.76,1.23,2.71.58,3.22-2.47,1.92-5.24,3.68-8.53,3.71-1.33-1.22-2.08-2.39-2.81-2.51-3.87-.64-8-1.69-11.55-1.34l19.15,14.44c0-4.51,2.84-6.28,6.59-8.09a33.71,33.71,0,0,1,3.73-2,8.74,8.74,0,0,1,4.09-.57c11.24,1.87,21-4.7,18.81-13.48-0.9-3.56.2-5.56,3-7.32,1.43-.89,2.47-2.13,3.92-3a4.91,4.91,0,0,1,3.21-.73c12.15,2.71,22.69-7.47,17.69-17.45a2.78,2.78,0,0,1,.08-2.73,59.33,59.33,0,0,1,6.06-6.52,4.41,4.41,0,0,1,3.24-.66c12.54,2.4,21.64-8.63,16.46-17.64-0.52-.9-0.9-2.16-0.48-2.82a57.33,57.33,0,0,1,5.48-7.2A4.74,4.74,0,0,1,592.87,174.64Zm10.27-7.26c-0.49,2.85-2.82,4.4-6.9,4.54ZM579,157.48c2.56-5.35,6.91-8.3,14.72-7.93-2.73.83-5.78,1.35-8.09,2.58S581.49,155.39,579,157.48ZM556.9,186.6c0.28-4.78,8.77-9.49,15.29-7.15C564.89,179.73,560.18,182.14,556.9,186.6Zm-34.33,46.67,1.78,0.75a17.78,17.78,0,0,1-1,3.08,26.31,26.31,0,0,1-2.65-.84Zm-17.49,8.86c0.11-4.06,4.87-7.52,10.66-7.74,2.54,4.67,4.84,6.38,9.92,7.34,1.08,5.69-4.29,10.38-10.58,9.21C514.25,246.35,511.83,244.21,505.08,242.13Zm21.18,6.11a8.11,8.11,0,0,1-8.59,5.07Zm28.2-23.92c-1.87,3-4.49,4.92-9.9,4.84Zm-8.84,2.06c-1.81-4.92-6-8.4-11.2-7.16-2-4.2,2.24-9,8.64-9.61,1.08,3.6,6.63,7.34,11.46,6.61C555.74,221.71,551.6,226.44,545.62,226.38Zm36.73-32.46c-0.51,3.9-4.62,7.12-9.48,7.23Zm-12,4.92c-0.5-4-6.06-6.6-10.4-6.7-1.54-4.81,2.81-9.49,8.65-10,1.67,1.81,2.82,3.75,4.69,4.91s4.55,1.64,7.24,2.54C582,194.72,577.23,199.52,570.34,198.84ZM583.53,164c-2.84-4.72.78-10,7.77-11.29a11.85,11.85,0,0,0,11.79,6.51,8.36,8.36,0,0,1-8.44,10.74C592.82,166,588.75,163.8,583.53,164Z" fill-rule="evenodd"/><polygon points="157.69 227.02 176.76 166.09 212.81 180.65 510.91 164.77 488.38 279.98 231.79 274.4 227.69 279.51 150.69 276.02 157.69 227.02" fill="#ffec00" fill-rule="evenodd"/><path d="M267.14,227.41A25.86,25.86,0,0,1,256.61,236l11.58,26.32c0.58,1.29.35,2.69-1.17,2.69H249a3.36,3.36,0,0,1-3-2l-9.83-24h-8.3l-3.28,24a2.36,2.36,0,0,1-2.34,2H205.61a1.56,1.56,0,0,1-1.64-2l10.53-75.57a2.27,2.27,0,0,1,2.22-2.1h24.1c9.71,0,17,2.34,22,6.08,6.32,4.56,9.12,11.46,9.12,18.83C271.94,217.35,270.18,223.08,267.14,227.41ZM249,205a11.61,11.61,0,0,0-7.49-2.22H233l-2.69,18.95h10.06c3.51,0,6.55-.82,8.66-2.81a8.88,8.88,0,0,0,2.81-7C251.82,208.46,250.76,206.36,249,205Z"/><path d="M336.15,187.41a2.47,2.47,0,0,1,2.22-2.1H355.1a1.77,1.77,0,0,1,1.75,2.1l-6.55,46.09a40.24,40.24,0,0,1-8.89,20.7c-6.55,7.49-16.49,11.93-29.6,11.93-9.71,0-17.2-2.57-22.23-7.25s-8-11.46-8-19.77a52.51,52.51,0,0,1,.82-8.07l6.2-43.63a2.37,2.37,0,0,1,2.22-2.1H307.5a1.83,1.83,0,0,1,1.75,2.1l-6,41.53a46.05,46.05,0,0,0-.7,6.9c0,3.86,1.05,6.9,3,8.89s4.68,2.81,8.42,2.81c5.5,0,9.36-1.87,11.81-5.15,2.11-2.69,3.39-6.43,4-11Z"/><path d="M412.54,246.71a1.53,1.53,0,0,1,1.52,1.87l-2,14.39a2.15,2.15,0,0,1-2.11,2H363.41a1.64,1.64,0,0,1-1.64-2l10.65-75.68a2.15,2.15,0,0,1,2.11-2h16.84a1.65,1.65,0,0,1,1.64,2l-8.42,59.42h28Z"/><path d="M487,201.68a2.24,2.24,0,0,1-2.11,1.87h-33.1l-1.64,12.16h26.09a1.58,1.58,0,0,1,1.52,1.87L475.58,232a2.25,2.25,0,0,1-2.11,2H447.63l-1.87,12.75h37.08a1.53,1.53,0,0,1,1.52,1.87l-2,14.39a2.15,2.15,0,0,1-2.11,2H424.58a1.7,1.7,0,0,1-1.64-2l10.64-75.68a2.37,2.37,0,0,1,2.22-2h51.82a1.58,1.58,0,0,1,1.52,2Z"/><path d="M252.15,256.53l-10.64-26H220.86l-3.55,26h-4.42l8.87-63h19.06c7.31,0,13.26,1.44,17.21,4.39h0.09c4.8,3.46,5.81,8.6,5.81,12.32,0,5.2-1.12,9.43-3.34,12.58a17.8,17.8,0,0,1-7.4,5.9l-7,3.11,11,24.7h-5Zm-31.07-27h19.28c5.82,0,10.53-1.56,14-4.8a16.86,16.86,0,0,0,5.44-12.91c0-7-3.12-11.06-5.76-13.19a19.27,19.27,0,0,0-12.53-4.09H226Z" fill="#e52427"/><path d="M311.82,258.13c-7.38,0-13.18-1.77-16.78-5.11s-5.4-7.94-5.4-13.91a45.27,45.27,0,0,1,.7-6.7l0-.13,5.52-38.75h4.42l-4.95,34.33a51.81,51.81,0,0,0-.79,8c0,7.57,2.93,12.06,5.39,14.52,3.41,3.42,8.15,5.14,14.08,5.14,9.82,0,15.29-4.49,18.16-8.29s4.77-8.6,5.55-14.67l5.63-39.06h4.55l-5.55,39a32,32,0,0,1-7,16.55C330,255.11,322.1,258.13,311.82,258.13Z" fill="#e52427"/><polygon points="370.69 256.53 379.65 193.53 384.07 193.53 375.37 254.53 405.13 254.53 404.82 256.53 370.69 256.53" fill="#e52427"/><polygon points="431.87 256.53 440.82 193.53 480.19 193.53 479.86 195.53 444.84 195.53 441.05 223.53 468.76 223.53 468.42 225.53 440.71 225.53 436.49 254.53 475.43 254.53 475.12 256.53 431.87 256.53" fill="#e52427"/><polyline points="488.38 279.98 494.51 275.61 512.65 233.89 524.9 221.64 511.72 168.08 510.91 164.77" fill="#fff" fill-rule="evenodd"/><polygon points="153.66 245.03 227.12 267.54 236.07 281.86 148.16 277.25 153.66 245.03" fill="#fff" fill-rule="evenodd"/></svg>