<?xml version="1.0" encoding="utf-8"?>
<!-- Generator: Adobe Illustrator 19.0.0, SVG Export Plug-In . SVG Version: 6.00 Build 0)  -->
<svg version="1.1" id="Layer_1" xmlns="http://www.w3.org/2000/svg" xmlns:xlink="http://www.w3.org/1999/xlink" x="0px" y="0px"
	 viewBox="0 0 584.2 245" style="enable-background:new 0 0 584.2 245;" xml:space="preserve">
<style type="text/css">
	.st0{fill-rule:evenodd;clip-rule:evenodd;}
	.st1{fill-rule:evenodd;clip-rule:evenodd;fill:#92C01A;}
	.st2{fill-rule:evenodd;clip-rule:evenodd;fill:#6A9C2D;}
</style>
<polygon class="st0" points="115.1,200.9 150.6,200.9 165.2,172.4 161.8,146.2 253.3,111 527.3,122.7 537,82.6 109.7,62.2 
	82.3,209.3 "/>
<g>
	<polygon class="st1" points="558.3,0 120.9,29.4 46.8,76.6 58.1,101.2 4.1,155.7 27.5,192.5 138.6,183.6 135.7,150.3 209.1,106.5 
		584.2,111 	"/>
	<polygon class="st2" points="158.8,59.6 140.1,100.3 103.5,116.2 115.7,122.7 148,107.5 169.3,66.6 	"/>
	<polygon class="st2" points="118.3,123.3 87,157.3 76.7,151.6 107.3,115.3 	"/>
	<polygon class="st2" points="139.9,46 62.8,81.5 71.7,107.5 24.3,156.6 29.2,167 45,154.9 44,147.4 83.1,108.2 78.5,80.7 149,52.5 
			"/>
	<polygon class="st2" points="103.1,179.7 127.4,174.7 125.1,152.8 176.4,119.9 169.7,111.4 198.2,88.5 189.7,82.6 154.5,111.5 
		164.4,120.5 119.2,149.3 107.5,166.9 	"/>
	<polygon class="st1" points="21.3,175.9 0,206 54.4,242.6 105.3,231.1 115.1,184.6 	"/>
	<g>
		<g>
			<path class="st0" d="M100,119.9c1.2,0.8,2.4,1.6,3.6,2.5c1.1,0.8,1.1,0.8,0.3,2c0.2,0.2,0.4,0.4,0.5,0.7c0.4,2.3,2.3,2.7,4,2.8
				c1,0,2.9,1.3,3.4-1c0.1-0.3,1-0.5,1.6-0.5c0.8,0,1.5,0.3,2.1,0.4c-0.2-0.8-0.8-1.7-0.6-2.4c0.3-1.5,1.8-1.5,3-1.5c1,0,2,0,3,0.4
				c-0.9,0.3-1.8,0.6-3.1,1c1.2,0.4,1.9,0.7,3.2,1.1c-1.4,0.1-2.2,0.1-3.4,0.2c1.2,0.6,2.1,1,3.1,1.6c-0.2,0.6-0.4,1.1-0.6,1.5
				c-1.2,0.1-2.2,0.1-3.3,0.2c0,0.2,0.1,0.6,0.2,1.2c-0.5,0-0.9-0.1-1.5-0.1c2,1.9,2,2.3,0.3,3.5c-0.7-0.7-1.4-1.4-2.2-2.2
				c0,0.9,0.2,1.8,0.1,2.6c0,0.4-0.5,1.1-0.7,1.1c-0.5,0-1.1-0.3-1.3-0.7c-0.6-1.2-0.4-3-2.7-2.7c0.2,1.2,1.2,2.6-0.3,4.1
				c-0.2-1.3-0.4-2.4-0.6-3.7c-0.4,0.7-0.7,1.2-1.2,2.1c0.2-1.2,0.3-1.9,0.5-3c-0.5,0.6-0.8,1.1-1.5,1.9c-0.1-1.2-0.1-2-0.1-2.8
				c-1,0.6-1.9,1.2-3.3,2c0.6-0.9,0.9-1.5,1.3-2.1c-0.1-0.1-0.1-0.1-0.2-0.2c-0.8,0.6-1.6,1.3-2.4,1.9c-0.1,0-0.1-0.1-0.2-0.1
				c0.2-0.4,0.4-0.7,0.8-1.3c-0.8,0.3-1.4,0.6-2.1,0.9c-0.2-0.4-0.4-0.7-0.5-1c-4.1,1.5-12.7,10.7-13.5,19.1c1.6,1,3.2,1.9,4.8,2.9
				c2.3,1.6,2.4,2.3,1.6,4.9c-0.3,1.1-0.7,2.2-1,3.1c2.6,2.6,5.4,4.9,7.7,7.6c14.1,16.8,13.3,41.3-1.6,57.3
				c-1.8,1.9-5.1,4.6-8.3,6.5c-10.9,6.7-27.1,8.6-42.7,1.8c-2-0.9-8.7-5.2-10-6.5c-11.7-11.7-16.1-25.8-12.1-41.8
				c4-16.1,14.5-26.6,30.5-31.2c4-1.2,8.4-1.1,12.6-1.5c1.2-0.1,1.7-0.5,2.1-1.5c1.6-4.5,2.4-4.9,7.2-4.2c1.5,0.2,3,0.6,4.7,0.9
				c4-9.3,9.8-17.1,18.7-22.8c-0.7-0.2-1.5-0.4-2.1-0.7c-0.4-0.2-0.6-0.6-0.9-0.9c0.4,0,0.7,0,1.1-0.2c0.5-0.2,0.9-0.5,1.4-0.6
				c0.6-0.1,1.2-0.1,2.2-0.1c-1.6-0.7-2.9-1.3-4.2-1.8c0-0.2,0.1-0.3,0.1-0.5C98,119.9,99,119.9,100,119.9L100,119.9z M27.8,178.3
				c-1.8,4.2-2,8.6-2.3,13c-0.1,1.7,0.5,2,2.1,1.2c2.8-1.4,3.5-4.1,4.5-6.8c-1.4-0.3-2.6-0.6-3.8-0.9c1.2-0.6,2.2-0.7,3.3-0.9
				c0.3-0.1,0.8-0.7,0.8-1c0-0.4-0.4-0.9-0.8-1.1c-0.3-0.3-0.8-0.3-1.3-0.4C28.6,181,27.6,180.1,27.8,178.3z M29.1,176.8
				c1.2,0,2.4,0,3.6,0.1c0.3,0,0.6,0.6,0.9,1c-0.4,0.1-0.7,0.3-1.1,0.3c-0.4,0-0.8-0.3-1.1-0.2c-0.6,0.3-1.2,0.7-1.8,1.1
				c0.5,0.5,1,1.3,1.6,1.4c2.1,0.5,2.8-1.1,3-3.6c0-0.6-0.2-1.4,0.1-1.8c0.7-0.8,1.2-1.6,0.1-2.4c-1.1-0.7-2-0.4-2.7,0.7
				C30.9,174.6,30.1,175.6,29.1,176.8z M73.3,150.9c-0.7,1.7-1.3,3.2-2,4.7c-0.7,1.7-0.5,2,1.4,2.6c1-2,1.9-3.9,2.9-5.9
				C75,151.9,74,151.4,73.3,150.9z"/>
			<path class="st0" d="M100,119.9L100,119.9c-0.2-0.2-0.4-0.4-0.6-0.9c0.8,0.2,1.5,0.3,2.3,0.4c-1-1-1.8-1.7-2.6-2.5
				c0.1-0.1,0.2-0.3,0.3-0.4c0.9,0.3,1.7,0.5,2.7,0.8c-0.6-1-1.2-2-1.8-3c0.2-0.1,0.3-0.3,0.5-0.4c1.4,0.8,2.7,1.6,4.4,2.5
				c-0.8-1.3-1.4-2.5-2.3-4.1c1,0.6,1.5,0.9,2.2,1.3c0-0.8-0.1-1.5-0.1-2.2c0.1-0.1,0.3-0.1,0.4-0.2c0.6,1.3,1.3,2.6,1.9,4
				c0.1,0,0.1,0,0.2,0c-0.1-0.9-0.3-1.7-0.5-3c0.4,0.7,0.7,1,1.1,1.7c0-1.2,0-2,0.1-2.9c0.1,0,0.2,0,0.3,0c0.3,1,0.5,1.9,0.8,2.9
				c0.2,0,0.3,0,0.5,0c0.3-0.9,0.6-1.8,0.9-2.7c0.1,0,0.2,0,0.3,0c0.1,0.7,0.2,1.4,0.4,2.4c0.6-0.8,1-1.4,1.4-2
				c0.2,0,0.3,0.1,0.5,0.1c-0.2,0.8-0.3,1.6-0.5,2.4c-0.1,0.4-0.1,0.8-0.2,1.2c0.3-0.3,0.6-0.6,0.9-0.9c0.2-0.3,0.4-0.7,0.1-0.3
				c0.7,0.3,1.3,0.5,2,0.8c0.2-0.1,0.3-0.2,0.4-0.3c0.5-0.2,1-0.5,1.5-0.7c0,0.5-0.1,1-0.2,1.5c-0.1,0.5-0.3,1.1-0.5,1.8
				c1.2,0.2,2.2,0.4,3.4,0.6c-1,0.7-1.9,1.3-2.8,2c0,0.1,0,0.2,0.1,0.3c1.1-0.1,2.2-0.3,3.3-0.4c-2.2,2-4.7,2.7-6.6,1.8
				c0-0.8-0.1-1.5-0.1-2.3c0-0.7,0.2-1.5,0.3-2.3c-1.2,0.8-2,2.3-3.8,1.9c-0.7-0.2-1.5,0-2.5,0.1c-0.2-0.4-0.4-1.1-0.7-1.7
				c-0.2,0-0.3,0.1-0.5,0.1c0.2,0.7,0.3,1.4,0.5,2.3c-1.3-0.7-2.1-0.5-2.4,1c0,0.2-0.9,0.5-1.3,0.4
				C102.1,120.7,101.1,120.3,100,119.9z"/>
		</g>
	</g>
</g>
</svg>
