<?xml version="1.0" encoding="utf-8"?>
<!-- Generator: Adobe Illustrator 19.2.1, SVG Export Plug-In . SVG Version: 6.00 Build 0)  -->
<svg version="1.1" id="Layer_1" xmlns="http://www.w3.org/2000/svg" xmlns:xlink="http://www.w3.org/1999/xlink" x="0px" y="0px"
	 viewBox="0 0 282.1 571.4" style="enable-background:new 0 0 282.1 571.4;" xml:space="preserve">
<style type="text/css">
	.st0{fill:#FFFFFF;}
	.st1{fill:#FFEC00;}
	.st2{fill:#FFF574;}
	.st3{clip-path:url(#SVGID_2_);}
	.st4{clip-path:url(#SVGID_4_);}
	.st5{clip-path:url(#SVGID_6_);}
	.st6{clip-path:url(#SVGID_8_);}
	.st7{clip-path:url(#SVGID_10_);}
	.st8{clip-path:url(#SVGID_12_);}
	.st9{clip-path:url(#SVGID_14_);}
	.st10{clip-path:url(#SVGID_16_);}
	.st11{clip-path:url(#SVGID_18_);}
	.st12{clip-path:url(#SVGID_20_);}
	.st13{clip-path:url(#SVGID_22_);}
	.st14{clip-path:url(#SVGID_24_);}
	.st15{fill:#E52427;}
	.st16{clip-path:url(#SVGID_26_);}
	.st17{clip-path:url(#SVGID_28_);}
	.st18{clip-path:url(#SVGID_30_);}
	.st19{clip-path:url(#SVGID_32_);}
	.st20{clip-path:url(#SVGID_34_);}
	.st21{clip-path:url(#SVGID_36_);}
	.st22{clip-path:url(#SVGID_38_);}
	.st23{clip-path:url(#SVGID_40_);}
	.st24{clip-path:url(#SVGID_42_);}
	.st25{clip-path:url(#SVGID_44_);}
	.st26{clip-path:url(#SVGID_46_);}
</style>
<title>1</title>
<polygon points="28.1,212.3 61.9,228.9 61,226.1 42.7,203.6 "/>
<polygon points="69.1,213.5 46.6,180.2 55.3,171.8 71.5,212 "/>
<polygon class="st0" points="26.5,209.8 60.3,226.4 59.4,223.6 41.1,201.1 "/>
<polygon class="st0" points="67.5,211 45,177.7 53.7,169.3 69.9,209.6 "/>
<polygon points="216.8,94.9 211.8,122.5 198.9,133.1 155.6,125.9 162.6,113.3 "/>
<path d="M209,20l-1.3,22.7l-3.6,6.9l-1,34.3c0,0-4,1.6-4.6,1.4s0.9-51.9,0.9-51.9"/>
<polyline class="st1" points="216.8,94.9 201.1,122.5 156.9,132.4 140.4,132.2 122.5,97.2 114.4,59.2 114.5,47.1 140.6,40.7 181,63 
	"/>
<polyline class="st1" points="115.3,45.4 163.5,5.6 169.3,12.8 177.6,12.8 187.6,0 198.3,5.3 207.6,17.3 203.4,38.4 198.5,85.2 "/>
<polygon class="st1" points="105.7,41 86,77.4 62.8,90.8 40.2,104.7 42.1,124.7 52.1,133.8 60,147.8 66.9,145.7 74.9,175 
	92.9,171.1 114.9,172.2 131.2,165.1 130.7,121.3 108.1,64.1 114.8,39 "/>
<polygon class="st2" points="166.7,10.2 127.6,43.8 132.3,45 169.1,18.4 "/>
<polygon class="st2" points="185.5,20.7 141.7,50.5 141.3,53.5 192.8,34.3 "/>
<polygon class="st2" points="201.9,46.6 148.4,60.5 151.1,64 201.2,59.3 "/>
<polygon class="st2" points="199,72.7 157.3,78.9 160.2,84.7 198.5,85.2 "/>
<polygon class="st2" points="161.3,97.5 216.8,94.9 210.9,104.1 162.5,101.4 "/>
<polygon class="st2" points="163.5,109.8 188.9,119.7 172.2,121.6 162.6,113.3 "/>
<path d="M95.2,113.7c0.1,0,0.3,0.1,0.4,0.1c-0.1-0.2-0.2-0.3-0.3-0.5c-0.5-0.4-1.1-0.8-1.6-1.2c0.3-0.3,0.6-0.6,0.8-0.9
	c0.9-0.2,1.8-0.3,2.7-0.5l4.8,3.9c0.2-0.1,0.3-0.2,0.5-0.3c-0.4-0.3-0.7-0.7-1.1-1c0.4,0.1,0.7,0.1,1.1,0c0.3-0.2,0.5-0.6,0.6-0.9
	c-0.9-0.5-0.7-3-3.1-2.5c-0.2-0.4-0.3-0.7-0.6-1.3c0.6,0.2,1.1,0.4,1.5,0.5c0-0.1,0.1-0.2,0.1-0.3c-0.6-0.6-1.2-1.3-2.1-2.2
	c1,0.6,1.7,1,2.5,1.4c0.1-0.7,0.2-1.3,0.4-2c0.4,0,0.9-0.1,1.4-0.1c-0.3,1.8-1.1,3.6,1,5c0.6,0.4,0.7,1.6,1.2,2.8
	c0.6-2.3-0.2-4-0.9-5.6c-0.2-0.6-0.5-1.2-0.8-1.7c1.1,2,3,2.8,4.9,3.5c0.3-0.6,0.5-1.1,0.7-1.6c0.3-0.2,0.6-0.5,0.9-0.7
	c0.4,0.2,0.9,0.4,1.3,0.5c0.8,1.7,0,2.8-1.6,3.7c1.1,0.7,1.9,1.3,2.7,1.8c0.3-1,0.5-1.8,0.8-2.7c1.2-0.2,2.2-0.3,3.7-0.6
	c-0.9,1.6-0.3,3.6,1.2,4.5c0.2,0.1,0.4,0.2,0.7,0.3c0.8,0.3,1.6,0.7,2.2,1.3c1.3,1.1,2.5,2.4,4.7,1.9c-0.2-0.5-0.4-0.9-0.7-1.3
	c-0.8-1.1-1.5-2.2-2.2-3.4c-2-3.8-4.2-7.6-5.9-11.6c-2.5-5.4-4.6-11-6.3-16.7c-1.6-6-2.8-12.1-3.5-18.3c-0.9-8-0.6-16,2.4-23.6
	c3.1-7.9,9.7-11.8,17.3-9.8c5,1.3,9.1,4.5,12.7,8.1c8.1,8.1,13.8,17.7,18.2,28.1c3.6,8.2,6.3,16.7,8,25.5c1.5,7.9,2.2,15.9,1.1,23.8
	c-0.7,5.1-2,10-5.7,13.9c-1.9,2.2-4.5,3.6-7.3,4c-4.1,0.4-8.2-0.6-11.7-2.7c-4.8-2.6-8.6-6.4-12.2-10.5c-0.8-1-1.9-1.6-3.1-1.9
	c-3.5-0.8-7-1.3-10.6-1.7c-9.9-0.8-19.8,0.4-29.2,3.6c-1.4,0.4-2.5,1.3-3.2,2.6c-0.5,1.3-1.4,1.7-2.2,2.5c-0.7,0.7-1.3,1.6-1.7,2.6
	c-0.3,0.6-0.5,1.2-0.6,1.9c-0.2,0.5-0.2,0.9,0,1.4l4.8,7.5c0.3,0.6,0.4,1.3,0.5,2c0,1-0.4,2.1-0.1,2.9c2.5,6.9,5.1,13.7,7.8,20.5
	c0.4,1.2,1,2.3,1.8,3.2c1.4,1.6,1.5,2.5-0.6,3.1c-3,0.9-6,1.5-9.1,2c-1.3,0.2-2.9,0.5-4,0c-0.7-0.3-0.8-2-1.2-3.1l-7.2-15.6
	c-1.6-3.5-3.2-6.9-4.9-10.5h1.9c-0.1,0.7-0.2,1.4-0.3,2.3c0.7-0.4,1.1-0.6,1.6-0.9c-0.3,1-0.4,1.8-0.7,2.8c0.6-0.1,1.1-0.2,1.5-0.3
	c-0.1,0.8-0.2,1.6-0.4,2.5c0.6-0.3,1.1-0.6,2-1.1c-0.3,1.2-0.5,2.1-0.7,3c0.3-0.2,0.7-0.3,1-0.4c0.4,0.1,0.7,0.3,0.8,0.7
	c-0.1,0.9-0.4,1.7-0.5,2.4c2.8,0.7,2.4,3.1,3.1,5.1c0.3-0.6,0.6-1.1,0.8-1.5c0.1,0.6-0.1,1.1-0.4,1.6c-0.3,0.4-0.6,0.9-0.8,1.3
	c0.6,0.4,1.2,0.8,1.8,1.1c0.4-0.4,0.7-0.8,1-1.2c-0.1,2-0.2,3.8-0.2,6c0.6-0.7,0.9-1.1,1.5-1.7c-0.1,1.2-0.2,2.1-0.3,2.8
	c0.8,0.4,1.6,0.8,2.3,1.2c-0.7,0.5-1.2,0.9-1.7,1.2l0.2,0.2c0.9-0.2,1.9-0.5,2.8-0.7c0,0.1,0,0.2,0.1,0.2c-0.7,0.4-1.4,0.8-2.2,1.2
	c0.1,0.2,0.2,0.5,0.3,0.7c2-0.6,4-1.2,6-1.9c0,0.2,0.1,0.3,0.1,0.5c-0.4,0.3-0.8,0.5-1.2,0.8c0.1,0.2,0.1,0.3,0.2,0.5
	c1.2-0.5,2.4-1,3.5-1.5l-0.9-2.1c-0.2-0.5,0-1.1-0.2-1.6c-0.9-2.2-2.1-4.3-3-6.5c-0.6-1.5-0.8-3.1-1.3-4.7c-0.1-0.4-1-0.4-1.2-0.8
	c-0.6-1.5-1-3-1.7-4.4c-0.9-1.9-1.4-4-2.4-5.9c-1.2-2.1-1.6-4.6-2.5-6.8s-2.4-4.2-1.3-6.8c-0.2,0.3-0.5,0.6-0.8,1
	c-0.2-0.6-0.3-1.1-0.6-1.9c-0.8,0.8-1.4,1.3-1.9,1.9c-1.1,1.3-1.8,3.1-3.1,4.1c-2.2,1.6-3.5,3.3-2.8,6.1c-1.5,0.4-2.9,0.5-4.2,1
	c-1.6,0.6-2.7,0.3-3.5-1.6c0.8-0.4,1.5-0.8,2.5-1.4c-0.2,0.9-0.4,1.5-0.6,2.4c0.5-0.3,0.9-0.6,1.3-1l9.9-10.8
	c0.4-0.5,0.6-1.1,0.6-1.7c0-1.5,1-2.8,2.4-3.2c0.7-0.3,1.2-1,1.4-1.7c0.1-0.4-0.8-1-1.2-1.5c-0.1,0.1-0.2,0.2-0.3,0.2
	c0.1,0.4,0.3,0.8,0.5,1.4c-1.4-0.2-2.2,2.2-3.4,0.8c-1,0.8-2.1,1.4-3.3,1.9c-1.9,0.6-3.9,1.2-5.9,1.6c-0.8,0.2-2.1,0.1-2.3,0.6
	c-1,1.9-2.9,0.8-4.2,1.6c0.2,1.9,0.3,3.7,0.5,5.6c-0.3,0-0.5,0-0.8,0.1c-0.1-0.9,0.1-2.3-0.4-2.7c-1.7-1.4-3.7-2.5-5.8-3.3
	c-3.1-0.9-6.2-1.9-8.5-4.2c-5.1-5.2-7.2-11.3-4.9-18.4c1.2-3.8,3.4-6.9,7.2-8.6c5.9-2.7,11.7-5.4,17.4-8.2c2-0.9,3.9-2,5.9-2.9
	c4.4-1.8,8.9-3.4,13.3-5.1l0,0c0.2,0.9,0.4,1.9,0.5,2.4c-0.5,0.2-0.9,0.3-1.4,0.5c-0.2-0.4-0.3-0.8-0.4-0.9c-1.5,0.9-3,1.7-4.2,2.4
	c-0.4-0.1-0.8-0.1-1.2,0c-1.2,1.4-3.1,0.6-4.5,1.5c-0.8,0.3-1.4,0.9-1.8,1.6c-1.1,2.4-2.6,4.9-2.8,7.4c-0.7,7.7,2.6,15.3,8.8,20
	c0.3,0.2,0.7,0.3,1.1,0.2c0.9-0.4,1.7-0.9,2.5-1.5c-0.3-0.4-0.6-0.9-1.3-1.9c1.1,0.8,1.7,1.2,2.3,1.6c0.1-0.1,0.3-0.2,0.4-0.2
	c-0.2-0.9-0.4-1.7-0.7-2.7c0.9,0.3,1.6,0.6,2,0.7c0.3-0.5,0.7-0.9,1.1-1.2c0.6,0.4,1.2,0.8,1.8,1.3c0.5-0.4,1-0.7,1.5-1
	c1.3-0.8,2.6-2.3,4.3-0.6l2.1,0.3c-0.1-0.4-0.1-0.9-0.2-1.3c-0.5-0.6-0.9-1.3-1.7-2.3c1.4,0.9,2.4,1.5,3.4,2.1
	c0.2-0.5,0.4-0.9,0.6-1.3C93.4,113.7,94.3,113.8,95.2,113.7z M58.5,113.7c-0.2,0.2-0.4,0.5-0.5,0.8c0.4,0.6,1,1.2,1.5,1.8
	c0.4-0.2,0.7-0.4,1.1-0.6c0.3,0,0.7,0,1-0.1c0-0.1,0.1-0.2,0.1-0.3l-0.9-0.3c-0.2-0.3-0.4-0.6-0.5-1v0.1c-0.1-0.3-0.2-0.5-0.3-0.8
	c-0.2,0.2-0.3,0.4-0.5,0.6h0.1C59.2,113.9,58.9,113.8,58.5,113.7z M46.8,116.7c-0.3-0.2-0.5-0.4-0.8-0.6c-0.1,0-0.2,0-0.3-0.1
	c-0.5,0.3-1.1,0.7-1.7,1l0.8,0.8l1.2-0.9l-0.1,0.1C46.2,116.9,46.5,116.8,46.8,116.7z M149.9,110.7c-0.3,0.2-0.5,0.5-0.8,0.7
	c0.8,0.3,1.4,1.8,2.5,0.4c0.3,0.6,0.7,1.2,0.8,1.4c-0.1,1.1-0.2,1.9-0.3,2.6c0,0.8-0.1,1.6-0.4,2.3c-0.7,0.6-1.6,1.1-2.5,1.4
	c0,1.5,4.1-0.3,3,2.3c-1.9,0.5-3.8,0.9-5.6,1.3c-0.5,0.1-1,0.1-1.4-0.1c-1.3-0.3-2.6-0.8-3.7-1.5c-1.2-1-2.3,0.6-3.3-0.2l3.3-2.4
	c-0.1-0.2-0.2-0.3-0.3-0.4c-1.3,0.6-2.7,1.3-4.4,2.1c0.5-0.8,0.7-1.3,1.1-2c-0.9,0.4-1.6,0.6-2.5,1c1.2,0.5,1.1,2.4,2.8,1.7
	c0.1,0.5,0,1.3,0.4,1.6c3,3.6,6.9,6.3,11.3,7.9c3,1,6.1-0.2,8.2-2.8c2.3-3.1,3.8-6.8,4.2-10.6c1.3-8.3,0.3-16.4-1.5-24.5
	c-2-9.1-5.2-18-9.4-26.3c-3.6-7.3-8.2-14-13.9-19.9c-3.2-3.2-6.7-5.9-11.1-7.3c-4.1-1.5-8.7,0.6-10.3,4.7c0,0,0,0,0,0.1
	c-2,5.1-2.7,10.7-2.1,16.2c1.2-1,2.3-2.1,3.3-3.2c-0.5-0.7-1-1.4-1.5-2.1c0.6-0.5,1.2-1.1,1.7-1.7c0.3-0.6,0.5-1.2,0.6-1.9
	c-0.2,0-0.3-0.1-0.5-0.2c0.5-0.4,0.9-0.8,1.8-1.5c-1.1-0.1-1.7-0.2-2.3-0.2c1.3-1,2.6-2,3.9-2.9c0.5-0.4,1-0.7,1.5-1.1
	c1.4-0.1,1.9-0.8,1.3-2.2c-0.2-0.7-0.3-1.4-0.4-2.1c1.5,2.2,2.8,4.2,4.1,6.1l0.6-0.3c-0.3-0.9-0.7-1.8-1-2.8c1.4,1.2,1.8,3.8,4,3.2
	c0.9,1.7,1.8,3.2,2.6,4.7c-0.1,0.3-0.1,0.7-0.2,1c0.2,0.3,0.3,0.6,0.5,0.9s0.2,0.6,0.3,1c0.2-0.1,0.5-0.2,0.7-0.3
	c1.5,1,2.4,2.8,2.3,4.6c0.3,0,0.7,0,1-0.1c0.4,1.2,0.8,2.2,1.1,3.2c-0.4,0.2-0.9,0.4-1.3,0.6c1.4,0.8,2.5,1.5,3.7,2.2
	c0.3,0.2,0.5,0.4,0.7,0.6c-0.7,0-1.4-0.1-2.5-0.2c1.1,1,1.8,1.7,2.6,2.3c-2.2,1.4,0,1.6,0.6,2.2l-0.1-0.1c-0.3,0.4-0.6,0.8-1,1.1
	c1,0.7,2.2,1.4,3.4,2.2c0.1-0.3,0.2-0.5,0.2-0.8c0.2,0.4,0.4,0.8,0.5,1.2c-0.5,0.6-1,1.2-1.5,1.8c0,0.2-0.1,0.5-0.1,0.7h0.3
	c-0.1-0.2-0.2-0.5-0.3-0.7c0.6,0.3,1.3,0.7,2,1.1c-0.4,0.5-0.7,1-1,1.5c-0.2-0.3-0.4-0.6-0.5-0.9c-0.1,0-0.2,0.1-0.3,0.1
	c0.2,0.5,0.4,1.1,0.5,1.6c-0.2,0.1-0.4,0.1-0.6,0.1c0.1,0.3,0.2,0.6,0.4,0.9c1.2,1.2,2.7,0.7,4.1,0.5c-0.3,0.1-0.6,0.2-0.8,0.4
	c-0.5,0.5-0.9,1-1.3,1.6c0.6,0.4,1.2,0.7,1.7,1.1l1.2,0.9l-2.2,0.4c1.1,0.9,1.9,1.5,2.9,2.4c-1.5-0.2-2.8-0.5-4.5-0.7
	c1,0.6,1.7,0.9,2.4,1.3c0,0.1-0.1,0.3-0.1,0.4c-1.3-0.3-2.6-0.6-3.8-0.9c-1.4,0-0.7-1.1-1-1.7c-1.1-2.4-2.1-4.8-3.3-7.1
	c-0.1-0.3-0.9-0.2-1.1-0.5c-0.9-1.1-1.9-2.3-2.7-3.5c-0.8-1.2-1.6-2.3-2.8-1.3c-0.6,0.5-0.3,2-0.4,3.3c-0.4-0.2-1-0.5-2-1.1
	c0,1.2,0,2.3-0.1,3.7c-0.7-0.7-1.3-1.5-2.1-2.4c0,0.5,0.1,1,0.3,1.4c1.5,2.6,1.9,5.4,2.5,8.3c0.5,1.5,1.1,2.9,1.9,4.2
	c-0.4,0.3-0.9,0.7-1.5,1.2c0,0.1,0.1,0.3,0.1,0.4c1.1-0.1,2.1-0.3,3.2-0.4c0.6,1.1,1.3,2.1,2.1,3c1.7,1.7,3,1.3,4.2-0.8
	c0.8-1.3,2.2-2.3,3.4-3.6c-0.2-0.4-0.7-1.2-1.2-2.2c0.1-0.2,0.2-0.6,0.4-1l5.4,2.4c-0.7,0-1.4,0.1-2.1,0.1c0,0.2,0,0.4,0.1,0.6
	c0.9-0.1,1.8-0.3,2.7-0.4c0.4-0.1,0.7-0.1,1.1,0c0.2,0.2,0.2,0.4,0.2,0.6c-0.2,0.3-0.6,0.5-0.9,0.7c-0.7,0-1.3,0-2,0.1
	c0.5,0.2,1,0.4,1.6,0.7c0,0.4-0.1,0.9-0.2,1.3h-1.4v0.2c0.9,0.4,1.8,0.7,2.7,1.1c-0.3,0.4-0.6,0.8-1.1,1.4c-0.5,0-1.4-0.1-2.3-0.2
	c0,0.1,0,0.2-0.1,0.3c1.1,0.3,2.3,0.5,3.4,0.8v0.4c-0.6,0-1.1,0.1-1.7,0.1v0.3c1.2,0.3,2.3,0.6,3.5,0.8v0.5
	c-0.6-0.1-1.3-0.2-1.9-0.3c-0.5,0-0.9,0.1-1.4,0.2c-1.5-1-3.5-1-5.1-0.2c0.3,0.1,0.7,0.1,1,0.2c-0.8,0.7-0.9,1.3,0.4,1.3
	c0.6,0.1,1.3,0.2,1.9,0.3c-0.7,0.8-1.3,1.5-1.9,2.3c0.7,0.2,1.3,0.4,2.3,0.7c-1.3,0.1-2.2,0.1-3.2,0.2c0.2,0.5,0.2,1,0.4,1.4
	c0.2,0.4,0.4,0.7,0.7,1c1.2-0.7,3.2,0.8,3.8-1.4c0.2-0.3,0.6-0.5,0.9-0.6c0.2,0.1,0.5,0.1,0.7,0.2c0.1,0.7,0.2,1.5,0.3,2.3
	c-0.5-0.2-1-0.3-1.5-0.5c0,0.1-0.1,0.1-0.1,0.2c0.5,0.3,0.9,0.7,1.5,1.1c-0.3,0.2-0.6,0.3-1.1,0.6c1.2,0.2,2.1,0.4,3,0.6v0.5
	c-0.6,0.1-1.3,0.1-2,0.2l-0.6,1.8h0.1C151.2,110.8,150.5,110.6,149.9,110.7z M48.7,116.2c-0.2-0.1-0.3-0.2-0.5-0.3
	c-0.2-0.1-0.6,0.1-0.8,0.1c0.2,0.2,0.3,0.4,0.5,0.6C48.2,116.5,48.4,116.4,48.7,116.2z M49.3,129.7c0,0.5,0.1,1,0.2,1.5
	c1-1.9,3-3.1,5.1-3c0.2,0,0.4-0.1,0.6-0.2c3.1-1.4,6.6-1.7,9.7-3.4c1-0.6,2.1-0.9,3.3-1c0.6,0,1,0.4,1.1,1c0.4,0.8,0.9,1.7,1.3,2.6
	c0.5-0.5,0.9-0.8,1.4-1.3c-0.2-0.3-0.5-0.5-0.8-0.7c0.2-0.1,0.5-0.1,0.7-0.1c-1.1-1.2-2-2.6-3.2-3.7c-0.6-0.4-1.3-0.5-2-0.3
	c-4.3,1.4-8.5,2.9-12.8,4.3l-9.6,3.3C44.7,130.7,45.4,130.9,49.3,129.7z M80.3,146.8c0.9-1.1,1.6-1.9,2.3-2.7
	c-1.9-2.3-3.6-4.4-5.3-6.5c-0.1,0.1-0.2,0.1-0.3,0.2C78,140.7,79.1,143.5,80.3,146.8z M51.7,111.1c0.7-0.1,1.4-0.5,1.8-1.1
	c-0.1-0.9-0.3-1.7-0.7-2.5c-0.9,0.7-1.7,1.4-2.9,2.4C50.4,110.4,51,110.8,51.7,111.1z M50.4,117.6c0.8-1.2,1.3-2.2-0.2-2.9
	c-0.7-0.6-1.3-1.3-1.7-2.1c-0.1,0.1-0.3,0.1-0.4,0.2C48.9,114.4,49.7,116,50.4,117.6z M50.6,119.7c-0.1-0.2-0.2-0.3-0.2-0.5
	c-0.2,0-0.3,0.2-0.4,0.3c0,0.2,0.1,0.3,0.2,0.5C50.4,120,50.5,119.8,50.6,119.7L50.6,119.7z"/>
<path d="M80.6,86.9c0.4,0.3,0.8,0.7,1.1,0.9c1.3-0.9,2.6-1.8,4-2.7c1-0.5,1.9-1.1,2.8-1.8c0.7-0.7,1.9,0,2.3-1.1
	c0.2-0.5,0.3-1,0.5-0.7C87.8,83.3,84.2,85.1,80.6,86.9C80.6,86.9,80.6,86.9,80.6,86.9z"/>
<path d="M110.2,107.4c-1.2-0.9-2.4-1.9-3.7-2.8l0.1-0.1l-1.5,1.5c0.9,0.6,1.6,1.3,2.3,2.1c0.7,0.9,1.2,1,1.9,0.2
	c0.3-0.2,0.6-0.5,0.9-0.7C110.2,107.6,110.2,107.4,110.2,107.4z"/>
<path d="M92.8,113.8c0.8-0.1,1.6-0.1,2.4-0.2c0-0.1,0.1-0.3,0.1-0.4c-0.5-0.4-1.1-0.8-1.6-1.2l-4.4-0.6c-0.1,0.3-0.2,0.5-0.2,0.8
	C90.3,112.8,91.6,113.3,92.8,113.8z"/>
<path d="M97.8,107.5c-0.9-0.4-1.8-0.6-2.7-0.8c-0.9-0.1-1.8,0-2.7,0.3c1.6,1.5,3.4,1.4,5.2,1.3C97.7,108,97.7,107.8,97.8,107.5z"/>
<path d="M110.2,107.4v0.2c0.4,0.2,0.9,0.4,1.3,0.5c0.7,0.4,1.4,0.9,2.4,1.5c-0.9-1.2-1.6-2.2-2.6-3.6c0.8,0.4,1,0.5,1.5,0.8
	c-0.1-1,0.3-2-0.7-2.6c-0.3,0-0.5,0.1-0.8,0.1C110.9,105.4,110.6,106.4,110.2,107.4z"/>
<path d="M94.6,111.2c0.9-0.2,1.8-0.3,2.7-0.5c0.4-0.1,0.9-0.2,1.3-0.4c-1.1-1.5-2.8-0.6-4.6-1.4C94.1,109.7,94.3,110.5,94.6,111.2z"
	/>
<path d="M94.9,103.8c-0.5-0.4-1-0.8-1.5-1.3c-1.3,1.2-2,3.1-1.2,4c0.1-0.7,0.4-1.5,0.8-2.1C93.6,104.1,94.2,103.9,94.9,103.8z"/>
<path d="M88.7,116.4l2.1,0.3c-0.1-0.4-0.1-0.9-0.2-1.3C88.9,113.7,89.4,116.2,88.7,116.4z"/>
<path d="M92.9,80.1c0.8-0.6,1.4-1.2,2.3-1.9c0-0.2-0.2-0.7-0.3-1.5L92.3,79C92.5,79.4,92.7,79.7,92.9,80.1z"/>
<path d="M111.3,104.4c0.3,0,0.5-0.1,0.8-0.1c0-0.4-0.1-0.8-0.3-1.1c-1-0.8-2-1.4-2.9-2c0.1,0.2,0.2,0.8,0.4,1.5
	C110,103.2,110.6,103.8,111.3,104.4z"/>
<path d="M86.1,112.9c-1-0.7-1.4-1.1-1.9-1.4l-0.2,0.2c0.3,0.5,0.6,0.9,1,1.3c-1.1,0-1.9,0.1-2.6,0.1c0,0.2,0.1,0.6,0.2,1.4
	C83.5,114,84.7,113.5,86.1,112.9z"/>
<path d="M106.6,104.6L106.6,104.6c0.5-0.5,1-1,1.5-1.6c-1.9-1.6-1.7,0.7-2.7,1.4C105.8,104.5,106.2,104.6,106.6,104.6z"/>
<path d="M58.2,138.8c0.2,1.2-2,2-0.3,3.6c0.3-1.3,0.6-2.4,0.9-3.6H58.2z"/>
<path d="M152,104.1c1.3-0.7,1.5-2.6,0.3-3.1c-1-0.3-2-0.5-3-0.6c0.2,1.1,0.4,2,0.6,3.1l1.5,0.5C151.6,104.1,151.8,104.1,152,104.1z"
	/>
<path d="M50,109.8c0.8,0.6,1.3,1.3,1.7,1.2c0.7-0.1,1.4-0.5,1.8-1.1c-0.1-0.9-0.3-1.7-0.7-2.5C52,108.2,51.1,108.9,50,109.8z"/>
<path d="M122.5,45.7c-0.1-0.7-0.1-1.5-0.2-2.5c-1.2,1.3-2.2,2.4-3.2,3.5c0.7,0,1.3,0.1,1.9,0.1C121.5,46.4,122,46.1,122.5,45.7z"/>
<path d="M58.5,113.7c-0.2,0.2-0.4,0.5-0.5,0.8c0.4,0.6,1,1.2,1.5,1.8c0.1-0.2,0.3-0.5,0.4-0.7l-0.6-0.6c0.3,0,0.5,0,0.8-0.1
	c0-0.3,0.1-0.5,0.1-0.8v0.1c-0.3-0.1-0.5-0.1-0.8-0.2h0.1c-0.2,0.2-0.5,0.3-0.7,0.5C58.7,114.2,58.6,114,58.5,113.7z"/>
<path d="M135.2,54c-0.3-0.5-0.5-1.1-0.8-1.6c-0.3,0.4-0.6,0.7-1,1c0.2,0.3,0.3,0.6,0.5,0.9h0.1C134.3,53.7,134.6,53,135.2,54z"/>
<path d="M149.1,111.5l1.9-0.3c-0.4-0.1-0.7-0.3-1.1-0.4C149.6,111,149.3,111.2,149.1,111.5z"/>
<path d="M134.9,54.9l0.3-0.9c-0.4,0.1-0.8,0.1-1.2,0.2h-0.1c0.1,0.3,0.2,0.6,0.3,1C134.4,55.1,134.7,55,134.9,54.9z"/>
<path d="M44,117.1l0.8,0.8c0.2-0.4,0.3-0.7,0.5-1.1C44.9,116.8,44.4,116.9,44,117.1z"/>
<path d="M47.9,116.6c0.3-0.1,0.5-0.2,0.8-0.4c-0.2-0.1-0.3-0.2-0.5-0.3C48.1,116.1,48,116.4,47.9,116.6z"/>
<path d="M45.3,116.8c0.3,0,0.5,0.1,0.8,0.1L46,117v-0.8c-0.1,0-0.2,0-0.3-0.1C45.5,116.3,45.4,116.6,45.3,116.8z"/>
<path d="M151.5,110.6c-0.2,0.2-0.4,0.4-0.5,0.6c0.2,0.3,0.4,0.5,0.6,0.7C151.5,111.5,151.5,111,151.5,110.6
	C151.5,110.6,151.5,110.6,151.5,110.6z"/>
<path d="M143.1,70.3L143.1,70.3c0.2,0,0.4,0.1,0.6,0.2c-0.3-0.2-0.5-0.4-0.7-0.7C143.1,70,143.1,70.1,143.1,70.3z"/>
<path d="M142.4,89.1c0.7-2.9-1.1-7.8-3.1-9.2c-1.4-0.9-2.7-0.4-2.7,1.3c0,2.9,1,5.7,2.8,7.9c0.6,0.6,1.5,0.9,2.3,0.9
	C142,89.7,142.2,89.4,142.4,89.1z"/>
<path d="M60,114.8c-0.1,0.3-0.1,0.5-0.2,0.8c0.3,0.1,0.5,0.1,0.8,0.2c0.1-0.3,0.1-0.5,0.2-0.8C60.5,115,60.2,114.9,60,114.8z"/>
<polygon points="110.5,46.7 137,19.9 156.4,12 124.6,39.4 115.3,45.4 "/>
<polygon points="261.6,455.1 23.2,508.7 23.2,297.8 261.6,244.1 "/>
<g>
	<g>
		<g>
			<defs>
				<path id="SVGID_1_" d="M198.2,256.2c9,4.9,17.8,9.8,26.8,14.6c-0.1-0.1-0.3-0.1-0.4,0c-0.3,0.1-0.6,0.2-0.9,0.4l-26.8-14.6
					c0.4-0.2,0.7-0.3,0.9-0.4C197.9,256.1,198.1,256.1,198.2,256.2z"/>
			</defs>
			<clipPath id="SVGID_2_">
				<use xlink:href="#SVGID_1_"  style="overflow:visible;"/>
			</clipPath>
			<g class="st3">
				<g>
					<path d="M223.9,271.1l-26.8-14.6c0.1-0.1,0.2-0.2,0.4-0.2l26.8,14.6C224.2,271,224.1,271.1,223.9,271.1"/>
					<path d="M224.3,270.9l-26.8-14.6c0.2-0.1,0.3-0.1,0.5-0.2h0.2l26.8,14.6h-0.2C224.6,270.8,224.5,270.8,224.3,270.9"/>
					<path d="M225,270.8l-26.8-14.6h0.1L225,270.8L225,270.8"/>
					<path d="M225.1,270.8l-26.8-14.6l0,0L225.1,270.8L225.1,270.8"/>
				</g>
			</g>
		</g>
	</g>
	<g>
		<g>
			<defs>
				<path id="SVGID_3_" d="M190.7,242.2c4.5,2.4,9,4.9,13.4,7.3s9,4.9,13.4,7.3c-0.2-0.1-0.5-0.1-0.7-0.1l-26.7-14.5
					C190.3,242.1,190.5,242.1,190.7,242.2z"/>
			</defs>
			<clipPath id="SVGID_4_">
				<use xlink:href="#SVGID_3_"  style="overflow:visible;"/>
			</clipPath>
			<g class="st4">
				<g>
					<path d="M216.8,256.7L190,242.1h0.5l26.8,14.6H216.8"/>
					<path d="M217.3,256.7l-26.8-14.6c0.1,0,0.2,0,0.2,0.1l26.8,14.6C217.4,256.7,217.4,256.7,217.3,256.7"/>
					<path d="M217.5,256.8l-26.8-14.6l0,0L217.5,256.8L217.5,256.8"/>
				</g>
			</g>
		</g>
	</g>
	<g>
		<g>
			<defs>
				<path id="SVGID_5_" d="M196.9,228c4.5,2.4,9,4.9,13.4,7.3s9,4.9,13.4,7.3c-0.2-0.1-0.5-0.1-0.7-0.1l-26.8-14.6
					C196.4,227.8,196.7,227.9,196.9,228z"/>
			</defs>
			<clipPath id="SVGID_6_">
				<use xlink:href="#SVGID_5_"  style="overflow:visible;"/>
			</clipPath>
			<g class="st5">
				<g>
					<path d="M223,242.5l-26.8-14.6h0.5l26.8,14.6H223"/>
					<path d="M223.6,242.5l-26.8-14.6c0.1,0,0.2,0,0.2,0.1l26.8,14.6C223.7,242.6,223.7,242.6,223.6,242.5"/>
					<path d="M223.8,242.6L196.9,228l0,0L223.8,242.6L223.8,242.6"/>
				</g>
			</g>
		</g>
	</g>
	<g>
		<g>
			<defs>
				<path id="SVGID_7_" d="M206.3,206.3c9,4.9,17.8,9.8,26.8,14.6H233L206.3,206.3L206.3,206.3z"/>
			</defs>
			<clipPath id="SVGID_8_">
				<use xlink:href="#SVGID_7_"  style="overflow:visible;"/>
			</clipPath>
			<g class="st6">
				<g>
					<path d="M233,220.8l-26.8-14.6l0,0L233,220.8L233,220.8"/>
					<path d="M233,220.8l-26.8-14.6h0.1L233,220.8L233,220.8"/>
				</g>
			</g>
		</g>
	</g>
	<g>
		<g>
			<defs>
				<path id="SVGID_9_" d="M202.4,273.9l-26.8-14.6c3,1.5,6.5,2.1,9.8,1.5c4.2-0.6,8.2-2,11.7-4.3l26.8,14.6
					c-3.5,2.3-7.5,3.7-11.7,4.3C208.9,276,205.4,275.4,202.4,273.9z"/>
			</defs>
			<clipPath id="SVGID_10_">
				<use xlink:href="#SVGID_9_"  style="overflow:visible;"/>
			</clipPath>
			<g class="st7">
				<g>
					<path d="M202.4,273.9l-26.8-14.6c0.1,0.1,0.3,0.2,0.5,0.2l26.8,14.6C202.7,274.1,202.5,274,202.4,273.9"/>
					<path d="M202.8,274.2L176,259.5c0.8,0.4,1.7,0.7,2.6,1l26.8,14.6C204.5,274.9,203.6,274.6,202.8,274.2"/>
					<path d="M205.4,275.1l-26.8-14.6c2.2,0.5,4.5,0.6,6.8,0.3c2.9-0.4,5.8-1.2,8.4-2.5l26.8,14.6c-2.7,1.2-5.5,2.1-8.4,2.5
						C209.9,275.7,207.6,275.6,205.4,275.1"/>
					<path d="M220.5,273l-26.8-14.6c1.1-0.5,2.2-1.1,3.3-1.8l26.8,14.6C222.8,271.8,221.7,272.4,220.5,273"/>
				</g>
			</g>
		</g>
	</g>
	<g>
		<g>
			<defs>
				<path id="SVGID_11_" d="M217,219.5L190.2,205c6.7-0.9,12.2-0.4,16.1,1.3l26.8,14.6C229,219.1,223.6,218.5,217,219.5z"/>
			</defs>
			<clipPath id="SVGID_12_">
				<use xlink:href="#SVGID_11_"  style="overflow:visible;"/>
			</clipPath>
			<g class="st8">
				<g>
					<path d="M217,219.5L190.2,205c4.5-0.7,9-0.6,13.4,0.4l26.8,14.6C226,218.9,221.4,218.7,217,219.5"/>
					<path d="M230.2,219.9l-26.8-14.6c1,0.3,1.9,0.6,2.7,0.9l26.8,14.6C232,220.4,231.1,220.1,230.2,219.9"/>
				</g>
			</g>
		</g>
	</g>
	<polygon points="194.8,259.8 168,245.1 190,242.2 216.8,256.7 	"/>
	<polygon points="197.7,246 170.9,231.4 196.1,227.9 223,242.5 	"/>
	<g>
		<g>
			<defs>
				<path id="SVGID_13_" d="M193.1,285.5c-9-4.9-17.8-9.8-26.8-14.6c-5.6-3-9.7-8.5-11.3-16.8l26.9,14.6
					C183.5,277.1,187.7,282.5,193.1,285.5z"/>
			</defs>
			<clipPath id="SVGID_14_">
				<use xlink:href="#SVGID_13_"  style="overflow:visible;"/>
			</clipPath>
			<g class="st9">
				<g>
					<path d="M193.1,285.5L166.3,271c-5.6-3-9.7-8.5-11.3-16.8l26.9,14.6C183.5,277.1,187.7,282.5,193.1,285.5"/>
				</g>
			</g>
		</g>
	</g>
	<polygon points="181.3,261.7 154.5,247.1 154.5,246.2 181.3,260.8 	"/>
	<g>
		<g>
			<defs>
				<path id="SVGID_15_" d="M175.7,269.5l-26.8-14.6c-0.4-0.3-0.7-0.8-0.6-1.3l26.8,14.6C175,268.7,175.3,269.2,175.7,269.5z"/>
			</defs>
			<clipPath id="SVGID_16_">
				<use xlink:href="#SVGID_15_"  style="overflow:visible;"/>
			</clipPath>
			<g class="st10">
				<g>
					<path d="M175.7,269.5l-26.8-14.6c-0.4-0.3-0.7-0.8-0.6-1.3l26.8,14.6C175,268.7,175.3,269.2,175.7,269.5"/>
				</g>
			</g>
		</g>
	</g>
	<g>
		<g>
			<defs>
				<path id="SVGID_17_" d="M181.3,260.8l-26.8-14.6c0-1.8,0.2-3.6,0.4-5.4l26.8,14.6C181.4,257.2,181.3,259,181.3,260.8z"/>
			</defs>
			<clipPath id="SVGID_18_">
				<use xlink:href="#SVGID_17_"  style="overflow:visible;"/>
			</clipPath>
			<g class="st11">
				<g>
					<path d="M181.3,260.8l-26.8-14.6c0-1.8,0.2-3.6,0.4-5.4l26.8,14.6C181.4,257.2,181.3,259,181.3,260.8"/>
				</g>
			</g>
		</g>
	</g>
	<polygon points="177.2,262.3 150.4,247.6 154.5,247.1 181.3,261.7 	"/>
	<polygon points="175.1,268.2 148.3,253.6 148.9,249.4 175.7,264 	"/>
	<g>
		<g>
			<defs>
				<path id="SVGID_19_" d="M175.7,264l-26.8-14.6c0.1-0.9,0.7-1.6,1.5-1.8l26.8,14.6C176.4,262.5,175.8,263.2,175.7,264z"/>
			</defs>
			<clipPath id="SVGID_20_">
				<use xlink:href="#SVGID_19_"  style="overflow:visible;"/>
			</clipPath>
			<g class="st12">
				<g>
					<path d="M175.7,264l-26.8-14.6c0-0.2,0.1-0.3,0.1-0.5l26.8,14.6C175.7,263.7,175.7,263.8,175.7,264"/>
					<path d="M175.8,263.6L149,249c0-0.1,0.1-0.2,0.1-0.3l26.8,14.6C175.8,263.4,175.8,263.5,175.8,263.6"/>
					<path d="M175.9,263.3l-26.8-14.7c0-0.1,0-0.1,0.1-0.2L176,263C176,263.1,175.9,263.2,175.9,263.3"/>
					<path d="M176,263.1l-26.8-14.6c0-0.1,0.1-0.2,0.2-0.2l26.8,14.6C176.1,262.9,176,263,176,263.1"/>
					<path d="M176.2,262.9l-26.8-14.6l0.2-0.2l26.8,14.6C176.3,262.7,176.2,262.8,176.2,262.9"/>
					<path d="M176.4,262.7l-26.8-14.6l0.2-0.2l26.8,14.6C176.5,262.5,176.4,262.6,176.4,262.7"/>
					<path d="M176.6,262.5l-26.8-14.6c0.1-0.1,0.1-0.1,0.2-0.1l26.8,14.6C176.7,262.4,176.7,262.4,176.6,262.5"/>
					<path d="M176.8,262.4L150,247.8c0.1-0.1,0.3-0.1,0.4-0.1l26.8,14.6C177.1,262.3,176.9,262.3,176.8,262.4"/>
				</g>
			</g>
		</g>
	</g>
	<g>
		<g>
			<defs>
				<path id="SVGID_21_" d="M177.4,255.8l-26.8-14.6c-0.4-0.3-0.6-0.8-0.5-1.3l26.8,14.6C176.8,255,177,255.5,177.4,255.8z"/>
			</defs>
			<clipPath id="SVGID_22_">
				<use xlink:href="#SVGID_21_"  style="overflow:visible;"/>
			</clipPath>
			<g class="st13">
				<g>
					<path d="M177.4,255.8l-26.8-14.6c-0.4-0.3-0.6-0.8-0.5-1.3l26.8,14.6C176.8,255,177,255.5,177.4,255.8"/>
				</g>
			</g>
		</g>
	</g>
	<g>
		<g>
			<defs>
				<path id="SVGID_23_" d="M183.3,248l-26.8-14.6c4.8-15.2,17.9-26.2,33.6-28.5l26.8,14.6C200.7,221.7,188.1,233.5,183.3,248z"/>
			</defs>
			<clipPath id="SVGID_24_">
				<use xlink:href="#SVGID_23_"  style="overflow:visible;"/>
			</clipPath>
			<g class="st14">
				<g>
					<path d="M183.3,248l-26.8-14.6c0.2-0.5,0.3-1,0.5-1.5l26.8,14.6C183.7,247,183.5,247.5,183.3,248"/>
					<path d="M183.9,246.5l-26.8-14.7c0.7-1.9,1.5-3.7,2.4-5.4l26.8,14.6C185.4,242.9,184.6,244.6,183.9,246.5"/>
					<path d="M186.3,241.1l-26.8-14.6c0.8-1.5,1.7-2.9,2.6-4.3l26.8,14.6C188,238.2,187.1,239.6,186.3,241.1"/>
					<path d="M189,236.8l-26.8-14.6c0.9-1.3,1.9-2.6,3-3.8L192,233C190.9,234.3,189.9,235.5,189,236.8"/>
					<path d="M191.9,233.1l-26.8-14.6c1.1-1.2,2.2-2.4,3.4-3.5l26.8,14.6C194.1,230.7,193,231.9,191.9,233.1"/>
					<path d="M195.2,229.6L168.4,215c1.3-1.2,2.7-2.3,4.2-3.3l26.8,14.6C198,227.3,196.6,228.4,195.2,229.6"/>
					<path d="M199.4,226.3l-26.8-14.6c1.9-1.3,3.8-2.4,5.9-3.4l26.8,14.6C203.2,223.9,201.3,225,199.4,226.3"/>
					<path d="M205.3,222.9l-26.8-14.6c3.7-1.7,7.6-2.9,11.7-3.5l26.8,14.6C212.9,220,209,221.2,205.3,222.9"/>
				</g>
			</g>
		</g>
	</g>
	<polygon points="178.9,248.6 152.1,234.1 156.5,233.5 183.3,248 	"/>
	<polygon points="176.9,254.5 150.1,240 150.7,235.8 177.5,250.4 	"/>
	<path class="st15" d="M217,219.5c6.7-0.9,12.2-0.4,16.1,1.3c0.8,0.4,0.8,1.1,0.4,1.9l-4.8,9.8c-0.2,0.4-0.5,0.8-1,0.9
		c-0.3,0-0.5,0-0.8-0.1c-3.6-1.2-7.4-1.5-11.2-1c-7.9,1.3-14.7,6.5-18,13.8l25.3-3.6c0.8-0.1,1.3,0.4,1.3,1.4l-0.6,4.2
		c0,0.9-0.6,1.6-1.5,1.8l-26.8,3.8c-0.3,1.5-0.5,3.1-0.5,4.6l0.1,1.6l21.9-3.1c0.7-0.1,1.3,0.3,1.2,1.4l-0.5,4.2
		c-0.1,0.9-0.7,1.6-1.6,1.8l-19.4,2.7c2.6,6.6,8.5,9.7,15.9,8.6c4.2-0.6,8.2-2,11.7-4.3c0.4-0.2,0.7-0.3,0.9-0.4s0.6,0.1,0.7,0.6
		l3.3,8.8c0.3,0.8,0,1.6-0.8,2c-5.1,3.3-10.9,5.4-16.9,6.1c-14.1,1.9-26.3-3.4-29.3-19.3l-5.8,0.8c-0.6,0-1.1-0.5-1.1-1.1
		c0-0.1,0-0.2,0-0.3l0.5-4.2c0.1-0.9,0.7-1.6,1.5-1.8l4.1-0.6v-0.9c0-1.8,0.2-3.6,0.4-5.4l-3.6,0.5c-0.6,0.1-1.2-0.4-1.2-1
		c0-0.1,0-0.3,0-0.4l0.6-4.2c0-0.8,0.6-1.5,1.4-1.7l4.4-0.6C188.1,233.5,200.7,221.7,217,219.5z"/>
	<g>
		<g>
			<defs>
				<path id="SVGID_25_" d="M177.5,250.4l-26.8-14.6c0-0.8,0.6-1.5,1.4-1.7l26.8,14.6C178.1,248.9,177.5,249.6,177.5,250.4z"/>
			</defs>
			<clipPath id="SVGID_26_">
				<use xlink:href="#SVGID_25_"  style="overflow:visible;"/>
			</clipPath>
			<g class="st16">
				<g>
					<path d="M177.5,250.4l-26.8-14.6c0-0.2,0.1-0.3,0.1-0.5l26.8,14.6C177.6,250.1,177.5,250.2,177.5,250.4"/>
					<path d="M177.6,249.8l-26.8-14.6c0-0.1,0.1-0.2,0.1-0.3l26.8,14.6C177.7,249.6,177.7,249.7,177.6,249.8"/>
					<path d="M177.7,249.5L150.9,235c0-0.1,0.1-0.1,0.1-0.2l26.8,14.6C177.8,249.5,177.8,249.5,177.7,249.5L177.7,249.5"/>
					<path d="M177.9,249.3l-26.8-14.6c0-0.1,0.1-0.1,0.1-0.2l26.8,14.6C178,249.2,178,249.2,177.9,249.3"/>
					<path d="M178,249.1l-26.8-14.6c0-0.1,0.1-0.2,0.2-0.2l26.8,14.6C178.2,249,178.1,249.1,178,249.1"/>
					<path d="M178.2,249l-26.8-14.6c0-0.1,0.1-0.1,0.2-0.1l26.8,14.6C178.3,248.9,178.2,248.9,178.2,249"/>
					<path d="M178.3,248.9l-26.8-14.6c0.1,0,0.1-0.1,0.2-0.1l26.8,14.6C178.4,248.8,178.4,248.8,178.3,248.9"/>
					<path d="M178.6,248.7l-26.8-14.6c0.1-0.1,0.3-0.1,0.4-0.1l26.8,14.6C178.9,248.6,178.7,248.7,178.6,248.7"/>
				</g>
			</g>
		</g>
	</g>
</g>
<g>
	<g>
		<g>
			<defs>
				<path id="SVGID_27_" d="M142.3,284.3l-26.8-14.6c1.3,0.6,2.7,0.8,4.1,0.6c5.8-0.8,9.4-6.7,11.5-14l26.8,14.6
					c-2.1,7.3-5.7,13.1-11.5,14C145,285.1,143.6,284.9,142.3,284.3z"/>
			</defs>
			<clipPath id="SVGID_28_">
				<use xlink:href="#SVGID_27_"  style="overflow:visible;"/>
			</clipPath>
			<g class="st17">
				<g>
					<path d="M142.3,284.3l-26.8-14.6c0.1,0,0.1,0.1,0.2,0.1l26.8,14.6C142.5,284.3,142.4,284.3,142.3,284.3"/>
					<path d="M142.5,284.4l-26.8-14.7c0.3,0.2,0.7,0.3,1.1,0.4l26.8,14.6C143.2,284.7,142.8,284.6,142.5,284.4"/>
					<path d="M143.6,284.8l-26.8-14.6c0.9,0.2,1.9,0.3,2.8,0.1c0.9-0.1,1.9-0.4,2.7-0.8l26.8,14.6c-0.8,0.4-1.8,0.7-2.7,0.8
						C145.5,285,144.5,285,143.6,284.8"/>
					<path d="M149.1,284.1l-26.8-14.5c0.5-0.2,1-0.5,1.5-0.8l26.8,14.6C150.1,283.6,149.6,283.8,149.1,284.1"/>
					<path d="M150.5,283.2l-26.8-14.6l1.2-0.9l26.8,14.6C151.4,282.7,150.9,283,150.5,283.2"/>
					<path d="M151.7,282.3l-26.8-14.6c0.4-0.3,0.8-0.7,1.1-1.1l26.8,14.6C152.5,281.6,152.1,282,151.7,282.3"/>
					<path d="M152.8,281.2L126,266.6c0.4-0.4,0.8-0.9,1.1-1.4l26.8,14.6C153.6,280.3,153.2,280.8,152.8,281.2"/>
					<path d="M153.9,279.8l-26.8-14.6c0.5-0.7,0.9-1.4,1.3-2.1l26.8,14.6C154.8,278.4,154.4,279.1,153.9,279.8"/>
					<path d="M155.2,277.7l-26.9-14.6c0.6-1.3,1.2-2.6,1.7-3.9l26.8,14.6C156.4,275.1,155.9,276.5,155.2,277.7"/>
					<path d="M156.9,273.9l-26.8-14.6c0.3-0.9,0.6-1.9,0.9-2.9l26.8,14.6C157.6,272,157.3,273,156.9,273.9"/>
				</g>
			</g>
		</g>
	</g>
	<g>
		<g>
			<defs>
				<path id="SVGID_29_" d="M157.8,271L131,256.4c1.5-5.6,2.2-11.3,2.2-17.1c0-4-0.5-7.3-1.8-9.6l26.8,14.6c1.3,2.3,1.8,5.6,1.8,9.6
					C160,259.7,159.2,265.4,157.8,271z"/>
			</defs>
			<clipPath id="SVGID_30_">
				<use xlink:href="#SVGID_29_"  style="overflow:visible;"/>
			</clipPath>
			<g class="st18">
				<g>
					<path d="M157.8,271L131,256.4c1.5-5.6,2.2-11.3,2.2-17.1c0-4-0.5-7.3-1.8-9.6l26.8,14.6c1.3,2.3,1.8,5.6,1.8,9.6
						C160,259.7,159.2,265.4,157.8,271"/>
				</g>
			</g>
		</g>
	</g>
	<g>
		<g>
			<defs>
				<path id="SVGID_31_" d="M128.8,227.1l26.8,14.6c1.1,0.6,1.9,1.6,2.5,2.7l-26.8-14.6C130.7,228.7,129.9,227.7,128.8,227.1z"/>
			</defs>
			<clipPath id="SVGID_32_">
				<use xlink:href="#SVGID_31_"  style="overflow:visible;"/>
			</clipPath>
			<g class="st19">
				<g>
					<path d="M158.2,244.3l-26.9-14.5c-0.6-1.1-1.4-2.1-2.5-2.7l26.8,14.6C156.7,242.3,157.6,243.2,158.2,244.3"/>
				</g>
			</g>
		</g>
	</g>
	<g>
		<g>
			<defs>
				<path id="SVGID_33_" d="M134.2,295.9l-26.8-14.6c-1.9-1-3.5-2.4-4.6-4.2c-3-4.3-4.3-10.5-4.3-17.5c0-9.4,1.7-19,5.4-27.1
					c4.5-9.9,11.9-17.2,22.8-18.7c4.4-0.6,8-0.1,10.8,1.4l26.8,14.6c-3.3-1.6-7.1-2.1-10.8-1.4c-11,1.5-18.3,8.9-22.8,18.7
					c-3.6,8.6-5.5,17.8-5.4,27.1c0,7.1,1.2,13.2,4.3,17.5C130.7,293.5,132.3,294.9,134.2,295.9z"/>
			</defs>
			<clipPath id="SVGID_34_">
				<use xlink:href="#SVGID_33_"  style="overflow:visible;"/>
			</clipPath>
			<g class="st20">
				<g>
					<path d="M134.2,295.9l-26.8-14.6c-1.9-1-3.5-2.4-4.6-4.2c-3-4.3-4.3-10.5-4.3-17.5c-0.1-8.1,1.3-16.1,4-23.7l26.8,14.6
						c-2.7,7.6-4,15.6-4,23.7c0,7.1,1.2,13.2,4.3,17.5C130.7,293.5,132.3,294.9,134.2,295.9"/>
					<path d="M129.3,250.4l-26.8-14.6c0.4-1.1,0.9-2.2,1.4-3.3c0.4-0.9,0.8-1.8,1.3-2.6l26.8,14.6c-0.5,0.8-0.9,1.7-1.3,2.6
						C130.1,248.2,129.7,249.3,129.3,250.4"/>
					<path d="M131.9,244.4l-26.8-14.6c0.8-1.4,1.6-2.7,2.5-4l26.8,14.6C133.5,241.8,132.7,243.1,131.9,244.4"/>
					<path d="M134.4,240.5l-26.8-14.6c0.7-1.1,1.5-2.1,2.4-3l26.8,14.6C135.9,238.5,135.1,239.5,134.4,240.5"/>
					<path d="M136.7,237.5l-26.8-14.6c0.8-0.9,1.6-1.7,2.4-2.5l26.8,14.6C138.3,235.8,137.5,236.7,136.7,237.5"/>
					<path d="M139.2,235.1l-26.8-14.6c0.9-0.8,1.8-1.5,2.8-2.2l26.8,14.6C141,233.5,140.1,234.3,139.2,235.1"/>
					<path d="M142,232.9l-26.8-14.7c1.2-0.8,2.5-1.5,3.8-2.2l26.8,14.6C144.5,231.3,143.2,232,142,232.9"/>
					<path d="M145.7,230.7l-26.8-14.6c2.5-1.1,5.1-1.9,7.8-2.3c2.6-0.4,5.2-0.3,7.8,0.3l26.8,14.6c-2.6-0.6-5.2-0.7-7.8-0.3
						C150.8,228.8,148.2,229.6,145.7,230.7"/>
					<path d="M161.2,228.7l-26.8-14.6c0.9,0.2,1.8,0.5,2.6,0.9l26.8,14.6C163,229.2,162.1,228.9,161.2,228.7"/>
					<path d="M163.8,229.6L137,215c0.1,0.1,0.3,0.2,0.5,0.2l26.8,14.6C164.1,229.8,163.9,229.7,163.8,229.6"/>
				</g>
			</g>
		</g>
	</g>
	<path class="st15" d="M168.4,233.6c3.2,4.1,4.5,10.4,4.5,17.9c0.1,9.3-1.7,18.5-5.3,27c-4.4,9.9-11.8,17.3-22.6,18.8
		c-7.4,1-12.3-1.2-15.5-5.7c-3-4.3-4.3-10.5-4.3-17.5c0-9.4,1.7-19,5.4-27.1c4.5-9.9,11.9-17.2,22.8-18.7
		C160.4,227.4,165.4,229.3,168.4,233.6z M157.8,271c1.5-5.6,2.2-11.3,2.2-17.1c0-4-0.5-7.3-1.8-9.6c-1.1-2.4-3.6-3.8-6.2-3.3
		c-5.6,0.8-9.5,5.9-11.7,13.4c-1.6,5.6-2.3,11.5-2.3,17.3c-0.1,3.3,0.4,6.5,1.6,9.6c1.1,2.6,3.9,4.1,6.7,3.5
		C152.2,284.1,155.8,278.3,157.8,271"/>
</g>
<g>
	<g>
		<g>
			<defs>
				<path id="SVGID_35_" d="M92.3,261.5l26.8,14.7c-0.2-0.1-0.4-0.1-0.6-0.1l-26.8-14.6C91.9,261.4,92.1,261.4,92.3,261.5z"/>
			</defs>
			<clipPath id="SVGID_36_">
				<use xlink:href="#SVGID_35_"  style="overflow:visible;"/>
			</clipPath>
			<g class="st21">
				<g>
					<path d="M118.6,276.1l-26.8-14.6h0.4l26.8,14.6C118.9,276,118.7,276,118.6,276.1"/>
					<path d="M119,276.1l-26.8-14.6c0.1,0,0.2,0,0.2,0.1l26.8,14.6C119.2,276.1,119.1,276.1,119,276.1"/>
					<path d="M119.2,276.2l-26.9-14.6l0,0L119.2,276.2L119.2,276.2"/>
				</g>
			</g>
		</g>
	</g>
	<polygon points="110.9,277.2 84.1,262.5 91.7,261.4 118.6,276.1 	"/>
	<g>
		<g>
			<defs>
				<path id="SVGID_37_" d="M96,303.1c-9-4.9-17.8-9.8-26.8-14.6c-0.4-0.2-0.7-0.7-0.5-1.2l26.8,14.6
					C95.3,302.4,95.6,302.9,96,303.1z"/>
			</defs>
			<clipPath id="SVGID_38_">
				<use xlink:href="#SVGID_37_"  style="overflow:visible;"/>
			</clipPath>
			<g class="st22">
				<g>
					<path d="M96,303.1l-26.8-14.6c-0.4-0.2-0.7-0.7-0.5-1.2l26.8,14.6C95.3,302.4,95.6,302.9,96,303.1"/>
				</g>
			</g>
		</g>
	</g>
	<polygon points="95.4,302 68.6,287.3 70.1,275.9 96.9,290.5 	"/>
	<g>
		<g>
			<defs>
				<path id="SVGID_39_" d="M88.9,220l26.8,14.6c-0.2-0.1-0.4-0.1-0.6-0.1l-26.8-14.6C88.5,219.8,88.7,219.9,88.9,220z"/>
			</defs>
			<clipPath id="SVGID_40_">
				<use xlink:href="#SVGID_39_"  style="overflow:visible;"/>
			</clipPath>
			<g class="st23">
				<g>
					<path d="M115.1,234.5l-26.8-14.6h0.4l26.8,14.6H115.1"/>
					<path d="M115.5,234.5l-26.8-14.6c0.1,0,0.2,0,0.2,0.1l26.8,14.6C115.6,234.5,115.6,234.5,115.5,234.5"/>
					<path d="M115.7,234.6l-26.8-14.7l0,0L115.7,234.6L115.7,234.6"/>
				</g>
			</g>
		</g>
	</g>
	<polygon points="98.4,278.8 71.6,264.3 74.5,242.9 101.3,257.4 	"/>
	<polygon points="84.8,280.7 57.9,266.2 71.6,264.3 98.4,278.8 	"/>
	<polygon points="106.4,235.7 79.6,221.1 88.3,219.9 115.1,234.5 	"/>
	<g>
		<g>
			<defs>
				<path id="SVGID_41_" d="M103.9,237.4l-26.8-14.6c0.5-0.9,1.4-1.6,2.5-1.7l26.8,14.6C105.4,235.9,104.5,236.5,103.9,237.4z"/>
			</defs>
			<clipPath id="SVGID_42_">
				<use xlink:href="#SVGID_41_"  style="overflow:visible;"/>
			</clipPath>
			<g class="st24">
				<g>
					<path d="M103.9,237.4l-26.8-14.6c0.2-0.2,0.3-0.4,0.5-0.6l26.8,14.7C104.2,237,104,237.2,103.9,237.4"/>
					<path d="M104.4,236.9l-26.8-14.6c0.1-0.2,0.2-0.3,0.4-0.4l26.8,14.6C104.6,236.6,104.5,236.7,104.4,236.9"/>
					<path d="M104.7,236.5l-26.8-14.6l0.3-0.3l26.8,14.6C104.9,236.3,104.8,236.4,104.7,236.5"/>
					<path d="M105.1,236.2l-26.8-14.6c0.1-0.1,0.2-0.2,0.4-0.2l26.8,14.6C105.3,236,105.2,236.1,105.1,236.2"/>
					<path d="M105.5,236l-26.8-14.6c0.3-0.1,0.6-0.2,1-0.3l26.8,14.6C106.2,235.7,105.8,235.8,105.5,236"/>
				</g>
			</g>
		</g>
	</g>
	<g>
		<g>
			<defs>
				<path id="SVGID_43_" d="M70.3,294c-9-4.9-17.8-9.8-26.8-14.6c-0.4-0.3-0.6-0.8-0.4-1.2l26.8,14.6
					C69.8,293.2,69.9,293.7,70.3,294z"/>
			</defs>
			<clipPath id="SVGID_44_">
				<use xlink:href="#SVGID_43_"  style="overflow:visible;"/>
			</clipPath>
			<g class="st25">
				<g>
					<path d="M70.3,294l-26.8-14.6c-0.4-0.3-0.6-0.8-0.4-1.2l26.8,14.6C69.8,293.2,69.9,293.7,70.3,294"/>
				</g>
			</g>
		</g>
	</g>
	<polygon points="69.9,292.8 43.1,278.3 44.1,270.2 70.9,284.7 	"/>
	<polygon points="72.1,281.9 45.3,267.4 77.1,222.8 103.9,237.4 	"/>
	<path class="st15" d="M118.6,276.1c0.6-0.1,1.2,0.4,1.2,1c0,0.1,0,0.3,0,0.4l-1.1,8.6c-0.1,0.9-0.7,1.6-1.6,1.7l-7.7,1.1l-1.5,11.5
		c0,0.8-0.6,1.5-1.4,1.7l-9.7,1.4c-0.6,0.1-1.2-0.4-1.3-1c0-0.1,0-0.2,0-0.3l1.5-11.5l-25.8,3.6c-0.5,0.1-1.1-0.2-1.2-0.7
		c-0.1-0.2,0-0.4,0-0.6l1-8.1c0.2-1,0.6-2,1.2-2.8l31.8-44.6c0.5-0.9,1.4-1.6,2.5-1.7l8.6-1.2c0.6-0.1,1.2,0.4,1.2,1
		c0,0.1,0,0.3,0,0.4l-5.4,41.3L118.6,276.1z M98.4,278.8l2.8-21.4l-16.5,23.3L98.4,278.8"/>
	<g>
		<g>
			<defs>
				<path id="SVGID_45_" d="M70.9,284.7l-26.8-14.6c0.2-1,0.6-2,1.2-2.8l26.8,14.6C71.5,282.7,71.1,283.7,70.9,284.7z"/>
			</defs>
			<clipPath id="SVGID_46_">
				<use xlink:href="#SVGID_45_"  style="overflow:visible;"/>
			</clipPath>
			<g class="st26">
				<g>
					<path d="M70.9,284.7l-26.8-14.6c0.1-0.5,0.2-0.8,0.3-1.2l26.8,14.6L70.9,284.7"/>
					<path d="M71.2,283.6L44.4,269c0.1-0.2,0.2-0.5,0.3-0.7l26.8,14.6C71.4,283.1,71.3,283.4,71.2,283.6"/>
					<path d="M71.5,282.8l-26.8-14.6c0.2-0.3,0.4-0.6,0.6-0.9l26.8,14.6C71.8,282.3,71.7,282.6,71.5,282.8"/>
				</g>
			</g>
		</g>
	</g>
</g>
<circle class="st1" cx="108.9" cy="243.6" r="2.8"/>
<circle class="st1" cx="107.4" cy="252.5" r="2.8"/>
<circle class="st1" cx="107.4" cy="261.6" r="2.8"/>
<circle class="st1" cx="105.9" cy="270.6" r="2.8"/>
<circle class="st1" cx="104.4" cy="281.1" r="2.8"/>
<path class="st1" d="M105.6,290.1c0,1.5-1.3,2.8-2.8,2.8c-1.5,0-2.8-1.2-2.8-2.7c0,0,0-0.1,0-0.1c0-1.5,1.3-2.8,2.8-2.8
	S105.6,288.6,105.6,290.1z"/>
<circle class="st1" cx="101.3" cy="299.2" r="2.8"/>
<circle class="st1" cx="93.8" cy="285.6" r="2.8"/>
<circle class="st1" cx="84.9" cy="287.1" r="2.8"/>
<circle class="st1" cx="75.8" cy="288.6" r="2.8"/>
<circle class="st1" cx="113.4" cy="282.6" r="2.8"/>
<circle class="st1" cx="80.3" cy="278.1" r="2.8"/>
<circle class="st1" cx="86.4" cy="270.6" r="2.8"/>
<circle class="st1" cx="92.3" cy="261.6" r="2.8"/>
<circle class="st1" cx="98.3" cy="252.5" r="2.8"/>
<circle class="st1" cx="140.5" cy="240.5" r="2.8"/>
<circle class="st1" cx="134.4" cy="251" r="2.8"/>
<circle class="st1" cx="131.4" cy="263.1" r="2.8"/>
<circle class="st1" cx="131.4" cy="273.6" r="2.8"/>
<circle class="st1" cx="132.9" cy="284.1" r="2.8"/>
<circle class="st1" cx="140.5" cy="291.6" r="2.8"/>
<path class="st1" d="M153.8,290.1c0,1.5-1.3,2.8-2.8,2.8s-2.8-1.3-2.8-2.8c0-1.5,1.3-2.8,2.8-2.8h0
	C152.5,287.3,153.8,288.6,153.8,290.1z"/>
<circle class="st1" cx="158.6" cy="282.6" r="2.8"/>
<circle class="st1" cx="163" cy="270.6" r="2.8"/>
<circle class="st1" cx="166" cy="260" r="2.8"/>
<circle class="st1" cx="164.5" cy="248" r="2.8"/>
<circle class="st1" cx="161.5" cy="237.5" r="2.8"/>
<circle class="st1" cx="149.5" cy="236" r="2.8"/>
<circle class="st1" cx="224.7" cy="227" r="2.8"/>
<circle class="st1" cx="214.2" cy="227" r="2.8"/>
<circle class="st1" cx="203.6" cy="231.5" r="2.8"/>
<circle class="st1" cx="196.1" cy="239" r="2.8"/>
<circle class="st1" cx="190.1" cy="249.5" r="2.8"/>
<circle class="st1" cx="188.6" cy="261.6" r="2.8"/>
<circle class="st1" cx="190.1" cy="272.1" r="2.8"/>
<circle class="st1" cx="197.6" cy="279.6" r="2.8"/>
<circle class="st1" cx="208.2" cy="281.1" r="2.8"/>
<circle class="st1" cx="220.2" cy="279.6" r="2.8"/>
</svg>
