<svg xmlns="http://www.w3.org/2000/svg" viewBox="0 0 233.15 233.15"><title>beams</title><polygon points="116.58 116.58 68.27 0 0 0 116.58 116.58" fill="#fff" opacity="0.3"/><polygon points="0 116.58 116.58 116.58 0 68.27 0 116.58" fill="#fff" opacity="0.3"/><polygon points="0 233.15 0 233.15 116.58 116.58 0 164.88 0 233.15" fill="#fff" opacity="0.3"/><polygon points="116.58 233.15 116.58 116.58 68.27 233.15 116.58 233.15" fill="#fff" opacity="0.3"/><polygon points="116.58 116.58 164.88 233.15 233.15 233.15 116.58 116.58" fill="#fff" opacity="0.3"/><polygon points="233.15 116.58 116.58 116.58 233.15 164.88 233.15 116.58" fill="#fff" opacity="0.3"/><polygon points="233.15 68.27 233.15 0 116.58 116.58 233.15 68.27" fill="#fff" opacity="0.3"/><polygon points="116.58 0 116.58 116.58 164.88 0 116.58 0" fill="#fff" opacity="0.3"/></svg>