<svg xmlns="http://www.w3.org/2000/svg" viewBox="0 0 237.22 164.53"><title>Fb_Insta_YT_icon_button</title><path d="M226.22,127.55a34,34,0,0,1-34,34s-56.52,2.6-75.37,2.63c-20.17,0-80.63-2.63-80.63-2.63a34,34,0,0,1-34-34S0,97.31,0,87s2.22-42.4,2.22-42.4a34,34,0,0,1,34-34S93,8.13,112,8.11c20.06,0,80.22,2.44,80.22,2.44a34,34,0,0,1,34,34s1,30,1,40.38S226.22,127.55,226.22,127.55Z"/><g opacity="0.2"><path d="M237.22,54.55v47c-0.27,1.78-.58,3.56-0.81,5.35-1.05,7.91-1.58,15.92-3.24,23.7-2.6,12.19-10.23,19.95-22.69,22.27a94,94,0,0,1-14.86,1.66c-30.63.74-61.26,1.79-91.89,1.73-20.29,0-40.58-1.57-60.85-2.76-14-.82-24.13-9.67-26.71-23.38-1.78-9.43-2.66-19-3.94-28.56v-47C13.46,45.35,14.29,36.08,16,27,19,11.69,28.82,3.39,44.42,2.49,61.2,1.53,78-.15,94.79,0c37.45,0.35,74.9,1.39,112.33,2.71,13.76,0.48,23.66,9.76,26.17,23.3C235,35.45,235.94,45,237.22,54.55ZM95.69,113L167.32,75.9,95.69,38.52V113Z" fill-rule="evenodd"/></g><path d="M236.22,119.55a34,34,0,0,1-34,34s-56.52,2.6-75.37,2.63c-20.17,0-80.63-2.63-80.63-2.63a34,34,0,0,1-34-34S10,89.31,10,79s2.22-42.4,2.22-42.4a34,34,0,0,1,34-34S103,0.13,122,.11c20.06,0,80.22,2.44,80.22,2.44a34,34,0,0,1,34,34s1,30,1,40.38S236.22,119.55,236.22,119.55Z" fill="#ffeb02"/><path d="M126.59,148.09c-20,0-79.42-2.78-80-2.8l-0.17-.2H46.22A25.24,25.24,0,0,1,20.7,119.55v-0.29L20.43,119c0-.3-2.32-30.07-2.32-40s2.36-41.53,2.38-41.85l0.2-.28V36.55c0-14.34,11.19-26.46,25.52-26.46h0.17l0.17,0.21c0.57,0,56.87-2.21,75.45-2.21h0.21c19.88,0,79.08,2.19,79.68,2.21l0.16-.21h0.16a26.23,26.23,0,0,1,26,26.23v0.38c0,0.3,1,30,1,40.17s-1,42.08-1,42.4v0a25.85,25.85,0,0,1-26,25.79H202l-0.18.2c-0.56,0-56.55,2.8-75,2.8h-0.25Z" fill="#e42326"/><path d="M126.59,140.59c-16.66,0-61.69-2-76.3-2.64L50,137.59H46.22a18.08,18.08,0,0,1-18-18V119l0-.59C27.56,110.13,26,87,26,79s1.56-32.55,2.17-41.3l0-.55V36.55a18,18,0,0,1,14.6-17.68l0,0,4-.15c0.54,0,56.72-2.19,75.12-2.19h0.21c19.77,0,78.8,2.16,79.37,2.19l4.14,0.15,0,0a18,18,0,0,1,14.48,17.65V37.1c0,0.29,1,29.91,1,39.83s-1,41.8-1,42.12v0.53a18,18,0,0,1-18,18h-3.64l-0.34.36c-13.81.67-56.09,2.64-71.4,2.64h-0.25Z" fill="none" stroke="#ffeb02" stroke-miterlimit="10"/><path d="M126.59,132.59c-15.36,0-56-1.74-72.58-2.48l-0.46-.52H46.22A10.75,10.75,0,0,1,35.74,120l0.28-.68-0.12-1.61c-0.58-7.87-2-31-2-38.81s1.4-32.47,2-40.73l0.09-1.33-0.21-.78a10.28,10.28,0,0,1,7.48-9.15l4-.16c0.5,0,56.73-2.18,74.85-2.18h0.21c19.46,0,78.53,2.16,79.06,2.18l0.23,0.12,3.6,0.09a10,10,0,0,1,7.11,9.57v0.81c0,1.23,1,30,1,39.57,0,9.79-1,41.55-1,41.86v0.7a10.08,10.08,0,0,1-10,10.1h-7.09l-0.49.52c-15.64.74-53.65,2.48-67.79,2.48h-0.25Z" fill="none" stroke="#ffeb02" stroke-miterlimit="10"/><path d="M126.59,124.59c-14.29,0-50.66-1.52-68.86-2.33l-0.6-.67H46.22a2.67,2.67,0,0,1-2.12-1.19l0,0-0.25-3.29c-0.55-7.54-2-30.68-2-38.23s1.36-31.58,2-40.17L44,36.08l-0.08-.28A2.47,2.47,0,0,1,44.69,35L47,35l0.48-.25c0.51,0,56.75-2.17,74.53-2.17h0.21c19.24,0,78.22,2.16,78.78,2.18l0.45,0.13,2,0.07a2.05,2.05,0,0,1,.79,1.59l0,1.08c0,0.29,1,29.76,1,39.3s-1,41.29-1,41.61v0.86a2.13,2.13,0,0,1-2,2.2H191.67l-0.65.69c-17.08.8-51.09,2.31-64.19,2.31h-0.25Z" fill="none" stroke="#ffeb02" stroke-miterlimit="10"/><path d="M126.59,116.59c-13.52,0-47.83-1.42-65.14-2.17l-0.74-.83h-9c-0.66-9-1.8-28.52-1.8-34.87s1.06-26,1.7-36.21c13-.43,55.55-1.92,70.43-1.92h0.21c16.05,0,60.19,1.59,74.19,2,0.28,8.83.83,27,.83,34,0,7.36-.59,28-0.86,37h-8.14l-0.8.84c-18.76.87-48.58,2.16-60.59,2.16h-0.25Z" fill="none" stroke="#ffeb02" stroke-miterlimit="10"/><path d="M126.59,108.59c-12.76,0-45-1.31-61.42-2l-0.88-1H59.17c-0.63-10-1.3-22.24-1.3-26.87S58.51,61,59.12,50.28c17.25-.56,50.17-1.68,62.88-1.68h0.21c13.72,0,48.39,1.24,66.42,1.79,0.27,9,.59,20.92.59,26.2,0,5.57-.35,20-0.63,29h-3.82l-0.95,1c-17.7.81-45.67,2-57,2h-0.25Z" fill="none" stroke="#ffeb02" stroke-miterlimit="10"/><path d="M126.59,100.59c-12,0-42.17-1.21-57.71-1.87l-1-1.13H66.71c-0.52-9-.83-15.95-0.83-18.87,0-3.42.38-12,.83-20.69,16.73-.52,44.16-1.44,55.29-1.44h0.21c11.81,0,39.29,1,58.64,1.56,0.2,7.29.38,14.87,0.37,18.66,0,4.2-.21,13.19-0.43,21.73l-0.56.4c-16.63.75-42.74,1.64-53.39,1.64h-0.25Z" fill="none" stroke="#ffeb02" stroke-miterlimit="10"/><path d="M126.59,92.59c-10.55,0-35.42-.72-52.23-1.42-0.31-5.93-.48-10.29-0.48-12.34s0.16-6.86.45-13c16-.49,38.12-1.27,47.68-1.27h0.21c10.16,0,31.95.79,50.84,1.33,0.12,5,.18,8.71.18,10.89q0,4-.25,14.42c-15.48.67-36.91,1.36-46.13,1.36h-0.25Z" fill="none" stroke="#ffeb02" stroke-miterlimit="10"/><path d="M126.59,84.59c-9.14,0-29.59-.51-44.58-1.11-0.09-2.15-.13-3.68-0.13-4.64s0-2.92.13-5.2c15.05-.44,32-1,40-1h0.21c7.32,0,22.1.53,43,1.11,0,1.2,0,2.31,0,3.11,0,1.5,0,3.68-.09,6.75-14.47.61-30.67,1-38.3,1h-0.25Z" fill="none" stroke="#ffeb02" stroke-miterlimit="10"/><g style="isolation:isolate"><polygon points="110.64 50.72 87.85 38.32 151.92 65.79 174.71 78.19 110.64 50.72"/><polygon points="110.51 121.8 87.72 109.4 87.85 38.32 110.64 50.72 110.51 121.8"/><polygon points="110.64 50.72 174.71 78.19 110.51 121.8 110.64 50.72" fill="#fff"/></g></svg>