<?xml version="1.0" encoding="utf-8"?>
<!-- Generator: Adobe Illustrator 19.0.0, SVG Export Plug-In . SVG Version: 6.00 Build 0)  -->
<svg version="1.1" id="Layer_1" xmlns="http://www.w3.org/2000/svg" xmlns:xlink="http://www.w3.org/1999/xlink" x="0px" y="0px"
	 viewBox="0 0 32.6 35" style="enable-background:new 0 0 32.6 35;" xml:space="preserve">
<style type="text/css">
	.st0{fill:#FFFFFF;}
</style>
<g>
	<path d="M12.8,26.2c-3.6-0.5-6.7-0.8-11.1-1.4c3.9-1.7,6.8-2.8,10.1-4.2c-3.2-3.5-9.2-10-9-10.2c3.5,1.3,7.8,2.5,11.7,4
		c1-3.9,1.9-7.6,3.2-12.6c1.2,5.6,2.1,9.9,3,14.2c3.7,0,7.2,0,11.9,0c-4,2-6.9,3.5-10.4,5.2c2.6,3.6,7.1,11.1,6.9,11.4
		c-3.4-2-6.9-4.1-10.8-6.4c-2.2,2.9-4.5,5.9-6.8,8.8C11.3,34.8,12.1,29.3,12.8,26.2z"/>
</g>
<path class="st0" d="M11.1,24.5C7.5,24,4.4,23.6,0,23.1c3.9-1.7,6.8-2.8,10.1-4.2c-3.2-3.5-9.2-10-9-10.2c3.5,1.3,7.8,2.5,11.7,4
	c1-3.9,1.9-7.6,3.2-12.6c1.2,5.6,2.1,9.9,3,14.2c3.7,0,7.2,0,11.9,0c-4,2-6.9,3.5-10.4,5.2c2.6,3.6,7.1,11.1,6.9,11.4
	c-3.4-2-6.9-4.1-10.8-6.4c-2.2,2.9-4.5,5.9-6.8,8.8C9.6,33.1,10.4,27.5,11.1,24.5z"/>
</svg>
