<?xml version="1.0" encoding="utf-8"?>
<!-- Generator: Adobe Illustrator 16.0.0, SVG Export Plug-In . SVG Version: 6.00 Build 0)  -->
<!DOCTYPE svg PUBLIC "-//W3C//DTD SVG 1.1//EN" "http://www.w3.org/Graphics/SVG/1.1/DTD/svg11.dtd">
<svg version="1.1" id="Layer_1" xmlns="http://www.w3.org/2000/svg" xmlns:xlink="http://www.w3.org/1999/xlink" x="0px" y="0px"
   width="774.074px" height="300px" viewBox="0 0 774.074 300" enable-background="new 0 0 774.074 300" xml:space="preserve">
  <style type="text/css">
  .st0{fill-rule:evenodd;clip-rule:evenodd;fill:#FFFFFF;}
  .st1{fill-rule:evenodd;clip-rule:evenodd;fill:#181716;}
  .st2{fill-rule:evenodd;clip-rule:evenodd;fill:#FFEB08;}
  .st3{fill:#181716;}
  .st4{fill:#E42326;}
</style>
<g>
  <circle fill-rule="evenodd" clip-rule="evenodd" fill="#FFFFFF" cx="15.383" cy="123.232" r="10.978"/>
  <polygon fill-rule="evenodd" clip-rule="evenodd" fill="#FFFFFF" points="21.333,94.958 36.315,20.819 9.282,10.05 13.079,95.693   
    "/>
  
    <ellipse transform="matrix(0.9984 0.0571 -0.0571 0.9984 7.8551 -37.7215)" fill-rule="evenodd" clip-rule="evenodd" fill="#FFFFFF" cx="663.96" cy="118.584" rx="11.236" ry="10.385"/>
  <polygon fill-rule="evenodd" clip-rule="evenodd" fill="#FFFFFF" points="675.189,100.467 685.721,105.232 763.614,49.771 
    733.44,26.409   "/>
  <circle fill-rule="evenodd" clip-rule="evenodd" cx="22.383" cy="120.232" r="10.978"/>
  <polygon fill-rule="evenodd" clip-rule="evenodd" points="28.333,91.958 43.315,17.819 16.282,7.05 20.079,92.693  "/>
  
    <ellipse transform="matrix(0.9984 0.0571 -0.0571 0.9984 7.6952 -38.1261)" fill-rule="evenodd" clip-rule="evenodd" cx="670.96" cy="115.584" rx="11.236" ry="10.385"/>
  <polygon fill-rule="evenodd" clip-rule="evenodd" points="682.189,97.467 692.721,102.232 770.614,46.771 740.44,23.409  "/>
  <g>
    <path fill-rule="evenodd" clip-rule="evenodd" d="M122.226,263.984l1.097-1.154c-0.03-0.098-0.06-0.193-0.091-0.289
      c-2.17-0.785-4.339-1.572-6.646-2.41c2.646-0.607,5.45,0.012,7.93,1.441l2.714-2.859c-1.323-0.666-2.571-1.766-2.99-2.859
      c-1.709-4.482-3.499-8.857-8.495-12.1c-0.917-0.598-1.296-1.748-1.516-2.707c-1.104-4.861-2.939-9.381-8.844-12.416
      c-0.825-0.424-1.107-1.557-1.224-2.408c-0.629-4.664-3.013-8.711-7.068-12.289c-1.565-1.373-2.729-3.01-3.837-4.617
      c-2.235-3.25-4.346-6.549-6.417-9.855c-0.49-0.777-1.072-1.719-0.861-2.52c1.825-6.902-1.364-12.293-8.276-16.707
      c-1.082-0.691-1.821-1.756-2.334-2.758c-0.805-1.57-1.076-3.303-1.939-4.854c-2.084-3.752-5.207-7.322-2.099-11.764
      c0.219-0.307,0.01-0.754-0.008-1.135c-0.263-6.057-4.341-10.495-10.975-13.849c-4.611,0.407-9.229,0.813-13.839,1.22
      c-1.757,1.607-3.936,3.079-5.188,4.848c-3.914,5.525-0.813,12.869,6.447,16.613c1.69,0.869,3.514,2.051,4.124,3.395
      c1.044,2.295,0.215,5.012,4.932,5.953c2.142,0.428,3.55,2.373,5.357,3.678c-1.021,0.783-2.982,1.762-3.89,3.07
      c-3.771,5.432-1.621,15.154,5.47,18.107c1.206,0.5,2.076,1.555,2.701,2.498c1.668,2.506,3.113,5.096,4.67,7.645
      c0.063,0.1,0.37,0.111,0.608,0.174c-0.185-0.537-0.353-1.037-0.522-1.533c2.294,0.684,4.136,1.656,5.649,2.84
      c0.47,0.363,0.362,1.395-0.012,1.969c-3.409,5.24-0.893,14.314,4.797,18.266c1.627,1.129,2.888,2.811,3.374,4.418
      c1.556,5.154,5.781,8.26,11.979,8.303c-0.323,1.111-1.238,2.357-0.875,3.314c1.68,4.439,3.542,8.83,8.107,12.285
      c1.199,0.906,2.065,2.379,2.095,3.645c0.08,3.584,1.6,6.707,4.458,9.453l3.946-4.158c-0.909-1.275-1.588-2.693-2.063-4.221
      C115.983,266.385,119.115,265.18,122.226,263.984z M117.465,254.303c0.257-0.941,0.984-1.84,1.789-3.24
      c0.83,1.564,1.688,3.008,2.301,4.512c0.094,0.236-0.866,0.949-1.463,1.074c-0.653,0.135-1.84,0.021-2.098-0.293
      C117.523,255.793,117.283,254.971,117.465,254.303z M61.738,193.865c-3.103-1.961-3.17-5.252,0.105-8.729
      C61.807,188.254,61.771,191.059,61.738,193.865z M108.372,249.914c1.261,0.516,2.158,0.656,2.468,1.049
      c1.39,1.758,2.724,3.549,3.813,5.42c0.269,0.455-0.232,1.561-0.808,1.793c-0.695,0.283-2.389,0.209-2.716-0.152
      c-1.663-1.844-3.171-3.781-4.367-5.807C106.495,251.77,107.698,250.828,108.372,249.914z M99.816,222.271
      c0.452-0.049,0.904-0.094,1.357-0.139c0.381,1.367,0.893,2.725,1.015,4.113c0.022,0.236-1.604,0.625-3.482,1.316
      C99.206,225.18,99.512,223.725,99.816,222.271z M67.39,158.055c0.508-0.014,1.02-0.023,1.53-0.037
      c-0.007,1.76-0.015,3.521-0.023,5.287c-0.623,0.012-1.246,0.025-1.869,0.041C67.148,161.582,67.27,159.816,67.39,158.055z
       M50.995,165.098c-4.367-1.785-6.619-6.344-4.371-10.438c7.407,0.502,9.884-0.148,13.801-3.934
      c3.481,3.442,5.745,6.87,4.824,10.651C60.438,162.633,56.076,163.771,50.995,165.098z M58.229,166.719
      c4.556,0.879,6.562,3.355,5.778,7.27C61.96,171.41,60.178,169.168,58.229,166.719z M65.723,198.145
      c-0.939-2.904-1.956-6.045-2.837-8.768c4.75-1.461,8.479-2.613,13.399-4.129c1.227,3.051,2.479,6.15,3.604,8.945
      C74.801,195.613,70.794,196.73,65.723,198.145z M80.923,217.479c0.268,3.014,0.513,5.805,0.782,8.867
      C77.184,223.898,76.863,220.213,80.923,217.479z M82.825,212.584c-3.198-2.355-5.141-4.789-6.199-8.158
      C80.727,205.375,83.673,209.477,82.825,212.584z M82.461,189.316c0.375-0.047,0.749-0.092,1.124-0.139
      c1.629,2.217,2.613,4.486,0.792,7.016c-0.433,0.043-0.864,0.088-1.298,0.133C82.874,193.986,82.668,191.652,82.461,189.316z
       M86.399,230.217c-1.061-2.92-2.104-5.563-2.918-8.248c-0.141-0.467,0.497-1.432,1.105-1.645c2.316-0.805,4.771-1.395,7.751-2.229
      c1.323,2.525,2.629,5.018,3.988,7.609C92.865,227.275,90.089,228.537,86.399,230.217z M96.886,242.873
      c-1.109-0.684-1.549-1.887-2.331-2.84c-1.316-1.605-1.11-2.686,1.847-3.453c1.576-0.408,2.88-1.434,5.128-2.613
      c1.408,1.977,3.043,3.738,3.966,5.693c1.315,2.781-3.093,2.666-4.843,3.842C100.11,243.867,97.786,243.428,96.886,242.873z
       M98.982,252.799c-0.514-2.322,0.697-4.32,2.839-6.037c0.485,0.061,0.968,0.125,1.452,0.188c0.761,2.666,1.521,5.338,2.35,8.232
      C101.959,255.295,99.481,255.051,98.982,252.799z M106.963,258.881c2.033,1.498,4.07,2.998,6.497,4.781
      c-0.582,0.424-1.374,0.994-2.179,1.576C105.17,261.297,103.188,261.307,106.963,258.881z"/>
    <path fill-rule="evenodd" clip-rule="evenodd" d="M124.515,261.572l-1.192,1.258c0.068,0.219,0.137,0.436,0.205,0.654
      c-0.434,0.166-0.868,0.332-1.302,0.5l-7.489,7.893c1.257,1.76,2.97,3.236,5.316,4.27c4.01-2.25,7.486-4.201,11.238-6.305
      C130.142,266.342,127.576,263.336,124.515,261.572z"/>
  </g>
  <path fill-rule="evenodd" clip-rule="evenodd" d="M607.756,183.412c11.142,0.037,18.982-8.488,14.88-17.166
    c-1.557-3.289-0.601-5.137,1.376-7.057c-3.83-1.422-7.661-2.846-11.492-4.264c0.116,2.051-1.602,2.322-3.896,2.301
    c-9.464-0.084-14.732,3.814-16.496,10.268c-1.007,3.691-0.197,7.783,5.729,10.828c0.562,0.287,0.96,1.34,0.91,1.92
    c-0.256,2.965-2.269,4.926-5.642,5.895c-0.685,0.197-1.924-0.375-2.207-0.438c-2.072,0.332-3.654,0.846-5.382,0.822
    c-12.996-0.164-20.115,10.529-15.207,17.592c0.586,0.844,0.058,1.982,0.048,2.777c0.797-0.299,1.789-0.668,2.844-1.064
    c2.096,3.6-3.045,8.713-8.445,8.563c0.301-0.807,0.563-1.512,0.525-1.414c-1.873,0.318-4.089,1.02-6.516,1.045
    c-11.27,0.107-18.524,8.621-14.299,17.059c0.28,0.557,0.574,1.457,1.015,1.594c4.153,1.307,2.92,3.014,1.08,3.699
    c-2.669,1-2.604,5.506-8.692,2.578c-2.129-1.027-5.576-0.668-8.221-0.32c-2.057,0.268-3.83,1.297-5.719,1.297
    c0.003,0,0.004,0,0.006,0c-0.009,0-0.018,0.441-0.026,0.455c3.181-0.205,6.358-0.2,9.539-0.405c0.091,0.264,0.184,0.63,0.274,0.894
    c-3.496,0.428-6.993,0.912-10.772,1.375c0.396-0.613,0.682-1.034,0.959-1.474c-0.042,0.002-0.084,0.018-0.125,0.02
    c0.049-0.016,0.097-0.03,0.146-0.048c-0.721,0.002-1.746-0.232-2.109,0.041c-3.567,2.678-7.22,5.404-7.409,9.85
    c-0.087,2.059-0.152,5.051,1.481,6.301c2.293,1.76,1.229,2.715,0.575,3.225c-2.468,1.924-5.235,3.68-8.526,3.711
    c-1.325-1.219-2.078-2.387-2.808-2.51c-3.874-0.637-8.047-1.688-11.552-1.342l19.148,14.443c-0.038-4.508,2.842-6.281,6.586-8.086
    c1.285-0.621,2.344-1.496,3.73-1.971c1.199-0.412,2.704-0.793,4.088-0.564c11.242,1.871,21.037-4.703,18.809-13.477
    c-0.903-3.561,0.203-5.561,3.033-7.324c1.433-0.893,2.471-2.135,3.922-3.004c0.818-0.488,2.16-0.969,3.205-0.734
    c12.147,2.709,22.693-7.469,17.686-17.447c-0.434-0.867-0.434-2.08,0.08-2.73c1.826-2.287,3.851-4.477,6.061-6.521
    c0.609-0.564,2.146-0.875,3.241-0.664c12.541,2.398,21.638-8.629,16.46-17.637c-0.516-0.898-0.904-2.16-0.482-2.822
    c1.606-2.512,3.453-4.916,5.484-7.199C605.184,183.676,606.615,183.412,607.756,183.412z M618.027,176.15
    c-0.488,2.854-2.824,4.404-6.897,4.535C613.426,179.176,615.727,177.664,618.027,176.15z M593.856,166.256
    c2.564-5.354,6.912-8.303,14.723-7.928c-2.729,0.83-5.782,1.348-8.093,2.578C598.071,162.193,596.375,164.164,593.856,166.256z
     M571.783,195.375c0.279-4.783,8.771-9.494,15.285-7.15C579.775,188.502,575.063,190.918,571.783,195.375z M537.457,242.043
    c0.593,0.25,1.186,0.498,1.781,0.748c-0.288,1.045-0.512,2.115-0.982,3.084c-0.036,0.08-1.73-0.543-2.65-0.84
    C536.221,244.039,536.84,243.039,537.457,242.043z M519.963,250.904c0.106-4.057,4.871-7.521,10.66-7.744
    c2.54,4.674,4.836,6.377,9.916,7.344c1.08,5.693-4.295,10.381-10.576,9.215C529.134,255.119,526.713,252.982,519.963,250.904z
     M541.146,257.014c-1.103,3.264-4.848,5.553-8.586,5.072C535.445,260.381,538.382,258.646,541.146,257.014z M569.346,233.09
    c-1.873,3-4.492,4.918-9.9,4.84C562.988,236.195,566.041,234.703,569.346,233.09z M560.506,235.15
    c-1.814-4.916-6.015-8.4-11.203-7.162c-2.044-4.203,2.242-8.969,8.642-9.611c1.08,3.602,6.625,7.342,11.46,6.607
    C570.623,230.48,566.484,235.209,560.506,235.15z M597.237,202.695c-0.508,3.904-4.618,7.115-9.478,7.232
    C590.894,207.537,594.395,204.865,597.237,202.695z M585.227,207.611c-0.498-3.99-6.056-6.604-10.398-6.701
    c-1.54-4.813,2.81-9.486,8.652-10.021c1.666,1.814,2.816,3.746,4.686,4.906c1.93,1.195,4.555,1.641,7.238,2.533
    C596.936,203.492,592.114,208.291,585.227,207.611z M598.415,172.744c-2.839-4.719,0.777-9.975,7.774-11.293
    c2.48,4.568,6.705,6.896,11.795,6.506c1.488,5.748-2.485,10.803-8.442,10.744C607.705,174.752,603.636,172.576,598.415,172.744z"/>
  <g>
    <polygon fill-rule="evenodd" clip-rule="evenodd" fill="#FFEB08" points="99.739,243.854 116.948,188.885 149.471,202.016 
      546.531,191.303 526.209,295.244 166.596,286.605 162.892,291.215 93.425,288.059    "/>
    <polyline fill-rule="evenodd" clip-rule="evenodd" fill="#FFFFFF" points="526.209,295.244 531.735,291.299 548.109,253.664 
      559.16,242.611 547.264,194.283 546.531,191.303    "/>
    <polygon fill-rule="evenodd" clip-rule="evenodd" fill="#FFFFFF" points="96.101,260.107 162.382,280.416 170.456,293.336 
      91.146,289.174    "/>
  </g>
  <g>
    <path d="M167.891,252.299l-1.62,11.742c-0.135,0.675-0.675,1.147-1.282,1.147h-9.65c-0.607,0-1.08-0.473-0.945-1.147l6.141-43.663
      c0.068-0.675,0.607-1.147,1.215-1.147h12.146c4.725,0,9.718,0.404,13.699,2.699c4.589,2.564,7.289,7.02,7.289,13.768
      c0,4.791-1.688,9.246-5.602,12.35c-3.374,2.632-8.233,4.252-15.049,4.252H167.891z M169.375,241.905h6.681
      c2.024,0,3.847-0.606,5.129-1.821c1.08-1.147,1.822-2.699,1.822-4.725c0-2.092-0.607-3.576-1.89-4.521
      c-1.08-0.81-2.632-1.215-4.657-1.215h-5.331L169.375,241.905z"/>
    <path fill="#E42326" d="M157.848,261.926l5.58-40h10.468c3.806,0,8.625,0.482,12.13,2.503c3.858,2.156,5.715,5.874,5.715,11.156
      c0,2.915-0.765,6.937-4.412,9.829c-3.031,2.363-7.444,3.512-13.096,3.512h-9.082l-1.779,13H157.848z M165.75,244.926h10.305
      c2.876,0,5.465-0.892,7.291-2.623l0.127-0.097c1.751-1.859,2.676-4.224,2.676-6.862c0-3.129-1.065-5.771-3.167-7.32
      c-1.611-1.208-3.812-2.098-6.522-2.098h-8.056L165.75,244.926z"/>
    <path d="M234.293,243.525c-1.552,2.227-3.644,3.779-6.074,4.925l6.681,15.185c0.337,0.743,0.203,1.554-0.675,1.554h-10.393
      c-0.54,0-1.349-0.271-1.754-1.147l-5.668-13.835h-4.792l-1.89,13.835c-0.134,0.742-0.742,1.147-1.35,1.147h-9.582
      c-0.607,0-1.08-0.405-0.945-1.147l6.074-43.596c0.135-0.742,0.607-1.215,1.282-1.215h13.902c5.602,0,9.785,1.351,12.687,3.51
      c3.645,2.631,5.264,6.613,5.264,10.865C237.061,237.722,236.048,241.029,234.293,243.525z M223.833,230.568
      c-1.146-0.945-2.699-1.282-4.318-1.282h-4.927l-1.552,10.933h5.804c2.025,0,3.779-0.473,4.994-1.621
      c1.013-0.876,1.62-2.227,1.62-4.048C225.453,232.593,224.846,231.379,223.833,230.568z"/>
    <path fill="#E42326" d="M224.658,261.926l-6.139-15h-9.643l-2.046,15h-5.526l5.527-40h12.279c4.534,0,8.272,1.223,10.811,3.112
      c3.31,2.39,3.997,5.966,3.997,8.455c0,3.311-0.739,6.095-2.196,8.169c-1.124,1.611-2.706,2.909-4.843,3.917l-2.769,1.261
      l6.658,15.086H224.658z M209.415,242.926h9.424c2.977,0,5.366-0.601,7.104-2.215c1.223-1.079,2.653-2.943,2.653-6.271
      c0-2.783-0.942-5.003-2.799-6.489c-1.576-1.299-3.701-2.025-6.282-2.025h-7.655L209.415,242.926z"/>
    <path d="M252.445,264.041c-0.135,0.675-0.675,1.147-1.282,1.147h-9.65c-0.608,0-1.012-0.473-0.945-1.147l6.141-43.663
      c0.067-0.675,0.607-1.147,1.214-1.147h9.718c0.607,0,1.012,0.473,0.945,1.147L252.445,264.041z"/>
    <polygon fill="#E42326" points="244.023,261.926 249.603,221.926 255.132,221.926 249.552,261.926     "/>
    <path d="M295.364,220.445c0.068-0.675,0.674-1.215,1.35-1.215h8.841c0.675,0,1.08,0.54,1.012,1.215l-6.142,43.527
      c-0.067,0.676-0.674,1.216-1.35,1.216h-8.098c-0.944,0-1.485-0.202-2.025-1.216l-12.89-24.902l-3.441,24.902
      c-0.135,0.811-0.674,1.216-1.349,1.216h-8.909c-0.675,0-1.08-0.405-0.944-1.216l6.073-43.527c0.135-0.811,0.675-1.215,1.35-1.215
      h8.233c1.08,0,1.552,0.338,1.957,1.215l12.822,24.902L295.364,220.445z"/>
    <polygon fill="#E42326" points="291.499,261.926 274.305,228.717 269.716,261.926 264.861,261.926 270.397,221.926 
      276.491,221.926 293.588,255.13 298.266,221.926 303.121,221.926 297.523,261.926    "/>
    <path d="M310.683,243.863c0-13.768,10.797-25.24,26.926-25.24c4.927,0,9.043,0.878,12.012,2.43
      c0.743,0.405,0.675,1.013,0.337,1.553l-4.386,7.828c-0.405,0.607-0.81,0.742-1.552,0.473c-2.159-0.811-4.454-1.553-7.491-1.553
      c-8.57,0-13.362,6.883-13.362,13.834c0,7.086,4.319,11.877,11.136,11.877c3.306,0,5.533-0.606,7.963-1.619
      c0.742-0.27,1.08-0.27,1.349,0.405l3.105,7.964c0.202,0.675,0,1.146-0.675,1.483c-3.915,1.755-7.761,2.565-12.755,2.565
      C321.143,265.863,310.683,259.248,310.683,243.863z"/>
    <path fill="#E42326" d="M333.29,262.72c-5.852,0-19.464-1.837-19.464-18.856c0-12.804,10.002-22.097,23.783-22.097
      c3.289,0,6.192,0.417,8.536,1.216l-2.495,4.452c-1.946-0.654-4.25-1.224-7.121-1.224c-10.72,0-16.505,8.746-16.505,16.977
      c0,8.844,5.872,15.021,14.279,15.021c3.028,0,5.295-0.479,7.203-1.116l1.57,4.029C340.074,262.234,337.048,262.72,333.29,262.72z"
      />
    <path d="M363.386,264.041c-0.135,0.675-0.675,1.147-1.282,1.147h-9.65c-0.607,0-1.012-0.473-0.945-1.147l6.141-43.663
      c0.067-0.675,0.607-1.147,1.214-1.147h9.718c0.607,0,1.012,0.473,0.945,1.147L363.386,264.041z"/>
    <polygon fill="#E42326" points="354.963,261.926 360.543,221.926 366.073,221.926 360.493,261.926     "/>
    <path d="M385.857,252.299l-1.619,11.742c-0.136,0.675-0.675,1.147-1.283,1.147h-9.65c-0.608,0-1.081-0.473-0.945-1.147
      l6.142-43.663c0.067-0.675,0.607-1.147,1.214-1.147h12.147c4.724,0,9.718,0.404,13.699,2.699c4.589,2.564,7.289,7.02,7.289,13.768
      c0,4.791-1.688,9.246-5.602,12.35c-3.375,2.632-8.232,4.252-15.05,4.252H385.857z M387.342,241.905h6.681
      c2.024,0,3.847-0.606,5.13-1.821c1.079-1.147,1.821-2.699,1.821-4.725c0-2.092-0.607-3.576-1.89-4.521
      c-1.08-0.81-2.631-1.215-4.656-1.215h-5.331L387.342,241.905z"/>
    <path fill="#E42326" d="M375.815,261.926l5.581-40h10.468c3.807,0,8.625,0.482,12.131,2.503c3.856,2.156,5.714,5.875,5.714,11.156
      c0,2.916-0.766,6.937-4.411,9.829c-3.031,2.363-7.444,3.512-13.097,3.512h-9.083l-1.777,13H375.815z M383.718,244.926h10.305
      c2.876,0,5.466-0.892,7.292-2.623l0.126-0.097c1.751-1.859,2.677-4.222,2.677-6.862c0-3.129-1.066-5.771-3.168-7.321
      c-1.609-1.207-3.811-2.097-6.521-2.097h-8.057L383.718,244.926z"/>
    <path d="M424.727,264.041c-0.27,0.607-0.675,1.147-1.281,1.147h-10.934c-0.606,0-0.877-0.54-0.606-1.147l19.436-43.865
      c0.27-0.607,0.606-1.146,1.282-1.146h12.619c0.607,0,1.079,0.539,1.147,1.146l8.57,43.865c0.067,0.607-0.405,1.147-1.08,1.147
      h-10.122c-0.675,0-0.877-0.54-0.945-1.147l-1.146-7.154h-14.105L424.727,264.041z M437.481,231.445l-6.208,15.927h8.84
      L437.481,231.445z"/>
    <polygon fill="#E42326" points="445.676,261.926 444.344,253.926 425.426,253.926 422.137,261.926 416.227,261.926 
      433.894,221.926 437.723,221.926 426.675,249.926 443.818,249.926 439.135,221.926 443.577,221.926 451.368,261.926     "/>
    <path d="M488.836,254.66c0.54,0,1.012,0.473,0.877,1.08l-1.146,8.301c-0.068,0.675-0.607,1.147-1.215,1.147h-26.859
      c-0.607,0-1.08-0.54-0.944-1.147l6.142-43.663c0.066-0.675,0.606-1.147,1.214-1.147h9.718c0.607,0,1.012,0.473,0.945,1.147
      l-4.859,34.282H488.836z"/>
    <polygon fill="#E42326" points="463.002,261.926 468.582,221.926 474.109,221.926 469.088,257.926 486.255,257.926 
      485.669,261.926     "/>
    <path d="M506.719,264.041c-0.136,0.675-0.676,1.147-1.283,1.147h-9.65c-0.606,0-1.012-0.473-0.944-1.147l6.141-43.663
      c0.067-0.675,0.607-1.147,1.216-1.147h9.717c0.607,0,1.013,0.473,0.945,1.147L506.719,264.041z"/>
    <polygon fill="#E42326" points="498.295,261.926 503.875,221.926 509.404,221.926 503.825,261.926     "/>
  </g>
  <g>
    <path fill="#FFFFFF" d="M104.573,53.033c-7.946,12.34-14.37,23.329-21.47,36.177c-4.227,7.607-8.453,15.383-12.172,22.822
      c-4.733,9.467-10.143,18.427-14.876,27.555c6.593-1.352,16.398-2.704,21.47-2.704c3.55,0.338,5.409,0.506,8.114,1.521
      c3.043,1.184,4.227,3.889,5.579,6.763c0,0.168,0.169,0.168,0.169,0.338c0.507,0.676,1.183,3.042,1.183,4.902
      c0,0.676-0.168,1.353-0.337,1.859c-1.183,2.536-5.41,3.551-8.283,3.551h-1.183c1.014-1.015,2.366-1.859,2.536-4.058
      c-0.846-0.338-1.691-0.507-2.536-0.507c-0.846,0-1.691,0.169-2.367,0.169c-5.241,0.845-11.665,1.859-16.567,3.719
      c-4.902,1.859-9.467,4.058-14.201,6.763c-1.521,0.845-3.381,1.69-4.733,2.535c-0.676,0.507-1.522,0.169-2.367,0.507
      c-0.507,0.169-1.183,0.339-1.86,0.339c-1.352,0-2.705-0.339-3.549-0.677c-1.86-1.014-3.551-4.396-4.733-6.593l-0.338-0.507
      c-0.845-1.69-3.381-4.733-3.381-7.945c0-0.339,0.169-0.677,0.169-1.015c0.676-1.521,1.69-2.367,3.212-2.367
      c0.338,0,0.845,0,1.183,0.169c1.353-11.326,5.409-20.962,9.636-30.26c10.312-22.653,25.865-47.165,37.698-69.48l3.55-6.593
      c1.014-1.86,2.535-4.733,2.535-6.592V32.07c0-0.507,0-0.845,0.507-1.352c0.169-1.86,2.367-2.536,3.212-4.057h1.015
      c2.367,0,4.564,0.507,6.931,1.183c1.86,0.507,3.889,0.677,5.917,1.014c3.72,0.338,11.158,2.705,12.004,5.241
      c0.168,0.338,0.168,0.676,0.168,1.014c0,3.042-4.057,4.902-5.41,7.101c-1.014,1.521-2.197,3.55-3.211,5.41
      C106.771,49.145,105.587,51.173,104.573,53.033z"/>
    <path fill="#FFFFFF" d="M164.918,22.435c0.845,1.014,1.69,2.535,2.367,3.042c0.846,0.677,2.367,0.845,4.226,0.845
      c2.536,0,5.41-0.338,7.438-0.506c5.071-0.169,12.172-0.507,18.596-0.507c3.55,0,6.931,0.168,9.636,0.338
      c5.579,0.845,4.057,1.521,6.086,4.395c0.337,0.338,1.014,1.184,1.014,2.029c-4.226,4.564-18.764,7.27-25.02,8.453
      c-6.931,1.184-11.665,2.198-15.045,2.367c-1.69,2.536-5.071,9.298-6.255,11.833c-3.718,7.776-7.776,15.721-11.665,22.991
      c1.184,0.168,4.058,0.168,7.27,0.168c4.565,0,9.974-0.168,12.51-0.506c4.902-0.676,6.085-1.014,8.621-1.859
      c0.507-0.169,1.015-0.507,1.522-0.507c0.168,0,0.337,0.168,0.507,0.168c0,1.184-1.014,1.522-1.522,2.705
      c0,3.889-3.212,6.425-5.917,8.622l-0.507,0.507c-5.747,4.058-24.174,6.932-32.289,7.438c-3.211,4.396-6.085,9.805-8.791,15.553
      c-5.409,9.805-10.312,20.286-15.722,30.429c7.439-0.337,15.892-2.029,23.161-2.029c6.254,0,11.665,1.353,15.383,5.749
      c0.846,1.014,1.184,1.69,1.184,2.366s-0.508,1.184-1.522,1.69c-1.521,0.676-3.718,0.845-6.761,1.86
      c-6.086,2.367-7.776,3.551-15.553,5.916c-7.438,2.367-9.129,3.213-21.47,7.608c-0.169,0-0.338,0.169-0.507,0.169
      c-1.691,0.676-3.719,1.352-5.071,1.352h-0.338c-1.691,0-2.199-1.352-3.719-1.858c-0.508-2.367-1.184-2.705-2.705-3.551
      c-0.846-0.507-1.691-1.183-2.705-1.69c-3.212-2.197-4.902-5.24-4.902-10.312c0-1.353,0.169-2.705,0.338-4.396
      c0.845-5.579,3.211-10.819,5.578-15.722c6.931-14.2,13.355-28.4,20.455-42.431c7.101-14.201,15.046-27.048,22.146-40.91
      c1.353-2.198,2.536-4.565,3.719-6.931c1.183-2.367,2.705-4.734,3.55-7.101c0.339-0.845,0.508-1.859,0.508-2.705v-0.507
      c0-0.677-0.508-1.015-0.846-1.522c0.507-1.183,1.691-1.521,3.043-1.521c1.522,0,3.212,0.338,4.564,0.506
      c0.845-1.689,1.353-4.057,2.705-4.902C163.735,19.56,164.411,21.42,164.918,22.435z"/>
    <path fill="#FFFFFF" d="M252.65,118.625c0.676,9.128,1.691,14.708,2.536,19.271c0,0.507,0.169,0.845,0.169,1.353
      c0.675,3.55,1.183,6.931,2.705,9.974c2.028-1.183,3.042-3.043,3.38-6.085c1.353,0.507,2.536,1.184,3.212,2.367
      c0.169,2.367,0.508,4.733,1.522,6.594c-0.169,0.338-0.169,0.845-0.169,1.182c0,1.184,0.338,2.199,0.338,3.044
      c0,0.507-0.169,0.845-0.338,1.353c-0.169,1.015-1.353,1.689-1.353,2.874v0.338c-1.014,2.536-3.212,2.197-4.226,2.536
      c-1.015,0.338-2.536,0.338-3.889,0.338c-2.367,0-5.071-0.846-6.762-1.691c-8.114-4.057-12.848-13.017-15.215-22.145
      c-2.029-7.27-3.381-15.046-4.227-23.16c-0.338-2.705,0-5.579-0.845-7.945c-1.183,0.675-1.521,1.859-2.028,2.874
      c-4.058,6.592-7.101,13.862-10.989,20.792c-1.183,2.029-2.535,4.057-3.381,6.085c-1.014,2.029-2.705,3.72-3.719,5.58
      c-3.551,4.902-5.579,10.65-10.313,14.539c-2.198,2.366-5.072,3.888-7.438,5.747c-1.014-0.168-1.352-0.676-2.367-0.845
      c-0.507,0-1.014,0.337-1.521,0.337c-0.676-0.168-2.367-1.859-2.705-2.366c-0.845-1.183-1.86-2.704-1.86-3.888
      c-0.169-0.677-0.169-1.353-0.169-2.029c0-5.24,2.705-10.312,4.903-14.538c7.1-14.707,13.862-29.414,21.638-43.107
      c10.988-19.611,21.639-37.868,30.937-57.14c-0.676-0.507-0.846-1.352-0.846-2.197c0-1.859,1.015-3.889,2.198-5.071H242
      c0.507,0,0.338,0.507,0.846,0.675c1.183-1.183,2.367-2.366,3.888-3.211h0.507c1.521,0,2.536,1.014,3.888,1.183
      c1.69,0,5.241-1.352,6.932-2.029c6.592-2.028,14.707-3.549,22.484-3.549c6.255,0,12.34,1.015,17.243,3.549
      c4.565,2.198,8.284,5.241,9.974,9.129c1.015,2.536,1.859,5.578,1.859,8.791c0,2.874-0.676,5.917-2.029,9.128l-0.507,0.846
      c-2.197,4.057-4.564,8.283-7.776,11.496c-8.622,8.621-17.919,15.215-27.387,21.3c-2.874,1.86-5.579,4.227-8.622,5.748
      c-2.874,1.69-8.791,4.903-11.833,6.763C251.805,109.158,251.975,109.665,252.65,118.625z M266.174,47.285
      c-1.184,0.676-3.212,1.521-4.057,2.198c-0.845,1.014-8.453,11.158-9.467,12.678c-0.845,2.029-2.535,4.227-4.057,6.425
      c-0.507,1.183-0.845,2.366-1.521,3.55l-2.366,3.212c-0.338,0.845-0.677,1.859-1.184,2.535c-0.845,1.691-0.676,0.846-1.522,2.367
      c-2.535,4.903-6.931,11.157-9.636,15.891c8.453-3.212,17.92-7.776,28.063-14.37c17.919-11.665,31.274-27.217,31.274-36.684
      c0-1.859-2.874-2.367-6.085-2.367c-1.859,0-3.719,0.169-5.071,0.337C275.303,43.565,270.4,45.425,266.174,47.285z"/>
    <path fill="#FFFFFF" d="M341.565,22.435c0.845,1.014,1.69,2.535,2.367,3.042c0.845,0.677,2.367,0.845,4.227,0.845
      c2.535,0,5.409-0.338,7.438-0.506c5.072-0.169,12.172-0.507,18.596-0.507c3.55,0,6.932,0.168,9.636,0.338
      c5.578,0.845,4.057,1.521,6.086,4.395c0.338,0.338,1.014,1.184,1.014,2.029c-4.226,4.564-18.765,7.27-25.019,8.453
      c-6.931,1.184-11.665,2.198-15.045,2.367c-1.69,2.536-5.072,9.298-6.255,11.833c-3.719,7.776-7.776,15.721-11.664,22.991
      c1.183,0.168,4.057,0.168,7.27,0.168c4.563,0,9.973-0.168,12.509-0.506c4.903-0.676,6.086-1.014,8.622-1.859
      c0.508-0.169,1.015-0.507,1.522-0.507c0.169,0,0.338,0.168,0.507,0.168c0,1.184-1.014,1.522-1.521,2.705
      c0,3.889-3.213,6.425-5.917,8.622l-0.507,0.507c-5.748,4.058-24.174,6.932-32.289,7.438c-3.212,4.396-6.085,9.805-8.79,15.553
      c-5.41,9.805-10.313,20.286-15.722,30.429c7.438-0.337,15.891-2.029,23.16-2.029c6.255,0,11.665,1.353,15.384,5.749
      c0.845,1.014,1.184,1.69,1.184,2.366s-0.507,1.184-1.522,1.69c-1.521,0.676-3.719,0.845-6.762,1.86
      c-6.085,2.367-7.776,3.551-15.553,5.916c-7.438,2.367-9.128,3.213-21.47,7.608c-0.169,0-0.337,0.169-0.507,0.169
      c-1.69,0.676-3.719,1.352-5.071,1.352h-0.338c-1.69,0-2.197-1.352-3.718-1.858c-0.508-2.367-1.184-2.705-2.705-3.551
      c-0.846-0.507-1.69-1.183-2.705-1.69c-3.212-2.197-4.903-5.24-4.903-10.312c0-1.353,0.169-2.705,0.337-4.396
      c0.845-5.579,3.213-10.819,5.58-15.722c6.93-14.2,13.355-28.4,20.455-42.431c7.1-14.201,15.045-27.048,22.146-40.91
      c1.352-2.198,2.535-4.565,3.718-6.931c1.184-2.367,2.705-4.734,3.55-7.101c0.338-0.845,0.508-1.859,0.508-2.705v-0.507
      c0-0.677-0.508-1.015-0.846-1.522c0.507-1.183,1.691-1.521,3.042-1.521c1.521,0,3.213,0.338,4.564,0.506
      c0.845-1.689,1.353-4.057,2.705-4.902C340.382,19.56,341.058,21.42,341.565,22.435z"/>
    <path fill="#FFFFFF" d="M417.466,73.318c1.354,0.677,2.706,0.846,3.889,0.846c6.255,0,10.481-7.269,13.524-13.017
      c2.366-4.564,5.24-10.481,6.593-14.708c0.507-1.352,0.677-2.705,0.677-3.719c0-2.198-0.846-3.719-2.029-3.888h-0.507
      c-1.521,0-3.382,1.352-4.226,1.858c-10.145,6.763-19.61,17.413-27.218,26.542c-2.705,3.211-5.41,6.255-7.607,9.636
      c-7.271,10.988-14.031,22.146-18.934,33.472c-3.381,7.776-5.41,14.708-7.27,21.808c-0.845,3.38-1.521,7.946-1.521,12.172
      c0,2.197,0.169,4.057,0.676,5.748c0.507,2.029,0.845,3.551,3.042,3.551c0.339,0,0.845,0,1.353-0.17
      c3.043-0.507,7.438-3.55,9.805-5.41c3.042-2.536,6.593-4.902,9.128-7.1c4.227-3.381,6.425-5.917,10.481-11.158
      c2.028-2.536,4.733-6.593,5.579-9.128c-5.748-0.507-8.453-2.367-11.496-5.748c-0.507-0.676-0.845-1.522-1.352-2.367
      c-1.354-1.522-2.705-2.705-3.213-4.396c-0.338-1.014-0.338-2.367-0.846-3.38c-0.168-0.338-1.014-0.845-1.014-1.522v-0.337
      c0.338-0.677,2.367-0.677,3.043-0.677c3.889,0.507,7.27,2.367,10.988,3.043c0.846,0.338,1.521,0.676,2.705,0.676h1.014
      c2.874,0,6.256-0.507,9.299-0.845c3.719-0.507,7.1-0.676,10.48-0.845c3.55-0.338,6.256-0.845,9.298-0.845
      c2.705,0,5.409-0.507,7.945-0.507h1.522c1.352,0.168,1.859,0.507,1.859,1.183c0,0.338,0,0.676-0.17,1.183
      c-0.169,0.676-0.338,1.353-0.338,1.691c-0.676,1.521-2.535,2.535-4.057,3.888c-0.846,1.521-1.184,1.691-2.367,2.367
      c-0.169,0-0.169,0.169-0.338,0.338c-3.043,2.198-2.367,2.874-6.932,4.227c-3.719,5.579-4.564,6.254-6.424,9.466
      c-3.212,5.41-6.424,9.975-9.636,15.215c-2.366,3.719-5.241,7.945-7.438,11.158c-4.732,7.775-9.297,12.848-12.848,21.469
      c-0.338,0.845-1.184,2.367-1.353,4.733c0,0.338-0.507,0.507-1.014,0.507c-1.69,0-5.41-2.028-6.593-5.578
      c-0.508-1.353-0.678-3.212-0.678-5.072c0-3.719,0.678-7.775,1.015-10.65c-5.071,2.705-10.988,5.242-16.905,5.242
      c-1.353,0-2.536,0-3.888-0.34c-4.058-0.845-6.256-2.704-8.622-5.239c-1.183-1.184-2.367-2.198-3.38-3.382
      c-4.058-4.902-6.255-11.327-6.425-20.117l0.338-6.424c0.507-9.805,3.381-19.103,6.424-27.386
      c3.043-8.114,6.594-15.891,10.65-23.16c6.255-10.819,8.959-15.553,16.736-24.681c4.395-5.748,9.637-10.819,14.877-15.045
      c5.24-4.734,12.172-8.791,17.75-10.144c2.705-0.845,5.917-1.015,8.791-1.859h1.353c7.606,0,19.103,7.607,24.343,11.495
      c2.367,2.367,4.058,5.071,4.058,9.13c0,1.014-0.169,2.197-0.338,3.38c-0.339,1.691-0.339,3.381-0.676,5.072
      c-1.354,5.41-3.212,9.466-6.425,14.875c-4.057,6.932-10.48,15.723-18.427,15.723c-6.424,0-12.509-4.058-15.383-8.284v-0.337
      c0-2.028-1.354-3.381-1.354-4.058V73.318z"/>
    <path fill="#FFFFFF" d="M529.205,28.182c1.859-0.338,3.211-1.183,4.902-1.86c-0.846-1.353-2.874-2.028-4.564-2.535
      c1.69-0.676,3.719-0.507,5.578-0.845c0.507,0,0.846-0.169,1.353-0.169c1.69,0,3.212,0.507,4.057,1.183
      c0.508,0.506,2.367,1.86,3.044,2.874c1.353,2.029,4.057,3.55,5.071,6.594c0.845,2.197,1.859,5.578,1.859,8.621v0.676
      c0.169,0.169,0.169,0.507,0.169,0.676c0,0.507-0.169,1.014-0.169,1.69c0,6.086,0,11.327-1.184,16.736
      c-1.183,5.409-2.704,10.48-4.395,15.891c-1.691,5.071-3.55,9.805-5.748,14.369c-2.197,4.395-4.058,9.129-6.593,13.355
      c-2.367,4.057-4.734,8.284-7.777,12.341c-2.535,3.888-5.409,7.945-7.945,11.495c-7.945,10.481-12.51,16.229-22.483,24.004
      c-2.028,1.354-3.55,3.213-5.24,4.734c-3.043,2.536-6.931,4.396-10.65,6.086c-2.367,0.845-7.607,1.521-11.833,1.521
      c-1.86,0-3.551-0.17-4.565-0.508l-3.042-0.844c-5.41-2.199-8.284-8.115-9.636-13.525c-0.508-2.705-0.677-5.917-0.677-9.298
      c0-4.058,0.338-8.622,0.846-13.017c1.689-14.539,6.762-27.556,12.678-38.375c10.481-19.272,22.314-37.867,37.53-51.899
      c1.184-1.183,2.028-2.197,3.212-3.042c3.381-2.367,5.408-4.903,8.791-6.424l1.352-0.338c0.846-0.169,1.691-0.845,2.367-0.845
      c0.338,0,0.844-0.169,1.184-0.169c3.381,0,7.944,2.367,10.65,2.874C528.19,29.704,528.697,28.858,529.205,28.182z M510.271,67.74
      c-6.931,7.1-13.186,14.876-18.596,22.822c-5.578,7.946-10.65,16.567-15.383,26.372c-2.198,4.565-4.565,9.468-5.918,15.046
      c-1.689,4.734-4.057,11.495-4.057,17.074c0,2.198,0.339,4.396,1.353,6.086c5.409-0.846,9.805-4.057,13.693-7.607
      c3.72-3.043,7.1-6.931,10.48-10.989c5.916-6.931,11.326-14.708,16.736-22.484l1.521-2.197c2.873-4.057,5.748-8.622,8.621-13.017
      c2.705-4.733,4.734-9.467,6.932-14.708c3.719-10.988,9.467-20.455,9.467-32.458v-2.197h-0.169
      c-4.564,2.028-9.805,5.071-13.862,8.453C517.033,60.81,513.652,64.359,510.271,67.74z"/>
    <path fill="#FFFFFF" d="M599.02,53.033c-7.945,12.34-14.369,23.329-21.469,36.177c-4.227,7.607-8.453,15.383-12.172,22.822
      c-4.734,9.467-10.144,18.427-14.877,27.555c6.593-1.352,16.398-2.704,21.471-2.704c3.549,0.338,5.409,0.506,8.113,1.521
      c3.043,1.184,4.227,3.889,5.579,6.763c0,0.168,0.169,0.168,0.169,0.338c0.508,0.676,1.183,3.042,1.183,4.902
      c0,0.676-0.169,1.353-0.337,1.859c-1.184,2.536-5.41,3.551-8.284,3.551h-1.184c1.015-1.015,2.366-1.859,2.536-4.058
      c-0.846-0.338-1.691-0.507-2.536-0.507s-1.69,0.169-2.366,0.169c-5.24,0.845-11.664,1.859-16.566,3.719
      c-4.902,1.859-9.468,4.058-14.201,6.763c-1.521,0.845-3.381,1.69-4.732,2.535c-0.678,0.507-1.522,0.169-2.367,0.507
      c-0.508,0.169-1.184,0.339-1.86,0.339c-1.352,0-2.704-0.339-3.55-0.677c-1.859-1.014-3.551-4.396-4.733-6.593l-0.337-0.507
      c-0.848-1.69-3.382-4.733-3.382-7.945c0-0.339,0.169-0.677,0.169-1.015c0.676-1.521,1.69-2.367,3.213-2.367
      c0.337,0,0.844,0,1.182,0.169c1.354-11.326,5.41-20.962,9.637-30.26c10.313-22.653,25.865-47.165,37.698-69.48l3.55-6.593
      c1.014-1.86,2.536-4.733,2.536-6.592V32.07c0-0.507,0-0.845,0.507-1.352c0.17-1.86,2.367-2.536,3.212-4.057h1.015
      c2.367,0,4.564,0.507,6.931,1.183c1.86,0.507,3.888,0.677,5.917,1.014c3.719,0.338,11.158,2.705,12.003,5.241
      c0.169,0.338,0.169,0.676,0.169,1.014c0,3.042-4.058,4.902-5.41,7.101c-1.014,1.521-2.197,3.55-3.211,5.41
      C601.218,49.145,600.034,51.173,599.02,53.033z"/>
    <path fill="#FFFFFF" d="M659.365,22.435c0.846,1.014,1.691,2.535,2.367,3.042c0.846,0.677,2.367,0.845,4.226,0.845
      c2.536,0,5.41-0.338,7.438-0.506c5.072-0.169,12.172-0.507,18.596-0.507c3.55,0,6.932,0.168,9.636,0.338
      c5.578,0.845,4.058,1.521,6.087,4.395c0.338,0.338,1.015,1.184,1.015,2.029c-4.227,4.564-18.766,7.27-25.021,8.453
      c-6.932,1.184-11.664,2.198-15.045,2.367c-1.691,2.536-5.072,9.298-6.256,11.833c-3.719,7.776-7.776,15.721-11.664,22.991
      c1.184,0.168,4.057,0.168,7.27,0.168c4.564,0,9.974-0.168,12.51-0.506c4.902-0.676,6.085-1.014,8.621-1.859
      c0.508-0.169,1.015-0.507,1.521-0.507c0.169,0,0.338,0.168,0.507,0.168c0,1.184-1.014,1.522-1.521,2.705
      c0,3.889-3.213,6.425-5.918,8.622l-0.507,0.507c-5.747,4.058-24.174,6.932-32.289,7.438c-3.212,4.396-6.085,9.805-8.79,15.553
      c-5.41,9.805-10.313,20.286-15.722,30.429c7.438-0.337,15.892-2.029,23.16-2.029c6.255,0,11.664,1.353,15.384,5.749
      c0.846,1.014,1.183,1.69,1.183,2.366s-0.507,1.184-1.521,1.69c-1.521,0.676-3.718,0.845-6.762,1.86
      c-6.085,2.367-7.776,3.551-15.552,5.916c-7.439,2.367-9.13,3.213-21.471,7.608c-0.168,0-0.338,0.169-0.507,0.169
      c-1.691,0.676-3.72,1.352-5.071,1.352h-0.338c-1.691,0-2.198-1.352-3.72-1.858c-0.507-2.367-1.183-2.705-2.704-3.551
      c-0.846-0.507-1.691-1.183-2.705-1.69c-3.213-2.197-4.902-5.24-4.902-10.312c0-1.353,0.168-2.705,0.338-4.396
      c0.846-5.579,3.212-10.819,5.578-15.722c6.932-14.2,13.355-28.4,20.455-42.431c7.101-14.201,15.047-27.048,22.146-40.91
      c1.352-2.198,2.536-4.565,3.719-6.931c1.183-2.367,2.705-4.734,3.549-7.101c0.34-0.845,0.508-1.859,0.508-2.705v-0.507
      c0-0.677-0.508-1.015-0.845-1.522c0.507-1.183,1.69-1.521,3.043-1.521c1.522,0,3.212,0.338,4.564,0.506
      c0.845-1.689,1.353-4.057,2.705-4.902C658.183,19.56,658.858,21.42,659.365,22.435z"/>
  </g>
  <g>
    <path d="M112.602,48.005c-7.946,12.34-14.37,23.329-21.47,36.177c-4.227,7.607-8.453,15.383-12.172,22.822
      c-4.733,9.467-10.143,18.427-14.876,27.555c6.593-1.352,16.398-2.704,21.47-2.704c3.55,0.338,5.409,0.506,8.114,1.521
      c3.043,1.184,4.227,3.889,5.579,6.763c0,0.168,0.169,0.168,0.169,0.338c0.507,0.676,1.183,3.042,1.183,4.902
      c0,0.676-0.168,1.353-0.337,1.859c-1.183,2.536-5.41,3.551-8.283,3.551h-1.183c1.014-1.015,2.366-1.86,2.536-4.058
      c-0.846-0.338-1.691-0.507-2.536-0.507c-0.846,0-1.691,0.169-2.367,0.169c-5.241,0.845-11.665,1.859-16.567,3.719
      c-4.902,1.859-9.467,4.058-14.201,6.762c-1.521,0.846-3.381,1.691-4.733,2.536c-0.676,0.507-1.522,0.169-2.367,0.507
      c-0.507,0.17-1.183,0.338-1.86,0.338c-1.352,0-2.705-0.338-3.549-0.676c-1.86-1.014-3.551-4.396-4.733-6.593l-0.338-0.507
      c-0.845-1.69-3.381-4.734-3.381-7.945c0-0.339,0.169-0.677,0.169-1.015c0.676-1.521,1.69-2.367,3.212-2.367
      c0.338,0,0.845,0,1.183,0.169c1.353-11.326,5.409-20.962,9.636-30.26c10.312-22.653,25.865-47.165,37.698-69.48l3.55-6.593
      c1.014-1.86,2.535-4.733,2.535-6.592v-1.353c0-0.507,0-0.845,0.507-1.352c0.169-1.86,2.367-2.536,3.212-4.057h1.015
      c2.367,0,4.564,0.507,6.931,1.183c1.86,0.507,3.889,0.677,5.917,1.014c3.72,0.338,11.158,2.705,12.004,5.241
      c0.168,0.338,0.168,0.676,0.168,1.014c0,3.042-4.057,4.902-5.41,7.101c-1.014,1.521-2.197,3.55-3.211,5.41
      C114.799,44.116,113.615,46.145,112.602,48.005z"/>
    <path d="M172.946,17.406c0.845,1.014,1.69,2.535,2.367,3.042c0.846,0.677,2.367,0.845,4.226,0.845c2.536,0,5.41-0.338,7.438-0.506
      c5.071-0.169,12.172-0.507,18.596-0.507c3.55,0,6.931,0.168,9.636,0.338c5.579,0.845,4.057,1.521,6.086,4.395
      c0.337,0.338,1.014,1.184,1.014,2.029c-4.226,4.564-18.764,7.27-25.02,8.453c-6.931,1.184-11.665,2.198-15.045,2.367
      c-1.69,2.536-5.071,9.298-6.255,11.833c-3.718,7.776-7.776,15.721-11.665,22.991c1.184,0.168,4.058,0.168,7.27,0.168
      c4.565,0,9.974-0.168,12.51-0.506c4.902-0.676,6.085-1.014,8.621-1.859c0.507-0.169,1.015-0.507,1.522-0.507
      c0.168,0,0.337,0.168,0.507,0.168c0,1.184-1.014,1.522-1.522,2.705c0,3.889-3.212,6.425-5.917,8.622l-0.507,0.507
      c-5.747,4.058-24.174,6.932-32.289,7.438c-3.211,4.396-6.085,9.805-8.791,15.553c-5.409,9.805-10.312,20.286-15.722,30.429
      c7.439-0.337,15.892-2.029,23.161-2.029c6.254,0,11.665,1.353,15.383,5.749c0.846,1.014,1.184,1.69,1.184,2.366
      s-0.508,1.184-1.522,1.69c-1.521,0.676-3.718,0.845-6.761,1.86c-6.086,2.367-7.776,3.55-15.553,5.917
      c-7.438,2.368-9.129,3.212-21.47,7.608c-0.169,0-0.338,0.169-0.507,0.169c-1.691,0.676-3.719,1.353-5.071,1.353h-0.338
      c-1.691,0-2.199-1.353-3.719-1.859c-0.508-2.367-1.184-2.705-2.705-3.551c-0.846-0.507-1.691-1.184-2.705-1.69
      c-3.212-2.197-4.902-5.241-4.902-10.312c0-1.353,0.169-2.705,0.338-4.396c0.845-5.579,3.211-10.819,5.578-15.722
      c6.931-14.2,13.355-28.4,20.455-42.431c7.101-14.201,15.046-27.048,22.146-40.91c1.353-2.198,2.536-4.565,3.719-6.931
      c1.183-2.367,2.705-4.734,3.55-7.101c0.339-0.845,0.508-1.859,0.508-2.705v-0.507c0-0.677-0.508-1.015-0.846-1.522
      c0.507-1.183,1.691-1.521,3.043-1.521c1.522,0,3.212,0.338,4.564,0.506c0.845-1.689,1.353-4.057,2.705-4.902
      C171.763,14.532,172.439,16.392,172.946,17.406z"/>
    <path d="M260.678,113.597c0.676,9.128,1.691,14.708,2.536,19.271c0,0.507,0.169,0.845,0.169,1.353
      c0.675,3.55,1.183,6.931,2.705,9.974c2.028-1.183,3.042-3.043,3.38-6.085c1.353,0.507,2.536,1.184,3.212,2.367
      c0.169,2.367,0.508,4.733,1.522,6.593c-0.169,0.338-0.169,0.845-0.169,1.183c0,1.184,0.338,2.199,0.338,3.043
      c0,0.507-0.169,0.845-0.338,1.353c-0.169,1.015-1.353,1.69-1.353,2.874v0.338c-1.014,2.535-3.212,2.197-4.226,2.535
      c-1.015,0.339-2.536,0.339-3.889,0.339c-2.367,0-5.071-0.845-6.762-1.691c-8.114-4.057-12.848-13.017-15.215-22.145
      c-2.029-7.27-3.381-15.046-4.227-23.16c-0.338-2.705,0-5.579-0.845-7.945c-1.183,0.675-1.521,1.859-2.028,2.874
      c-4.058,6.592-7.101,13.862-10.989,20.792c-1.183,2.029-2.535,4.057-3.381,6.085c-1.014,2.029-2.705,3.72-3.719,5.58
      c-3.551,4.902-5.579,10.65-10.313,14.539c-2.198,2.366-5.072,3.887-7.438,5.747c-1.014-0.169-1.352-0.676-2.367-0.845
      c-0.507,0-1.014,0.338-1.521,0.338c-0.676-0.169-2.367-1.86-2.705-2.367c-0.845-1.183-1.86-2.705-1.86-3.888
      c-0.169-0.677-0.169-1.353-0.169-2.029c0-5.241,2.705-10.313,4.903-14.539c7.1-14.707,13.862-29.414,21.638-43.107
      c10.988-19.611,21.639-37.868,30.937-57.14c-0.676-0.507-0.846-1.352-0.846-2.197c0-1.859,1.015-3.889,2.198-5.071h0.168
      c0.507,0,0.338,0.507,0.846,0.675c1.183-1.183,2.367-2.366,3.888-3.211h0.507c1.521,0,2.536,1.014,3.888,1.183
      c1.69,0,5.241-1.352,6.932-2.029c6.592-2.028,14.707-3.549,22.484-3.549c6.255,0,12.34,1.015,17.243,3.549
      c4.565,2.198,8.284,5.241,9.974,9.129c1.015,2.536,1.859,5.578,1.859,8.791c0,2.874-0.676,5.917-2.029,9.128l-0.507,0.846
      c-2.197,4.057-4.564,8.283-7.776,11.496c-8.622,8.621-17.919,15.215-27.387,21.3c-2.874,1.86-5.579,4.227-8.622,5.748
      c-2.874,1.69-8.791,4.903-11.833,6.763C259.833,104.129,260.003,104.637,260.678,113.597z M274.203,42.257
      c-1.184,0.676-3.212,1.521-4.057,2.198c-0.845,1.014-8.453,11.158-9.467,12.678c-0.845,2.029-2.535,4.227-4.057,6.425
      c-0.507,1.183-0.845,2.366-1.521,3.55l-2.366,3.212c-0.338,0.845-0.677,1.859-1.184,2.535c-0.845,1.691-0.676,0.846-1.522,2.367
      c-2.535,4.903-6.931,11.157-9.636,15.891c8.453-3.212,17.92-7.776,28.063-14.37c17.919-11.665,31.274-27.217,31.274-36.684
      c0-1.859-2.874-2.367-6.085-2.367c-1.859,0-3.719,0.169-5.071,0.337C283.331,38.537,278.428,40.397,274.203,42.257z"/>
    <path d="M349.594,17.406c0.845,1.014,1.69,2.535,2.367,3.042c0.845,0.677,2.367,0.845,4.227,0.845
      c2.535,0,5.409-0.338,7.438-0.506c5.072-0.169,12.172-0.507,18.596-0.507c3.55,0,6.932,0.168,9.636,0.338
      c5.579,0.845,4.057,1.521,6.086,4.395c0.338,0.338,1.014,1.184,1.014,2.029c-4.226,4.564-18.765,7.27-25.019,8.453
      c-6.931,1.184-11.665,2.198-15.045,2.367c-1.69,2.536-5.072,9.298-6.255,11.833c-3.719,7.776-7.776,15.721-11.664,22.991
      c1.183,0.168,4.057,0.168,7.27,0.168c4.563,0,9.973-0.168,12.509-0.506c4.903-0.676,6.086-1.014,8.622-1.859
      c0.508-0.169,1.015-0.507,1.522-0.507c0.169,0,0.338,0.168,0.507,0.168c0,1.184-1.014,1.522-1.521,2.705
      c0,3.889-3.213,6.425-5.917,8.622l-0.507,0.507c-5.748,4.058-24.174,6.932-32.289,7.438c-3.212,4.396-6.085,9.805-8.79,15.553
      c-5.41,9.805-10.313,20.286-15.722,30.429c7.438-0.337,15.891-2.029,23.16-2.029c6.255,0,11.665,1.353,15.384,5.749
      c0.845,1.014,1.184,1.69,1.184,2.366s-0.507,1.184-1.522,1.69c-1.521,0.676-3.719,0.845-6.762,1.86
      c-6.085,2.367-7.776,3.55-15.553,5.917c-7.438,2.368-9.128,3.212-21.47,7.608c-0.169,0-0.337,0.169-0.507,0.169
      c-1.69,0.676-3.719,1.353-5.071,1.353h-0.338c-1.69,0-2.197-1.353-3.718-1.859c-0.508-2.367-1.184-2.705-2.705-3.551
      c-0.846-0.507-1.69-1.184-2.705-1.69c-3.212-2.197-4.903-5.241-4.903-10.312c0-1.353,0.169-2.705,0.337-4.396
      c0.845-5.579,3.213-10.819,5.58-15.722c6.93-14.2,13.355-28.4,20.455-42.431c7.1-14.201,15.045-27.048,22.146-40.91
      c1.352-2.198,2.535-4.565,3.718-6.931c1.184-2.367,2.705-4.734,3.55-7.101c0.338-0.845,0.508-1.859,0.508-2.705v-0.507
      c0-0.677-0.508-1.015-0.846-1.522c0.507-1.183,1.691-1.521,3.042-1.521c1.521,0,3.213,0.338,4.564,0.506
      c0.845-1.689,1.353-4.057,2.705-4.902C348.41,14.532,349.086,16.392,349.594,17.406z"/>
    <path d="M425.494,68.29c1.354,0.677,2.705,0.846,3.889,0.846c6.255,0,10.481-7.269,13.524-13.017
      c2.366-4.564,5.24-10.481,6.593-14.708c0.507-1.352,0.676-2.705,0.676-3.719c0-2.198-0.845-3.719-2.028-3.888h-0.507
      c-1.521,0-3.381,1.352-4.227,1.858c-10.143,6.763-19.609,17.413-27.217,26.542c-2.705,3.211-5.41,6.255-7.607,9.636
      c-7.27,10.988-14.031,22.146-18.934,33.472c-3.381,7.776-5.41,14.708-7.27,21.808c-0.845,3.38-1.521,7.946-1.521,12.172
      c0,2.197,0.169,4.057,0.676,5.748c0.507,2.029,0.845,3.55,3.042,3.55c0.339,0,0.845,0,1.353-0.169
      c3.043-0.507,7.438-3.55,9.805-5.41c3.043-2.536,6.592-4.902,9.128-7.1c4.227-3.381,6.425-5.917,10.481-11.158
      c2.029-2.536,4.733-6.593,5.578-9.128c-5.748-0.507-8.452-2.367-11.494-5.748c-0.508-0.676-0.846-1.522-1.354-2.367
      c-1.352-1.522-2.704-2.705-3.212-4.396c-0.337-1.014-0.337-2.367-0.846-3.38c-0.169-0.338-1.014-0.845-1.014-1.522v-0.337
      c0.339-0.677,2.367-0.677,3.043-0.677c3.888,0.507,7.27,2.367,10.988,3.043c0.845,0.338,1.521,0.676,2.705,0.676h1.014
      c2.874,0,6.256-0.507,9.299-0.845c3.718-0.507,7.099-0.676,10.481-0.845c3.549-0.338,6.254-0.845,9.297-0.845
      c2.705,0,5.41-0.507,7.945-0.507h1.522c1.352,0.168,1.858,0.507,1.858,1.183c0,0.338,0,0.676-0.169,1.183
      c-0.169,0.676-0.338,1.353-0.338,1.691c-0.676,1.521-2.536,2.535-4.058,3.888c-0.846,1.521-1.183,1.691-2.366,2.367
      c-0.169,0-0.169,0.169-0.338,0.338c-3.043,2.198-2.367,2.874-6.932,4.227c-3.719,5.579-4.564,6.254-6.423,9.466
      c-3.213,5.41-6.425,9.975-9.637,15.215c-2.367,3.719-5.24,7.945-7.438,11.158c-4.733,7.777-9.298,12.847-12.847,21.469
      c-0.34,0.845-1.184,2.366-1.354,4.733c0,0.338-0.507,0.508-1.014,0.508c-1.691,0-5.41-2.029-6.594-5.58
      c-0.507-1.352-0.676-3.211-0.676-5.07c0-3.72,0.676-7.777,1.014-10.65c-5.07,2.705-10.988,5.24-16.905,5.24
      c-1.353,0-2.536,0-3.888-0.338c-4.058-0.846-6.256-2.705-8.622-5.24c-1.183-1.184-2.367-2.198-3.38-3.381
      c-4.058-4.903-6.255-11.327-6.425-20.118l0.338-6.424c0.507-9.805,3.381-19.103,6.424-27.386
      c3.043-8.114,6.594-15.891,10.65-23.16c6.255-10.819,8.959-15.553,16.737-24.681c4.395-5.748,9.635-10.819,14.876-15.045
      c5.24-4.734,12.172-8.791,17.751-10.144c2.704-0.845,5.916-1.015,8.79-1.859h1.353c7.607,0,19.103,7.607,24.343,11.495
      c2.366,2.367,4.058,5.071,4.058,9.13c0,1.014-0.169,2.197-0.338,3.38c-0.338,1.691-0.338,3.381-0.676,5.072
      c-1.354,5.41-3.213,9.466-6.425,14.875c-4.058,6.932-10.481,15.723-18.427,15.723c-6.424,0-12.51-4.058-15.383-8.284v-0.337
      c0-2.028-1.354-3.381-1.354-4.058V68.29z"/>
    <path d="M537.233,23.154c1.859-0.338,3.212-1.183,4.902-1.86c-0.846-1.353-2.874-2.028-4.565-2.535
      c1.691-0.676,3.72-0.507,5.579-0.845c0.507,0,0.846-0.169,1.353-0.169c1.69,0,3.213,0.507,4.057,1.183
      c0.508,0.506,2.367,1.86,3.043,2.874c1.354,2.029,4.059,3.55,5.072,6.594c0.845,2.197,1.859,5.578,1.859,8.621v0.676
      c0.17,0.169,0.17,0.507,0.17,0.676c0,0.507-0.17,1.014-0.17,1.69c0,6.086,0,11.327-1.184,16.736
      c-1.184,5.409-2.705,10.48-4.395,15.891c-1.691,5.071-3.55,9.805-5.748,14.369c-2.197,4.395-4.058,9.129-6.593,13.355
      c-2.367,4.057-4.734,8.284-7.777,12.341c-2.536,3.888-5.409,7.945-7.945,11.495c-7.944,10.481-12.509,16.229-22.483,24.005
      c-2.029,1.353-3.551,3.212-5.24,4.734c-3.043,2.536-6.931,4.396-10.65,6.086c-2.367,0.845-7.607,1.521-11.834,1.521
      c-1.859,0-3.55-0.169-4.564-0.507l-3.043-0.846c-5.41-2.198-8.283-8.115-9.635-13.524c-0.508-2.705-0.678-5.917-0.678-9.298
      c0-4.058,0.339-8.622,0.846-13.017c1.69-14.539,6.762-27.556,12.68-38.375c10.48-19.272,22.314-37.867,37.529-51.899
      c1.184-1.183,2.028-2.197,3.211-3.042c3.382-2.367,5.41-4.903,8.791-6.424l1.353-0.338c0.846-0.169,1.69-0.845,2.367-0.845
      c0.338,0,0.845-0.169,1.183-0.169c3.381,0,7.945,2.367,10.65,2.874C536.219,24.675,536.726,23.83,537.233,23.154z M518.299,62.712
      c-6.932,7.1-13.186,14.876-18.596,22.822c-5.578,7.946-10.65,16.567-15.383,26.372c-2.198,4.565-4.564,9.468-5.918,15.046
      c-1.689,4.734-4.057,11.495-4.057,17.074c0,2.198,0.338,4.396,1.353,6.086c5.409-0.846,9.806-4.057,13.693-7.607
      c3.72-3.043,7.1-6.931,10.481-10.989c5.916-6.931,11.326-14.708,16.735-22.484l1.521-2.197c2.874-4.057,5.748-8.622,8.622-13.017
      c2.704-4.733,4.733-9.467,6.931-14.708c3.72-10.988,9.467-20.455,9.467-32.458v-2.197h-0.169
      c-4.564,2.028-9.805,5.071-13.862,8.453C525.061,55.781,521.68,59.331,518.299,62.712z"/>
    <path d="M607.049,48.005c-7.945,12.34-14.37,23.329-21.471,36.177c-4.226,7.607-8.451,15.383-12.172,22.822
      c-4.733,9.467-10.143,18.427-14.875,27.555c6.592-1.352,16.397-2.704,21.469-2.704c3.551,0.338,5.41,0.506,8.114,1.521
      c3.043,1.184,4.227,3.889,5.579,6.763c0,0.168,0.169,0.168,0.169,0.338c0.507,0.676,1.183,3.042,1.183,4.902
      c0,0.676-0.168,1.353-0.338,1.859c-1.183,2.536-5.408,3.551-8.283,3.551h-1.184c1.015-1.015,2.367-1.86,2.536-4.058
      c-0.846-0.338-1.69-0.507-2.536-0.507c-0.845,0-1.689,0.169-2.366,0.169c-5.24,0.845-11.665,1.859-16.567,3.719
      c-4.902,1.859-9.467,4.058-14.201,6.762c-1.52,0.846-3.38,1.691-4.732,2.536c-0.676,0.507-1.521,0.169-2.367,0.507
      c-0.507,0.17-1.184,0.338-1.859,0.338c-1.352,0-2.705-0.338-3.549-0.676c-1.86-1.014-3.551-4.396-4.734-6.593l-0.338-0.507
      c-0.846-1.69-3.381-4.734-3.381-7.945c0-0.339,0.168-0.677,0.168-1.015c0.678-1.521,1.691-2.367,3.213-2.367
      c0.338,0,0.845,0,1.184,0.169c1.352-11.326,5.408-20.962,9.635-30.26c10.313-22.653,25.865-47.165,37.699-69.48l3.55-6.593
      c1.015-1.86,2.536-4.733,2.536-6.592v-1.353c0-0.507,0-0.845,0.507-1.352c0.169-1.86,2.366-2.536,3.212-4.057h1.015
      c2.367,0,4.564,0.507,6.931,1.183c1.859,0.507,3.889,0.677,5.917,1.014c3.72,0.338,11.157,2.705,12.003,5.241
      c0.169,0.338,0.169,0.676,0.169,1.014c0,3.042-4.058,4.902-5.409,7.101c-1.015,1.521-2.198,3.55-3.212,5.41
      C609.246,44.116,608.063,46.145,607.049,48.005z"/>
    <path d="M667.394,17.406c0.845,1.014,1.691,2.535,2.367,3.042c0.845,0.677,2.366,0.845,4.226,0.845
      c2.537,0,5.41-0.338,7.439-0.506c5.07-0.169,12.171-0.507,18.596-0.507c3.549,0,6.931,0.168,9.635,0.338
      c5.578,0.845,4.058,1.521,6.087,4.395c0.338,0.338,1.015,1.184,1.015,2.029c-4.227,4.564-18.766,7.27-25.021,8.453
      c-6.931,1.184-11.665,2.198-15.046,2.367c-1.689,2.536-5.07,9.298-6.254,11.833c-3.719,7.776-7.777,15.721-11.665,22.991
      c1.183,0.168,4.058,0.168,7.269,0.168c4.564,0,9.975-0.168,12.51-0.506c4.903-0.676,6.086-1.014,8.622-1.859
      c0.508-0.169,1.015-0.507,1.521-0.507c0.169,0,0.339,0.168,0.507,0.168c0,1.184-1.014,1.522-1.521,2.705
      c0,3.889-3.213,6.425-5.918,8.622l-0.507,0.507c-5.747,4.058-24.174,6.932-32.289,7.438c-3.211,4.396-6.086,9.805-8.79,15.553
      c-5.41,9.805-10.313,20.286-15.722,30.429c7.438-0.337,15.891-2.029,23.16-2.029c6.255,0,11.664,1.353,15.383,5.749
      c0.846,1.014,1.184,1.69,1.184,2.366s-0.507,1.184-1.521,1.69c-1.521,0.676-3.719,0.845-6.762,1.86
      c-6.086,2.367-7.775,3.55-15.553,5.917c-7.438,2.368-9.129,3.212-21.47,7.608c-0.169,0-0.339,0.169-0.507,0.169
      c-1.691,0.676-3.719,1.353-5.071,1.353h-0.339c-1.69,0-2.197-1.353-3.719-1.859c-0.508-2.367-1.184-2.705-2.705-3.551
      c-0.846-0.507-1.69-1.184-2.705-1.69c-3.211-2.197-4.902-5.241-4.902-10.312c0-1.353,0.169-2.705,0.339-4.396
      c0.845-5.579,3.212-10.819,5.578-15.722c6.932-14.2,13.355-28.4,20.455-42.431c7.101-14.201,15.046-27.048,22.146-40.91
      c1.353-2.198,2.537-4.565,3.72-6.931c1.183-2.367,2.705-4.734,3.55-7.101c0.339-0.845,0.508-1.859,0.508-2.705v-0.507
      c0-0.677-0.508-1.015-0.846-1.522c0.507-1.183,1.69-1.521,3.043-1.521c1.521,0,3.212,0.338,4.564,0.506
      c0.846-1.689,1.353-4.057,2.705-4.902C666.211,14.532,666.887,16.392,667.394,17.406z"/>
  </g>
</g>
</svg>
