<svg xmlns="http://www.w3.org/2000/svg" viewBox="0 0 95.48 73.64"><title>ask-left</title><path d="M95.48,50.72L95.14,40.43C92.48,39,89.87,39,87.27,39a3.53,3.53,0,0,0-1.52,1,6.32,6.32,0,0,0-6.6-3.9,5.24,5.24,0,0,1-2.92-.72C73.08,33.53,68,34,66,36.51a1,1,0,0,1-1,.36,8.81,8.81,0,0,1-2.57-2l0.89,0a0.76,0.76,0,0,0-.21-0.24c-1.61-.24-3.21-0.42-4.82-0.72a3.68,3.68,0,0,1-1.81-.77c-2.91-2.66-8.29-1.87-10.32.81a7.54,7.54,0,0,0-.8,2.31c-1-.58-2.3-0.86-2.94-1.75-1.41-2-2.63-1.09-4-1.15A5.18,5.18,0,0,1,35.82,32c-3.34-2.59-7.7-2.66-9.75.1a16.61,16.61,0,0,0-1.45,3.21l2.11,6.45c3,2.38,6.09,3.42,9.24,2.44a1.12,1.12,0,0,0,.58-0.2c1.65-2.2,4.09-1.44,6.42-1.18,1,0.11,1.9-.08,2.86,0a4.11,4.11,0,0,1,1.87.55c3.62,2.31,7,2.78,10.16.71a2.24,2.24,0,0,1,1.46-.07c2.1,0.34,4.2.69,6.3,1.11a14.23,14.23,0,0,1,3.11.89,11.93,11.93,0,0,0,7.67,1,1.89,1.89,0,0,1,1.47.12c2.72,2.11,5.38,2.12,8.08,1.74a2.57,2.57,0,0,1,1.68.19C90.27,50.74,92.85,50.76,95.48,50.72ZM76,44.33a6.78,6.78,0,0,1,0,1.81,14.33,14.33,0,0,1-2.3.28l-0.2-.63ZM57,42.93l0.19,0.61c-0.93,1.27-2.28,1.24-3.74.91l-0.15-.53ZM37,41.66l0.35,0.85-2.69,1-0.28-.7Zm-1.35-.45c-1.75,1.1-3.94.7-6.39-.25,1.16-2.44,1-3.68-.72-6.92a4.4,4.4,0,0,1,6.19.08ZM37,37.09l4.85,1.29C40,39.44,38.3,39,37,37.09Zm18.3,4.79H50l-0.54-6.78,5-.3C54.75,37.33,55,39.33,55.25,41.88Zm12.08-3.74c0.59-2.32,2.53-2.84,4.68-1.25Zm-2.12,1.74c-1.42.94-4.1,0.36-5.39-1.32A9.25,9.25,0,0,1,65.22,39.88Zm9.7-1.57c-0.13,2-.22,3.44-0.34,5.28l-4.67-.42c-0.16-1.49-.35-2.7-0.39-3.89a0.92,0.92,0,0,1,.62-0.8C71.67,38.37,73.22,38.36,74.92,38.31Zm11.87,4.57-0.38-.62a3.18,3.18,0,0,1,2.52-2.37c1.25-.18,1.86.89,2.53,2.56ZM83.51,45.2a25.13,25.13,0,0,1-3.69-.76,12.32,12.32,0,0,0,.32-2.78c-0.19-1.47.32-1.76,1.4-1.45a6.25,6.25,0,0,1,1.91.54,2.74,2.74,0,0,1,1.07,1.58C84.26,43.33,85.19,45.29,83.51,45.2Zm10.34,1.1a28.26,28.26,0,0,1-3.52-.74,4.42,4.42,0,0,1-1-.92c0.33-.47.57-1.18,0.86-1.14a22.24,22.24,0,0,1,3.83.92Zm-0.51,1.64,1.46,1.61c-0.89,0-1.8-.13-2.76-0.22A9.09,9.09,0,0,1,93.35,47.95Z" transform="translate(0)" fill-rule="evenodd"/><path d="M26.32,73.58c0.94-.07,1.87-0.24,2.8-0.39a15.28,15.28,0,0,0,4.36-1.47c0.67-.34,1.31-0.75,2-1.13a7.57,7.57,0,0,0,2-1.89c0.25-.32.47-0.67,0.69-1,0.49-.77,1-1.54,1.47-2.33,0.27-.44.52-0.9,0.77-1.36a8,8,0,0,0,.49-1,10.22,10.22,0,0,0,.39-1.37,3,3,0,0,0,0-.84c0-.49-0.1-1-0.16-1.46,0-.32-0.1-0.65-0.16-1S40.84,58,40.8,57.79c-0.11-.47-0.2-1-0.3-1.43-0.06-.28-0.13-0.56-0.19-0.85-0.11-.56-0.19-1.13-0.31-1.68s-0.27-1.07-.37-1.62a5.36,5.36,0,0,0-.57-1.61,7,7,0,0,0-1.58-1.88,5.75,5.75,0,0,0-2.61-1.35c-0.55-.12-1.1-0.27-1.65-0.39a15.33,15.33,0,0,0-1.62-.34,9.41,9.41,0,0,0-1.42,0,0.19,0.19,0,0,1-.21-0.2c-0.15-.89-0.28-1.78-0.44-2.66-0.2-1-.4-2.08-0.63-3.11-0.17-.81-0.37-1.61-0.57-2.41-0.25-1-.51-2-0.78-3-0.38-1.38-.78-2.76-1.17-4.14q-0.37-1.31-.75-2.62c-0.19-.63-0.38-1.26-0.57-1.88-0.29-1-.57-1.93-0.86-2.9-0.08-.26-0.08-0.27.15-0.4a10.73,10.73,0,0,0,2-1.6,2.85,2.85,0,0,0,.33-0.45l0.05,0A1.33,1.33,0,0,0,27,21c0.44-.47.87-0.94,1.29-1.42,0.07-.08.1-0.2,0.17-0.28s0.3-.27.43-0.43c0.51-.64,1-1.28,1.5-1.94a3.69,3.69,0,0,0,.71-2.13,8.39,8.39,0,0,0-.27-2.31c-0.26-1.09-.53-2.17-0.77-3.26C29.76,8,29.51,6.67,29.2,5.38a6.44,6.44,0,0,0-1.33-2.86A6.58,6.58,0,0,0,24.81.62,11.27,11.27,0,0,0,22.37.13,15,15,0,0,0,20,0c-1,.08-2.05.28-3.07,0.46-0.57.1-1.14,0.26-1.71,0.36a22.6,22.6,0,0,0-3.82,1.05c-1.09.4-2.17,0.85-3.24,1.32A11.55,11.55,0,0,0,5.28,5.07C4.64,5.62,4,6.2,3.38,6.77A20.53,20.53,0,0,0,.9,9.36a4.14,4.14,0,0,0-.84,3.29,20.84,20.84,0,0,0,.79,3.07,4.53,4.53,0,0,0,.26.57,0.38,0.38,0,0,0,0,.17,0.63,0.63,0,0,0,.17.13l-0.14.05L1.17,16.9c0.22,0.75.43,1.5,0.65,2.25,0.35,1.19.69,2.38,1.07,3.56a4.94,4.94,0,0,0,1.31,2A6.11,6.11,0,0,0,6.38,26a14.26,14.26,0,0,0,3.24.8,9.86,9.86,0,0,0,2.8,0,0.15,0.15,0,0,1,.2.14c0.06,0.31.13,0.62,0.19,0.92,0.15,0.73.29,1.46,0.44,2.19,0.34,1.63.68,3.26,1,4.89s0.7,3,1.07,4.48c0.24,1,.51,1.95.8,2.91,0.35,1.16.74,2.29,1.11,3.44,0.28,0.86.53,1.73,0.82,2.59,0.2,0.6.44,1.17,0.68,1.76a0.23,0.23,0,0,1-.06.31,3.14,3.14,0,0,0-.42.41c-0.76.92-1.52,1.85-2.26,2.79q-0.93,1.18-1.82,2.4a4.45,4.45,0,0,0-.93,2.2,8.42,8.42,0,0,0,.33,2.84c0.16,0.69.38,1.36,0.57,2,0.39,1.35.76,2.72,1.17,4.07a7.69,7.69,0,0,0,3.78,4.71,16.28,16.28,0,0,0,2.9,1.16,11.39,11.39,0,0,0,1.43.43A10.61,10.61,0,0,0,26.32,73.58Z" transform="translate(0)" fill-rule="evenodd"/><path d="M21.38,19.3c-0.16,0-.14-0.18-0.14-0.26a0.34,0.34,0,0,0-.12-0.36s0,0.06,0,.08l0,0.11-0.26-.56L21,18.25l-0.09-.11a0.4,0.4,0,0,0,0-.55,0.79,0.79,0,0,0-.19-0.35,1,1,0,0,1-.33-0.41c-0.24.18-.57-0.12-0.79,0.21-0.15-.35-0.19-0.36-0.49-0.16l-0.08,0h0c-0.09-.15-0.18-0.15-0.42,0l0,0.17h0l-0.1,0H18.32a0.15,0.15,0,0,1,0,0,0.84,0.84,0,0,0-.16.08,0.2,0.2,0,0,0-.07.14,0.49,0.49,0,0,1-.35.7h0A0.83,0.83,0,0,0,18,17.26l-0.16,0a0.43,0.43,0,0,0,0-.15,0.14,0.14,0,0,0-.13,0,0.18,0.18,0,0,0,0,.15,1.08,1.08,0,0,0,.2.15l-0.37,0,0,0-0.28-.13,0,0,0.07,0.06c0,0.19-.29.24-0.14,0.5l0.09-.21a0.45,0.45,0,0,1,0,.5,0.18,0.18,0,0,0-.17-0.23,0.17,0.17,0,0,0-.14.25c0.11,0.06.2-.18,0.32,0l-0.09.06c-0.12.1-.24,0.25-0.37,0l-0.09.06a0.36,0.36,0,0,0-.15,0l-0.24.09,0,0.13,0,0,0.11,0.12,0.21-.05,0.08-.05a0.65,0.65,0,0,1,.28.58L16.88,19l0,0.12,0.23,0s0,0.08,0,.16a1.07,1.07,0,0,0,.14-0.11c0.07-.1.15-0.07,0.18,0s0.17,0.12.28,0a0.46,0.46,0,0,0-.11.5,0.23,0.23,0,0,1-.08.26l-0.22.27,0.12,0.24-0.18,0a0.56,0.56,0,0,1,.05.29,0.15,0.15,0,0,0,.1.24l0,0.09a0.4,0.4,0,0,0-.27.4l0.17-.12a0.29,0.29,0,0,0,.06.12c0.17,0,.13.15,0.09,0.25a0.46,0.46,0,0,1-.18.12,0.81,0.81,0,0,1,.25.76l-0.06.13-0.1.24a0.29,0.29,0,0,0,.08.4l0.19-.27c0,0.1,0,.1-0.16.35l0.15,0-0.23.3,0.16,0,0,0.17-0.17.26c-0.06.12-.23,0.19-0.14,0.37l0.08,0.09h0c0,0.06,0,.12,0,0.2l-0.1,0a0.26,0.26,0,0,0-.14,0c-0.06.07,0,.28,0.13,0.25s0-.09,0-0.21l0.25,0.26H17.34c0,0.13.06,0.25,0.1,0.37a0.24,0.24,0,0,0,.12.15c0.24,0,.17.17,0.19,0.26l-0.3-.18c0,0.16,0,.28,0,0.42l0.15,0.07c0,0.18-.08.35-0.11,0.53a0.27,0.27,0,0,0,.25.22,0.16,0.16,0,0,0,.06-0.1,0.29,0.29,0,0,1,0-.12L18,27.2l0,0-0.1-.16c-0.06.19,0,.24,0.32,0.21-0.1.09-.17,0.14-0.23,0.21a0.91,0.91,0,0,0-.09.14h0l-0.2.12L18,28,18,28.08,18.3,28.6c-0.13.12-.13,0.17,0,0.25l0.13,0.07c-0.09,0-.09.27-0.22,0.16a1.07,1.07,0,0,1,0,.31,0.46,0.46,0,0,1-.21,0l0.09,0.33c0,0.16,0,.31,0,0.47l0,0.14-0.32,0L18,30.56h0a0.48,0.48,0,0,0-.44.06h0c-0.16-.17-0.16,0-0.23.11h0l-0.14-.15c0.09-.09.13-0.17,0-0.23L17.06,30a2.12,2.12,0,0,0,.13-0.46,0.27,0.27,0,0,0-.29-0.25c-0.11,0-.16-0.11-0.11-0.16,0.19-.24,0-0.35-0.11-0.49l-0.19-.27,0.06-.06,0.16,0.29,0.09-.06c0-.1-0.05-0.21-0.07-0.28L16.32,28,16.64,28l-0.25-.14,0.32-.11-0.16-.12,0.12-.14L16.6,27.3l-0.06-.16h0l-0.08.35a0.23,0.23,0,0,1-.15-0.27A0.76,0.76,0,0,0,16.15,27a0.21,0.21,0,0,1,.27-0.17A0.52,0.52,0,0,0,16,26.56a0.71,0.71,0,0,1-.29-0.11V26.39L15.55,26l0.27-.13-0.34-.1c0-.06,0-0.14,0-0.24l0.19,0.15,0,0-0.29-.51-0.09,0,0.06,0.41,0,0-0.23-.36,0.09-.13L15,24.91c0,0.15,0,.25,0,0.37l0.15,0.16-0.22,0,0,0a0.53,0.53,0,0,0,.13.08l0.18,0a0.55,0.55,0,0,1-.22.17,0.31,0.31,0,0,1-.21-0.32,0.38,0.38,0,0,1,.08-0.16l-0.17-.38H14.9a0.3,0.3,0,0,0-.3-0.37,1,1,0,0,1-.39-0.13,0.28,0.28,0,0,1,0-.22,0.28,0.28,0,0,0-.21-0.4l0.19,0.24-0.4,0a0.41,0.41,0,0,1,0-.14c0-.18-0.08-0.2-0.22-0.19a0.76,0.76,0,0,1-.17,0c0.06-.11.11-0.22,0.16-0.34a0.08,0.08,0,0,0-.05-0.06,0.1,0.1,0,0,0-.08.05,1.55,1.55,0,0,0-.09.19l0.06,0.16-0.46-.59a0.42,0.42,0,0,0-.28-0.25,0.66,0.66,0,0,1-.17-0.24c0,0.07,0,.12,0,0.17a0.31,0.31,0,0,1,0,.11c-0.31.18,0,.4-0.05,0.6v0l-0.11,0H12.13l0.1,0.21a1.79,1.79,0,0,1,.32-0.09,0.22,0.22,0,0,1,.11.08,0.36,0.36,0,0,0-.09.14,0.17,0.17,0,0,0,.07.14,0.21,0.21,0,0,1,.21.25,0.12,0.12,0,0,0,.06.08l0.23-.1c0.05,0.33.12,0.69,0.15,1a0.59,0.59,0,0,1-.14.24h0.15l-0.09.21-0.27,0L12.77,26c-0.19-.42-0.35,0-0.53,0l0-.12H12.22l-0.46,0a0.27,0.27,0,0,0-.12,0c-0.12.06-.18,0-0.24-0.11a0.52,0.52,0,0,0-.2-0.13l0.05,0.28C11.1,25.73,11,25.7,11,25.51H10.56l-0.1,0c0-.05,0-0.11,0-0.16s0-.12,0-0.22c-0.28.22-.32,0.21-0.54,0l-0.23.15,0,0,0.06-.23a0.29,0.29,0,0,1-.37,0,0.71,0.71,0,0,0-.42,0c-0.2,0-.41.09-0.62,0.14,0-.3,0-0.34-0.23-0.42h0a0.3,0.3,0,0,0-.34-0.29c-0.16,0-.22,0-0.17-0.23s0-.2-0.21-0.14a0.39,0.39,0,0,1,.06.16,0.3,0.3,0,0,1-.08.18,0.17,0.17,0,0,1-.16,0,1.51,1.51,0,0,1-.24-0.35l0.24,0.1L7,23.88l0.05,0-0.27-.13-0.24.22,0,0,0.13-.27v0l-0.34.24a0.66,0.66,0,0,0,0-.28,0.45,0.45,0,0,0-.22-0.12l-0.23-.08a2.9,2.9,0,0,1,0-.34A2.45,2.45,0,0,1,6,22.68a0.86,0.86,0,0,1-.73-0.37L5,21.8c0-.12,0-0.25,0-0.38l-0.14-.23L5,21.06H4.95l-0.1-.48s0,0,0-.06A0.89,0.89,0,0,1,5,19.72c0-.11.08-0.23,0.12-0.36,0.11,0,.21,0,0.19-0.17l0.13,0c-0.07-.18-0.17-0.38.21-0.28l-0.13-.2c0.1,0,.1,0,0.28.13,0-.16-0.08-0.31-0.13-0.47s-0.05-.24.11-0.25l0-.17h0l0.32,0.42a0.52,0.52,0,0,1,.14-0.5,0.51,0.51,0,0,0,0-.31,0.6,0.6,0,0,0-.13-0.2c0.23,0.12.27-.06,0.34-0.18s0.23,0.23.36,0L7,17.13l0.26,0L7,16.88a0.16,0.16,0,0,0,.12-0.21,0.55,0.55,0,0,1,0-.16l0.18,0.19,0-.34-0.22.15c-0.13,0-.13-0.1,0-0.17l0.3-.18-0.11-.29H7.28c0-.13,0-0.25,0-0.34s0.29,0.08.44,0.1a0.15,0.15,0,0,0,.09-0.11c0-.3,0-0.32.3-0.4L8.07,15l0,0a0.2,0.2,0,0,0,.21-0.25,0.25,0.25,0,0,1,.21-0.26,0.14,0.14,0,0,0,.1-0.09A0.48,0.48,0,0,1,9,13.86s0,0,0,0l0-.41-0.26-.1s0-.08,0-0.12,0-.17,0-0.27,0.21,0.12.27-.08c-0.21-.05-0.23-0.12-0.21-0.35a1.43,1.43,0,0,0-.06-0.37l0.28,0L8.94,12l0.17,0c0-.15,0-0.31,0-0.5a0.51,0.51,0,0,0-.11.12c-0.09.25-.09,0.26-0.33,0.16l0.12-.1-0.23-.19L8.66,11.6l0.24-.42c0-.08,0-0.19,0-0.31l-0.1,0c0-.06,0-0.13,0-0.21l0.29,0.12,0-.09a1.19,1.19,0,0,1-.25-0.11,2.23,2.23,0,0,1-.23-0.24l-0.07-.05A1,1,0,0,1,8.2,9.76a0.31,0.31,0,0,0-.12-0.13l0-.18L8.24,9l-0.31.15L7.75,9.13,7.94,9,7.79,8.86l0,0L8,8.88a0.61,0.61,0,0,0-.28-0.54L8,8.46l0.24-.22v0l-0.44,0-0.17-.1h0c0-.1,0-0.2,0-0.3A0.5,0.5,0,0,0,7.5,7.6a0.24,0.24,0,0,1,.06-0.37L7.27,7l0.09-.16,0-.15c0.14-.11.17-0.22,0-0.34l0.13,0V6.3H7.24C7.3,6.14,7.18,6.11,7.08,6.08s0-.31,0-0.46L7.39,5.84c0.07-.24,0-0.37-0.22-0.38,0.09-.34.09-0.38,0-0.49,0,0.08,0,.16-0.06.23C6.91,5,6.93,4.9,7.22,4.68L7,4.53l0.27-.38L7.48,4.24l0.33-.46L7.74,3.66l0.15,0c0.1,0,.17,0,0.18-0.17A0.3,0.3,0,0,1,8.4,3.15c0-.05,0-0.09,0-0.14A1.13,1.13,0,0,0,9,2.68l0.08,0.1c0.15-.31.17-0.33,0.33-0.19h0L10,2.14a0.3,0.3,0,0,1,.15,0,0.32,0.32,0,0,1,0,.17C10,2.4,9.92,2.45,10,2.57l0.22-.18h0c0,0.2,0,.4.3,0.39l0,0h0l-0.21.06a0.52,0.52,0,0,0,.16.08,0.46,0.46,0,0,1,.1.1c0,0.13,0,.26.07,0.39h0l0.11-.16L11,3.44l-0.17.06L10.9,3.63l-0.26.3a0.5,0.5,0,0,1,.5.45l-0.28-.18a0.29,0.29,0,0,0,0-.05l-0.42-.1c0.06,0.28.14,0.32,0.35,0.18l0.07,0L10.8,4.4a0.7,0.7,0,0,1,.19.06c0.09,0.06.13,0,.16-0.06l0.22-.2h0.07a0.74,0.74,0,0,0,0,.18,0.15,0.15,0,0,0,.07.06h0l0,0.18c-0.09-.08-0.11,0-0.16.07a1,1,0,0,1-.25.22,0.64,0.64,0,0,1-.24,0,0.48,0.48,0,0,1,0,.05l-0.26-.17a1.47,1.47,0,0,0,0,.22l0.43,0c0,0.09,0,.21.07,0.33a0.52,0.52,0,0,0,.08.12,0.25,0.25,0,0,0,.1-0.09,2,2,0,0,0,0-.29c0.26,0,.27.07,0.19,0.34-0.22,0-.19.17-0.21,0.32a0.31,0.31,0,0,0-.13.48l0.13-.49c0.23,0,.14.26,0.18,0.45L11.52,6,11.6,6.38l-0.18.25c0.13,0,.19,0,0.21.18a0.28,0.28,0,0,0,.1.12L11.8,7,11.68,7c0,0.11,0,.18,0,0.25s0,0.15,0,.22a1.43,1.43,0,0,0-.15.14,0.58,0.58,0,0,0,0,.16c-0.18.08-.15-0.08-0.16-0.18l-0.2.15,0,0.1-0.3,0a2.65,2.65,0,0,0,.2.29,0.3,0.3,0,0,0,.15.05h0l0.08-.08,0,0,0.17-.12,0.18,0.42,0.08,0.3H11.58l0.33,0.22L12,9l-0.2.07a0.7,0.7,0,0,1,0,.59,0.93,0.93,0,0,0-.64,0l-0.09.2L11.21,10h0l-0.27,0,0.26,0.28,0.13,0.29,0,0.2,0.06,0.27c0.11,0.1.12,0.34,0.34,0.31a0.34,0.34,0,0,1,.09.13,0.25,0.25,0,0,1-.1.12l-0.14.09v0.06l0.27,0.08L12,12.22l0.33-.36L12.56,12l0.14-.44,0.06,0,0.11,0.27,0.06-.09,0.24,0c0.09,0,.19.15,0.27,0a0.55,0.55,0,0,1,.19,0l0-.24c0.15,0.14.23,0.13,0.24,0a1.83,1.83,0,0,0,0-.25l0.62,0.19,0-.07-0.23-.23a0.54,0.54,0,0,0,.66,0,0.33,0.33,0,0,1,.14,0,3.48,3.48,0,0,1,0,.43,0.48,0.48,0,0,0,.1-0.18c0-.13,0-0.15.13-0.18a0.81,0.81,0,0,0,.15-0.08,0.19,0.19,0,0,0,.09,0c0.09-.31.31-0.29,0.55-0.25L16,10.79a0.78,0.78,0,0,0,.69-0.09,0.58,0.58,0,0,0,0-.06l0.18,0.09-0.09-.21L17,10.64a2.67,2.67,0,0,1,.35-0.28,0.28,0.28,0,0,1,.25,0,0.4,0.4,0,0,0,.49-0.06,2.54,2.54,0,0,1,.47-0.2L18.82,10a0.16,0.16,0,0,1,.26.05,0.19,0.19,0,0,0,.33,0A0.43,0.43,0,0,1,19.94,10L20.17,10l0-.06,0.42-.18a1.51,1.51,0,0,1,.73.17c0.11-.21.29-0.1,0.43-0.12h0.05a3.09,3.09,0,0,1,.73.1L22.4,9.82a0.8,0.8,0,0,1,.2,0,0.71,0.71,0,0,1,.19.07L22.89,10a1.21,1.21,0,0,1,.21-0.2,0.24,0.24,0,0,1,.09.08,1.06,1.06,0,0,1,.23.06,0.74,0.74,0,0,0,.19.12l0-.19a0.13,0.13,0,0,1,.13.19,0.23,0.23,0,0,0,0,.17,0.41,0.41,0,0,0,.56.06c0.12-.1.2-0.14,0.25,0.06s0.12,0.16.29,0.06l0-.24a4.25,4.25,0,0,0,.31.4,0.29,0.29,0,0,0,.19.07c0.2,0,.4,0,0.62,0,0,0.06,0,.1,0,0.12l0.4,0.31s0-.08,0-0.16a1.68,1.68,0,0,1,.5.32,2.14,2.14,0,0,0,.42.37l0-.16L28,12.16l0,0,0.11,0,0,0,0.49,0.71c0.05,0.08.27,0,.15,0.24,0.25,0.11.3,0.26,0.14,0.51L29.12,14c0.12,0.11.06,0.17-.06,0.22a1.27,1.27,0,0,1,.1.84L29.26,15a0.51,0.51,0,0,1,.1.17,0.46,0.46,0,0,1,0,.21c0,0.11-.1.2-0.15,0.3l0.05,0,0.17,0c-0.05.09-.09,0.15-0.12,0.2a2.29,2.29,0,0,0-.43.6,1.33,1.33,0,0,1-.41.45l0.25,0a0.77,0.77,0,0,1-.15.29,1.18,1.18,0,0,1-.36.09c0,0.13,0,.32,0,0.41l-0.45.47,0.05,0.05a0.22,0.22,0,0,0-.23.19,0.9,0.9,0,0,1-.31.42,1,1,0,0,0-.23.31,4.65,4.65,0,0,1-.33.45,1.27,1.27,0,0,0-.53.57,0.36,0.36,0,0,1-.15.1l-0.22.14,0,0.05L26,20.45l0,0.06a1.52,1.52,0,0,1-.35.2,0.52,0.52,0,0,0-.34.32l0.2-.09,0,0-0.08.09a0.59,0.59,0,0,0-.3.38,0.28,0.28,0,0,1-.18.08c-0.11,0-.21,0-0.16.2a0.26,0.26,0,0,1-.08.16,2.92,2.92,0,0,1-.24.27,0.41,0.41,0,0,1-.17.12,0.18,0.18,0,0,1-.12-0.12c-0.21-.58-0.44-1.16-0.62-1.75a1.32,1.32,0,0,1,0-.56,0.27,0.27,0,0,1,.28-0.28,0.87,0.87,0,0,0,.22-0.08l-0.28-.18-0.05-.22-0.53.22,0.12,0.38L23,19.46c-0.16.07,0,.19,0,0.32l0.11-.08c0,0.06,0,.11,0,0.16l0.21,0c-0.15,0-.32,0-0.14.26H23.07L23,19.92l-0.37.28h0c-0.09,0-.23.06-0.27-0.1,0.19,0,.11-0.18.21-0.24-0.07.08-.27,0-0.2,0.24-0.24-.24-0.28.06-0.4,0.21l-0.12-.17,0.07,0,0.11,0a0.35,0.35,0,0,0-.09-0.1,1.16,1.16,0,0,0-.19-0.06v0L21.51,20l-0.15-.31h0a0.28,0.28,0,0,0,.33-0.11,0.6,0.6,0,0,0-.09-0.23l0.11-.12-0.09-.13-0.18.22H21.38ZM11.33,6.89a0.29,0.29,0,0,0-.27-0.28l0.21,0.28h0.06Zm-0.13,5-0.16,0c0,0.13,0,.24.06,0.34l0,0,0.06-.31a0.8,0.8,0,0,1,.1.15c0,0.17.12,0.19,0.25,0.08l0-.15-0.13,0C11.36,11.9,11.3,11.8,11.2,11.89ZM10.9,7.3l-0.25-.21c-0.11-.19-0.15-0.19-0.45,0h0.25a2.21,2.21,0,0,0-.12.21,0.33,0.33,0,0,0,0,.14,0.1,0.1,0,0,0,.07,0l0.27-.08,0.21-.06a1.36,1.36,0,0,0,.17.12,0.53,0.53,0,0,0,.17,0l-0.15-.22,0.22,0c0,0.08,0,.17,0,0.27a0.21,0.21,0,0,0,.14-0.32L11.54,7l-0.19-.06h-0.1a0.15,0.15,0,0,0,0,0,0.18,0.18,0,0,1-.22.19Zm6.25,15.15a0.23,0.23,0,0,0,.11-0.06,0.53,0.53,0,0,0-.36-0.47c0,0.07,0,.12,0,0.18l0.05,0a0.23,0.23,0,0,1,.11.07,1.13,1.13,0,0,1,.06.24l-0.26.15a0.6,0.6,0,0,0,.12.23,1,1,0,0,0,.3-0.1ZM11.23,11.26l-0.13-.07-0.22.17,0.28,0.37c0.26-.12.29-0.16,0.16-0.4ZM11.08,9l0,0c0.08-.06.15-0.12,0.24-0.17a0.38,0.38,0,0,0,.16-0.52ZM10.27,6.36c0.17,0.17.23,0.19,0.36,0.06a0.14,0.14,0,0,0,0-.12C10.51,6.11,10.39,6.13,10.27,6.36ZM9.67,4.68l0,0c0-.08,0-0.16.07-0.24a0.16,0.16,0,0,0,0-.11,0.11,0.11,0,0,0-.11,0,0.13,0.13,0,0,0-.06.1A3,3,0,0,0,9.67,4.68Zm1.21,1.92L11,7.08a0.65,0.65,0,0,0,.14-0.25A1,1,0,0,0,10.88,6.61ZM8.65,24.7c-0.22,0-.24,0-0.15.37l0.2-.12C8.47,24.89,8.56,24.8,8.65,24.7Zm5.73-.53,0.15,0.25h0c0-.1,0-0.21,0-0.32Zm3,3.06-0.2-.05c0.09,0.1,0,.34.22,0.3C17.42,27.4,17.41,27.32,17.4,27.23Zm-0.72-5.58,0,0.05,0.27,0a0.6,0.6,0,0,0,0-.12,0.23,0.23,0,0,0,0-.08ZM9.76,25l0.4,0.1C10,24.91,9.93,24.81,9.76,25Zm1.45-12.56,0.31-.1-0.27-.14Zm-0.58-1.19-0.22.06v0l0.09,0c0,0.07,0,.14,0,0.21h0Zm-0.21-.64,0.37,0.06C10.69,10.46,10.56,10.44,10.42,10.6Zm-0.24-6,0.05,0L10.1,4.35,10,4.55ZM16.57,19V19c-0.12,0-.23-0.19-0.41,0ZM11,25.17l0.17,0.22,0.07-.26Zm6.34-14.61c0,0.09,0,.17,0,0.27l0.3-.26H17.29Zm-6,.25,0.06,0-0.25-.41,0,0ZM24,19.88l-0.14-.21-0.12.22H24ZM12.3,24.3l0,0-0.18-.16C12.08,24.33,12.24,24.26,12.3,24.3Zm4.59-1.42s0,0,0-.05a0.32,0.32,0,0,0-.14,0,0.49,0.49,0,0,0-.07.18ZM14.42,12.15l-0.31-.26C14.1,12.12,14.25,12.12,14.42,12.15ZM9.56,3c0.06,0.18.09,0.18,0.24,0H9.56Z" transform="translate(0)" fill="#fae90b" fill-rule="evenodd"/><path d="M19.67,41.37l0.11-.29,0,0-0.2.12,0.07-.43a0.71,0.71,0,0,1,.24.68l0.27-.15c-0.2-.11-0.2-0.11-0.2-0.86,0.2,0,.2,0,0.2.21a0.47,0.47,0,0,0,.19.26,0.71,0.71,0,0,0-.3-0.6,0.24,0.24,0,0,1,0-.18,1.31,1.31,0,0,1,.08-0.23l-0.3-.08-0.13-.07-0.22-.09a0.88,0.88,0,0,0,.15-0.28,1.82,1.82,0,0,0,0-.4v0c-0.13-.2.12-0.16,0.15-0.26H19.63c0-.1,0-0.2,0-0.29a0.48,0.48,0,0,1,0-.06l0.08-.14,0.06,0c0-.1,0-0.2,0-0.3l0.13-.09,0.24,0.15,0.22,0.12a1.63,1.63,0,0,1,.42.75,0.19,0.19,0,0,0,0,.29l0.07,0.32,0.23,0.07L21,39.34a0.21,0.21,0,0,1,.15.24,0.29,0.29,0,0,0,.13.11l0.18,0.08h0l-0.2.07s0,0.1,0,.16h0a0.76,0.76,0,0,0-.08.26,0.22,0.22,0,0,0,.16.14,3.19,3.19,0,0,0,.48,0l0,0.16h0a0.29,0.29,0,0,0-.43.14l-0.24-.11-0.08-.19L21,40.4l0.1,0.22,0.08,0a0.36,0.36,0,0,0,.15.3,0.49,0.49,0,0,1,0,.22,0.14,0.14,0,0,0,0,.09,1.65,1.65,0,0,0,.2.26,0.51,0.51,0,0,0,.17.07h0a1.44,1.44,0,0,0,.75.3h0l-0.25.22,0,0.05-0.37.2s0,0,0,0a0.52,0.52,0,0,1,.39.35,0.12,0.12,0,0,1,0,.1,0.29,0.29,0,0,0,.08.46,0.29,0.29,0,0,1,0,.12l-0.1,0-0.05,0L22,43a0.28,0.28,0,0,0,.21.36c-0.18.23-.14,0.36,0.13,0.42l0.16,0-0.15.1,0.35,0.23,0-.17a0.76,0.76,0,0,1,.18,0,1.25,1.25,0,0,1,.2.06,0.27,0.27,0,0,1,0,.06l-0.15.07,0,0.49h0l0.19-.34h0.06l0.1,0.3a0.16,0.16,0,0,0-.08,0,0.24,0.24,0,0,0,.25.28L23.39,45l0.05,0,0.27,0.22,0,0-0.36-.17,0,0.05a0.75,0.75,0,0,1,.38.58l-0.06.13a0.42,0.42,0,0,0-.29.52l0.15-.28,0.13,0.16c0-.09,0-0.14,0-0.19s0-.14,0-0.21L24,46.06l0,0.06c0,0.14,0,.27,0,0.41H23.92l-0.13-.27,0,0c0,0.29,0,.3.17,0.24,0.07,0.19.07,0.19,0.26,0.15L24,46.52c0.2-.06.17,0.18,0.23,0.22a2.7,2.7,0,0,0,.4-0.08c0.07,0,.12-0.13.2-0.16a0.83,0.83,0,0,1,.23,0,1.6,1.6,0,0,0,.32,0l0.85-.26c0.06,0,.12,0,0.18,0s0.21-.07.32-0.09L27.62,46c0.27,0,.53-0.11.79-0.16a0.43,0.43,0,0,1,.39.08A1.62,1.62,0,0,1,29,46a0.77,0.77,0,0,1-.21.08,0.43,0.43,0,0,0-.33.17,0.52,0.52,0,0,1-.25.06l-0.3.07-0.28.09c0-.12-0.11-0.15-0.23-0.07s-0.16.07-.23,0.11a0.31,0.31,0,0,1-.37.07,0.19,0.19,0,0,0-.1,0c0,0.07,0,.13.06,0.22a1,1,0,0,1-.13-0.09c-0.07-.09-0.12-0.11-0.22,0a0.4,0.4,0,0,1-.28,0c-0.24,0-.24,0-0.27.2a2.25,2.25,0,0,0-.33.1,0.2,0.2,0,0,0-.18.22,0.85,0.85,0,0,1-.32.15,0.08,0.08,0,0,1-.08,0l-0.36.15c0-.09,0-0.14,0-0.21l-1,.49,0.34,0.46-0.44-.06c0-.15,0-0.26,0-0.37l-0.06,0c-0.16.09-.12,0.5-0.46,0.3a4.7,4.7,0,0,1,.19.51,4,4,0,0,1,.08.52h0C23,49,23,49,22.83,49.25l-0.09.17h0l-0.32,0a0.67,0.67,0,0,1,.12.66l0.36,0v0A0.3,0.3,0,0,1,22.81,50a0.16,0.16,0,0,1,0-.13,0.35,0.35,0,0,1,.49.1c0.07,0.1.14,0.2,0.21,0.31a0.18,0.18,0,0,1,0,.14,0.11,0.11,0,0,1-.1,0,0.17,0.17,0,0,1-.09-0.11,1.24,1.24,0,0,0-.07-0.27,0.36,0.36,0,0,0-.19-0.06l0.06,0.18a0.25,0.25,0,0,0,0,.06c-0.31,0-.34,0-0.28.27l0.12-.1a0.64,0.64,0,0,1-.17.55l-0.18-.49-0.16.31-0.11-.09,0,0.05c0.11,0.12.21,0.24,0.33,0.35a0.31,0.31,0,0,0,.15,0l0-.16c0.18,0,.26-0.09.22-0.3l0.06,0a1.1,1.1,0,0,1,.05.2,2.41,2.41,0,0,1,0,.27,0.2,0.2,0,0,1,0,.09c-0.16.13-.1,0.2,0,0.27a0.42,0.42,0,0,1,.08.15A0.35,0.35,0,0,1,23,51.41a0.15,0.15,0,0,0-.12-0.1,0.56,0.56,0,0,0-.16.13,0.78,0.78,0,0,0,.1.11,1.23,1.23,0,0,1,.29.19,0.67,0.67,0,0,1,0,.29A0.6,0.6,0,0,1,23.23,52a0.29,0.29,0,0,1,.18,0,0.18,0.18,0,0,1,0,.17,0.28,0.28,0,0,0,0,.42,0.42,0.42,0,0,1,0,.15,0.23,0.23,0,0,0,0,.12,0.16,0.16,0,0,0,.13,0l0.34-.09c0,0.15,0,.25,0,0.36l-0.1,0c-0.14-.06-0.17,0-0.16.14a2,2,0,0,1,0,.22,0.17,0.17,0,0,1-.24.19L23.32,54l0.22-.13c0.12,0.07.23,0.15,0.1,0.33a0.39,0.39,0,0,0,0,.17h0a0.26,0.26,0,0,1,0-.11,0.17,0.17,0,0,1,.13,0,1.92,1.92,0,0,1,.13.32,0.18,0.18,0,0,1,0,.14,0.15,0.15,0,0,1-.15,0,0.57,0.57,0,0,1-.22-0.28c0-.36-0.27-0.37-0.51-0.41l0.27,0.67,0.33,0.13-0.1.12c-0.1.08-.1,0.14,0,0.22a1.14,1.14,0,0,1,.16.23c0.13,0,.13,0,0.1-0.45a0.76,0.76,0,0,1,.42.45l-0.13.2L24,55.23c0,0.07-.06.1-0.07,0.14a0.59,0.59,0,0,1-.07.15,1.09,1.09,0,0,1-.36.27,1.07,1.07,0,0,1-.43-0.06l0,0.25L23.51,56a0.21,0.21,0,0,0,.14,0,1.28,1.28,0,0,0,.13-0.15c0.09-.09.17-0.22,0.23,0a0.23,0.23,0,0,0,.08.07,0.17,0.17,0,0,1,0,.25,3.52,3.52,0,0,0-.15.33,0.29,0.29,0,0,0,0,.13,0.29,0.29,0,0,0,.1-0.08c0.14-.33.22-0.35,0.53-0.21a2.05,2.05,0,0,0,.56.09l0.38,0s0,0.06,0,.09a2.39,2.39,0,0,1-.29,0c-0.15,0-.19,0-0.16.19a0.72,0.72,0,0,1,0,.52,0.2,0.2,0,0,0,.08.17,0.42,0.42,0,0,0,.21,0c0.1,0.16-.11.22-0.12,0.38l-0.14-.1,0,0L25.3,58.1l-0.19.27-0.13,0,0,0a0.88,0.88,0,0,0,.13.14,1.76,1.76,0,0,0,.27.14c0.19,0.09.38,0.19,0.58,0.26a0.58,0.58,0,0,0,.24,0,0.48,0.48,0,0,0,0-.07L26,58.76c0-.16,0-0.31,0-0.46a0.13,0.13,0,0,1,.06,0l0.16,0.36h0L26.58,58l0.05,0a0.93,0.93,0,0,0,0,.16,0.55,0.55,0,0,0,0,.27,0.26,0.26,0,0,0,.21,0,0.52,0.52,0,0,1,.45.34s0,0.08,0,0l0.32-.21a0.13,0.13,0,0,0,0-.1,0.19,0.19,0,0,1,.19-0.22A0.57,0.57,0,0,0,28,58.06a0.7,0.7,0,0,0,.34.07,0.9,0.9,0,0,0,.24-0.33l0.31,0.37A0.85,0.85,0,0,0,29,57.89a0.21,0.21,0,0,1,.23-0.25l0.23,0a0.35,0.35,0,0,0,.36.45c0-.1,0-0.2,0-0.3a0.72,0.72,0,0,0,.24,0,1.73,1.73,0,0,0,.36-0.1,2.4,2.4,0,0,0,.28-0.16l0.23-.13a0.24,0.24,0,0,1,.15,0,0.61,0.61,0,0,1,.15.09l0.2-.24,0.09,0.26,0.21-.1,0.35-.18v0l0-.13a0.21,0.21,0,0,1,.09.09c0,0.11.07,0.14,0.15,0.08a2.62,2.62,0,0,1,1.13-.34,2.74,2.74,0,0,0,.44-0.15H34l0,0L33.74,57v0a0.39,0.39,0,0,0,.15,0A0.43,0.43,0,0,1,34.27,57a1.43,1.43,0,0,0,.54-0.09c-0.12-.18-0.1-0.28.06-0.32a4.13,4.13,0,0,1,.54-0.07,0.2,0.2,0,0,1,.1,0c0.14-.22.19-0.21,0.33,0a1.17,1.17,0,0,0,.23.2,1.79,1.79,0,0,1,.06-0.2,0.71,0.71,0,0,1,.1-0.14,1.12,1.12,0,0,1,.09.15,0.49,0.49,0,0,1,0,.14L37,56.53c0,0.08,0,.17,0,0.26l0.23-.09a0.23,0.23,0,0,0,.35,0,0.13,0.13,0,0,1,.1,0,1.55,1.55,0,0,1,.45.43,0.9,0.9,0,0,0,.29.29l0-.32,0.3,0.2L39,57.48a0.5,0.5,0,0,0,.17.13c0.16,0,.14.14,0.09,0.23a0.31,0.31,0,0,1-.34.21,0.31,0.31,0,0,0-.13,0l-0.27.08-0.11,0a0.24,0.24,0,0,1-.12,0c-0.17-.13-0.28,0-0.41.08a0.33,0.33,0,0,1-.22,0,0.85,0.85,0,0,1-.17-0.07,1.61,1.61,0,0,0-.08.26,0.32,0.32,0,0,0,.05.14c-0.18.06-.24,0-0.24-0.16a0.23,0.23,0,0,0-.34-0.22,0.25,0.25,0,0,1-.19,0,0.15,0.15,0,0,0-.24.08c-0.11.2-.19,0.22-0.37,0.09s-0.18-.05-0.19.09a0.32,0.32,0,0,1-.21.34,0.46,0.46,0,0,0-.13.2c-0.19-.12-0.27-0.07-0.36.15a0.65,0.65,0,0,1-.22.26c-0.09.06-.18,0.05-0.21-0.1a0.91,0.91,0,0,0-.21-0.27,0.6,0.6,0,0,1,.48.13l0,0a1.45,1.45,0,0,0-.17-0.33,4.15,4.15,0,0,0-.42-0.33c0,0.12-.05.29-0.1,0.45a0.22,0.22,0,0,1-.1.14A0.54,0.54,0,0,1,34,59a0.42,0.42,0,0,1-.08-0.16l-0.41.38-0.18-.29,0.22,0c0-.09-0.13-0.19.08-0.25l-0.06,0a0.29,0.29,0,0,0-.16,0,1.41,1.41,0,0,0-.29.46c0,0.18-.1.2-0.23,0.16l-0.13,0c0.12-.15.25-0.3,0.36-0.46a0.48,0.48,0,0,0-.07-0.22c-0.06.34-.12,0.37-0.35,0.23,0,0.07-.08.14-0.12,0.21a0.57,0.57,0,0,1-.18.17c0-.08,0-0.16,0-0.25l-0.23-.07c0,0.15,0,.27,0,0.4-0.2,0-.23-0.09-0.3-0.54l-0.22,0a0.21,0.21,0,0,0-.12.07,0.2,0.2,0,0,0,0,.11,0.63,0.63,0,0,1,.17.23,0.66,0.66,0,0,1-.16.4,0.31,0.31,0,0,0-.09.43,1.24,1.24,0,0,0-.2,0L31,60a1,1,0,0,0-.21,0,0.54,0.54,0,0,0-.31.13,0.86,0.86,0,0,0,0,.39c0.34-.32.27-0.32,0.53-0.09l-0.19.07a1.21,1.21,0,0,0-.2.09,3,3,0,0,0-.24.2l0.23,0.26-0.6,0A0.51,0.51,0,0,1,29.94,61a0.72,0.72,0,0,0-.23-0.08,0.18,0.18,0,0,0-.1.11,0.23,0.23,0,0,0,.08.09,0.35,0.35,0,0,1,.14.1,0.7,0.7,0,0,1-.05.23l0.13,0.42,0.31-.18,0,0c-0.05.14-.1,0.28-0.17,0.41a0.16,0.16,0,0,1-.14,0c-0.09-.18-0.17-0.09-0.24,0a0.46,0.46,0,0,0,0,.51h0l-0.19.12c0-.3,0-0.57,0-0.85L29.65,62l0.09-.39-0.06,0-0.49.3A0.29,0.29,0,0,0,29,61.46a1.81,1.81,0,0,1-.32-0.25c0.09-.11.16-0.07,0.24,0l0.2,0.16c0.1-.19.05-0.17-0.26-0.41,0.07-.14.15-0.16,0.26-0.05s0.3,0.13.37-.06a0.11,0.11,0,0,1,.17-0.09,0.15,0.15,0,0,0,.13-0.06,0.5,0.5,0,0,0,0-.22,0.14,0.14,0,0,0-.12-0.06c-0.17.05-.35,0.11-0.52,0.18a0.26,0.26,0,0,0-.07.1l-0.3-.3,0,0,0.07,0.12c-0.08.13-.16,0.25-0.22,0.37s-0.1.17-.22,0l-0.12-.11c-0.1.21-.23,0.07-0.36,0l-0.08.44,0.25-.18,0.27,0.3-0.2.07a0.58,0.58,0,0,0,.64-0.08l0.08,0.28h0l-0.24,0L28.86,62c-0.15-.06-0.25-0.06-0.32.13a0.42,0.42,0,0,1-.29,0c-0.12-.06-0.13-0.18,0-0.29A0.18,0.18,0,0,0,28,62l-0.22-.28h0c-0.06-.15-0.1-0.29-0.17-0.43a0.19,0.19,0,0,0-.17,0,0.46,0.46,0,0,0,0,.65,0.28,0.28,0,0,1,.09.18,2.11,2.11,0,0,1,0,.46,0.31,0.31,0,0,1-.16.17,0.41,0.41,0,0,1-.18,0s0,0,0-.06l0.11,0c0.11,0,.12-0.1.1-0.21a2.51,2.51,0,0,1,0-.33c-0.1-.07-0.22-0.25-0.41-0.05a0.28,0.28,0,0,0-.09.33c0.13-.07.25-0.21,0.37,0a0.18,0.18,0,0,1,0,.15,0.43,0.43,0,0,1-.46,0,1,1,0,0,1-.11-0.19l0-.09c-0.17-.29-0.17-0.29.1-0.49a0.58,0.58,0,0,1,0-.61,0.15,0.15,0,0,0,0-.07c0-.16,0-0.23.18-0.22l0.27,0a0.09,0.09,0,0,0,0-.17c-0.17,0-.16-0.17-0.14-0.3s0-.19-0.13-0.19c0,0.42,0,.42-0.18.48l0.08-.19-0.21-.12,0,0a1.35,1.35,0,0,1-.13.59,1,1,0,0,0,0,.34,0.82,0.82,0,0,1,0,.14l-0.11,0a0.08,0.08,0,0,1,0,0,2.34,2.34,0,0,1-.46.2,0.27,0.27,0,0,1-.24-0.14,3,3,0,0,1,0-.56l0.06,0,0.2,0.29a0.45,0.45,0,0,0,.12.07A0.28,0.28,0,0,0,26,61a0.25,0.25,0,0,1-.06-0.39,0.24,0.24,0,0,0,.25-0.27,3.76,3.76,0,0,0,0-.38l0.39,0.22a0.34,0.34,0,0,0-.19-0.35,0.45,0.45,0,0,0-.21.14,0.94,0.94,0,0,0-.21.09c-0.08.06-.16,0.16,0,0.25a0.21,0.21,0,0,1,0,.31c-0.24-.1-0.29-0.08-0.44.15a0.57,0.57,0,0,1-.17.12,0.76,0.76,0,0,1,.09.08s0,0.09.08,0.13a0.52,0.52,0,0,1-.17,0,0.8,0.8,0,0,1-.19-0.11,0.68,0.68,0,0,1,0,.19,0.19,0.19,0,0,1-.06.13,1.23,1.23,0,0,1-.2.12A0.32,0.32,0,0,1,25,60.94l-0.31-.26,0,0.18-0.68-.2-0.05,0a3.84,3.84,0,0,0,.14.42c0.05,0.09.13,0.11,0.19,0L24.28,61l0.21,0.21-0.06.14,0.5,0.41a0.19,0.19,0,0,1,.32-0.05c0.07,0.06.13,0,.12-0.12a1,1,0,0,0-.05-0.15l0.06,0a1.17,1.17,0,0,1,.11.15,0.65,0.65,0,0,0,.09.21A5.14,5.14,0,0,0,26,62a0.84,0.84,0,0,1,.06-0.27,0.43,0.43,0,0,1,.22-0.15,0.44,0.44,0,0,0,.18.63,0.36,0.36,0,0,1,.05.26,1.13,1.13,0,0,1-.11.29l-0.28-.18a0.68,0.68,0,0,0,.17-0.1,0.28,0.28,0,0,0,0-.13,0.27,0.27,0,0,0-.15,0c-0.1.09-.18,0.2-0.28,0.32l-0.1-.08a0.15,0.15,0,0,0-.25,0,0.58,0.58,0,0,1-.11.09l-0.09.1a0.49,0.49,0,0,0,.13.06,0.29,0.29,0,0,0,.14,0c0.1,0,.2-0.09.25,0a0.54,0.54,0,0,1-.07.24l0.11,0.11-0.27.41h0a2.73,2.73,0,0,0-.08-0.3c0-.1-0.1-0.19-0.17-0.33l-0.07.14-0.08.15a0.84,0.84,0,0,1-.12-0.19,1.75,1.75,0,0,1,0-.28l-0.18.13a0.33,0.33,0,0,0-.34-0.26,0.37,0.37,0,0,1-.14-0.18,1.18,1.18,0,0,0-.16-0.25c0,0.08,0,.16,0,0.24a0.31,0.31,0,0,1-.2.41A0.41,0.41,0,0,0,24,63a2,2,0,0,0-.14.17,1.33,1.33,0,0,0,.31.05c0.07,0,.12-0.09.22-0.1a1.91,1.91,0,0,1-.56.85c0.23,0.16.24,0.18,0.12,0.41a0.81,0.81,0,0,0,0,.17l-0.05.25-0.18-.09a0.69,0.69,0,0,1-.25,0,0.93,0.93,0,0,1-.22-0.2l-0.08.4,0.18-.1c0.18,0.16.18,0.19,0,.3a0.25,0.25,0,0,0-.1.08,0.57,0.57,0,0,0,0,.14,0.26,0.26,0,0,0,.13,0,0.57,0.57,0,0,0,.39-0.43c0.14,0.11,0,.21,0,0.32s-0.06.24-.11,0.41c0.26-.13.48-0.17,0.64,0.13l-0.44.3a0.64,0.64,0,0,0-.1-0.26,0.25,0.25,0,0,0-.36,0l-0.2.19h0L22.84,66v0a0.9,0.9,0,0,1-.25.06c-0.2,0-.21,0-0.18.22a0.3,0.3,0,0,1-.05.17,0.13,0.13,0,0,1-.08,0,0.54,0.54,0,0,1,0-.14,0.36,0.36,0,0,1,0-.2,0.24,0.24,0,0,0,0-.34c0.18,0.06.37,0.15,0.49-.11h0A0.56,0.56,0,0,0,23,65c0,0.1-.09.17-0.11,0.24a0.58,0.58,0,0,1,0,.16,1.13,1.13,0,0,1-.36.12,0.67,0.67,0,0,1-.1-0.21c-0.26.22-.26,0.22-0.12,0.43a1,1,0,0,1-.18,0,0.28,0.28,0,0,0-.35.25h0.36l0,0a0.24,0.24,0,0,0-.17.35c-0.13.07-.21,0-0.23-0.11s-0.13-.14-0.22-0.14a0.23,0.23,0,0,0-.16.08,0.63,0.63,0,0,0,.09.25,3.56,3.56,0,0,0,.25.31l0.13-.1,0,0-0.25.48-0.27,0a2.74,2.74,0,0,0,.06-0.31,0.21,0.21,0,0,0,0-.15,0.14,0.14,0,0,0-.13,0,0.41,0.41,0,0,0,0,.17,0.26,0.26,0,0,1,0,.14l-0.34-.3-0.1.31,0.15,0a1.17,1.17,0,0,1-.38.68l0.13-.61-0.26.06,0.23-.49,0-.05-0.44.17,0,0L20,67l0.19,0.16,0.26,0.2a1.06,1.06,0,0,0-.33.23,0.85,0.85,0,0,0,0,.38h0l-0.08-.17c-0.17,0-.37.21-0.52-0.12l0.4,0c-0.22-.23-0.39-0.06-0.59,0L19.66,68l0,0.05-0.32-.14c0,0.19-.17.3-0.44,0.25,0,0.07,0,.14-0.08.21s-0.07.12-.13,0.22a4.83,4.83,0,0,1,0-.5c0-.23-0.12-0.2-0.28-0.18l0.11,0.33a0.25,0.25,0,0,0-.06.36c0.07,0.16,0,.24-0.16.2a0.46,0.46,0,0,0-.43.09,1.33,1.33,0,0,1-.16.09c0-.11,0-0.11.19-0.27,0-.09,0-0.17,0-0.28a1.51,1.51,0,0,0-.44.25h0a0.3,0.3,0,0,0-.4,0c-0.12.1-.22,0.06-0.26-0.1s0-.19-0.12-0.13a0.62,0.62,0,0,0-.14.24s0,0,0,.06,0,0.11,0,.16a0.3,0.3,0,0,1-.15-0.06c-0.06-.16-0.1-0.33-0.16-0.53L16,68.58,15.6,68.1c0-.14,0-0.31,0-0.49l0.12,0.06,0,0-0.19-.23,0.11-.08a0.91,0.91,0,0,0,0-.09c-0.06-.16-0.13-0.31-0.19-0.47a0.61,0.61,0,0,1,0-.14c0-.1,0-0.19,0-0.29H15.39l0,0.19a0.51,0.51,0,0,1-.11-0.15,0.17,0.17,0,0,1,.06-0.11l0.24,0.1,0.19,0.12c-0.13-.33-0.12-0.37.2-0.59l-0.17-.07,0.51-.19a0.11,0.11,0,0,0,0-.1,0.53,0.53,0,0,0-.12-0.1c0.08-.07.12-0.25,0.27-0.08,0.13-.18-0.07-0.27-0.1-0.42l0.2,0-0.05-.23,0.25,0.14a0.14,0.14,0,0,0,0,.07,1,1,0,0,0,.11.1L17,64.93l-0.13-.1a0.12,0.12,0,0,0-.07,0l0.1-.38h0.06c0,0.06,0,.13,0,0.19h0c0-.17,0-0.35.06-0.52h0.05l0.09,0.38a1.61,1.61,0,0,0,.29-0.38,1.79,1.79,0,0,0,0-.51,0.33,0.33,0,0,0,.53,0,1,1,0,0,0,0-.67l0,0,0.41,0.39,0.4-.72L19,62.73a0.35,0.35,0,0,0-.15-0.43L19,62.17c0.17,0.14.29,0.07,0.41-.26l-0.2.14c-0.07-.23,0-0.29.16-0.36s0.13-.22.08-0.33A0.94,0.94,0,0,1,19.49,61a0.15,0.15,0,0,1,.09,0,0.28,0.28,0,0,1,.07.13c0,0.09,0,.18,0,0.27a0.54,0.54,0,0,0,.2-0.6,0.83,0.83,0,0,1,.07-0.67c0.1-.18,0-0.32-0.24-0.38,0-.1.08-0.2,0.11-0.3a1.06,1.06,0,0,0,.07-0.27,3.18,3.18,0,0,0,0-.57,0.33,0.33,0,0,0-.17-0.21c-0.23-.11-0.27-0.22-0.09-0.45l0.26,0.24c0-.3-0.21-0.43-0.55-0.36a0.4,0.4,0,0,1,.16-0.52,0.12,0.12,0,0,0,0-.22c-0.08-.06-0.17-0.09-0.26-0.15a0.21,0.21,0,0,1-.1-0.12,0.42,0.42,0,0,1,.11-0.2,0.94,0.94,0,0,1,.18-0.12c-0.07-.14-0.14-0.26-0.19-0.38a4.12,4.12,0,0,1-.11-0.45,0.26,0.26,0,0,1,.19-0.38,0.3,0.3,0,0,0,.09-0.08,0.48,0.48,0,0,1-.61-0.59l-0.16,0c0-.28,0-0.32.29-0.36a0.22,0.22,0,0,0,.08-0.3c0-.07-0.09-0.13-0.13-0.21a0.24,0.24,0,0,1,0-.33,0.24,0.24,0,0,0,0-.1,0.25,0.25,0,0,0-.12,0,0.83,0.83,0,0,0-.14.11,0.69,0.69,0,0,1,.12-0.64l-0.22.13h0l0.23-.36H18.43a1.05,1.05,0,0,0,.16-0.27,0.33,0.33,0,0,0-.13-0.41,1.88,1.88,0,0,0,0-.32,0.23,0.23,0,0,1,.13-0.34A0.21,0.21,0,0,0,18.66,51c-0.08-.25.05-0.31,0.25-0.32l-0.12-.21-0.27.23,0,0a0.41,0.41,0,0,1,.1-0.18,0.29,0.29,0,0,0,.26-0.34h0.12a0.55,0.55,0,0,1,0-.08,0.32,0.32,0,0,1,0-.15,1.12,1.12,0,0,0,.46-0.45l0.24-.17,0.19-.12,0-.06-0.13,0a0.14,0.14,0,0,1,0-.05l0.39-.22,0.37-.17a0.71,0.71,0,0,0,.16-0.12,1.92,1.92,0,0,0,.27-0.14,1.26,1.26,0,0,1,.35-0.24c0.14,0,.25-0.18.38-0.24s0.47-.19.71-0.28a1.4,1.4,0,0,0,.17-0.11l0.18-.1,0.75-.41a0.12,0.12,0,0,0,0-.1,2.23,2.23,0,0,0-.67.3,1,1,0,0,1-.41.15c-0.13,0-.26.07-0.38,0.12s-0.33.19-.5,0l0,0,0,0.19c-0.09.08-.2,0.17-0.3,0s-0.13-.24,0-0.33c-0.16-.07-0.23,0-0.35.18,0-.13,0-0.27,0-0.42l-0.17,0h0c0-.06.11-0.2-0.08-0.16l-0.2-.1,0-.21c0.15,0.22.18-.06,0.27-0.08a0.22,0.22,0,0,0,0-.16c-0.07-.05-0.12-0.22-0.25-0.1-0.12,0-.13,0-0.13.12a0.34,0.34,0,0,1-.22.37h0l0-.17,0,0-0.23.19h0l-0.23-.07L20,46.59l0.36,0-0.17-.88a0.15,0.15,0,0,0,0-.26,0.3,0.3,0,0,1,0-.13l0-.08,0.12,0.21c0.08,0,.22,0,0.22-0.15l-0.37-.18h0s0-.09,0-0.16l0.13,0.09c0.13,0.11.17,0.08,0.25-.07a0.81,0.81,0,0,1,.27-0.19H20.63l-0.08-.25c-0.09.13-.14,0.29-0.29,0.21,0-.11,0-0.2,0-0.29,0.36-.11.33-0.16,0.28-0.37a0.63,0.63,0,0,0-.1-0.2,0.09,0.09,0,0,0-.09,0,0.14,0.14,0,0,0-.06.1c0,0.12.07,0.24,0.09,0.32l-0.13.19-0.16-.08a0.14,0.14,0,0,1-.06-0.1,0.3,0.3,0,0,1,.11-0.08,0.52,0.52,0,0,1,.17-0.61,0.12,0.12,0,0,0,0-.07c0-.14,0-0.28,0-0.43a1.9,1.9,0,0,0-.55-0.35l0-.12a0.23,0.23,0,0,0-.11-0.36h0a0.83,0.83,0,0,0-.1-0.9h0Zm3.88,22.56-0.29-.06a0.45,0.45,0,0,0,.12.16,0.63,0.63,0,0,0,.17-0.1c0.1,0,.19,0,0.16-0.17a0.18,0.18,0,0,0-.25-0.17,1.18,1.18,0,0,1,.07.17C23.54,63.81,23.54,63.87,23.55,63.92Zm-1.34-9c-0.1.11-.06,0.2,0.15,0.29L22.28,55l-0.08-.15L22.55,55c0-.12,0-0.2,0-0.31l0.18,0.13,0-.31H22.6c-0.15,0-.26,0-0.21-0.24a0.28,0.28,0,0,0,0-.13h0l-0.05.26-0.14-.13c-0.15.16-.06,0.27,0.05,0.39l0.09-.11,0,0C22.26,54.67,22.24,54.78,22.21,54.88Zm9,4.13v0l-0.33-.19a0.22,0.22,0,0,0-.09,0l0.06,0.09A0.53,0.53,0,0,1,31,59c0,0.08,0,.17.05,0.25s0,0.17-.1.17H30.52c0.09-.26-0.11-0.32-0.31-0.39a0.33,0.33,0,0,0,.06.17,0.19,0.19,0,0,1-.08.33c-0.12,0-.24.06-0.37,0.09,0.08,0.15.09,0.27-.13,0.27a0.2,0.2,0,0,0,0,.14c0.07,0.1.15,0.19,0.23,0.29a2.75,2.75,0,0,0,.31-0.12A0.38,0.38,0,0,0,30.33,60c0.09-.14.17-0.29,0.26-0.44a0.12,0.12,0,0,1,.09,0l0.44,0,0.31-.23a0.38,0.38,0,0,0,.11-0.16,0.79,0.79,0,0,0-.2-0.19A0.17,0.17,0,0,0,31.24,59Zm-8.5-6.42L22.88,53l-0.22.13a2.28,2.28,0,0,0,.15.19,1.17,1.17,0,0,0,.19.14l0.2,0.09c0-.07,0-0.14,0-0.22a0.86,0.86,0,0,1,0-.25,0.17,0.17,0,0,0-.06-0.23A1,1,0,0,1,23,52.63c0.14-.09.26,0.14,0.37-0.08L23,52.48c-0.14,0-.2-0.17-0.13-0.25L23,52.11,22.82,52l-0.05-.32H22.55c0,0.34,0,.36.13,0.5a0.35,0.35,0,0,0-.12.09c-0.05.1-.09,0.2-0.14,0.31Zm5.64,7.29-1-.26,0,0,0.34,0.53,0.06,0A0.44,0.44,0,0,1,27.7,60a0.2,0.2,0,0,1,0-.14,0.13,0.13,0,0,1,.12,0,1.47,1.47,0,0,1,0,.28,1.82,1.82,0,0,1,0,.21H28l-0.21.35,0,0a0.58,0.58,0,0,0,.16-0.12C28.1,60.41,28.23,60.16,28.39,59.88ZM23.24,62.2l-0.06.09c-0.12.14,0,.22,0.07,0.32a0.21,0.21,0,0,0,.16,0,0.51,0.51,0,0,0,.06-0.23,0.62,0.62,0,0,1,.12-0.54l-0.38-.3s0,0.07,0,.09,0,0.11,0,.16l-0.13,0-0.21,0Zm-1.05-13-0.42-.11a3.34,3.34,0,0,0,.12.38,2.6,2.6,0,0,0,.18.31l0.08-.05L22,49.31l0.17,0.11a0.16,0.16,0,0,0,.27-0.08A0.23,0.23,0,0,0,22.26,49Zm-0.17,1H22c-0.05.15,0.05,0.37-.19,0.42l0.3,0.61-0.25.13,0.36,0.29a1.54,1.54,0,0,0-.12-0.67c-0.16-.18-0.12-0.23.08-0.39a0.34,0.34,0,0,0,.06-0.1l-0.12,0Zm0,15.23a1.07,1.07,0,0,1,.35-0.23,0.84,0.84,0,0,1,.36.13,0.47,0.47,0,0,0-.27-0.41,0.25,0.25,0,0,0-.22.06A0.54,0.54,0,0,0,22,65.38Zm2.69-8.16a0.85,0.85,0,0,0-.15-0.38,0.45,0.45,0,0,0-.46,0c0.08,0.31.09,0.31,0.35,0.3A0.84,0.84,0,0,1,24.74,57.22Zm-2.81,5.39,0.32,0.09h0.13a0.37,0.37,0,0,0,0-.14c-0.09-.15-0.18-0.29-0.3-0.47ZM21.58,66a1,1,0,0,1,.14-0.24,0.8,0.8,0,0,1,.23-0.11c-0.12-.09-0.21-0.16-0.3-0.21s-0.2-.11-0.28.06C21.64,65.59,21.4,65.91,21.58,66Zm2.37-8a0.39,0.39,0,0,1,0-.58h0.24l-0.1-.16a1.2,1.2,0,0,1,0-.12C23.7,57.46,23.65,57.83,23.95,58Zm5.28,1c-0.13.18-.1,0.27,0,0.36l0.18,0.15a0.25,0.25,0,0,0,.13.08,0.21,0.21,0,0,0,.09-0.15,0.18,0.18,0,0,0-.1-0.13A0.3,0.3,0,0,1,29.23,59Zm-6.91,4.28a1.67,1.67,0,0,0-.25,0,0.21,0.21,0,0,0-.12.1,0.13,0.13,0,0,0,0,.11,0.19,0.19,0,0,0,.15,0c0.07,0,.13-0.09.2-0.12a0.2,0.2,0,0,0,.1-0.3,0.12,0.12,0,0,0-.11,0,0.13,0.13,0,0,0-.06.1A0.41,0.41,0,0,0,22.32,63.27Zm1.35-1.77a0.63,0.63,0,0,1,0-.29,0.82,0.82,0,0,0,.08-0.53A0.59,0.59,0,0,0,23.67,61.5ZM22.56,48.82c0,0.08,0,.15,0,0.22s0,0.13,0,.21a0.51,0.51,0,0,0,0-.69l0.13,0,0-.06-0.2-.08-0.07.35h0.15ZM24,62.15l-0.29.27,0.24,0-0.06.17c0.16,0,.19-0.08.24-0.19S24.09,62.21,24,62.15Zm-0.6-.87c-0.12-.26-0.34-0.19-0.6-0.13l0.33,0.22C23.22,61.23,23.22,61.23,23.39,61.28Zm-0.07,3.06s0,0.05,0,.08a0.34,0.34,0,0,0,.2,0,0.86,0.86,0,0,0,.21-0.2,0.47,0.47,0,0,0,0-.13,0.33,0.33,0,0,0-.15,0C23.52,64.18,23.42,64.26,23.32,64.34Zm-1.15-11c-0.13.49-.13,0.49,0,0.54l0.1-.24a0.38,0.38,0,0,0,.08-0.15A0.68,0.68,0,0,0,22.17,53.36Zm3,5.82-0.34-.69A0.5,0.5,0,0,0,25.19,59.18Zm-2.37,4.89c-0.07-.11-0.1-0.18-0.15-0.25a0.55,0.55,0,0,0-.11-0.09,0.35,0.35,0,0,0-.08.15,0.42,0.42,0,0,0,.3.3ZM27,59.77a0.4,0.4,0,0,0-.1-0.12,1.26,1.26,0,0,0-.24.17,0.52,0.52,0,0,0,.15.14C26.91,60,27,60,27,59.77Zm-2,.28h0.06a2.52,2.52,0,0,1,.22-0.2c0.16-.11.16-0.1,0.1-0.19l-0.34.06C25.08,59.84,25.07,59.95,25.05,60.06ZM22.47,50.5l0.29-.15L22.24,50l0,0.25C22.42,50.23,22.5,50.29,22.47,50.5Zm2.66,10.11,0.06,0,0.22-.33-0.3,0,0,0ZM25.41,62l0.48,0.3a0.6,0.6,0,0,0-.33-0.42A0.47,0.47,0,0,0,25.41,62Zm-4.53,4.6,0.05,0,0.25-.52a0.48,0.48,0,0,0-.23.06A3.17,3.17,0,0,0,20.88,66.61Zm1.9-12.52a0.19,0.19,0,0,0,.08,0,0.27,0.27,0,0,0,0-.17,3.68,3.68,0,0,0-.22-0.34l-0.09.08,0.08,0.07a0.25,0.25,0,0,1,.07.07C22.76,53.86,22.77,54,22.78,54.09Zm6.35,5.44H29c0,0.14-.06.27-0.08,0.42A0.11,0.11,0,0,0,29,60a0.15,0.15,0,0,0,.1-0.07C29.13,59.81,29.13,59.67,29.13,59.53Zm-9.93,7.77-0.27,0a0.9,0.9,0,0,0,0,.28,0.14,0.14,0,0,0,.22.07A0.72,0.72,0,0,1,19,67.5,0.72,0.72,0,0,1,19.21,67.31Zm8-7.56c0,0.35,0,.39.33,0.34A1,1,0,0,0,27.17,59.74Zm-3.08-1.82a0.39,0.39,0,0,0,.26-0.31C24.08,57.59,24,57.69,24.09,57.92Zm0.46,0.91c0.08-.12.11-0.22,0-0.3a0.18,0.18,0,0,0-.18,0C24.3,58.77,24.5,58.72,24.56,58.83ZM21.46,51l0.06,0,0.1-.15c0,0.05,0,.09,0,0.12l0.05,0a1.17,1.17,0,0,0,0-.24,0.23,0.23,0,0,0-.13-0.06C21.56,50.84,21.52,50.94,21.46,51Zm1.4-2.64c0,0.14,0,.25-0.05.36a0.17,0.17,0,0,0,.12,0C23.07,48.71,23.05,48.57,22.87,48.41Zm6.94,10.68a0.94,0.94,0,0,0-.1.13c0.06,0.08.12,0.15,0.19,0.22A0.33,0.33,0,0,0,30,59.32,1.37,1.37,0,0,0,29.81,59.09ZM20.67,51c-0.09-.27-0.18-0.33-0.41-0.27A0.84,0.84,0,0,0,20.67,51Zm4.8,11.19c-0.07.2-.15,0.39-0.41,0.22,0.06,0.19.15,0.19,0.26,0.14A0.24,0.24,0,0,0,25.48,62.22Zm-5.91-.31h0a1.38,1.38,0,0,0-.08.15,1.3,1.3,0,0,0-.05.19l0.07,0a0.93,0.93,0,0,0,.14-0.21A0.32,0.32,0,0,0,19.56,61.9ZM23.48,53c-0.17.2-.13,0.4,0,0.46C23.5,53.29,23.49,53.14,23.48,53ZM34,58.38c0,0.32.16,0.41,0.32,0.29ZM20.2,42.31l0.07,0c0-.35,0-0.43-0.18-0.36a0.6,0.6,0,0,1,.08.14A1.67,1.67,0,0,1,20.2,42.31Zm1.15,8.38,0,0c0-.07,0-0.15-0.07-0.23a0.14,0.14,0,0,0-.05-0.09,0.1,0.1,0,0,0-.09,0,0.14,0.14,0,0,0,0,.12A2,2,0,0,0,21.35,50.7ZM17.56,64.32c-0.27.1-.12,0.33-0.19,0.48l0.06,0Zm5.89-7a2.74,2.74,0,0,0-.1.27,0.3,0.3,0,0,0,0,.12,0.2,0.2,0,0,0,.09,0A0.24,0.24,0,0,0,23.45,57.33Zm5.38,2.47c-0.24,0-.28,0-0.28.19C28.66,60,28.8,60,28.83,59.8Zm-4.06,2.61,0,0.06A0.52,0.52,0,0,0,25,62.4,0.49,0.49,0,0,0,25,62.22l-0.06,0ZM21.24,49l-0.06,0a0.35,0.35,0,0,0-.06.18,0.76,0.76,0,0,0,.15.21l0,0ZM38,57.15l0,0A0.71,0.71,0,0,0,37.86,57a0.45,0.45,0,0,0-.2.08Zm-8.39,3.16-0.36-.18C29.28,60.34,29.39,60.37,29.59,60.32Zm-7.08-6.63-0.08,0,0.15,0.32,0.08,0Zm2.19,3.09,0.23-.06,0-.05-0.18-.11Zm-1.83,5.59,0.08,0a0.4,0.4,0,0,0,0-.17,0.29,0.29,0,0,0-.16,0l0,0.08Zm-1.6-10.61a0.29,0.29,0,0,0,0,.11L21.46,52,21.51,52l-0.13-.14ZM20.71,65.59c0,0.2,0,.22.27,0.18Zm1.82-10.18,0.15-.2-0.21-.1,0,0Zm1.65,6s0-.07,0-0.11l-0.21,0a0.32,0.32,0,0,0,0,.1Zm-1.93.2,0.11,0.14,0.1-.09a1.18,1.18,0,0,0-.1-0.13A0.39,0.39,0,0,0,22.25,61.64Zm4.11-1.19a0.39,0.39,0,0,0-.09.11,0.2,0.2,0,0,0,.09.11,0.22,0.22,0,0,0,.1-0.07ZM21.85,41.77h0c0,0.11,0,.23,0,0.36l0.16-.1ZM25,57.82L25,57.76l-0.15-.2-0.06.07ZM19.09,53l-0.08,0,0.13,0.28,0.08,0Zm4.47,3.73-0.08,0L23.58,57l0.08-.05Zm-0.73,5.16a0.75,0.75,0,0,0-.13-0.12,0.13,0.13,0,0,0-.08.06,0.27,0.27,0,0,0,.07.14A0.37,0.37,0,0,0,22.82,61.92ZM24,58.56l0,0a0.23,0.23,0,0,0-.11.06,0.7,0.7,0,0,0,0,.2h0ZM24.29,59V59l0.33,0V59Zm-2.57-7.28L21.91,52l0,0A0.3,0.3,0,0,0,21.72,51.68Zm0,11.15v0.1l0.2,0V62.81Zm1.09-14.77,0.09,0,0.08-.17-0.09,0A1.77,1.77,0,0,0,22.77,48.06ZM20.22,66.17c0.1,0.2.13,0.22,0.27,0.15Zm0.27-.29,0.06-.08-0.17-.12a0.24,0.24,0,0,0,0,.07ZM23,53.63l-0.07,0c0,0.08.06,0.17,0.08,0.25l0.07,0Zm-2-6.35,0.09,0a0.48,0.48,0,0,0,0-.16,0.23,0.23,0,0,0-.1-0.06C21,47.15,21,47.22,21,47.28Zm1.24,5.12c0-.14,0-0.22.06-0.33C22.17,52.14,22.17,52.15,22.28,52.4Zm2,9.27a0.64,0.64,0,0,0-.11.12,0.1,0.1,0,0,0,.05.07,0.21,0.21,0,0,0,.11-0.07A0.5,0.5,0,0,0,24.27,61.67Zm0.62-2.29L25.1,59.5C25.1,59.33,25,59.33,24.89,59.39Zm-5.42-2-0.05.08,0.17,0.1,0-.05ZM16.08,68.23l0-.07-0.22-.07,0,0.08Zm6.45-12a0.3,0.3,0,0,0-.07.09,0.48,0.48,0,0,0,.08.11,0.21,0.21,0,0,0,.06-0.05A1.05,1.05,0,0,0,22.53,56.19ZM23,54.51c-0.19.13-.19,0.15,0,0.24Zm1,4.69,0.08,0L23.94,59l-0.06,0Zm1.89,0h0a0.56,0.56,0,0,0,0,.16,0.31,0.31,0,0,0,.16,0Zm-2.73,6.39s0,0,0,.07h0.15s0-.06,0-0.09Zm-0.29-.87,0-.07-0.17.09,0,0.07ZM21,63.87l0.07,0,0.11-.21-0.06,0Z" transform="translate(0)" fill="#fae90b" fill-rule="evenodd"/><path d="M18.23,33.88l0.07-.17c0-.1-0.28,0-0.08-0.25l0.14,0.13,0,0a2.45,2.45,0,0,0-.17-0.4,0.18,0.18,0,0,1,0-.25,0.39,0.39,0,0,0,0-.18l0.19,0.1,0.06-.3,0.06-.07,0.06,0c0,0.09,0,.25.19,0.24h0a0.69,0.69,0,0,0,.43.62l-0.08-.15,0,0,0.25,0.13s0,0,0,0c-0.22,0-.24.18-0.19,0.38l0.17,0a0.45,0.45,0,0,1,0,.48,0.16,0.16,0,0,0,0,.13c0.06,0.07.13,0.13,0.23,0.23H19.45c0,0.08,0,.15,0,0.18l0.24,0.07c0.14,0,.14.13,0.09,0.25a0.4,0.4,0,0,0,.21.45c0-.05,0-0.11,0-0.17H20l0.08,0.17h0c0,0.08-.1.16-0.15,0.24a0.62,0.62,0,0,0,0,.15c-0.13,0-.25-0.05-0.24.2l0.24-.21a0.9,0.9,0,0,1-.06.26,0.23,0.23,0,0,0,.09.35,0.26,0.26,0,0,1,.14.33H19.93v0.05l0.08,0c0,0.15-.05.3-0.09,0.5L20.27,37l0.22,0.32,0,0.06-0.36,0-0.36,0,0,0.05,0.22,0.08-0.1.23-0.15-.12-0.15,0-0.2,0a1,1,0,0,1,0-.23,0.51,0.51,0,0,1,.08-0.16l-0.38,0L19,37.39l-0.09-.17A0.32,0.32,0,0,0,19,36.85a0.62,0.62,0,0,1,0-.29c-0.05-.1-0.42,0-0.18-0.3l-0.14-.08,0.07-.46-0.14-.11,0.25-.15-0.32-.16,0-.06h0.15c0-.1,0-0.19,0-0.34l-0.12.17c-0.12-.12,0-0.41-0.25-0.4l0.07-.12a1.18,1.18,0,0,1-.22-0.13,0.71,0.71,0,0,1-.1-0.2l0,0,0.16,0.08A0.28,0.28,0,0,0,18.23,33.88Zm1.11,0.31,0-.43c-0.05.15-.3-0.15-0.28,0.14A0.31,0.31,0,0,0,19.34,34.19Zm-0.49-1,0,0.08,0.26,0.05,0-.09Z" transform="translate(0)" fill="#fae90b" fill-rule="evenodd"/><path d="M10.85,3.28l-0.11.16h0c0-.13,0-0.26-0.07-0.39l0.18-.09-0.14-.14a0.21,0.21,0,0,0-.09,0h0l0.12-.35a0.27,0.27,0,0,0-.11.1c-0.11.14-.18,0.13-0.25,0a0.53,0.53,0,0,0-.1-0.12h0c0-.11,0-0.23,0-0.35,0.12,0.05.22,0,.2-0.16l0.19,0.25h0c0-.08,0-0.16,0-0.27L11,1.76l0,0.06,0.06-.18a0.31,0.31,0,0,0,.28-0.14,0.74,0.74,0,0,1,.37-0.16l0.16-.06a0.8,0.8,0,0,1,.22-0.07L12.64,1l-0.08.23c0,0.08-.05.16-0.08,0.23s0,0.17-.07.26-0.06.15-.08,0.22H12.27l-0.12-.24c-0.1,0-.23.11-0.29-0.09l-0.21.09,0.19,0.34a2.11,2.11,0,0,0-.31.17,1,1,0,0,0-.13.21,0.65,0.65,0,0,1-.17.2,0.15,0.15,0,0,0,0,.25,0.41,0.41,0,0,1,0,.13l-0.13,0-0.32.06,0,0.07ZM11,2.68c0.16-.15.16-0.18,0-0.32Z" transform="translate(0)" fill="#fae90b" fill-rule="evenodd"/><path d="M11.33,10.63l-0.13-.29c0-.11,0-0.22,0-0.32h0l0.07-.16L11.36,10c0.06-.19-0.07-0.23-0.16-0.31a0.93,0.93,0,0,1,.64,0l0.06,0.17,0,0,0.14-.33c0.1,0.07.14,0.24,0.31,0.15L12.54,10,13,9.91c0-.08,0-0.14,0-0.2L13.16,10a0.36,0.36,0,0,0,0,.53l-0.29,0-0.06-.24h0l0,0.22h0l-0.14-.18,0,0-0.17-.09h0a0.51,0.51,0,0,0,0-.21,1.7,1.7,0,0,0-.23-0.24l0,0.27-0.2,0L11.69,10l0,0a6.21,6.21,0,0,0,.25.67,0.14,0.14,0,0,1,0,.22l-0.05-.11-0.07-.18a0.22,0.22,0,0,0-.08.06c-0.08.1-.16,0.13-0.24,0A0.25,0.25,0,0,0,11.33,10.63Z" transform="translate(0)" fill="#fae90b" fill-rule="evenodd"/><path d="M18.63,32.42l-0.06,0-0.1-.1a0.5,0.5,0,0,0-.09-0.12,1,1,0,0,0-.17.11h0L18,32.16a2.05,2.05,0,0,1,0,.4,0.29,0.29,0,0,1-.26.29,0.67,0.67,0,0,0-.05-0.79l0.4-.14-0.13-.17L18,31.65,18.49,32c0-.12,0-0.22,0-0.31l0.25,0,0.15,0.24c0.18-.14.27,0,0.36,0.12L19,32.13l0.19,0.43h0.07L19,32.94l-0.19-.29h0a0.34,0.34,0,0,0-.13-0.38Zm0-.36H18.9l-0.27-.22Z" transform="translate(0)" fill="#fae90b" fill-rule="evenodd"/><path d="M12,9l-0.08-.15c0-.12,0-0.24,0-0.36S12,8.27,12,8.14a3.23,3.23,0,0,0,.06-0.37,0.4,0.4,0,0,1,0,.6l0,0,0.15-.08a2.2,2.2,0,0,0-.07.26c0,0.11,0,.13.16,0.12l-0.05-.13,0.13-.15,0.35,0-0.16-.13c0-.08,0-0.13,0-0.19l0.26,0.1,0.12,0.12s0,0,0,0v0L13,8.46l0.12,0.06a0.35,0.35,0,0,1,.17.11,0.61,0.61,0,0,0-.2,0,0.43,0.43,0,0,0,0,.16c-0.16,0-.22.09-0.25,0.27l-0.27-.27,0,0.17,0,0.25c0,0.23-.17.09-0.27,0.09l0.06-.22-0.06,0Z" transform="translate(0)" fill="#fae90b" fill-rule="evenodd"/><path d="M12.11,7.77a3.23,3.23,0,0,1-.06.37,4,4,0,0,1-.16.39l-0.23-.18-0.18-.42,0-.14a0.58,0.58,0,0,1,0-.16,1.43,1.43,0,0,1,.15-0.14l0.32-.13a1.45,1.45,0,0,0,.11.22,0.21,0.21,0,0,0,.13,0Z" transform="translate(0)" fill="#fae90b" fill-rule="evenodd"/><path d="M18.5,40.65l-0.06.21,0.31,0c0,0.2-.16.47,0.15,0.64l-0.09,0-0.27-.35a0.22,0.22,0,0,0,0,.3,2,2,0,0,0,.21.15L19,41.74l-0.06.08a3.78,3.78,0,0,1-.45-0.43c-0.13-.17,0-0.3.19-0.39l-0.28-.1c0,0.06,0,.12,0,0.17h0a0.74,0.74,0,0,0,0-.2,0.47,0.47,0,0,0-.18-0.2C18,40.62,18,40.56,18,40.46s0.08-.24-0.11-0.3l-0.32-.1L17.77,40l-0.13-.06,0.11-.4h0l0,0.44L18.09,40l0.09,0.06a0.32,0.32,0,0,1,.15.4c0,0.17,0,.18.17,0.15h0Z" transform="translate(0)" fill="#fae90b" fill-rule="evenodd"/><path d="M33.73,59.5c0.16,0,.31-0.07.39,0.15H33.9l0,0.05,0.27,0.2c-0.3.13-.32,0.57-0.63,0.71l-0.07,0c0-.14,0-0.28.05-0.43a0.76,0.76,0,0,0,0-.21l-0.05-.25h0.05a1,1,0,0,0,.1.21,0.44,0.44,0,0,0,.16.08,0.59,0.59,0,0,0,0-.17A2.32,2.32,0,0,0,33.73,59.5Z" transform="translate(0)" fill="#fae90b" fill-rule="evenodd"/><path d="M27.59,63c-0.21.18-.58,0.2-0.54,0.64a0.52,0.52,0,0,0-.15-0.07,0.45,0.45,0,0,0-.14,0,0.36,0.36,0,0,0,0,.15c0.09,0.1.19,0.2,0.28,0.3a1.21,1.21,0,0,1-.64-0.6,0.44,0.44,0,0,0,.46-0.25A0.53,0.53,0,0,1,27.59,63Z" transform="translate(0)" fill="#fae90b" fill-rule="evenodd"/><path d="M24.69,63.78c0-.27-0.07-0.54-0.11-0.85,0.1-.13.12-0.12,0.26,0.05a1.09,1.09,0,0,0,.16.15c-0.18.15-.09,0.3,0,0.47a0.41,0.41,0,0,1,0,.25c0,0.08.13,0.19,0,.24A0.17,0.17,0,0,1,24.79,64a1.82,1.82,0,0,1-.11-0.24h0Z" transform="translate(0)" fill="#fae90b" fill-rule="evenodd"/><path d="M13.19,0.91c0.07-.22.26-0.14,0.4-0.2a0.23,0.23,0,0,1,.32.11l0.06,0a0.68,0.68,0,0,1-.08.14c-0.11,0-.16,0-0.22.11a0.3,0.3,0,0,1-.19.09,0.52,0.52,0,0,0-.46.29l0,0,0.09-.23h0l0.26-.33,0,0Z" transform="translate(0)" fill="#fae90b" fill-rule="evenodd"/><path d="M23.6,50.89c-0.12.23,0,.49-0.29,0.58a3,3,0,0,0,0-.82l0.28,0.1,0-.19H23.7a0.79,0.79,0,0,1,0,.18A0.23,0.23,0,0,0,24,51a0.33,0.33,0,0,1,.15.2C24,51.07,23.65,51.28,23.6,50.89Z" transform="translate(0)" fill="#fae90b" fill-rule="evenodd"/><path d="M32.82,59.66a0.78,0.78,0,0,0-.29,0,0.46,0.46,0,0,0-.09.21A2.82,2.82,0,0,1,32,59.69a0.3,0.3,0,0,1-.1-0.22,0.28,0.28,0,0,1,.15-0.1,0.41,0.41,0,0,1,.19-0.05,0.69,0.69,0,0,1,.29.08A1.4,1.4,0,0,1,32.82,59.66Z" transform="translate(0)" fill="#fae90b" fill-rule="evenodd"/><path d="M23.08,66l0.13,0.47,0.2,0-0.79.61c-0.05-.09,0-0.15.09-0.25L23,66.58l-0.23-.1L23.09,66h0Z" transform="translate(0)" fill="#fae90b" fill-rule="evenodd"/><path d="M12.41,1.73c0-.09,0-0.18.07-0.26s0-.16.08-0.23l0.28-.13L12.7,0.92l0.47,0L13,1.15l0.1,0.08h0l-0.18,0-0.05.35h0c0-.05,0-0.1,0-0.19Z" transform="translate(0)" fill="#fae90b" fill-rule="evenodd"/><path d="M15.48,0.67s0,0.07,0,.14l-0.23-.35A0.9,0.9,0,0,1,15.76.28a0.22,0.22,0,0,1,.11.17,0.77,0.77,0,0,1-.17.3A0.53,0.53,0,0,1,15.48.67Z" transform="translate(0)" fill="#fae90b" fill-rule="evenodd"/><path d="M22.22,42.11l0-.05,0.47,0.23a0.25,0.25,0,0,0,.13,0h0l0.22,0h0a0.4,0.4,0,0,1-.36.08l-0.12-.09a0.77,0.77,0,0,0-.08-0.08c0,0.12-.05.26,0.14,0.3s0.11,0.13,0,.2a0.93,0.93,0,0,1-.19.09c0-.19,0-0.3-0.18-0.31a0.29,0.29,0,0,1,0-.19A0.13,0.13,0,0,0,22.22,42.11Z" transform="translate(0)" fill="#fae90b" fill-rule="evenodd"/><path d="M32,60.23a0.21,0.21,0,0,0,0,.06,0.91,0.91,0,0,1,.09.34,0.79,0.79,0,0,1-.2.28,0.15,0.15,0,0,0-.23.08,1,1,0,0,1-.2-0.1,0.24,0.24,0,0,1,0-.14,0.39,0.39,0,0,1,.21-0.09c0.19,0,.24,0,0.27-0.23a0.58,0.58,0,0,1,.11-0.2h0Z" transform="translate(0)" fill="#fae90b" fill-rule="evenodd"/><path d="M14.73,25.6l0.12,0.21-0.2,0s0,0.07,0,.1l0.08-.09-0.4-.29v0l0.1,0.05,0,0-0.22-.29,0.35-.21,0,0.57Z" transform="translate(0)" fill="#fae90b" fill-rule="evenodd"/><path d="M24.46,55.62h0.21l-0.11-.23c0.23-.11.24-0.09,0.26,0.15a3.65,3.65,0,0,0,.11.49,0.83,0.83,0,0,1-.33-0.09A0.89,0.89,0,0,1,24.46,55.62Z" transform="translate(0)" fill="#fae90b" fill-rule="evenodd"/><path d="M21.74,40.75L22,41l0,0.06-0.12-.11a0.52,0.52,0,0,0,.12.34l-0.16,0c0,0.1,0,.21,0,0.31h0a0.39,0.39,0,0,1-.11-0.12c0.06-.15-0.05-0.15-0.12-0.19l-0.09-.06a0.63,0.63,0,0,0,.14-0.23,0.15,0.15,0,0,1,.18-0.17h0Z" transform="translate(0)" fill="#fae90b" fill-rule="evenodd"/><path d="M15,0.68a1.55,1.55,0,0,1,0,.21,0.47,0.47,0,0,1-.28,0c0-.18-0.16-0.09-0.24-0.12l0-.12c0.17,0,.34-0.1.52-0.13a0.26,0.26,0,0,1,.1.08Z" transform="translate(0)" fill="#fae90b" fill-rule="evenodd"/><path d="M11.78,5.35l0.09-.12-0.14-.11,0.09,0L12,5.18a1.86,1.86,0,0,1,.15.17c0,0.14,0,.29,0,0.44l-0.05.12-0.24-.27Z" transform="translate(0)" fill="#fae90b" fill-rule="evenodd"/><path d="M12.27,11.48l-0.16,0,0-.06L11.88,11c0.23-.08.23,0.15,0.34,0.26l-0.06-.31h0l0.32,0,0.12,0.14C12.33,11.06,12.36,11.33,12.27,11.48Z" transform="translate(0)" fill="#fae90b" fill-rule="evenodd"/><path d="M24.62,65.29a1.67,1.67,0,0,1-.48.13l0.13-.28a0.37,0.37,0,0,0-.18-0.07,0.82,0.82,0,0,0-.21.17c-0.06,0-.07-0.11,0-0.19a0.38,0.38,0,0,1,.59.08A0.79,0.79,0,0,0,24.62,65.29Z" transform="translate(0)" fill="#fae90b" fill-rule="evenodd"/><path d="M18.16,30.53l0.42,0.28-0.16.27h0L18.13,31h0L18,30.56h0l0.15,0h0Z" transform="translate(0)" fill="#fae90b" fill-rule="evenodd"/><path d="M17.88,25.11L17.61,25l0-.06h0a0.21,0.21,0,0,1-.2-0.23,0.31,0.31,0,0,0-.09-0.12h0l0.09-.07,0.07,0a1.69,1.69,0,0,0,.16.16,0.2,0.2,0,0,0,.1-0.09,0.49,0.49,0,0,0-.09-0.14h0c0.19-.1.2-0.1,0.2,0.12s0,0.34,0,.51h0Z" transform="translate(0)" fill="#fae90b" fill-rule="evenodd"/><path d="M12.23,6c0-.09.1-0.19,0-0.27,0-.25.06-0.26,0.26-0.14a0.48,0.48,0,0,0,.21,0l0.13,0.1-0.05.19-0.32-.13Z" transform="translate(0)" fill="#fae90b" fill-rule="evenodd"/><path d="M12.2,7.62c0-.15,0-0.34.28-0.29,0,0.08.07,0.27,0.26,0.08,0,0.16,0,.24-0.2.2a0.21,0.21,0,0,0-.11.06c0,0.17.22,0,.14,0.18-0.06,0-.2,0-0.15.14a0.36,0.36,0,0,1-.09-0.16C12.34,7.69,12.31,7.63,12.2,7.62Z" transform="translate(0)" fill="#fae90b" fill-rule="evenodd"/><path d="M24.69,63.77a2,2,0,0,1-.08.34,0.28,0.28,0,0,1-.15.15c-0.15,0-.24,0-0.21-0.19s0-.18,0-0.27h0.07l0.1,0.33c0.12-.09,0-0.35.26-0.33h0Z" transform="translate(0)" fill="#fae90b" fill-rule="evenodd"/><path d="M17.62,21.3l-0.18-.24,0-.09H17.34l0.13-.32L17.6,21l0.33-.09L18,21.09C17.88,21.1,17.69,21.06,17.62,21.3Z" transform="translate(0)" fill="#fae90b" fill-rule="evenodd"/><path d="M18,31.65l-0.14.09-0.12-.08,0.13-.19,0,0c0-.07,0-0.14,0-0.21l-0.25-.11a0.23,0.23,0,0,1,.09-0.06,1.51,1.51,0,0,1,.27.11,0.22,0.22,0,0,1,.1.12,0.34,0.34,0,0,1-.1.1l0.13,0.12Z" transform="translate(0)" fill="#fae90b" fill-rule="evenodd"/><path d="M27.78,61.95C28.09,62,28,62.28,28,62.49,27.64,62.31,27.59,62.17,27.78,61.95Z" transform="translate(0)" fill="#fae90b" fill-rule="evenodd"/><path d="M13.05,9.71l0.31-.3a1,1,0,0,1-.1.77A0.39,0.39,0,0,0,13.05,9.71Z" transform="translate(0)" fill="#fae90b" fill-rule="evenodd"/><path d="M23,42.16a0.33,0.33,0,0,0,.4-0.28l0.19,0.34-0.4.21L23,42.32h0C23.16,42.19,23,42.21,23,42.16Z" transform="translate(0)" fill="#fae90b" fill-rule="evenodd"/><path d="M18.88,38.46c0-.26.22-0.2,0.3-0.33,0.2,0.15,0,.3,0,0.44a0.3,0.3,0,0,1-.15.07l0,0,0.08-.16Z" transform="translate(0)" fill="#fae90b" fill-rule="evenodd"/><path d="M34.82,60.39c-0.14.31-.35,0.49-0.53,0.35a0.91,0.91,0,0,0,.25-0.17,0.73,0.73,0,0,0-.12-0.25Z" transform="translate(0)" fill="#fae90b" fill-rule="evenodd"/><path d="M12.68,10.55a0.4,0.4,0,0,1-.11.06l-0.33,0h0a0.33,0.33,0,0,1-.11-0.41v0l0.27,0h0c0,0.25,0,.29.28,0.29h0Z" transform="translate(0)" fill="#fae90b" fill-rule="evenodd"/><path d="M25.93,64.25l-0.46.46c-0.07-.26.3-0.36,0.12-0.63Z" transform="translate(0)" fill="#fae90b" fill-rule="evenodd"/><path d="M11.95,7.37l-0.32.13c0-.07,0-0.15,0-0.22s0.14,0,.12-0.07,0.07-.16.16-0.17l0.09,0,0.09,0.07Z" transform="translate(0)" fill="#fae90b" fill-rule="evenodd"/><path d="M8.56,10.27l0.07,0.05c0,0.09,0,.17,0,0.26-0.33,0-.38-0.06-0.33-0.39Z" transform="translate(0)" fill="#fae90b" fill-rule="evenodd"/><path d="M31,60.12A0.32,0.32,0,0,1,31.15,60a0.37,0.37,0,0,1,.28.4,0.34,0.34,0,0,1-.12.1l-0.06-.12a2,2,0,0,0-.09-0.19A1,1,0,0,0,31,60.12Z" transform="translate(0)" fill="#fae90b" fill-rule="evenodd"/><path d="M18.44,28.92l-0.13-.07c-0.14-.08-0.14-0.13,0-0.25s0.23,0,.23.14a2,2,0,0,1,0,.35Z" transform="translate(0)" fill="#fae90b" fill-rule="evenodd"/><path d="M18.42,31.08l0.19,0.17,0,0H18.46l0.11,0.35c-0.37-.27-0.41-0.42-0.15-0.56h0Z" transform="translate(0)" fill="#fae90b" fill-rule="evenodd"/><path d="M23.9,52.44A3.13,3.13,0,0,1,24,52.11a0.37,0.37,0,0,1,.1-0.16,0.34,0.34,0,0,1,.13,0s0,0.09,0,.14a0.39,0.39,0,0,0-.06.13C24.13,52.38,24.1,52.42,23.9,52.44Z" transform="translate(0)" fill="#fae90b" fill-rule="evenodd"/><path d="M12.61,11.08l-0.12-.14c0-.05,0-0.1,0-0.16,0.17-.09.23-0.07,0.32,0.11a1,1,0,0,0,.12.17Z" transform="translate(0)" fill="#fae90b" fill-rule="evenodd"/><path d="M32.09,61.31c-0.48.11-.54,0.08-0.51-0.22Z" transform="translate(0)" fill="#fae90b" fill-rule="evenodd"/><path d="M19.53,38.92v0l-0.36,0,0.17-.49a0.3,0.3,0,0,0,0-.09c0-.25,0-0.26.23-0.12,0,0,0,0,0,.06l-0.13,0-0.14.59h0.19Z" transform="translate(0)" fill="#fae90b" fill-rule="evenodd"/><path d="M19.06,41.54c0.18,0.09-.06.52,0.33,0.37,0,0.07,0,.13,0,0.2A1.19,1.19,0,0,1,19.13,42,0.64,0.64,0,0,1,19,41.92Z" transform="translate(0)" fill="#fae90b" fill-rule="evenodd"/><path d="M18.13,31c-0.08.11-.17,0.07-0.26,0a0.4,0.4,0,0,0-.42,0,0.29,0.29,0,0,1-.16-0.06h0a0.24,0.24,0,0,0,.27-0.26h0a0.3,0.3,0,0,1,.15.08,0.4,0.4,0,0,0,.42.25h0Z" transform="translate(0)" fill="#fae90b" fill-rule="evenodd"/><path d="M30.68,61.8l-0.21.36,0.15,0.07,0,0a0.32,0.32,0,0,1-.13,0,0.39,0.39,0,0,1-.14-0.22,1.88,1.88,0,0,1,.24-0.36Z" transform="translate(0)" fill="#fae90b" fill-rule="evenodd"/><path d="M26.76,63.09c0-.18,0-0.34,0-0.51a0.25,0.25,0,0,1,.23.28C26.94,63,26.91,63.09,26.76,63.09Z" transform="translate(0)" fill="#fae90b" fill-rule="evenodd"/><path d="M23.78,53.86c0.57,0,.64.06,0.54,0.3Z" transform="translate(0)" fill="#fae90b" fill-rule="evenodd"/><path d="M21.28,67.83l0.24-.12a0.2,0.2,0,0,1,.14,0,0.4,0.4,0,0,1,.11.18,0.16,0.16,0,0,1-.09.11A3.92,3.92,0,0,1,21.28,67.83Z" transform="translate(0)" fill="#fae90b" fill-rule="evenodd"/><path d="M25.06,54.27c0.1,0.21.17,0.43,0.45,0.38-0.2.23-.25,0.23-0.38,0A0.31,0.31,0,0,1,25.06,54.27Z" transform="translate(0)" fill="#fae90b" fill-rule="evenodd"/><path d="M18.47,32.35l0.1,0.1-0.06.07-0.26.09-0.17.16h0l0.13-.42h0C18.29,32.47,18.38,32.4,18.47,32.35Z" transform="translate(0)" fill="#fae90b" fill-rule="evenodd"/><path d="M22.2,20.85L22,20.64a0.3,0.3,0,0,1,.47,0Z" transform="translate(0)" fill="#fae90b" fill-rule="evenodd"/><path d="M17.93,21.28a0.55,0.55,0,0,0-.08.45,0.22,0.22,0,0,1-.12,0,0.46,0.46,0,0,1-.11-0.08l0-.33Z" transform="translate(0)" fill="#fae90b" fill-rule="evenodd"/><path d="M11.34,3.47L11.45,4a0.64,0.64,0,0,1-.27-0.16A0.25,0.25,0,0,1,11.34,3.47Z" transform="translate(0)" fill="#fae90b" fill-rule="evenodd"/><path d="M11.89,11.89l0.38-.24c0,0.05,0,.1,0,0.16v0L12,12.22Z" transform="translate(0)" fill="#fae90b" fill-rule="evenodd"/><path d="M25.46,57.91L25.65,58l0,0.07A0.32,0.32,0,0,1,25.44,58a0.34,0.34,0,0,1,0-.25,0.74,0.74,0,0,1,.23-0.12C25.74,57.75,25.71,57.82,25.46,57.91Z" transform="translate(0)" fill="#fae90b" fill-rule="evenodd"/><path d="M20.33,47.11c0,0.09,0,.18,0,0.3-0.15-.08-0.31-0.1-0.23-0.28l-0.18-.23h0.26l0.14,0.2h0Z" transform="translate(0)" fill="#fae90b" fill-rule="evenodd"/><path d="M28,62.76l0.17-.47,0.19,0.35Z" transform="translate(0)" fill="#fae90b" fill-rule="evenodd"/><path d="M20.32,38.06l-0.22-.12a0.15,0.15,0,0,1,.06-0.23l0.13,0-0.07.15,0.13,0C20.34,37.91,20.33,38,20.32,38.06Z" transform="translate(0)" fill="#fae90b" fill-rule="evenodd"/><path d="M34,61.9a3,3,0,0,1-.22-0.26,0.38,0.38,0,0,1,0-.16,0.26,0.26,0,0,1,.12,0A0.28,0.28,0,0,1,34,61.9Z" transform="translate(0)" fill="#fae90b" fill-rule="evenodd"/><path d="M18.18,40.1L18.09,40l0.1-.21,0.12-.28C18.45,39.71,18.41,39.83,18.18,40.1Z" transform="translate(0)" fill="#fae90b" fill-rule="evenodd"/><path d="M13.24,8.3h0.6c0,0.11-.05.15-0.17,0.12a1.88,1.88,0,0,0-.26,0,0.64,0.64,0,0,1-.19-0.07Z" transform="translate(0)" fill="#fae90b" fill-rule="evenodd"/><path d="M5.05,21.42c0,0.13,0,.26,0,0.38a0.14,0.14,0,0,1-.15-0.19,0.2,0.2,0,0,0,0-.07,1.42,1.42,0,0,0,0-.15Z" transform="translate(0)" fill="#fae90b" fill-rule="evenodd"/><path d="M22.6,43.27c0,0.09,0,.17,0,0.25l-0.06-.08-0.28-.56c0.27,0,.23.27,0.33,0.39h0Z" transform="translate(0)" fill="#fae90b" fill-rule="evenodd"/><path d="M16.75,34.95a1.23,1.23,0,0,1-.09.3,0.73,0.73,0,0,1-.19.16l0-.35,0.21,0.08L16.57,35Z" transform="translate(0)" fill="#fae90b" fill-rule="evenodd"/><path d="M17.64,19.15a0.17,0.17,0,0,0,0-.06c-0.15-.29-0.12-0.4.13-0.56l-0.16.39c0.22,0,.12.24,0.18,0.35h0Z" transform="translate(0)" fill="#fae90b" fill-rule="evenodd"/><path d="M11.82,5.07l-0.09,0-0.2-.05,0.18-.21,0-.23h0.09C11.83,4.77,11.82,4.92,11.82,5.07Z" transform="translate(0)" fill="#fae90b" fill-rule="evenodd"/><path d="M19.12,40.73l0.18-.38-0.12-.16c0.22,0,.28.14,0.18,0.3s0,0.11-.07.15a1.68,1.68,0,0,1-.12.12Z" transform="translate(0)" fill="#fae90b" fill-rule="evenodd"/><path d="M24,46.11l0-.06-0.31-.27a0.43,0.43,0,0,1,.17,0,0.78,0.78,0,0,1,.24.17C24.14,46,24.11,46.09,24,46.11Z" transform="translate(0)" fill="#fae90b" fill-rule="evenodd"/><path d="M7.4,6.73l0,0.15L7.3,6.9a0.6,0.6,0,0,1-.15-0.24,1.1,1.1,0,0,1,.09-0.34h0Z" transform="translate(0)" fill="#fae90b" fill-rule="evenodd"/><path d="M22.74,49.42l0.38,0.23-0.44.12,0.07-.35h0Z" transform="translate(0)" fill="#fae90b" fill-rule="evenodd"/><path d="M16.43,34.58c0-.22.13-0.24,0.43-0.09l-0.19,0,0,0.19Z" transform="translate(0)" fill="#fae90b" fill-rule="evenodd"/><path d="M21.44,36.41l0.07,0.26-0.28.08a0.19,0.19,0,0,1,0-.1c0.06-.06,0-0.23.19-0.18A0.19,0.19,0,0,0,21.44,36.41Z" transform="translate(0)" fill="#fae90b" fill-rule="evenodd"/><path d="M34.56,59.42a3.31,3.31,0,0,1,.05.33,0.25,0.25,0,0,1-.09.06,1,1,0,0,1-.13-0.26,0.42,0.42,0,0,1,.12-0.17Z" transform="translate(0)" fill="#fae90b" fill-rule="evenodd"/><path d="M20.11,36.72l0.11,0a0.52,0.52,0,0,1,.08.08l0-.12h0l0.2,0.14a0.2,0.2,0,0,1-.07.07l-0.36-.08a0.28,0.28,0,0,1,0-.12h0Z" transform="translate(0)" fill="#fae90b" fill-rule="evenodd"/><path d="M12.42,4.27a2.46,2.46,0,0,0,.3-0.08A1.66,1.66,0,0,0,13,4.06a0.54,0.54,0,0,1,0,.22,0.35,0.35,0,0,1-.22.07A1.22,1.22,0,0,1,12.42,4.27Z" transform="translate(0)" fill="#fae90b" fill-rule="evenodd"/><path d="M26.12,63.26a0.27,0.27,0,0,0,0-.42,0.23,0.23,0,0,1,.22.29A0.16,0.16,0,0,1,26.12,63.26Z" transform="translate(0)" fill="#fae90b" fill-rule="evenodd"/><path d="M24,47.95c0-.11,0-0.19,0-0.27a0.23,0.23,0,0,1,.11,0l0.2,0.21Z" transform="translate(0)" fill="#fae90b" fill-rule="evenodd"/><path d="M31.62,62.2l-0.51,0s0,0,0-.06l0.18,0,0-.15c0.16,0,.14.34,0.38,0.2Z" transform="translate(0)" fill="#fae90b" fill-rule="evenodd"/><path d="M8.1,9.44l0,0.18a0.31,0.31,0,0,1-.12,0,0.34,0.34,0,0,1-.07-0.18,1.1,1.1,0,0,1,0-.24Z" transform="translate(0)" fill="#fae90b" fill-rule="evenodd"/><path d="M18.6,28.15H18.23c0-.06,0-0.16-0.06-0.32A2.24,2.24,0,0,1,18.6,28.15Z" transform="translate(0)" fill="#fae90b" fill-rule="evenodd"/><path d="M22.49,41.83l0.12,0c0.19,0,.21,0,0.18.24l-0.12-.12,0,0,0.09,0.13,0.12,0.16h0a0.53,0.53,0,0,1-.34-0.44h0Z" transform="translate(0)" fill="#fae90b" fill-rule="evenodd"/><path d="M20.16,34.62l-0.39.05L20,34.35l0.21,0.21Z" transform="translate(0)" fill="#fae90b" fill-rule="evenodd"/><path d="M14.24,24.82l0.06,0.12,0,0-0.17-.24a1.44,1.44,0,0,1,.19-0.11,0.57,0.57,0,0,1,.15,0,0.77,0.77,0,0,1-.08.16A0.23,0.23,0,0,1,14.24,24.82Z" transform="translate(0)" fill="#fae90b" fill-rule="evenodd"/><path d="M20.35,36.1l-0.29-.39A0.26,0.26,0,0,1,20.35,36.1Z" transform="translate(0)" fill="#fae90b" fill-rule="evenodd"/><path d="M19.71,42.39a0.37,0.37,0,0,1-.2,0,0.72,0.72,0,0,1-.08-0.26l0.34,0.13h0l0,0.12Z" transform="translate(0)" fill="#fae90b" fill-rule="evenodd"/><path d="M24.95,40.46l-0.17-.15,0,0,0.1,0.17c-0.21,0-.24-0.09-0.13-0.39L25,40.42Z" transform="translate(0)" fill="#fae90b" fill-rule="evenodd"/><path d="M26.38,64.32a0.34,0.34,0,0,1,0-.39,0.5,0.5,0,0,1,.21-0.07Z" transform="translate(0)" fill="#fae90b" fill-rule="evenodd"/><path d="M25,64.58l-0.22-.09,0.07-.2,0.2,0.18Z" transform="translate(0)" fill="#fae90b" fill-rule="evenodd"/><path d="M19.29,26.9a1,1,0,0,0,.69.19A0.51,0.51,0,0,1,19.29,26.9Z" transform="translate(0)" fill="#fae90b" fill-rule="evenodd"/><path d="M25.3,55.65l0.23,0.41a0.29,0.29,0,0,1-.28-0.37Z" transform="translate(0)" fill="#fae90b" fill-rule="evenodd"/><path d="M17.76,22.2l-0.07-.32,0.37,0.24,0,0.05Z" transform="translate(0)" fill="#fae90b" fill-rule="evenodd"/><path d="M26.32,63.76l-0.16.46a0.61,0.61,0,0,1-.08-0.27,0.82,0.82,0,0,1,.2-0.23Z" transform="translate(0)" fill="#fae90b" fill-rule="evenodd"/><path d="M13.05,8.27l-0.12-.12C12.8,8,13,8,13,7.9a0.25,0.25,0,0,1,.11.32h0V8.27H13.05Z" transform="translate(0)" fill="#fae90b" fill-rule="evenodd"/><path d="M20.24,45.25l0,0.08-0.3.2c0-.05,0-0.14,0-0.24l0.29-.16h0Z" transform="translate(0)" fill="#fae90b" fill-rule="evenodd"/><path d="M31.63,60a0.27,0.27,0,0,1,.27-0.19A0.21,0.21,0,0,1,32,60a0.17,0.17,0,0,1-.11.06H31.63Z" transform="translate(0)" fill="#fae90b" fill-rule="evenodd"/><path d="M29.1,45.74l0.41,0C29.36,46,29.29,46,29.1,45.74Z" transform="translate(0)" fill="#fae90b" fill-rule="evenodd"/><path d="M17.43,22.74l0.06-.13,0.27-.24c0,0.08,0,.2,0,0.33Z" transform="translate(0)" fill="#fae90b" fill-rule="evenodd"/><path d="M33.15,61.34l-0.38.15C32.83,61.24,33,61.19,33.15,61.34Z" transform="translate(0)" fill="#fae90b" fill-rule="evenodd"/><path d="M19.2,43c0.06,0.36,0,.41-0.32.51,0,0,0-.09,0-0.15C19.2,43.44,19.12,43.14,19.2,43Z" transform="translate(0)" fill="#fae90b" fill-rule="evenodd"/><path d="M25.09,55.49c0-.12,0-0.25,0-0.44a0.63,0.63,0,0,1,.17.2,0.64,0.64,0,0,1-.06.25h-0.1Z" transform="translate(0)" fill="#fae90b" fill-rule="evenodd"/><path d="M12,7.07L11.95,7c0-.12,0-0.25,0-0.37l0.25,0.16Z" transform="translate(0)" fill="#fae90b" fill-rule="evenodd"/><path d="M19.14,38l-0.28-.26,0.32,0C19.17,37.82,19.15,37.92,19.14,38Z" transform="translate(0)" fill="#fae90b" fill-rule="evenodd"/><path d="M32,60.23a0.48,0.48,0,0,1,.61,0H32Z" transform="translate(0)" fill="#fae90b" fill-rule="evenodd"/><path d="M22.6,43.27l0.28,0.06-0.06.18,0.12,0.14c-0.18.07-.21,0-0.22-0.14a0.79,0.79,0,0,0-.11-0.25h0Z" transform="translate(0)" fill="#fae90b" fill-rule="evenodd"/><path d="M32.13,62.23l0.3,0.4,0,0C32.13,62.52,32.09,62.47,32.13,62.23Z" transform="translate(0)" fill="#fae90b" fill-rule="evenodd"/><path d="M18,41.17l-0.16-.25L18,40.79C18.06,40.92,18.18,41,18,41.17Z" transform="translate(0)" fill="#fae90b" fill-rule="evenodd"/><path d="M19.71,42.39l0,0,0.13,0.24,0,0.12-0.27.33A1.26,1.26,0,0,0,19.71,42.39Z" transform="translate(0)" fill="#fae90b" fill-rule="evenodd"/><path d="M12.43,6.2l-0.23,0c0,0.16-.07.23-0.22,0.2L12.21,6Z" transform="translate(0)" fill="#fae90b" fill-rule="evenodd"/><path d="M16.19,32.47l-0.12.17H15.86l0-.18Z" transform="translate(0)" fill="#fae90b" fill-rule="evenodd"/><path d="M22.54,43.45l0.06,0.08c-0.16.15-.27,0.11-0.32-0.13l0.1,0Z" transform="translate(0)" fill="#fae90b" fill-rule="evenodd"/><path d="M25.46,63.94l-0.32.27C25.09,64,25.1,64,25.46,63.94Z" transform="translate(0)" fill="#fae90b" fill-rule="evenodd"/><path d="M16.23,0.56L15.9,0.3C16.29,0.29,16.31.3,16.23,0.56Z" transform="translate(0)" fill="#fae90b" fill-rule="evenodd"/><path d="M17.84,19.28l0.3,0.36a0.29,0.29,0,0,1-.3-0.36h0Z" transform="translate(0)" fill="#fae90b" fill-rule="evenodd"/><path d="M19.07,55.24l-0.13.51A0.41,0.41,0,0,1,19.07,55.24Z" transform="translate(0)" fill="#fae90b" fill-rule="evenodd"/><path d="M18.17,26.65c0,0.1.19,0.12,0,.25a0.32,0.32,0,0,1-.18,0l0-.25h0.08Z" transform="translate(0)" fill="#fae90b" fill-rule="evenodd"/><path d="M27.5,61.81a0.31,0.31,0,0,1-.07-0.14,1.3,1.3,0,0,1,.12-0.24l0.06,0-0.05.34Z" transform="translate(0)" fill="#fae90b" fill-rule="evenodd"/><path d="M25.77,57.1l-0.15,0A0.33,0.33,0,0,1,25.5,57a0.14,0.14,0,0,1,.05-0.09,0.16,0.16,0,0,1,.13,0,0.51,0.51,0,0,1,.11.15Z" transform="translate(0)" fill="#fae90b" fill-rule="evenodd"/><path d="M18.5,40.66c0.09-.25.17-0.27,0.43-0.07l-0.21,0-0.22,0h0Z" transform="translate(0)" fill="#fae90b" fill-rule="evenodd"/><path d="M21,38.62c0,0.13-.15.26,0,0.39l-0.1.21L20.82,39A0.52,0.52,0,0,1,21,38.62Z" transform="translate(0)" fill="#fae90b" fill-rule="evenodd"/><path d="M26.75,55.91l-0.27-.45A0.38,0.38,0,0,1,26.75,55.91Z" transform="translate(0)" fill="#fae90b" fill-rule="evenodd"/><path d="M22.56,20.19h0l0.1,0.27-0.29,0,0,0Z" transform="translate(0)" fill="#fae90b" fill-rule="evenodd"/><path d="M14.36,0.86l0.19,0.08c-0.16.22-.16,0.22-0.3,0.21l0.11-.3h0Z" transform="translate(0)" fill="#fae90b" fill-rule="evenodd"/><path d="M20.09,17.86l0.23,0c0-.07,0-0.15,0-0.23,0.15,0.24.09,0.32-.2,0.36l-0.08-.15h0Z" transform="translate(0)" fill="#fae90b" fill-rule="evenodd"/><path d="M18.15,39.61L18,39.38l0.23-.09,0,0.29Z" transform="translate(0)" fill="#fae90b" fill-rule="evenodd"/><path d="M18.25,35.44l0.14,0.36-0.16,0-0.06-.37Z" transform="translate(0)" fill="#fae90b" fill-rule="evenodd"/><path d="M17.42,24.12l0.17-.26c0.06,0.12.17,0.24,0,.38h0l-0.18-.09Z" transform="translate(0)" fill="#fae90b" fill-rule="evenodd"/><path d="M19,42.61a0.69,0.69,0,0,1,.1.25,0.53,0.53,0,0,1-.16.2c-0.13-.17.21-0.27-0.05-0.42Z" transform="translate(0)" fill="#fae90b" fill-rule="evenodd"/><path d="M12.17,6.83a0.43,0.43,0,0,1,.14-0.39L12.49,6.5v0l-0.15,0,0,0Z" transform="translate(0)" fill="#fae90b" fill-rule="evenodd"/><path d="M24,45.59c0-.07,0-0.13,0-0.22s0.26,0,.25.18Z" transform="translate(0)" fill="#fae90b" fill-rule="evenodd"/><path d="M21.13,47.83L21,48l-0.25-.13A0.24,0.24,0,0,1,21.13,47.83Z" transform="translate(0)" fill="#fae90b" fill-rule="evenodd"/><path d="M17.37,68.68a0.15,0.15,0,0,1,.07,0,0.92,0.92,0,0,1,0,.22l-0.1,0a2,2,0,0,1,0-.2,0.17,0.17,0,0,1,0-.08h0Z" transform="translate(0)" fill="#fae90b" fill-rule="evenodd"/><path d="M21,19.75a0.23,0.23,0,0,1,.16,0,1.3,1.3,0,0,1,.19.25l0,0Z" transform="translate(0)" fill="#fae90b" fill-rule="evenodd"/><path d="M18.54,25.31l-0.22.05-0.15-.23,0,0Z" transform="translate(0)" fill="#fae90b" fill-rule="evenodd"/><path d="M22.07,66.85l0.13-.2,0.21,0.22Z" transform="translate(0)" fill="#fae90b" fill-rule="evenodd"/><path d="M14.36,0.61l0,0.12,0,0.13h0l-0.22,0V0.67l0.19-.2V0.61Z" transform="translate(0)" fill="#fae90b" fill-rule="evenodd"/><path d="M20.72,47.24l0.12,0.3H20.75s0,0.1,0,.14h0l-0.1-.38,0.12-.06h0Z" transform="translate(0)" fill="#fae90b" fill-rule="evenodd"/><path d="M19,16.91c0,0.19-.06.22-0.25,0.18l-0.2,0h0l0.21-.13a0.22,0.22,0,0,0,0,0l0.24,0h0Z" transform="translate(0)" fill="#fae90b" fill-rule="evenodd"/><path d="M15,0.68l0-.13,0.18-.1c0,0.1,0,.17,0,0.25Z" transform="translate(0)" fill="#fae90b" fill-rule="evenodd"/><path d="M18.23,33.88a0.28,0.28,0,0,1,.09.39C18.29,34.14,18.06,34.07,18.23,33.88Z" transform="translate(0)" fill="#fae90b" fill-rule="evenodd"/><path d="M19,31.41l-0.2-.1,0.1-.13,0.17,0.16Z" transform="translate(0)" fill="#fae90b" fill-rule="evenodd"/><path d="M18.35,18.74l-0.13-.11-0.09-.1a0.27,0.27,0,0,1,.1-0.08,0.17,0.17,0,0,1,.12.09A0.67,0.67,0,0,1,18.35,18.74Z" transform="translate(0)" fill="#fae90b" fill-rule="evenodd"/><path d="M19.2,29.27l-0.38,0c0-.08,0-0.14,0-0.2l0.31,0.13Z" transform="translate(0)" fill="#fae90b" fill-rule="evenodd"/><path d="M22.52,40.63l0.12,0.15a0.33,0.33,0,0,1-.13.1,0.21,0.21,0,0,1-.11-0.13A0.4,0.4,0,0,1,22.52,40.63Z" transform="translate(0)" fill="#fae90b" fill-rule="evenodd"/><path d="M21.46,39.77L21.69,40c-0.18,0-.28.22-0.42,0h0c0.12,0,.25,0,0.19-0.23h0Z" transform="translate(0)" fill="#fae90b" fill-rule="evenodd"/><path d="M16.4,0.2h0.15c0,0.1,0,.19,0,0.29C16.35,0.51,16.47.3,16.4,0.2Z" transform="translate(0)" fill="#fae90b" fill-rule="evenodd"/><path d="M25.65,63.58c-0.16.09-.24,0.06-0.33-0.14,0.17-.1.22,0.1,0.33,0.14h0Z" transform="translate(0)" fill="#fae90b" fill-rule="evenodd"/><path d="M17,30l-0.06,0c-0.18-.2-0.18-0.24,0-0.39C17,29.78,17,29.9,17,30Z" transform="translate(0)" fill="#fae90b" fill-rule="evenodd"/><path d="M15.31,25.9a0.45,0.45,0,0,0-.12.57L15,26Z" transform="translate(0)" fill="#fae90b" fill-rule="evenodd"/><path d="M18.5,63l-0.08-.37C18.63,62.76,18.65,62.85,18.5,63Z" transform="translate(0)" fill="#fae90b" fill-rule="evenodd"/><path d="M18.13,30.23l0.12,0,0.16,0.21c-0.09.05-.24-0.08-0.25,0.11h0l0-.16Z" transform="translate(0)" fill="#fae90b" fill-rule="evenodd"/><path d="M33,60.63l-0.26-.06C32.81,60.44,32.91,60.38,33,60.63Z" transform="translate(0)" fill="#fae90b" fill-rule="evenodd"/><path d="M24.3,39.93L24.42,40l0,0a0.5,0.5,0,0,1-.14-0.2,0.46,0.46,0,0,1,.13-0.21l0.06,0Z" transform="translate(0)" fill="#fae90b" fill-rule="evenodd"/><path d="M24.51,54.38a0.81,0.81,0,0,1-.05.21,0.24,0.24,0,0,1-.14,0l0.1-.24Z" transform="translate(0)" fill="#fae90b" fill-rule="evenodd"/><path d="M18,22.56l0.17,0.12-0.09.2C18,22.79,17.91,22.72,18,22.56Z" transform="translate(0)" fill="#fae90b" fill-rule="evenodd"/><path d="M32.73,61.81l-0.35.08C32.49,61.68,32.6,61.66,32.73,61.81Z" transform="translate(0)" fill="#fae90b" fill-rule="evenodd"/><path d="M28.51,62.78l0.24,0,0,0a0.38,0.38,0,0,1-.14.11,0.39,0.39,0,0,1-.16-0.08Z" transform="translate(0)" fill="#fae90b" fill-rule="evenodd"/><path d="M23.21,43.44c0-.12,0-0.19,0-0.28l0.24,0.09Z" transform="translate(0)" fill="#fae90b" fill-rule="evenodd"/><path d="M22.3,67.75l0.1-.37,0.09,0-0.13.38Z" transform="translate(0)" fill="#fae90b" fill-rule="evenodd"/><path d="M23.93,44.65l-0.37-.34,0-.05L24,44.6Z" transform="translate(0)" fill="#fae90b" fill-rule="evenodd"/><path d="M24.22,48.52c0,0.21-.06.26-0.19,0.19Z" transform="translate(0)" fill="#fae90b" fill-rule="evenodd"/><path d="M24.36,48.4l0.22-.34h0a1.64,1.64,0,0,1-.11.3A0.24,0.24,0,0,1,24.36,48.4Z" transform="translate(0)" fill="#fae90b" fill-rule="evenodd"/><path d="M13.67,7.58l0.23-.08L14,7.66l0,0-0.3-.09Z" transform="translate(0)" fill="#fae90b" fill-rule="evenodd"/><path d="M16.31,28.28L16,28.34,16,28.11Z" transform="translate(0)" fill="#fae90b" fill-rule="evenodd"/><path d="M17.53,38.13l0.13,0.09,0,0.05a0.32,0.32,0,0,1-.11,0,0.49,0.49,0,0,1-.05-0.19,0.18,0.18,0,0,1,.07-0.1l0.07,0Z" transform="translate(0)" fill="#fae90b" fill-rule="evenodd"/><path d="M18.43,52.43l-0.09.25-0.06,0c0-.1,0-0.19,0-0.33l0.19,0.1h0Z" transform="translate(0)" fill="#fae90b" fill-rule="evenodd"/><path d="M13.51,5.18c0.13,0.19.09,0.28-.13,0.35Z" transform="translate(0)" fill="#fae90b" fill-rule="evenodd"/><path d="M17.88,25.11c0.07,0,.1.07,0,0.13l-0.2.14a0.34,0.34,0,0,1,0-.13,1.17,1.17,0,0,1,.16-0.14h0Z" transform="translate(0)" fill="#fae90b" fill-rule="evenodd"/><path d="M18.49,18.19l0.28,0.09-0.21.29c0-.14.15-0.28-0.14-0.34Z" transform="translate(0)" fill="#fae90b" fill-rule="evenodd"/><path d="M33.39,61.39l-0.1-.1a0.29,0.29,0,0,1-.06-0.11,0.09,0.09,0,0,1,.06,0,0.19,0.19,0,0,1,.11.08,0.48,0.48,0,0,1,0,.16Z" transform="translate(0)" fill="#fae90b" fill-rule="evenodd"/><path d="M8.08,24.78C8,24.87,8,24.94,7.86,24.86a0.11,0.11,0,0,1,0-.11c0.09-.11.16,0,0.23,0h0Z" transform="translate(0)" fill="#fae90b" fill-rule="evenodd"/><path d="M20.45,47l0.2,0.1-0.08.17-0.23-.15h0Z" transform="translate(0)" fill="#fae90b" fill-rule="evenodd"/><path d="M26.23,55.86L26,56.08l0-.05a0.32,0.32,0,0,1,.27-0.21Z" transform="translate(0)" fill="#fae90b" fill-rule="evenodd"/><path d="M14.16,0.67V0.83H14l-0.06,0C13.95,0.69,14,.56,14.16.67Z" transform="translate(0)" fill="#fae90b" fill-rule="evenodd"/><path d="M21.25,38.87L21,38.62c0.12-.12.16,0.06,0.25,0.07Z" transform="translate(0)" fill="#fae90b" fill-rule="evenodd"/><path d="M17.23,38c0.14-.06.13-0.32,0.38-0.28L17.28,38Z" transform="translate(0)" fill="#fae90b" fill-rule="evenodd"/><path d="M17.12,69.19l-0.37-.07v0l0.38,0v0.09Z" transform="translate(0)" fill="#fae90b" fill-rule="evenodd"/><path d="M26.72,56.81l0.2-.1a0.6,0.6,0,0,1,0,.08l-0.2.11Z" transform="translate(0)" fill="#fae90b" fill-rule="evenodd"/><path d="M22.2,40c0,0.16-.09.2-0.39,0.1Z" transform="translate(0)" fill="#fae90b" fill-rule="evenodd"/><path d="M19.86,37.8l-0.13.09-0.28-.07s0-.05,0-0.08l0.32,0h0Z" transform="translate(0)" fill="#fae90b" fill-rule="evenodd"/><path d="M17.84,18.36c0-.07,0-0.14-0.06-0.2s0-.11,0-0.16a0.71,0.71,0,0,1,.23.3Z" transform="translate(0)" fill="#fae90b" fill-rule="evenodd"/><path d="M33.92,59.41a0.41,0.41,0,0,1-.08-0.15,0.12,0.12,0,0,1,.09-0.08,0.13,0.13,0,0,1,.09.09A0.34,0.34,0,0,1,33.92,59.41Z" transform="translate(0)" fill="#fae90b" fill-rule="evenodd"/><path d="M19.1,61.75l-0.25.17,0,0,0.11-.26Z" transform="translate(0)" fill="#fae90b" fill-rule="evenodd"/><path d="M26.49,57.22c0-.05,0-0.11,0-0.16a0.63,0.63,0,0,1,0-.12,0.24,0.24,0,0,1,.09.11,0.64,0.64,0,0,1-.08.19Z" transform="translate(0)" fill="#fae90b" fill-rule="evenodd"/><path d="M13,4.56l-0.25.05a0.38,0.38,0,0,1,0-.1l0.24,0S13,4.54,13,4.56Z" transform="translate(0)" fill="#fae90b" fill-rule="evenodd"/><path d="M12.82,5.69l-0.13-.1,0-.14C12.92,5.52,12.93,5.56,12.82,5.69Z" transform="translate(0)" fill="#fae90b" fill-rule="evenodd"/><path d="M12.41,23c0.25,0,.12.22,0.19,0.32l0,0Z" transform="translate(0)" fill="#fae90b" fill-rule="evenodd"/><path d="M13.36,9.41l-0.11-.15-0.13-.12,0.17-.09a1.17,1.17,0,0,0,.07.2C13.39,9.31,13.47,9.35,13.36,9.41Z" transform="translate(0)" fill="#fae90b" fill-rule="evenodd"/><path d="M11.58,2.55l0.09-.25a0.29,0.29,0,0,1,.09.14A0.12,0.12,0,0,1,11.58,2.55Z" transform="translate(0)" fill="#fae90b" fill-rule="evenodd"/><path d="M19.86,68.36L20,68.54l-0.08.07-0.14-.19Z" transform="translate(0)" fill="#fae90b" fill-rule="evenodd"/><path d="M18.55,53.95l0.06-.23,0.09,0L18.65,54Z" transform="translate(0)" fill="#fae90b" fill-rule="evenodd"/><path d="M21.16,27.58L21,27.67c0,0.07,0,.13,0,0.2H20.94a0.37,0.37,0,0,1,0-.18,0.88,0.88,0,0,1,.19-0.17Z" transform="translate(0)" fill="#fae90b" fill-rule="evenodd"/><path d="M22.47,21.76l0-.27a0.35,0.35,0,0,1,.14.08,0.85,0.85,0,0,1-.07.23Z" transform="translate(0)" fill="#fae90b" fill-rule="evenodd"/><path d="M21.13,39.05l0.12-.13L21.3,39c0.15,0.18.15,0.19-.12,0.32l0.14-.2Z" transform="translate(0)" fill="#fae90b" fill-rule="evenodd"/><path d="M8.75,13.23s0,0.08,0,.12a0.36,0.36,0,0,1-.11-0.07,1.23,1.23,0,0,1-.11-0.19L8.59,13Z" transform="translate(0)" fill="#fae90b" fill-rule="evenodd"/><path d="M21.13,67.16a0.46,0.46,0,0,1,.08.15,0.27,0.27,0,0,1-.09.1,0.25,0.25,0,0,1-.07-0.1A0.5,0.5,0,0,1,21.13,67.16Z" transform="translate(0)" fill="#fae90b" fill-rule="evenodd"/><path d="M13.55,11.15c0.05,0.25-.16.16-0.21,0.24C13.29,11.19,13.46,11.24,13.55,11.15Z" transform="translate(0)" fill="#fae90b" fill-rule="evenodd"/><path d="M17.52,24.55l-0.07,0,0.16-.12h0l0.06-.13h0l0.06,0.24h0Z" transform="translate(0)" fill="#fae90b" fill-rule="evenodd"/><path d="M21.29,31a0.76,0.76,0,0,1,.11.25,0.26,0.26,0,0,1-.16.14c0.11-.13.16-0.24,0-0.35Z" transform="translate(0)" fill="#fae90b" fill-rule="evenodd"/><path d="M17.18,30.36l-0.09.22a2.31,2.31,0,0,0-.22-0.21c-0.09-.07-0.06-0.11,0-0.15A0.28,0.28,0,0,0,17.18,30.36Z" transform="translate(0)" fill="#fae90b" fill-rule="evenodd"/><path d="M19.18,43.89a1.13,1.13,0,0,0-.08-0.19A1.09,1.09,0,0,0,19,43.58C19.22,43.62,19.27,43.69,19.18,43.89Z" transform="translate(0)" fill="#fae90b" fill-rule="evenodd"/><path d="M20.82,27.73l-0.27-.14C20.71,27.47,20.75,27.49,20.82,27.73Z" transform="translate(0)" fill="#fae90b" fill-rule="evenodd"/><path d="M11.44,4.2H11.37l0.16-.38A0.42,0.42,0,0,1,11.44,4.2Z" transform="translate(0)" fill="#fae90b" fill-rule="evenodd"/><path d="M27.14,57.77l0.09,0.13a0.39,0.39,0,0,1-.12.06A0.23,0.23,0,0,1,27,57.89Z" transform="translate(0)" fill="#fae90b" fill-rule="evenodd"/><path d="M27.18,57l-0.25.16C27,56.88,27,56.85,27.18,57Z" transform="translate(0)" fill="#fae90b" fill-rule="evenodd"/><path d="M24.92,66.14A1.78,1.78,0,0,1,25,66l0.09,0L25,66.2Z" transform="translate(0)" fill="#fae90b" fill-rule="evenodd"/><path d="M20.85,37.88a0.72,0.72,0,0,1,0,.21,0.45,0.45,0,0,1-.18.07l0.1-.26Z" transform="translate(0)" fill="#fae90b" fill-rule="evenodd"/><path d="M33.56,61.91l0.07,0.31-0.19-.11Z" transform="translate(0)" fill="#fae90b" fill-rule="evenodd"/><path d="M7.57,8.73l-0.37,0c0.09-.11.09-0.11,0.37-0.08C7.57,8.7,7.57,8.71,7.57,8.73Z" transform="translate(0)" fill="#fae90b" fill-rule="evenodd"/><path d="M29.7,62.66l0.18,0.12-0.09.14h0l0-.25h0Z" transform="translate(0)" fill="#fae90b" fill-rule="evenodd"/><path d="M19.85,43.44c0-.12,0-0.23,0-0.37,0.2,0.1.07,0.24,0.08,0.36h0Z" transform="translate(0)" fill="#fae90b" fill-rule="evenodd"/><path d="M17.18,36.14a0.4,0.4,0,0,1,0,.17,0.39,0.39,0,0,1-.14.1l0,0,0.11-.22h0Z" transform="translate(0)" fill="#fae90b" fill-rule="evenodd"/><path d="M18.06,18.12L18,17.92l0,0L18.25,18Z" transform="translate(0)" fill="#fae90b" fill-rule="evenodd"/><path d="M20.56,47.86c0,0.08,0,.16.05,0.28a0.37,0.37,0,0,1-.14-0.09,0.73,0.73,0,0,1,0-.2h0.06Z" transform="translate(0)" fill="#fae90b" fill-rule="evenodd"/><path d="M13,5.3c0-.09,0-0.18-0.08-0.3H13c0,0.09,0,.19.06,0.28Z" transform="translate(0)" fill="#fae90b" fill-rule="evenodd"/><path d="M19.67,41.36l-0.16.25-0.05-.21,0.22,0h0Z" transform="translate(0)" fill="#fae90b" fill-rule="evenodd"/><path d="M28.05,63.93l0.11-.16,0.08,0.05L28.12,64Z" transform="translate(0)" fill="#fae90b" fill-rule="evenodd"/><path d="M32.4,60.7l-0.2-.15C32.37,60.47,32.38,60.48,32.4,60.7Z" transform="translate(0)" fill="#fae90b" fill-rule="evenodd"/><path d="M11.53,4.43l0.15-.18,0.06,0-0.07.21-0.14-.05h0Z" transform="translate(0)" fill="#fae90b" fill-rule="evenodd"/><path d="M17,64H16.77C16.84,63.86,16.88,63.86,17,64Z" transform="translate(0)" fill="#fae90b" fill-rule="evenodd"/><path d="M19.88,44.26c0-.13,0-0.25,0-0.38h0.05c0,0.13,0,.26,0,0.38h0Z" transform="translate(0)" fill="#fae90b" fill-rule="evenodd"/><path d="M20.1,17.85l-0.14,0c0-.11,0-0.2,0-0.3h0l0.07,0.27h0Z" transform="translate(0)" fill="#fae90b" fill-rule="evenodd"/><path d="M18.77,30.19c-0.12,0-.23,0-0.16-0.24l0.2,0.19Z" transform="translate(0)" fill="#fae90b" fill-rule="evenodd"/><path d="M7.75,9.89c0-.08,0-0.15,0-0.23H7.84c0,0.08,0,.16,0,0.23H7.75Z" transform="translate(0)" fill="#fae90b" fill-rule="evenodd"/><path d="M15.93,65.29L16,65l0.08,0L16,65.31Z" transform="translate(0)" fill="#fae90b" fill-rule="evenodd"/><path d="M17.1,37.63c0-.12,0-0.24,0-0.36C17.27,37.32,17.27,37.41,17.1,37.63Z" transform="translate(0)" fill="#fae90b" fill-rule="evenodd"/><path d="M7.58,8.12c0,0.12,0,.24,0,0.4a1.16,1.16,0,0,1-.1-0.19,1.45,1.45,0,0,1,0-.21H7.58Z" transform="translate(0)" fill="#fae90b" fill-rule="evenodd"/><path d="M30.15,57.45a0.29,0.29,0,0,1,.12-0.08,0.11,0.11,0,0,1,.08.07,0.13,0.13,0,0,1-.06.09A0.55,0.55,0,0,1,30.15,57.45Z" transform="translate(0)" fill="#fae90b" fill-rule="evenodd"/><path d="M13.51,6.86a0.23,0.23,0,0,1,.14,0s0,0.13,0,.14Z" transform="translate(0)" fill="#fae90b" fill-rule="evenodd"/><path d="M21.38,19.3h0.06a0.38,0.38,0,0,1-.09.37h0A0.4,0.4,0,0,1,21.38,19.3Z" transform="translate(0)" fill="#fae90b" fill-rule="evenodd"/><path d="M20.66,37.44c0-.21,0-0.22.24-0.15Z" transform="translate(0)" fill="#fae90b" fill-rule="evenodd"/><path d="M21.35,37.26l-0.12-.31,0.07,0,0.12,0.32Z" transform="translate(0)" fill="#fae90b" fill-rule="evenodd"/><path d="M17.82,27.64l0.27-.14a0.64,0.64,0,0,1,0,.17c-0.07,0-.17.14-0.22,0h0Z" transform="translate(0)" fill="#fae90b" fill-rule="evenodd"/><path d="M12.17,10.92h0L12,10.67l0.24,0h0Z" transform="translate(0)" fill="#fae90b" fill-rule="evenodd"/><path d="M19.19,39.27a0.54,0.54,0,0,1-.2.1,0.37,0.37,0,0,1-.11-0.16Z" transform="translate(0)" fill="#fae90b" fill-rule="evenodd"/><path d="M20.26,26.75c-0.18-.07-0.17-0.22-0.15-0.41Z" transform="translate(0)" fill="#fae90b" fill-rule="evenodd"/><path d="M20.11,35.39l0.06-.23,0.2,0.25-0.26,0h0Z" transform="translate(0)" fill="#fae90b" fill-rule="evenodd"/><path d="M22.69,37.18l-0.29.13c0-.05,0-0.1,0-0.14h0.28v0Z" transform="translate(0)" fill="#fae90b" fill-rule="evenodd"/><path d="M31.21,60.8L31,60.67C31.16,60.59,31.19,60.6,31.21,60.8Z" transform="translate(0)" fill="#fae90b" fill-rule="evenodd"/><path d="M26.09,54.94a0.33,0.33,0,0,1,.12-0.07,0.13,0.13,0,0,1,.06.09,0.1,0.1,0,0,1-.07.06A0.33,0.33,0,0,1,26.09,54.94Z" transform="translate(0)" fill="#fae90b" fill-rule="evenodd"/><path d="M24.19,53.23a0.21,0.21,0,0,1-.13-0.33Z" transform="translate(0)" fill="#fae90b" fill-rule="evenodd"/><path d="M23.74,36.61l0.1,0.26-0.18,0,0-.21h0Z" transform="translate(0)" fill="#fae90b" fill-rule="evenodd"/><path d="M24.49,53.24a0.31,0.31,0,0,1,.07.09,0.17,0.17,0,0,1-.08.09,0.11,0.11,0,0,1-.07-0.06A0.45,0.45,0,0,1,24.49,53.24Z" transform="translate(0)" fill="#fae90b" fill-rule="evenodd"/><path d="M25.72,55.34l0.17-.14,0,0.06-0.17.13Z" transform="translate(0)" fill="#fae90b" fill-rule="evenodd"/><path d="M19.69,28.33l0.26,0V28.4l-0.25,0V28.33Z" transform="translate(0)" fill="#fae90b" fill-rule="evenodd"/><path d="M21.86,40.52l0.19,0-0.31.18h0l0.12-.23h0Z" transform="translate(0)" fill="#fae90b" fill-rule="evenodd"/><path d="M22.26,33.57l0.24,0.15-0.12.08Z" transform="translate(0)" fill="#fae90b" fill-rule="evenodd"/><path d="M17.75,18l-0.28-.08,0.23-.14,0,0.12h0S17.75,18,17.75,18Z" transform="translate(0)" fill="#fae90b" fill-rule="evenodd"/><path d="M22.88,39.2a0.35,0.35,0,0,1,.11.11,1,1,0,0,1-.14.2C22.85,39.38,22.86,39.31,22.88,39.2Z" transform="translate(0)" fill="#fae90b" fill-rule="evenodd"/><path d="M33,60l-0.16,0V59.87l0.15,0A0.68,0.68,0,0,1,33,60Z" transform="translate(0)" fill="#fae90b" fill-rule="evenodd"/><path d="M23,49.13l0.11,0.17L23,49.35l-0.12-.16Z" transform="translate(0)" fill="#fae90b" fill-rule="evenodd"/><path d="M27.78,54.89l-0.18,0,0-.08,0.18,0Z" transform="translate(0)" fill="#fae90b" fill-rule="evenodd"/><path d="M23.28,48.63l0.13-.12,0,0a0.41,0.41,0,0,1,0,.16,0.23,0.23,0,0,1-.13,0Z" transform="translate(0)" fill="#fae90b" fill-rule="evenodd"/><path d="M18.65,36.86l0.18-.09a0.37,0.37,0,0,1,0,.08l-0.16.09Z" transform="translate(0)" fill="#fae90b" fill-rule="evenodd"/><path d="M18.06,36.75c-0.1.06-.1,0.06-0.21-0.21Z" transform="translate(0)" fill="#fae90b" fill-rule="evenodd"/><path d="M24.28,54.91l-0.13-.1a0.19,0.19,0,0,1,0-.06l0.15,0.08Z" transform="translate(0)" fill="#fae90b" fill-rule="evenodd"/><path d="M29.26,62.84L29,63.06l0,0,0.21-.24Z" transform="translate(0)" fill="#fae90b" fill-rule="evenodd"/><path d="M20.37,25.5l0.09-.23c0,0.08,0,.12.06,0.16a1.13,1.13,0,0,1,0,.12Z" transform="translate(0)" fill="#fae90b" fill-rule="evenodd"/><path d="M32.68,60l0.14,0.17-0.06.05L32.62,60Z" transform="translate(0)" fill="#fae90b" fill-rule="evenodd"/><path d="M30,61.42l0.07,0.16-0.07,0S30,61.51,30,61.46Z" transform="translate(0)" fill="#fae90b" fill-rule="evenodd"/><path d="M23.56,51.91l-0.12-.2,0.07,0,0.12,0.2Z" transform="translate(0)" fill="#fae90b" fill-rule="evenodd"/><path d="M19,39.86L19.09,40v0L18.88,40Z" transform="translate(0)" fill="#fae90b" fill-rule="evenodd"/><path d="M13.12,6.42l0.35,0.15C13.35,6.63,13.24,6.58,13.12,6.42Z" transform="translate(0)" fill="#fae90b" fill-rule="evenodd"/><path d="M18.72,43.32L18.61,43l0.05,0,0.11,0.37h0Z" transform="translate(0)" fill="#fae90b" fill-rule="evenodd"/><path d="M27.38,63.88L27.24,64,27.18,64l0.14-.17Z" transform="translate(0)" fill="#fae90b" fill-rule="evenodd"/><path d="M26.57,56.16c0-.06,0-0.11,0-0.17l0.06,0,0,0.17Z" transform="translate(0)" fill="#fae90b" fill-rule="evenodd"/><path d="M17.14,30.72h0.2l0,0.16h0l-0.24,0Z" transform="translate(0)" fill="#fae90b" fill-rule="evenodd"/><path d="M28.46,63.35l-0.09-.18,0.06,0,0.1,0.17Z" transform="translate(0)" fill="#fae90b" fill-rule="evenodd"/><path d="M17.86,69l0.26-.14,0,0.06-0.26.14Z" transform="translate(0)" fill="#fae90b" fill-rule="evenodd"/><path d="M18.52,39.9a1.41,1.41,0,0,1,0,.21,0.72,0.72,0,0,1-.14,0l0.07-.25h0Z" transform="translate(0)" fill="#fae90b" fill-rule="evenodd"/><path d="M28.91,61.7a0.19,0.19,0,0,1,.14.23L29,62l-0.08-.27h0Z" transform="translate(0)" fill="#fae90b" fill-rule="evenodd"/><path d="M15,11l-0.13.15-0.12,0-0.09-.08,0.17,0s0-.07,0-0.11Z" transform="translate(0)" fill="#fae90b" fill-rule="evenodd"/><path d="M29.41,62.78L29.62,63C29.45,63,29.44,63,29.41,62.78Z" transform="translate(0)" fill="#fae90b" fill-rule="evenodd"/><path d="M21.07,67.81l0.17,0.08,0,0.08L21,67.91Z" transform="translate(0)" fill="#fae90b" fill-rule="evenodd"/><path d="M20.3,67.93L20.65,68C20.49,68.09,20.39,68.1,20.3,67.93Z" transform="translate(0)" fill="#fae90b" fill-rule="evenodd"/><path d="M18.78,53.6c-0.21,0-.22,0-0.22-0.19Z" transform="translate(0)" fill="#fae90b" fill-rule="evenodd"/><path d="M21.68,31a0.35,0.35,0,0,1,0,.18,0.4,0.4,0,0,1-.17.09Z" transform="translate(0)" fill="#fae90b" fill-rule="evenodd"/><path d="M36.1,58.69a1.74,1.74,0,0,0,0,.17l-0.07,0c0-.05,0-0.11-0.06-0.16Z" transform="translate(0)" fill="#fae90b" fill-rule="evenodd"/><path d="M20.17,9.77L19.93,10Z" transform="translate(0)" fill="#fae90b" fill-rule="evenodd"/><path d="M19.82,37.76h0l-0.11-.17,0.15,0.12A0.3,0.3,0,0,0,19.82,37.76Z" transform="translate(0)" fill="#fae90b" fill-rule="evenodd"/><path d="M20.17,10V10l0,0Z" transform="translate(0)" fill="#fae90b" fill-rule="evenodd"/><path d="M7.3,6.9L7.24,7Z" transform="translate(0)" fill="#fae90b" fill-rule="evenodd"/><path d="M13.05,8.27h0.06s0,0,0,.07L13,8.3S13.05,8.28,13.05,8.27Z" transform="translate(0)" fill="#fae90b" fill-rule="evenodd"/><path d="M15.68,26.39v0Z" transform="translate(0)" fill="#fae90b" fill-rule="evenodd"/><path d="M13.12,8.21h0Z" transform="translate(0)" fill="#fae90b" fill-rule="evenodd"/><path d="M20.16,10h0l0-.06A0.35,0.35,0,0,1,20.16,10Z" transform="translate(0)" fill="#fae90b" fill-rule="evenodd"/><path d="M11.88,11l-0.13-.06a0.41,0.41,0,0,1,0,.5c-0.22,0-.23-0.21-0.34-0.31l0.23,0c-0.09-.25,0-0.36.16-0.34l0.05,0.11Z" transform="translate(0)" fill="#fae90b" fill-rule="evenodd"/><path d="M11.33,11.33l0,0.19-0.2-.07,0.15-.19Z" transform="translate(0)" fill="#fae90b" fill-rule="evenodd"/><path d="M17.44,24.15l-0.17.34c-0.09-.18.08-0.25,0.14-0.37Z" transform="translate(0)" fill="#fae90b" fill-rule="evenodd"/><path d="M11.28,8.08l0,0,0,0Z" transform="translate(0)" fill="#fae90b" fill-rule="evenodd"/><path d="M11.17,8.17h0Z" transform="translate(0)" fill="#fae90b" fill-rule="evenodd"/><path d="M11.26,6.88h0Z" transform="translate(0)" fill="#fae90b" fill-rule="evenodd"/><path d="M11.35,6.95h0Z" transform="translate(0)" fill="#fae90b" fill-rule="evenodd"/><path d="M11.25,7h0V7A0.15,0.15,0,0,1,11.25,7Z" transform="translate(0)" fill="#fae90b" fill-rule="evenodd"/><path d="M12.08,10.09L12,10.25c0,0.09-.06.17-0.1,0.28a0.33,0.33,0,0,1-.05-0.41Z" transform="translate(0)" fill="#fae90b" fill-rule="evenodd"/><path d="M17.25,18.56L17,18.6s0-.1,0-0.1l0.2,0Z" transform="translate(0)" fill="#fae90b" fill-rule="evenodd"/><path d="M17.36,18.92l-0.22-.17,0.11-.1,0.14,0.26h0Z" transform="translate(0)" fill="#fae90b" fill-rule="evenodd"/><path d="M12.49,9l0,0,0.14,0.17-0.23,0Z" transform="translate(0)" fill="#fae90b" fill-rule="evenodd"/><path d="M11.93,6.67c-0.23.07-.25,0.05-0.23-0.2a0.28,0.28,0,0,0,0-.11l0.2-.18c0,0.14,0,.25-0.05.35l0.05,0L12,6.35C12,6.46,11.95,6.56,11.93,6.67Z" transform="translate(0)" fill="#fae90b" fill-rule="evenodd"/><path d="M11.78,5.35l0.09,0.28a0.24,0.24,0,0,0-.38.1l0-.06c0-.05,0-0.1,0-0.16A0.23,0.23,0,0,1,11.78,5.35Z" transform="translate(0)" fill="#fae90b" fill-rule="evenodd"/><path d="M17.64,24.94h0Z" transform="translate(0)" fill="#fae90b" fill-rule="evenodd"/><path d="M17.41,21h0Z" transform="translate(0)" fill="#fae90b" fill-rule="evenodd"/><path d="M12.5,8.33H12.32L12.41,8l0.12,0.16Z" transform="translate(0)" fill="#fae90b" fill-rule="evenodd"/><path d="M20.12,10h0Z" transform="translate(0)" fill="#fae90b" fill-rule="evenodd"/><path d="M11.44,12l0,0.11Z" transform="translate(0)" fill="#fae90b" fill-rule="evenodd"/><path d="M23.16,53l-0.13.3C23,53.11,23,53,23.16,53Z" transform="translate(0)" fill="#fae90b" fill-rule="evenodd"/><path d="M20.55,46.41l0.21,0.15-0.26.2Z" transform="translate(0)" fill="#fae90b" fill-rule="evenodd"/></svg>