<svg xmlns="http://www.w3.org/2000/svg" viewBox="0 0 97.97 89.7"><title>ask-right</title><path d="M71.15,0C70,0,68.87.14,67.73,0.25a18.57,18.57,0,0,0-5.4,1.43c-0.84.35-1.65,0.8-2.46,1.21A9.14,9.14,0,0,0,57.27,5c-0.33.37-.62,0.77-0.92,1.17-0.66.89-1.33,1.79-2,2.7-0.37.51-.71,1.05-1,1.59a9.61,9.61,0,0,0-.68,1.22,12,12,0,0,0-.58,1.63,3.5,3.5,0,0,0-.1,1c0,0.59,0,1.2.08,1.79q0,0.59.12,1.19c0,0.21.12,0.43,0.15,0.65,0.09,0.58.16,1.18,0.24,1.76,0,0.35.12,0.7,0.16,1,0.08,0.69.14,1.38,0.23,2.07s0.24,1.32.32,2a6.45,6.45,0,0,0,.56,2,8.49,8.49,0,0,0,1.75,2.41,7,7,0,0,0,3.06,1.85c0.66,0.19,1.31.42,2,.61a19.19,19.19,0,0,0,1.94.54,11.54,11.54,0,0,0,1.72.12,0.23,0.23,0,0,1,.25.26c0.1,1.09.19,2.18,0.31,3.26q0.22,1.91.5,3.82c0.14,1,.31,2,0.49,3,0.22,1.24.45,2.47,0.7,3.71,0.35,1.71.72,3.41,1.08,5.11q0.35,1.62.7,3.23c0.17,0.78.36,1.55,0.53,2.33,0.27,1.19.54,2.39,0.81,3.58,0.07,0.32.07,0.33-.22,0.47a13.12,13.12,0,0,0-2.57,1.77,3.44,3.44,0,0,0-.44.52l-0.07,0a1.49,1.49,0,0,0-.33.18c-0.57.53-1.13,1.07-1.68,1.62-0.09.09-.14,0.24-0.23,0.33s-0.39.31-.55,0.48c-0.67.74-1.33,1.47-2,2.23a4.48,4.48,0,0,0-1,2.52,10.28,10.28,0,0,0,.14,2.82c0.23,1.34.46,2.68,0.67,4,0.25,1.59.45,3.18,0.71,4.77a7.84,7.84,0,0,0,1.37,3.57A8,8,0,0,0,67,88.51a13.8,13.8,0,0,0,2.91.79,18,18,0,0,0,2.9.33c1.25,0,2.51-.17,3.76-0.3,0.7-.07,1.4-0.22,2.09-0.3a27.68,27.68,0,0,0,4.71-1c1.35-.39,2.7-0.85,4-1.34a14,14,0,0,0,3.62-2c0.82-.62,1.63-1.27,2.44-1.91a24.81,24.81,0,0,0,3.22-2.93A5,5,0,0,0,98,76a25.61,25.61,0,0,0-.7-3.79A5.5,5.5,0,0,0,97,71.47,0.48,0.48,0,0,0,97,71.26a0.75,0.75,0,0,0-.2-0.18L97,71c0-.11,0-0.2-0.06-0.3-0.2-.93-0.4-1.86-0.61-2.78-0.33-1.47-.64-2.95-1-4.4A6,6,0,0,0,93.91,61a7.42,7.42,0,0,0-2.52-1.75A17.24,17.24,0,0,0,87.53,58a11.84,11.84,0,0,0-3.38-.24,0.18,0.18,0,0,1-.23-0.18c0-.38-0.11-0.75-0.16-1.13-0.12-.89-0.23-1.79-0.36-2.68-0.28-2-.56-4-0.87-6-0.29-1.84-.6-3.68-0.93-5.51-0.21-1.2-.45-2.4-0.73-3.59-0.33-1.43-.71-2.84-1.07-4.26-0.27-1.07-.5-2.14-0.78-3.2-0.2-.74-0.45-1.46-0.68-2.18a0.27,0.27,0,0,1,.1-0.37A4,4,0,0,0,79,28.16C80,27.1,81,26,82,25q1.22-1.35,2.4-2.75a5.39,5.39,0,0,0,1.31-2.58,10.24,10.24,0,0,0-.17-3.47c-0.14-.85-0.35-1.68-0.53-2.53-0.36-1.67-.7-3.35-1.08-5a9.33,9.33,0,0,0-4.2-6A20,20,0,0,0,76.27,1a14.14,14.14,0,0,0-1.7-.63A13,13,0,0,0,71.15,0Z" transform="translate(0 0)" fill-rule="evenodd"/><path d="M72.66,66.16c0.2,0,.15.23,0.15,0.32a0.41,0.41,0,0,0,.12.44l0-.09,0-.13,0.27,0.71-0.22,0,0.09,0.14a0.48,0.48,0,0,0-.06.67,1,1,0,0,0,.21.44,1.22,1.22,0,0,1,.36.53c0.31-.19.68,0.19,1-0.18,0.16,0.43.2,0.45,0.59,0.24l0.1,0h0c0.1,0.19.2,0.2,0.51,0.07,0-.07,0-0.14,0-0.2h0a0.47,0.47,0,0,0,.12,0l0.22,0a0.21,0.21,0,0,1,0,.06,0.79,0.79,0,0,0,.2-0.09A0.24,0.24,0,0,0,76.48,69,0.6,0.6,0,0,1,77,68.16h0a1,1,0,0,0-.41.74l0.2,0a0.48,0.48,0,0,0,0,.18,0.17,0.17,0,0,0,.16,0,0.21,0.21,0,0,0,0-.18,1.5,1.5,0,0,0-.23-0.2h0.44l0,0,0.33,0.18,0,0-0.08-.08c0-.23.38-0.27,0.21-0.59l-0.13.24a0.54,0.54,0,0,1,.07-0.6,0.22,0.22,0,0,0,.19.29,0.2,0.2,0,0,0,.19-0.29c-0.13-.08-0.26.2-0.39,0l0.12-.07c0.15-.11.31-0.29,0.45,0l0.11-.07a0.41,0.41,0,0,0,.17,0,2,2,0,0,0,.31-0.08l0-.16-0.06,0-0.13-.16-0.26,0-0.1.06a0.78,0.78,0,0,1-.29-0.72l0.24,0.14,0-.14H77.85s0-.09.07-0.2a1.27,1.27,0,0,0-.17.13c-0.09.12-.19,0.07-0.22,0s-0.2-.15-0.33-0.08a0.56,0.56,0,0,0,.17-0.6,0.27,0.27,0,0,1,.12-0.31l0.29-.3-0.12-.3,0.22,0a0.69,0.69,0,0,1,0-.35,0.19,0.19,0,0,0-.1-0.29l0-.11A0.49,0.49,0,0,0,78,63.86L77.82,64a0.33,0.33,0,0,0-.06-0.15c-0.21,0-.15-0.2-0.09-0.31a0.56,0.56,0,0,1,.22-0.12,1,1,0,0,1-.23-0.95l0.08-.15L77.87,62a0.36,0.36,0,0,0-.07-0.49l-0.25.31c0-.12,0-0.12.22-0.41l-0.18,0,0.3-.35-0.2,0,0-.21,0.23-.3c0.08-.13.3-0.21,0.2-0.44L78,60.08h0c0-.08,0-0.15,0-0.25a0.36,0.36,0,0,0,.11,0,0.32,0.32,0,0,0,.18,0c0.08-.07,0-0.34-0.14-0.32s0,0.11,0,.25l-0.29-.33H78c0-.16,0-0.31-0.09-0.45a0.3,0.3,0,0,0-.13-0.2c-0.29,0-.19-0.21-0.21-0.34L78,58.7c0-.19,0-0.34.06-0.5l-0.17-.1c0.06-.22.13-0.42,0.17-0.63a0.33,0.33,0,0,0-.29-0.29,0.19,0.19,0,0,0-.08.11,0.34,0.34,0,0,1-.06.14l-0.15-.57,0.06,0,0.1,0.2c0.09-.22,0-0.29-0.37-0.29,0.13-.1.22-0.16,0.3-0.24a1,1,0,0,0,.12-0.17h0l0.25-.13-0.48-.27,0.08-.14-0.34-.66c0.17-.13.17-0.19,0-0.3L77,54.74c0.11,0,.13-0.32.28-0.18a1.39,1.39,0,0,1,0-.38,0.56,0.56,0,0,1,.25,0l-0.08-.4c0-.2,0-0.38,0-0.58s0-.11,0-0.16l0.38,0.08-0.25-.3h0a0.6,0.6,0,0,0,.54,0h0c0.18,0.22.2,0,.28-0.11h0l0.16,0.2c-0.11.1-.17,0.19,0,0.28l0.15,0.38a2.39,2.39,0,0,0-.19.54,0.33,0.33,0,0,0,.33.33c0.14,0,.18.14,0.12,0.21-0.25.27,0,.42,0.09,0.6l0.21,0.34-0.08.07-0.17-.37L79,55.29c0,0.13,0,.26.06,0.34L79.51,56l-0.39.08,0.29,0.19-0.41.1,0.19,0.16L79,56.67l0.08,0.2,0.06,0.19h0.06l0.13-.42a0.28,0.28,0,0,1,.17.33,0.9,0.9,0,0,0,.11.31,0.26,0.26,0,0,1-.35.18,0.62,0.62,0,0,0,.51.35,0.89,0.89,0,0,1,.34.16V58l0.12,0.5-0.34.14,0.4,0.16c0,0.07,0,.16,0,0.28l-0.22-.19L80,59l0.31,0.64,0.11,0,0-.5,0,0,0.25,0.46-0.12.15,0.25,0.23c0-.18,0-0.29,0-0.45l-0.17-.2,0.27,0,0-.06a0.73,0.73,0,0,0-.15-0.1,1.28,1.28,0,0,0-.21,0,0.68,0.68,0,0,1,.28-0.19,0.38,0.38,0,0,1,.23.41,0.45,0.45,0,0,1-.11.19l0.18,0.47-0.23,0a0.37,0.37,0,0,0,.34.47,1.24,1.24,0,0,1,.46.19,0.37,0.37,0,0,1,0,.27,0.34,0.34,0,0,0,.22.5L81.79,61,82.26,61a0.37,0.37,0,0,1,0,.17c0,0.22.09,0.25,0.25,0.25a1,1,0,0,1,.2.05c-0.08.13-.16,0.26-0.23,0.4a0.1,0.1,0,0,0,.06.08,0.13,0.13,0,0,0,.1-0.05,2.2,2.2,0,0,0,.12-0.22l-0.06-.2c0.17,0.25.34,0.5,0.5,0.75a0.51,0.51,0,0,0,.31.33,0.78,0.78,0,0,1,.19.31V62.69a0.49,0.49,0,0,1,0-.13c0.4-.19.08-0.48,0.11-0.72l0-.06,0.14,0,0.18,0-0.1-.27a2.17,2.17,0,0,1-.4.09,0.26,0.26,0,0,1-.13-0.1,0.44,0.44,0,0,0,.12-0.16,0.22,0.22,0,0,0-.07-0.17,0.26,0.26,0,0,1-.24-0.32,0.14,0.14,0,0,0-.06-0.1l-0.29.1c0-.41-0.08-0.84-0.1-1.27a0.71,0.71,0,0,1,.2-0.28l-0.18,0L83.09,59l0.33,0.08,0.23-.3c0.19,0.52.43,0,.64,0.07l0,0.14H84.3l0.56,0.09a0.35,0.35,0,0,0,.15,0c0.16-.06.22,0,0.28,0.15a0.73,0.73,0,0,0,.23.18l0-.34c0.17,0.09.34,0.13,0.28,0.35l0.53,0.06,0.13-.05a2,2,0,0,1,0,.2c0,0.08,0,.15-0.06.26,0.35-.24.41-0.23,0.66,0l0.29-.16,0,0-0.09.28a0.35,0.35,0,0,1,.45.06,0.86,0.86,0,0,0,.51,0c0.25,0,.5-0.08.76-0.12-0.07.37-.05,0.4,0.24,0.53h0a0.36,0.36,0,0,0,.39.37c0.19,0,.27.08,0.18,0.3s0,0.25.25,0.19A0.51,0.51,0,0,1,90,61.28a0.35,0.35,0,0,1,.11-0.21,0.21,0.21,0,0,1,.18.07,1.87,1.87,0,0,1,.27.45l-0.29-.14,0.16,0.34-0.06,0L90.68,62,91,61.76l0.05,0-0.18.31v0l0.44-.26a0.8,0.8,0,0,0-.08.33,0.56,0.56,0,0,0,.25.17l0.27,0.12a3.82,3.82,0,0,1,0,.42,3.54,3.54,0,0,1-.12.4,1,1,0,0,1,.86.5l0.23,0.65-0.06.46,0.16,0.29-0.12.14h0.06L92.81,66a0.41,0.41,0,0,0,0,.07,1.08,1.08,0,0,1-.25,1c-0.06.13-.11,0.27-0.17,0.42-0.13-.06-0.25,0-0.24.19l-0.16,0c0.07,0.23.17,0.48-.27,0.32l0.15,0.25c-0.13,0-.13,0-0.32-0.18,0,0.19.07,0.38,0.12,0.58s0,0.29-.16.29c0,0.08,0,.14,0,0.21h0l-0.36-.53a0.62,0.62,0,0,1-.21.59,0.64,0.64,0,0,0,0,.38,0.8,0.8,0,0,0,.14.25c-0.27-.16-0.33.05-0.43,0.19-0.14,0-.26-0.29-0.43,0L89.92,70l-0.31-.05,0.23,0.36a0.2,0.2,0,0,0-.17.25,0.67,0.67,0,0,1,0,.2l-0.2-.25-0.08.41,0.28-.16c0.16,0.07.15,0.13,0,.2l-0.37.19,0.11,0.37h0.08l0,0.42c-0.17-.06-0.35-0.12-0.52-0.16a0.18,0.18,0,0,0-.12.13c0,0.36,0,.38-0.4.46l0.06,0.18a0.17,0.17,0,0,1-.05,0,0.25,0.25,0,0,0-.27.28,0.31,0.31,0,0,1-.28.3,0.17,0.17,0,0,0-.12.1,0.57,0.57,0,0,1-.45.54h0c0,0.16,0,.3-0.08.49l0.31,0.14c0,0.05,0,.1,0,0.15s0,0.2,0,.33-0.25-.16-0.33.07c0.25,0.08.28,0.16,0.22,0.45a1.82,1.82,0,0,0,0,.45H87.05L87.14,76l-0.2,0c0,0.19,0,.37-0.07.61A0.68,0.68,0,0,0,87,76.43c0.13-.3.13-0.3,0.41-0.16l-0.15.11,0.26,0.25-0.09-.1L87.11,77l0,0.37,0.12,0c0,0.07,0,.16,0,0.25l-0.34-.16,0,0.1a1.42,1.42,0,0,1,.29.16,2.56,2.56,0,0,1,.26.31l0.08,0.07a1.19,1.19,0,0,1,.39.66A0.35,0.35,0,0,0,88,79l0,0.22-0.19.48,0.38-.16,0.22,0.09-0.25.13,0.18,0.19,0,0L88,79.88a0.76,0.76,0,0,0,.3.67L88,80.39l-0.31.25a0.21,0.21,0,0,0,0,.05h0.53l0.2,0.13h0c0,0.12,0,.24,0,0.36a0.59,0.59,0,0,0,.06.27,0.29,0.29,0,0,1-.1.44l0.34,0.25-0.12.19-0.06.18a0.23,0.23,0,0,0,0,.41H88.37s0,0.05,0,.08h0.36c-0.09.21,0.05,0.26,0.18,0.3,0,0.2,0,.38,0,0.56l-0.42-.29c-0.1.29,0,.45,0.24,0.47-0.14.4-.14,0.45,0,0.59l0.09-.27C89,84.65,89,84.79,88.62,85l0.22,0.19-0.36.44-0.22-.12-0.43.52,0.07,0.15-0.18,0c-0.12,0-.21,0-0.23.19a0.37,0.37,0,0,1-.43.35c0,0.06,0,.11,0,0.16a1.36,1.36,0,0,0-.74.36l-0.09-.13c-0.21.37-.24,0.39-0.42,0.21h0c-0.24.17-.48,0.34-0.73,0.5a0.37,0.37,0,0,1-.18,0,0.44,0.44,0,0,1,0-.21c0.1-.09.25-0.14,0.13-0.31l-0.28.2h0c0-.24,0-0.49-0.33-0.49l-0.06,0h0L84.65,87a0.67,0.67,0,0,0-.19-0.11,0.5,0.5,0,0,1-.11-0.12c0-.16,0-0.32-0.05-0.48H84.24l-0.14.18-0.18-.22,0.21-.05L84.07,86l0.34-.34a0.61,0.61,0,0,1-.57-0.59l0.33,0.24s0,0.07,0,.07l0.5,0.16c0-.34-0.15-0.4-0.41-0.25l-0.08,0,0.09-.22A1,1,0,0,1,84,85c-0.1-.09-0.15,0-0.2.06l-0.29.23H83.47a1.07,1.07,0,0,0,0-.22A0.19,0.19,0,0,0,83.38,85h0l0.07-.22c0.11,0.1.14,0,.2-0.07A1.17,1.17,0,0,1,84,84.45a0.83,0.83,0,0,1,.29,0V84.36l0.3,0.23a2.35,2.35,0,0,0,0-.27c-0.16,0-.32,0-0.52-0.07,0-.11,0-0.26-0.06-0.41a0.6,0.6,0,0,0-.08-0.14,0.29,0.29,0,0,0-.13.1,2.56,2.56,0,0,0,0,.35c-0.31-.08-0.33-0.11-0.2-0.43,0.27,0,.25-0.19.28-0.37a0.38,0.38,0,0,0,.2-0.57l-0.19.58c-0.28-.06-0.14-0.33-0.18-0.57l-0.14.29-0.07-.48,0.23-.28c-0.17,0-.23-0.07-0.24-0.24a0.38,0.38,0,0,0-.12-0.15l-0.07-.05,0.16-.07c0-.13,0-0.21,0-0.3l0.06-.27a1.36,1.36,0,0,0,.19-0.16,0.7,0.7,0,0,0,.07-0.19c0.23-.08.17,0.1,0.17,0.23L84.2,81l0-.13,0.36,0.07a3.06,3.06,0,0,0-.21-0.36,0.39,0.39,0,0,0-.17-0.08,0,0,0,0,0,0,0L84,80.57l0,0-0.22.13-0.18-.52-0.07-.37h0.19l-0.38-.29-0.09-.19,0.25-.06a0.86,0.86,0,0,1,0-.72,1.09,1.09,0,0,0,.77.11l0.12-.23-0.11-.22h0l0.34,0-0.29-.36-0.13-.36,0-.24,0-.33c-0.13-.13-0.11-0.42-0.39-0.4a0.41,0.41,0,0,1-.09-0.17,0.32,0.32,0,0,1,.13-0.14l0.18-.11V76l-0.32-.11c0-.12,0-0.24-0.05-0.4l-0.42.41-0.33-.22-0.21.52-0.07,0-0.11-.33-0.08.1L82,76c-0.11,0-.21-0.2-0.33,0a0.6,0.6,0,0,1-.23,0l0,0.29c-0.17-.18-0.27-0.18-0.29,0a2,2,0,0,0,0,.3l-0.74-.29-0.05.09,0.26,0.29a0.66,0.66,0,0,0-.8-0.08,0.39,0.39,0,0,1-.17-0.06,4.51,4.51,0,0,1,0-.53,0.6,0.6,0,0,0-.14.21c0,0.16-.07.18-0.18,0.21a0.92,0.92,0,0,0-.18.08,0.24,0.24,0,0,0-.11,0c-0.13.37-.4,0.32-0.69,0.25l0.05,0.22a0.94,0.94,0,0,0-.84.05s0,0.05,0,.08l-0.22-.12,0.1,0.26L77.29,77a3.11,3.11,0,0,1-.45.31,0.34,0.34,0,0,1-.3,0,0.49,0.49,0,0,0-.6,0,3,3,0,0,1-.58.2L75,77.64a0.2,0.2,0,0,1-.31-0.09,0.23,0.23,0,0,0-.4-0.06,0.52,0.52,0,0,1-.65.1l-0.27-.13,0,0.08-0.52.19c-0.2-.19-0.62.1-0.87-0.26-0.15.24-.35,0.1-0.53,0.11l-0.06,0a3.79,3.79,0,0,1-.87-0.18l0.18,0.17a0.89,0.89,0,0,1-.25,0,0.8,0.8,0,0,1-.22-0.1l-0.11-.21a1.39,1.39,0,0,1-.26.22,0.33,0.33,0,0,1-.11-0.11,1.11,1.11,0,0,1-.27-0.09,1,1,0,0,0-.22-0.17c0,0.07,0,.14,0,0.23a0.16,0.16,0,0,1-.14-0.24,0.28,0.28,0,0,0,0-.21,0.5,0.5,0,0,0-.67-0.12c-0.16.12-.25,0.15-0.31-0.1s-0.13-.21-0.35-0.1l0,0.28a5.6,5.6,0,0,0-.34-0.51,0.36,0.36,0,0,0-.23-0.1c-0.25,0-.49,0-0.76,0l0-.14L66,75.69s0,0.09,0,.2a2.13,2.13,0,0,1-.58-0.43A2.47,2.47,0,0,0,64.88,75l0,0.19-0.83-.91,0,0H64l0-.05-0.54-.9c-0.06-.1-0.33,0-0.16-0.3-0.3-.15-0.35-0.34-0.13-0.63-0.11-.14-0.23-0.29-0.35-0.43s-0.06-.21.08-0.26a1.53,1.53,0,0,1-.05-1l-0.12.06a0.61,0.61,0,0,1-.11-0.21,0.51,0.51,0,0,1,.07-0.25c0.06-.12.14-0.24,0.21-0.35l-0.06-.05-0.21,0c0.07-.1.11-0.18,0.17-0.24A2.75,2.75,0,0,0,63.42,69a1.62,1.62,0,0,1,.53-0.51l-0.3,0a0.88,0.88,0,0,1,.21-0.34A1.47,1.47,0,0,1,64.31,68c0-.16,0-0.38,0-0.5l0.58-.54-0.06-.07a0.26,0.26,0,0,0,.29-0.22,1.12,1.12,0,0,1,.41-0.49,1.19,1.19,0,0,0,.3-0.35,5.74,5.74,0,0,1,.43-0.52A1.51,1.51,0,0,0,67,64.65a0.47,0.47,0,0,1,.19-0.11l0.27-.15V64.32l-0.3.05,0-.07a1.71,1.71,0,0,1,.44-0.21A0.63,0.63,0,0,0,68,63.73l-0.26.09,0-.05,0.11-.1a0.72,0.72,0,0,0,.4-0.44,0.36,0.36,0,0,1,.23-0.09c0.14,0,.25,0,0.21-0.23a0.31,0.31,0,0,1,.11-0.18,3.76,3.76,0,0,1,.32-0.31,0.49,0.49,0,0,1,.21-0.13,0.22,0.22,0,0,1,.13.15c0.21,0.72.43,1.44,0.61,2.17a1.64,1.64,0,0,1,0,.68,0.33,0.33,0,0,1-.36.32,1.09,1.09,0,0,0-.28.08l0.33,0.24,0,0.27L70.37,66l-0.11-.47,0.48,0.32c0.2-.08,0-0.24,0-0.39l-0.15.09,0-.2-0.25-.08c0.19,0,.39,0,0.19-0.3h0.1l0.12,0.3L71.28,65l0,0c0.11,0.05.28-.06,0.33,0.15-0.23-.06-0.15.21-0.27,0.27,0.09-.09.33,0,0.27-0.27,0.27,0.31.34-.05,0.5-0.22l0.13,0.22-0.08,0-0.14,0a0.56,0.56,0,0,0,.11.13,1.45,1.45,0,0,0,.23.09v0.06l0.2-.15c0.06,0.15.11,0.27,0.16,0.39h0a0.34,0.34,0,0,0-.42.11,0.75,0.75,0,0,0,.09.28l-0.15.14,0.1,0.16,0.24-.25h0.08ZM83.82,82a0.35,0.35,0,0,0,.3.37L83.9,82H83.82Zm0.57-6,0.19,0c0-.16,0-0.29,0-0.42H84.49l-0.1.37a0.89,0.89,0,0,1-.1-0.19c0-.2-0.14-0.24-0.3-0.12l0,0.18,0.16,0C84.19,75.95,84.26,76.07,84.39,76Zm0,5.58,0.29,0.28c0.12,0.24.17,0.25,0.54,0l-0.3,0c0.05-.08.11-0.16,0.16-0.24a0.37,0.37,0,0,0,0-.17,0.1,0.1,0,0,0-.09,0l-0.34.08-0.26.06a1.88,1.88,0,0,0-.2-0.16,0.72,0.72,0,0,0-.2,0l0.16,0.28-0.28,0c0-.1,0-0.2,0-0.33a0.25,0.25,0,0,0-.19.38l-0.13.21,0.22,0.08h0.12s0,0,0,0a0.22,0.22,0,0,1,.29-0.22ZM78,62.68a0.29,0.29,0,0,0-.14.06,0.64,0.64,0,0,0,.4.6c0-.08,0-0.15,0-0.22l-0.06,0a0.33,0.33,0,0,1-.13-0.1,1.6,1.6,0,0,1-.05-0.3l0.32-.16a0.69,0.69,0,0,0-.13-0.29,1.17,1.17,0,0,0-.37.1Zm6.26,14,0.15,0.09,0.28-.19-0.31-.46c-0.33.13-.36,0.18-0.23,0.47Zm0,2.76,0,0c-0.1.06-.2,0.13-0.3,0.18a0.47,0.47,0,0,0-.24.61Zm0.77,3.26c-0.19-.22-0.26-0.24-0.43-0.11a0.18,0.18,0,0,0,0,.14C84.75,83,84.89,83,85.06,82.74Zm0.58,2.08,0,0c0,0.09-.07.19-0.1,0.28a0.19,0.19,0,0,0,0,.14,0.13,0.13,0,0,0,.13,0,0.16,0.16,0,0,0,.08-0.12A3.17,3.17,0,0,0,85.64,84.82Zm-1.3-2.43-0.1-.59a0.86,0.86,0,0,0-.19.29A1.17,1.17,0,0,0,84.34,82.39Zm4.18-21.73c0.27,0.06.29,0,.21-0.43l-0.25.14C88.76,60.44,88.65,60.55,88.53,60.66Zm-7,.17-0.17-.32H81.33c0,0.12,0,.25,0,0.38Zm-3.41-3.95L78.37,57c-0.1-.12,0-0.41-0.24-0.38C78.13,56.67,78.13,56.77,78.13,56.88Zm0.41,6.81,0-.06H78.18a1.11,1.11,0,0,0,0,.14,0.32,0.32,0,0,0,0,.1Zm8.67-3.48-0.47-.15C86.88,60.29,87,60.43,87.21,60.22Zm-2.79,15.1L84,75.41l0.31,0.19ZM85,76.8l0.27,0a0.28,0.28,0,0,1,0,0l-0.11,0,0-.25h0Zm0.2,0.79-0.44-.11C84.89,77.74,85,77.78,85.22,77.6ZM85,84.85L85,84.9l0.14,0.3L85.26,85Zm-6.56-18a0.58,0.58,0,0,0,0,.06c0.14,0,.26.25,0.5,0.06Zm7.31-7-0.18-.28-0.11.31ZM76.9,77.08c0-.11,0-0.2.07-0.33L76.58,77Zm7.34,0.19-0.08,0,0.27,0.51,0,0Zm-14.73-12,0.15,0.27,0.16-.26H69.51Zm14.56-4.38,0,0.05,0.2,0.21C84.34,60.83,84.15,60.9,84.07,60.85Zm-5.68,1.34s0,0,0,.06a0.38,0.38,0,0,0,.17,0,0.58,0.58,0,0,0,.1-0.21Zm2.13,13.2,0.35,0.34C80.89,75.45,80.71,75.44,80.51,75.39Zm5.13,11.43c-0.06-.22-0.09-0.23-0.29,0Z" transform="translate(0 0)" fill="#fae90b" fill-rule="evenodd"/><path d="M76.55,39.57l-0.16.34,0,0,0.25-.13-0.11.52a0.87,0.87,0,0,1-.24-0.85L76,39.64c0.23,0.15.23,0.16,0.18,1.06-0.24,0-.24,0-0.22-0.28a0.57,0.57,0,0,0-.21-0.33,0.87,0.87,0,0,0,.31.75,0.28,0.28,0,0,1,0,.22,1.44,1.44,0,0,1-.11.27l0.36,0.12a1.14,1.14,0,0,1,.14.09l0.26,0.13a1.2,1.2,0,0,0-.21.32,2.11,2.11,0,0,0,0,.48v0.05c0.15,0.25-.16.18-0.2,0.31h0.06v0.36s0,0,0,.07l-0.11.16-0.07,0v0.37l-0.17.1-0.27-.19-0.26-.16A2,2,0,0,1,75,42.58a0.23,0.23,0,0,0,0-.35L75,41.83l-0.28-.1,0.09,0.19a0.25,0.25,0,0,1-.17-0.31,0.36,0.36,0,0,0-.15-0.14l-0.21-.11h0l0.25-.07s0-.12,0-0.19h0a0.91,0.91,0,0,0,.12-0.31,0.26,0.26,0,0,0-.18-0.18,4.17,4.17,0,0,0-.58,0s0-.12,0-0.2h0a0.35,0.35,0,0,0,.53-0.14l0.28,0.15,0.08,0.23,0.08,0a2.88,2.88,0,0,0-.1-0.27l-0.1,0A0.44,0.44,0,0,0,74.46,40a0.53,0.53,0,0,1,0-.26,0.22,0.22,0,0,0,0-.11,2.4,2.4,0,0,0-.22-0.34,0.68,0.68,0,0,0-.2-0.1h0a1.73,1.73,0,0,0-.89-0.42h0l0.32-.25,0-.06L74,38.25s0,0,0,0a0.62,0.62,0,0,1-.45-0.45,0.16,0.16,0,0,1,0-.13,0.36,0.36,0,0,0-.05-0.56,0.34,0.34,0,0,1,0-.15l0.13,0,0.07,0,0.22,0.46a0.34,0.34,0,0,0-.22-0.46c0.23-.26.2-0.43-0.13-0.52l-0.19,0,0.19-.1-0.4-.3c0,0.07,0,.13,0,0.2a1,1,0,0,1-.21,0A1.23,1.23,0,0,1,72.65,36V36l0.18-.07c0-.21,0-0.4,0-0.59H72.78l-0.26.4H72.45l-0.09-.37a0.27,0.27,0,0,0,.11,0,0.29,0.29,0,0,0-.28-0.36l0.16-.07-0.06,0L72,34.54l0-.05,0.43,0.24,0-.06a0.9,0.9,0,0,1-.41-0.73l0.08-.15a0.5,0.5,0,0,0,.4-0.6l-0.21.33-0.14-.2c0,0.11,0,.17,0,0.23s0,0.17,0,.25l-0.44-.24,0-.07c0-.17,0-0.33,0-0.5h0.15L72,33.3l0.06,0c0.06-.35,0-0.36-0.19-0.31-0.07-.24-0.07-0.24-0.29-0.2L71.68,33c-0.25.05-.19-0.23-0.27-0.28a3.38,3.38,0,0,0-.5.07c-0.09,0-.16.14-0.25,0.18a1,1,0,0,1-.29,0A1.68,1.68,0,0,0,70,33c-0.35.07-.71,0.16-1.06,0.24a2.11,2.11,0,0,1-.22,0c-0.13,0-.26.07-0.39,0.08l-1,.07c-0.32,0-.65.09-1,0.13a0.51,0.51,0,0,1-.47-0.13,2.13,2.13,0,0,1-.24-0.15,1,1,0,0,1,.27-0.08A0.53,0.53,0,0,0,66.31,33a0.59,0.59,0,0,1,.3,0L67,32.85l0.35-.09c0,0.15.13,0.19,0.27,0.1s0.2-.07.29-0.12a0.39,0.39,0,0,1,.45-0.05,0.25,0.25,0,0,0,.12,0c0-.09,0-0.16-0.05-0.27a0.81,0.81,0,0,1,.15.13,0.16,0.16,0,0,0,.27,0,0.48,0.48,0,0,1,.34,0c0.28,0.06.28,0.07,0.35-.22a3.55,3.55,0,0,0,.41-0.09A0.24,0.24,0,0,0,70.16,32a1,1,0,0,1,.4-0.16,0.1,0.1,0,0,1,.09,0l0.45-.16c0,0.12,0,.17,0,0.26l1.31-.51L72,30.88,72.57,31l-0.07.44,0.08,0c0.2-.1.18-0.59,0.58-0.33a5.87,5.87,0,0,1-.2-0.63,5.5,5.5,0,0,1,0-.64h0c0.26,0.19.26,0.19,0.44-.12l0.13-.2h0l0.39,0a0.82,0.82,0,0,1-.09-0.81l-0.44,0v0.05a0.3,0.3,0,0,1,.1.09,0.19,0.19,0,0,1,0,.15,0.43,0.43,0,0,1-.59-0.16c-0.07-.13-0.16-0.26-0.22-0.4a0.19,0.19,0,0,1,0-.17,0.13,0.13,0,0,1,.13,0,0.21,0.21,0,0,1,.1.13,1.54,1.54,0,0,0,.07.33,0.43,0.43,0,0,0,.22.09c0-.07,0-0.15,0-0.23a0.33,0.33,0,0,0,0-.08c0.38,0,.42,0,0.37-0.3l-0.15.11a0.78,0.78,0,0,1,.25-0.65c0.06,0.2.12,0.41,0.18,0.61l0.22-.37L74,28l0.06-.06c-0.12-.15-0.24-0.31-0.37-0.45a0.35,0.35,0,0,0-.18,0c0,0.06,0,.13,0,0.19-0.22,0-.32.08-0.29,0.35l-0.07,0a1.57,1.57,0,0,1,0-.25c0-.11,0-0.22,0-0.33a0.21,0.21,0,0,1,0-.11c0.21-.14.14-0.24,0-0.33A0.51,0.51,0,0,1,73,26.73a0.42,0.42,0,0,1,.35.4,0.18,0.18,0,0,0,.14.13,0.69,0.69,0,0,0,.21-0.14A1,1,0,0,0,73.62,27a1.61,1.61,0,0,1-.33-0.26,0.83,0.83,0,0,1,0-.36,0.73,0.73,0,0,1-.17.08,0.34,0.34,0,0,1-.22,0,0.22,0.22,0,0,1,0-.2,0.35,0.35,0,0,0,0-.52,0.56,0.56,0,0,1,0-.18,0.25,0.25,0,0,0,0-.14,0.19,0.19,0,0,0-.15,0,3.62,3.62,0,0,0-.42.08c0-.18,0-0.3,0-0.44l0.12,0c0.16,0.09.2,0,.2-0.15s0-.17,0-0.26a0.2,0.2,0,0,1,.31-0.21L73.17,24l-0.28.14c-0.14-.09-0.26-0.19-0.09-0.41a0.53,0.53,0,0,0,0-.2l0,0a0.32,0.32,0,0,1-.06.13,0.21,0.21,0,0,1-.16,0,2.3,2.3,0,0,1-.13-0.4,0.2,0.2,0,0,1,0-.17,0.18,0.18,0,0,1,.18,0,0.71,0.71,0,0,1,.24.36c0,0.44.29,0.47,0.58,0.54l-0.27-.83-0.39-.18L73,22.79c0.13-.09.13-0.16,0-0.27a1.45,1.45,0,0,1-.18-0.29c-0.15,0-.15,0-0.16.53a0.94,0.94,0,0,1-.47-0.58l0.17-.23c0,0.17.05,0.29,0.09,0.46l0.1-.16a0.6,0.6,0,0,1,.09-0.18,1.35,1.35,0,0,1,.46-0.3,1.42,1.42,0,0,1,.52.12c0-.1,0-0.23,0-0.3-0.19,0-.32-0.08-0.46-0.11a0.26,0.26,0,0,0-.18,0,1.93,1.93,0,0,0-.17.17c-0.11.11-.23,0.25-0.28,0a0.25,0.25,0,0,0-.09-0.09,0.2,0.2,0,0,1,0-.31,3.66,3.66,0,0,0,.21-0.39,0.32,0.32,0,0,0,0-.17,0.36,0.36,0,0,0-.13.09c-0.2.39-.29,0.4-0.66,0.21a2.32,2.32,0,0,0-.67-0.15l-0.46-.08s0-.07,0-0.12a2.38,2.38,0,0,1,.35,0c0.18,0,.23,0,0.21-0.21a0.88,0.88,0,0,1,0-.63,0.24,0.24,0,0,0-.08-0.22,0.54,0.54,0,0,0-.26,0c-0.11-.2.16-0.26,0.18-0.44l0.16,0.13,0.06,0-0.2-.47,0.26-.3,0.16,0,0.05-.05a1.1,1.1,0,0,0-.15-0.17,2.76,2.76,0,0,0-.31-0.19c-0.22-.12-0.44-0.26-0.68-0.37a0.72,0.72,0,0,0-.3,0s0,0.05,0,.08L70.28,18c0,0.19,0,.37,0,0.55a0.14,0.14,0,0,1-.08,0L70,18.12H69.94l-0.39.77-0.06,0a1.16,1.16,0,0,0,.07-0.19,0.66,0.66,0,0,0,0-.33,0.32,0.32,0,0,0-.26,0,0.63,0.63,0,0,1-.51-0.45s0-.1,0-0.06L68.4,18a0.16,0.16,0,0,0-.06.11,0.23,0.23,0,0,1-.25.25,0.69,0.69,0,0,0-.21.28,0.84,0.84,0,0,0-.41-0.11,1.11,1.11,0,0,0-.32.38l-0.35-.47a0.94,0.94,0,0,0-.13.33,0.25,0.25,0,0,1-.3.29l-0.28,0a0.42,0.42,0,0,0-.4-0.58l-0.07.36a0.89,0.89,0,0,0-.29-0.08,1.94,1.94,0,0,0-.44.09,2.48,2.48,0,0,0-.36.17l-0.28.14a0.28,0.28,0,0,1-.18,0,0.87,0.87,0,0,1-.18-0.12l-0.26.28-0.09-.32-0.26.11-0.44.18v0l0,0.16a0.28,0.28,0,0,1-.1-0.11c0-.14-0.08-0.18-0.18-0.12a3.13,3.13,0,0,1-1.4.32,3.62,3.62,0,0,0-.54.15H60.48l0-.06,0.35-.26V19.42a0.51,0.51,0,0,0-.19,0,0.5,0.5,0,0,1-.44,0,1.77,1.77,0,0,0-.66.07c0.14,0.23.1,0.35-.1,0.38a5,5,0,0,1-.65,0,0.26,0.26,0,0,1-.11-0.06c-0.18.25-.24,0.24-0.39,0A1.35,1.35,0,0,0,58,19.61a1.85,1.85,0,0,1-.09.23,1.27,1.27,0,0,1-.12.16,1.69,1.69,0,0,1-.09-0.19,0.64,0.64,0,0,1,0-.17l-0.9.13c0-.09,0-0.21,0-0.31l-0.29.08a0.28,0.28,0,0,0-.42-0.09,0.16,0.16,0,0,1-.13,0,1.94,1.94,0,0,1-.51-0.55,1.14,1.14,0,0,0-.33-0.38L55,18.91l-0.34-.27-0.17-.17a0.65,0.65,0,0,0-.2-0.17c-0.19,0-.16-0.18-0.09-0.28a0.38,0.38,0,0,1,.43-0.22,0.36,0.36,0,0,0,.16,0l0.34-.08,0.14,0a0.28,0.28,0,0,1,.14,0c0.19,0.17.34,0,.51-0.07a0.41,0.41,0,0,1,.27,0,1.36,1.36,0,0,1,.2.1,1.67,1.67,0,0,0,.12-0.31,0.37,0.37,0,0,0-.05-0.17c0.23-.05.29,0,0.28,0.22a0.27,0.27,0,0,0,.39.3,0.32,0.32,0,0,1,.23,0,0.18,0.18,0,0,0,.3-0.07c0.15-.23.25-0.25,0.45-0.08s0.21,0.08.24-.09a0.39,0.39,0,0,1,.28-0.39,0.59,0.59,0,0,0,.17-0.23c0.22,0.16.33,0.1,0.45-.16a0.77,0.77,0,0,1,.29-0.3c0.1-.06.21,0,0.25,0.14a1.12,1.12,0,0,0,.23.34,0.73,0.73,0,0,1-.57-0.19l-0.05,0a1.7,1.7,0,0,0,.18.41,4.81,4.81,0,0,0,.48.43c0-.15.09-0.35,0.15-0.54a0.27,0.27,0,0,1,.13-0.16,0.6,0.6,0,0,1,.26.14,0.49,0.49,0,0,1,.08.2l0.52-.43,0.19,0.37H61.15c0,0.11.15,0.24-.12,0.3l0.08,0a0.37,0.37,0,0,0,.2,0A1.74,1.74,0,0,0,61.69,17c0.06-.21.13-0.24,0.29-0.18l0.16,0.06c-0.16.17-.33,0.34-0.47,0.53a0.6,0.6,0,0,0,.07.28c0.1-.4.17-0.44,0.44-0.25a2.7,2.7,0,0,1,.17-0.25A0.73,0.73,0,0,1,62.57,17c0,0.09,0,.19,0,0.31l0.27,0.1,0.06-.49c0.24,0.06.27,0.13,0.32,0.68a1.46,1.46,0,0,0,.27,0,0.24,0.24,0,0,0,.15-0.07,0.25,0.25,0,0,0,0-.14,0.75,0.75,0,0,1-.19-0.3,0.79,0.79,0,0,1,.22-0.47,0.38,0.38,0,0,0,.14-0.52,1.75,1.75,0,0,0,.25.06l0.37,0a1.18,1.18,0,0,0,.26,0A0.66,0.66,0,0,0,65,16a1,1,0,0,0,0-.48c-0.44.36-.35,0.36-0.64,0.07l0.23-.07a1.31,1.31,0,0,0,.25-0.1,3.58,3.58,0,0,0,.3-0.22l-0.25-.33c0.26,0,.49,0,0.73,0a0.59,0.59,0,0,1,.16.11A0.86,0.86,0,0,0,66,15a0.22,0.22,0,0,0,.13-0.13A0.3,0.3,0,0,0,66,14.8a0.38,0.38,0,0,1-.16-0.13A0.81,0.81,0,0,1,66,14.39l-0.13-.52-0.39.2,0-.06c0.08-.16.15-0.33,0.24-0.48a0.21,0.21,0,0,1,.17,0c0.1,0.23.2,0.13,0.29,0a0.57,0.57,0,0,0,0-.62h0l0.25-.12c0,0.36,0,.69-0.07,1l-0.17-.1L66,14.22l0.07,0,0.62-.32a0.35,0.35,0,0,0,.2.53,2.27,2.27,0,0,1,.36.34c-0.11.13-.2,0.07-0.29,0l-0.23-.21c-0.14.22-.08,0.2,0.28,0.52-0.09.17-.19,0.18-0.32,0s-0.35-.18-0.46,0a0.14,0.14,0,0,1-.21.09,0.18,0.18,0,0,0-.16.06,0.55,0.55,0,0,0-.07.26,0.17,0.17,0,0,0,.14.08c0.22,0,.43-0.11.64-0.18a0.34,0.34,0,0,0,.09-0.12L67,15.77l0.05,0L67,15.58a5.06,5.06,0,0,0,.29-0.43c0.11-.2.13-0.2,0.27,0l0.13,0.15c0.14-.24.28-0.07,0.43,0l0.14-.52-0.32.2-0.3-.38,0.24-.07a0.71,0.71,0,0,0-.79,0c0-.13-0.05-0.24-0.08-0.35h0.29l-0.21-.36c0.18,0.08.3,0.09,0.4-.13a0.51,0.51,0,0,1,.35,0c0.14,0.09.14,0.23,0,.35a0.22,0.22,0,0,0,.34-0.16l0.25,0.35h0c0.06,0.18.1,0.36,0.17,0.54a0.22,0.22,0,0,0,.2,0,0.55,0.55,0,0,0,.05-0.78,0.33,0.33,0,0,1-.09-0.23,2.36,2.36,0,0,1,.08-0.55,0.38,0.38,0,0,1,.2-0.19,0.5,0.5,0,0,1,.22,0v0.07a0.55,0.55,0,0,1-.14,0c-0.14,0-.15.11-0.13,0.24a3.74,3.74,0,0,1,0,.41c0.11,0.1.24,0.32,0.49,0.1a0.34,0.34,0,0,0,.13-0.39c-0.17.07-.32,0.24-0.45,0a0.22,0.22,0,0,1,0-.19,0.52,0.52,0,0,1,.56,0,1.13,1.13,0,0,1,.12.24s0,0.07,0,.11c0.18,0.36.18,0.36-.16,0.58a0.7,0.7,0,0,1,0,.74,0.18,0.18,0,0,0,0,.09c0,0.2,0,.28-0.24.25s-0.21-.05-0.32-0.07a0.11,0.11,0,0,0-.07.2c0.2,0.06.18,0.22,0.14,0.38s0,0.23.14,0.24c0.06-.51.06-0.51,0.25-0.56l-0.11.23L69.66,16l0.05,0a1.68,1.68,0,0,1,.21-0.7,1.13,1.13,0,0,0,0-.42,1.21,1.21,0,0,1,0-.17,0.59,0.59,0,0,1,.13.06,0.1,0.1,0,0,1,0,.06,2.76,2.76,0,0,1,.57-0.2,0.33,0.33,0,0,1,.29.19,4.22,4.22,0,0,1,0,.68l-0.08,0c-0.07-.12-0.14-0.25-0.22-0.37a0.52,0.52,0,0,0-.14-0.09,0.38,0.38,0,0,0,0,.17,0.3,0.3,0,0,1,0,.48,0.29,0.29,0,0,0-.33.3,4.19,4.19,0,0,0,0,.47l-0.46-.3a0.41,0.41,0,0,0,.2.44,0.55,0.55,0,0,0,.26-0.15,1,1,0,0,0,.27-0.09c0.1-.07.2-0.19,0.07-0.3a0.26,0.26,0,0,1,0-.38c0.28,0.15.34,0.12,0.54-.15a0.76,0.76,0,0,1,.22-0.14,0.74,0.74,0,0,1-.1-0.11s0-.11-0.08-0.16a0.61,0.61,0,0,1,.2,0,1,1,0,0,1,.22.15,0.84,0.84,0,0,1,0-.23,0.26,0.26,0,0,1,.09-0.15,1.43,1.43,0,0,1,.25-0.12,0.39,0.39,0,0,1-.14.66l0.35,0.34,0.06-.21L73,15.86,73,15.81a4.71,4.71,0,0,0-.14-0.52c-0.05-.11-0.15-0.14-0.24,0l-0.1.17-0.23-.27L72.43,15l-0.58-.54a0.23,0.23,0,0,1-.39,0c-0.08-.08-0.17,0-0.15.13a1.42,1.42,0,0,0,.05.19l-0.07,0a1.28,1.28,0,0,1-.11-0.19,0.77,0.77,0,0,0-.1-0.26c-0.15-.13-0.33-0.23-0.51-0.37a1.12,1.12,0,0,1-.09.33,0.52,0.52,0,0,1-.27.17A0.53,0.53,0,0,0,70,13.8a0.45,0.45,0,0,1,0-.32,1.51,1.51,0,0,1,.15-0.34l0.33,0.25a0.89,0.89,0,0,0-.21.11,0.38,0.38,0,0,0,0,.15,0.34,0.34,0,0,0,.18,0c0.13-.11.23-0.23,0.36-0.36l0.12,0.1a0.18,0.18,0,0,0,.3,0,0.94,0.94,0,0,1,.14-0.1l0.12-.12a0.63,0.63,0,0,0-.15-0.08,0.34,0.34,0,0,0-.17,0c-0.12.05-.25,0.09-0.3-0.06a0.65,0.65,0,0,1,.11-0.29l-0.12-.14,0.36-.48h0a3.2,3.2,0,0,0,.07.37c0,0.13.1,0.24,0.18,0.41l0.09-.17,0.11-.18a1.15,1.15,0,0,1,.12.24,1.85,1.85,0,0,1,0,.34L72,13a0.4,0.4,0,0,0,.39.34,0.45,0.45,0,0,1,.15.23,1.36,1.36,0,0,0,.18.32c0-.1,0-0.2,0-0.29A0.38,0.38,0,0,1,73,13.14a0.52,0.52,0,0,0,.14-0.08,2,2,0,0,0,.19-0.19,1.66,1.66,0,0,0-.37-0.09c-0.08,0-.16.09-0.27,0.11,0.31-.29.26-0.84,0.75-1-0.27-.22-0.27-0.23-0.12-0.51a1,1,0,0,0,.05-0.2l0.08-.3L73.61,11a0.74,0.74,0,0,1,.3,0,1.2,1.2,0,0,1,.25.25l0.12-.48-0.23.11c-0.21-.21-0.2-0.24.06-0.37a0.29,0.29,0,0,0,.13-0.09,0.52,0.52,0,0,0,0-.16,0.29,0.29,0,0,0-.16,0,0.69,0.69,0,0,0-.51.48c-0.16-.15,0-0.25,0-0.38s0.09-.29.16-0.49c-0.33.13-.59,0.16-0.76-0.22l0.56-.33a0.79,0.79,0,0,0,.1.32,0.31,0.31,0,0,0,.45,0l0.26-.21h0l0.29,0.08v0A1.07,1.07,0,0,1,75,9.43c0.24,0,.25,0,0.23-0.25A0.39,0.39,0,0,1,75.33,9a0.16,0.16,0,0,1,.09,0,0.51,0.51,0,0,1,0,.17,0.47,0.47,0,0,1,0,.24,0.28,0.28,0,0,0,0,.41c-0.21-.09-0.43-0.21-0.6.09h0a0.67,0.67,0,0,0-.31.74c0.06-.11.12-0.19,0.16-0.28a0.64,0.64,0,0,1,0-.19A1.4,1.4,0,0,1,75.09,10a0.8,0.8,0,0,1,.11.27c0.33-.24.33-0.24,0.18-0.51a1.16,1.16,0,0,1,.22,0A0.34,0.34,0,0,0,76,9.52l-0.44,0,0-.05A0.29,0.29,0,0,0,75.82,9c0.16-.07.26,0,0.26,0.15s0.15,0.18.25,0.19a0.27,0.27,0,0,0,.2-0.08,0.74,0.74,0,0,0-.08-0.31,3.93,3.93,0,0,0-.27-0.4L76,8.67,76,8.63l0.33-.56,0.33,0.06c0,0.09-.07.23-0.1,0.36a0.28,0.28,0,0,0,0,.18,0.17,0.17,0,0,0,.15,0,0.45,0.45,0,0,0,0-.2,0.35,0.35,0,0,1,0-.17l0.38,0.4,0.15-.37-0.18,0a1.41,1.41,0,0,1,.51-0.79l-0.21.73,0.32-.05-0.32.58,0,0.07,0.55-.17,0.05,0,0.22-.13L78,8.29,77.7,8a1.25,1.25,0,0,0,.42-0.25,1.05,1.05,0,0,0,0-.46h0.06l0.08,0.21c0.21,0,.46-0.22.62,0.19H78.39c0.24,0.29.47,0.1,0.71,0l-0.36-.41,0-.07,0.38,0.19c0-.23.23-0.35,0.56-0.26a2.16,2.16,0,0,1,.12-0.25A2.25,2.25,0,0,1,80,6.67a5.65,5.65,0,0,1,0,.61c0,0.28.13,0.25,0.32,0.25l-0.11-.4a0.3,0.3,0,0,0,.1-0.43c-0.07-.2,0-0.29.21-0.22a0.56,0.56,0,0,0,.53-0.08,1.22,1.22,0,0,1,.2-0.09c0,0.13,0,.13-0.25.3,0,0.11,0,.21,0,0.34a1.79,1.79,0,0,0,.56-0.26h0a0.37,0.37,0,0,0,.49,0c0.16-.1.27-0.06,0.31,0.14s0,0.23.13,0.17a0.73,0.73,0,0,0,.19-0.28s0-.05,0-0.08a1.25,1.25,0,0,1,0-.19,0.34,0.34,0,0,1,.17.09c0.06,0.2.09,0.41,0.15,0.66l0.19-.3,0.49,0.63c0,0.17,0,.37,0,0.6L83.54,8l0,0,0.21,0.3-0.15.09s0,0.07,0,.11c0.06,0.2.14,0.39,0.19,0.59a0.68,0.68,0,0,1,0,.17c0,0.11,0,.23,0,0.35h0.08c0-.06,0-0.12,0-0.24a0.76,0.76,0,0,1,.13.2,0.21,0.21,0,0,1-.08.13,2,2,0,0,1-.28-0.14l-0.22-.16c0.13,0.41.11,0.46-.29,0.69l0.2,0.1-0.63.19a0.14,0.14,0,0,0,0,.12,0.63,0.63,0,0,0,.14.13c-0.1.07-.16,0.29-0.33,0.08-0.18.2,0.07,0.33,0.08,0.52l-0.25,0c0,0.08,0,.14,0,0.29L82,11.36a0.22,0.22,0,0,0,0-.09,1.35,1.35,0,0,0-.13-0.13l-0.08.1a1.31,1.31,0,0,0,.15.13,0.16,0.16,0,0,0,.08,0l-0.15.45H81.75l0-.22h0l-0.11.62H81.51l-0.08-.47a1.81,1.81,0,0,0-.37.44,2,2,0,0,0,0,.61,0.4,0.4,0,0,0-.64-0.1,1.15,1.15,0,0,0-.1.8l0,0L79.76,13l-0.54.83-0.15-.11a0.42,0.42,0,0,0,.15.53l-0.12.16c-0.19-.18-0.35-0.1-0.52.29l0.25-.16c0.06,0.28,0,.36-0.22.42s-0.17.25-.12,0.39a1.15,1.15,0,0,1-.1.47,0.2,0.2,0,0,1-.11,0,0.31,0.31,0,0,1-.08-0.17c0-.11,0-0.22,0-0.33a0.65,0.65,0,0,0-.29.71,1,1,0,0,1-.15.81c-0.13.21,0,.39,0.26,0.49-0.05.12-.11,0.23-0.16,0.36a1.18,1.18,0,0,0-.11.32,3.86,3.86,0,0,0,0,.68,0.41,0.41,0,0,0,.19.26c0.27,0.15.3,0.28,0.08,0.56l-0.29-.32c0,0.36.22,0.54,0.63,0.48a0.49,0.49,0,0,1-.24.61,0.15,0.15,0,0,0,0,.27c0.09,0.08.2,0.12,0.3,0.2a0.24,0.24,0,0,1,.12.16,0.51,0.51,0,0,1-.15.24,1.08,1.08,0,0,1-.23.13,5,5,0,0,1,.2.47,5.24,5.24,0,0,1,.09.55,0.32,0.32,0,0,1-.27.44,0.36,0.36,0,0,0-.11.09,0.58,0.58,0,0,1,.69.77l0.18,0c0,0.34-.07.38-0.38,0.41a0.27,0.27,0,0,0-.13.36c0,0.09.1,0.17,0.14,0.26a0.29,0.29,0,0,1,0,.4,0.26,0.26,0,0,0,0,.12,0.27,0.27,0,0,0,.14,0,0.93,0.93,0,0,0,.18-0.12,0.84,0.84,0,0,1-.2.76l0.28-.14,0,0-0.3.41,0.39,0h0a1.34,1.34,0,0,0-.22.31,0.4,0.4,0,0,0,.13.51,2.21,2.21,0,0,0,0,.39,0.27,0.27,0,0,1-.19.4,0.26,0.26,0,0,0-.15.13c0.07,0.31-.09.37-0.34,0.36l0.13,0.26,0.34-.26,0.06,0a0.49,0.49,0,0,1-.13.22,0.36,0.36,0,0,0-.34.39H78.15a0.92,0.92,0,0,1,0,.09,0.39,0.39,0,0,1-.06.18,1.39,1.39,0,0,0-.59.51L77.17,30l-0.24.13,0,0.07,0.16,0a0.16,0.16,0,0,1,0,.07l-0.49.24-0.47.17a0.81,0.81,0,0,0-.21.13,2.18,2.18,0,0,0-.33.15,1.64,1.64,0,0,1-.45.26c-0.17,0-.31.2-0.48,0.26s-0.59.19-.88,0.28a1.45,1.45,0,0,0-.21.12l-0.23.11-0.94.44a0.14,0.14,0,0,0,0,.12,2.7,2.7,0,0,0,.84-0.31,1.28,1.28,0,0,1,.5-0.14,4.73,4.73,0,0,0,.47-0.12c0.21-.07.42-0.2,0.6,0.08l0-.05,0-.23c0.12-.09.25-0.19,0.36,0s0.14,0.3-.08.39c0.19,0.1.27,0.06,0.44-.19,0,0.16,0,.33,0,0.51l0.21,0h0c0,0.08-.15.24,0.08,0.2l0.23,0.14L76,33c-0.16-.28-0.22.06-0.33,0.08a0.27,0.27,0,0,0-.06.19c0.09,0.07.12,0.28,0.3,0.14,0.14,0.07.15,0,.17-0.14a0.41,0.41,0,0,1,.3-0.43h0c0,0.07,0,.13,0,0.21l0.05,0,0.29-.21h0L77,33l-0.36.26-0.44,0c0,0.35.09,0.71,0.13,1.08a0.19,0.19,0,0,0,0,.31,0.37,0.37,0,0,1,0,.16l0,0.1-0.13-.26c-0.1,0-.27,0-0.28.16L76.21,35h0c0,0.05,0,.11,0,0.19L76.05,35c-0.15-.14-0.2-0.11-0.31.07a1,1,0,0,1-.34.21l0.26,0,0.08,0.31c0.12-.14.19-0.34,0.37-0.23l0,0.36c-0.45.1-.41,0.16-0.37,0.43a0.81,0.81,0,0,0,.1.25,0.11,0.11,0,0,0,.1,0A0.17,0.17,0,0,0,76,36.38c0-.15-0.06-0.29-0.09-0.4l0.17-.22a1.52,1.52,0,0,1,.19.11,0.17,0.17,0,0,1,.06.12,0.35,0.35,0,0,1-.13.09,0.63,0.63,0,0,1-.26.72,0.14,0.14,0,0,0,0,.08c0,0.17,0,.33-0.06.52a2.29,2.29,0,0,0,.64.48L76.41,38a0.28,0.28,0,0,0,.1.44h0a1,1,0,0,0,0,1.1h0ZM73.71,11.93L74.06,12a0.64,0.64,0,0,0-.13-0.21,0.78,0.78,0,0,0-.22.11c-0.12,0-.23,0-0.21.19a0.22,0.22,0,0,0,.29.22,1.22,1.22,0,0,1-.07-0.21C73.71,12.07,73.71,12,73.71,11.93ZM74.59,23c0.12-.13.08-0.24-0.16-0.36l0.08,0.18L74.59,23l-0.4-.16,0,0.37L74,23c0,0.14,0,.26,0,0.38h0.11c0.17,0,.31.07,0.23,0.31a0.36,0.36,0,0,0,0,.17h0.06l0.09-.32,0.16,0.17c0.19-.18.1-0.32,0-0.48l-0.12.12-0.05,0ZM64,17.25l0,0.05,0.39,0.25a0.22,0.22,0,0,0,.12,0,0.71,0.71,0,0,0-.07-0.11,0.84,0.84,0,0,1-.09-0.15c0-.1,0-0.21,0-0.31s0-.21.13-0.2,0.32,0,.5.05c-0.13.31,0.11,0.4,0.34,0.5a0.39,0.39,0,0,0-.06-0.21,0.23,0.23,0,0,1,.12-0.39c0.15,0,.3-0.05.46-0.08-0.09-.19-0.09-0.33.18-0.31a0.22,0.22,0,0,0,0-.16,3.54,3.54,0,0,0-.25-0.36,3.09,3.09,0,0,0-.38.12,0.48,0.48,0,0,0-.18.16l-0.35.51a0.15,0.15,0,0,1-.12,0l-0.53-.06c-0.14.08-.27,0.16-0.4,0.25a0.46,0.46,0,0,0-.15.19,1,1,0,0,0,.23.25A0.24,0.24,0,0,0,64,17.25Zm9.76,8.48-0.12-.55L73.9,25a2.88,2.88,0,0,0-.17-0.24,1.38,1.38,0,0,0-.21-0.19,2.15,2.15,0,0,0-.24-0.12c0,0.09,0,.18,0,0.26a1,1,0,0,1,0,.3,0.22,0.22,0,0,0,.05.28,1.17,1.17,0,0,1,.19.33c-0.18.09-.3-0.19-0.45,0.06l0.44,0.12c0.17,0.06.23,0.22,0.14,0.31l-0.15.14,0.19,0.12c0,0.13,0,.26,0,0.39h0.25c0.08-.41.07-0.43-0.12-0.62a0.4,0.4,0,0,0,.15-0.11c0.07-.12.13-0.24,0.2-0.36H73.75Zm-6.24-9.29,1.18,0.39,0-.05-0.37-.67-0.07,0a0.51,0.51,0,0,1,.08.17,0.22,0.22,0,0,1-.07.16,0.15,0.15,0,0,1-.15,0,1.59,1.59,0,0,1,0-.34,1.71,1.71,0,0,1,0-.25H68.07l0.28-.41,0-.06a0.56,0.56,0,0,0-.2.13C67.91,15.81,67.73,16.11,67.51,16.43ZM73.95,14l0.08-.1c0.16-.16,0-0.28-0.05-0.39a0.24,0.24,0,0,0-.19-0.07,0.63,0.63,0,0,0-.09.28,0.77,0.77,0,0,1-.19.65l0.44,0.39c0-.06,0-0.08,0-0.11s0-.13,0-0.19l0.15,0,0.25,0.07Zm0.2,15.87,0.5,0.17c0-.18-0.07-0.33-0.11-0.47a3.77,3.77,0,0,0-.19-0.39l-0.1.05,0.19,0.49a1.42,1.42,0,0,1-.19-0.15,0.19,0.19,0,0,0-.34.07,0.28,0.28,0,0,0,.14.41Zm0.29-1.17h0.07c0.07-.17,0-0.45.26-0.49l-0.31-.77,0.32-.14L74.37,27a1.87,1.87,0,0,0,.09.82c0.17,0.23.13,0.29-.13,0.47a0.46,0.46,0,0,0-.07.12l0.15,0C74.41,28.55,74.43,28.64,74.44,28.74Zm1.2-18.45a1.26,1.26,0,0,1-.44.25,1,1,0,0,1-.42-0.18,0.57,0.57,0,0,0,.29.52,0.3,0.3,0,0,0,.28-0.06A0.65,0.65,0,0,0,75.65,10.29Zm-3.93,9.65a1,1,0,0,0,.15.47,0.54,0.54,0,0,0,.56.06c-0.07-.38-0.08-0.39-0.4-0.39A0.88,0.88,0,0,1,71.71,19.94Zm3.85-6.3-0.39-.14-0.16,0a0.51,0.51,0,0,0,0,.18c0.09,0.19.19,0.37,0.32,0.59Zm0.71-4.11a1.08,1.08,0,0,1-.19.28,1,1,0,0,1-.28.11c0.14,0.11.24,0.21,0.35,0.28s0.23,0.15.35,0C76.15,10.07,76.47,9.7,76.27,9.53Zm-3.53,9.53a0.47,0.47,0,0,1-.1.7l-0.29,0a2.1,2.1,0,0,1,.11.21,1,1,0,0,1,0,.14C73,19.74,73.09,19.3,72.74,19.06Zm-6.31-1.63c0.18-.2.14-0.32,0-0.44l-0.2-.2a0.3,0.3,0,0,0-.16-0.11,0.24,0.24,0,0,0-.12.17,0.21,0.21,0,0,0,.12.17A0.36,0.36,0,0,1,66.43,17.43Zm8.72-4.61a1.94,1.94,0,0,0,.3,0,0.26,0.26,0,0,0,.15-0.11,0.14,0.14,0,0,0,0-.13,0.23,0.23,0,0,0-.18,0c-0.09,0-.16.1-0.25,0.14A0.25,0.25,0,0,0,75,13a0.15,0.15,0,0,0,.12.07A0.16,0.16,0,0,0,75.18,13,0.58,0.58,0,0,0,75.15,12.81Zm-1.78,2a0.74,0.74,0,0,1,0,.35,1,1,0,0,0-.14.63A0.72,0.72,0,0,0,73.37,14.85Zm0.3,15.46c0-.1,0-0.18.05-0.27s0-.16,0-0.26a0.62,0.62,0,0,0-.06.83l-0.16,0,0,0.07,0.24,0.11,0.12-.42ZM73,14l0.37-.3-0.29-.06,0.09-.2c-0.19,0-.24.09-0.31,0.21S72.92,14,73,14Zm0.66,1.1c0.13,0.32.4,0.26,0.72,0.2L74,15.05C73.89,15.22,73.89,15.22,73.69,15.15ZM74,11.44s0-.06,0-0.1a0.41,0.41,0,0,0-.24,0,1,1,0,0,0-.27.23,0.46,0.46,0,0,0-.06.16,0.4,0.4,0,0,0,.18,0C73.77,11.63,73.9,11.53,74,11.44Zm0.48,13.4c0.2-.59.2-0.59,0.07-0.66l-0.15.28a0.47,0.47,0,0,0-.11.17A0.81,0.81,0,0,0,74.51,24.84Zm-3.17-7.3,0.35,0.87A0.61,0.61,0,0,0,71.34,17.54Zm3.27-5.73c0.07,0.14.11,0.23,0.16,0.31a0.61,0.61,0,0,0,.12.12A0.48,0.48,0,0,0,75,12.07a0.51,0.51,0,0,0-.35-0.39Zm-5.43,4.85a0.46,0.46,0,0,0,.11.15,1.56,1.56,0,0,0,.3-0.19,0.62,0.62,0,0,0-.17-0.18C69.31,16.4,69.21,16.43,69.18,16.67Zm2.39-.18-0.07,0c-0.1.07-.18,0.16-0.28,0.22s-0.2.11-.13,0.22l0.41,0Zm2.35,11.79-0.37.16,0.61,0.43c0-.12,0-0.2,0-0.3C74,28.6,73.86,28.53,73.92,28.27ZM71.53,15.81l-0.07,0-0.29.38,0.37,0.07,0,0C71.56,16.06,71.55,15.93,71.53,15.81ZM71.3,14.1l-0.56-.41a0.74,0.74,0,0,0,.36.54A0.69,0.69,0,0,0,71.3,14.1Zm5.86-5.2-0.06,0-0.34.61A0.66,0.66,0,0,0,77,9.42,4.36,4.36,0,0,0,77.16,8.9Zm-3.33,15a0.23,0.23,0,0,0-.11,0,0.35,0.35,0,0,0-.07.2,4.47,4.47,0,0,0,.24.43L74,24.48l-0.09-.09a0.27,0.27,0,0,1-.08-0.09C73.83,24.18,73.83,24.06,73.83,23.9Zm-7.25-7.11,0.11,0c0-.16.09-0.33,0.13-0.5a0.13,0.13,0,0,0-.06-0.1,0.17,0.17,0,0,0-.12.07C66.62,16.45,66.61,16.62,66.59,16.79Zm12.66-8.6h0.33a1.13,1.13,0,0,0,0-.35,0.18,0.18,0,0,0-.27-0.1,0.87,0.87,0,0,1,.18.24A0.82,0.82,0,0,1,79.25,8.18ZM69,16.69c0-.43,0-0.47-0.37-0.44A1.18,1.18,0,0,0,69,16.69Zm3.58,2.46a0.47,0.47,0,0,0-.34.36C72.55,19.55,72.67,19.44,72.56,19.15ZM72.07,18c-0.1.14-.16,0.26,0,0.36a0.22,0.22,0,0,0,.22,0C72.38,18.11,72.13,18.15,72.07,18Zm3.1,9.67-0.07,0L75,27.82c0-.07,0-0.11,0-0.15l-0.07,0a1.35,1.35,0,0,0-.06.28,0.25,0.25,0,0,0,.15.08A3.73,3.73,0,0,0,75.18,27.69Zm-1.92,3.08c0-.16.07-0.3,0.09-0.44a0.2,0.2,0,0,0-.14,0C73,30.39,73,30.56,73.26,30.77Zm-7.53-13.5a1.72,1.72,0,0,0,.14-0.15,3.44,3.44,0,0,0-.21-0.28,0.5,0.5,0,0,0-.11.14A1.87,1.87,0,0,0,65.73,17.27Zm10.4,10.52c0.09,0.33.19,0.41,0.48,0.36A1,1,0,0,0,76.13,27.79Zm-4.9-14c0.1-.24.21-0.46,0.52-0.24-0.05-.24-0.17-0.24-0.3-0.19A0.29,0.29,0,0,0,71.24,13.84Zm7.14,0.86h0.06a1.56,1.56,0,0,0,.1-0.18,1.63,1.63,0,0,0,.08-0.23,0.18,0.18,0,0,0-.09,0,1.08,1.08,0,0,0-.19.25A0.41,0.41,0,0,0,78.37,14.7ZM72.89,25.18c0.22-.23.2-0.48,0-0.56C72.9,24.81,72.89,25,72.89,25.18Zm-12.26-7.4c0-.39-0.16-0.51-0.37-0.37ZM76,38.38l-0.08,0c-0.08.42,0,.52,0.18,0.45A0.73,0.73,0,0,1,76,38.67,2.28,2.28,0,0,1,76,38.38Zm-0.7-10.25,0,0c0,0.09,0,.18.06,0.28a0.21,0.21,0,0,0,.06.11,0.13,0.13,0,0,0,.12,0,0.17,0.17,0,0,0,0-.14A2.25,2.25,0,0,0,75.28,28.13ZM81,11.94c0.34-.1.17-0.4,0.28-0.57l-0.07,0Zm-7.71,8c0.06-.12.11-0.21,0.15-0.31a0.36,0.36,0,0,0,0-.14,0.32,0.32,0,0,0-.11,0A0.3,0.3,0,0,0,73.29,19.92ZM67,16.49c0.29,0,.34,0,0.35-0.21C67.2,16.3,67,16.24,67,16.49Zm5.13-2.83,0-.08a0.65,0.65,0,0,0-.23.08,0.61,0.61,0,0,0-.1.21l0.07,0Zm3.17,16.53,0.07,0a0.45,0.45,0,0,0,.1-0.21,1,1,0,0,0-.17-0.26l0,0ZM55.67,18.94L55.61,19a0.91,0.91,0,0,0,.19.19A0.55,0.55,0,0,0,56,19.1ZM66.09,15.8L66.51,16C66.47,15.8,66.34,15.75,66.09,15.8Zm8,8.61,0.1,0L74.07,24,74,24Zm-2.4-3.92-0.28.05,0,0.07,0.21,0.15Zm2.67-6.62-0.1,0a0.46,0.46,0,0,0,0,.21,0.39,0.39,0,0,0,.19,0l0.06-.09Zm1.07,13a0.43,0.43,0,0,0,0-.13,2.46,2.46,0,0,0-.2-0.18,0.27,0.27,0,0,0-.08.06l0.15,0.18A0.67,0.67,0,0,0,75.47,26.85Zm1.82-16.71c0-.24,0-0.27-0.32-0.25Zm-3,12.17-0.2.24,0.25,0.14,0.05,0Zm-1.5-7.43s0,0.09,0,.13L73,15a0.44,0.44,0,0,0,0-.12H72.74Zm2.35-.08L75,14.62l-0.13.1a1,1,0,0,0,.12.16A0.52,0.52,0,0,0,75.09,14.8ZM70,15.91a0.52,0.52,0,0,0,.12-0.12,0.27,0.27,0,0,0-.1-0.14,0.29,0.29,0,0,0-.13.08Zm3.94,23H74c0-.14,0-0.27,0-0.44l-0.21.1Zm-2.45-19.7-0.08.07,0.17,0.25,0.08-.08C71.61,19.37,71.55,19.29,71.49,19.21Zm6.73,6.28,0.1,0-0.14-.35-0.1,0ZM73.11,20.6l0.1-.05-0.11-.23L73,20.37Zm1.31-6.19a1,1,0,0,0,.15.16,0.15,0.15,0,0,0,.1-0.07,0.32,0.32,0,0,0-.07-0.17A0.48,0.48,0,0,0,74.43,14.41Zm-1.69,4,0,0.05a0.3,0.3,0,0,0,.14-0.06,0.9,0.9,0,0,0,0-.24h0Zm-0.33-.52,0-.09L72,17.69s0,0.06,0,.09Zm2.51,9-0.21-.39-0.06,0A0.36,0.36,0,0,0,74.92,26.9Zm1-13.5s0-.08,0-0.12l-0.25,0s0,0.07,0,.1h0.25Zm-2.53,17.8-0.11-.06-0.11.21,0.1,0.06C73.27,31.35,73.31,31.28,73.35,31.21ZM77.93,9.48c-0.1-.25-0.14-0.28-0.32-0.21Zm-0.35.33-0.08.09,0.19,0.16L77.75,10ZM73.49,24.43l0.09,0c0-.1-0.06-0.21-0.08-0.31l-0.09,0Zm1.89,7.86-0.12,0a0.61,0.61,0,0,0,0,.19,0.27,0.27,0,0,0,.12.08ZM74.3,26c0,0.17-.07.27-0.11,0.4C74.41,26.31,74.41,26.3,74.3,26ZM72.65,14.6a0.76,0.76,0,0,0,.14-0.13,0.13,0.13,0,0,0-.06-0.09,0.29,0.29,0,0,0-.14.07A0.6,0.6,0,0,0,72.65,14.6Zm-0.93,2.72-0.25-.16C71.45,17.37,71.57,17.37,71.71,17.31Zm6.4,2.87,0.07-.09L78,20l0,0.06Zm5-12.86,0,0.08,0.26,0.11,0-.1Zm-8.8,14a0.39,0.39,0,0,0,.09-0.1,0.53,0.53,0,0,0-.09-0.14,0.16,0.16,0,0,0-.07.06A0.91,0.91,0,0,0,74.31,21.37Zm-0.66,2c0.24-.14.25-0.16,0.08-0.28Zm-0.82-5.75-0.1.05c0,0.07.07,0.14,0.11,0.21l0.07,0Zm-2.3-.1h0a0.6,0.6,0,0,0,0-.2,0.4,0.4,0,0,0-.2,0ZM74.36,10s0-.05,0-0.08H74.18s0,0.07,0,.11Zm0.27,1.09,0,0.08,0.22-.1,0-.09Zm2.19,1.12-0.08-.06-0.16.25,0.07,0.05Z" transform="translate(0 0)" fill="#fae90b" fill-rule="evenodd"/><path d="M77.68,48.75l-0.1.21c-0.06.12,0.34,0.07,0.08,0.31L77.5,49.1l-0.05,0a3.12,3.12,0,0,0,.17.5,0.21,0.21,0,0,1,0,.3,0.46,0.46,0,0,0,0,.22L77.33,50c0,0.13-.06.25-0.09,0.36l-0.08.08-0.08,0c-0.05-.12,0-0.31-0.21-0.31h0a0.84,0.84,0,0,0-.47-0.79l0.09,0.18,0,0-0.29-.18a0.27,0.27,0,0,1,0-.06c0.27,0,.31-0.2.26-0.44h-0.2a0.54,0.54,0,0,1,0-.59,0.21,0.21,0,0,0,0-.16c-0.06-.09-0.14-0.16-0.26-0.3l0.33,0,0-.22L76,47.64c-0.17-.06-0.16-0.17-0.08-0.31a0.49,0.49,0,0,0-.22-0.56c0,0.07,0,.14,0,0.2H75.62l-0.09-.21h0a3.3,3.3,0,0,0,.2-0.28,0.66,0.66,0,0,0,0-.18c0.15,0,.3.08,0.31-0.23l-0.31.23A1.15,1.15,0,0,1,75.85,46a0.28,0.28,0,0,0-.08-0.44,0.31,0.31,0,0,1-.14-0.41h0l0.22,0V45.13l-0.1-.06c0-.17.09-0.36,0.15-0.6l-0.44.29-0.24-.4,0-.07,0.44,0.08,0.43,0.07,0-.06-0.26-.11L76.06,44l0.17,0.15,0.18,0h0.24a1.46,1.46,0,0,1,0,.28,0.58,0.58,0,0,1-.12.18H77l0.11-.13,0.1,0.21a0.39,0.39,0,0,0-.2.45,0.78,0.78,0,0,1-.06.35c0.05,0.12.51,0,.19,0.38l0.17,0.11-0.12.56,0.16,0.14L77,46.8,77.38,47a0.37,0.37,0,0,0,0,.07l-0.19,0c0,0.12,0,.23,0,0.41l0.16-.2c0.14,0.15,0,.5.28,0.51l-0.1.14a1.2,1.2,0,0,1,.26.17,1,1,0,0,1,.11.26l-0.05,0-0.18-.11A0.35,0.35,0,0,0,77.68,48.75Zm-1.32-.46c0,0.19,0,.35-0.06.52,0.08-.18.36,0.21,0.35-0.15A0.37,0.37,0,0,0,76.37,48.29Zm0.52,1.24,0-.1-0.31-.09,0,0.11Z" transform="translate(0 0)" fill="#fae90b" fill-rule="evenodd"/><path d="M84.1,86.43l0.14-.18H84.3c0,0.16,0,.32.05,0.48l-0.23.09a2.23,2.23,0,0,0,.16.18,0.22,0.22,0,0,0,.11,0h0l-0.18.41a0.31,0.31,0,0,0,.14-0.11c0.15-.16.22-0.14,0.3,0.07a0.8,0.8,0,0,0,.12.15h0L84.69,88c-0.14-.07-0.26-0.07-0.26.18l-0.21-.32H84.17c0,0.1,0,.19,0,0.32l-0.4.09,0-.07-0.08.21a0.37,0.37,0,0,0-.34.15,0.93,0.93,0,0,1-.46.16l-0.19.06a1,1,0,0,1-.27.07L81.75,89l0.12-.26L82,88.49l0.1-.31,0.12-.26h0.07l0.13,0.29c0.12,0,.28-0.11.34,0.14L83,88.25l-0.2-.43a2.82,2.82,0,0,0,.39-0.18,1.29,1.29,0,0,0,.17-0.25,0.88,0.88,0,0,1,.22-0.22,0.19,0.19,0,0,0,.08-0.3,0.48,0.48,0,0,1,0-.16l0.16,0,0.39,0,0-.08Zm-0.21.71c-0.21.16-.21,0.21-0.06,0.38Z" transform="translate(0 0)" fill="#fae90b" fill-rule="evenodd"/><path d="M84.13,77.48l0.13,0.36,0,0.39h0l-0.1.2L84,78.3c-0.09.22,0.07,0.29,0.17,0.39a1.09,1.09,0,0,1-.77-0.11l-0.05-.21-0.06,0-0.2.39c-0.11-.09-0.15-0.3-0.36-0.21l-0.16-.33-0.62,0c0,0.09,0,.17,0,0.24,0-.11-0.08-0.23-0.11-0.36A0.43,0.43,0,0,0,82,77.47l0.35,0c0,0.09,0,.19,0,0.29h0.06c0-.09,0-0.17.07-0.26h0l0.15,0.23,0,0,0.2,0.12h0a0.64,0.64,0,0,0,0,.26,2.18,2.18,0,0,0,.26.31l0.08-.32,0.25,0,0.21,0.17,0.06,0a7,7,0,0,0-.25-0.83c-0.05-.13-0.05-0.19.06-0.26l0.06,0.14,0.07,0.22a0.31,0.31,0,0,0,.11-0.06c0.11-.12.2-0.15,0.29,0A0.31,0.31,0,0,0,84.13,77.48Z" transform="translate(0 0)" fill="#fae90b" fill-rule="evenodd"/><path d="M77.07,50.5l0.08,0,0.12,0.13a0.48,0.48,0,0,0,.1.15,1.21,1.21,0,0,0,.22-0.12h0.06l0.22,0.24a2.64,2.64,0,0,1,0-.48A0.35,0.35,0,0,1,78.24,50a0.82,0.82,0,0,0,0,1l-0.5.14,0.15,0.22-0.17.1L77.21,51c0,0.15,0,.27,0,0.38h-0.3l-0.16-.3c-0.23.15-.33,0-0.42-0.17l0.22-.13-0.19-.54H76.3l0.37-.43,0.2,0.37h0a0.42,0.42,0,0,0,.13.46Zm0,0.44-0.38,0L77,51.18Z" transform="translate(0 0)" fill="#fae90b" fill-rule="evenodd"/><path d="M83.19,79.36l0.09,0.19c0,0.15,0,.29,0,0.43a5.07,5.07,0,0,0-.23.46,3.47,3.47,0,0,0-.11.45,0.48,0.48,0,0,1,0-.72l0,0-0.19.09a2.69,2.69,0,0,0,.1-0.31c0-.13,0-0.16-0.18-0.15l0.05,0.16-0.17.17-0.43,0,0.19,0.17c0,0.1,0,.16,0,0.23L82,80.35l-0.14-.15a0.16,0.16,0,0,1,0,0V80.1L82,80l-0.14-.08a0.42,0.42,0,0,1-.19-0.14,0.81,0.81,0,0,0,.25,0,0.66,0.66,0,0,0,0-.19c0.19,0,.27-0.1.32-0.31l0.31,0.35,0.06-.21,0.07-.3c0.06-.28.21-0.1,0.33-0.09l-0.08.27,0.07,0Z" transform="translate(0 0)" fill="#fae90b" fill-rule="evenodd"/><path d="M82.94,80.89A3.47,3.47,0,0,1,83,80.44,4.62,4.62,0,0,1,83.28,80l0.26,0.23,0.18,0.52,0,0.17a0.7,0.7,0,0,1-.07.19,1.36,1.36,0,0,1-.19.16l-0.39.13A1.58,1.58,0,0,0,83,81.1,0.27,0.27,0,0,0,82.84,81Z" transform="translate(0 0)" fill="#fae90b" fill-rule="evenodd"/><path d="M77.92,40.53L78,40.28l-0.37,0c0-.24.23-0.55-0.13-0.79l0.11,0,0.29,0.45a0.26,0.26,0,0,0,0-.36,2.23,2.23,0,0,0-.24-0.2l-0.21-.2,0.08-.09a4.59,4.59,0,0,1,.51.55c0.14,0.21,0,.36-0.27.46l0.34,0.14c0-.08,0-0.14,0-0.2h0a1,1,0,0,0,0,.24,0.59,0.59,0,0,0,.2.26c0.15,0.08.14,0.15,0,.27s-0.11.29,0.1,0.38L79,41.33l-0.21.07,0.15,0.08L78.73,42h0c0-.17,0-0.35,0-0.54l-0.3-.12-0.1-.08a0.38,0.38,0,0,1-.15-0.5c0-.21,0-0.23-0.2-0.2h0Z" transform="translate(0 0)" fill="#fae90b" fill-rule="evenodd"/><path d="M61,16.45c-0.2,0-.38.06-0.46-0.21l0.26,0,0-.06-0.31-.26c0.38-.14.43-0.66,0.83-0.8l0.08,0c0,0.17-.07.34-0.1,0.51a1.06,1.06,0,0,0,0,.26c0,0.1,0,.2,0,0.3H61.34a1.2,1.2,0,0,0-.1-0.27,0.45,0.45,0,0,0-.19-0.11,0.66,0.66,0,0,0-.07.2A3.05,3.05,0,0,0,61,16.45Z" transform="translate(0 0)" fill="#fae90b" fill-rule="evenodd"/><path d="M68.74,12.71c0.26-.21.72-0.19,0.7-0.73a0.75,0.75,0,0,0,.17.1,0.67,0.67,0,0,0,.18,0,0.41,0.41,0,0,0,0-.18c-0.1-.14-0.22-0.26-0.32-0.39a1.46,1.46,0,0,1,.72.77,0.53,0.53,0,0,0-.58.26A0.65,0.65,0,0,1,68.74,12.71Z" transform="translate(0 0)" fill="#fae90b" fill-rule="evenodd"/><path d="M72.32,12c0,0.33,0,.65.07,1-0.13.14-.16,0.14-0.31-0.09a1.4,1.4,0,0,0-.19-0.19c0.23-.17.13-0.36,0.05-0.57A0.49,0.49,0,0,1,72,11.9c0-.1-0.15-0.24.07-0.29a0.21,0.21,0,0,1,.14.12,2,2,0,0,1,.11.29h0Z" transform="translate(0 0)" fill="#fae90b" fill-rule="evenodd"/><path d="M81.08,89.1c-0.1.26-.33,0.15-0.5,0.21a0.28,0.28,0,0,1-.37-0.15l-0.07,0a0.75,0.75,0,0,1,.1-0.16c0.13,0.06.19,0,.27-0.12a0.34,0.34,0,0,1,.23-0.09,0.64,0.64,0,0,0,.58-0.31l0.05,0-0.13.27h0l-0.34.38,0,0.05Z" transform="translate(0 0)" fill="#fae90b" fill-rule="evenodd"/><path d="M72.57,27.71c0.16-.27,0-0.59.4-0.68a3.75,3.75,0,0,0-.08,1l-0.33-.15-0.07.22H72.43a1,1,0,0,1,0-.23,0.28,0.28,0,0,0-.24-0.34A0.39,0.39,0,0,1,72,27.27C72.16,27.46,72.55,27.23,72.57,27.71Z" transform="translate(0 0)" fill="#fae90b" fill-rule="evenodd"/><path d="M62.13,16.33a0.94,0.94,0,0,0,.35.07,0.54,0.54,0,0,0,.12-0.24,3.21,3.21,0,0,1,.48.2,0.35,0.35,0,0,1,.1.27,0.34,0.34,0,0,1-.19.12,0.47,0.47,0,0,1-.23,0,0.92,0.92,0,0,1-.35-0.12A1.83,1.83,0,0,1,62.13,16.33Z" transform="translate(0 0)" fill="#fae90b" fill-rule="evenodd"/><path d="M74.45,9.45l-0.12-.58H74.08l1-.68c0.06,0.11,0,.18-0.13.3l-0.35.26L74.87,8.9l-0.43.55h0Z" transform="translate(0 0)" fill="#fae90b" fill-rule="evenodd"/><path d="M82.09,88.18l-0.1.31-0.11.28-0.34.13,0.13,0.23-0.57-.06,0.26-.24-0.12-.1h0l0.22,0,0.1-.42h0c0,0.06,0,.12,0,0.23Z" transform="translate(0 0)" fill="#fae90b" fill-rule="evenodd"/><path d="M78.29,89.21s0-.08,0-0.16l0.25,0.44a1.11,1.11,0,0,1-.67.17,0.27,0.27,0,0,1-.12-0.21A1,1,0,0,1,78,89.09,0.65,0.65,0,0,1,78.29,89.21Z" transform="translate(0 0)" fill="#fae90b" fill-rule="evenodd"/><path d="M73.53,38.46l0,0.06L73,38.21a0.34,0.34,0,0,0-.16,0h0l-0.26-.08h0A0.49,0.49,0,0,1,73,38.07l0.13,0.11a0.62,0.62,0,0,0,.1.11c0-.15.09-0.31-0.15-0.37s-0.12-.16,0-0.25a1.35,1.35,0,0,1,.24-0.1c0,0.23,0,.37.19,0.4a0.34,0.34,0,0,1,0,.24A0.15,0.15,0,0,0,73.53,38.46Z" transform="translate(0 0)" fill="#fae90b" fill-rule="evenodd"/><path d="M63.2,15.71a0.21,0.21,0,0,0,0-.07,1.12,1.12,0,0,1-.08-0.42,1,1,0,0,1,.26-0.32,0.19,0.19,0,0,0,.29-0.08,1.24,1.24,0,0,1,.23.14,0.26,0.26,0,0,1,0,.17,0.48,0.48,0,0,1-.26.09c-0.23,0-.3,0-0.35.26a0.74,0.74,0,0,1-.15.23h0Z" transform="translate(0 0)" fill="#fae90b" fill-rule="evenodd"/><path d="M81.24,59.07l-0.13-.27h0.25s0-.08,0-0.12l-0.1.1,0.46,0.38v0l-0.12-.07,0,0,0.25,0.37-0.44.22c0-.22,0-0.45,0-0.7Z" transform="translate(0 0)" fill="#fae90b" fill-rule="evenodd"/><path d="M71.92,21.9l-0.26,0,0.11,0.29c-0.28.11-.3,0.09-0.31-0.2a4.39,4.39,0,0,0-.09-0.6,1,1,0,0,1,.4.13A1.14,1.14,0,0,1,71.92,21.9Z" transform="translate(0 0)" fill="#fae90b" fill-rule="evenodd"/><path d="M74,40.15l-0.29-.29,0.06-.07,0.14,0.15a0.63,0.63,0,0,0-.12-0.42l0.19,0,0.08-.36h0a0.47,0.47,0,0,1,.12.16c-0.08.17,0.05,0.18,0.13,0.24l0.1,0.08a0.77,0.77,0,0,0-.19.27c0,0.17-.09.22-0.24,0.19h0Z" transform="translate(0 0)" fill="#fae90b" fill-rule="evenodd"/><path d="M78.92,89.24A1.85,1.85,0,0,1,79,89a0.58,0.58,0,0,1,.33.08c0,0.22.18,0.13,0.28,0.16s0,0.1,0,.15c-0.22,0-.42.09-0.64,0.12a0.32,0.32,0,0,1-.12-0.1Z" transform="translate(0 0)" fill="#fae90b" fill-rule="evenodd"/><path d="M83.14,83.84L83,84l0.16,0.15-0.11.05A1.56,1.56,0,0,1,82.9,84a2.24,2.24,0,0,1-.17-0.22c0-.17,0-0.35,0-0.53l0.08-.14,0.26,0.34Z" transform="translate(0 0)" fill="#fae90b" fill-rule="evenodd"/><path d="M83.06,76.37l0.19,0,0,0.08L83.49,77c-0.29.08-.27-0.2-0.39-0.34l0,0.38h0l-0.38,0-0.13-.19C82.95,76.89,82.93,76.56,83.06,76.37Z" transform="translate(0 0)" fill="#fae90b" fill-rule="evenodd"/><path d="M72.53,10.18c0.18-.25.38,0.09,0.59-0.11l-0.17.33a0.45,0.45,0,0,0,.21.09,1,1,0,0,0,.27-0.19c0.08,0.05.07,0.14,0,.23a0.46,0.46,0,0,1-.71-0.15A1,1,0,0,0,72.53,10.18Z" transform="translate(0 0)" fill="#fae90b" fill-rule="evenodd"/><path d="M77.5,52.82L77,52.44l0.21-.32h0l0.34,0.18h0c0,0.16.08,0.33,0.12,0.49h0l-0.18,0h0Z" transform="translate(0 0)" fill="#fae90b" fill-rule="evenodd"/><path d="M77.38,59.41l0.31,0.15,0,0.07h0a0.25,0.25,0,0,1,.22.29,0.39,0.39,0,0,0,.1.16h0l-0.12.08-0.09-.05a1.66,1.66,0,0,0-.18-0.2,0.24,0.24,0,0,0-.12.1,0.64,0.64,0,0,0,.09.18h0c-0.24.1-.25,0.1-0.23-0.16s0-.41,0-0.62h0Z" transform="translate(0 0)" fill="#fae90b" fill-rule="evenodd"/><path d="M82.65,83c0,0.11-.13.23,0,0.33-0.06.3-.1,0.31-0.33,0.15a0.57,0.57,0,0,0-.26,0l-0.16-.13L82,83.13l0.38,0.19Z" transform="translate(0 0)" fill="#fae90b" fill-rule="evenodd"/><path d="M82.83,81.06c-0.05.18-.07,0.41-0.36,0.33,0-.1-0.06-0.34-0.3-0.11,0-.19.08-0.28,0.25-0.22A0.24,0.24,0,0,0,82.55,81c0-.21-0.27,0-0.15-0.24,0.08,0,.24.06,0.2-0.15a0.48,0.48,0,0,1,.09.2C82.66,81,82.69,81,82.83,81.06Z" transform="translate(0 0)" fill="#fae90b" fill-rule="evenodd"/><path d="M72.32,12a2.57,2.57,0,0,1,.13-0.4,0.34,0.34,0,0,1,.2-0.17c0.18,0,.29,0,0.24.25a3,3,0,0,0,0,.32H72.75l-0.09-.4c-0.16.11-.09,0.42-0.34,0.38h0Z" transform="translate(0 0)" fill="#fae90b" fill-rule="evenodd"/><path d="M77.38,64l0.2,0.31,0,0.12H77.7l-0.18.38-0.13-.47-0.4.09-0.13-.19C77.05,64.26,77.28,64.33,77.38,64Z" transform="translate(0 0)" fill="#fae90b" fill-rule="evenodd"/><path d="M77.72,51.47l0.17-.1L78,51.47l-0.18.22,0,0c0,0.08,0,.17,0,0.25l0.3,0.16a0.27,0.27,0,0,1-.12.07A1.85,1.85,0,0,1,77.67,52a0.26,0.26,0,0,1-.11-0.15,0.37,0.37,0,0,1,.12-0.12l-0.15-.16Z" transform="translate(0 0)" fill="#fae90b" fill-rule="evenodd"/><path d="M68.43,14c-0.37-.14-0.24-0.42-0.19-0.68C68.62,13.55,68.67,13.72,68.43,14Z" transform="translate(0 0)" fill="#fae90b" fill-rule="evenodd"/><path d="M82,78.46l-0.4.34a1.21,1.21,0,0,1,.19-0.93A0.47,0.47,0,0,0,82,78.46Z" transform="translate(0 0)" fill="#fae90b" fill-rule="evenodd"/><path d="M72.62,38.34a0.4,0.4,0,0,0-.5.3l-0.2-.42,0.5-.22,0.12,0.13h0C72.4,38.28,72.59,38.27,72.62,38.34Z" transform="translate(0 0)" fill="#fae90b" fill-rule="evenodd"/><path d="M77.27,43.15c0,0.32-.28.23-0.39,0.37-0.23-.19,0-0.37,0-0.54a0.41,0.41,0,0,1,.18-0.07l0,0.05L77,43.16h0.24Z" transform="translate(0 0)" fill="#fae90b" fill-rule="evenodd"/><path d="M59.77,15.28c0.19-.37.46-0.57,0.67-0.38a1.11,1.11,0,0,0-.32.19,0.84,0.84,0,0,0,.12.31Z" transform="translate(0 0)" fill="#fae90b" fill-rule="evenodd"/><path d="M82.48,77.47a0.44,0.44,0,0,1,.14-0.06l0.4,0h0a0.39,0.39,0,0,1,.09.51v0l-0.33-.08h0c0-.31,0-0.35-0.32-0.37h0Z" transform="translate(0 0)" fill="#fae90b" fill-rule="evenodd"/><path d="M70.86,11.34l0.6-.52c0.06,0.32-.4.41-0.2,0.76Z" transform="translate(0 0)" fill="#fae90b" fill-rule="evenodd"/><path d="M83.11,81.38l0.39-.13-0.06.27c-0.1-.08-0.17,0-0.15.07s-0.1.18-.21,0.2L83,81.74l-0.11-.09Z" transform="translate(0 0)" fill="#fae90b" fill-rule="evenodd"/><path d="M87.45,78.14l-0.08-.07c0-.1,0-0.21,0-0.32,0.4,0,.46.1,0.36,0.5Z" transform="translate(0 0)" fill="#fae90b" fill-rule="evenodd"/><path d="M64.32,15.92a0.36,0.36,0,0,1-.14.08,0.44,0.44,0,0,1-.3-0.51A0.42,0.42,0,0,1,64,15.38l0.06,0.15c0,0.08.06,0.16,0.1,0.24A0.92,0.92,0,0,0,64.32,15.92Z" transform="translate(0 0)" fill="#fae90b" fill-rule="evenodd"/><path d="M77,54.74l0.15,0.1c0.17,0.11.16,0.17,0,.3s-0.28,0-.27-0.19a2.4,2.4,0,0,1,0-.42Z" transform="translate(0 0)" fill="#fae90b" fill-rule="evenodd"/><path d="M77.22,52.13L77,51.9l0,0,0.16,0-0.11-.43c0.43,0.36.46,0.55,0.13,0.69h0Z" transform="translate(0 0)" fill="#fae90b" fill-rule="evenodd"/><path d="M72.35,25.81a3.92,3.92,0,0,1-.1.4,0.45,0.45,0,0,1-.13.18,0.39,0.39,0,0,1-.16,0,1.18,1.18,0,0,1,0-.17,0.56,0.56,0,0,0,.08-0.15C72.06,25.86,72.1,25.81,72.35,25.81Z" transform="translate(0 0)" fill="#fae90b" fill-rule="evenodd"/><path d="M82.61,76.83L82.75,77c0,0.06,0,.12,0,0.19-0.22.1-.29,0.06-0.37-0.16a1.16,1.16,0,0,0-.14-0.21h0.37Z" transform="translate(0 0)" fill="#fae90b" fill-rule="evenodd"/><path d="M63.15,14.39c0.59-.09.67-0.06,0.6,0.31Z" transform="translate(0 0)" fill="#fae90b" fill-rule="evenodd"/><path d="M76.52,42.54V42.49l0.44,0L76.7,43a0.39,0.39,0,0,0,0,.11c0,0.3-.07.31-0.29,0.13,0,0,0,0,0-.07l0.15,0.06,0.22-.71Z" transform="translate(0 0)" fill="#fae90b" fill-rule="evenodd"/><path d="M77.31,39.41c-0.21-.12.12-0.62-0.38-0.48,0-.08,0-0.15,0-0.25a1.34,1.34,0,0,1,.3.11,0.8,0.8,0,0,1,.17.16Z" transform="translate(0 0)" fill="#fae90b" fill-rule="evenodd"/><path d="M77.56,52.31c0.1-.13.21-0.07,0.31,0a0.49,0.49,0,0,0,.51.08,0.4,0.4,0,0,1,.19.09h0a0.29,0.29,0,0,0-.35.3h0A0.41,0.41,0,0,1,78,52.65a0.49,0.49,0,0,0-.49-0.34h0Z" transform="translate(0 0)" fill="#fae90b" fill-rule="evenodd"/><path d="M64.9,13.91l0.29-.42L65,13.4l0-.06a0.33,0.33,0,0,1,.17,0,0.48,0.48,0,0,1,.15.28A2.27,2.27,0,0,1,65,14Z" transform="translate(0 0)" fill="#fae90b" fill-rule="evenodd"/><path d="M69.75,12.68c0,0.22,0,.41,0,0.62a0.3,0.3,0,0,1-.25-0.36A0.23,0.23,0,0,1,69.75,12.68Z" transform="translate(0 0)" fill="#fae90b" fill-rule="evenodd"/><path d="M72.61,24.09C71.91,24,71.83,24,72,23.69Z" transform="translate(0 0)" fill="#fae90b" fill-rule="evenodd"/><path d="M76.78,7.38l-0.3.12a0.25,0.25,0,0,1-.17,0,0.5,0.5,0,0,1-.12-0.23,0.21,0.21,0,0,1,.12-0.12A4.94,4.94,0,0,1,76.78,7.38Z" transform="translate(0 0)" fill="#fae90b" fill-rule="evenodd"/><path d="M71.09,23.49C71,23.22,70.92,23,70.57,23c0.27-.27.32-0.25,0.46,0A0.37,0.37,0,0,1,71.09,23.49Z" transform="translate(0 0)" fill="#fae90b" fill-rule="evenodd"/><path d="M77.27,50.59l-0.12-.13,0.08-.08,0.32-.09,0.22-.18,0.05,0-0.19.49H77.58C77.49,50.46,77.38,50.54,77.27,50.59Z" transform="translate(0 0)" fill="#fae90b" fill-rule="evenodd"/><path d="M71.8,64.22l0.28,0.27a0.36,0.36,0,0,1-.57,0Z" transform="translate(0 0)" fill="#fae90b" fill-rule="evenodd"/><path d="M77,64a0.68,0.68,0,0,0,.13-0.54,0.3,0.3,0,0,1,.15,0,0.49,0.49,0,0,1,.13.1L77.35,64Z" transform="translate(0 0)" fill="#fae90b" fill-rule="evenodd"/><path d="M83.52,86.16l-0.09-.61a0.81,0.81,0,0,1,.32.21A0.3,0.3,0,0,1,83.52,86.16Z" transform="translate(0 0)" fill="#fae90b" fill-rule="evenodd"/><path d="M83.55,75.91l-0.48.26c0-.07,0-0.13,0-0.19l0-.05,0.42-.41C83.52,75.67,83.54,75.79,83.55,75.91Z" transform="translate(0 0)" fill="#fae90b" fill-rule="evenodd"/><path d="M70.9,19.06l-0.22-.19,0-.08a0.42,0.42,0,0,1,.21.11,0.41,0.41,0,0,1-.07.3,0.82,0.82,0,0,1-.28.13C70.54,19.23,70.58,19.14,70.9,19.06Z" transform="translate(0 0)" fill="#fae90b" fill-rule="evenodd"/><path d="M76.23,32.56c0-.11,0-0.22,0-0.36,0.17,0.11.37,0.15,0.26,0.36l0.2,0.29h0l-0.19,0H76.37l-0.15-.26h0Z" transform="translate(0 0)" fill="#fae90b" fill-rule="evenodd"/><path d="M68.22,13L68,13.53l-0.21-.44Z" transform="translate(0 0)" fill="#fae90b" fill-rule="evenodd"/><path d="M75.49,43.52l0.26,0.16a0.18,0.18,0,0,1-.09.28L75.5,44l0.1-.17-0.16,0Z" transform="translate(0 0)" fill="#fae90b" fill-rule="evenodd"/><path d="M60.89,13.52a3.05,3.05,0,0,1,.25.33,0.47,0.47,0,0,1,0,.19A0.36,0.36,0,0,1,61,14,0.34,0.34,0,0,1,60.89,13.52Z" transform="translate(0 0)" fill="#fae90b" fill-rule="evenodd"/><path d="M78.26,41.22l0.1,0.08c0,0.08-.1.17-0.14,0.25l-0.17.32C77.89,41.68,77.95,41.53,78.26,41.22Z" transform="translate(0 0)" fill="#fae90b" fill-rule="evenodd"/><path d="M81.62,80.15l-0.73,0c0-.13.07-0.18,0.21-0.13a1.91,1.91,0,0,0,.32,0,0.81,0.81,0,0,1,.23.1Z" transform="translate(0 0)" fill="#fae90b" fill-rule="evenodd"/><path d="M92.62,64.93l0.06-.46a0.17,0.17,0,0,1,.17.25,0.25,0.25,0,0,0,0,.09c0,0.06,0,.12,0,0.18Z" transform="translate(0 0)" fill="#fae90b" fill-rule="evenodd"/><path d="M73.16,37c0-.1,0-0.2,0-0.31l0.07,0.1,0.29,0.7c-0.32,0-.25-0.35-0.37-0.5h0Z" transform="translate(0 0)" fill="#fae90b" fill-rule="evenodd"/><path d="M79.56,47.58a1.55,1.55,0,0,1,.13-0.36A0.89,0.89,0,0,1,79.94,47c0,0.12,0,.26,0,0.43l-0.25-.11,0.07,0.2Z" transform="translate(0 0)" fill="#fae90b" fill-rule="evenodd"/><path d="M77.18,66.64a0.16,0.16,0,0,0-.05.07c0.15,0.36.11,0.49-.21,0.67l0.23-.46c-0.26-.07-0.12-0.3-0.19-0.44h0Z" transform="translate(0 0)" fill="#fae90b" fill-rule="evenodd"/><path d="M83.08,84.18l0.11-.05,0.24,0.08-0.24.24-0.06.28-0.11,0Z" transform="translate(0 0)" fill="#fae90b" fill-rule="evenodd"/><path d="M77.16,40.39l-0.25.44L77.06,41c-0.26,0-.33-0.19-0.2-0.38s0.06-.12.1-0.18a1.28,1.28,0,0,1,.15-0.14Z" transform="translate(0 0)" fill="#fae90b" fill-rule="evenodd"/><path d="M71.68,33.46l0,0.07,0.35,0.36a0.51,0.51,0,0,1-.21,0,0.9,0.9,0,0,1-.28-0.23C71.52,33.57,71.56,33.48,71.68,33.46Z" transform="translate(0 0)" fill="#fae90b" fill-rule="evenodd"/><path d="M88.57,82.53l0.06-.18,0.07,0a0.8,0.8,0,0,1,.16.3,1.33,1.33,0,0,1-.13.41h0C88.68,82.87,88.62,82.7,88.57,82.53Z" transform="translate(0 0)" fill="#fae90b" fill-rule="evenodd"/><path d="M73.5,29.56l-0.44-.31,0.55-.11-0.11.42h0Z" transform="translate(0 0)" fill="#fae90b" fill-rule="evenodd"/><path d="M79.92,48.05c-0.06.26-.17,0.28-0.53,0.07h0.23l0.06-.22Z" transform="translate(0 0)" fill="#fae90b" fill-rule="evenodd"/><path d="M74,45.42l-0.06-.32A3.47,3.47,0,0,1,74.28,45a0.24,0.24,0,0,1,0,.12c-0.08.07-.06,0.28-0.24,0.2A0.23,0.23,0,0,0,74,45.42Z" transform="translate(0 0)" fill="#fae90b" fill-rule="evenodd"/><path d="M60,16.48c0-.13,0-0.27,0-0.4A0.29,0.29,0,0,1,60.08,16a1.14,1.14,0,0,1,.13.32,0.5,0.5,0,0,1-.16.2Z" transform="translate(0 0)" fill="#fae90b" fill-rule="evenodd"/><path d="M75.64,45.16l-0.13-.05a0.68,0.68,0,0,1-.1-0.1l-0.06.15h0L75.08,45a0.25,0.25,0,0,1,.09-0.08,3.7,3.7,0,0,1,.43.13,0.32,0.32,0,0,1,0,.15h0Z" transform="translate(0 0)" fill="#fae90b" fill-rule="evenodd"/><path d="M82.28,85.1a2.52,2.52,0,0,0-.37.07,1.91,1.91,0,0,0-.29.14A0.62,0.62,0,0,1,81.69,85,0.4,0.4,0,0,1,82,85,1.41,1.41,0,0,1,82.28,85.1Z" transform="translate(0 0)" fill="#fae90b" fill-rule="evenodd"/><path d="M70.55,12.52a0.33,0.33,0,0,0-.07.5,0.29,0.29,0,0,1-.25-0.37A0.19,0.19,0,0,1,70.55,12.52Z" transform="translate(0 0)" fill="#fae90b" fill-rule="evenodd"/><path d="M71.8,31.24l0,0.32a0.29,0.29,0,0,1-.13,0c-0.08-.08-0.15-0.18-0.22-0.27H71.8Z" transform="translate(0 0)" fill="#fae90b" fill-rule="evenodd"/><path d="M63.8,13.35l0.62,0.07s0,0,0,.07l-0.22,0c0,0.06,0,.11,0,0.18-0.19-.06-0.13-0.42-0.45-0.28Z" transform="translate(0 0)" fill="#fae90b" fill-rule="evenodd"/><path d="M87.94,79.18L88,79a0.37,0.37,0,0,1,.15,0,0.42,0.42,0,0,1,.07.22,1.46,1.46,0,0,1-.07.29Z" transform="translate(0 0)" fill="#fae90b" fill-rule="evenodd"/><path d="M76.75,55.67l0.46,0,0,0.39A2.7,2.7,0,0,1,76.75,55.67Z" transform="translate(0 0)" fill="#fae90b" fill-rule="evenodd"/><path d="M73.18,38.78H73c-0.23,0-.25-0.05-0.19-0.31L73,38.63l0.06,0-0.1-.17-0.13-.21h0a0.64,0.64,0,0,1,.38.57h0Z" transform="translate(0 0)" fill="#fae90b" fill-rule="evenodd"/><path d="M75.4,47.7l0.48,0-0.3.38-0.23-.27Z" transform="translate(0 0)" fill="#fae90b" fill-rule="evenodd"/><path d="M81.77,60.06l-0.07-.14,0.05,0,0.19,0.3a1.59,1.59,0,0,1-.24.11,0.76,0.76,0,0,1-.18,0,0.85,0.85,0,0,1,.11-0.18A0.28,0.28,0,0,1,81.77,60.06Z" transform="translate(0 0)" fill="#fae90b" fill-rule="evenodd"/><path d="M75.29,45.9l0.32,0.49A0.32,0.32,0,0,1,75.29,45.9Z" transform="translate(0 0)" fill="#fae90b" fill-rule="evenodd"/><path d="M76.59,38.32a0.44,0.44,0,0,1,.24,0,0.87,0.87,0,0,1,.08.32l-0.41-.18h0l0-.14Z" transform="translate(0 0)" fill="#fae90b" fill-rule="evenodd"/><path d="M70.09,40.23l0.2,0.2,0,0-0.1-.22c0.25,0,.28.13,0.12,0.48L70,40.28Z" transform="translate(0 0)" fill="#fae90b" fill-rule="evenodd"/><path d="M70.31,11.21a0.41,0.41,0,0,1-.07.47,0.6,0.6,0,0,1-.25.06Z" transform="translate(0 0)" fill="#fae90b" fill-rule="evenodd"/><path d="M72,11l0.26,0.13-0.1.23-0.23-.24Z" transform="translate(0 0)" fill="#fae90b" fill-rule="evenodd"/><path d="M75.82,57.13A1.24,1.24,0,0,0,75,56.84,0.62,0.62,0,0,1,75.82,57.13Z" transform="translate(0 0)" fill="#fae90b" fill-rule="evenodd"/><path d="M70.9,21.8l-0.24-.51a0.35,0.35,0,0,1,.31.47Z" transform="translate(0 0)" fill="#fae90b" fill-rule="evenodd"/><path d="M77.29,62.94c0,0.13,0,.23.05,0.4L76.92,63l0-.06Z" transform="translate(0 0)" fill="#fae90b" fill-rule="evenodd"/><path d="M70.34,11.9l0.23-.54a0.77,0.77,0,0,1,.08.33,1,1,0,0,1-.26.26Z" transform="translate(0 0)" fill="#fae90b" fill-rule="evenodd"/><path d="M81.85,80.2L82,80.35c0.14,0.18-.06.21-0.13,0.31a0.31,0.31,0,0,1-.1-0.39h0l0-.07h0.07Z" transform="translate(0 0)" fill="#fae90b" fill-rule="evenodd"/><path d="M76.18,34.81l0-.1,0.37-.21c0,0.06,0,.17,0,0.29L76.22,35h0Z" transform="translate(0 0)" fill="#fae90b" fill-rule="evenodd"/><path d="M63.61,16a0.33,0.33,0,0,1-.35.21,0.27,0.27,0,0,1,0-.18,0.19,0.19,0,0,1,.13-0.06A1.84,1.84,0,0,1,63.61,16Z" transform="translate(0 0)" fill="#fae90b" fill-rule="evenodd"/><path d="M65.49,33.5L65,33.42C65.2,33.13,65.28,33.14,65.49,33.5Z" transform="translate(0 0)" fill="#fae90b" fill-rule="evenodd"/><path d="M77.73,62.31l-0.08.15-0.35.27c0-.1,0-0.24,0-0.4h0.38Z" transform="translate(0 0)" fill="#fae90b" fill-rule="evenodd"/><path d="M61.87,14.27l0.48-.15C62.24,14.41,62.07,14.46,61.87,14.27Z" transform="translate(0 0)" fill="#fae90b" fill-rule="evenodd"/><path d="M77.26,37.64c0-.44,0-0.5.43-0.59,0,0.05,0,.1,0,0.18C77.29,37.09,77.37,37.47,77.26,37.64Z" transform="translate(0 0)" fill="#fae90b" fill-rule="evenodd"/><path d="M71.14,22c0,0.16,0,.31,0,0.53a0.77,0.77,0,0,1-.19-0.25A0.79,0.79,0,0,1,71,22Z" transform="translate(0 0)" fill="#fae90b" fill-rule="evenodd"/><path d="M83,81.74l0.11,0.05c0,0.15,0,.3,0,0.45L82.79,82Z" transform="translate(0 0)" fill="#fae90b" fill-rule="evenodd"/><path d="M76.92,43.66L77.24,44l-0.39,0Z" transform="translate(0 0)" fill="#fae90b" fill-rule="evenodd"/><path d="M63.19,15.71a0.59,0.59,0,0,1-.73,0l0.74,0h0Z" transform="translate(0 0)" fill="#fae90b" fill-rule="evenodd"/><path d="M73.16,37l-0.33-.1,0.09-.21-0.13-.18c0.22-.07.26,0,0.26,0.18a1,1,0,0,0,.11.31h0Z" transform="translate(0 0)" fill="#fae90b" fill-rule="evenodd"/><path d="M63.18,13.28l-0.33-.51,0.06,0C63.2,12.92,63.24,13,63.18,13.28Z" transform="translate(0 0)" fill="#fae90b" fill-rule="evenodd"/><path d="M78.58,39.95l0.17,0.32-0.19.13C78.46,40.24,78.33,40.09,78.58,39.95Z" transform="translate(0 0)" fill="#fae90b" fill-rule="evenodd"/><path d="M76.59,38.32l0,0L76.41,38l0.06-.15,0.36-.37A1.49,1.49,0,0,0,76.59,38.32Z" transform="translate(0 0)" fill="#fae90b" fill-rule="evenodd"/><path d="M82.43,82.76l0.27,0.07c0-.2.1-0.28,0.28-0.23L82.67,83Z" transform="translate(0 0)" fill="#fae90b" fill-rule="evenodd"/><path d="M80,50.63l0.16-.2,0.26,0v0.22Z" transform="translate(0 0)" fill="#fae90b" fill-rule="evenodd"/><path d="M73.25,36.82l-0.07-.1c0.2-.17.33-0.11,0.38,0.18l-0.13,0Z" transform="translate(0 0)" fill="#fae90b" fill-rule="evenodd"/><path d="M71.4,11.76l0.41-.3C71.84,11.74,71.84,11.75,71.4,11.76Z" transform="translate(0 0)" fill="#fae90b" fill-rule="evenodd"/><path d="M77.37,89.28l0.38,0.34C77.27,89.6,77.24,89.58,77.37,89.28Z" transform="translate(0 0)" fill="#fae90b" fill-rule="evenodd"/><path d="M77,66.48L76.63,66a0.35,0.35,0,0,1,.33.46h0Z" transform="translate(0 0)" fill="#fae90b" fill-rule="evenodd"/><path d="M78.43,22.81l0.2-.6A0.5,0.5,0,0,1,78.43,22.81Z" transform="translate(0 0)" fill="#fae90b" fill-rule="evenodd"/><path d="M77.16,57.51c0-.12-0.22-0.17,0-0.3a0.37,0.37,0,0,1,.21,0l-0.08.3Z" transform="translate(0 0)" fill="#fae90b" fill-rule="evenodd"/><path d="M68.75,14.16a0.36,0.36,0,0,1,.07.18,1.62,1.62,0,0,1-.17.28l-0.07,0c0-.14.07-0.27,0.09-0.41Z" transform="translate(0 0)" fill="#fae90b" fill-rule="evenodd"/><path d="M70.46,20a1.13,1.13,0,0,1,.18.05,0.37,0.37,0,0,1,.12.11,0.14,0.14,0,0,1-.07.1,0.2,0.2,0,0,1-.16,0,0.77,0.77,0,0,1-.12-0.2Z" transform="translate(0 0)" fill="#fae90b" fill-rule="evenodd"/><path d="M77.91,40.53c-0.13.29-.23,0.31-0.53,0l0.26,0h0.26Z" transform="translate(0 0)" fill="#fae90b" fill-rule="evenodd"/><path d="M74.67,42.78c0-.16.2-0.31,0-0.47l0.14-.25L75,42.34A0.63,0.63,0,0,1,74.67,42.78Z" transform="translate(0 0)" fill="#fae90b" fill-rule="evenodd"/><path d="M69.17,21.37l0.29,0.56A0.46,0.46,0,0,1,69.17,21.37Z" transform="translate(0 0)" fill="#fae90b" fill-rule="evenodd"/><path d="M71.31,65l0,0-0.1-.33,0.35,0,0,0.06Z" transform="translate(0 0)" fill="#fae90b" fill-rule="evenodd"/><path d="M79.65,89.07L79.43,89c0.21-.26.21-0.26,0.38-0.23l-0.16.35h0Z" transform="translate(0 0)" fill="#fae90b" fill-rule="evenodd"/><path d="M74.11,68l-0.27,0c0,0.09,0,.18-0.08.28-0.16-.3-0.09-0.4.27-0.42L74.1,68h0Z" transform="translate(0 0)" fill="#fae90b" fill-rule="evenodd"/><path d="M78.25,41.82l0.21,0.3-0.29.09c0-.13,0-0.24,0-0.35Z" transform="translate(0 0)" fill="#fae90b" fill-rule="evenodd"/><path d="M77.79,46.86c0-.14-0.09-0.29-0.14-0.45l0.2,0c0,0.16,0,.31,0,0.45Z" transform="translate(0 0)" fill="#fae90b" fill-rule="evenodd"/><path d="M77.86,60.64l-0.23.3c-0.06-.15-0.18-0.3,0-0.46h0l0.22,0.13Z" transform="translate(0 0)" fill="#fae90b" fill-rule="evenodd"/><path d="M77.44,38.11a0.85,0.85,0,0,1-.09-0.31,0.59,0.59,0,0,1,.21-0.23c0.15,0.21-.28.31,0,0.51Z" transform="translate(0 0)" fill="#fae90b" fill-rule="evenodd"/><path d="M82.8,82a0.53,0.53,0,0,1-.21.46l-0.21-.08a0.35,0.35,0,0,1,0,0l0.19,0,0,0Z" transform="translate(0 0)" fill="#fae90b" fill-rule="evenodd"/><path d="M71.63,34.1c0,0.09,0,.16,0,0.26-0.11-.08-0.32,0-0.29-0.24Z" transform="translate(0 0)" fill="#fae90b" fill-rule="evenodd"/><path d="M75.32,31.62l0.13-.18,0.29,0.18A0.29,0.29,0,0,1,75.32,31.62Z" transform="translate(0 0)" fill="#fae90b" fill-rule="evenodd"/><path d="M81.59,6.67a0.18,0.18,0,0,1-.08-0.07,1.16,1.16,0,0,1,0-.27l0.13,0a2.13,2.13,0,0,1,0,.25,0.22,0.22,0,0,1-.05.1h0Z" transform="translate(0 0)" fill="#fae90b" fill-rule="evenodd"/><path d="M73.12,65.64a0.3,0.3,0,0,1-.2,0,1.61,1.61,0,0,1-.21-0.32l0.05,0Z" transform="translate(0 0)" fill="#fae90b" fill-rule="evenodd"/><path d="M76.6,59.11l0.28,0L77,59.36l0,0Z" transform="translate(0 0)" fill="#fae90b" fill-rule="evenodd"/><path d="M75.74,8.5l-0.17.23-0.25-.28Z" transform="translate(0 0)" fill="#fae90b" fill-rule="evenodd"/><path d="M79.63,89.37s0-.1,0-0.15l0.05-.16h0l0.26,0,0,0.19-0.25.23C79.63,89.47,79.63,89.42,79.63,89.37Z" transform="translate(0 0)" fill="#fae90b" fill-rule="evenodd"/><path d="M75.76,32.37L75.64,32h0.11l0-.17h0l0.09,0.47-0.15.06h0Z" transform="translate(0 0)" fill="#fae90b" fill-rule="evenodd"/><path d="M75.3,69.24c0-.23.09-0.26,0.31-0.2l0.24,0.07h0l-0.26.13s0,0,0,0l-0.29,0h0Z" transform="translate(0 0)" fill="#fae90b" fill-rule="evenodd"/><path d="M78.92,89.24l0,0.15-0.23.11c0-.13,0-0.21,0-0.3Z" transform="translate(0 0)" fill="#fae90b" fill-rule="evenodd"/><path d="M77.68,48.75a0.35,0.35,0,0,1-.08-0.48C77.63,48.43,77.9,48.54,77.68,48.75Z" transform="translate(0 0)" fill="#fae90b" fill-rule="evenodd"/><path d="M76.54,51.68l0.24,0.15L76.65,52l-0.19-.21Z" transform="translate(0 0)" fill="#fae90b" fill-rule="evenodd"/><path d="M76.29,67.08l0.15,0.15,0.11,0.13a0.35,0.35,0,0,1-.13.09,0.21,0.21,0,0,1-.14-0.12A0.75,0.75,0,0,1,76.29,67.08Z" transform="translate(0 0)" fill="#fae90b" fill-rule="evenodd"/><path d="M76.13,54.26h0.46c0,0.1,0,.17-0.07.23l-0.36-.18Z" transform="translate(0 0)" fill="#fae90b" fill-rule="evenodd"/><path d="M73,40.23L72.9,40a0.4,0.4,0,0,1,.16-0.11,0.25,0.25,0,0,1,.12.17A0.47,0.47,0,0,1,73,40.23Z" transform="translate(0 0)" fill="#fae90b" fill-rule="evenodd"/><path d="M74.26,41.36L74,41.09c0.22,0,.36-0.25.51,0h0c-0.14,0-.31,0-0.25.26h0Z" transform="translate(0 0)" fill="#fae90b" fill-rule="evenodd"/><path d="M77.13,89.7H76.94l0-.36C77.22,89.33,77.05,89.58,77.13,89.7Z" transform="translate(0 0)" fill="#fae90b" fill-rule="evenodd"/><path d="M71.14,12.17c0.2-.1.3,0,0.39,0.19-0.22.11-.26-0.13-0.39-0.2h0Z" transform="translate(0 0)" fill="#fae90b" fill-rule="evenodd"/><path d="M78.83,53.54l0.08,0c0.2,0.25.2,0.3,0,.47C78.86,53.82,78.84,53.68,78.83,53.54Z" transform="translate(0 0)" fill="#fae90b" fill-rule="evenodd"/><path d="M80.56,58.67A0.55,0.55,0,0,0,80.75,58l0.15,0.56Z" transform="translate(0 0)" fill="#fae90b" fill-rule="evenodd"/><path d="M79.75,13.41c0,0.17,0,.31.06,0.45C79.57,13.74,79.55,13.64,79.75,13.41Z" transform="translate(0 0)" fill="#fae90b" fill-rule="evenodd"/><path d="M77.5,53.18l-0.14,0-0.17-.27c0.12-.05.28,0.11,0.31-0.12h0l0,0.2C77.53,53.07,77.52,53.13,77.5,53.18Z" transform="translate(0 0)" fill="#fae90b" fill-rule="evenodd"/><path d="M62,15.15l0.31,0.1C62.21,15.39,62.08,15.45,62,15.15Z" transform="translate(0 0)" fill="#fae90b" fill-rule="evenodd"/><path d="M70.83,40.92l-0.14-.15,0.05,0a0.62,0.62,0,0,1,.16.26,0.62,0.62,0,0,1-.17.24l-0.07-.07Z" transform="translate(0 0)" fill="#fae90b" fill-rule="evenodd"/><path d="M71.76,23.41a1,1,0,0,1,.08-0.25,0.3,0.3,0,0,1,.17,0l-0.14.28Z" transform="translate(0 0)" fill="#fae90b" fill-rule="evenodd"/><path d="M77,62.48l-0.19-.16,0.13-.24C77,62.2,77.15,62.3,77,62.48Z" transform="translate(0 0)" fill="#fae90b" fill-rule="evenodd"/><path d="M62.42,13.74l0.43-.07C62.69,13.91,62.56,13.92,62.42,13.74Z" transform="translate(0 0)" fill="#fae90b" fill-rule="evenodd"/><path d="M67.61,12.9h-0.3l0-.06a0.49,0.49,0,0,1,.18-0.12,0.47,0.47,0,0,1,.19.11Z" transform="translate(0 0)" fill="#fae90b" fill-rule="evenodd"/><path d="M72.43,36.77c0,0.14,0,.23,0,0.33L72.11,37Z" transform="translate(0 0)" fill="#fae90b" fill-rule="evenodd"/><path d="M75.54,7.39l-0.15.44-0.11,0,0.19-.44Z" transform="translate(0 0)" fill="#fae90b" fill-rule="evenodd"/><path d="M71.66,35.24l0.42,0.45L72,35.75l-0.43-.44Z" transform="translate(0 0)" fill="#fae90b" fill-rule="evenodd"/><path d="M71.64,30.53c0-.26.09-0.31,0.24-0.22Z" transform="translate(0 0)" fill="#fae90b" fill-rule="evenodd"/><path d="M71.45,30.66l-0.29.4h0a2.2,2.2,0,0,1,.16-0.35A0.31,0.31,0,0,1,71.45,30.66Z" transform="translate(0 0)" fill="#fae90b" fill-rule="evenodd"/><path d="M81,81l-0.28.08-0.1-.2,0-.05,0.36,0.13Z" transform="translate(0 0)" fill="#fae90b" fill-rule="evenodd"/><path d="M79.55,55.7l0.42,0-0.12.27Z" transform="translate(0 0)" fill="#fae90b" fill-rule="evenodd"/><path d="M78.87,43.67l-0.15-.12,0-.06a0.36,0.36,0,0,1,.14,0,0.64,0.64,0,0,1,0,.23,0.21,0.21,0,0,1-.09.12,0.3,0.3,0,0,1-.08-0.05Z" transform="translate(0 0)" fill="#fae90b" fill-rule="evenodd"/><path d="M79,26.27L79.1,26l0.07,0c0,0.12,0,.23,0,0.4L79,26.26h0Z" transform="translate(0 0)" fill="#fae90b" fill-rule="evenodd"/><path d="M81,83.9c-0.15-.23-0.09-0.35.18-0.41Z" transform="translate(0 0)" fill="#fae90b" fill-rule="evenodd"/><path d="M77.39,59.4c-0.08,0-.11-0.09,0-0.16l0.26-.15a0.39,0.39,0,0,1,0,.16,1.23,1.23,0,0,1-.21.16h0Z" transform="translate(0 0)" fill="#fae90b" fill-rule="evenodd"/><path d="M76.07,67.74l-0.33-.13L76,67.28c0,0.16-.2.33,0.14,0.42Z" transform="translate(0 0)" fill="#fae90b" fill-rule="evenodd"/><path d="M61.58,14.19a1.08,1.08,0,0,1,.11.13,0.38,0.38,0,0,1,.06.14,0.11,0.11,0,0,1-.08.05,0.24,0.24,0,0,1-.13-0.1,0.59,0.59,0,0,1,0-.2Z" transform="translate(0 0)" fill="#fae90b" fill-rule="evenodd"/><path d="M89.23,60.61c0.08-.1.16-0.18,0.27-0.07a0.13,0.13,0,0,1,0,.14c-0.12.13-.19,0-0.28-0.07h0Z" transform="translate(0 0)" fill="#fae90b" fill-rule="evenodd"/><path d="M76.07,32.71l-0.23-.14,0.11-.2,0.27,0.2h0Z" transform="translate(0 0)" fill="#fae90b" fill-rule="evenodd"/><path d="M69.8,21.47l0.33-.24,0,0.07a0.39,0.39,0,0,1-.34.24Z" transform="translate(0 0)" fill="#fae90b" fill-rule="evenodd"/><path d="M79.88,89.31l0-.19h0.23l0.07,0C80.14,89.3,80.07,89.47,79.88,89.31Z" transform="translate(0 0)" fill="#fae90b" fill-rule="evenodd"/><path d="M74.44,42.46l0.23,0.32c-0.16.13-.2-0.08-0.3-0.11Z" transform="translate(0 0)" fill="#fae90b" fill-rule="evenodd"/><path d="M79.22,43.9C79,44,79,44.28,78.74,44.21l0.43-.37Z" transform="translate(0 0)" fill="#fae90b" fill-rule="evenodd"/><path d="M81.94,6.08L82.38,6.2a0.28,0.28,0,0,1,0,0l-0.45-.05Z" transform="translate(0 0)" fill="#fae90b" fill-rule="evenodd"/><path d="M69.28,20.28L69,20.39a0.77,0.77,0,0,1,0-.11l0.25-.11Z" transform="translate(0 0)" fill="#fae90b" fill-rule="evenodd"/><path d="M73.38,41c0-.19.12-0.24,0.48-0.1Z" transform="translate(0 0)" fill="#fae90b" fill-rule="evenodd"/><path d="M76,43.88l0.17-.1,0.33,0.1,0,0.1-0.39,0h0Z" transform="translate(0 0)" fill="#fae90b" fill-rule="evenodd"/><path d="M76.87,67.59c0,0.08,0,.17.06,0.25a1.94,1.94,0,0,1,0,.2,0.84,0.84,0,0,1-.25-0.38Z" transform="translate(0 0)" fill="#fae90b" fill-rule="evenodd"/><path d="M60.78,16.54a0.53,0.53,0,0,1,.08.18,0.13,0.13,0,0,1-.11.09,0.15,0.15,0,0,1-.1-0.12A0.45,0.45,0,0,1,60.78,16.54Z" transform="translate(0 0)" fill="#fae90b" fill-rule="evenodd"/><path d="M78.92,14.93l0.32-.18,0,0-0.15.31Z" transform="translate(0 0)" fill="#fae90b" fill-rule="evenodd"/><path d="M69.6,19.8a1.35,1.35,0,0,1,0,.2,0.7,0.7,0,0,1-.05.15,0.32,0.32,0,0,1-.1-0.14,0.8,0.8,0,0,1,.11-0.22Z" transform="translate(0 0)" fill="#fae90b" fill-rule="evenodd"/><path d="M81.62,84.69l0.31,0a0.5,0.5,0,0,1,0,.12l-0.29,0v-0.1Z" transform="translate(0 0)" fill="#fae90b" fill-rule="evenodd"/><path d="M81.91,83.35l0.16,0.13L82,83.64C81.78,83.54,81.77,83.49,81.91,83.35Z" transform="translate(0 0)" fill="#fae90b" fill-rule="evenodd"/><path d="M83.84,62.37c-0.3,0-.13-0.28-0.2-0.4l0.06,0Z" transform="translate(0 0)" fill="#fae90b" fill-rule="evenodd"/><path d="M81.57,78.79L81.69,79l0.15,0.16-0.21.1A1.1,1.1,0,0,0,81.56,79C81.52,78.91,81.43,78.85,81.57,78.79Z" transform="translate(0 0)" fill="#fae90b" fill-rule="evenodd"/><path d="M83.16,87.25l-0.13.3a0.4,0.4,0,0,1-.1-0.17A0.15,0.15,0,0,1,83.16,87.25Z" transform="translate(0 0)" fill="#fae90b" fill-rule="evenodd"/><path d="M78.54,6.85l-0.17-.23,0.1-.07,0.16,0.24Z" transform="translate(0 0)" fill="#fae90b" fill-rule="evenodd"/><path d="M78.94,24.42l-0.09.27-0.11,0,0.08-.28Z" transform="translate(0 0)" fill="#fae90b" fill-rule="evenodd"/><path d="M73.62,56.14l0.2-.09,0-.24H73.9a0.46,0.46,0,0,1,0,.22,1,1,0,0,1-.25.19Z" transform="translate(0 0)" fill="#fae90b" fill-rule="evenodd"/><path d="M71.56,63.09c0,0.09,0,.19,0,0.33a0.44,0.44,0,0,1-.16-0.1,1.09,1.09,0,0,1,.1-0.27Z" transform="translate(0 0)" fill="#fae90b" fill-rule="evenodd"/><path d="M74.6,42.25l-0.15.15-0.06-.1c-0.17-.23-0.17-0.25.17-0.37l-0.19.23Z" transform="translate(0 0)" fill="#fae90b" fill-rule="evenodd"/><path d="M87.47,74.54s0-.1,0-0.15a0.46,0.46,0,0,1,.13.09,1.37,1.37,0,0,1,.12.24l-0.09.09Z" transform="translate(0 0)" fill="#fae90b" fill-rule="evenodd"/><path d="M76.9,8.2A0.5,0.5,0,0,1,76.82,8a0.31,0.31,0,0,1,.12-0.11A0.27,0.27,0,0,1,77,8,0.49,0.49,0,0,1,76.9,8.2Z" transform="translate(0 0)" fill="#fae90b" fill-rule="evenodd"/><path d="M81.49,76.68c0-.31.2-0.18,0.28-0.28C81.79,76.65,81.59,76.57,81.49,76.68Z" transform="translate(0 0)" fill="#fae90b" fill-rule="evenodd"/><path d="M77.77,60.11l0.09,0.05-0.2.13,0,0-0.09.15h0c0-.1,0-0.2-0.06-0.29h0Z" transform="translate(0 0)" fill="#fae90b" fill-rule="evenodd"/><path d="M73.74,52a0.9,0.9,0,0,1-.11-0.31,0.31,0.31,0,0,1,.2-0.16c-0.15.15-.22,0.27,0,0.43Z" transform="translate(0 0)" fill="#fae90b" fill-rule="evenodd"/><path d="M78.66,53.1l0.12-.26a2.65,2.65,0,0,0,.25.27c0.11,0.09.06,0.13,0,.18A0.34,0.34,0,0,0,78.66,53.1Z" transform="translate(0 0)" fill="#fae90b" fill-rule="evenodd"/><path d="M77.36,36.55a1.6,1.6,0,0,0,.09.23,1.14,1.14,0,0,0,.14.16C77.28,36.87,77.23,36.79,77.36,36.55Z" transform="translate(0 0)" fill="#fae90b" fill-rule="evenodd"/><path d="M74,56l0.32,0.19C74.15,56.31,74.1,56.29,74,56Z" transform="translate(0 0)" fill="#fae90b" fill-rule="evenodd"/><path d="M83.47,85.27h0.08l-0.23.45A0.51,0.51,0,0,1,83.47,85.27Z" transform="translate(0 0)" fill="#fae90b" fill-rule="evenodd"/><path d="M68.86,19.09l-0.1-.17a0.43,0.43,0,0,1,.15-0.06A0.27,0.27,0,0,1,69,19Z" transform="translate(0 0)" fill="#fae90b" fill-rule="evenodd"/><path d="M68.74,20l0.32-.18C69,20.18,68.92,20.21,68.74,20Z" transform="translate(0 0)" fill="#fae90b" fill-rule="evenodd"/><path d="M72.23,9.13a2.22,2.22,0,0,1-.14.21L72,9.26l0.16-.21Z" transform="translate(0 0)" fill="#fae90b" fill-rule="evenodd"/><path d="M74.84,43.69a0.75,0.75,0,0,1,0-.26A0.53,0.53,0,0,1,75,43.37l-0.15.3Z" transform="translate(0 0)" fill="#fae90b" fill-rule="evenodd"/><path d="M61.42,13.54l-0.06-.38,0.22,0.15Z" transform="translate(0 0)" fill="#fae90b" fill-rule="evenodd"/><path d="M88.52,80.1H89c-0.12.13-.12,0.13-0.46,0.06C88.52,80.13,88.52,80.12,88.52,80.1Z" transform="translate(0 0)" fill="#fae90b" fill-rule="evenodd"/><path d="M66.15,12.95l-0.21-.16,0.12-.16,0.06,0,0,0.31h0Z" transform="translate(0 0)" fill="#fae90b" fill-rule="evenodd"/><path d="M76.5,37c0,0.14,0,.28,0,0.45-0.23-.14-0.06-0.3-0.06-0.44H76.5Z" transform="translate(0 0)" fill="#fae90b" fill-rule="evenodd"/><path d="M79.14,46.11a0.22,0.22,0,0,1,.17-0.32l0,0-0.15.26H79.14Z" transform="translate(0 0)" fill="#fae90b" fill-rule="evenodd"/><path d="M76.59,67.86l0.11,0.25,0,0.06-0.33-.22Z" transform="translate(0 0)" fill="#fae90b" fill-rule="evenodd"/><path d="M76,31.62c0-.1,0-0.19,0-0.35a0.46,0.46,0,0,1,.16.12,0.89,0.89,0,0,1,0,.24H76Z" transform="translate(0 0)" fill="#fae90b" fill-rule="evenodd"/><path d="M81.67,83.8l0.07,0.37H81.63c0-.11,0-0.23-0.06-0.35Z" transform="translate(0 0)" fill="#fae90b" fill-rule="evenodd"/><path d="M76.56,39.57l0.22-.29,0,0.26-0.27,0h0Z" transform="translate(0 0)" fill="#fae90b" fill-rule="evenodd"/><path d="M68.26,11.55l-0.15.18L68,11.66l0.15-.19Z" transform="translate(0 0)" fill="#fae90b" fill-rule="evenodd"/><path d="M62.72,15.1l0.23,0.2C62.75,15.39,62.73,15.38,62.72,15.1Z" transform="translate(0 0)" fill="#fae90b" fill-rule="evenodd"/><path d="M83.38,85l-0.2.2-0.07,0,0.11-.24L83.38,85h0Z" transform="translate(0 0)" fill="#fae90b" fill-rule="evenodd"/><path d="M81.62,12.36l0.3,0C81.84,12.56,81.79,12.56,81.62,12.36Z" transform="translate(0 0)" fill="#fae90b" fill-rule="evenodd"/><path d="M76.54,36.05c0,0.15,0,.31,0,0.46H76.45L76.5,36h0Z" transform="translate(0 0)" fill="#fae90b" fill-rule="evenodd"/><path d="M74.1,68l0.17,0c0,0.13,0,.25,0,0.36H74.17L74.11,68h0Z" transform="translate(0 0)" fill="#fae90b" fill-rule="evenodd"/><path d="M76.73,53.18c0.15,0,.27.06,0.18,0.3l-0.23-.25Z" transform="translate(0 0)" fill="#fae90b" fill-rule="evenodd"/><path d="M88.41,78.67c0,0.09,0,.18,0,0.28h-0.1c0-.09,0-0.19,0-0.28Z" transform="translate(0 0)" fill="#fae90b" fill-rule="evenodd"/><path d="M83.06,10.9l-0.11.33-0.09,0L83,10.86Z" transform="translate(0 0)" fill="#fae90b" fill-rule="evenodd"/><path d="M79.36,44.31l-0.07.43C79.12,44.67,79.14,44.56,79.36,44.31Z" transform="translate(0 0)" fill="#fae90b" fill-rule="evenodd"/><path d="M88.46,80.84c0-.14,0-0.29,0-0.48a1.67,1.67,0,0,1,.1.24,1.77,1.77,0,0,1,0,.26l-0.17,0h0Z" transform="translate(0 0)" fill="#fae90b" fill-rule="evenodd"/><path d="M65.19,19.23a0.34,0.34,0,0,1-.15.09,0.13,0.13,0,0,1-.09-0.1A0.16,0.16,0,0,1,65,19.11,0.79,0.79,0,0,1,65.19,19.23Z" transform="translate(0 0)" fill="#fae90b" fill-rule="evenodd"/><path d="M81.17,81.87a0.27,0.27,0,0,1-.17,0c0-.05,0-0.15,0-0.18Z" transform="translate(0 0)" fill="#fae90b" fill-rule="evenodd"/><path d="M72.66,66.16H72.59a0.47,0.47,0,0,1,.14-0.44h0A0.49,0.49,0,0,1,72.66,66.16Z" transform="translate(0 0)" fill="#fae90b" fill-rule="evenodd"/><path d="M75,44.24c0,0.26,0,.27-0.3.17Z" transform="translate(0 0)" fill="#fae90b" fill-rule="evenodd"/><path d="M74.18,44.4l0.13,0.39-0.09,0-0.12-.39Z" transform="translate(0 0)" fill="#fae90b" fill-rule="evenodd"/><path d="M77.66,56.35l-0.34.15a0.81,0.81,0,0,1,.07-0.2c0.09,0,.22-0.16.26,0.05h0Z" transform="translate(0 0)" fill="#fae90b" fill-rule="evenodd"/><path d="M83.13,77.07h0l0.18,0.31H83Z" transform="translate(0 0)" fill="#fae90b" fill-rule="evenodd"/><path d="M77,42.15a0.63,0.63,0,0,1,.25-0.1,0.5,0.5,0,0,1,.12.2Z" transform="translate(0 0)" fill="#fae90b" fill-rule="evenodd"/><path d="M74.64,57.23c0.21,0.09.19,0.28,0.15,0.51Z" transform="translate(0 0)" fill="#fae90b" fill-rule="evenodd"/><path d="M75.53,46.77L75.45,47l-0.22-.32,0.31,0h0Z" transform="translate(0 0)" fill="#fae90b" fill-rule="evenodd"/><path d="M72.55,44.4l0.36-.13,0,0.17H72.55A0.09,0.09,0,0,0,72.55,44.4Z" transform="translate(0 0)" fill="#fae90b" fill-rule="evenodd"/><path d="M64.18,15.08l0.24,0.17C64.22,15.35,64.19,15.32,64.18,15.08Z" transform="translate(0 0)" fill="#fae90b" fill-rule="evenodd"/><path d="M69.9,22.6a0.36,0.36,0,0,1-.15.08,0.15,0.15,0,0,1-.06-0.11,0.14,0.14,0,0,1,.09-0.07A0.52,0.52,0,0,1,69.9,22.6Z" transform="translate(0 0)" fill="#fae90b" fill-rule="evenodd"/><path d="M72.06,24.83c0.17,0.11.25,0.2,0.13,0.41Z" transform="translate(0 0)" fill="#fae90b" fill-rule="evenodd"/><path d="M71.23,45l-0.1-.32,0.22,0.06c0,0.09,0,.17-0.05.25H71.23Z" transform="translate(0 0)" fill="#fae90b" fill-rule="evenodd"/><path d="M71.69,24.79a0.38,0.38,0,0,1-.07-0.12,0.2,0.2,0,0,1,.1-0.1,0.14,0.14,0,0,1,.07.08A0.53,0.53,0,0,1,71.69,24.79Z" transform="translate(0 0)" fill="#fae90b" fill-rule="evenodd"/><path d="M70.37,22.15l-0.22.15,0-.08,0.22-.15Z" transform="translate(0 0)" fill="#fae90b" fill-rule="evenodd"/><path d="M75.46,55.35H75.14s0-.07,0-0.11h0.3v0.1Z" transform="translate(0 0)" fill="#fae90b" fill-rule="evenodd"/><path d="M73.83,40.41l-0.23-.07,0.4-.19h0l-0.17.27h0Z" transform="translate(0 0)" fill="#fae90b" fill-rule="evenodd"/><path d="M72.78,48.8l-0.28-.2,0.15-.08Z" transform="translate(0 0)" fill="#fae90b" fill-rule="evenodd"/><path d="M77,68l0.33,0.11L77,68.31l0-.15h0S77,68.08,77,68Z" transform="translate(0 0)" fill="#fae90b" fill-rule="evenodd"/><path d="M72.49,41.93a0.47,0.47,0,0,1-.12-0.14,1.35,1.35,0,0,1,.19-0.23Z" transform="translate(0 0)" fill="#fae90b" fill-rule="evenodd"/><path d="M61.89,15.94l0.19,0,0,0.09-0.19,0A0.68,0.68,0,0,1,61.89,15.94Z" transform="translate(0 0)" fill="#fae90b" fill-rule="evenodd"/><path d="M73.15,29.89L73,29.68l0.09-.06,0.13,0.21Z" transform="translate(0 0)" fill="#fae90b" fill-rule="evenodd"/><path d="M67.84,22.52l0.22,0,0,0.1-0.23,0A1,1,0,0,1,67.84,22.52Z" transform="translate(0 0)" fill="#fae90b" fill-rule="evenodd"/><path d="M72.78,30.47l-0.16.14-0.05,0a0.51,0.51,0,0,1,0-.19,0.28,0.28,0,0,1,.16,0Z" transform="translate(0 0)" fill="#fae90b" fill-rule="evenodd"/><path d="M77.42,45.11l-0.23.09a0.36,0.36,0,0,1,0-.1l0.21-.1Z" transform="translate(0 0)" fill="#fae90b" fill-rule="evenodd"/><path d="M78.12,45.29c0.12-.06.12-0.06,0.23,0.26Z" transform="translate(0 0)" fill="#fae90b" fill-rule="evenodd"/><path d="M72.08,22.78l0.15,0.13a0.29,0.29,0,0,1,0,.08L72,22.88Z" transform="translate(0 0)" fill="#fae90b" fill-rule="evenodd"/><path d="M66.7,12.78L67,12.53l0,0.05-0.27.27Z" transform="translate(0 0)" fill="#fae90b" fill-rule="evenodd"/><path d="M74.4,58.73L74.28,59c0-.1-0.05-0.15-0.06-0.2a1.3,1.3,0,0,1,0-.15Z" transform="translate(0 0)" fill="#fae90b" fill-rule="evenodd"/><path d="M62.32,16l-0.15-.22,0.07-.06,0.17,0.21Z" transform="translate(0 0)" fill="#fae90b" fill-rule="evenodd"/><path d="M65.63,14.43l-0.07-.2,0.09,0a2.09,2.09,0,0,1,.09.19Z" transform="translate(0 0)" fill="#fae90b" fill-rule="evenodd"/><path d="M72.72,26.48l0.13,0.26-0.08,0-0.13-.26Z" transform="translate(0 0)" fill="#fae90b" fill-rule="evenodd"/><path d="M77.28,41.45l-0.13-.21,0,0,0.24,0.09Z" transform="translate(0 0)" fill="#fae90b" fill-rule="evenodd"/><path d="M81.62,82.44l-0.41-.21A0.33,0.33,0,0,1,81.62,82.44Z" transform="translate(0 0)" fill="#fae90b" fill-rule="evenodd"/><path d="M77.86,37.28L78,37.71l-0.06,0c0-.15-0.07-0.3-0.11-0.45h0.05Z" transform="translate(0 0)" fill="#fae90b" fill-rule="evenodd"/><path d="M69.07,11.67l0.18-.19,0.06,0.07-0.18.2Z" transform="translate(0 0)" fill="#fae90b" fill-rule="evenodd"/><path d="M69.41,21.08c0,0.07,0,.14,0,0.21l-0.07,0,0-.21Z" transform="translate(0 0)" fill="#fae90b" fill-rule="evenodd"/><path d="M78.74,52.67l-0.24,0h0l0.07-.19h0.28Z" transform="translate(0 0)" fill="#fae90b" fill-rule="evenodd"/><path d="M67.71,12.22l0.09,0.23-0.08,0-0.11-.22Z" transform="translate(0 0)" fill="#fae90b" fill-rule="evenodd"/><path d="M81,6.22l-0.33.15,0-.08L81,6.14Z" transform="translate(0 0)" fill="#fae90b" fill-rule="evenodd"/><path d="M77.83,41.44a2.07,2.07,0,0,1,0-.26,0.76,0.76,0,0,1,.17,0l-0.1.3H77.83Z" transform="translate(0 0)" fill="#fae90b" fill-rule="evenodd"/><path d="M67,14.19a0.24,0.24,0,0,1-.15-0.3l0.07,0c0,0.11,0,.22.08,0.33h0Z" transform="translate(0 0)" fill="#fae90b" fill-rule="evenodd"/><path d="M79.7,76.7l0.17-.18L80,76.58a0.61,0.61,0,0,1,.1.1l-0.2,0s0,0.08,0,.13Z" transform="translate(0 0)" fill="#fae90b" fill-rule="evenodd"/><path d="M66.52,12.83l-0.24-.24C66.49,12.54,66.5,12.56,66.52,12.83Z" transform="translate(0 0)" fill="#fae90b" fill-rule="evenodd"/><path d="M77,7.42l-0.2-.11,0-.09,0.2,0.09Z" transform="translate(0 0)" fill="#fae90b" fill-rule="evenodd"/><path d="M78,7.34l-0.42-.16C77.76,7.14,77.89,7.12,78,7.34Z" transform="translate(0 0)" fill="#fae90b" fill-rule="evenodd"/><path d="M78.64,24.82c0.25,0,.27,0,0.26.25Z" transform="translate(0 0)" fill="#fae90b" fill-rule="evenodd"/><path d="M73.26,51.93a0.45,0.45,0,0,1,0-.21,0.5,0.5,0,0,1,.22-0.09Z" transform="translate(0 0)" fill="#fae90b" fill-rule="evenodd"/><path d="M58.08,17.23c0-.07,0-0.14,0-0.21l0.08,0,0.06,0.2Z" transform="translate(0 0)" fill="#fae90b" fill-rule="evenodd"/><path d="M73.35,77.8l0.3-.21Z" transform="translate(0 0)" fill="#fae90b" fill-rule="evenodd"/><path d="M76.08,43.93h0l0.12,0.21L76.06,44Z" transform="translate(0 0)" fill="#fae90b" fill-rule="evenodd"/><path d="M73.37,77.47s0,0.06,0,.1l0,0Z" transform="translate(0 0)" fill="#fae90b" fill-rule="evenodd"/><path d="M88.7,82.34l0.08-.1Z" transform="translate(0 0)" fill="#fae90b" fill-rule="evenodd"/><path d="M81.85,80.2H81.77s0-.05,0-0.08l0.08,0A0.16,0.16,0,0,0,81.85,80.2Z" transform="translate(0 0)" fill="#fae90b" fill-rule="evenodd"/><path d="M80.16,58v0Z" transform="translate(0 0)" fill="#fae90b" fill-rule="evenodd"/><path d="M81.76,80.26h0Z" transform="translate(0 0)" fill="#fae90b" fill-rule="evenodd"/><path d="M73.38,77.56h0l-0.05.07V77.56Z" transform="translate(0 0)" fill="#fae90b" fill-rule="evenodd"/><path d="M83.49,77l0.16,0.08a0.5,0.5,0,0,1,0-.61c0.27,0,.26.27,0.39,0.4l-0.28-.05c0.09,0.31,0,.45-0.22.4l-0.06-.14Z" transform="translate(0 0)" fill="#fae90b" fill-rule="evenodd"/><path d="M84.19,76.63l0.08-.22,0.24,0.1-0.2.22Z" transform="translate(0 0)" fill="#fae90b" fill-rule="evenodd"/><path d="M77.83,60.6l0.23-.4c0.1,0.23-.12.3-0.2,0.44Z" transform="translate(0 0)" fill="#fae90b" fill-rule="evenodd"/><path d="M84,80.57l0,0.06-0.06,0Z" transform="translate(0 0)" fill="#fae90b" fill-rule="evenodd"/><path d="M84.12,80.48h0A0,0,0,0,1,84.12,80.48Z" transform="translate(0 0)" fill="#fae90b" fill-rule="evenodd"/><path d="M83.9,82h0Z" transform="translate(0 0)" fill="#fae90b" fill-rule="evenodd"/><path d="M83.8,81.94h0Z" transform="translate(0 0)" fill="#fae90b" fill-rule="evenodd"/><path d="M83.92,81.95v0S83.92,81.93,83.92,81.95Z" transform="translate(0 0)" fill="#fae90b" fill-rule="evenodd"/><path d="M83.17,78.08l0.08-.19,0.14-.33a0.39,0.39,0,0,1,0,.5Z" transform="translate(0 0)" fill="#fae90b" fill-rule="evenodd"/><path d="M77.61,67.39l0.25,0a0.84,0.84,0,0,1,0,.13l-0.25,0V67.39Z" transform="translate(0 0)" fill="#fae90b" fill-rule="evenodd"/><path d="M77.5,66.95l0.25,0.22-0.14.11L77.46,67h0Z" transform="translate(0 0)" fill="#fae90b" fill-rule="evenodd"/><path d="M82.59,79.38a0.12,0.12,0,0,1-.05,0l-0.15-.22,0.28,0Z" transform="translate(0 0)" fill="#fae90b" fill-rule="evenodd"/><path d="M83.08,82.24c0.29-.07.31,0,0.27,0.26a0.33,0.33,0,0,0,0,.13l-0.26.2,0.09-.42-0.06,0L83,82.61C83,82.48,83,82.36,83.08,82.24Z" transform="translate(0 0)" fill="#fae90b" fill-rule="evenodd"/><path d="M83.14,83.84l-0.09-.35a0.29,0.29,0,0,0,.46-0.09l0,0.07,0,0.19A0.28,0.28,0,0,1,83.14,83.84Z" transform="translate(0 0)" fill="#fae90b" fill-rule="evenodd"/><path d="M77.66,59.63h0Z" transform="translate(0 0)" fill="#fae90b" fill-rule="evenodd"/><path d="M77.62,64.47h0Z" transform="translate(0 0)" fill="#fae90b" fill-rule="evenodd"/><path d="M82.52,80.18l0.22,0-0.14.42-0.13-.21Z" transform="translate(0 0)" fill="#fae90b" fill-rule="evenodd"/><path d="M73.43,77.57h0Z" transform="translate(0 0)" fill="#fae90b" fill-rule="evenodd"/><path d="M84.1,75.87l0-.13Z" transform="translate(0 0)" fill="#fae90b" fill-rule="evenodd"/><path d="M73.29,25.22l0.18-.35C73.54,25.08,73.5,25.16,73.29,25.22Z" transform="translate(0 0)" fill="#fae90b" fill-rule="evenodd"/><path d="M75.91,33.38l-0.24-.2L76,33Z" transform="translate(0 0)" fill="#fae90b" fill-rule="evenodd"/><path d="M0,43.92a3.71,3.71,0,0,1,4.62-1.09c0.89,0.35,1.83.4,2.71,0.77a2.49,2.49,0,0,1,1.35,1.21c2.32,6.41,10.66,7.76,14.17,2.14a1.86,1.86,0,0,1,1.4-.88,34.84,34.84,0,0,1,5.13.55,2.21,2.21,0,0,1,1.32,1.25c2.6,6.48,10.93,6.89,13.9,1.52a2.14,2.14,0,0,1,1.28-1.17,34.89,34.89,0,0,1,5.3.06,2.41,2.41,0,0,1,1.38,1.11c3.37,5.06,10,5.74,13.18,1a3.45,3.45,0,0,1,4-1.75L68.37,42c-1,.74-1.66.06-2.35-1-2.83-4.31-6.4-5.39-10.19-4-2.17.78-4,2.53-3.72,6.23a1.5,1.5,0,0,1-.69,1.06,4,4,0,0,1-4.69-.58,2.52,2.52,0,0,1-.45-1.15,16.41,16.41,0,0,1-2.05-2.16c-3.86-5.94-11.42-5.57-13.49-1a3,3,0,0,1-1.39,1l1.4,0.93c-1.18,2.16-5.32,1.55-6.88-.95l0.87-.24a18.89,18.89,0,0,1-2.51-2.6c-3.48-5.07-10-5.49-13-.74a2.07,2.07,0,0,0-.5,1c0.6,2.32-.63,2.33-1.54,1.73-1.31-.87-3.56.67-3.94-3.07a7.76,7.76,0,0,0-2.1-3.88m0.35,2.2M12.3,37.91c1.5-2.34,5.21-2,7.48.68A6.13,6.13,0,0,0,19.92,46a5,5,0,0,1-7.83-.61C14,42.92,14.5,39.85,12.3,37.91Zm-1.93,7.93,5.45,2.86C13.74,48.87,12,48.32,10.37,45.85ZM57,37.33c3.48-.64,6.29.34,8.48,4a24.08,24.08,0,0,0-3.76-2.8A24.16,24.16,0,0,0,57,37.33Zm-21.39-.2c2.5-1.48,7.46.78,8.25,4.52C41.48,38.43,38.83,37.11,35.58,37.13ZM33.5,47.33c1.86-1.57,1.49-5,.22-7,2-2.32,5.64-1.92,7.69.55a15,15,0,0,0-1.05,3.77,18.73,18.73,0,0,0,.92,4.13C39.13,51.25,35.25,50.67,33.5,47.33Zm-0.4,1.93,6.53,1.86A5.3,5.3,0,0,1,33.1,49.25Zm22-7.68c1.52-2.87,5.27-3,8.06-.28a6.33,6.33,0,0,0,.3,7.53c-2.45,2.6-6.2,2.51-8-.21A5.93,5.93,0,0,0,55.09,41.58ZM55,50l4.38,1.6C57.75,52.34,56.25,51.8,55,50Z" transform="translate(0 0)" fill-rule="evenodd"/></svg>