<svg xmlns="http://www.w3.org/2000/svg" xmlns:xlink="http://www.w3.org/1999/xlink" viewBox="0 0 467.75 102.56"><defs><clipPath id="a" transform="translate(0 0)"><path d="M279.19,68.66L254.09,55a1.07,1.07,0,0,0,.87-0.52l25.1,13.65A1.07,1.07,0,0,1,279.19,68.66Z" fill="#92c01a"/></clipPath><clipPath id="b" transform="translate(0 0)"><path d="M280.06,68.14L255,54.49a1.72,1.72,0,0,0-.42-1.56l25.1,13.65A1.72,1.72,0,0,1,280.06,68.14Z" fill="#92c01a"/></clipPath><clipPath id="c" transform="translate(0 0)"><path d="M265.37,70.23l-25.1-13.65a2.27,2.27,0,0,0,1.46.17l25.1,13.65A2.27,2.27,0,0,1,265.37,70.23Z" fill="#92c01a"/></clipPath><clipPath id="d" transform="translate(0 0)"><path d="M265.37,70.23l-25.1-13.65a2.57,2.57,0,0,1-.85-0.83l25.1,13.65A2.59,2.59,0,0,0,265.37,70.23Z" fill="#92c01a"/></clipPath><clipPath id="e" transform="translate(0 0)"><path d="M265.07,70.78L240,57.12a3,3,0,0,1-1-1l25.1,13.65A3,3,0,0,0,265.07,70.78Z" fill="#92c01a"/></clipPath><clipPath id="f" transform="translate(0 0)"><path d="M254.57,0.7l25.1,13.65a0.52,0.52,0,0,1,.24.25,1.41,1.41,0,0,1-.37,1.28L254.43,2.24A1.4,1.4,0,0,0,254.8,1,0.51,0.51,0,0,0,254.57.7Z" fill="#92c01a"/></clipPath><clipPath id="g" transform="translate(0 0)"><path d="M254.57,0.7l25.1,13.65a1,1,0,0,0-.61-0.08L254,0.63A1,1,0,0,1,254.57.7Z" fill="#92c01a"/></clipPath><clipPath id="h" transform="translate(0 0)"><path d="M246.85,73.2l-25.1-13.65a1.31,1.31,0,0,0,1.07-1.3l25.1,13.65A1.3,1.3,0,0,1,246.85,73.2Z" fill="#92c01a"/></clipPath><clipPath id="i" transform="translate(0 0)"><path d="M254.88,0.15L280,13.8a1.48,1.48,0,0,0-.92-0.13L254,0A1.47,1.47,0,0,1,254.88.15Z" fill="#92c01a"/></clipPath><clipPath id="j" transform="translate(0 0)"><path d="M235.79,74.58L210.7,60.92a0.93,0.93,0,0,0,.58.1l25.1,13.65A0.94,0.94,0,0,1,235.79,74.58Z" fill="#92c01a"/></clipPath><clipPath id="k" transform="translate(0 0)"><path d="M235.79,74.58L210.7,60.92a1,1,0,0,1-.49-0.9l25.1,13.65A1,1,0,0,0,235.79,74.58Z" fill="#92c01a"/></clipPath><clipPath id="l" transform="translate(0 0)"><path d="M235.5,75.13L210.4,61.48a1.52,1.52,0,0,1-.76-1.38l25.1,13.65A1.52,1.52,0,0,0,235.5,75.13Z" fill="#92c01a"/></clipPath><clipPath id="m" transform="translate(0 0)"><path d="M263.18,17.86L238.08,4.21a3.54,3.54,0,0,1,2.56-1.71l25.1,13.65A3.55,3.55,0,0,0,263.18,17.86Z" fill="#92c01a"/></clipPath><clipPath id="n" transform="translate(0 0)"><path d="M262.75,17.53L237.66,3.88a4.18,4.18,0,0,1,3-2l25.1,13.65A4.18,4.18,0,0,0,262.75,17.53Z" fill="#92c01a"/></clipPath><clipPath id="o" transform="translate(0 0)"><path d="M222.43,5.24l25.1,13.65a1,1,0,0,1,.49.91L222.92,6.14A1,1,0,0,0,222.43,5.24Z" fill="#92c01a"/></clipPath><clipPath id="p" transform="translate(0 0)"><path d="M222.43,5.24l25.1,13.65a0.92,0.92,0,0,0-.57-0.1L221.85,5.14A0.92,0.92,0,0,1,222.43,5.24Z" fill="#92c01a"/></clipPath><clipPath id="q" transform="translate(0 0)"><path d="M222.72,4.68l25.1,13.65a1.38,1.38,0,0,0-.86-0.15L221.86,4.53A1.4,1.4,0,0,1,222.72,4.68Z" fill="#92c01a"/></clipPath><clipPath id="r" transform="translate(0 0)"><path d="M235.4,21.57L210.31,7.92a1.31,1.31,0,0,1,1.07-1.3l25.1,13.65A1.31,1.31,0,0,0,235.4,21.57Z" fill="#92c01a"/></clipPath><clipPath id="s" transform="translate(0 0)"><path d="M234.84,21.65L209.74,8a2,2,0,0,1,1.64-2l25.1,13.65A2,2,0,0,0,234.84,21.65Z" fill="#92c01a"/></clipPath><clipPath id="t" transform="translate(0 0)"><path d="M224.1,76.4L199,62.75a1.3,1.3,0,0,0,1.07-1.3l25.1,13.65A1.3,1.3,0,0,1,224.1,76.4Z" fill="#92c01a"/></clipPath><clipPath id="u" transform="translate(0 0)"><path d="M213.68,77.56L188.58,63.9a2,2,0,0,0,1.29.13L215,77.68A2,2,0,0,1,213.68,77.56Z" fill="#92c01a"/></clipPath><clipPath id="v" transform="translate(0 0)"><path d="M188.58,63.9a2.67,2.67,0,0,1-.88-0.9l22.17,12.06,2.93,1.59a2.66,2.66,0,0,0,.88.9Z" fill="#92c01a"/></clipPath><clipPath id="w" transform="translate(0 0)"><path d="M213.37,78.12l-25.1-13.65a3.08,3.08,0,0,1-1-1l25.1,13.65A3.08,3.08,0,0,0,213.37,78.12Z" fill="#92c01a"/></clipPath><clipPath id="x" transform="translate(0 0)"><path d="M199.67,8.43l25.1,13.65a1,1,0,0,1,.49.91L200.16,9.34A1,1,0,0,0,199.67,8.43Z" fill="#92c01a"/></clipPath><clipPath id="y" transform="translate(0 0)"><path d="M199.67,8.43l25.1,13.65a0.92,0.92,0,0,0-.58-0.1L199.1,8.34A0.93,0.93,0,0,1,199.67,8.43Z" fill="#92c01a"/></clipPath><clipPath id="z" transform="translate(0 0)"><path d="M200,7.88l25.1,13.65a1.39,1.39,0,0,0-.86-0.15L199.1,7.73A1.38,1.38,0,0,1,200,7.88Z" fill="#92c01a"/></clipPath><clipPath id="aa" transform="translate(0 0)"><path d="M190.56,81.11l-25.1-13.65a1.3,1.3,0,0,0,1.07-1.3l25.1,13.65A1.31,1.31,0,0,1,190.56,81.11Z" fill="#92c01a"/></clipPath><clipPath id="ab" transform="translate(0 0)"><path d="M188.15,11a1.31,1.31,0,0,1,1.07-1.3l22.17,12.06,2.93,1.59a1.31,1.31,0,0,0-1.07,1.3Z" fill="#92c01a"/></clipPath><clipPath id="ac" transform="translate(0 0)"><path d="M212.69,24.76l-25.1-13.65a2,2,0,0,1,1.63-2l25.1,13.65A2,2,0,0,0,212.69,24.76Z" fill="#92c01a"/></clipPath><clipPath id="ad" transform="translate(0 0)"><path d="M180.11,82.4L155,68.75a0.92,0.92,0,0,0,.58.1l25.1,13.65A0.93,0.93,0,0,1,180.11,82.4Z" fill="#92c01a"/></clipPath><clipPath id="ae" transform="translate(0 0)"><path d="M155,68.75a1,1,0,0,1-.48-0.9l22.17,12.06,2.93,1.59a1,1,0,0,0,.49.9Z" fill="#92c01a"/></clipPath><clipPath id="af" transform="translate(0 0)"><path d="M179.81,83l-25.1-13.65a1.52,1.52,0,0,1-.76-1.38l25.1,13.65A1.52,1.52,0,0,0,179.81,83Z" fill="#92c01a"/></clipPath><clipPath id="ag" transform="translate(0 0)"><path d="M166.12,13.29l25.1,13.65a3.41,3.41,0,0,1,.94.88l-25.1-13.65A3.4,3.4,0,0,0,166.12,13.29Z" fill="#92c01a"/></clipPath><clipPath id="ah" transform="translate(0 0)"><path d="M166.12,13.29l25.1,13.65A1.86,1.86,0,0,0,190,26.8l-25.1-13.65A1.87,1.87,0,0,1,166.12,13.29Z" fill="#92c01a"/></clipPath><clipPath id="ai" transform="translate(0 0)"><path d="M166.41,12.73l25.1,13.65a2.32,2.32,0,0,0-1.52-.2L164.9,12.54A2.32,2.32,0,0,1,166.41,12.73Z" fill="#92c01a"/></clipPath><clipPath id="aj" transform="translate(0 0)"><path d="M154.62,15.74a1.31,1.31,0,0,1,1.07-1.3L177.85,26.5h0l2.93,1.6a1.31,1.31,0,0,0-1.07,1.3Z" fill="#92c01a"/></clipPath><clipPath id="ak" transform="translate(0 0)"><path d="M179.15,29.47l-25.1-13.65a2,2,0,0,1,1.64-2l25.1,13.65A2,2,0,0,0,179.15,29.47Z" fill="#92c01a"/></clipPath><clipPath id="al" transform="translate(0 0)"><path d="M173.12,83.56L148,69.91a0.87,0.87,0,0,0,.92-1,2.52,2.52,0,0,0-.1-0.64L173.94,82a2.51,2.51,0,0,1,.1.64A0.87,0.87,0,0,1,173.12,83.56Z" fill="#92c01a"/></clipPath><clipPath id="am" transform="translate(0 0)"><path d="M161.21,84.91l-25.1-13.65a2.08,2.08,0,0,0,1.29.14l25.1,13.65A2.08,2.08,0,0,1,161.21,84.91Z" fill="#92c01a"/></clipPath><clipPath id="an" transform="translate(0 0)"><path d="M136.11,71.26a1.47,1.47,0,0,1-.68-1l25.1,13.65a1.46,1.46,0,0,0,.68,1Z" fill="#92c01a"/></clipPath><clipPath id="ao" transform="translate(0 0)"><path d="M160.9,85.47L135.8,71.82a2,2,0,0,1-.92-1.29L160,84.18A2,2,0,0,0,160.9,85.47Z" fill="#92c01a"/></clipPath><clipPath id="ap" transform="translate(0 0)"><path d="M137.8,88.53L112.7,74.88a2.1,2.1,0,0,0,2-1.67l25.1,13.65A2.1,2.1,0,0,1,137.8,88.53Z" fill="#92c01a"/></clipPath><clipPath id="aq" transform="translate(0 0)"><path d="M101.73,76.27a1,1,0,0,0,.64.06L127.47,90a1,1,0,0,1-.64-0.06Z" fill="#92c01a"/></clipPath><clipPath id="ar" transform="translate(0 0)"><path d="M132.2,17.79l25.1,13.65a1.35,1.35,0,0,1,.61.87l-25.1-13.65A1.34,1.34,0,0,0,132.2,17.79Z" fill="#92c01a"/></clipPath><clipPath id="as" transform="translate(0 0)"><path d="M101.73,76.27a0.65,0.65,0,0,1-.27-0.64l25.1,13.65a0.65,0.65,0,0,0,.27.64Z" fill="#92c01a"/></clipPath><clipPath id="at" transform="translate(0 0)"><path d="M101.46,75.63a2.63,2.63,0,0,1,.1-0.66l25.1,13.65a2.63,2.63,0,0,0-.1.67Z" fill="#92c01a"/></clipPath><clipPath id="au" transform="translate(0 0)"><path d="M132.2,17.79l25.1,13.65a2,2,0,0,0-1.21-.12L131,17.67A2,2,0,0,1,132.2,17.79Z" fill="#92c01a"/></clipPath><clipPath id="av" transform="translate(0 0)"><path d="M143.18,34.38l-25.1-13.65a1.9,1.9,0,0,1,1.83-1.5L145,32.88A1.91,1.91,0,0,0,143.18,34.38Z" fill="#92c01a"/></clipPath><clipPath id="aw" transform="translate(0 0)"><path d="M126.52,90.47l-25.1-13.65a1.2,1.2,0,0,1-.53-1.11,3.56,3.56,0,0,1,.12-0.83l25.1,13.65a3.55,3.55,0,0,0-.12.83A1.2,1.2,0,0,0,126.52,90.47Z" fill="#92c01a"/></clipPath><clipPath id="ax" transform="translate(0 0)"><path d="M132.51,17.24l25.1,13.65a2.44,2.44,0,0,0-1.52-.18L131,17.06A2.44,2.44,0,0,1,132.51,17.24Z" fill="#92c01a"/></clipPath><clipPath id="ay" transform="translate(0 0)"><path d="M142.65,34.26l-25.1-13.65a2.56,2.56,0,0,1,2.37-2L145,32.27A2.56,2.56,0,0,0,142.65,34.26Z" fill="#92c01a"/></clipPath><clipPath id="az" transform="translate(0 0)"><path d="M119.91,91L94.81,77.39a1.3,1.3,0,0,0,1.07-1.3L121,89.74A1.3,1.3,0,0,1,119.91,91Z" fill="#92c01a"/></clipPath><clipPath id="ba" transform="translate(0 0)"><path d="M108.85,92.42L83.75,78.77a0.93,0.93,0,0,0,.58.1l25.1,13.65A0.93,0.93,0,0,1,108.85,92.42Z" fill="#92c01a"/></clipPath><clipPath id="bb" transform="translate(0 0)"><path d="M83.75,78.77a1,1,0,0,1-.49-0.9l22.17,12.06,2.93,1.59a1,1,0,0,0,.49.9Z" fill="#92c01a"/></clipPath><clipPath id="bc" transform="translate(0 0)"><path d="M108.56,93L83.46,79.32a1.52,1.52,0,0,1-.76-1.38L107.8,91.6A1.52,1.52,0,0,0,108.56,93Z" fill="#92c01a"/></clipPath><clipPath id="bd" transform="translate(0 0)"><path d="M95.49,23.08l25.1,13.65a1,1,0,0,1,.49.91L96,24A1,1,0,0,0,95.49,23.08Z" fill="#92c01a"/></clipPath><clipPath id="be" transform="translate(0 0)"><path d="M94.91,23a0.93,0.93,0,0,1,.57.1l25.1,13.65a0.92,0.92,0,0,0-.57-0.1Z" fill="#92c01a"/></clipPath><clipPath id="bf" transform="translate(0 0)"><path d="M95.78,22.52l25.1,13.65A1.39,1.39,0,0,0,120,36L94.91,22.37A1.39,1.39,0,0,1,95.78,22.52Z" fill="#92c01a"/></clipPath><clipPath id="bg" transform="translate(0 0)"><path d="M87.27,95.63L62.18,82a1.3,1.3,0,0,0,1.07-1.3l25.1,13.65A1.3,1.3,0,0,1,87.27,95.63Z" fill="#92c01a"/></clipPath><clipPath id="bh" transform="translate(0 0)"><path d="M83.36,25.76a1.31,1.31,0,0,1,1.07-1.3l25.1,13.65a1.31,1.31,0,0,0-1.07,1.3Z" fill="#92c01a"/></clipPath><clipPath id="bi" transform="translate(0 0)"><path d="M76.22,97L51.12,83.35a0.93,0.93,0,0,0,.58.1L76.8,97.1A0.93,0.93,0,0,1,76.22,97Z" fill="#92c01a"/></clipPath><clipPath id="bj" transform="translate(0 0)"><path d="M107.9,39.49L82.8,25.84a2,2,0,0,1,1.64-2l25.1,13.65A2,2,0,0,0,107.9,39.49Z" fill="#92c01a"/></clipPath><clipPath id="bk" transform="translate(0 0)"><path d="M76.22,97L51.12,83.35a1,1,0,0,1-.49-0.9L75.73,96.1A1,1,0,0,0,76.22,97Z" fill="#92c01a"/></clipPath><clipPath id="bl" transform="translate(0 0)"><path d="M75.92,97.56L50.83,83.91a1.52,1.52,0,0,1-.76-1.38l25.1,13.65A1.52,1.52,0,0,0,75.92,97.56Z" fill="#92c01a"/></clipPath><clipPath id="bm" transform="translate(0 0)"><path d="M62.85,27.66l25.1,13.65a1,1,0,0,1,.49.91L63.34,28.57A1,1,0,0,0,62.85,27.66Z" fill="#92c01a"/></clipPath><clipPath id="bn" transform="translate(0 0)"><path d="M62.28,27.57a0.91,0.91,0,0,1,.57.1l25.1,13.65a0.91,0.91,0,0,0-.57-0.1Z" fill="#92c01a"/></clipPath><clipPath id="bo" transform="translate(0 0)"><path d="M63.14,27.11l25.1,13.65a1.39,1.39,0,0,0-.86-0.15L62.28,27A1.39,1.39,0,0,1,63.14,27.11Z" fill="#92c01a"/></clipPath><clipPath id="bp" transform="translate(0 0)"><path d="M75.83,44L50.73,30.34A1.31,1.31,0,0,1,51.8,29L76.9,42.69A1.31,1.31,0,0,0,75.83,44Z" fill="#92c01a"/></clipPath><clipPath id="bq" transform="translate(0 0)"><path d="M75.26,44.08L50.17,30.42a2,2,0,0,1,1.63-2L76.9,42.08A2,2,0,0,0,75.26,44.08Z" fill="#92c01a"/></clipPath><clipPath id="br" transform="translate(0 0)"><path d="M52.85,100.47L27.75,86.82a1.31,1.31,0,0,0,1.07-1.3l25.1,13.65A1.31,1.31,0,0,1,52.85,100.47Z" fill="#92c01a"/></clipPath><clipPath id="bs" transform="translate(0 0)"><path d="M68.64,55.85L43.54,42.19a1.31,1.31,0,0,0,1.07-1.3l25.1,13.65A1.31,1.31,0,0,1,68.64,55.85Z" fill="#92c01a"/></clipPath><clipPath id="bt" transform="translate(0 0)"><path d="M41.79,101.84L16.69,88.19a0.93,0.93,0,0,0,.58.1l25.1,13.65A0.92,0.92,0,0,1,41.79,101.84Z" fill="#92c01a"/></clipPath><clipPath id="bu" transform="translate(0 0)"><path d="M41.79,101.84L16.69,88.19a1,1,0,0,1-.49-0.9l25.1,13.65A1,1,0,0,0,41.79,101.84Z" fill="#92c01a"/></clipPath><clipPath id="bv" transform="translate(0 0)"><path d="M41.49,102.4L16.4,88.75a1.52,1.52,0,0,1-.76-1.38L40.74,101A1.52,1.52,0,0,0,41.49,102.4Z" fill="#92c01a"/></clipPath><clipPath id="bw" transform="translate(0 0)"><path d="M44.14,30.29l25.1,13.65a1,1,0,0,1,.49.91L44.63,31.2A1,1,0,0,0,44.14,30.29Z" fill="#92c01a"/></clipPath><clipPath id="bx" transform="translate(0 0)"><path d="M43.56,30.2a0.93,0.93,0,0,1,.58.1l25.1,13.65a0.93,0.93,0,0,0-.58-0.1Z" fill="#92c01a"/></clipPath><clipPath id="by" transform="translate(0 0)"><path d="M44.43,29.74l25.1,13.65a1.39,1.39,0,0,0-.87-0.15L43.56,29.59A1.4,1.4,0,0,1,44.43,29.74Z" fill="#92c01a"/></clipPath><clipPath id="bz" transform="translate(0 0)"><path d="M26.15,61.64L1.05,48a0.92,0.92,0,0,0,.58.1l25.1,13.65A0.92,0.92,0,0,1,26.15,61.64Z" fill="#92c01a"/></clipPath><clipPath id="ca" transform="translate(0 0)"><path d="M26.15,61.64L1.05,48a1,1,0,0,1-.49-0.9l25.1,13.65A1,1,0,0,0,26.15,61.64Z" fill="#92c01a"/></clipPath><clipPath id="cb" transform="translate(0 0)"><path d="M25.85,62.2L0.76,48.54A1.52,1.52,0,0,1,0,47.17L25.1,60.82A1.52,1.52,0,0,0,25.85,62.2Z" fill="#92c01a"/></clipPath><clipPath id="cc" transform="translate(0 0)"><path d="M25.68,51L0.58,37.39a1.31,1.31,0,0,1,1.07-1.3l25.1,13.65A1.31,1.31,0,0,0,25.68,51Z" fill="#92c01a"/></clipPath><clipPath id="cd" transform="translate(0 0)"><path d="M25.12,51.12L0,37.47a2,2,0,0,1,1.63-2l25.1,13.65A2,2,0,0,0,25.12,51.12Z" fill="#92c01a"/></clipPath><clipPath id="ce" transform="translate(0 0)"><path d="M441.16,19.66h-9.26a9.79,9.79,0,0,0-9.36,7,9.79,9.79,0,0,0-9.36-7h-9.26a9.79,9.79,0,0,0-9.57,7.75,33.82,33.82,0,0,0-22.59-8.35,34.55,34.55,0,0,0-18.55,5.27,9.59,9.59,0,0,0-8.44-4.67H334A10.54,10.54,0,0,0,324.73,25l-1.44,2.3-1.36-2.2a10.41,10.41,0,0,0-9.38-5.41H301.9a9.58,9.58,0,0,0-8.64,5,9.86,9.86,0,0,0,.68,10.22l14.92,22.71v14.5a9.79,9.79,0,0,0,9.78,9.78h9.26a9.79,9.79,0,0,0,9.78-9.78V57.69l1.42-2.16a30.43,30.43,0,0,0,9.8,18.5,34,34,0,0,0,22.87,8.52c11,0,20.41-4.68,26.32-12.19a23.8,23.8,0,0,0,2.13,2.94c5.07,6,13,9.24,22.29,9.24s17.29-3.28,22.35-9.24c4-4.68,6.08-10.83,6.08-17.8V29.44A9.79,9.79,0,0,0,441.16,19.66Z" fill="none"/></clipPath></defs><title>ty</title><g style="isolation:isolate"><path d="M279.19,68.66L254.09,55a1.07,1.07,0,0,0,.87-0.52l25.1,13.65A1.07,1.07,0,0,1,279.19,68.66Z" transform="translate(0 0)" fill="#92c01a"/><g clip-path="url(#a)"><g style="isolation:isolate"><path d="M279.19,68.66L254.09,55a1.67,1.67,0,0,0,.47-0.13l25.1,13.65a1.66,1.66,0,0,1-.47.13" transform="translate(0 0)" fill="#92c01a"/><path d="M279.65,68.53l-25.1-13.65,0.15-.08,25.1,13.65-0.15.08" transform="translate(0 0)" fill="#92c01a"/><path d="M279.8,68.44l-25.1-13.65,0.08-.07,25.1,13.65-0.08.07" transform="translate(0 0)" fill="#92c01a"/><path d="M279.89,68.38l-25.1-13.65,0.06-.06,25.1,13.65-0.06.06" transform="translate(0 0)" fill="#92c01a"/><path d="M279.95,68.31l-25.1-13.65,0-.06L280,68.25l0,0.06" transform="translate(0 0)" fill="#92c01a"/><path d="M280,68.25L254.9,54.6l0-.07L280,68.19l0,0.07" transform="translate(0 0)" fill="#92c01a"/><path d="M280,68.19l-25.1-13.65,0,0,25.1,13.65,0,0" transform="translate(0 0)" fill="#92c01a"/></g></g></g><g style="isolation:isolate"><path d="M280.06,68.14L255,54.49a1.72,1.72,0,0,0-.42-1.56l25.1,13.65A1.72,1.72,0,0,1,280.06,68.14Z" transform="translate(0 0)" fill="#92c01a"/><g clip-path="url(#b)"><g style="isolation:isolate"><path d="M280.06,68.14L255,54.49v0l25.1,13.65v0" transform="translate(0 0)" fill="#92c01a"/><path d="M280.07,68.11L255,54.45a1.77,1.77,0,0,0-.43-1.53l25.1,13.65a1.76,1.76,0,0,1,.43,1.53" transform="translate(0 0)" fill="#92c01a"/></g></g></g><polygon points="266.83 70.39 241.74 56.74 254.09 55.01 279.19 68.66 266.83 70.39" fill="#92c01a"/><g style="isolation:isolate"><path d="M265.37,70.23l-25.1-13.65a2.27,2.27,0,0,0,1.46.17l25.1,13.65A2.27,2.27,0,0,1,265.37,70.23Z" transform="translate(0 0)" fill="#92c01a"/><g clip-path="url(#c)"><g style="isolation:isolate"><path d="M265.37,70.23l-25.1-13.65,0.06,0,25.1,13.65-0.06,0" transform="translate(0 0)" fill="#92c01a"/><path d="M265.43,70.26L240.34,56.6a1.59,1.59,0,0,0,.31.12l25.1,13.65a1.61,1.61,0,0,1-.31-0.12" transform="translate(0 0)" fill="#92c01a"/><path d="M265.75,70.37l-25.1-13.65a2.77,2.77,0,0,0,1.08,0l25.1,13.65a2.78,2.78,0,0,1-1.09,0" transform="translate(0 0)" fill="#92c01a"/></g></g></g><g style="isolation:isolate"><path d="M265.37,70.23l-25.1-13.65a2.57,2.57,0,0,1-.85-0.83l25.1,13.65A2.59,2.59,0,0,0,265.37,70.23Z" transform="translate(0 0)" fill="#92c01a"/><g clip-path="url(#d)"><g style="isolation:isolate"><path d="M265.37,70.23l-25.1-13.65a2.57,2.57,0,0,1-.85-0.83l25.1,13.65a2.59,2.59,0,0,0,.85.83" transform="translate(0 0)" fill="#92c01a"/></g></g></g><g style="isolation:isolate"><path d="M265.07,70.78L240,57.12a3,3,0,0,1-1-1l25.1,13.65A3,3,0,0,0,265.07,70.78Z" transform="translate(0 0)" fill="#92c01a"/><g clip-path="url(#e)"><g style="isolation:isolate"><path d="M265.07,70.78L240,57.12a3,3,0,0,1-1-1l25.1,13.65a3,3,0,0,0,1,1" transform="translate(0 0)" fill="#92c01a"/></g></g></g><g style="isolation:isolate"><path d="M254.57,0.7l25.1,13.65a0.52,0.52,0,0,1,.24.25,1.41,1.41,0,0,1-.37,1.28L254.43,2.24A1.4,1.4,0,0,0,254.8,1,0.51,0.51,0,0,0,254.57.7Z" transform="translate(0 0)" fill="#92c01a"/><g clip-path="url(#f)"><g style="isolation:isolate"><path d="M279.53,15.89L254.43,2.24l0.07-.09,25.1,13.65-0.07.09" transform="translate(0 0)" fill="#92c01a"/><path d="M279.59,15.8L254.5,2.15a3,3,0,0,0,.16-0.26l25.1,13.65a2.88,2.88,0,0,1-.16.26" transform="translate(0 0)" fill="#92c01a"/><path d="M279.75,15.54L254.66,1.88a2.16,2.16,0,0,0,.12-0.25l25.1,13.65a2.15,2.15,0,0,1-.11.25" transform="translate(0 0)" fill="#92c01a"/><path d="M279.87,15.28L254.77,1.63a0.92,0.92,0,0,0,0-.67A0.51,0.51,0,0,0,254.57.7l25.1,13.65a0.52,0.52,0,0,1,.24.25,0.92,0.92,0,0,1,0,.67" transform="translate(0 0)" fill="#92c01a"/></g></g></g><g style="isolation:isolate"><path d="M254.57,0.7l25.1,13.65a1,1,0,0,0-.61-0.08L254,0.63A1,1,0,0,1,254.57.7Z" transform="translate(0 0)" fill="#92c01a"/><g clip-path="url(#g)"><g style="isolation:isolate"><path d="M279.06,14.28L254,0.63a1.18,1.18,0,0,1,.45,0l25.1,13.65a1.15,1.15,0,0,0-.45,0" transform="translate(0 0)" fill="#92c01a"/><path d="M279.51,14.29L254.41,0.64l0.13,0,25.1,13.65-0.13,0" transform="translate(0 0)" fill="#92c01a"/><path d="M279.64,14.34L254.54,0.69h0l25.1,13.65h0" transform="translate(0 0)" fill="#92c01a"/></g></g></g><g style="isolation:isolate"><path d="M246.85,73.2l-25.1-13.65a1.31,1.31,0,0,0,1.07-1.3l25.1,13.65A1.3,1.3,0,0,1,246.85,73.2Z" transform="translate(0 0)" fill="#92c01a"/><g clip-path="url(#h)"><g style="isolation:isolate"><path d="M246.85,73.2l-25.1-13.65a1.12,1.12,0,0,0,.32-0.1l25.1,13.65a1.14,1.14,0,0,1-.32.1" transform="translate(0 0)" fill="#92c01a"/><path d="M247.17,73.11l-25.1-13.65,0.17-.1L247.35,73l-0.17.1" transform="translate(0 0)" fill="#92c01a"/><path d="M247.35,73l-25.1-13.65,0.13-.1,25.1,13.65-0.12.1" transform="translate(0 0)" fill="#92c01a"/><path d="M247.47,72.91l-25.1-13.65,0.1-.11,25.1,13.65-0.11.11" transform="translate(0 0)" fill="#92c01a"/><path d="M247.58,72.8l-25.1-13.65,0.09-.12,25.1,13.65-0.09.12" transform="translate(0 0)" fill="#92c01a"/><path d="M247.67,72.68L222.57,59l0.09-.14,25.1,13.65-0.08.14" transform="translate(0 0)" fill="#92c01a"/><path d="M247.75,72.55l-25.1-13.65a1.65,1.65,0,0,0,.08-0.18l25.1,13.65a1.58,1.58,0,0,1-.08.18" transform="translate(0 0)" fill="#92c01a"/><path d="M247.83,72.37l-25.1-13.65a1.42,1.42,0,0,0,.08-0.47l25.1,13.65a1.39,1.39,0,0,1-.08.46" transform="translate(0 0)" fill="#92c01a"/></g></g></g><g style="isolation:isolate"><path d="M254.88,0.15L280,13.8a1.48,1.48,0,0,0-.92-0.13L254,0A1.47,1.47,0,0,1,254.88.15Z" transform="translate(0 0)" fill="#92c01a"/><g clip-path="url(#i)"><g style="isolation:isolate"><path d="M279.06,13.67L254,0a1.68,1.68,0,0,1,.65,0l25.1,13.65a1.68,1.68,0,0,0-.65,0" transform="translate(0 0)" fill="#92c01a"/><path d="M279.71,13.7L254.62,0l0.22,0.08,25.1,13.65-0.22-.08" transform="translate(0 0)" fill="#92c01a"/><path d="M279.93,13.78L254.84,0.13l0,0L280,13.8l0,0" transform="translate(0 0)" fill="#92c01a"/></g></g></g><polygon points="260.7 40.01 235.6 26.36 254.43 2.23 279.53 15.89 260.7 40.01" fill="#92c01a"/><polygon points="279.64 66.58 254.54 52.93 235.44 26.56 260.54 40.22 279.64 66.58" fill="#92c01a"/><polygon points="260.54 40.22 235.44 26.56 235.6 26.36 260.7 40.01 260.54 40.22" fill="#92c01a"/><polygon points="264.52 69.39 239.43 55.74 226.54 37.86 251.63 51.52 264.52 69.39" fill="#92c01a"/><polygon points="264.06 69.81 238.97 56.15 226.48 38.83 251.57 52.49 264.06 69.81" fill="#92c01a"/><polygon points="247.92 71.9 222.82 58.25 222.85 42.62 247.95 56.27 247.92 71.9" fill="#92c01a"/><polygon points="247.95 56.27 222.85 42.62 226.54 37.86 251.63 51.52 247.95 56.27" fill="#92c01a"/><polygon points="236.37 74.67 211.28 61.02 221.75 59.55 246.85 73.2 236.37 74.67" fill="#92c01a"/><g style="isolation:isolate"><path d="M235.79,74.58L210.7,60.92a0.93,0.93,0,0,0,.58.1l25.1,13.65A0.94,0.94,0,0,1,235.79,74.58Z" transform="translate(0 0)" fill="#92c01a"/><g clip-path="url(#j)"><g style="isolation:isolate"><path d="M235.79,74.58L210.7,60.92l0,0,25.1,13.65,0,0" transform="translate(0 0)" fill="#92c01a"/><path d="M235.82,74.59l-25.1-13.65L210.9,61,236,74.66l-0.17-.06" transform="translate(0 0)" fill="#92c01a"/><path d="M236,74.66L210.9,61a1,1,0,0,0,.38,0l25.1,13.65a1,1,0,0,1-.38,0" transform="translate(0 0)" fill="#92c01a"/></g></g></g><g style="isolation:isolate"><path d="M235.79,74.58L210.7,60.92a1,1,0,0,1-.49-0.9l25.1,13.65A1,1,0,0,0,235.79,74.58Z" transform="translate(0 0)" fill="#92c01a"/><g clip-path="url(#k)"><g style="isolation:isolate"><path d="M235.79,74.58L210.7,60.92a1,1,0,0,1-.49-0.9l25.1,13.65a1,1,0,0,0,.49.9" transform="translate(0 0)" fill="#92c01a"/></g></g></g><g style="isolation:isolate"><path d="M235.5,75.13L210.4,61.48a1.52,1.52,0,0,1-.76-1.38l25.1,13.65A1.52,1.52,0,0,0,235.5,75.13Z" transform="translate(0 0)" fill="#92c01a"/><g clip-path="url(#l)"><g style="isolation:isolate"><path d="M235.5,75.13L210.4,61.48a1.52,1.52,0,0,1-.76-1.38l25.1,13.65a1.52,1.52,0,0,0,.76,1.38" transform="translate(0 0)" fill="#92c01a"/></g></g></g><polygon points="265.74 16.15 240.64 2.5 253.96 0.63 279.06 14.28 265.74 16.15" fill="#92c01a"/><polygon points="265.74 15.54 240.64 1.89 253.96 0.02 279.06 13.67 265.74 15.54" fill="#92c01a"/><g style="isolation:isolate"><path d="M263.18,17.86L238.08,4.21a3.54,3.54,0,0,1,2.56-1.71l25.1,13.65A3.55,3.55,0,0,0,263.18,17.86Z" transform="translate(0 0)" fill="#92c01a"/><g clip-path="url(#m)"><g style="isolation:isolate"><path d="M263.18,17.86L238.08,4.21a6.51,6.51,0,0,1,.42-0.54l25.1,13.65a6.44,6.44,0,0,0-.42.54" transform="translate(0 0)" fill="#92c01a"/><path d="M263.6,17.33L238.5,3.67a4.41,4.41,0,0,1,.35-0.36L264,17a4.24,4.24,0,0,0-.35.36" transform="translate(0 0)" fill="#92c01a"/><path d="M264,17L238.86,3.32A3.52,3.52,0,0,1,239.2,3l25.1,13.65A3.35,3.35,0,0,0,264,17" transform="translate(0 0)" fill="#92c01a"/><path d="M264.3,16.69L239.2,3a3.18,3.18,0,0,1,.44-0.25l25.1,13.65a3,3,0,0,0-.44.25" transform="translate(0 0)" fill="#92c01a"/><path d="M264.74,16.44L239.64,2.79a3.45,3.45,0,0,1,1-.29l25.1,13.65a3.4,3.4,0,0,0-1,.29" transform="translate(0 0)" fill="#92c01a"/></g></g></g><g style="isolation:isolate"><path d="M262.75,17.53L237.66,3.88a4.18,4.18,0,0,1,3-2l25.1,13.65A4.18,4.18,0,0,0,262.75,17.53Z" transform="translate(0 0)" fill="#92c01a"/><g clip-path="url(#n)"><g style="isolation:isolate"><path d="M262.75,17.53L237.66,3.88a7.14,7.14,0,0,1,.47-0.6l25.1,13.65a7.18,7.18,0,0,0-.47.6" transform="translate(0 0)" fill="#92c01a"/><path d="M263.22,16.93L238.13,3.28a5.22,5.22,0,0,1,.41-0.42l25.1,13.65a5.24,5.24,0,0,0-.41.42" transform="translate(0 0)" fill="#92c01a"/><path d="M263.64,16.51L238.54,2.86A4,4,0,0,1,239,2.53l25.1,13.65a4,4,0,0,0-.42.33" transform="translate(0 0)" fill="#92c01a"/><path d="M264.05,16.18L239,2.53a3.7,3.7,0,0,1,.52-0.3l25.1,13.65a3.68,3.68,0,0,0-.52.3" transform="translate(0 0)" fill="#92c01a"/><path d="M264.57,15.88L239.48,2.23a4,4,0,0,1,1.17-.34l25.1,13.65a4,4,0,0,0-1.17.34" transform="translate(0 0)" fill="#92c01a"/></g></g></g><polygon points="247.98 39.03 222.88 25.38 238.08 4.21 263.18 17.86 247.98 39.03" fill="#92c01a"/><polygon points="248.54 37.31 223.45 23.66 237.66 3.88 262.75 17.53 248.54 37.31" fill="#92c01a"/><polygon points="247.98 39.03 222.88 25.38 222.92 6.14 248.01 19.8 247.98 39.03" fill="#92c01a"/><g style="isolation:isolate"><path d="M222.43,5.24l25.1,13.65a1,1,0,0,1,.49.91L222.92,6.14A1,1,0,0,0,222.43,5.24Z" transform="translate(0 0)" fill="#92c01a"/><g clip-path="url(#o)"><g style="isolation:isolate"><path d="M248,19.8L222.92,6.14a1,1,0,0,0-.49-0.91l25.1,13.65a1,1,0,0,1,.49.91" transform="translate(0 0)" fill="#92c01a"/></g></g></g><g style="isolation:isolate"><path d="M222.43,5.24l25.1,13.65a0.92,0.92,0,0,0-.57-0.1L221.85,5.14A0.92,0.92,0,0,1,222.43,5.24Z" transform="translate(0 0)" fill="#92c01a"/><g clip-path="url(#p)"><g style="isolation:isolate"><path d="M247,18.79L221.85,5.14a1,1,0,0,1,.38,0l25.1,13.65a1,1,0,0,0-.37,0" transform="translate(0 0)" fill="#92c01a"/><path d="M247.33,18.81L222.23,5.16l0.17,0.06,25.1,13.65-0.17-.06" transform="translate(0 0)" fill="#92c01a"/><path d="M247.49,18.87L222.4,5.22l0,0,25.1,13.65,0,0" transform="translate(0 0)" fill="#92c01a"/></g></g></g><g style="isolation:isolate"><path d="M222.72,4.68l25.1,13.65a1.38,1.38,0,0,0-.86-0.15L221.86,4.53A1.4,1.4,0,0,1,222.72,4.68Z" transform="translate(0 0)" fill="#92c01a"/><g clip-path="url(#q)"><g style="isolation:isolate"><path d="M247,18.18L221.86,4.53a1.44,1.44,0,0,1,.56,0l25.1,13.65a1.43,1.43,0,0,0-.56,0" transform="translate(0 0)" fill="#92c01a"/><path d="M247.51,18.21L222.41,4.56l0.26,0.1,25.1,13.65-0.26-.09" transform="translate(0 0)" fill="#92c01a"/><path d="M247.77,18.31L222.67,4.66l0,0,25.1,13.65,0,0" transform="translate(0 0)" fill="#92c01a"/></g></g></g><polygon points="236.47 20.27 211.38 6.61 221.85 5.14 246.95 18.79 236.47 20.27" fill="#92c01a"/><polygon points="236.48 19.66 211.38 6 221.85 4.53 246.95 18.18 236.48 19.66" fill="#92c01a"/><polygon points="235.31 73.68 210.21 60.02 210.31 7.92 235.4 21.57 235.31 73.68" fill="#92c01a"/><g style="isolation:isolate"><path d="M235.4,21.57L210.31,7.92a1.31,1.31,0,0,1,1.07-1.3l25.1,13.65A1.31,1.31,0,0,0,235.4,21.57Z" transform="translate(0 0)" fill="#92c01a"/><g clip-path="url(#r)"><g style="isolation:isolate"><path d="M235.4,21.57L210.31,7.92a1.37,1.37,0,0,1,.08-0.46l25.1,13.65a1.32,1.32,0,0,0-.08.46" transform="translate(0 0)" fill="#92c01a"/><path d="M235.49,21.11L210.39,7.45a1.45,1.45,0,0,1,.08-0.18l25.1,13.65a1.17,1.17,0,0,0-.08.18" transform="translate(0 0)" fill="#92c01a"/><path d="M235.57,20.93L210.47,7.28l0.09-.14,25.1,13.65-0.08.14" transform="translate(0 0)" fill="#92c01a"/><path d="M235.65,20.79L210.55,7.14l0.1-.12,25.1,13.65-0.09.12" transform="translate(0 0)" fill="#92c01a"/><path d="M235.75,20.67L210.65,7l0.11-.11,25.1,13.65-0.11.11" transform="translate(0 0)" fill="#92c01a"/><path d="M235.85,20.56L210.76,6.91l0.13-.1L236,20.46l-0.13.1" transform="translate(0 0)" fill="#92c01a"/><path d="M236,20.46L210.88,6.81l0.17-.1,25.1,13.65-0.17.1" transform="translate(0 0)" fill="#92c01a"/><path d="M236.15,20.36L211.06,6.71a1.13,1.13,0,0,1,.32-0.1l25.1,13.65a1.12,1.12,0,0,0-.32.1" transform="translate(0 0)" fill="#92c01a"/></g></g></g><path d="M280.09,66.15a2.25,2.25,0,0,1,.47,2.19,1.6,1.6,0,0,1-1.37.93L266.83,71a2.53,2.53,0,0,1-2.77-1.2L251.57,52.49l-3.06,3.95,0,15.39a2,2,0,0,1-1.63,2l-10.48,1.47a1.44,1.44,0,0,1-1.63-1.53l0.1-52.11a2,2,0,0,1,1.64-2L247,18.18a1.44,1.44,0,0,1,1.62,1.53l0,17.59,14.21-19.79a4.18,4.18,0,0,1,3-2l13.32-1.87a1.17,1.17,0,0,1,1.36.62,2,2,0,0,1-.48,1.95L261.27,40.17Zm0,2a1.72,1.72,0,0,0-.42-1.56l-19.1-26.36,0.16-.2,18.83-24.12a1.41,1.41,0,0,0,.37-1.28,0.72,0.72,0,0,0-.84-0.33l-13.32,1.87a3.55,3.55,0,0,0-2.56,1.71L248,39l0-19.24a0.93,0.93,0,0,0-1.06-1l-10.48,1.47a1.31,1.31,0,0,0-1.07,1.3l-0.1,52.11a0.93,0.93,0,0,0,1.07,1l10.48-1.47a1.3,1.3,0,0,0,1.07-1.3l0-15.63,3.69-4.76,12.89,17.88a2,2,0,0,0,2.31,1l12.35-1.74a1.07,1.07,0,0,0,.87-0.52" transform="translate(0 0)" fill="#92c01a"/><polygon points="234.74 73.75 209.65 60.1 209.74 8 234.84 21.65 234.74 73.75" fill="#92c01a"/><g style="isolation:isolate"><path d="M234.84,21.65L209.74,8a2,2,0,0,1,1.64-2l25.1,13.65A2,2,0,0,0,234.84,21.65Z" transform="translate(0 0)" fill="#92c01a"/><g clip-path="url(#s)"><g style="isolation:isolate"><path d="M234.84,21.65L209.74,8a2,2,0,0,1,.13-0.69L235,21a2,2,0,0,0-.12.69" transform="translate(0 0)" fill="#92c01a"/><path d="M235,21L209.87,7.31A2.23,2.23,0,0,1,210,7l25.1,13.65A2.28,2.28,0,0,0,235,21" transform="translate(0 0)" fill="#92c01a"/><path d="M235.09,20.68L210,7a2.11,2.11,0,0,1,.13-0.22l25.1,13.65a2.11,2.11,0,0,0-.13.22" transform="translate(0 0)" fill="#92c01a"/><path d="M235.22,20.47L210.13,6.81l0.15-.19,25.1,13.65-0.15.19" transform="translate(0 0)" fill="#92c01a"/><path d="M235.37,20.28L210.27,6.63l0.17-.17,25.1,13.65-0.17.17" transform="translate(0 0)" fill="#92c01a"/><path d="M235.54,20.11L210.44,6.46l0.2-.16L235.74,20l-0.2.16" transform="translate(0 0)" fill="#92c01a"/><path d="M235.74,20L210.64,6.3l0.26-.15L236,19.8l-0.26.15" transform="translate(0 0)" fill="#92c01a"/><path d="M236,19.8L210.91,6.15A1.68,1.68,0,0,1,211.38,6l25.1,13.65a1.67,1.67,0,0,0-.47.14" transform="translate(0 0)" fill="#92c01a"/></g></g></g><g style="isolation:isolate"><path d="M224.1,76.4L199,62.75a1.3,1.3,0,0,0,1.07-1.3l25.1,13.65A1.3,1.3,0,0,1,224.1,76.4Z" transform="translate(0 0)" fill="#92c01a"/><g clip-path="url(#t)"><g style="isolation:isolate"><path d="M224.1,76.4L199,62.75a1.11,1.11,0,0,0,.32-0.1l25.1,13.65a1.16,1.16,0,0,1-.32.1" transform="translate(0 0)" fill="#92c01a"/><path d="M224.42,76.3l-25.1-13.65,0.17-.1,25.1,13.65-0.17.1" transform="translate(0 0)" fill="#92c01a"/><path d="M224.59,76.2l-25.1-13.65,0.13-.1,25.1,13.65-0.13.1" transform="translate(0 0)" fill="#92c01a"/><path d="M224.72,76.1l-25.1-13.65,0.11-.11L224.82,76l-0.11.11" transform="translate(0 0)" fill="#92c01a"/><path d="M224.82,76l-25.1-13.65,0.09-.12,25.1,13.65-0.09.12" transform="translate(0 0)" fill="#92c01a"/><path d="M224.92,75.88l-25.1-13.65,0.09-.14L225,75.74l-0.08.14" transform="translate(0 0)" fill="#92c01a"/><path d="M225,75.74L199.9,62.09a1.4,1.4,0,0,0,.08-0.18l25.1,13.65a1.29,1.29,0,0,1-.08.18" transform="translate(0 0)" fill="#92c01a"/><path d="M225.08,75.57L200,61.91a1.36,1.36,0,0,0,.08-0.46l25.1,13.65a1.32,1.32,0,0,1-.08.46" transform="translate(0 0)" fill="#92c01a"/></g></g></g><polygon points="214.97 77.68 189.87 64.03 199 62.75 224.1 76.4 214.97 77.68" fill="#92c01a"/><g style="isolation:isolate"><path d="M213.68,77.56L188.58,63.9a2,2,0,0,0,1.29.13L215,77.68A2,2,0,0,1,213.68,77.56Z" transform="translate(0 0)" fill="#92c01a"/><g clip-path="url(#u)"><g style="isolation:isolate"><path d="M213.68,77.56L188.58,63.9l0.05,0,25.1,13.65-0.05,0" transform="translate(0 0)" fill="#92c01a"/><path d="M213.73,77.58l-25.1-13.65a1.31,1.31,0,0,0,.26.1L214,77.68l-0.26-.1" transform="translate(0 0)" fill="#92c01a"/><path d="M214,77.68L188.89,64a2.52,2.52,0,0,0,1,0L215,77.68a2.52,2.52,0,0,1-1,0" transform="translate(0 0)" fill="#92c01a"/></g></g></g><g style="isolation:isolate"><path d="M188.58,63.9a2.67,2.67,0,0,1-.88-0.9l22.17,12.06,2.93,1.59a2.66,2.66,0,0,0,.88.9Z" transform="translate(0 0)" fill="#92c01a"/><g clip-path="url(#v)"><g style="isolation:isolate"><path d="M213.68,77.56L188.58,63.9a2.65,2.65,0,0,1-.88-0.9l25.1,13.65a2.67,2.67,0,0,0,.88.9" transform="translate(0 0)" fill="#92c01a"/></g></g></g><g style="isolation:isolate"><path d="M213.37,78.12l-25.1-13.65a3.08,3.08,0,0,1-1-1l25.1,13.65A3.08,3.08,0,0,0,213.37,78.12Z" transform="translate(0 0)" fill="#92c01a"/><g clip-path="url(#w)"><g style="isolation:isolate"><path d="M213.37,78.12l-25.1-13.65a3.08,3.08,0,0,1-1-1l25.1,13.65a3.08,3.08,0,0,0,1,1" transform="translate(0 0)" fill="#92c01a"/></g></g></g><polygon points="225.16 75.1 200.07 61.45 200.16 9.34 225.26 22.99 225.16 75.1" fill="#92c01a"/><g style="isolation:isolate"><path d="M199.67,8.43l25.1,13.65a1,1,0,0,1,.49.91L200.16,9.34A1,1,0,0,0,199.67,8.43Z" transform="translate(0 0)" fill="#92c01a"/><g clip-path="url(#x)"><g style="isolation:isolate"><path d="M225.26,23L200.16,9.34a1,1,0,0,0-.49-0.91l25.1,13.65a1,1,0,0,1,.49.91" transform="translate(0 0)" fill="#92c01a"/></g></g></g><g style="isolation:isolate"><path d="M199.67,8.43l25.1,13.65a0.92,0.92,0,0,0-.58-0.1L199.1,8.34A0.93,0.93,0,0,1,199.67,8.43Z" transform="translate(0 0)" fill="#92c01a"/><g clip-path="url(#y)"><g style="isolation:isolate"><path d="M224.2,22L199.1,8.34a1,1,0,0,1,.38,0L224.57,22a1,1,0,0,0-.38,0" transform="translate(0 0)" fill="#92c01a"/><path d="M224.57,22L199.48,8.36l0.17,0.06,25.1,13.65L224.57,22" transform="translate(0 0)" fill="#92c01a"/><path d="M224.74,22.07L199.64,8.42l0,0,25.1,13.65,0,0" transform="translate(0 0)" fill="#92c01a"/></g></g></g><g style="isolation:isolate"><path d="M200,7.88l25.1,13.65a1.39,1.39,0,0,0-.86-0.15L199.1,7.73A1.38,1.38,0,0,1,200,7.88Z" transform="translate(0 0)" fill="#92c01a"/><g clip-path="url(#z)"><g style="isolation:isolate"><path d="M224.2,21.38L199.1,7.73a1.42,1.42,0,0,1,.56,0l25.1,13.65a1.46,1.46,0,0,0-.56,0" transform="translate(0 0)" fill="#92c01a"/><path d="M224.76,21.41L199.66,7.76a1.32,1.32,0,0,1,.26.1L225,21.51l-0.26-.1" transform="translate(0 0)" fill="#92c01a"/><path d="M225,21.51L199.92,7.85l0,0,25.1,13.65,0,0" transform="translate(0 0)" fill="#92c01a"/></g></g></g><g style="isolation:isolate"><path d="M190.56,81.11l-25.1-13.65a1.3,1.3,0,0,0,1.07-1.3l25.1,13.65A1.31,1.31,0,0,1,190.56,81.11Z" transform="translate(0 0)" fill="#92c01a"/><g clip-path="url(#aa)"><g style="isolation:isolate"><path d="M190.56,81.11l-25.1-13.65a1.13,1.13,0,0,0,.32-0.1L190.89,81a1.16,1.16,0,0,1-.32.1" transform="translate(0 0)" fill="#92c01a"/><path d="M190.89,81l-25.1-13.65,0.17-.1,25.1,13.65-0.17.1" transform="translate(0 0)" fill="#92c01a"/><path d="M191.06,80.92L166,67.26l0.13-.1,25.1,13.65-0.13.1" transform="translate(0 0)" fill="#92c01a"/><path d="M191.19,80.82l-25.1-13.65,0.1-.11,25.1,13.65-0.11.11" transform="translate(0 0)" fill="#92c01a"/><path d="M191.29,80.71l-25.1-13.65,0.09-.12,25.1,13.65-0.09.12" transform="translate(0 0)" fill="#92c01a"/><path d="M191.38,80.59l-25.1-13.65,0.08-.14,25.1,13.65-0.08.14" transform="translate(0 0)" fill="#92c01a"/><path d="M191.47,80.45L166.37,66.8a1.37,1.37,0,0,0,.08-0.18l25.1,13.65a1.32,1.32,0,0,1-.08.18" transform="translate(0 0)" fill="#92c01a"/><path d="M191.55,80.28l-25.1-13.65a1.36,1.36,0,0,0,.08-0.47l25.1,13.65a1.36,1.36,0,0,1-.08.46" transform="translate(0 0)" fill="#92c01a"/></g></g></g><polygon points="214.32 23.38 189.22 9.73 199.1 8.34 224.2 21.99 214.32 23.38" fill="#92c01a"/><polygon points="214.32 22.77 189.22 9.12 199.1 7.73 224.2 21.38 214.32 22.77" fill="#92c01a"/><polygon points="213.19 55.41 188.1 41.76 188.15 11.03 213.25 24.68 213.19 55.41" fill="#92c01a"/><g style="isolation:isolate"><path d="M188.15,11a1.31,1.31,0,0,1,1.07-1.3l22.17,12.06,2.93,1.59a1.31,1.31,0,0,0-1.07,1.3Z" transform="translate(0 0)" fill="#92c01a"/><g clip-path="url(#ab)"><g style="isolation:isolate"><path d="M213.25,24.68L188.15,11a1.37,1.37,0,0,1,.08-0.47l25.1,13.65a1.35,1.35,0,0,0-.08.47" transform="translate(0 0)" fill="#92c01a"/><path d="M213.33,24.22l-25.1-13.65a1.33,1.33,0,0,1,.08-0.18L213.42,24a1.39,1.39,0,0,0-.08.18" transform="translate(0 0)" fill="#92c01a"/><path d="M213.42,24l-25.1-13.65,0.09-.14L213.5,23.9l-0.09.14" transform="translate(0 0)" fill="#92c01a"/><path d="M213.5,23.9L188.4,10.25l0.09-.12,25.1,13.65-0.09.12" transform="translate(0 0)" fill="#92c01a"/><path d="M213.59,23.78L188.5,10.13,188.6,10l25.1,13.65-0.11.11" transform="translate(0 0)" fill="#92c01a"/><path d="M213.7,23.67L188.6,10l0.13-.1,25.1,13.65-0.13.1" transform="translate(0 0)" fill="#92c01a"/><path d="M213.83,23.57L188.73,9.92l0.17-.1L214,23.47l-0.17.1" transform="translate(0 0)" fill="#92c01a"/><path d="M214,23.47L188.9,9.82a1.14,1.14,0,0,1,.32-0.1l25.1,13.65a1.12,1.12,0,0,0-.32.1" transform="translate(0 0)" fill="#92c01a"/></g></g></g><polygon points="212.63 53.65 187.54 40 187.59 11.11 212.69 24.76 212.63 53.65" fill="#92c01a"/><g style="isolation:isolate"><path d="M212.69,24.76l-25.1-13.65a2,2,0,0,1,1.63-2l25.1,13.65A2,2,0,0,0,212.69,24.76Z" transform="translate(0 0)" fill="#92c01a"/><g clip-path="url(#ac)"><g style="isolation:isolate"><path d="M212.69,24.76l-25.1-13.65a2,2,0,0,1,.13-0.69l25.1,13.65a2,2,0,0,0-.13.69" transform="translate(0 0)" fill="#92c01a"/><path d="M212.81,24.07l-25.1-13.65a2,2,0,0,1,.12-0.28l25.1,13.65a2,2,0,0,0-.12.28" transform="translate(0 0)" fill="#92c01a"/><path d="M212.94,23.79l-25.1-13.65L188,9.92l25.1,13.65-0.13.22" transform="translate(0 0)" fill="#92c01a"/><path d="M213.07,23.58L188,9.92l0.15-.19,25.1,13.65-0.15.19" transform="translate(0 0)" fill="#92c01a"/><path d="M213.22,23.39L188.12,9.74l0.17-.17,25.1,13.65-0.17.17" transform="translate(0 0)" fill="#92c01a"/><path d="M213.39,23.22L188.29,9.57l0.2-.16,25.1,13.65-0.2.16" transform="translate(0 0)" fill="#92c01a"/><path d="M213.58,23.06L188.49,9.41l0.26-.15,25.1,13.65-0.26.15" transform="translate(0 0)" fill="#92c01a"/><path d="M213.85,22.91L188.75,9.26a1.67,1.67,0,0,1,.47-0.14l25.1,13.65a1.66,1.66,0,0,0-.47.14" transform="translate(0 0)" fill="#92c01a"/></g></g></g><polygon points="180.69 82.5 155.59 68.85 165.47 67.46 190.56 81.11 180.69 82.5" fill="#92c01a"/><g style="isolation:isolate"><path d="M180.11,82.4L155,68.75a0.92,0.92,0,0,0,.58.1l25.1,13.65A0.93,0.93,0,0,1,180.11,82.4Z" transform="translate(0 0)" fill="#92c01a"/><g clip-path="url(#ad)"><g style="isolation:isolate"><path d="M180.11,82.4L155,68.75l0,0,25.1,13.65,0,0" transform="translate(0 0)" fill="#92c01a"/><path d="M180.14,82.42L155,68.77l0.17,0.06,25.1,13.65-0.17-.06" transform="translate(0 0)" fill="#92c01a"/><path d="M180.31,82.48l-25.1-13.65a1,1,0,0,0,.38,0l25.1,13.65a1,1,0,0,1-.38,0" transform="translate(0 0)" fill="#92c01a"/></g></g></g><g style="isolation:isolate"><path d="M155,68.75a1,1,0,0,1-.48-0.9l22.17,12.06,2.93,1.59a1,1,0,0,0,.49.9Z" transform="translate(0 0)" fill="#92c01a"/><g clip-path="url(#ae)"><g style="isolation:isolate"><path d="M180.11,82.4L155,68.75a1,1,0,0,1-.48-0.9l25.1,13.65a1,1,0,0,0,.49.9" transform="translate(0 0)" fill="#92c01a"/></g></g></g><g style="isolation:isolate"><path d="M179.81,83l-25.1-13.65a1.52,1.52,0,0,1-.76-1.38l25.1,13.65A1.52,1.52,0,0,0,179.81,83Z" transform="translate(0 0)" fill="#92c01a"/><g clip-path="url(#af)"><g style="isolation:isolate"><path d="M179.81,83l-25.1-13.65a1.52,1.52,0,0,1-.76-1.38l25.1,13.65a1.52,1.52,0,0,0,.76,1.38" transform="translate(0 0)" fill="#92c01a"/></g></g></g><polygon points="212.8 76.65 187.7 63 166.59 35.44 191.69 49.09 212.8 76.65" fill="#92c01a"/><polygon points="212.34 77.07 187.24 63.42 167.15 37.18 192.25 50.84 212.34 77.07" fill="#92c01a"/><polygon points="191.63 79.81 166.53 66.16 166.59 35.44 191.69 49.09 191.63 79.81" fill="#92c01a"/><polygon points="213.19 55.41 188.1 41.76 167.06 14.18 192.16 27.83 213.19 55.41" fill="#92c01a"/><g style="isolation:isolate"><path d="M166.12,13.29l25.1,13.65a3.41,3.41,0,0,1,.94.88l-25.1-13.65A3.4,3.4,0,0,0,166.12,13.29Z" transform="translate(0 0)" fill="#92c01a"/><g clip-path="url(#ag)"><g style="isolation:isolate"><path d="M192.16,27.83l-25.1-13.65a3.4,3.4,0,0,0-.94-0.88l25.1,13.65a3.41,3.41,0,0,1,.94.88" transform="translate(0 0)" fill="#92c01a"/></g></g></g><g style="isolation:isolate"><path d="M166.12,13.29l25.1,13.65A1.86,1.86,0,0,0,190,26.8l-25.1-13.65A1.87,1.87,0,0,1,166.12,13.29Z" transform="translate(0 0)" fill="#92c01a"/><g clip-path="url(#ah)"><g style="isolation:isolate"><path d="M190,26.8l-25.1-13.65a2.28,2.28,0,0,1,.89,0l25.1,13.65a2.27,2.27,0,0,0-.89,0" transform="translate(0 0)" fill="#92c01a"/><path d="M190.88,26.81l-25.1-13.65a1.45,1.45,0,0,1,.28.1l25.1,13.65a1.41,1.41,0,0,0-.28-0.1" transform="translate(0 0)" fill="#92c01a"/><path d="M191.16,26.91l-25.1-13.65,0.06,0,25.1,13.65-0.06,0" transform="translate(0 0)" fill="#92c01a"/></g></g></g><g style="isolation:isolate"><path d="M166.41,12.73l25.1,13.65a2.32,2.32,0,0,0-1.52-.2L164.9,12.54A2.32,2.32,0,0,1,166.41,12.73Z" transform="translate(0 0)" fill="#92c01a"/><g clip-path="url(#ai)"><g style="isolation:isolate"><path d="M190,26.19L164.9,12.54a2.76,2.76,0,0,1,1.09,0l25.1,13.65a2.76,2.76,0,0,0-1.09,0" transform="translate(0 0)" fill="#92c01a"/><path d="M191.08,26.21L166,12.56a1.91,1.91,0,0,1,.36.13l25.1,13.65a1.89,1.89,0,0,0-.36-0.13" transform="translate(0 0)" fill="#92c01a"/><path d="M191.44,26.35L166.34,12.7l0.07,0,25.1,13.65-0.07,0" transform="translate(0 0)" fill="#92c01a"/></g></g></g><polygon points="180.79 28.09 155.69 14.44 164.89 13.14 189.99 26.8 180.79 28.09" fill="#92c01a"/><polygon points="180.79 27.48 155.69 13.83 164.9 12.54 189.99 26.19 180.79 27.48" fill="#92c01a"/><polygon points="179.62 81.5 154.53 67.85 154.62 15.74 179.72 29.39 179.62 81.5" fill="#92c01a"/><g style="isolation:isolate"><path d="M154.62,15.74a1.31,1.31,0,0,1,1.07-1.3L177.85,26.5h0l2.93,1.6a1.31,1.31,0,0,0-1.07,1.3Z" transform="translate(0 0)" fill="#92c01a"/><g clip-path="url(#aj)"><g style="isolation:isolate"><path d="M179.72,29.39l-25.1-13.65a1.33,1.33,0,0,1,.08-0.47l25.1,13.65a1.35,1.35,0,0,0-.08.47" transform="translate(0 0)" fill="#92c01a"/><path d="M179.8,28.93l-25.1-13.65a1.27,1.27,0,0,1,.08-0.18l25.1,13.65a1.44,1.44,0,0,0-.08.18" transform="translate(0 0)" fill="#92c01a"/><path d="M179.88,28.75L154.79,15.1l0.08-.14L180,28.61l-0.08.14" transform="translate(0 0)" fill="#92c01a"/><path d="M180,28.61L154.87,15l0.09-.12,25.1,13.65-0.09.12" transform="translate(0 0)" fill="#92c01a"/><path d="M180.06,28.49L155,14.84l0.11-.11,25.1,13.65-0.11.11" transform="translate(0 0)" fill="#92c01a"/><path d="M180.17,28.39l-25.1-13.65,0.13-.1,25.1,13.65-0.13.1" transform="translate(0 0)" fill="#92c01a"/><path d="M180.29,28.29L155.2,14.63l0.17-.1,25.1,13.65-0.17.1" transform="translate(0 0)" fill="#92c01a"/><path d="M180.47,28.19l-25.1-13.65a1.11,1.11,0,0,1,.32-0.1l25.1,13.65a1.12,1.12,0,0,0-.32.09" transform="translate(0 0)" fill="#92c01a"/></g></g></g><polygon points="179.06 81.58 153.96 67.93 154.06 15.82 179.15 29.47 179.06 81.58" fill="#92c01a"/><path d="M224.2,21.38a1.44,1.44,0,0,1,1.62,1.53L225.73,75a2,2,0,0,1-1.63,2L215,78.29a2.29,2.29,0,0,1-2.63-1.22L192.25,50.84l-0.05,28.9a2,2,0,0,1-1.63,2l-9.88,1.39a1.44,1.44,0,0,1-1.63-1.53l0.1-52.11a2,2,0,0,1,1.64-2L190,26.19a2.46,2.46,0,0,1,2.61,1.2l20,26.26,0.05-28.89a2,2,0,0,1,1.63-2Zm1,53.72L225.26,23a0.93,0.93,0,0,0-1.06-1l-9.88,1.39a1.31,1.31,0,0,0-1.07,1.3l-0.06,30.73-21-27.58c-0.77-.95-1.21-1.16-2.17-1l-9.2,1.29a1.31,1.31,0,0,0-1.07,1.3l-0.1,52.11a0.93,0.93,0,0,0,1.06,1l9.88-1.39a1.31,1.31,0,0,0,1.07-1.3l0.06-30.73L212.8,76.65a1.84,1.84,0,0,0,2.17,1l9.13-1.28a1.3,1.3,0,0,0,1.07-1.3" transform="translate(0 0)" fill="#92c01a"/><g style="isolation:isolate"><path d="M179.15,29.47l-25.1-13.65a2,2,0,0,1,1.64-2l25.1,13.65A2,2,0,0,0,179.15,29.47Z" transform="translate(0 0)" fill="#92c01a"/><g clip-path="url(#ak)"><g style="isolation:isolate"><path d="M179.15,29.47l-25.1-13.65a2,2,0,0,1,.13-0.69l25.1,13.65a2,2,0,0,0-.13.69" transform="translate(0 0)" fill="#92c01a"/><path d="M179.28,28.79l-25.1-13.65a2.14,2.14,0,0,1,.12-0.28l25.1,13.65a2.12,2.12,0,0,0-.12.28" transform="translate(0 0)" fill="#92c01a"/><path d="M179.4,28.51L154.3,14.86l0.13-.22,25.1,13.65-0.13.22" transform="translate(0 0)" fill="#92c01a"/><path d="M179.54,28.29l-25.1-13.65,0.15-.19,25.1,13.65-0.15.19" transform="translate(0 0)" fill="#92c01a"/><path d="M179.68,28.11l-25.1-13.65,0.17-.17,25.1,13.65-0.17.17" transform="translate(0 0)" fill="#92c01a"/><path d="M179.85,27.94l-25.1-13.65,0.2-.16L180,27.78l-0.2.16" transform="translate(0 0)" fill="#92c01a"/><path d="M180,27.78L155,14.13a1.83,1.83,0,0,1,.27-0.15l25.1,13.65-0.26.15" transform="translate(0 0)" fill="#92c01a"/><path d="M180.31,27.63L155.22,14a1.68,1.68,0,0,1,.47-0.14l25.1,13.65a1.63,1.63,0,0,0-.47.14" transform="translate(0 0)" fill="#92c01a"/></g></g></g><g style="isolation:isolate"><path d="M173.12,83.56L148,69.91a0.87,0.87,0,0,0,.92-1,2.52,2.52,0,0,0-.1-0.64L173.94,82a2.51,2.51,0,0,1,.1.64A0.87,0.87,0,0,1,173.12,83.56Z" transform="translate(0 0)" fill="#92c01a"/><g clip-path="url(#al)"><g style="isolation:isolate"><path d="M173.12,83.56L148,69.91a1.61,1.61,0,0,0,.46-0.13l25.1,13.65a1.61,1.61,0,0,1-.46.13" transform="translate(0 0)" fill="#92c01a"/><path d="M173.58,83.44l-25.1-13.65,0.13-.08,25.1,13.65-0.13.08" transform="translate(0 0)" fill="#92c01a"/><path d="M173.71,83.36l-25.1-13.65,0.08-.06,25.1,13.65-0.08.06" transform="translate(0 0)" fill="#92c01a"/><path d="M173.79,83.3L148.7,69.65l0.06-.06,25.1,13.65-0.06.06" transform="translate(0 0)" fill="#92c01a"/><path d="M173.85,83.24l-25.1-13.65,0-.06,25.1,13.65,0,0.06" transform="translate(0 0)" fill="#92c01a"/><path d="M173.9,83.18L148.8,69.53l0-.07,25.1,13.65,0,0.07" transform="translate(0 0)" fill="#92c01a"/><path d="M173.94,83.11l-25.1-13.65,0-.09L174,83l0,0.1" transform="translate(0 0)" fill="#92c01a"/><path d="M174,83l-25.1-13.65a1.22,1.22,0,0,0,.06-0.41,2.52,2.52,0,0,0-.1-0.64L173.94,82a2.51,2.51,0,0,1,.1.64A1.2,1.2,0,0,1,174,83" transform="translate(0 0)" fill="#92c01a"/></g></g></g><polygon points="173.94 81.97 148.84 68.32 148.8 68.16 173.9 81.81 173.94 81.97" fill="#92c01a"/><polygon points="162.5 85.06 137.4 71.41 148.03 69.91 173.12 83.56 162.5 85.06" fill="#92c01a"/><g style="isolation:isolate"><path d="M161.21,84.91l-25.1-13.65a2.08,2.08,0,0,0,1.29.14l25.1,13.65A2.08,2.08,0,0,1,161.21,84.91Z" transform="translate(0 0)" fill="#92c01a"/><g clip-path="url(#am)"><g style="isolation:isolate"><path d="M161.21,84.91l-25.1-13.65,0,0,25.1,13.65,0,0" transform="translate(0 0)" fill="#92c01a"/><path d="M161.25,84.94l-25.1-13.65,0.26,0.1L161.52,85l-0.26-.1" transform="translate(0 0)" fill="#92c01a"/><path d="M161.52,85l-25.1-13.65a2.54,2.54,0,0,0,1,0l25.1,13.65a2.54,2.54,0,0,1-1,0" transform="translate(0 0)" fill="#92c01a"/></g></g></g><g style="isolation:isolate"><path d="M136.11,71.26a1.47,1.47,0,0,1-.68-1l25.1,13.65a1.46,1.46,0,0,0,.68,1Z" transform="translate(0 0)" fill="#92c01a"/><g clip-path="url(#an)"><g style="isolation:isolate"><path d="M161.21,84.91l-25.1-13.65a1.46,1.46,0,0,1-.68-1l25.1,13.65a1.47,1.47,0,0,0,.68,1" transform="translate(0 0)" fill="#92c01a"/></g></g></g><g style="isolation:isolate"><path d="M160.9,85.47L135.8,71.82a2,2,0,0,1-.92-1.29L160,84.18A2,2,0,0,0,160.9,85.47Z" transform="translate(0 0)" fill="#92c01a"/><g clip-path="url(#ao)"><g style="isolation:isolate"><path d="M160.9,85.47L135.8,71.82a2,2,0,0,1-.92-1.29L160,84.18a2,2,0,0,0,.92,1.29" transform="translate(0 0)" fill="#92c01a"/></g></g></g><polygon points="160.52 83.94 135.43 70.29 133.14 62.07 158.23 75.72 160.52 83.94" fill="#92c01a"/><polygon points="159.98 84.18 134.88 70.53 132.71 62.74 157.81 76.39 159.98 84.18" fill="#92c01a"/><g style="isolation:isolate"><path d="M137.8,88.53L112.7,74.88a2.1,2.1,0,0,0,2-1.67l25.1,13.65A2.1,2.1,0,0,1,137.8,88.53Z" transform="translate(0 0)" fill="#92c01a"/><g clip-path="url(#ap)"><g style="isolation:isolate"><path d="M137.8,88.53L112.7,74.88a3,3,0,0,0,.88-0.25l25.1,13.65a3,3,0,0,1-.88.24" transform="translate(0 0)" fill="#92c01a"/><path d="M138.67,88.28l-25.1-13.65a2.06,2.06,0,0,0,.29-0.16L139,88.12a2,2,0,0,1-.29.17" transform="translate(0 0)" fill="#92c01a"/><path d="M139,88.12l-25.1-13.65,0.18-.15L139.15,88l-0.19.14" transform="translate(0 0)" fill="#92c01a"/><path d="M139.15,88L114,74.32l0.15-.15,25.1,13.65-0.15.15" transform="translate(0 0)" fill="#92c01a"/><path d="M139.29,87.83l-25.1-13.65,0.13-.16,25.1,13.65-0.13.16" transform="translate(0 0)" fill="#92c01a"/><path d="M139.42,87.66L114.32,74l0.13-.21,25.1,13.65a2,2,0,0,1-.13.21" transform="translate(0 0)" fill="#92c01a"/><path d="M139.55,87.46L114.45,73.8a2.28,2.28,0,0,0,.14-0.31l25.1,13.65a2.42,2.42,0,0,1-.14.31" transform="translate(0 0)" fill="#92c01a"/><path d="M139.69,87.14l-25.1-13.65c0-.09.06-0.19,0.09-0.29l25.1,13.65q0,0.15-.09.29" transform="translate(0 0)" fill="#92c01a"/></g></g></g><polygon points="139.78 86.86 114.68 73.2 117.07 64.33 142.17 77.98 139.78 86.86" fill="#92c01a"/><polygon points="142.17 77.98 117.07 64.33 133.14 62.07 158.23 75.72 142.17 77.98" fill="#92c01a"/><polygon points="173.9 81.81 148.8 68.16 132.82 18.66 157.91 32.31 173.9 81.81" fill="#92c01a"/><polygon points="145.24 66.77 120.14 53.12 130.18 51.71 155.28 65.36 145.24 66.77" fill="#92c01a"/><polygon points="155.28 65.36 130.18 51.71 125.28 34.31 150.37 47.97 155.28 65.36" fill="#92c01a"/><polygon points="146 66.06 120.91 52.4 129.43 51.2 154.52 64.86 146 66.06" fill="#92c01a"/><polygon points="154.52 64.86 129.43 51.2 125.26 36.43 150.36 50.08 154.52 64.86" fill="#92c01a"/><polygon points="145.24 66.77 120.14 53.12 125.28 34.31 150.37 47.97 145.24 66.77" fill="#92c01a"/><polygon points="127.47 89.98 102.37 76.33 112.7 74.88 137.8 88.53 127.47 89.98" fill="#92c01a"/><g style="isolation:isolate"><path d="M101.73,76.27a1,1,0,0,0,.64.06L127.47,90a1,1,0,0,1-.64-0.06Z" transform="translate(0 0)" fill="#92c01a"/><g clip-path="url(#aq)"><g style="isolation:isolate"><path d="M126.83,89.92l-25.1-13.65h0l25.1,13.65h0" transform="translate(0 0)" fill="#92c01a"/><path d="M126.85,89.93l-25.1-13.65,0.12,0L127,90l-0.12,0" transform="translate(0 0)" fill="#92c01a"/><path d="M127,90l-25.1-13.65a1.3,1.3,0,0,0,.5,0L127.47,90a1.31,1.31,0,0,1-.5,0" transform="translate(0 0)" fill="#92c01a"/></g></g></g><g style="isolation:isolate"><path d="M132.2,17.79l25.1,13.65a1.35,1.35,0,0,1,.61.87l-25.1-13.65A1.34,1.34,0,0,0,132.2,17.79Z" transform="translate(0 0)" fill="#92c01a"/><g clip-path="url(#ar)"><g style="isolation:isolate"><path d="M157.91,32.31l-25.1-13.65a1.34,1.34,0,0,0-.61-0.87l25.1,13.65a1.35,1.35,0,0,1,.61.87" transform="translate(0 0)" fill="#92c01a"/></g></g></g><g style="isolation:isolate"><path d="M101.73,76.27a0.65,0.65,0,0,1-.27-0.64l25.1,13.65a0.65,0.65,0,0,0,.27.64Z" transform="translate(0 0)" fill="#92c01a"/><g clip-path="url(#as)"><g style="isolation:isolate"><path d="M126.83,89.92l-25.1-13.65a0.65,0.65,0,0,1-.27-0.64,2.63,2.63,0,0,1,.1-0.66l25.1,13.65a2.63,2.63,0,0,0-.1.67,0.65,0.65,0,0,0,.27.64" transform="translate(0 0)" fill="#92c01a"/></g></g></g><g style="isolation:isolate"><path d="M101.46,75.63a2.63,2.63,0,0,1,.1-0.66l25.1,13.65a2.63,2.63,0,0,0-.1.67Z" transform="translate(0 0)" fill="#92c01a"/><g clip-path="url(#at)"><g style="isolation:isolate"><path d="M126.83,89.92l-25.1-13.65a0.65,0.65,0,0,1-.27-0.64,2.63,2.63,0,0,1,.1-0.66l25.1,13.65a2.63,2.63,0,0,0-.1.67,0.65,0.65,0,0,0,.27.64" transform="translate(0 0)" fill="#92c01a"/></g></g></g><g style="isolation:isolate"><path d="M132.2,17.79l25.1,13.65a2,2,0,0,0-1.21-.12L131,17.67A2,2,0,0,1,132.2,17.79Z" transform="translate(0 0)" fill="#92c01a"/><g clip-path="url(#au)"><g style="isolation:isolate"><path d="M156.09,31.32L131,17.67a2.44,2.44,0,0,1,.94,0L157,31.34a2.45,2.45,0,0,0-.94,0" transform="translate(0 0)" fill="#92c01a"/><path d="M157,31.34l-25.1-13.65,0.23,0.09,25.1,13.65L157,31.34" transform="translate(0 0)" fill="#92c01a"/><path d="M157.26,31.42l-25.1-13.65,0,0,25.1,13.65,0,0" transform="translate(0 0)" fill="#92c01a"/></g></g></g><polygon points="145.01 32.88 119.91 19.23 130.99 17.67 156.09 31.32 145.01 32.88" fill="#92c01a"/><polygon points="126.66 88.62 101.56 74.97 118.08 20.72 143.18 34.38 126.66 88.62" fill="#92c01a"/><g style="isolation:isolate"><path d="M143.18,34.38l-25.1-13.65a1.9,1.9,0,0,1,1.83-1.5L145,32.88A1.91,1.91,0,0,0,143.18,34.38Z" transform="translate(0 0)" fill="#92c01a"/><g clip-path="url(#av)"><g style="isolation:isolate"><path d="M143.18,34.38l-25.1-13.65c0-.08,0-0.16.07-0.23l25.1,13.65-0.07.23" transform="translate(0 0)" fill="#92c01a"/><path d="M143.25,34.14l-25.1-13.65a2.21,2.21,0,0,1,.13-0.3l25.1,13.65a2.3,2.3,0,0,0-.13.3" transform="translate(0 0)" fill="#92c01a"/><path d="M143.38,33.85L118.29,20.2,118.4,20l25.1,13.65-0.12.19" transform="translate(0 0)" fill="#92c01a"/><path d="M143.5,33.66L118.4,20l0.11-.15,25.1,13.65-0.11.15" transform="translate(0 0)" fill="#92c01a"/><path d="M143.61,33.52l-25.1-13.65,0.13-.13,25.1,13.65-0.13.13" transform="translate(0 0)" fill="#92c01a"/><path d="M143.74,33.39l-25.1-13.65,0.16-.13,25.1,13.65-0.16.13" transform="translate(0 0)" fill="#92c01a"/><path d="M143.9,33.26L118.8,19.61a1.77,1.77,0,0,1,.26-0.15l25.1,13.65-0.26.15" transform="translate(0 0)" fill="#92c01a"/><path d="M144.16,33.11l-25.1-13.65a3,3,0,0,1,.85-0.23L145,32.88a3,3,0,0,0-.85.23" transform="translate(0 0)" fill="#92c01a"/></g></g></g><path d="M174.48,81.74a2.93,2.93,0,0,1,.12.79,1.55,1.55,0,0,1-1.48,1.64L162.5,85.66A2,2,0,0,1,160,84.18l-2.17-7.79-15.22,2.14L140.31,87a2.75,2.75,0,0,1-2.52,2.19l-10.33,1.45A1.13,1.13,0,0,1,126,89.36a3.55,3.55,0,0,1,.12-0.83l16.54-54.27a2.56,2.56,0,0,1,2.37-2l11.08-1.56a1.85,1.85,0,0,1,2.36,1.34l16,49.52Zm-1.36,1.83a0.87,0.87,0,0,0,.92-1,2.51,2.51,0,0,0-.1-0.64l0-.16-16-49.5a1.38,1.38,0,0,0-1.83-1L145,32.88a1.91,1.91,0,0,0-1.83,1.5L126.69,88.47a3.39,3.39,0,0,0-.13.81c0,0.41.1,0.81,0.91,0.7l10.33-1.45a2.1,2.1,0,0,0,2-1.67L142.17,78l16.06-2.26,2.29,8.22a1.51,1.51,0,0,0,2,1.12l10.62-1.49" transform="translate(0 0)" fill="#92c01a"/><path d="M145.24,66.77L150.37,48l4.9,17.39Zm0.76-.71,8.52-1.2-4.16-14.77-4.36,16" transform="translate(0 0)" fill="#92c01a"/><g style="isolation:isolate"><path d="M126.52,90.47l-25.1-13.65a1.2,1.2,0,0,1-.53-1.11,3.56,3.56,0,0,1,.12-0.83l25.1,13.65a3.55,3.55,0,0,0-.12.83A1.2,1.2,0,0,0,126.52,90.47Z" transform="translate(0 0)" fill="#92c01a"/><g clip-path="url(#aw)"><g style="isolation:isolate"><path d="M126.52,90.47l-25.1-13.65a1.2,1.2,0,0,1-.53-1.11,3.56,3.56,0,0,1,.12-0.83l25.1,13.65a3.55,3.55,0,0,0-.12.83,1.2,1.2,0,0,0,.53,1.11" transform="translate(0 0)" fill="#92c01a"/></g></g></g><g style="isolation:isolate"><path d="M132.51,17.24l25.1,13.65a2.44,2.44,0,0,0-1.52-.18L131,17.06A2.44,2.44,0,0,1,132.51,17.24Z" transform="translate(0 0)" fill="#92c01a"/><g clip-path="url(#ax)"><g style="isolation:isolate"><path d="M156.09,30.71L131,17.06a3,3,0,0,1,1.14,0l25.1,13.65a2.93,2.93,0,0,0-1.14,0" transform="translate(0 0)" fill="#92c01a"/><path d="M157.23,30.74l-25.1-13.65a1.74,1.74,0,0,1,.33.12l25.1,13.65a1.69,1.69,0,0,0-.33-0.12" transform="translate(0 0)" fill="#92c01a"/><path d="M157.55,30.86l-25.1-13.65,0.06,0,25.1,13.65-0.06,0" transform="translate(0 0)" fill="#92c01a"/></g></g></g><polygon points="145.01 32.27 119.91 18.62 130.99 17.06 156.09 30.71 145.01 32.27" fill="#92c01a"/><polygon points="126.11 88.53 101.01 74.88 117.55 20.61 142.65 34.26 126.11 88.53" fill="#92c01a"/><g style="isolation:isolate"><path d="M142.65,34.26l-25.1-13.65a2.56,2.56,0,0,1,2.37-2L145,32.27A2.56,2.56,0,0,0,142.65,34.26Z" transform="translate(0 0)" fill="#92c01a"/><g clip-path="url(#ay)"><g style="isolation:isolate"><path d="M142.65,34.26l-25.1-13.65c0-.1.06-0.2,0.09-0.29L142.74,34c0,0.09-.06.19-0.09,0.29" transform="translate(0 0)" fill="#92c01a"/><path d="M142.74,34l-25.1-13.65a3.06,3.06,0,0,1,.17-0.39l25.1,13.65a3,3,0,0,0-.17.39" transform="translate(0 0)" fill="#92c01a"/><path d="M142.91,33.59l-25.1-13.65a2.55,2.55,0,0,1,.16-0.26l25.1,13.65a2.55,2.55,0,0,0-.16.26" transform="translate(0 0)" fill="#92c01a"/><path d="M143.07,33.33L118,19.68l0.16-.2,25.1,13.65-0.16.2" transform="translate(0 0)" fill="#92c01a"/><path d="M143.23,33.13l-25.1-13.65,0.18-.18,25.1,13.65-0.18.18" transform="translate(0 0)" fill="#92c01a"/><path d="M143.41,32.94l-25.1-13.65,0.23-.18,25.1,13.65-0.23.18" transform="translate(0 0)" fill="#92c01a"/><path d="M143.64,32.76l-25.1-13.65a2.52,2.52,0,0,1,.35-0.2L144,32.56a2.42,2.42,0,0,0-.35.2" transform="translate(0 0)" fill="#92c01a"/><path d="M144,32.56l-25.1-13.65a3.55,3.55,0,0,1,1-.29L145,32.27a3.55,3.55,0,0,0-1,.29" transform="translate(0 0)" fill="#92c01a"/></g></g></g><g style="isolation:isolate"><path d="M119.91,91L94.81,77.39a1.3,1.3,0,0,0,1.07-1.3L121,89.74A1.3,1.3,0,0,1,119.91,91Z" transform="translate(0 0)" fill="#92c01a"/><g clip-path="url(#az)"><g style="isolation:isolate"><path d="M119.91,91L94.81,77.39a1.13,1.13,0,0,0,.32-0.1l25.1,13.65a1.14,1.14,0,0,1-.32.1" transform="translate(0 0)" fill="#92c01a"/><path d="M120.23,90.95L95.13,77.29l0.17-.1,25.1,13.65-0.17.1" transform="translate(0 0)" fill="#92c01a"/><path d="M120.4,90.85L95.31,77.19l0.13-.1,25.1,13.65-0.13.1" transform="translate(0 0)" fill="#92c01a"/><path d="M120.53,90.75L95.43,77.1,95.54,77l25.1,13.65-0.11.11" transform="translate(0 0)" fill="#92c01a"/><path d="M120.63,90.64L95.54,77l0.09-.12,25.1,13.65-0.09.12" transform="translate(0 0)" fill="#92c01a"/><path d="M120.73,90.52L95.63,76.87l0.08-.14,25.1,13.65-0.09.14" transform="translate(0 0)" fill="#92c01a"/><path d="M120.81,90.39L95.71,76.73a1.36,1.36,0,0,0,.08-0.18l25.1,13.65a1.35,1.35,0,0,1-.08.18" transform="translate(0 0)" fill="#92c01a"/><path d="M120.89,90.21L95.79,76.56a1.34,1.34,0,0,0,.08-0.46L121,89.74a1.34,1.34,0,0,1-.08.46" transform="translate(0 0)" fill="#92c01a"/></g></g></g><polygon points="109.43 92.52 84.33 78.86 94.81 77.39 119.91 91.04 109.43 92.52" fill="#92c01a"/><g style="isolation:isolate"><path d="M108.85,92.42L83.75,78.77a0.93,0.93,0,0,0,.58.1l25.1,13.65A0.93,0.93,0,0,1,108.85,92.42Z" transform="translate(0 0)" fill="#92c01a"/><g clip-path="url(#ba)"><g style="isolation:isolate"><path d="M108.85,92.42L83.75,78.77l0,0,25.1,13.65,0,0" transform="translate(0 0)" fill="#92c01a"/><path d="M108.88,92.43L83.79,78.78,84,78.84l25.1,13.65-0.17-.06" transform="translate(0 0)" fill="#92c01a"/><path d="M109.05,92.5L84,78.84a1,1,0,0,0,.38,0l25.1,13.65a1,1,0,0,1-.38,0" transform="translate(0 0)" fill="#92c01a"/></g></g></g><g style="isolation:isolate"><path d="M83.75,78.77a1,1,0,0,1-.49-0.9l22.17,12.06,2.93,1.59a1,1,0,0,0,.49.9Z" transform="translate(0 0)" fill="#92c01a"/><g clip-path="url(#bb)"><g style="isolation:isolate"><path d="M108.85,92.42L83.75,78.77a1,1,0,0,1-.49-0.9l25.1,13.65a1,1,0,0,0,.49.9" transform="translate(0 0)" fill="#92c01a"/></g></g></g><g style="isolation:isolate"><path d="M108.56,93L83.46,79.32a1.52,1.52,0,0,1-.76-1.38L107.8,91.6A1.52,1.52,0,0,0,108.56,93Z" transform="translate(0 0)" fill="#92c01a"/><g clip-path="url(#bc)"><g style="isolation:isolate"><path d="M108.56,93L83.46,79.32a1.52,1.52,0,0,1-.76-1.38L107.8,91.6a1.52,1.52,0,0,0,.76,1.38" transform="translate(0 0)" fill="#92c01a"/></g></g></g><polygon points="120.97 89.74 95.88 76.09 95.97 23.98 121.07 37.64 120.97 89.74" fill="#92c01a"/><polygon points="108.36 91.52 83.27 77.86 83.3 57.6 108.4 71.26 108.36 91.52" fill="#92c01a"/><polygon points="107.8 91.6 82.7 77.94 82.74 58.29 107.84 71.94 107.8 91.6" fill="#92c01a"/><g style="isolation:isolate"><path d="M95.49,23.08l25.1,13.65a1,1,0,0,1,.49.91L96,24A1,1,0,0,0,95.49,23.08Z" transform="translate(0 0)" fill="#92c01a"/><g clip-path="url(#bd)"><g style="isolation:isolate"><path d="M121.07,37.64L96,24a1,1,0,0,0-.49-0.91l25.1,13.65a1,1,0,0,1,.49.91" transform="translate(0 0)" fill="#92c01a"/></g></g></g><g style="isolation:isolate"><path d="M94.91,23a0.93,0.93,0,0,1,.57.1l25.1,13.65a0.92,0.92,0,0,0-.57-0.1Z" transform="translate(0 0)" fill="#92c01a"/><g clip-path="url(#be)"><g style="isolation:isolate"><path d="M120,36.63L94.91,23a1,1,0,0,1,.38,0l25.1,13.65a1,1,0,0,0-.38,0" transform="translate(0 0)" fill="#92c01a"/><path d="M120.38,36.65L95.29,23l0.17,0.06,25.1,13.65-0.17-.06" transform="translate(0 0)" fill="#92c01a"/><path d="M120.55,36.71L95.45,23.06l0,0,25.1,13.65,0,0" transform="translate(0 0)" fill="#92c01a"/></g></g></g><g style="isolation:isolate"><path d="M95.78,22.52l25.1,13.65A1.39,1.39,0,0,0,120,36L94.91,22.37A1.39,1.39,0,0,1,95.78,22.52Z" transform="translate(0 0)" fill="#92c01a"/><g clip-path="url(#bf)"><g style="isolation:isolate"><path d="M120,36L94.91,22.37a1.44,1.44,0,0,1,.56,0l25.1,13.65a1.43,1.43,0,0,0-.56,0" transform="translate(0 0)" fill="#92c01a"/><path d="M120.57,36.05L95.47,22.4l0.26,0.09,25.1,13.65-0.26-.1" transform="translate(0 0)" fill="#92c01a"/><path d="M120.83,36.15L95.73,22.5l0,0,25.1,13.65,0,0" transform="translate(0 0)" fill="#92c01a"/></g></g></g><g style="isolation:isolate"><path d="M87.27,95.63L62.18,82a1.3,1.3,0,0,0,1.07-1.3l25.1,13.65A1.3,1.3,0,0,1,87.27,95.63Z" transform="translate(0 0)" fill="#92c01a"/><g clip-path="url(#bg)"><g style="isolation:isolate"><path d="M87.27,95.63L62.18,82a1.13,1.13,0,0,0,.32-0.1L87.6,95.53a1.11,1.11,0,0,1-.32.1" transform="translate(0 0)" fill="#92c01a"/><path d="M87.6,95.53L62.5,81.88l0.17-.1,25.1,13.65-0.17.1" transform="translate(0 0)" fill="#92c01a"/><path d="M87.77,95.43L62.67,81.78l0.13-.1,25.1,13.65-0.13.1" transform="translate(0 0)" fill="#92c01a"/><path d="M87.89,95.33L62.8,81.68l0.11-.11L88,95.23l-0.11.11" transform="translate(0 0)" fill="#92c01a"/><path d="M88,95.23L62.9,81.58,63,81.46l25.1,13.65L88,95.23" transform="translate(0 0)" fill="#92c01a"/><path d="M88.09,95.11L63,81.46l0.08-.14L88.18,95l-0.09.14" transform="translate(0 0)" fill="#92c01a"/><path d="M88.18,95L63.08,81.32a1.35,1.35,0,0,0,.08-0.18L88.26,94.8a1.4,1.4,0,0,1-.08.18" transform="translate(0 0)" fill="#92c01a"/><path d="M88.26,94.8L63.16,81.14a1.36,1.36,0,0,0,.08-0.46l25.1,13.65a1.37,1.37,0,0,1-.08.47" transform="translate(0 0)" fill="#92c01a"/></g></g></g><polygon points="109.53 38.11 84.43 24.45 94.91 22.98 120.01 36.63 109.53 38.11" fill="#92c01a"/><polygon points="109.53 37.5 84.44 23.85 94.91 22.37 120.01 36.03 109.53 37.5" fill="#92c01a"/><polygon points="108.42 59.26 83.33 45.61 83.36 25.76 108.46 39.41 108.42 59.26" fill="#92c01a"/><polygon points="76.8 97.1 51.7 83.45 62.18 81.98 87.27 95.63 76.8 97.1" fill="#92c01a"/><g style="isolation:isolate"><path d="M83.36,25.76a1.31,1.31,0,0,1,1.07-1.3l25.1,13.65a1.31,1.31,0,0,0-1.07,1.3Z" transform="translate(0 0)" fill="#92c01a"/><g clip-path="url(#bh)"><g style="isolation:isolate"><path d="M108.46,39.41L83.36,25.76a1.36,1.36,0,0,1,.08-0.46l25.1,13.65a1.36,1.36,0,0,0-.08.46" transform="translate(0 0)" fill="#92c01a"/><path d="M108.54,38.95L83.45,25.29a1.35,1.35,0,0,1,.08-0.18l25.1,13.65a1.39,1.39,0,0,0-.08.18" transform="translate(0 0)" fill="#92c01a"/><path d="M108.62,38.77L83.53,25.12,83.61,25l25.1,13.65-0.09.14" transform="translate(0 0)" fill="#92c01a"/><path d="M108.71,38.63L83.61,25l0.09-.12,25.1,13.65-0.09.12" transform="translate(0 0)" fill="#92c01a"/><path d="M108.8,38.51L83.71,24.86l0.11-.11,25.1,13.65-0.11.11" transform="translate(0 0)" fill="#92c01a"/><path d="M108.91,38.4L83.81,24.75l0.13-.1L109,38.3l-0.13.1" transform="translate(0 0)" fill="#92c01a"/><path d="M109,38.3L83.94,24.65l0.17-.1,25.1,13.65-0.17.1" transform="translate(0 0)" fill="#92c01a"/><path d="M109.21,38.2L84.11,24.55a1.14,1.14,0,0,1,.32-0.1l25.1,13.65a1.08,1.08,0,0,0-.32.1" transform="translate(0 0)" fill="#92c01a"/></g></g></g><polygon points="107.86 58.74 82.76 45.08 82.8 25.84 107.9 39.49 107.86 58.74" fill="#92c01a"/><g style="isolation:isolate"><path d="M76.22,97L51.12,83.35a0.93,0.93,0,0,0,.58.1L76.8,97.1A0.93,0.93,0,0,1,76.22,97Z" transform="translate(0 0)" fill="#92c01a"/><g clip-path="url(#bi)"><g style="isolation:isolate"><path d="M76.22,97L51.12,83.35l0,0L76.25,97l0,0" transform="translate(0 0)" fill="#92c01a"/><path d="M76.25,97L51.15,83.37l0.17,0.06,25.1,13.65L76.25,97" transform="translate(0 0)" fill="#92c01a"/><path d="M76.42,97.08L51.32,83.43a1,1,0,0,0,.38,0L76.8,97.1a1,1,0,0,1-.38,0" transform="translate(0 0)" fill="#92c01a"/></g></g></g><g style="isolation:isolate"><path d="M107.9,39.49L82.8,25.84a2,2,0,0,1,1.64-2l25.1,13.65A2,2,0,0,0,107.9,39.49Z" transform="translate(0 0)" fill="#92c01a"/><g clip-path="url(#bj)"><g style="isolation:isolate"><path d="M107.9,39.49L82.8,25.84a2,2,0,0,1,.13-0.69L108,38.8a2,2,0,0,0-.13.69" transform="translate(0 0)" fill="#92c01a"/><path d="M108,38.8L82.93,25.14A2,2,0,0,1,83,24.87l25.1,13.65a2.13,2.13,0,0,0-.12.28" transform="translate(0 0)" fill="#92c01a"/><path d="M108.15,38.52L83,24.87l0.13-.22,25.1,13.65-0.13.22" transform="translate(0 0)" fill="#92c01a"/><path d="M108.28,38.31L83.18,24.65l0.15-.19,25.1,13.65-0.15.19" transform="translate(0 0)" fill="#92c01a"/><path d="M108.43,38.12L83.33,24.47l0.17-.17L108.59,38l-0.17.17" transform="translate(0 0)" fill="#92c01a"/><path d="M108.59,38L83.5,24.3l0.2-.16,25.1,13.65-0.2.16" transform="translate(0 0)" fill="#92c01a"/><path d="M108.79,37.79L83.69,24.14A1.83,1.83,0,0,1,84,24l25.1,13.65-0.26.15" transform="translate(0 0)" fill="#92c01a"/><path d="M109.06,37.64L84,24a1.66,1.66,0,0,1,.48-0.14l25.1,13.65a1.69,1.69,0,0,0-.48.14" transform="translate(0 0)" fill="#92c01a"/></g></g></g><polygon points="88.34 94.33 63.24 80.68 63.28 60.42 88.38 74.07 88.34 94.33" fill="#92c01a"/><polygon points="88.38 74.07 63.28 60.42 83.3 57.6 108.4 71.26 88.38 74.07" fill="#92c01a"/><g style="isolation:isolate"><path d="M76.22,97L51.12,83.35a1,1,0,0,1-.49-0.9L75.73,96.1A1,1,0,0,0,76.22,97Z" transform="translate(0 0)" fill="#92c01a"/><g clip-path="url(#bk)"><g style="isolation:isolate"><path d="M76.22,97L51.12,83.35a1,1,0,0,1-.49-0.9L75.73,96.1a1,1,0,0,0,.49.9" transform="translate(0 0)" fill="#92c01a"/></g></g></g><g style="isolation:isolate"><path d="M75.92,97.56L50.83,83.91a1.52,1.52,0,0,1-.76-1.38l25.1,13.65A1.52,1.52,0,0,0,75.92,97.56Z" transform="translate(0 0)" fill="#92c01a"/><g clip-path="url(#bl)"><g style="isolation:isolate"><path d="M75.92,97.56L50.83,83.91a1.52,1.52,0,0,1-.76-1.38l25.1,13.65a1.52,1.52,0,0,0,.76,1.38" transform="translate(0 0)" fill="#92c01a"/></g></g></g><polygon points="88.4 62.08 63.3 48.43 83.33 45.61 108.42 59.26 88.4 62.08" fill="#92c01a"/><polygon points="88.96 61.39 63.87 47.74 82.76 45.08 107.86 58.74 88.96 61.39" fill="#92c01a"/><polygon points="88.4 62.08 63.3 48.43 63.34 28.57 88.44 42.22 88.4 62.08" fill="#92c01a"/><g style="isolation:isolate"><path d="M62.85,27.66l25.1,13.65a1,1,0,0,1,.49.91L63.34,28.57A1,1,0,0,0,62.85,27.66Z" transform="translate(0 0)" fill="#92c01a"/><g clip-path="url(#bm)"><g style="isolation:isolate"><path d="M88.44,42.22L63.34,28.57a1,1,0,0,0-.49-0.91l25.1,13.65a1,1,0,0,1,.49.91" transform="translate(0 0)" fill="#92c01a"/></g></g></g><g style="isolation:isolate"><path d="M62.28,27.57a0.91,0.91,0,0,1,.57.1l25.1,13.65a0.91,0.91,0,0,0-.57-0.1Z" transform="translate(0 0)" fill="#92c01a"/><g clip-path="url(#bn)"><g style="isolation:isolate"><path d="M87.38,41.22L62.28,27.57a1,1,0,0,1,.38,0l25.1,13.65a1,1,0,0,0-.38,0" transform="translate(0 0)" fill="#92c01a"/><path d="M87.75,41.24L62.65,27.59l0.17,0.06L87.92,41.3l-0.17-.06" transform="translate(0 0)" fill="#92c01a"/><path d="M87.92,41.3L62.82,27.65l0,0,25.1,13.65,0,0" transform="translate(0 0)" fill="#92c01a"/></g></g></g><g style="isolation:isolate"><path d="M63.14,27.11l25.1,13.65a1.39,1.39,0,0,0-.86-0.15L62.28,27A1.39,1.39,0,0,1,63.14,27.11Z" transform="translate(0 0)" fill="#92c01a"/><g clip-path="url(#bo)"><g style="isolation:isolate"><path d="M87.38,40.61L62.28,27a1.43,1.43,0,0,1,.56,0l25.1,13.65a1.44,1.44,0,0,0-.56,0" transform="translate(0 0)" fill="#92c01a"/><path d="M87.93,40.64L62.84,27a1.36,1.36,0,0,1,.26.09l25.1,13.65a1.36,1.36,0,0,0-.26-0.1" transform="translate(0 0)" fill="#92c01a"/><path d="M88.19,40.74L63.09,27.08l0,0,25.1,13.65,0,0" transform="translate(0 0)" fill="#92c01a"/></g></g></g><polygon points="76.9 42.69 51.8 29.04 62.28 27.57 87.38 41.22 76.9 42.69" fill="#92c01a"/><polygon points="76.9 42.09 51.8 28.43 62.28 26.96 87.38 40.61 76.9 42.09" fill="#92c01a"/><polygon points="75.73 96.1 50.63 82.45 50.73 30.34 75.83 44 75.73 96.1" fill="#92c01a"/><g style="isolation:isolate"><path d="M75.83,44L50.73,30.34A1.31,1.31,0,0,1,51.8,29L76.9,42.69A1.31,1.31,0,0,0,75.83,44Z" transform="translate(0 0)" fill="#92c01a"/><g clip-path="url(#bp)"><g style="isolation:isolate"><path d="M75.83,44L50.73,30.34a1.34,1.34,0,0,1,.08-0.46l25.1,13.65a1.34,1.34,0,0,0-.08.46" transform="translate(0 0)" fill="#92c01a"/><path d="M75.91,43.53L50.81,29.88a1.52,1.52,0,0,1,.08-0.18L76,43.36a1.4,1.4,0,0,0-.08.18" transform="translate(0 0)" fill="#92c01a"/><path d="M76,43.36L50.89,29.7,51,29.56l25.1,13.65L76,43.36" transform="translate(0 0)" fill="#92c01a"/><path d="M76.07,43.22L51,29.56l0.09-.12L76.17,43.1l-0.09.12" transform="translate(0 0)" fill="#92c01a"/><path d="M76.17,43.1L51.07,29.44l0.11-.11L76.28,43l-0.11.11" transform="translate(0 0)" fill="#92c01a"/><path d="M76.28,43L51.18,29.34l0.13-.1L76.4,42.89l-0.13.1" transform="translate(0 0)" fill="#92c01a"/><path d="M76.4,42.89L51.31,29.24l0.17-.1,25.1,13.65-0.17.1" transform="translate(0 0)" fill="#92c01a"/><path d="M76.58,42.79L51.48,29.14A1.12,1.12,0,0,1,51.8,29L76.9,42.69a1.13,1.13,0,0,0-.32.1" transform="translate(0 0)" fill="#92c01a"/></g></g></g><path d="M120,36a1.44,1.44,0,0,1,1.62,1.53l-0.1,52.11a2,2,0,0,1-1.63,2l-10.48,1.47a1.44,1.44,0,0,1-1.63-1.53l0-19.65L88.94,74.6l0,19.65a2,2,0,0,1-1.63,2L76.8,97.71a1.44,1.44,0,0,1-1.63-1.53l0.1-52.11a2,2,0,0,1,1.64-2l10.48-1.47A1.44,1.44,0,0,1,89,42.14l0,19.25,18.9-2.66,0-19.25a2,2,0,0,1,1.64-2Zm1,53.72,0.1-52.11a0.93,0.93,0,0,0-1.06-1l-10.48,1.47a1.31,1.31,0,0,0-1.07,1.3l0,19.85-20,2.81,0-19.85a0.93,0.93,0,0,0-1.06-1L76.9,42.69A1.31,1.31,0,0,0,75.83,44L75.73,96.1a0.93,0.93,0,0,0,1.07,1l10.48-1.47a1.3,1.3,0,0,0,1.07-1.3l0-20.26,20-2.81,0,20.26a0.93,0.93,0,0,0,1.07,1L119.91,91a1.3,1.3,0,0,0,1.07-1.3" transform="translate(0 0)" fill="#92c01a"/><polygon points="75.17 96.18 50.07 82.53 50.17 30.42 75.26 44.08 75.17 96.18" fill="#92c01a"/><g style="isolation:isolate"><path d="M75.26,44.08L50.17,30.42a2,2,0,0,1,1.63-2L76.9,42.08A2,2,0,0,0,75.26,44.08Z" transform="translate(0 0)" fill="#92c01a"/><g clip-path="url(#bq)"><g style="isolation:isolate"><path d="M75.26,44.08L50.17,30.42a2,2,0,0,1,.12-0.69l25.1,13.65a2,2,0,0,0-.12.69" transform="translate(0 0)" fill="#92c01a"/><path d="M75.39,43.39L50.29,29.73a2.17,2.17,0,0,1,.12-0.28l25.1,13.65a2.16,2.16,0,0,0-.12.28" transform="translate(0 0)" fill="#92c01a"/><path d="M75.51,43.11L50.41,29.46l0.13-.22,25.1,13.65-0.13.22" transform="translate(0 0)" fill="#92c01a"/><path d="M75.65,42.89L50.55,29.24l0.15-.19,25.1,13.65-0.15.19" transform="translate(0 0)" fill="#92c01a"/><path d="M75.79,42.71L50.7,29.05l0.17-.17L76,42.54l-0.17.17" transform="translate(0 0)" fill="#92c01a"/><path d="M76,42.54L50.86,28.88l0.2-.16,25.1,13.65-0.2.16" transform="translate(0 0)" fill="#92c01a"/><path d="M76.16,42.38L51.06,28.73a1.85,1.85,0,0,1,.27-0.15l25.1,13.65a1.8,1.8,0,0,0-.27.15" transform="translate(0 0)" fill="#92c01a"/><path d="M76.43,42.23L51.33,28.57a1.67,1.67,0,0,1,.47-0.14L76.9,42.08a1.65,1.65,0,0,0-.47.14" transform="translate(0 0)" fill="#92c01a"/></g></g></g><g style="isolation:isolate"><path d="M52.85,100.47L27.75,86.82a1.31,1.31,0,0,0,1.07-1.3l25.1,13.65A1.31,1.31,0,0,1,52.85,100.47Z" transform="translate(0 0)" fill="#92c01a"/><g clip-path="url(#br)"><g style="isolation:isolate"><path d="M52.85,100.47L27.75,86.82a1.16,1.16,0,0,0,.32-0.1l25.1,13.65a1.11,1.11,0,0,1-.32.1" transform="translate(0 0)" fill="#92c01a"/><path d="M53.16,100.37L28.07,86.72l0.17-.1,25.1,13.65-0.17.1" transform="translate(0 0)" fill="#92c01a"/><path d="M53.34,100.27L28.24,86.62l0.13-.1,25.1,13.65-0.13.1" transform="translate(0 0)" fill="#92c01a"/><path d="M53.46,100.17L28.37,86.52l0.11-.11,25.1,13.65-0.11.11" transform="translate(0 0)" fill="#92c01a"/><path d="M53.57,100.07L28.47,86.41l0.09-.12,25.1,13.65-0.09.12" transform="translate(0 0)" fill="#92c01a"/><path d="M53.66,99.95L28.57,86.29l0.09-.14,25.1,13.65-0.09.14" transform="translate(0 0)" fill="#92c01a"/><path d="M53.75,99.81L28.65,86.16A1.47,1.47,0,0,0,28.73,86l25.1,13.65a1.28,1.28,0,0,1-.08.18" transform="translate(0 0)" fill="#92c01a"/><path d="M53.83,99.63L28.73,86a1.35,1.35,0,0,0,.08-0.46l25.1,13.65a1.33,1.33,0,0,1-.08.46" transform="translate(0 0)" fill="#92c01a"/></g></g></g><g style="isolation:isolate"><path d="M68.64,55.85L43.54,42.19a1.31,1.31,0,0,0,1.07-1.3l25.1,13.65A1.31,1.31,0,0,1,68.64,55.85Z" transform="translate(0 0)" fill="#92c01a"/><g clip-path="url(#bs)"><g style="isolation:isolate"><path d="M68.64,55.85L43.54,42.19a1.13,1.13,0,0,0,.32-0.1L69,55.75a1.13,1.13,0,0,1-.32.1" transform="translate(0 0)" fill="#92c01a"/><path d="M69,55.75L43.86,42.1,44,42l25.1,13.65-0.17.1" transform="translate(0 0)" fill="#92c01a"/><path d="M69.14,55.65L44,42l0.13-.1,25.1,13.65-0.13.1" transform="translate(0 0)" fill="#92c01a"/><path d="M69.26,55.55L44.17,41.9l0.11-.11,25.1,13.65-0.11.11" transform="translate(0 0)" fill="#92c01a"/><path d="M69.37,55.44L44.27,41.79l0.09-.12,25.1,13.65-0.09.12" transform="translate(0 0)" fill="#92c01a"/><path d="M69.46,55.32L44.37,41.67l0.09-.14,25.1,13.65-0.08.14" transform="translate(0 0)" fill="#92c01a"/><path d="M69.55,55.19L44.45,41.53a1.37,1.37,0,0,0,.08-0.18L69.63,55a1.23,1.23,0,0,1-.08.18" transform="translate(0 0)" fill="#92c01a"/><path d="M69.63,55L44.53,41.36a1.33,1.33,0,0,0,.08-0.46l25.1,13.65a1.34,1.34,0,0,1-.08.46" transform="translate(0 0)" fill="#92c01a"/></g></g></g><polygon points="42.36 101.94 17.27 88.29 27.75 86.82 52.84 100.47 42.36 101.94" fill="#92c01a"/><g style="isolation:isolate"><path d="M41.79,101.84L16.69,88.19a0.93,0.93,0,0,0,.58.1l25.1,13.65A0.92,0.92,0,0,1,41.79,101.84Z" transform="translate(0 0)" fill="#92c01a"/><g clip-path="url(#bt)"><g style="isolation:isolate"><path d="M41.79,101.84L16.69,88.19l0,0,25.1,13.65,0,0" transform="translate(0 0)" fill="#92c01a"/><path d="M41.82,101.86L16.72,88.21l0.17,0.06L42,101.92l-0.17-.06" transform="translate(0 0)" fill="#92c01a"/><path d="M42,101.92L16.89,88.27a1,1,0,0,0,.38,0l25.1,13.65a1,1,0,0,1-.38,0" transform="translate(0 0)" fill="#92c01a"/></g></g></g><g style="isolation:isolate"><path d="M41.79,101.84L16.69,88.19a1,1,0,0,1-.49-0.9l25.1,13.65A1,1,0,0,0,41.79,101.84Z" transform="translate(0 0)" fill="#92c01a"/><g clip-path="url(#bu)"><g style="isolation:isolate"><path d="M41.79,101.84L16.69,88.19a1,1,0,0,1-.49-0.9l25.1,13.65a1,1,0,0,0,.48.9" transform="translate(0 0)" fill="#92c01a"/></g></g></g><g style="isolation:isolate"><path d="M41.49,102.4L16.4,88.75a1.52,1.52,0,0,1-.76-1.38L40.74,101A1.52,1.52,0,0,0,41.49,102.4Z" transform="translate(0 0)" fill="#92c01a"/><g clip-path="url(#bv)"><g style="isolation:isolate"><path d="M41.49,102.4L16.4,88.75a1.52,1.52,0,0,1-.76-1.38L40.74,101a1.52,1.52,0,0,0,.76,1.38" transform="translate(0 0)" fill="#92c01a"/></g></g></g><polygon points="69.71 54.55 44.61 40.9 44.63 31.2 69.73 44.85 69.71 54.55" fill="#92c01a"/><g style="isolation:isolate"><path d="M44.14,30.29l25.1,13.65a1,1,0,0,1,.49.91L44.63,31.2A1,1,0,0,0,44.14,30.29Z" transform="translate(0 0)" fill="#92c01a"/><g clip-path="url(#bw)"><g style="isolation:isolate"><path d="M69.73,44.85L44.63,31.2a1,1,0,0,0-.49-0.91l25.1,13.65a1,1,0,0,1,.49.91" transform="translate(0 0)" fill="#92c01a"/></g></g></g><g style="isolation:isolate"><path d="M43.56,30.2a0.93,0.93,0,0,1,.58.1l25.1,13.65a0.93,0.93,0,0,0-.58-0.1Z" transform="translate(0 0)" fill="#92c01a"/><g clip-path="url(#bx)"><g style="isolation:isolate"><path d="M68.66,43.85L43.56,30.2a1,1,0,0,1,.38,0L69,43.87a1,1,0,0,0-.38,0" transform="translate(0 0)" fill="#92c01a"/><path d="M69,43.87L43.94,30.22l0.17,0.06,25.1,13.65L69,43.87" transform="translate(0 0)" fill="#92c01a"/><path d="M69.21,43.93L44.11,30.28l0,0,25.1,13.65,0,0" transform="translate(0 0)" fill="#92c01a"/></g></g></g><g style="isolation:isolate"><path d="M44.43,29.74l25.1,13.65a1.39,1.39,0,0,0-.87-0.15L43.56,29.59A1.4,1.4,0,0,1,44.43,29.74Z" transform="translate(0 0)" fill="#92c01a"/><g clip-path="url(#by)"><g style="isolation:isolate"><path d="M68.66,43.24L43.56,29.59a1.44,1.44,0,0,1,.56,0l25.1,13.65a1.42,1.42,0,0,0-.56,0" transform="translate(0 0)" fill="#92c01a"/><path d="M69.22,43.27L44.12,29.62l0.26,0.1,25.1,13.65a1.33,1.33,0,0,0-.26-0.1" transform="translate(0 0)" fill="#92c01a"/><path d="M69.48,43.37L44.38,29.71l0,0,25.1,13.65-0.05,0" transform="translate(0 0)" fill="#92c01a"/></g></g></g><polygon points="53.99 57.91 28.89 44.25 43.54 42.2 68.64 55.85 53.99 57.91" fill="#92c01a"/><polygon points="53.91 99.17 28.82 85.52 28.89 44.25 53.99 57.91 53.91 99.17" fill="#92c01a"/><polygon points="41.3 100.94 16.2 87.29 16.28 46.03 41.38 59.68 41.3 100.94" fill="#92c01a"/><polygon points="40.74 101.02 15.64 87.37 15.72 46.71 40.81 60.37 40.74 101.02" fill="#92c01a"/><polygon points="26.72 61.74 1.63 48.09 16.28 46.03 41.38 59.68 26.72 61.74" fill="#92c01a"/><g style="isolation:isolate"><path d="M26.15,61.64L1.05,48a0.92,0.92,0,0,0,.58.1l25.1,13.65A0.92,0.92,0,0,1,26.15,61.64Z" transform="translate(0 0)" fill="#92c01a"/><g clip-path="url(#bz)"><g style="isolation:isolate"><path d="M26.15,61.64L1.05,48l0,0,25.1,13.65,0,0" transform="translate(0 0)" fill="#92c01a"/><path d="M26.18,61.66L1.08,48l0.17,0.06,25.1,13.65-0.17-.06" transform="translate(0 0)" fill="#92c01a"/><path d="M26.35,61.72L1.25,48.07a1,1,0,0,0,.38,0l25.1,13.65a1,1,0,0,1-.38,0" transform="translate(0 0)" fill="#92c01a"/></g></g></g><g style="isolation:isolate"><path d="M26.15,61.64L1.05,48a1,1,0,0,1-.49-0.9l25.1,13.65A1,1,0,0,0,26.15,61.64Z" transform="translate(0 0)" fill="#92c01a"/><g clip-path="url(#ca)"><g style="isolation:isolate"><path d="M26.15,61.64L1.05,48a1,1,0,0,1-.49-0.9l25.1,13.65a1,1,0,0,0,.49.9" transform="translate(0 0)" fill="#92c01a"/></g></g></g><g style="isolation:isolate"><path d="M25.85,62.2L0.76,48.54A1.52,1.52,0,0,1,0,47.17L25.1,60.82A1.52,1.52,0,0,0,25.85,62.2Z" transform="translate(0 0)" fill="#92c01a"/><g clip-path="url(#cb)"><g style="isolation:isolate"><path d="M25.85,62.2L0.76,48.54A1.52,1.52,0,0,1,0,47.17L25.1,60.82a1.52,1.52,0,0,0,.76,1.38" transform="translate(0 0)" fill="#92c01a"/></g></g></g><polygon points="26.75 49.74 1.65 36.09 43.56 30.2 68.66 43.85 26.75 49.74" fill="#92c01a"/><polygon points="26.75 49.13 1.65 35.48 43.56 29.59 68.66 43.24 26.75 49.13" fill="#92c01a"/><polygon points="25.66 60.74 0.56 47.09 0.58 37.39 25.68 51.04 25.66 60.74" fill="#92c01a"/><g style="isolation:isolate"><path d="M25.68,51L0.58,37.39a1.31,1.31,0,0,1,1.07-1.3l25.1,13.65A1.31,1.31,0,0,0,25.68,51Z" transform="translate(0 0)" fill="#92c01a"/><g clip-path="url(#cc)"><g style="isolation:isolate"><path d="M25.68,51L0.58,37.39a1.36,1.36,0,0,1,.08-0.46l25.1,13.65a1.38,1.38,0,0,0-.08.46" transform="translate(0 0)" fill="#92c01a"/><path d="M25.76,50.58L0.66,36.93a1.29,1.29,0,0,1,.08-0.18L25.84,50.4a1.36,1.36,0,0,0-.08.18" transform="translate(0 0)" fill="#92c01a"/><path d="M25.84,50.4L0.74,36.75l0.09-.14,25.1,13.65-0.09.14" transform="translate(0 0)" fill="#92c01a"/><path d="M25.93,50.26L0.83,36.61l0.09-.12L26,50.14l-0.1.12" transform="translate(0 0)" fill="#92c01a"/><path d="M26,50.14L0.92,36.49,1,36.38,26.13,50,26,50.14" transform="translate(0 0)" fill="#92c01a"/><path d="M26.13,50L1,36.38l0.13-.1,25.1,13.65-0.13.1" transform="translate(0 0)" fill="#92c01a"/><path d="M26.26,49.93L1.16,36.28l0.17-.1,25.1,13.65-0.17.1" transform="translate(0 0)" fill="#92c01a"/><path d="M26.43,49.84L1.33,36.18a1.12,1.12,0,0,1,.32-0.09l25.1,13.65a1.11,1.11,0,0,0-.32.1" transform="translate(0 0)" fill="#92c01a"/></g></g></g><polygon points="25.1 60.82 0 47.17 0.02 37.47 25.11 51.12 25.1 60.82" fill="#92c01a"/><path d="M68.66,43.24a1.44,1.44,0,0,1,1.63,1.53l0,9.69a2,2,0,0,1-1.64,2l-14.09,2L54.47,99.09a2,2,0,0,1-1.63,2l-10.48,1.47A1.44,1.44,0,0,1,40.74,101l0.08-40.66-14.09,2a1.44,1.44,0,0,1-1.62-1.53l0-9.69a2,2,0,0,1,1.63-2Zm1,11.31,0-9.69a0.94,0.94,0,0,0-1.07-1L26.74,49.74A1.31,1.31,0,0,0,25.68,51l0,9.69a0.93,0.93,0,0,0,1.06,1l14.65-2.06L41.3,100.94a0.93,0.93,0,0,0,1.06,1l10.48-1.47a1.31,1.31,0,0,0,1.07-1.3L54,57.91l14.65-2.06a1.31,1.31,0,0,0,1.07-1.3" transform="translate(0 0)" fill="#92c01a"/><g style="isolation:isolate"><path d="M25.12,51.12L0,37.47a2,2,0,0,1,1.63-2l25.1,13.65A2,2,0,0,0,25.12,51.12Z" transform="translate(0 0)" fill="#92c01a"/><g clip-path="url(#cd)"><g style="isolation:isolate"><path d="M25.12,51.12L0,37.47a2,2,0,0,1,.13-0.69l25.1,13.65a2,2,0,0,0-.13.69" transform="translate(0 0)" fill="#92c01a"/><path d="M25.24,50.43L0.14,36.78A2.13,2.13,0,0,1,.27,36.5l25.1,13.65a2.17,2.17,0,0,0-.12.28" transform="translate(0 0)" fill="#92c01a"/><path d="M25.36,50.16L0.27,36.5l0.13-.22L25.5,49.94l-0.13.22" transform="translate(0 0)" fill="#92c01a"/><path d="M25.5,49.94L0.4,36.29l0.15-.19,25.1,13.65-0.15.19" transform="translate(0 0)" fill="#92c01a"/><path d="M25.65,49.75L0.55,36.1l0.17-.17,25.1,13.65-0.17.17" transform="translate(0 0)" fill="#92c01a"/><path d="M25.81,49.58L0.72,35.93l0.2-.16L26,49.43l-0.2.16" transform="translate(0 0)" fill="#92c01a"/><path d="M26,49.43L0.91,35.77l0.26-.15,25.1,13.65L26,49.43" transform="translate(0 0)" fill="#92c01a"/><path d="M26.27,49.27L1.18,35.62a1.65,1.65,0,0,1,.47-0.14l25.1,13.65a1.65,1.65,0,0,0-.47.14" transform="translate(0 0)" fill="#92c01a"/></g></g></g><path d="M279.06,14.28a0.72,0.72,0,0,1,.84.33,1.41,1.41,0,0,1-.37,1.28L260.7,40l-0.16.2,19.1,26.36a1.72,1.72,0,0,1,.42,1.56,1.07,1.07,0,0,1-.87.52l-12.35,1.74a2,2,0,0,1-2.31-1L251.63,51.52l-3.69,4.76,0,15.63a1.3,1.3,0,0,1-1.07,1.3l-10.48,1.47a0.93,0.93,0,0,1-1.07-1l0.1-52.11a1.31,1.31,0,0,1,1.07-1.3L247,18.79a0.93,0.93,0,0,1,1.06,1L248,39l15.2-21.17a3.55,3.55,0,0,1,2.56-1.71Z" transform="translate(0 0)" fill="#ce2423"/><path d="M224.2,22a0.93,0.93,0,0,1,1.06,1l-0.1,52.11a1.3,1.3,0,0,1-1.07,1.3L215,77.68a1.85,1.85,0,0,1-2.17-1L191.69,49.09l-0.06,30.73a1.31,1.31,0,0,1-1.07,1.3l-9.88,1.39a0.93,0.93,0,0,1-1.06-1l0.1-52.11a1.31,1.31,0,0,1,1.07-1.3L190,26.8c1-.13,1.4.08,2.17,1l21,27.58,0.06-30.73a1.31,1.31,0,0,1,1.07-1.3Z" transform="translate(0 0)" fill="#ce2423"/><path d="M173.94,82a2.51,2.51,0,0,1,.1.64,0.87,0.87,0,0,1-.92,1L162.5,85.06a1.51,1.51,0,0,1-2-1.12l-2.29-8.22L142.17,78l-2.39,8.87a2.1,2.1,0,0,1-2,1.67L127.47,90c-0.81.11-.91-0.29-0.91-0.7a2.63,2.63,0,0,1,.1-0.67l16.52-54.24a1.91,1.91,0,0,1,1.83-1.5l11.08-1.56a1.38,1.38,0,0,1,1.83,1l16,49.5Zm-28.7-15.2,10-1.41L150.37,48l-5.13,18.8" transform="translate(0 0)" fill="#ce2423"/><path d="M120,36.63a0.93,0.93,0,0,1,1.06,1L121,89.74a1.3,1.3,0,0,1-1.07,1.3l-10.48,1.47a0.93,0.93,0,0,1-1.07-1l0-20.26-20,2.81,0,20.26a1.3,1.3,0,0,1-1.07,1.3L76.8,97.1a0.93,0.93,0,0,1-1.07-1L75.83,44a1.31,1.31,0,0,1,1.07-1.3l10.48-1.47a0.93,0.93,0,0,1,1.06,1l0,19.85,20-2.81,0-19.85a1.31,1.31,0,0,1,1.07-1.3Z" transform="translate(0 0)" fill="#ce2423"/><path d="M68.66,43.85a0.94,0.94,0,0,1,1.07,1l0,9.69a1.31,1.31,0,0,1-1.07,1.3L54,57.91,53.91,99.17a1.31,1.31,0,0,1-1.07,1.3l-10.48,1.47a0.93,0.93,0,0,1-1.06-1l0.08-41.26L26.72,61.74a0.93,0.93,0,0,1-1.06-1l0-9.69a1.31,1.31,0,0,1,1.07-1.3Z" transform="translate(0 0)" fill="#ce2423"/><path d="M441.16,19.66h-9.26a9.79,9.79,0,0,0-9.36,7,9.79,9.79,0,0,0-9.36-7h-9.26a9.79,9.79,0,0,0-9.57,7.75,33.82,33.82,0,0,0-22.59-8.35,34.55,34.55,0,0,0-18.55,5.27,9.59,9.59,0,0,0-8.44-4.67H334A10.54,10.54,0,0,0,324.73,25l-1.44,2.3-1.36-2.2a10.41,10.41,0,0,0-9.38-5.41H301.9a9.58,9.58,0,0,0-8.64,5,9.86,9.86,0,0,0,.68,10.22l14.92,22.71v14.5a9.79,9.79,0,0,0,9.78,9.78h9.26a9.79,9.79,0,0,0,9.78-9.78V57.69l1.42-2.16a30.43,30.43,0,0,0,9.8,18.5,34,34,0,0,0,22.87,8.52c11,0,20.41-4.68,26.32-12.19a23.8,23.8,0,0,0,2.13,2.94c5.07,6,13,9.24,22.29,9.24s17.29-3.28,22.35-9.24c4-4.68,6.08-10.83,6.08-17.8V29.44A9.79,9.79,0,0,0,441.16,19.66Z" transform="translate(0 0)" fill="#79c2c2"/><g clip-path="url(#ce)"><rect x="277.48" y="23.55" width="190.27" height="2.01" fill="#7999a6"/><rect x="277.48" y="27.98" width="190.27" height="2.01" fill="#7999a6"/><rect x="277.48" y="32.41" width="190.27" height="2.01" fill="#7999a6"/><rect x="277.48" y="36.84" width="190.27" height="2.01" fill="#7999a6"/><rect x="277.48" y="41.27" width="190.27" height="2.01" fill="#7999a6"/><rect x="277.48" y="45.7" width="190.27" height="2.01" fill="#7999a6"/><rect x="277.48" y="50.13" width="190.27" height="2.01" fill="#7999a6"/><rect x="277.48" y="54.56" width="190.27" height="2.01" fill="#7999a6"/><rect x="277.48" y="58.99" width="190.27" height="2.01" fill="#7999a6"/><rect x="277.48" y="63.42" width="190.27" height="2.01" fill="#7999a6"/><rect x="277.48" y="67.85" width="190.27" height="2.01" fill="#7999a6"/><rect x="277.48" y="72.28" width="190.27" height="2.01" fill="#7999a6"/><rect x="277.48" y="76.71" width="190.27" height="2.01" fill="#7999a6"/></g><path d="M332.06,30.74a2,2,0,0,1,2-1.19h10.72c1.26,0,1.46.93,0.79,1.92L329.09,56.41v17a1.19,1.19,0,0,1-1.19,1.19h-9.26a1.19,1.19,0,0,1-1.19-1.19V56.34L301.1,31.47c-0.66-1-.46-1.92.79-1.92h10.65a1.91,1.91,0,0,1,2,1.19l8.73,14.09Z" transform="translate(0 0)" fill="#181716"/><path d="M371.76,75.26c-13.1,0-24.41-9.13-24.41-23.09S358.66,29,371.76,29s24.35,9.13,24.35,23.22S384.79,75.26,371.76,75.26Zm0-35.39c-7,0-12,5.16-12,12.31s5,12.24,12,12.24,12-5.09,12-12.24S378.77,39.87,371.76,39.87Z" transform="translate(0 0)" fill="#181716"/><path d="M430.7,30.74a1.19,1.19,0,0,1,1.19-1.19h9.26a1.19,1.19,0,0,1,1.19,1.19V56.81c0,5-1.39,9.13-4,12.24-3.37,4-8.8,6.22-15.81,6.22S410.13,73,406.76,69c-2.65-3.11-4-7.28-4-12.24V30.74a1.19,1.19,0,0,1,1.19-1.19h9.26a1.19,1.19,0,0,1,1.19,1.19V55.62c0,2.91.53,5,1.65,6.42,1.59,2.05,3.77,2.71,6.42,2.71,2.84,0,5-.66,6.62-2.71,1.13-1.46,1.65-3.51,1.65-6.42V30.74Z" transform="translate(0 0)" fill="#181716"/></svg>