<svg xmlns="http://www.w3.org/2000/svg" viewBox="0 0 222 220.58"><title>Fb_Insta_YT_icon_button</title><rect x="7" width="215" height="200" rx="12" ry="12" fill="#502d61"/><path d="M155.14,16.14l14.5-1.86c3.93-.55,7.11,2.44,7.11,6.69l0,18.25c0,4.25-3.2,8.13-7.14,8.69l-13.12,1.84c-5.54,1.42-9.86,7.08-9.87,13.23l-0.21,20.84,21.36-3c3.93-.55,7.11,2.44,7.1,6.69l0,18.25c0,4.24-3.2,8.13-7.13,8.69l-21.36,3-0.14,73c0,4.25-3.2,8.13-7.14,8.69l-16.91,2.38c-3.93.55-7.12-2.44-7.11-6.69l0.14-73-17.8,2.5c-3.93.55-7.11-2.44-7.11-6.69l0-18.25c0-4.25,3.2-8.13,7.14-8.69l17.8-2.5,0-24a8.64,8.64,0,0,1,.56-3C117.28,38.88,134.33,19.06,155.14,16.14Z" fill="#ffea0e"/></svg>