<svg xmlns="http://www.w3.org/2000/svg" viewBox="0 0 237.23 164.18"><title>Fb_Insta_YT_icon_button</title><path d="M226.22,127.55a34,34,0,0,1-34,34s-56.52,2.6-75.37,2.63c-20.17,0-80.63-2.63-80.63-2.63a34,34,0,0,1-34-34S0,97.31,0,87s2.22-42.4,2.22-42.4a34,34,0,0,1,34-34S93,8.13,112,8.11c20.06,0,80.22,2.44,80.22,2.44a34,34,0,0,1,34,34s1,30,1,40.38S226.22,127.55,226.22,127.55Z"/><g opacity="0.2"><path d="M237.22,54.55v47c-0.27,1.78-.58,3.56-0.81,5.35-1.05,7.91-1.58,15.92-3.24,23.7-2.6,12.19-10.23,19.95-22.69,22.27a94,94,0,0,1-14.86,1.66c-30.63.74-61.26,1.79-91.89,1.73-20.29,0-40.58-1.57-60.85-2.76-14-.82-24.13-9.67-26.71-23.38-1.78-9.43-2.66-19-3.94-28.56v-47C13.46,45.35,14.29,36.08,16,27,19,11.69,28.82,3.39,44.42,2.49,61.2,1.53,78-.15,94.79,0c37.45,0.35,74.9,1.39,112.33,2.71,13.76,0.48,23.66,9.76,26.17,23.3C235,35.45,235.94,45,237.22,54.55ZM95.69,113L167.32,75.9,95.69,38.52V113Z" fill-rule="evenodd"/></g><path d="M236.22,119.55a34,34,0,0,1-34,34s-56.52,2.6-75.37,2.63c-20.17,0-80.63-2.63-80.63-2.63a34,34,0,0,1-34-34S10,89.31,10,79s2.22-42.4,2.22-42.4a34,34,0,0,1,34-34S103,0.13,122,.11c20.06,0,80.22,2.44,80.22,2.44a34,34,0,0,1,34,34s1,30,1,40.38S236.22,119.55,236.22,119.55Z" fill="#e42225"/><path d="M126.59,148.09c-20,0-79.42-2.78-80-2.8l-0.17-.2H46.22A25.24,25.24,0,0,1,20.7,119.55v-0.29L20.43,119c0-.3-2.32-30.07-2.32-40s2.36-41.53,2.38-41.85l0.2-.28V36.55c0-14.34,11.19-26.46,25.52-26.46h0.17l0.17,0.21c0.57,0,56.87-2.21,75.45-2.21h0.21c19.88,0,79.08,2.19,79.68,2.21l0.16-.21h0.16a26.23,26.23,0,0,1,26,26.23v0.38c0,0.3,1,30,1,40.17s-1,42.08-1,42.4v0a25.85,25.85,0,0,1-26,25.79H202l-0.18.2c-0.56,0-56.55,2.8-75,2.8h-0.25Z" fill="#ffea0e"/><path d="M126.59,142.09c-16.66,0-61.69-2-76.3-2.64L50,139.09H46.22c-9.93,0-19.52-9.62-19.52-19.54V119l0.72-.59C26.81,110.13,25.62,87,25.62,79s1-32.55,1.61-41.3L26.7,37.1V36.55c0-8.76,7-16.08,15.35-17.68l0.42,0,4.24,0.6c0.54,0,56.9-1.44,75.31-1.44h0.21c19.77,0,78.8,1.41,79.37,1.44l4.14-.23,0-.22a17.93,17.93,0,0,1,14.48,17.56v0.49c0,0.29,1,29.88,1,39.81s-1,41.79-1,42.1v1.27c0,9.92-8.07,18.76-18,18.76h-3.64l-0.34.36c-13.81.67-56.09,2.64-71.4,2.64h-0.25Z" fill="none" stroke="#38a4dc" stroke-miterlimit="10" stroke-width="2"/><path d="M126.59,134.09c-15.36,0-56-1.74-72.58-2.48l-0.46-.52H46.22c-5.26,0-10.07-5.1-10.47-10.31L36,119.73l-0.12-1.8c-0.58-7.87-2-31-2-38.91s1.4-32.52,2-40.77l0.09-1.36-0.21-.79a10.29,10.29,0,0,1,7.48-9.16l4,0.58c0.5,0,56.73-1.43,74.85-1.43h0.21c19.46,0,78.53,1.41,79.06,1.43l0.23-.25,3.6-.1a9.92,9.92,0,0,1,7.11,9.48v0.76c0,1.23,1,29.94,1,39.54,0,9.79-1,41.54-1,41.84v1.45c0,5.64-4.58,10.85-10,10.85h-7.09l-0.49.52c-15.64.74-53.65,2.48-67.79,2.48h-0.25Z" fill="none" stroke="#38a4dc" stroke-miterlimit="10" stroke-width="2"/><path d="M126.59,126.09c-14.29,0-50.66-1.52-68.86-2.33l-0.6-.67H46.22c-0.73,0-1.62-1.18-2.12-1.94l0-.34-0.25-3.47c-0.55-7.54-2-30.78-2-38.32s1.36-31.62,2-40.22L44,36.1l-0.08-.29A2.48,2.48,0,0,1,44.69,35L47,35l0.48,0.5c0.51,0,56.75-1.42,74.53-1.42h0.21c19.24,0,78.22,1,78.78,1h0.45l2,0a2,2,0,0,1,.79,1.54l0,1.05c0,0.29,1,29.75,1,39.28s-1,41.29-1,41.6v1.6c0,1.39-1.1,3-2,3H191.67l-0.65.69c-17.08.8-51.09,2.31-64.19,2.31h-0.25Z" fill="none" stroke="#38a4dc" stroke-miterlimit="10" stroke-width="2"/><path d="M126.59,118.09c-13.52,0-47.83-1.42-65.14-2.17l-0.74-.83h-9c-0.66-9-1.8-29.27-1.8-35.62s1.06-25.63,1.7-35.83c13-.43,55.55-1.55,70.43-1.55h0.21c16.05,0,60.19.84,74.19,1.28,0.28,8.83.83,27.33,0.83,34.34,0,7.36-.59,28.38-0.86,37.38h-8.14l-0.8.84c-18.76.87-48.58,2.16-60.59,2.16h-0.25Z" fill="none" stroke="#38a4dc" stroke-miterlimit="10" stroke-width="2"/><path d="M126.59,110.09c-12.76,0-45-1.31-61.42-2l-0.88-1H59.17c-0.63-10-1.3-23-1.3-27.62s0.63-17.36,1.25-28.08c17.25-.56,50.17-1.31,62.88-1.31h0.21c13.72,0,48.39.49,66.42,1,0.27,9,.59,21.3.59,26.58,0,5.57-.35,20.38-0.63,29.38h-3.82l-0.95,1c-17.7.81-45.67,2-57,2h-0.25Z" fill="none" stroke="#38a4dc" stroke-miterlimit="10" stroke-width="2"/><path d="M126.59,102.09c-12,0-42.17-1.21-57.71-1.87l-1-1.13H66.71c-0.52-9-.83-16.7-0.83-19.62,0-3.42.38-11.66,0.83-20.31,16.73-.52,44.16-1.07,55.29-1.07h0.21c11.81,0,39.29.23,58.64,0.81,0.2,7.29.38,14.49,0.37,18.29,0,4.2-.21,13-0.43,21.55l-0.56,1.06c-16.63.75-42.74,2.3-53.39,2.3h-0.25Z" fill="none" stroke="#38a4dc" stroke-miterlimit="10" stroke-width="2"/><path d="M126.59,94.09c-10.55,0-35.42-1.47-52.23-2.17C74,86,73.87,81.27,73.87,79.21s0.16-6.29.45-12.41c16-.49,38.12-0.71,47.68-0.71h0.21c10.16,0,31.95,0,50.84.58,0.12,5,.18,8.33.18,10.51,0,2.64-.09,8-0.25,15-15.48.67-36.91,1.92-46.13,1.92h-0.25Z" fill="none" stroke="#38a4dc" stroke-miterlimit="10" stroke-width="2"/><path d="M126.59,86.09c-9.14,0-29.59-1.26-44.58-1.86-0.09-2.15-.13-4.05-0.13-5s0-2.35.13-4.64c15.05-.44,32-0.48,40-0.48h0.21c7.32,0,22.1-.22,43,0.36,0,1.2,0,1.94,0,2.73,0,1.5,0,4.24-.09,7.31-14.47.61-30.67,1.59-38.3,1.59h-0.25Z" fill="none" stroke="#38a4dc" stroke-miterlimit="10" stroke-width="2"/><g style="isolation:isolate"><polygon points="110.64 50.72 87.85 38.32 151.92 65.79 174.71 78.19 110.64 50.72"/><polygon points="110.51 121.8 87.72 109.4 87.85 38.32 110.64 50.72 110.51 121.8"/><polygon points="110.64 50.72 174.71 78.19 110.51 121.8 110.64 50.72" fill="#e42225"/></g></svg>