<svg xmlns="http://www.w3.org/2000/svg" viewBox="0 0 349.16 124.02"><title>ty.it</title><path d="M318.49,50.41l0,0-0.25-.09h0a1.41,1.41,0,0,0-.51,0l-12.86,1.81,0-14,15.59,8.48,24.75-3.48a1.42,1.42,0,0,1,.51,0,1.3,1.3,0,0,1,.35.12L313.84,25.71l0,0a1.32,1.32,0,0,0-.25-0.09h0a1.42,1.42,0,0,0-.51,0l-8.16,1.15V25.56a2,2,0,0,1,.13-0.69h0a2.07,2.07,0,0,1,.33-0.57l0,0a1.92,1.92,0,0,1,.47-0.41l0.06,0a1.67,1.67,0,0,1,.59-0.21l43.46-6.11a1.39,1.39,0,0,1,.51,0,1.32,1.32,0,0,1,.34.12L318.59,0.16l0,0L318.29,0h0a1.39,1.39,0,0,0-.5,0L274.27,6.12a1.62,1.62,0,0,0-.47.14l-0.12.07-0.06,0-0.08,0-0.19.15-0.16.16,0,0,0,0L273,6.91l-0.13.21a2.41,2.41,0,0,0-.11.25h0a2,2,0,0,0-.12.68v6.81L260.6,8.31l0,0a1.28,1.28,0,0,0-.25-0.09h0a1.42,1.42,0,0,0-.52,0L247.32,9.91a1.66,1.66,0,0,0-.48.14l-0.12.07-0.06,0-0.08,0-0.19.15-0.16.16,0,0,0,0-0.09.11-0.13.21a2.09,2.09,0,0,0-.11.25h0a2,2,0,0,0-.12.68v4.43l-8.62-4.69,0,0-0.22-.08h-0.06a1.76,1.76,0,0,0-.63,0l-48.07,6.76a1.65,1.65,0,0,0-.47.14l-0.12.07-0.06,0-0.08,0-0.19.15-0.16.16,0,0,0,0-0.09.11-0.13.21a2.13,2.13,0,0,0-.12.25h0a2,2,0,0,0-.12.68l0,11.49a1.49,1.49,0,0,0,.73,1.35l17.71,9.63L189.68,71.19l-3-10.65-12.13-6.6,3.3-10.81a3.38,3.38,0,0,1,.34-0.82l0-.05a2.39,2.39,0,0,1,.49-0.57l0,0a2.53,2.53,0,0,1,.62-0.36l0.16-.06a4.15,4.15,0,0,1,.8-0.2l13.13-1.85a3.79,3.79,0,0,1,.8,0l0.2,0a1.87,1.87,0,0,1,.61.18L162.92,21.88l-0.06,0a1.72,1.72,0,0,0-.33-0.12l-0.22,0-0.2,0a3.71,3.71,0,0,0-.8,0l-13.13,1.85a3.84,3.84,0,0,0-1,.28l-0.1,0a2.59,2.59,0,0,0-.36.21l-0.12.1,0,0-0.07.05-0.18.19-0.17.21-0.07.12,0,0-0.06.1a3.16,3.16,0,0,0-.19.42c0,0.1-.07.2-0.1,0.3l-6.26,20.52-25.36-13.8-0.52-.27c-0.17-.08-0.35-0.15-0.52-0.22s-0.48-.21-0.72-0.31-0.56-.2-0.84-0.29L110.72,31,110.47,31l-0.37-.07q-0.85-.2-1.74-0.33l-0.57-.08c-0.75-.09-1.51-0.15-2.29-0.17H105q-1,0-2,0l-0.68,0c-0.83.06-1.66,0.14-2.5,0.26L73,34.41a1.63,1.63,0,0,0-.47.14l-0.12.07-0.05,0-0.08,0-0.19.15L71.89,35l0,0,0,0-0.09.11-0.13.21a2.14,2.14,0,0,0-.11.25h0a2,2,0,0,0-.12.68l0,14L53.42,40.6l-0.07,0-0.06,0q-0.79-.31-1.64-0.59l-0.77-.23c-0.34-.1-0.67-0.21-1-0.3h0c-0.54-.14-1.11-0.27-1.7-0.38l-0.5-.09q-0.7-.13-1.44-0.23l-0.59-.08c-0.63-.07-1.29-0.13-2-0.17H43.47c-0.72,0-1.48,0-2.26,0l-0.7,0q-0.9,0-1.84.09l-0.77.06c-0.87.07-1.77,0.17-2.71,0.3s-1.64.27-2.45,0.44l-0.5.11q-1.17.27-2.32,0.6l-0.43.13q-1.08.33-2.13,0.73L27.1,41c-0.75.29-1.49,0.61-2.21,0.95l-0.24.1-0.2.1q-1.24.59-2.43,1.27l-0.36.21q-1.2.7-2.35,1.48l-0.11.07-0.26.19q-0.76.54-1.5,1.11l-0.39.3q-0.86.68-1.67,1.41l-0.11.1L15,48.54q-0.56.52-1.11,1.06L13.41,50q-0.59.6-1.16,1.23l-0.2.21,0,0.06q-0.65.74-1.27,1.52l-0.34.44q-0.45.58-.87,1.17L9.32,55l-0.17.26q-0.49.7-.94,1.43L8,57c-0.36.58-.7,1.18-1,1.78l-0.09.16-0.14.28q-0.51,1-1,2l-0.15.31c-0.32.73-.62,1.46-0.9,2.21l-0.1.25c0,0.08,0,.16-0.07.24q-0.48,1.32-.86,2.69l-0.11.43c-0.25.93-.46,1.87-0.64,2.82,0,0.12,0,.24-0.06.36-0.17,1-.31,2-0.41,3,0,0.08,0,.16,0,0.23-0.09,1.06-.15,2.12-0.15,3.2,0,13.47,5,22.36,12.86,26.65L47.34,121c-7.89-4.29-12.89-13.19-12.86-26.65,0-.05,0-0.1,0-0.15L58,107l0.45,0.23,0.21,0.09,0.69,0.29,0.4,0.15c0.27,0.1.54,0.18,0.82,0.26l0.26,0.08h0.06c0.4,0.1.82,0.18,1.24,0.25l0.35,0c0.32,0,.64.07,1,0.09l0.47,0c0.32,0,.64,0,1,0l0.44,0c0.47,0,1-.07,1.45-0.14s1.27-.21,1.9-0.35l0.55-.13q0.71-.17,1.4-0.38l0.48-.14c0.6-.19,1.18-0.39,1.74-0.61l0.26-.1c0.48-.19.94-0.39,1.39-0.6l0.22-.09,0.26-.13,1-.5,0.41-.22c0.43-.24.84-0.49,1.21-0.74v-1.86l26.52,14.42a1.5,1.5,0,0,1-.74-1.36l0.05-26.94,2.39,4.59a2.53,2.53,0,0,0,1,1.13L139,111.85a2.52,2.52,0,0,1-1-1.13l-9.14-17.58,29.74,16.18a1.08,1.08,0,0,1-.48-1,5.26,5.26,0,0,1,.17-1.09l7.44-24.41,0.49,1.77a2,2,0,0,0,1,1.34l32.15,17.49a2,2,0,0,1-1-1.34l-2.65-9.49L167.46,77.17l0.9-2.94,12.7,6.91,3.59-.5-0.49.92,0,0.06a2.22,2.22,0,0,0-.13.28s0,0,0,.05a1.91,1.91,0,0,0-.1.61,1.18,1.18,0,0,0,.56,1.1l32.15,17.49A1.18,1.18,0,0,1,216,100a1.86,1.86,0,0,1,.1-0.61,2.11,2.11,0,0,1,.17-0.39l12.44-23.33L242,82.91l15.11-2.12,21.43,11.66a1.5,1.5,0,0,1-.74-1.36l0-17.48,27.67,15.05a1.5,1.5,0,0,1-.74-1.36l0-23.88,15.59,8.48,29.45-4.14a1.36,1.36,0,0,1,.51,0,1.27,1.27,0,0,1,.34.12Z" transform="translate(-2.32)" fill="#93c019"/><path d="M134.5,47.87l0.67,0q1-.06,2,0h0.44c0.43,0,.84.06,1.25,0.09l-4.45,14.61L113,50.8l19-2.68C132.84,48,133.68,47.93,134.5,47.87Z" transform="translate(-2.32)" fill="#93c019"/><path d="M71.27,95.74l-4.42-2.41V87.52A2,2,0,0,1,67,86.84h0a2.11,2.11,0,0,1,.33-0.57l0,0a2,2,0,0,1,.47-0.41l0.05,0a1.68,1.68,0,0,1,.59-0.21l2.84-.4Z" transform="translate(-2.32)" fill="#93c019"/><path d="M35.11,87.59c0.18-1,.4-1.91.64-2.85l0.1-.4c0.1-.36.23-0.7,0.34-1.06l8,4.36-0.35.19-1,.51-0.47.22q-0.68.31-1.4,0.6l-0.25.1c-0.56.22-1.15,0.42-1.75,0.61L38.52,90q-0.7.21-1.41,0.38l-0.54.13c-0.63.14-1.27,0.26-1.91,0.35h0c0.09-1,.23-2,0.4-3Z" transform="translate(-2.32)" fill="#93c019"/><path d="M103.66,53.16h0a2.1,2.1,0,0,1,.33-0.57l0,0a1.94,1.94,0,0,1,.47-0.41l0.05,0a1.68,1.68,0,0,1,.59-0.21l1.33-.19a11.25,11.25,0,0,1-.14,1.72c0,0.08,0,.16,0,0.23a9.55,9.55,0,0,1-.38,1.46l-0.11.3c-0.1.25-.2,0.48-0.32,0.71s-0.08.18-.13,0.27-0.15.25-.23,0.38-0.15.25-.24,0.37l-0.2.25c-0.1.13-.2,0.26-0.31,0.38l-0.23.23c-0.14.14-.29,0.28-0.44,0.41l-0.17.12V53.85A2,2,0,0,1,103.66,53.16Z" transform="translate(-2.32)" fill="#93c019"/><path d="M70.06,56L70.82,56l0.52,0,0,15.49L59.59,65.08l0,0A1.24,1.24,0,0,0,59.29,65h0a1.39,1.39,0,0,0-.51,0L46.47,66.66,47.15,66l0.36-.33q0.82-.74,1.69-1.42L49.58,64q0.74-.58,1.51-1.12l0.37-.26q1.14-.78,2.34-1.48l0.38-.22q1.19-.68,2.43-1.27l0.43-.2c0.73-.34,1.47-0.66,2.23-1l0.25-.09c0.71-.27,1.43-0.51,2.15-0.74l0.42-.13q1.15-.34,2.33-0.61l0.49-.11c0.81-.17,1.63-0.33,2.46-0.44S69.19,56.12,70.06,56Z" transform="translate(-2.32)" fill="#93c019"/><path d="M126,91.15L103.49,78.9V71.23l15.59,8.48,10.46-1.47,0.1,0-3.5,11.49a5.3,5.3,0,0,0-.17,1.08A2,2,0,0,0,126,91.15Z" transform="translate(-2.32)" fill="#93c019"/><path d="M236.22,61.71l7.67-14.38-21.8-11.86,23.59-3.32-0.06,34.22-8.35-4.54,0,0a1.31,1.31,0,0,0-.25-0.09h0a1.42,1.42,0,0,0-.51,0Z" transform="translate(-2.32)" fill="#93c019"/><path d="M45.45,101.92a1.45,1.45,0,0,0,.71,1.17l32.15,17.49a1.45,1.45,0,0,1-.71-1.17Z" transform="translate(-2.32)" fill="#93c019"/><path d="M349.89,17.5a1.4,1.4,0,0,1,1.59,1.5l0,11.49a2,2,0,0,1-1.6,1.94l-29.45,4.14,0,10,24.75-3.48a1.4,1.4,0,0,1,1.59,1.5l0,11.49A2,2,0,0,1,345.11,58l-24.75,3.48,0,10.43,29.45-4.14a1.41,1.41,0,0,1,1.59,1.51l0,11.48a2,2,0,0,1-1.6,2L306.31,88.8a1.41,1.41,0,0,1-1.59-1.51l0.11-61.74a2,2,0,0,1,1.6-1.94Z" transform="translate(-2.32)" fill="#e42326"/><path d="M291.88,25.66a1.41,1.41,0,0,1,1.6,1.49l-0.11,61.74a2,2,0,0,1-1.61,2l-12.41,1.74a1.41,1.41,0,0,1-1.6-1.51l0.11-61.74a2,2,0,0,1,1.61-1.95Z" transform="translate(-2.32)" fill="#e42326"/><path d="M268.3,29a1.16,1.16,0,0,1,1.5,1.23,1.85,1.85,0,0,1-.26,1L242,82.91l26.6-3.74a1.41,1.41,0,0,1,1.6,1.51l0,11.48a2,2,0,0,1-1.61,2l-51,7.17A1.17,1.17,0,0,1,216,100a1.89,1.89,0,0,1,.27-1l27.58-51.72L220.2,50.65a1.4,1.4,0,0,1-1.59-1.5l0-11.49a2,2,0,0,1,1.6-1.94Z" transform="translate(-2.32)" fill="#e42326"/><path d="M214.89,99.25a4.63,4.63,0,0,1,.17,1,1.44,1.44,0,0,1-1.42,1.54L201,103.59c-1.41.2-2.3-.26-2.65-1.54l-2.65-9.49-18.53,2.6-2.76,10.25a2.9,2.9,0,0,1-2.67,2.29l-12.24,1.72a1.05,1.05,0,0,1-1.41-1.14,5.26,5.26,0,0,1,.17-1.09l19.54-64.08A2.66,2.66,0,0,1,180.33,41l13.13-1.85c1.32-.19,2.12.19,2.47,1.38ZM181.06,81.14l11-1.54-5.38-19.06-5.62,20.6" transform="translate(-2.32)" fill="#e42326"/><path d="M155.56,107c0.71,1.24.89,2.85-.89,3.1L141,112c-1.41.2-2.3,0-3-1.31l-9.46-18.19-9.49,1.33,0,19.53a2,2,0,0,1-1.6,2L105,117.09a1.41,1.41,0,0,1-1.59-1.51l0.12-61.74a2,2,0,0,1,1.6-1.94L132,48.13c5.94-.84,11.52-0.28,15.51,2.51,4.52,3.19,7,9.25,7,16.14a24.86,24.86,0,0,1-6.67,17,30.53,30.53,0,0,1-3.73,3.39Zm-19.71-31.1a8.49,8.49,0,0,0,2.77-6.71c0-2.87-.88-4.75-2.48-5.77a7.64,7.64,0,0,0-5.23-.9l-11.8,1.66,0,15.51,10.46-1.47c2.75-.39,4.88-1.08,6.3-2.32" transform="translate(-2.32)" fill="#e42326"/><path d="M67.35,56.35c8.34-1.17,13.92.06,18.08,1.68a1.43,1.43,0,0,1,.62,2.11L81,72.23a1.63,1.63,0,0,1-1.21,1A1.65,1.65,0,0,1,79,73.18c-3.9-1.08-7.44-2.21-12.14-1.55-9.05,1.27-16.16,10-16.18,20.45s6.18,17.7,16.11,16.31a27.83,27.83,0,0,0,10.82-4V99.21l-9.22,1.3A1.4,1.4,0,0,1,66.83,99l0-11.49a2,2,0,0,1,1.6-1.94l22.44-3.15a1.4,1.4,0,0,1,1.59,1.5l-0.06,33.21a2,2,0,0,1-1.6,2l-11.62,1.63a1.36,1.36,0,0,1-1.6-1.31,32.69,32.69,0,0,1-12.5,4.25c-17.39,2.44-30.67-7.36-30.63-29.29C34.51,75.13,49.17,58.9,67.35,56.35Z" transform="translate(-2.32)" fill="#e42326"/></svg>