<?xml version="1.0" encoding="utf-8"?>
<!-- Generator: Adobe Illustrator 19.0.0, SVG Export Plug-In . SVG Version: 6.00 Build 0)  -->
<svg version="1.1" id="Layer_1" xmlns="http://www.w3.org/2000/svg" xmlns:xlink="http://www.w3.org/1999/xlink" x="0px" y="0px"
	 viewBox="0 0 305 203.4" style="enable-background:new 0 0 305 203.4;" xml:space="preserve">
<style type="text/css">
	.st0{fill:#E62028;}
</style>
<g>
	<path d="M305,35.7c-3.6,10.8-7.1,21.2-10.7,31.6c-5.7,16.9-11.6,33.8-16.9,50.8c-1.9,6.2-2.3,12.9-3.3,19.3
		c-0.9,5.7-1.7,11.4-2.7,17c-0.2,0.9-0.9,1.9-1.6,2.4c-17.2,9.9-34.3,19.7-51.6,29.5c-0.9,0.5-2.2,0.8-3.2,0.8
		c-14,0.3-28,0.5-41.9,0.7c-19.3,0.3-38.6,0.4-57.8,1.2c-7,0.3-13.9,2.4-20.9,3.7c-18,3.4-35.9,6.9-53.9,10.4
		c-1.6,0.3-2.5,0-3.5-1.3c-7.1-9.5-14.3-18.9-21.6-28.3c-2.1-2.6-2-5.6-2.5-8.5c-4.3-27-8.5-54-12.7-81c-0.2-1.2,0-2.5,0.3-3.6
		c5-17.5,10.2-34.9,15.2-52.5c0.9-3.1,3.5-4.5,5.3-6.7c2.5-3,5.2-3.4,9-2.8c15.6,2.7,31.2,5.1,46.9,7.2c4.4,0.6,9-0.3,13.5-0.7
		c11.5-1,23.1-1.7,34.6-3.2c8.2-1.1,16.3-3.2,24.4-4.9c26.2-5.6,52.4-11.2,78.6-16.8c1.8-0.4,2.6-0.2,3.4,1.6
		c3.5,7.1,7.2,14,10.6,21.1c1,2.1,2.3,3.1,4.7,3.5c19,3,37.9,6,56.8,9.1C303.8,35.4,304.2,35.5,305,35.7z M26.6,32.6
		c-2.9,16.5-5.7,32.6-8.8,48.6c-0.6,3-0.2,5.6,1,8.4c2.1,5,4.9,10.1,5.7,15.3c3.3,21.1,6,42.4,8.8,63.6c1.2,8.8,1.1,8.8,7.7,14.9
		c1.5,1.4,3.1,2,5.2,2c17.5-0.2,35-0.3,52.6-0.3c2.1,0,3.5-0.5,4.4-2.5c0.9-2.1,2.4-2.7,4.6-2.6c3.9,0.2,7.8,0.2,11.7,0.2
		c24.9,0.2,49.7,0.4,74.6,0.6c1.4,0,3-0.4,4.3-1c18.4-9.1,36.7-18.4,55.1-27.4c2.6-1.3,4-2.9,4.8-5.7c2.5-9.1,4.8-18.3,8.2-27.1
		c5.8-14.8,12.4-29.3,18.6-43.9c1.8-4.2,3.6-8.4,5.4-12.8c-4.6-2-9.1-4-13.5-5.9c-4.1-1.8-4.1-1.8-3.8-6.3c0.2-3.1,0.4-6.3,0.6-9.4
		c-1-0.3-1.6-0.5-2.2-0.6c-12.4-2.5-24.8-5.1-37.2-7.4c-2.5-0.5-3.5-1.5-3.9-3.9c-0.6-3.5-1.6-7-2.4-10.7c-3.1,0.4-6,0.7-8.9,1
		c-17.9,2.2-35.8,4.3-53.7,6.7c-14.5,1.9-29,4.2-43.5,6.4c-0.8,0.1-1.8,0.2-2.2,0.8c-1.5,2.1-3.4,1.7-5.4,1.3
		c-2.5-0.5-5.1-0.7-7.6-1.3c-5.2-1.3-10.2-1.3-15.1,1.2c-1.7,0.9-3.7,1.5-5.6,1.4c-12-0.6-24-1.4-36-2.1
		C42.3,33.5,34.6,33.1,26.6,32.6z"/>
	<path class="st0" d="M26.6,32.6c7.9,0.5,15.6,0.9,23.3,1.4c12,0.7,24,1.5,36,2.1c1.8,0.1,3.9-0.5,5.6-1.4c4.9-2.5,9.9-2.5,15.1-1.2
		c2.5,0.6,5.1,0.9,7.6,1.3c2,0.4,4,0.8,5.4-1.3c0.4-0.5,1.4-0.6,2.2-0.8c14.5-2.2,29-4.4,43.5-6.4c17.9-2.4,35.8-4.5,53.7-6.7
		c2.9-0.4,5.8-0.7,8.9-1c0.9,3.7,1.9,7.2,2.4,10.7c0.4,2.5,1.5,3.5,3.9,3.9c12.4,2.4,24.8,4.9,37.2,7.4c0.6,0.1,1.2,0.3,2.2,0.6
		c-0.2,3.1-0.4,6.2-0.6,9.4c-0.3,4.6-0.3,4.6,3.8,6.3c4.4,1.9,8.9,3.9,13.5,5.9c-1.9,4.4-3.6,8.6-5.4,12.8
		c-6.2,14.6-12.8,29.1-18.6,43.9c-3.4,8.8-5.7,18-8.2,27.1c-0.8,2.8-2.2,4.4-4.8,5.7c-18.4,9-36.7,18.3-55.1,27.4
		c-1.3,0.6-2.8,1-4.3,1c-24.9-0.1-49.7-0.4-74.6-0.6c-3.9,0-7.8,0-11.7-0.2c-2.3-0.1-3.7,0.5-4.6,2.6c-0.8,2-2.3,2.5-4.4,2.5
		c-17.5,0-35,0.2-52.6,0.3c-2.1,0-3.6-0.6-5.2-2c-6.6-6.1-6.5-6-7.7-14.9c-2.8-21.2-5.5-42.4-8.8-63.6c-0.8-5.3-3.5-10.3-5.7-15.3
		c-1.2-2.8-1.5-5.4-1-8.4C20.9,65.2,23.7,49.1,26.6,32.6z"/>
</g>
</svg>
