<?xml version="1.0" encoding="utf-8"?>
<!-- Generator: Adobe Illustrator 19.0.0, SVG Export Plug-In . SVG Version: 6.00 Build 0)  -->
<svg version="1.1" id="Layer_1" xmlns="http://www.w3.org/2000/svg" xmlns:xlink="http://www.w3.org/1999/xlink" x="0px" y="0px"
	 viewBox="0 0 155 194" style="enable-background:new 0 0 155 194;" xml:space="preserve">
<style type="text/css">
	.st0{fill-rule:evenodd;clip-rule:evenodd;fill:#92C01A;}
	.st1{fill-rule:evenodd;clip-rule:evenodd;}
</style>
<g>
	<g>
		<g>
			<path class="st0" d="M17.2,52.7c2.9,3.1,6,4.2,10.3,3.6c2.6-0.3,5.2,0.4,7.6-0.6c6.2-2.4,14.1-3.1,18.5-8.4c1-1.2,1.6-2.7,2.5-4
				c0.9-1.1,1.9-2,2.6-3.1c1.7-2.3,2.9-4.8,3.9-7.4c0.4-1.1,0.7-2.3,1.1-3.4c0.7-1.6,1.7-2.3,2.7-3.5c1.7-2,2.2-6.1,2.1-8.6
				c-0.3-2.1-1.7-4.1-3-5.8c-2.3-2.7-5.5,1.5-7.4,2.8c-2.6,2.1-5.8,2.8-8.5,4.5c-2.8,1.6-5.1,4-7.7,6.2c-4.6,3.8-7.4,9-12.7,12
				c-2.9,1.7-5.6,3.3-8.2,5.3c-1.8,1.4-3.9,2.7-5.7,4.1c-0.3,0.2-0.6,0.6-0.9,0.8"/>
		</g>
		<g>
			<path class="st1" d="M2.1,42.9c0.3-0.1,0.6-0.2,0.9-0.3c0.2-0.1,0.4,0,0.6,0c0.1,0,0.1,0,0.2,0c0.3-0.1,0.5,0.1,0.6,0.4
				c0.1,0.2,0.3,0.3,0.5,0.3c0.6,0,1.1,0.2,1.7,0.5c0.7,0.3,1.3,0.6,2,0.8c0.8,0.3,1.7,0.6,2.5,0.8c0.8,0.2,1.6,0.3,2.4,0.2
				c0.7-0.1,1.3-0.3,1.9-0.6c0.5-0.2,1-0.5,1.5-0.7c0.7-0.3,1.3-0.5,2-0.8c0.5-0.2,0.9-0.4,1.4-0.5c0.4-0.1,0.8-0.2,1.3-0.4
				c0.5-0.2,0.9-0.3,1.4-0.5c0.6-0.2,1.1-0.4,1.7-0.5c0.5-0.1,0.9-0.3,1.4-0.4c0.3-0.1,0.7-0.2,1-0.3c0.5-0.2,1-0.4,1.4-0.6
				c0.3-0.1,0.6-0.2,0.9-0.3c0.1,0,0.2-0.1,0.3-0.1c0.2-0.1,0.4-0.2,0.5-0.3c0.2-0.1,0.4-0.2,0.6-0.4c0.3-0.2,0.6-0.3,0.9-0.5
				c0.1-0.1,0.3-0.2,0.4-0.2c0.4-0.1,0.6-0.4,0.9-0.6c0.4-0.2,0.8-0.4,1.3-0.7c0,0,0.1,0,0.1-0.1c0.2-0.2,0.4-0.4,0.7-0.5
				c0.3-0.1,0.5-0.4,0.7-0.5c0.1-0.1,0.2-0.2,0.4-0.3c0.2-0.1,0.5-0.3,0.6-0.5c0,0,0.1,0.1,0.1,0.1c0.1-0.1,0.2-0.2,0.1-0.3
				c0.2,0.1,0.3,0,0.3-0.1c0-0.1,0.1-0.1,0.2-0.1c0,0,0.1-0.1,0.1-0.1c0-0.3,0.3-0.3,0.4-0.4c0.1-0.1,0.4-0.2,0.5-0.4c0,0,0,0,0,0
				c0.2,0,0.3-0.3,0.4-0.4c0,0,0.1-0.1,0.1-0.1c0,0,0,0.1,0.1,0.2c0.1-0.3,0.4-0.4,0.6-0.5c0.1-0.1,0.3-0.2,0.4-0.3
				c0.3-0.3,0.6-0.6,0.9-0.9c0.2-0.2,0.4-0.4,0.5-0.5c0.3-0.3,0.5-0.6,0.8-0.8c0.2-0.2,0.4-0.4,0.5-0.6c0.2-0.2,0.4-0.4,0.6-0.6
				c0.1-0.1,0.2-0.2,0.3-0.3c0.2-0.2,0.4-0.4,0.6-0.6c0.2-0.2,0.3-0.4,0.5-0.6c0.2-0.2,0.3-0.4,0.5-0.6c0.2-0.2,0.3-0.4,0.4-0.6
				c0.2-0.2,0.3-0.4,0.5-0.6c0,0,0-0.1,0.1-0.1c0.1-0.3,0.3-0.5,0.5-0.7c0.2-0.2,0.3-0.4,0.5-0.6c0.2-0.3,0.4-0.5,0.6-0.8
				c0.2-0.2,0.3-0.5,0.5-0.8c0-0.1,0.1-0.1,0.1-0.2c0.1-0.1,0.1-0.2,0.2-0.4c0.1-0.1,0.2-0.2,0.3-0.4c0.4-0.6,0.8-1.2,1.2-1.7
				c0.3-0.5,0.6-1,1-1.5c0.2-0.4,0.4-0.8,0.7-1.2c0.2-0.3,0.3-0.6,0.5-0.8c0.3-0.5,0.6-1,0.9-1.5c0.3-0.5,0.6-1,0.9-1.6
				c0.3-0.4,0.5-0.9,0.7-1.3c0.3-0.5,0.6-1,1-1.5c0.2-0.3,0.4-0.6,0.6-0.9c0.4-0.5,0.8-1.1,1.2-1.6c0.5-0.6,1-1.1,1.5-1.6
				c0.6-0.6,1.2-1.2,1.8-1.8c0.4-0.4,0.9-0.9,1.3-1.3c0.4-0.3,0.8-0.6,1.2-0.9c0.1-0.1,0.1-0.1,0.2-0.2c0.1-0.2,0.4-0.3,0.6-0.4
				c0.2-0.1,0.5-0.1,0.8,0c0.3,0.1,0.4,0.3,0.7,0.4c0.1,0,0.1,0,0.1,0.1c0.7,0.7,1.3,1.4,2,2.1c0,0-0.1,0-0.1,0.1
				c-0.1,0.1-0.2,0.2-0.2,0.2c0,0.2,0,0.4,0.1,0.5c0,0.2,0.1,0.5,0.1,0.7c0,0,0,0.1,0,0.1c0,0.2,0,0.4,0.1,0.7
				c0,0.2,0.2,0.4,0.2,0.7c0,0.2,0,0.4,0.1,0.6c0,0.2,0,0.3,0.1,0.5c0.1,0.4,0.2,0.9,0.1,1.4c0,0.2,0,0.5,0,0.7c0,0.1,0,0.3,0,0.4
				c0,0.1,0,0.2,0,0.4c0,0.1,0,0.2,0,0.3c0,0.1,0,0.2,0,0.3c0,0.2,0,0.4,0,0.6c0,0.3-0.1,0.6-0.1,0.9c-0.1,0.3-0.1,0.6-0.2,0.9
				c-0.2,0.6-0.3,1.3-0.5,1.9c0,0,0,0.1,0,0.1c-0.1,0.2-0.2,0.4-0.2,0.6c-0.2,0.5-0.3,0.9-0.5,1.4c-0.2,0.4-0.3,0.8-0.5,1.2
				c-0.1,0.3-0.3,0.7-0.4,1c-0.1,0.3-0.3,0.6-0.4,1c-0.2,0.5-0.5,0.9-0.7,1.4c-0.2,0.5-0.5,1-0.7,1.5c-0.2,0.4-0.3,0.8-0.5,1.1
				c-0.1,0.3-0.3,0.6-0.4,0.9c-0.1,0.3-0.3,0.5-0.4,0.8c-0.2,0.3-0.3,0.5-0.5,0.8c-0.3,0.5-0.6,1-0.9,1.4c-0.2,0.3-0.3,0.6-0.5,0.9
				c-0.1,0.2-0.3,0.4-0.4,0.6c-0.3,0.4-0.5,0.9-0.8,1.3c-0.2,0.3-0.4,0.6-0.6,0.9c-0.2,0.3-0.5,0.7-0.7,1c-0.1,0.2-0.2,0.3-0.3,0.4
				c-0.2,0.2-0.3,0.5-0.5,0.7c-0.3,0.4-0.6,0.7-0.9,1.1c0,0,0,0,0,0c-0.2,0.2-0.3,0.4-0.5,0.6c-0.3,0.4-0.6,0.7-0.9,1
				c-0.2,0.2-0.3,0.4-0.5,0.6c-0.3,0.3-0.5,0.7-0.8,1c-0.2,0.3-0.5,0.5-0.7,0.8c-0.3,0.3-0.6,0.7-0.9,1c-0.2,0.2-0.5,0.5-0.7,0.7
				c-0.3,0.3-0.6,0.6-0.9,0.9c-0.4,0.4-0.8,0.8-1.2,1.1c-0.6,0.6-1.3,1.2-1.9,1.8c-0.4,0.4-0.8,0.7-1.3,1c-0.4,0.3-0.8,0.6-1.2,1
				c-0.4,0.3-0.8,0.6-1.2,0.9c0,0,0,0-0.1,0c-0.5,0.3-1,0.6-1.5,0.9c-0.2,0.1-0.4,0.3-0.6,0.4c-0.2,0.1-0.5,0.3-0.7,0.4
				c-0.3,0.2-0.6,0.4-1,0.6c-0.3,0.1-0.6,0.3-1,0.5c-0.5,0.2-1,0.5-1.5,0.7c-0.4,0.2-0.8,0.4-1.2,0.6c-0.4,0.2-0.8,0.3-1.2,0.5
				c-0.3,0.1-0.6,0.2-1,0.4c-0.3,0.1-0.6,0.2-0.9,0.3c-0.2,0.1-0.4,0.1-0.6,0.2c-0.3,0.1-0.7,0.2-1,0.3c-0.3,0.1-0.7,0.2-1,0.3
				c-0.2,0-0.3,0.1-0.5,0.1C29.4,55.9,29,56,28.6,56c-0.4,0.1-0.7,0.1-1.1,0.2c-0.3,0-0.6,0.1-1,0.1c-0.3,0-0.5,0-0.8,0
				c-0.5,0-1,0-1.5,0c-0.4,0-0.7,0-1.1,0c-0.4,0-0.7-0.1-1.1-0.1c-0.5,0-0.9,0-1.4-0.1c-0.4-0.1-0.8-0.2-1.2-0.3
				c-0.8-0.3-1.5-0.5-2.2-1c-0.5-0.3-1-0.6-1.5-1c-0.5-0.4-1-0.8-1.4-1.2c-0.6-0.7-1.4-1.2-2.1-1.8c0,0,0,0,0,0
				c-0.4-0.2-0.8-0.5-1.2-0.7c-0.7-0.4-1.5-0.7-2.2-1c-0.7-0.3-1.5-0.6-2.2-0.9c-0.6-0.3-1.3-0.5-1.9-0.8c-0.4-0.2-0.7-0.4-1-0.6
				c-0.3-0.2-0.5-0.4-0.7-0.7C3,46,2.9,46,2.9,46c-0.2,0-0.3,0-0.5,0.1c-0.2,0.1-0.4,0-0.5-0.2c-0.1-0.2-0.2-0.2-0.4-0.1
				c-0.1-0.1-0.2-0.2-0.3-0.3c0-0.1,0.1-0.3-0.1-0.4C1,45.1,1,44.9,1,44.8c0-0.3,0-0.6,0.1-0.8c0,0,0-0.1,0-0.1
				C1.4,43.5,1.8,43.2,2.1,42.9z M60.8,22.9c0.2,0,0.3-0.2,0.3-0.4c0-0.2,0.1-0.4,0.1-0.7c0.1-0.3,0.2-0.5,0.2-0.8
				c0-0.1,0-0.1,0.1-0.2c0.1-0.2,0.2-0.4,0.2-0.6c0,0,0-0.1,0-0.1c0.1-0.2,0.2-0.4,0.3-0.6c0.1-0.2,0.2-0.3,0.2-0.5
				c0.1-0.2,0.1-0.3,0.2-0.5c0.1-0.2,0.3-0.3,0.2-0.5c0,0,0-0.1,0-0.1c0.1-0.3,0.3-0.7,0.3-1c0-0.2,0-0.4,0-0.6
				c0-0.3-0.1-0.6-0.3-0.8c-0.1,0-0.1-0.1-0.2-0.1c0,0-0.1,0.1-0.1,0.2c0,0-0.1,0.1-0.1,0.1c-0.1,0-0.1,0-0.2,0.1
				c0,0.1-0.1,0.2-0.2,0.1c-0.1-0.1-0.3,0-0.4-0.1c0,0,0,0,0,0.1c0.1,0,0.2,0.1,0.3,0.1c-0.1,0.2-0.2,0.1-0.3,0.1
				c-0.1,0.2-0.1,0.2-0.3,0.3c-0.1,0-0.1,0.1-0.2,0.1c0,0-0.1,0-0.1,0.1c0-0.1-0.1-0.1-0.1-0.2c0,0-0.1,0.1-0.1,0.1
				c0,0,0,0.1-0.1,0.1c-0.1,0.1-0.2,0.2-0.3,0.3c-0.2,0.2-0.4,0.2-0.6,0.3c0,0.1,0,0.2,0,0.3c-0.2,0-0.4,0-0.6,0
				c-0.2,0-0.5,0-0.7,0.1c-0.1,0-0.1,0.1-0.1,0.2c-0.1,0.1-0.2,0.1-0.3,0.2c-0.1,0.1-0.3,0.2-0.3,0.4c0,0.2-0.1,0.2-0.3,0.1
				c-0.1,0-0.1-0.1-0.2,0c-0.1,0.1-0.2,0.1-0.3,0c-0.1-0.1-0.2,0-0.3,0.1c0,0-0.1,0.1-0.1,0.1c-0.3,0.1-0.4,0.2-0.3,0.4
				c0,0.1,0,0.2,0.1,0.2c0.1,0.1,0.1,0.3,0.3,0.3c0.1,0.2,0,0.4-0.2,0.5c-0.1,0.1-0.2,0.1-0.2,0c0,0-0.1-0.1-0.1-0.1
				c-0.1,0-0.3-0.1-0.4,0.1c0,0-0.1,0-0.1,0c-0.1-0.1-0.1-0.1-0.1-0.2c-0.1-0.1-0.5-0.3-0.6-0.3c0,0,0,0-0.1,0c-0.1,0-0.2,0-0.3,0.1
				c0-0.1,0.1-0.2,0.1-0.3c0-0.1,0-0.1-0.1-0.1c-0.1,0-0.1,0.1-0.2,0.1c0-0.1,0.1-0.1,0.1-0.2c-0.1,0-0.1,0-0.2,0
				c-0.2,0.1-0.4,0.3-0.6,0.4c-0.1,0.1-0.2,0.2-0.1,0.3c-0.1,0.1-0.1,0.2-0.2,0.3c-0.1,0.1-0.1,0.1-0.2,0.2c-0.1,0-0.2,0.1-0.1,0.2
				c0.1,0.1,0,0.2-0.1,0.2c-0.1,0.1-0.2,0.1-0.3,0.2c-0.2,0.3-0.4,0.5-0.5,0.8c0,0-0.1,0.1-0.1,0.1c0,0.1-0.1,0.1-0.1,0.2
				c0,0,0,0.1,0,0.1c-0.1,0.2-0.2,0.4-0.4,0.5c-0.1,0.1-0.2,0.1-0.1,0.3c-0.1,0.1-0.2,0.1-0.2,0.2c-0.2,0.2-0.4,0.4-0.6,0.6
				c0,0-0.1,0.1-0.1,0.2c0,0.1-0.1,0.1-0.2,0.2c-0.1,0-0.2,0.1-0.2,0.1c-0.1,0.2-0.3,0.3-0.4,0.5c-0.2,0.2-0.4,0.3-0.4,0.6
				c0,0,0,0-0.1,0.1c-0.1,0.1-0.2,0.2-0.2,0.2c0,0-0.1,0.1-0.1,0.1c-0.2,0-0.2,0.1-0.2,0.2c-0.2,0.2-0.4,0.4-0.6,0.7c0,0,0,0,0,0
				c0,0.2-0.1,0.4-0.3,0.5c-0.2,0.2-0.3,0.4-0.5,0.6c-0.2,0.2-0.4,0.4-0.7,0.5c-0.2,0.2-0.4,0.4-0.8,0.5c0,0-0.1,0-0.1,0.1
				c-0.1,0.2-0.2,0.3-0.4,0.3c0,0-0.1,0-0.1,0.1c-0.2,0.2-0.4,0.4-0.6,0.6c-0.2,0.2-0.4,0.3-0.6,0.4c-0.1,0-0.2,0.1-0.3,0.3
				c0,0.1-0.1,0.1-0.1,0.1c0,0-0.1,0-0.1,0.1c-0.1,0.2-0.3,0.3-0.4,0.4c-0.4,0.4-0.8,0.8-1.3,1.2c-0.1,0.1-0.2,0.2-0.3,0.2
				c-0.1,0.1-0.2,0.1-0.2,0.2c0,0.1-0.1,0.2-0.2,0.2c-0.1,0-0.1,0-0.2,0.1c-0.1,0.1-0.3,0.2-0.4,0.3c0,0-0.1,0.1-0.1,0.1
				c-0.2,0.3-0.5,0.5-0.8,0.8c-0.2,0.2-0.4,0.3-0.7,0.5c-0.3,0.2-0.5,0.4-0.8,0.6c-0.2,0.1-0.4,0.3-0.6,0.5c0,0-0.1,0.1-0.1,0.1
				c-0.2,0-0.4,0.1-0.5,0.3c-0.1,0.1-0.2,0.2-0.3,0.3c-0.1,0.1-0.2,0.1-0.3,0.2c-0.1,0.1-0.2,0.2-0.3,0.3c-0.1,0.1-0.2,0-0.3,0.1
				c-0.1,0.2-0.4,0.2-0.5,0.3c-0.1,0.1-0.3,0.2-0.4,0.3c-0.1,0.1-0.3,0.1-0.4,0.3c0,0,0,0,0,0c-0.1,0.1-0.2,0.2-0.3,0.2
				c-0.3,0.1-0.4,0.4-0.7,0.6c-0.1,0-0.1,0-0.2,0.1c-0.1,0-0.2,0.1-0.3,0.1c-0.1,0-0.1,0.1-0.1,0.1c-0.4,0.2-0.7,0.3-1,0.7
				c0,0-0.1,0-0.1,0c-0.2,0-0.4,0.1-0.5,0.3c-0.1,0.1-0.2,0.2-0.4,0.3c-0.2,0-0.3,0.1-0.5,0.2c0,0,0,0,0,0c-0.1,0-0.2,0.1-0.3,0.1
				c-0.1,0-0.2,0.1-0.3,0.1c-0.1,0.1-0.3,0.2-0.4,0.3c-0.1,0.1-0.2,0.1-0.3,0.2c-0.2,0.1-0.5,0.2-0.7,0.3c-0.2,0.1-0.4,0.3-0.6,0.4
				c-0.1,0.1-0.2,0.4-0.2,0.5c0,0.1,0,0.2-0.1,0.1c-0.2,0-0.3,0-0.4,0.1c0,0,0,0,0,0c-0.2,0.1-0.4,0.2-0.6,0.3
				c-0.1,0.1-0.1,0.2,0,0.4c0,0,0.1,0.1,0,0.2c-0.1,0.3-0.1,0.6-0.3,0.8c0,0,0,0,0,0c-0.1-0.1-0.1-0.1-0.3,0
				c-0.2,0.1-0.3,0.1-0.5,0.1c-0.2,0-0.3,0-0.5,0c0,0,0,0-0.1,0c-0.1,0-0.2,0.1-0.2,0.1c-0.1,0-0.2,0.1-0.1,0.2
				c0.1,0.1,0.1,0.2,0.1,0.3c0.1,0.1,0,0.3,0.3,0.4c0,0,0,0.1,0,0.1c-0.1,0.3-0.2,0.5-0.2,0.8c0,0.1,0,0.2,0.1,0.2
				c0.2,0,0.2,0.1,0.2,0.2c0,0.1,0,0.2,0.1,0.3c0,0.1,0.1,0.2-0.1,0.3c-0.1,0.1-0.2,0.2-0.1,0.3c0,0.1,0,0.2,0.1,0.3
				c-0.2,0.1-0.3,0.3-0.3,0.5c0,0.3,0,0.3-0.2,0.4c0,0,0,0.1,0,0.1c0,0.1,0,0.2,0,0.3c-0.2,0.2-0.5,0.5-0.8,0.6c0,0-0.1,0-0.1,0
				c-0.1-0.1-0.1-0.2-0.1-0.3c0-0.2,0-0.4-0.3-0.5c-0.1,0-0.2-0.1-0.3-0.2c-0.2,0-0.1,0.1-0.1,0.2c-0.1,0-0.3-0.1-0.4-0.1
				c-0.1,0-0.2-0.1-0.2-0.2c0-0.1,0-0.1-0.1-0.2c0,0-0.1-0.1-0.2-0.1c0,0.1,0,0.2,0,0.2c0.2,0.3,0.1,0.4-0.2,0.7c0-0.2,0-0.4,0-0.5
				c0-0.1,0-0.2-0.1-0.1c-0.2,0-0.3,0.1-0.5,0.2c-0.1,0.1-0.2,0.1-0.3,0c-0.1-0.1-0.2-0.1-0.3,0c-0.1,0-0.3,0-0.3,0.2c0,0,0,0,0,0
				c-0.1,0.1-0.2,0.1-0.3,0.2c-0.1,0.1-0.2,0.1-0.3,0.2c-0.2,0.2-0.5,0.3-0.7,0.2c-0.2,0-0.4-0.1-0.6-0.2c0,0,0,0,0,0
				c-0.1,0.1-0.2,0.2-0.3,0c-0.1-0.1-0.2,0-0.4,0c-0.1,0-0.1,0.1-0.2,0.1c0,0,0,0.1,0,0.1c0.1,0.1,0.2,0.3,0.3,0.5
				c0.1-0.1,0.2-0.1,0.3-0.1c0.1,0.1,0.3,0.1,0.4,0c0,0,0,0,0,0c0.1,0.1,0.2,0.3,0.3,0.4c0,0,0,0,0,0c0,0,0,0.1,0,0.1
				c0,0,0.1-0.1,0.1-0.1c0,0,0.1-0.1,0.1-0.1c0,0,0.1,0.1,0.1,0.1c0,0.1,0,0.2,0.1,0.3c0,0,0.1,0.1,0.1,0.1c0,0,0.1-0.1,0.1-0.1
				c0-0.1,0-0.2,0-0.3c0-0.1,0.1-0.2,0.2-0.1c0.1,0.1,0.1,0,0.2,0c0,0,0.1,0,0.1,0c0.1,0,0.1,0.1,0.1,0.1c0,0-0.1,0.1-0.1,0.1
				c0,0.1-0.1,0.2-0.1,0.2c0,0,0.1,0.1,0.1,0.1c0.1,0.1,0.1,0.1,0.2,0.1c0.1,0,0.1,0.1,0.2,0.2c0.3,0.1,0.5,0.1,0.8,0.2c0,0,0,0,0,0
				c0.1,0,0.3,0,0.4,0.1c0.1,0,0.2,0.1,0.3,0.1c0.2,0,0.3,0,0.5,0c0.2,0,0.4-0.1,0.5-0.3c0-0.1,0.1-0.1,0.2-0.1
				c0.2,0,0.3-0.1,0.3-0.3c0-0.1,0.1-0.1,0.2,0c0,0,0.1,0.1,0.1,0.2c0,0.1,0.1,0.1,0.1,0.2c0.1,0.1,0.2,0.3,0.4,0.4
				c0,0,0.1,0.1,0,0.1c-0.1,0.3,0,0.6-0.2,0.9c-0.1,0.1-0.1,0.2,0.1,0.3c0,0,0.1,0.1,0.1,0.1c0,0.2,0,0.2,0.2,0.2c0.1,0,0.1,0,0.2,0
				c0,0.1,0,0.1,0.1,0.2c0.2-0.3,0.3-0.4,0.5-0.2c-0.1,0.1-0.2,0.1-0.2,0.2c0,0.1-0.1,0.2,0,0.2c0.1,0.1,0.2,0.2,0.4,0.3
				c0.3,0,0.5,0.1,0.8,0c0.2-0.1,0.5-0.1,0.7-0.2c0.1,0,0.2,0,0.2-0.1c0.2-0.1,0.4-0.1,0.5-0.2c0.2-0.1,0.3-0.1,0.5-0.1
				c0.2,0,0.2,0,0.3-0.2c0.1-0.2,0.1-0.4,0.4-0.5c0.1,0,0.3-0.1,0.4-0.1c0.1,0,0.2,0,0.2,0.1c0,0,0.1,0.1,0.2,0
				c0.1,0,0.1-0.1,0.2-0.1c0.1-0.1,0.3-0.2,0.4-0.1c0.2,0.1,0.3,0.3,0.5,0.2c0,0,0,0,0.1,0c0,0,0.1,0,0.1,0c0.1,0,0.2,0,0.3,0
				c0.1,0,0.2,0,0.3-0.1c0-0.1,0.2-0.1,0.3-0.2c0.1-0.1,0.2-0.1,0.3-0.2c0.1,0,0.1-0.1,0.1-0.1c0,0,0.1,0.1,0.1,0.1
				c0.1-0.1,0.2-0.2,0.3,0c0,0,0.1,0,0.1,0c0.2,0,0.4,0.1,0.6,0c0.2-0.1,0.5-0.1,0.8-0.3c0.3-0.2,0.6-0.3,0.9-0.4
				c0.4-0.2,0.8-0.3,1.2-0.5c0.3-0.1,0.5-0.2,0.8-0.4c0.2-0.1,0.4-0.2,0.5-0.3c0.2-0.1,0.5-0.3,0.7-0.4c0.1-0.1,0.3-0.1,0.4-0.2
				c0.3-0.2,0.5-0.3,0.7-0.5c0.4-0.2,0.8-0.5,1.2-0.7c0.4-0.3,0.9-0.6,1.3-0.9c0.4-0.3,0.8-0.6,1.1-0.9c0.2-0.2,0.5-0.3,0.7-0.6
				c0.1-0.1,0.3-0.2,0.4-0.3c0.1-0.1,0.2-0.2,0.3-0.2c0.3-0.2,0.6-0.4,0.9-0.7c0.2-0.2,0.3-0.3,0.5-0.4c0.2-0.1,0.4-0.4,0.6-0.5
				c0.2-0.2,0.4-0.3,0.6-0.5c0.1-0.1,0.2-0.2,0.3-0.3c0.2-0.2,0.4-0.3,0.6-0.5c0.1-0.1,0.3-0.3,0.4-0.4c0.2-0.2,0.4-0.4,0.6-0.6
				c0,0,0.1-0.1,0.1-0.2c0-0.3,0.2-0.4,0.4-0.4c0.1,0,0.1,0,0.2-0.1c0.1-0.1,0.1-0.1,0.2-0.2c0.2-0.1,0.3-0.3,0.5-0.4
				c0.2-0.2,0.4-0.5,0.7-0.7c0.3-0.3,0.5-0.6,0.8-0.9c0-0.1,0.1-0.1,0.1-0.2c0-0.2,0.1-0.3,0.3-0.4c0.1-0.1,0.3-0.1,0.4-0.2
				c0.2-0.3,0.5-0.5,0.7-0.8c0.2-0.3,0.5-0.5,0.7-0.9c0,0,0.1-0.1,0.1-0.1c0,0,0.1-0.1,0.1-0.1c0.2-0.2,0.3-0.4,0.4-0.6
				c0.1-0.2,0.3-0.4,0.4-0.6c0.2-0.2,0.2-0.5,0.4-0.7c0,0,0-0.1,0-0.1c0.1-0.2,0.2-0.4,0.3-0.5c0.1-0.1,0.2-0.3,0.2-0.4
				c0.1-0.2,0.1-0.4,0.3-0.5c0,0,0.1-0.1,0.1-0.1c0-0.1,0-0.3,0-0.4c0-0.1,0-0.1,0.1-0.2c0.1-0.1,0.1-0.1,0.2-0.1
				c0,0,0.1-0.1,0.1-0.1c-0.1-0.1,0-0.2,0.1-0.2c0.1,0,0.1-0.1,0.2-0.1c0.1-0.1,0.1-0.2,0.3-0.2c0.1,0,0.1-0.1,0.2-0.1
				c0.2-0.4,0.5-0.7,0.6-1.1c0-0.2,0.2-0.3,0.2-0.4c0-0.1,0-0.2,0.1-0.3c0-0.1,0.1-0.2,0.1-0.2c0.3-0.2,0.4-0.5,0.5-0.9
				c0,0,0-0.1,0-0.1c-0.1-0.3-0.1-0.3,0.2-0.3c0,0,0.1,0,0.1,0c0.1,0,0.1-0.1,0.1-0.1c0-0.2,0.1-0.4,0.2-0.6
				c0.2-0.2,0.2-0.5,0.4-0.6c0,0,0-0.1,0-0.1c0,0,0-0.1,0-0.1c0.1,0,0.1-0.1,0.1-0.2c0,0,0-0.1,0.1-0.1c0-0.1,0.1-0.2,0.1-0.2
				c0.1-0.3,0.2-0.5,0.4-0.7c0.1-0.1,0.1-0.2,0.1-0.3c0-0.2,0-0.3-0.1-0.5c-0.1,0-0.1,0-0.2,0.1c0-0.2-0.1-0.2-0.3-0.1
				c-0.1,0.1-0.4-0.1-0.4-0.2c0,0,0-0.1,0-0.1c0,0,0-0.1,0-0.1c-0.1-0.2,0-0.3,0.1-0.4c0.1-0.1,0.2-0.2,0.3-0.3
				c0-0.1,0.1-0.1,0.1-0.2c0-0.1,0.1-0.2,0.1-0.2C60.9,23.2,60.9,23.1,60.8,22.9z M22.2,48.3c0-0.1,0-0.1,0-0.1
				c0-0.2,0.2-0.2,0.2-0.3c0.1-0.1,0.1-0.2,0.1-0.3c0,0,0.1,0,0.1,0c0.1,0.1,0.2,0.1,0.4,0c0,0,0.1-0.1,0.2-0.1
				c0.3,0,0.5-0.2,0.4-0.5c0,0-0.1,0-0.1-0.1c0,0-0.1,0-0.2,0c0.1-0.1,0.1-0.1,0.1-0.2c0,0,0-0.1,0-0.2c0-0.1-0.1-0.2-0.1-0.3
				c0.2-0.1,0.3-0.3,0.4-0.4c-0.1-0.1-0.1-0.2-0.2-0.2c0,0,0,0,0,0c0,0,0,0,0.1,0c0.1,0.1,0.2,0.2,0.3,0.1c0.1-0.1,0.2-0.2,0.2-0.3
				c0-0.1,0-0.2,0.1-0.3c0,0,0-0.1,0-0.1c0,0-0.1,0-0.1,0c-0.1,0-0.1,0.1-0.2,0.1c0,0-0.1,0-0.1,0c-0.1,0.2-0.3,0.3-0.4,0.3
				c-0.1,0.1-0.1,0.2-0.2,0.2c0,0-0.1,0.1-0.2,0.1c-0.2,0.2-0.4,0.4-0.7,0.4c0,0-0.1,0.1-0.1,0.1c0.2,0.1,0.2,0.1,0.1,0.3
				c0,0-0.1,0.1-0.1,0.1C22.1,46.9,22,47,22,47c0,0-0.1-0.1-0.1-0.1c-0.1,0.1-0.1,0.2-0.2,0.3c0.2,0.2,0.2,0.2,0,0.4
				c0,0,0,0.1,0,0.1c0,0.1,0.1,0.2,0.1,0.4c0,0.1,0.1,0.2,0.2,0.1c0,0,0.1,0,0.2,0C22.1,48.2,22.2,48.3,22.2,48.3z M22.9,48.5
				c0.1,0.1,0.2,0.1,0.2,0.2c0.1,0.2,0.4,0.2,0.5,0c0-0.1,0.1-0.1,0.1-0.2c0.1-0.1,0-0.3-0.1-0.3c0,0-0.1,0-0.1,0
				c0,0.2-0.2,0.2-0.3,0.2C23.1,48.3,23,48.4,22.9,48.5z M56.2,19.5c0,0,0-0.1,0-0.2c0,0,0,0-0.1-0.1c0,0-0.1,0.1-0.1,0.1
				c0,0.1-0.1,0.2-0.3,0.1c0,0-0.1,0-0.1,0c-0.1,0-0.1,0.1-0.1,0.2c-0.1,0.1,0,0.1,0.1,0.1c0.1,0,0.2,0,0.2,0
				C55.9,19.7,56,19.6,56.2,19.5z M60.9,24.2c-0.2,0.1-0.1,0.2,0,0.3c0,0,0.1,0,0.2,0.1c0-0.1,0-0.2,0-0.4
				C61.1,24.2,61,24.2,60.9,24.2z M56.6,19c0.1-0.2,0.2-0.3,0.3-0.5C56.5,18.5,56.4,18.8,56.6,19z M26.1,43.9c0.1,0,0.2,0,0.2,0
				c0-0.1,0-0.2,0-0.2c0,0-0.1,0-0.2,0C26.1,43.7,26.1,43.8,26.1,43.9z M24.5,54.2c0.2,0.1,0.3,0,0.2-0.4
				C24.7,53.9,24.6,54,24.5,54.2z M23.3,53.3C23.3,53.3,23.3,53.3,23.3,53.3c0-0.1-0.1-0.2-0.2-0.3c0,0-0.1,0-0.1,0c0,0,0,0.1,0,0.1
				c0,0,0.1,0.1,0.1,0.1C23.2,53.3,23.2,53.3,23.3,53.3z M23.8,53.9C23.7,53.9,23.7,53.8,23.8,53.9c-0.1-0.1-0.2,0-0.2,0.2
				C23.7,54,23.7,53.9,23.8,53.9z M56.3,19C56.4,19,56.4,19,56.3,19c0.1-0.1,0.1-0.1,0-0.2c0,0-0.1,0-0.1,0c0,0,0,0.1,0,0.1
				C56.2,19,56.3,19,56.3,19z M25.8,43.9c0.1,0,0.1,0,0.1,0c0,0,0-0.1,0-0.1c0,0-0.1,0-0.1,0C25.9,43.8,25.9,43.8,25.8,43.9z
				 M17.4,49.9C17.4,49.9,17.4,49.9,17.4,49.9c-0.1-0.1-0.1-0.1-0.2-0.1c0,0,0,0.1,0,0.1C17.3,49.9,17.3,49.9,17.4,49.9z"/>
			<path class="st1" d="M37.9,34.6c0.1-0.1,0.3-0.2,0.4-0.3c0,0,0,0,0,0C38.2,34.4,38,34.5,37.9,34.6C37.9,34.6,37.9,34.6,37.9,34.6
				z"/>
			<path class="st1" d="M35.1,38.4c0.2-0.2,0.3-0.3,0.5-0.5c0.1-0.1,0.3-0.1,0.3,0c0.1,0.1,0,0.1-0.1,0.2c-0.1,0-0.1,0.1-0.2,0.2
				c-0.1,0.1-0.2,0.2-0.3,0.3c-0.2,0.1-0.4,0.1-0.4,0.3c0,0-0.1,0-0.1,0c0-0.1-0.1-0.2,0.1-0.2C35,38.6,35.1,38.5,35.1,38.4
				C35.1,38.4,35.1,38.4,35.1,38.4z"/>
			<path class="st1" d="M35.9,43.3c0,0.1-0.1,0.2-0.2,0.3c-0.2,0-0.4,0-0.5,0c-0.1,0-0.1-0.2,0-0.3C35.3,43.1,35.7,43,35.9,43.3z"/>
			<path class="st1" d="M33.4,39.5c0.1,0,0.2-0.1,0.3-0.1c0.1,0,0.1,0.1,0.2,0.2c0,0,0,0.1-0.1,0.1c-0.1,0-0.1,0.1-0.2,0.1
				c0,0-0.1,0-0.1,0c0-0.1,0-0.1,0-0.2c0,0,0.1-0.1,0.1-0.1C33.5,39.6,33.5,39.5,33.4,39.5C33.4,39.5,33.4,39.5,33.4,39.5z"/>
			<path class="st1" d="M20.9,51.2c-0.1,0-0.2,0-0.3,0c0-0.1,0-0.2,0-0.2c0.1-0.1,0.2-0.1,0.3,0C21,51,20.9,51,20.9,51.2z"/>
			<path class="st1" d="M34.7,44.8c-0.1,0-0.2,0-0.3,0c0-0.1,0-0.2,0-0.2c0.1-0.1,0.2,0,0.3,0C34.7,44.6,34.7,44.7,34.7,44.8z"/>
			<path class="st1" d="M39,37.1c-0.1,0.1-0.2,0.1-0.3,0c-0.1-0.1-0.1-0.1,0-0.2c0.1-0.1,0.2-0.1,0.2,0C39,36.9,39,37,39,37.1z"/>
			<path class="st1" d="M54.9,20.4c0-0.1,0.1-0.2,0.1-0.2c0,0,0.1,0,0.1,0c0,0,0,0.1,0,0.1C55,20.3,55,20.3,54.9,20.4z"/>
			<path class="st1" d="M55,20.7c0.1-0.1,0.1-0.1,0.1-0.2c0,0,0.1-0.1,0.1,0c0,0,0.1,0.1,0.1,0.1c0,0,0,0.1-0.1,0.1
				C55.2,20.7,55.1,20.7,55,20.7z"/>
			<path class="st1" d="M54.7,20.1c0,0.1,0,0.2,0.1,0.2c0,0-0.1,0-0.1,0C54.7,20.3,54.7,20.2,54.7,20.1
				C54.7,20.2,54.7,20.2,54.7,20.1z"/>
			<path class="st1" d="M26.9,45c-0.1,0-0.1,0-0.1,0c0,0,0-0.1,0-0.1c0,0,0.1,0,0.1,0C26.9,44.9,26.9,44.9,26.9,45z"/>
			<path class="st1" d="M36.7,37.6c-0.1,0-0.1-0.1-0.2-0.1c0,0,0-0.1,0.1-0.1C36.7,37.4,36.7,37.5,36.7,37.6
				C36.7,37.6,36.7,37.6,36.7,37.6z"/>
			<path class="st1" d="M36.2,37.9c-0.1,0-0.1,0-0.1,0c0-0.1,0-0.1,0-0.2c0,0,0.1,0,0.1,0C36.1,37.8,36.2,37.8,36.2,37.9z"/>
			<path class="st1" d="M33,39.7c0.1,0,0.1,0,0.1,0c0,0,0,0.1,0,0.1c0,0-0.1,0-0.1,0C33,39.8,33,39.8,33,39.7z"/>
		</g>
	</g>
	<g>
		<g>
			<path class="st0" d="M92.3,18.9c-2.2,3.6-2.4,6.9-0.7,10.9c1,2.4,1,5.1,2.6,7.1c3.9,5.3,6.8,12.8,13,15.6c1.4,0.7,3,0.8,4.5,1.3
				c1.3,0.6,2.5,1.3,3.7,1.7c2.7,1,5.4,1.5,8.2,1.7c1.2,0.1,2.4,0.1,3.6,0.2c1.7,0.2,2.7,1,4.1,1.7c2.4,1.1,6.5,0.5,8.8-0.3
				c2-0.9,3.5-2.8,4.8-4.5c2-2.9-3-4.9-4.7-6.4c-2.7-1.9-4.2-4.8-6.6-6.9c-2.3-2.2-5.2-3.8-8-5.7c-4.9-3.4-10.7-4.7-15-9
				c-2.5-2.3-4.6-4.5-7.3-6.5c-1.8-1.3-3.7-3.1-5.5-4.4c-0.3-0.2-0.7-0.5-1-0.6"/>
		</g>
		<g>
			<path class="st1" d="M97.6,1.8C97.8,2,98,2.3,98.1,2.5c0.1,0.2,0.1,0.4,0.2,0.6c0,0.1,0,0.1,0,0.2c0.2,0.3,0,0.5-0.2,0.7
				C98,4.3,97.9,4.4,98,4.7c0.1,0.6,0.1,1.2,0,1.8c-0.1,0.7-0.2,1.4-0.3,2.2c-0.1,0.9-0.1,1.8,0,2.7c0.1,0.8,0.2,1.6,0.5,2.4
				c0.3,0.6,0.6,1.2,1.1,1.7c0.4,0.4,0.7,0.8,1.1,1.3c0.4,0.6,0.9,1.1,1.3,1.7c0.3,0.4,0.6,0.8,0.8,1.2c0.2,0.4,0.4,0.8,0.7,1.1
				c0.3,0.4,0.5,0.8,0.8,1.3c0.3,0.5,0.6,1,1,1.5c0.3,0.4,0.5,0.8,0.8,1.2c0.2,0.3,0.4,0.6,0.6,0.9c0.3,0.4,0.6,0.8,0.9,1.2
				c0.2,0.2,0.4,0.5,0.5,0.8c0.1,0.1,0.2,0.2,0.2,0.3c0.1,0.2,0.3,0.3,0.4,0.4c0.2,0.2,0.3,0.4,0.5,0.5c0.2,0.3,0.5,0.5,0.7,0.8
				c0.1,0.1,0.3,0.2,0.3,0.4c0.2,0.3,0.6,0.4,0.8,0.7c0.3,0.4,0.7,0.7,1,1c0,0,0.1,0.1,0.1,0.1c0.3,0.1,0.5,0.3,0.7,0.5
				c0.2,0.2,0.5,0.4,0.7,0.6c0.1,0.1,0.2,0.2,0.3,0.3c0.2,0.2,0.4,0.4,0.7,0.4c0,0.1,0,0.1,0,0.1c0.1,0,0.2,0.1,0.3,0
				c-0.1,0.2,0.1,0.3,0.2,0.3c0.1,0,0.1,0.1,0.2,0.1c0,0,0.1,0.1,0.1,0.1c0.3-0.1,0.3,0.2,0.5,0.3c0.2,0.1,0.3,0.3,0.5,0.3
				c0,0,0,0,0,0c0.1,0.2,0.3,0.2,0.5,0.2c0,0,0.1,0.1,0.1,0.1c0,0-0.1,0-0.2,0.1c0.3,0,0.5,0.2,0.7,0.4c0.1,0.1,0.3,0.2,0.4,0.3
				c0.4,0.2,0.7,0.4,1.1,0.6c0.2,0.1,0.4,0.3,0.7,0.4c0.3,0.2,0.7,0.3,1,0.5c0.2,0.1,0.4,0.2,0.7,0.4c0.2,0.1,0.5,0.2,0.7,0.4
				c0.1,0.1,0.2,0.1,0.3,0.2c0.2,0.1,0.5,0.3,0.7,0.4c0.2,0.1,0.5,0.2,0.7,0.3c0.2,0.1,0.5,0.2,0.7,0.3c0.2,0.1,0.4,0.2,0.7,0.3
				c0.2,0.1,0.4,0.2,0.7,0.3c0,0,0.1,0,0.1,0c0.3,0.1,0.5,0.2,0.8,0.3c0.2,0.1,0.5,0.2,0.7,0.3c0.3,0.1,0.6,0.2,0.9,0.4
				c0.3,0.1,0.6,0.2,0.9,0.3c0.1,0,0.1,0.1,0.2,0.1c0.1,0,0.3,0.1,0.4,0.1c0.1,0,0.3,0.1,0.4,0.1c0.7,0.2,1.3,0.4,2,0.6
				c0.6,0.2,1.1,0.4,1.7,0.5c0.4,0.1,0.9,0.2,1.3,0.3c0.3,0.1,0.6,0.2,0.9,0.3c0.6,0.1,1.1,0.3,1.7,0.4c0.6,0.2,1.2,0.3,1.8,0.5
				c0.5,0.1,1,0.2,1.4,0.4c0.6,0.2,1.1,0.3,1.7,0.5c0.3,0.1,0.7,0.2,1,0.3c0.6,0.2,1.3,0.5,1.9,0.7c0.7,0.3,1.3,0.7,2,1
				c0.7,0.4,1.5,0.8,2.2,1.3c0.5,0.3,1.1,0.6,1.6,0.9c0.4,0.3,0.8,0.6,1.2,0.9c0.1,0.1,0.1,0.1,0.2,0.1c0.2,0.1,0.4,0.3,0.5,0.5
				c0.1,0.2,0.2,0.5,0.2,0.7c0,0.3-0.2,0.5-0.2,0.8c0,0.1,0,0.1,0,0.2c-0.5,0.8-1,1.6-1.5,2.5c0,0-0.1-0.1-0.1-0.1
				c-0.1,0-0.2-0.1-0.3-0.1c-0.2,0-0.3,0.1-0.5,0.2c-0.2,0.1-0.5,0.2-0.7,0.3c0,0-0.1,0-0.1,0c-0.2,0.1-0.4,0.1-0.6,0.2
				c-0.2,0.1-0.4,0.3-0.6,0.3c-0.2,0.1-0.4,0.1-0.6,0.3c-0.1,0.1-0.3,0.1-0.5,0.2c-0.4,0.2-0.8,0.4-1.3,0.5
				c-0.2,0.1-0.5,0.1-0.7,0.2c-0.1,0-0.3,0.1-0.4,0.1c-0.1,0-0.2,0.1-0.4,0.1c-0.1,0-0.2,0-0.3,0.1c-0.1,0-0.2,0-0.3,0.1
				c-0.2,0.1-0.4,0.1-0.6,0.2c-0.3,0.1-0.6,0.1-0.9,0.1c-0.3,0-0.6,0-0.9,0c-0.7,0-1.3,0-2,0c0,0-0.1,0-0.1,0
				c-0.2,0-0.4-0.1-0.6-0.1c-0.5,0-1,0-1.4-0.1c-0.4,0-0.9-0.1-1.3-0.1c-0.4,0-0.7-0.1-1.1-0.1c-0.3,0-0.7-0.1-1-0.1
				c-0.5-0.1-1-0.2-1.5-0.3c-0.5-0.1-1.1-0.2-1.6-0.2c-0.4-0.1-0.8-0.1-1.2-0.2c-0.3,0-0.6-0.1-1-0.2c-0.3-0.1-0.6-0.1-0.8-0.2
				c-0.3-0.1-0.6-0.1-0.9-0.2c-0.5-0.1-1.1-0.3-1.6-0.5c-0.3-0.1-0.7-0.2-1-0.3c-0.2-0.1-0.5-0.2-0.7-0.2c-0.5-0.2-1-0.3-1.5-0.5
				c-0.4-0.1-0.7-0.2-1.1-0.4c-0.4-0.1-0.8-0.3-1.2-0.4c-0.2-0.1-0.3-0.1-0.5-0.2c-0.3-0.1-0.6-0.2-0.8-0.3
				c-0.4-0.2-0.8-0.4-1.2-0.5c0,0,0,0,0,0c-0.2-0.1-0.5-0.2-0.7-0.3c-0.4-0.2-0.8-0.4-1.2-0.6c-0.2-0.1-0.4-0.2-0.7-0.3
				c-0.4-0.2-0.8-0.3-1.2-0.5c-0.3-0.2-0.6-0.3-0.9-0.5c-0.4-0.2-0.8-0.4-1.2-0.6c-0.3-0.2-0.6-0.3-0.9-0.5
				c-0.4-0.2-0.8-0.4-1.1-0.6c-0.5-0.3-0.9-0.6-1.4-0.9c-0.7-0.5-1.5-0.9-2.2-1.4c-0.5-0.3-0.9-0.6-1.3-0.9
				c-0.4-0.3-0.8-0.6-1.2-0.9c-0.4-0.3-0.8-0.6-1.2-0.9c0,0,0,0-0.1-0.1c-0.4-0.4-0.9-0.8-1.3-1.2c-0.2-0.2-0.4-0.3-0.5-0.5
				c-0.2-0.2-0.4-0.4-0.6-0.6c-0.2-0.3-0.6-0.5-0.8-0.8c-0.2-0.3-0.5-0.5-0.7-0.8c-0.4-0.4-0.7-0.8-1.1-1.2c-0.3-0.3-0.6-0.7-0.9-1
				c-0.3-0.3-0.5-0.7-0.8-1.1c-0.2-0.3-0.4-0.5-0.6-0.8c-0.2-0.3-0.3-0.5-0.5-0.8c-0.1-0.2-0.2-0.4-0.3-0.6
				c-0.2-0.3-0.4-0.6-0.6-0.9c-0.2-0.3-0.3-0.6-0.5-0.9c-0.1-0.1-0.2-0.3-0.2-0.4c-0.2-0.4-0.4-0.7-0.5-1.1c-0.2-0.3-0.3-0.7-0.5-1
				c-0.1-0.3-0.2-0.6-0.3-0.9c-0.1-0.2-0.2-0.5-0.2-0.7c-0.1-0.5-0.2-0.9-0.4-1.4c-0.1-0.3-0.2-0.7-0.3-1c-0.1-0.4-0.1-0.7-0.2-1.1
				c-0.1-0.5-0.2-0.9-0.2-1.4c0-0.4,0-0.9,0-1.3c0-0.8,0.1-1.6,0.3-2.4c0.2-0.6,0.3-1.2,0.5-1.7c0.3-0.6,0.5-1.1,0.8-1.7
				c0.5-0.8,0.8-1.6,1.2-2.5c0,0,0,0,0,0c0.1-0.4,0.3-0.9,0.4-1.3c0.2-0.8,0.3-1.6,0.4-2.4c0.1-0.8,0.2-1.6,0.2-2.4
				c0.1-0.7,0.2-1.3,0.3-2c0.1-0.4,0.2-0.8,0.3-1.2c0.1-0.3,0.3-0.6,0.4-0.9c0-0.1,0.1-0.1,0-0.2c-0.1-0.2-0.1-0.3-0.2-0.5
				c-0.1-0.2-0.1-0.3,0-0.5c0.1-0.1,0.1-0.3,0-0.4c0.1-0.1,0.1-0.2,0.2-0.3c0.1,0,0.3,0,0.3-0.2c0-0.1,0.1-0.2,0.3-0.2
				c0.3-0.1,0.5-0.2,0.8-0.1c0,0,0.1,0,0.1,0C96.9,1.3,97.3,1.5,97.6,1.8z M132.8,52.9c0.1,0.2,0.2,0.2,0.4,0.2
				c0.2,0,0.4-0.1,0.7-0.1c0.3,0,0.5,0,0.8,0c0.1,0,0.1,0,0.2,0c0.2,0.1,0.4,0.1,0.6,0c0,0,0.1,0,0.1,0c0.2,0,0.4,0.1,0.6,0.1
				c0.2,0.1,0.4,0.1,0.6,0.1c0.2,0,0.4,0,0.5,0.1c0.2,0.1,0.4,0.2,0.6,0.1c0,0,0.1,0,0.1,0c0.4,0,0.7,0.1,1.1,0
				c0.2,0,0.4-0.1,0.6-0.2c0.3,0,0.5-0.2,0.6-0.5c0-0.1,0.1-0.2,0-0.2c0,0-0.1,0-0.2-0.1c0,0-0.1,0-0.1-0.1c0-0.1-0.1-0.1-0.2-0.1
				c-0.1,0-0.2,0-0.1-0.2c0.1-0.2-0.1-0.3-0.1-0.4c0,0,0,0-0.1,0c0,0.1,0,0.2,0,0.3c-0.2,0-0.2-0.2-0.2-0.3c-0.2,0-0.2,0-0.3-0.2
				c0-0.1-0.1-0.1-0.2-0.1c0,0-0.1-0.1-0.1-0.1c0.1-0.1,0.1-0.1,0.1-0.1c-0.1,0-0.1,0-0.2-0.1c0,0-0.1,0-0.1,0
				c-0.1-0.1-0.3-0.2-0.4-0.2c-0.2-0.1-0.3-0.3-0.4-0.5c-0.1,0-0.2,0.1-0.3,0.1c-0.1-0.2-0.2-0.4-0.2-0.6c-0.1-0.2-0.1-0.5-0.3-0.6
				c-0.1,0-0.1,0-0.2-0.1c-0.1-0.1-0.2-0.2-0.3-0.2c-0.1-0.1-0.2-0.2-0.4-0.2c-0.1,0-0.2-0.1-0.2-0.2c0-0.1,0-0.2,0-0.2
				c-0.1-0.1-0.1-0.2-0.1-0.3c0-0.1,0-0.2-0.2-0.2c0,0-0.1-0.1-0.1-0.1c-0.2-0.2-0.3-0.3-0.5-0.2c-0.1,0-0.1,0.1-0.2,0.1
				c-0.1,0.1-0.3,0.2-0.2,0.4c-0.2,0.2-0.4,0.1-0.6,0c-0.1-0.1-0.2-0.1-0.1-0.2c0,0,0-0.1,0-0.1c0-0.1,0-0.3-0.2-0.4
				c0,0,0-0.1,0-0.1c0-0.1,0.1-0.1,0.1-0.2c0.1-0.1,0.2-0.5,0.1-0.6c0,0,0,0-0.1-0.1c0-0.1-0.1-0.2-0.1-0.3c0.1,0,0.2,0,0.3,0
				c0.1,0,0.1-0.1,0.1-0.2c0-0.1-0.1-0.1-0.2-0.2c0.1,0,0.1,0,0.2,0c0-0.1,0-0.1-0.1-0.1c-0.2-0.1-0.4-0.3-0.5-0.4
				c-0.1-0.1-0.2-0.1-0.3-0.1c-0.1,0-0.2-0.1-0.3-0.1c-0.1,0-0.2-0.1-0.2-0.2c-0.1-0.1-0.1-0.1-0.2,0c-0.1,0.1-0.2,0.1-0.2,0
				c-0.1-0.1-0.1-0.2-0.2-0.2c-0.3-0.1-0.6-0.2-0.9-0.3c0,0-0.1,0-0.1,0c-0.1,0-0.1,0-0.2,0c0,0-0.1,0-0.1,0
				c-0.2-0.1-0.5-0.1-0.6-0.3c-0.1-0.1-0.2-0.1-0.3-0.1c-0.1-0.1-0.1-0.1-0.2-0.2c-0.3-0.1-0.5-0.3-0.8-0.4c0,0-0.1,0-0.2,0
				c-0.1,0-0.2,0-0.2-0.1c0-0.1-0.1-0.2-0.2-0.2c-0.2,0-0.4-0.2-0.6-0.3c-0.2-0.1-0.4-0.3-0.7-0.2c0,0,0,0-0.1,0
				c-0.1-0.1-0.2-0.1-0.3-0.2c-0.1,0-0.1-0.1-0.1-0.1c-0.1-0.1-0.2-0.1-0.3-0.1c-0.3-0.2-0.5-0.3-0.8-0.4c0,0,0,0,0,0
				c-0.2,0.1-0.4,0-0.6-0.1c-0.3-0.1-0.5-0.2-0.8-0.3c-0.2-0.1-0.5-0.3-0.7-0.5c-0.2-0.2-0.5-0.3-0.7-0.6c0,0,0,0-0.1,0
				c-0.2,0-0.3-0.1-0.3-0.3c0,0,0,0-0.1-0.1c-0.2-0.1-0.5-0.2-0.7-0.4c-0.2-0.1-0.4-0.3-0.5-0.5c-0.1-0.1-0.2-0.2-0.3-0.2
				c-0.1,0-0.1,0-0.2-0.1c0,0-0.1-0.1-0.1-0.1c-0.2,0-0.3-0.2-0.5-0.3c-0.5-0.3-1-0.6-1.5-0.9c-0.1-0.1-0.2-0.1-0.3-0.2
				c-0.1-0.1-0.2-0.1-0.3-0.1c-0.1,0-0.2,0-0.3-0.2c0-0.1-0.1-0.1-0.1-0.2c-0.1-0.1-0.3-0.2-0.4-0.3c0,0-0.1-0.1-0.1-0.1
				c-0.3-0.1-0.7-0.4-0.9-0.5c-0.2-0.2-0.4-0.3-0.6-0.5c-0.2-0.2-0.5-0.4-0.7-0.6c-0.2-0.2-0.4-0.3-0.7-0.4c0,0-0.1,0-0.1-0.1
				c0-0.2-0.2-0.3-0.4-0.4c-0.1-0.1-0.2-0.1-0.3-0.2c-0.1-0.1-0.2-0.1-0.3-0.2c-0.1-0.1-0.3-0.1-0.4-0.2c-0.1-0.1-0.1-0.2-0.2-0.3
				c-0.2-0.1-0.3-0.3-0.5-0.4c-0.1-0.1-0.3-0.2-0.4-0.3c-0.1-0.1-0.2-0.3-0.4-0.3c0,0,0,0,0,0c-0.1-0.1-0.2-0.2-0.3-0.3
				c-0.2-0.2-0.5-0.3-0.7-0.5c-0.1-0.1-0.1-0.1-0.1-0.2c-0.1-0.1-0.1-0.2-0.2-0.2c0,0-0.1-0.1-0.1-0.1c-0.3-0.3-0.5-0.6-0.9-0.7
				c0,0-0.1-0.1-0.1-0.1c-0.1-0.2-0.2-0.3-0.4-0.4c-0.2,0-0.3-0.1-0.4-0.3c-0.1-0.2-0.2-0.3-0.3-0.5c0,0,0,0,0,0
				c-0.1-0.1-0.2-0.2-0.2-0.2c-0.1-0.1-0.1-0.2-0.2-0.3c-0.1-0.1-0.3-0.2-0.4-0.3c-0.1-0.1-0.2-0.2-0.3-0.3
				c-0.2-0.2-0.3-0.4-0.5-0.6c-0.2-0.2-0.4-0.3-0.5-0.5c-0.1-0.1-0.4-0.1-0.5,0c-0.1,0.1-0.1,0-0.2,0c0-0.2-0.1-0.3-0.3-0.4
				c0,0,0,0,0,0c-0.2-0.1-0.3-0.3-0.5-0.4c-0.1-0.1-0.3-0.1-0.4,0.1c0,0-0.1,0.1-0.2,0.1c-0.3,0-0.6,0-0.9-0.1c0,0,0,0,0,0
				c0.1-0.1,0-0.2,0-0.3c-0.1-0.1-0.2-0.3-0.2-0.5c-0.1-0.2-0.1-0.3-0.2-0.5c0,0,0,0-0.1-0.1c-0.1-0.1-0.1-0.1-0.2-0.2
				c-0.1-0.1-0.1-0.1-0.2,0c-0.1,0.1-0.2,0.1-0.2,0.2c-0.1,0.1-0.3,0.1-0.3,0.3c0,0-0.1,0.1-0.1,0.1c-0.3,0-0.6,0-0.8,0
				c-0.1,0-0.2,0-0.1,0.1c0,0.2,0,0.2-0.2,0.3c-0.1,0-0.2,0.1-0.2,0.1c-0.1,0.1-0.2,0.1-0.3,0c-0.1-0.1-0.2-0.1-0.3,0
				c-0.1,0.1-0.2,0.1-0.2,0.1c-0.1-0.2-0.4-0.2-0.6-0.1c-0.3,0.1-0.3,0.1-0.5-0.1c0,0-0.1,0.1-0.1,0.1c-0.1,0-0.2,0.1-0.3,0.1
				c-0.3-0.2-0.6-0.3-0.8-0.6c0,0,0-0.1,0-0.2c0.1-0.1,0.2-0.2,0.3-0.2c0.2-0.1,0.4-0.1,0.4-0.4c0-0.1,0.1-0.2,0.1-0.3
				c0-0.2-0.1-0.1-0.2-0.1c0-0.1,0-0.3,0-0.4c0-0.1,0-0.2,0.2-0.3c0.1,0,0.1-0.1,0.1-0.1c0-0.1,0-0.1,0-0.2c-0.1,0-0.2,0-0.2,0
				c-0.2,0.2-0.4,0.3-0.7,0c0.2,0,0.3-0.1,0.5-0.1c0.1,0,0.2,0,0.1-0.1c-0.1-0.1-0.2-0.3-0.3-0.4c-0.1-0.1-0.1-0.1-0.1-0.2
				c0-0.1,0-0.2,0-0.3c-0.1-0.1-0.1-0.3-0.3-0.3c0,0,0,0,0,0c-0.1-0.1-0.2-0.2-0.2-0.3c-0.1-0.1-0.2-0.2-0.3-0.2
				c-0.3-0.1-0.4-0.4-0.4-0.6c0-0.2,0-0.4,0-0.7c0,0,0,0,0,0c-0.2,0-0.2-0.1-0.1-0.2c0.1-0.2-0.1-0.2-0.1-0.3c0-0.1-0.1-0.1-0.2-0.1
				c0,0-0.1,0-0.1,0.1c-0.1,0.1-0.2,0.3-0.3,0.4c0.1,0,0.2,0.1,0.1,0.3c0,0.1-0.1,0.3,0.1,0.4c0,0,0,0,0,0c-0.1,0.1-0.2,0.3-0.3,0.4
				c0,0,0,0,0,0c0,0-0.1,0.1-0.1,0.1c0,0,0.1,0.1,0.1,0.1c0,0,0.1,0,0.1,0.1c0,0,0,0.1-0.1,0.1c-0.1,0.1-0.2,0.1-0.3,0.1
				c0,0-0.1,0.1-0.1,0.1c0,0,0.1,0.1,0.1,0.1c0.1,0,0.2,0,0.3,0c0.1,0,0.2,0,0.1,0.2c0,0.1,0,0.2,0.1,0.2c0,0,0.1,0.1,0.1,0.1
				c0,0.1,0,0.1-0.1,0.2c0,0-0.1,0-0.1,0c-0.1,0-0.2,0-0.2,0c0,0-0.1,0.1-0.1,0.2c0,0.1,0,0.2-0.1,0.2c0,0.1-0.1,0.2-0.1,0.2
				c0,0.3,0,0.5,0.1,0.8c0,0,0,0,0,0c0,0.1,0.1,0.3,0,0.4c0,0.1,0,0.2,0,0.3c0.1,0.1,0.1,0.3,0.1,0.5c0,0.2,0.2,0.3,0.4,0.4
				c0.1,0,0.2,0.1,0.2,0.2c0.1,0.2,0.2,0.3,0.3,0.2c0.1,0,0.1,0.1,0.1,0.2c0,0.1-0.1,0.1-0.1,0.1c0,0-0.1,0.1-0.1,0.1
				c-0.1,0.1-0.2,0.3-0.3,0.5c0,0-0.1,0.1-0.1,0.1c-0.3,0-0.6,0.2-0.9,0c-0.1-0.1-0.2,0-0.3,0.1c0,0-0.1,0.1-0.1,0.1
				c-0.2,0-0.2,0.1-0.1,0.2c0,0.1,0,0.1,0.1,0.2c-0.1,0-0.1,0.1-0.2,0.1c0.4,0.1,0.4,0.2,0.4,0.4c-0.1-0.1-0.2-0.1-0.3-0.2
				c-0.1,0-0.2,0-0.2,0c-0.1,0.1-0.2,0.3-0.1,0.4c0,0.3,0.1,0.5,0.2,0.7c0.1,0.2,0.3,0.4,0.4,0.6c0,0.1,0.1,0.1,0.1,0.2
				c0.1,0.1,0.2,0.3,0.3,0.4c0.1,0.1,0.2,0.3,0.2,0.5c0.1,0.2,0.1,0.2,0.3,0.2c0.2,0,0.4,0,0.6,0.3c0.1,0.1,0.1,0.3,0.2,0.4
				c0,0.1,0.1,0.1,0,0.2c0,0,0,0.1,0,0.2c0,0.1,0.1,0.1,0.2,0.2c0.1,0.1,0.3,0.2,0.2,0.4c-0.1,0.2-0.2,0.3,0,0.5c0,0,0,0.1,0,0.1
				c0,0,0,0.1,0,0.1c0,0.1,0.1,0.2,0.1,0.3c0,0.1,0.1,0.2,0.2,0.2c0.1,0,0.2,0.1,0.3,0.2c0.1,0.1,0.2,0.2,0.3,0.3
				c0,0,0.1,0.1,0.1,0.1c0,0-0.1,0.1-0.1,0.1c0.2,0.1,0.2,0.2,0.1,0.3c0,0,0,0.1,0,0.1c0,0.2,0,0.4,0.2,0.6c0.2,0.2,0.3,0.5,0.5,0.7
				c0.3,0.2,0.4,0.5,0.6,0.8c0.3,0.3,0.5,0.7,0.8,1c0.2,0.2,0.4,0.4,0.6,0.7c0.1,0.2,0.3,0.3,0.4,0.4c0.2,0.2,0.4,0.4,0.6,0.6
				c0.1,0.1,0.2,0.3,0.3,0.4c0.2,0.2,0.4,0.4,0.7,0.6c0.3,0.3,0.7,0.7,1,1c0.4,0.4,0.8,0.7,1.2,1c0.4,0.3,0.8,0.6,1.1,0.9
				c0.2,0.2,0.4,0.4,0.7,0.5c0.2,0.1,0.3,0.2,0.4,0.3c0.1,0.1,0.2,0.1,0.3,0.2c0.3,0.2,0.6,0.5,0.9,0.7c0.2,0.1,0.4,0.2,0.6,0.4
				c0.2,0.2,0.5,0.3,0.7,0.4c0.2,0.1,0.4,0.3,0.6,0.5c0.1,0.1,0.2,0.1,0.3,0.2c0.2,0.1,0.4,0.3,0.6,0.4c0.2,0.1,0.3,0.2,0.5,0.3
				c0.2,0.1,0.5,0.3,0.7,0.4c0,0,0.1,0,0.2,0c0.2-0.1,0.4,0,0.5,0.3c0,0.1,0.1,0.1,0.1,0.1c0.1,0.1,0.2,0.1,0.2,0.1
				c0.2,0.1,0.3,0.2,0.5,0.3c0.3,0.2,0.6,0.3,0.8,0.5c0.3,0.2,0.7,0.3,1.1,0.5c0.1,0,0.2,0.1,0.2,0c0.2,0,0.3,0,0.4,0.2
				c0.1,0.1,0.2,0.2,0.3,0.3c0.3,0.2,0.6,0.3,1,0.5c0.3,0.1,0.6,0.4,1,0.4c0,0,0.1,0,0.1,0.1c0.1,0,0.1,0.1,0.2,0.1
				c0.2,0.1,0.5,0.2,0.7,0.3c0.2,0.1,0.4,0.2,0.7,0.2c0.3,0.1,0.6,0,0.8,0.2c0,0,0.1,0,0.1,0c0.2,0.1,0.4,0.1,0.6,0.2
				c0.1,0,0.3,0.1,0.4,0.1c0.2,0,0.4,0,0.5,0.2c0,0,0.1,0,0.1,0c0.1,0,0.3-0.1,0.4-0.1c0.1,0,0.1,0,0.2,0c0.1,0,0.1,0.1,0.2,0.2
				c0,0,0.1,0.1,0.1,0c0.1-0.1,0.2,0,0.2,0c0.1,0,0.1,0.1,0.2,0.1c0.1,0.1,0.3,0.1,0.3,0.2c0,0.1,0.1,0.1,0.2,0.1
				c0.4,0.1,0.8,0.3,1.2,0.3c0.2,0,0.3,0.1,0.5,0.1c0.1,0,0.2,0,0.3,0c0.1,0,0.2,0,0.2,0c0.3,0.3,0.6,0.3,1,0.3c0,0,0.1,0,0.1,0
				c0.2-0.2,0.3-0.1,0.4,0.1c0,0,0,0.1,0,0.1c0,0,0.1,0.1,0.2,0.1c0.2-0.1,0.5,0,0.7,0c0.2,0.1,0.5,0.1,0.7,0.3c0,0,0.1,0,0.1,0
				c0,0,0.1,0,0.1,0c0,0.1,0.1,0.1,0.2,0.1c0,0,0.1,0,0.1,0c0.1,0,0.2,0.1,0.3,0.1c0.3,0,0.5,0,0.8,0.2c0.1,0,0.2,0.1,0.3,0
				c0.1,0,0.3-0.1,0.4-0.2c0-0.1-0.1-0.1-0.1-0.2c0.2-0.1,0.1-0.2,0-0.3c-0.1,0,0-0.4,0-0.5c0,0,0.1,0,0.1,0c0,0,0.1,0,0.1,0
				c0.1-0.2,0.3-0.1,0.4,0c0.1,0,0.2,0.1,0.3,0.2c0.1,0,0.1,0,0.2,0.1c0.1,0,0.2,0,0.2,0.1C132.5,53,132.6,53.1,132.8,52.9z
				 M97.9,22.6c0.1,0,0.1,0,0.1,0c0.2-0.1,0.2,0.1,0.3,0.1c0.1,0,0.2,0,0.4,0c0,0,0.1,0.1,0,0.1c-0.1,0.2-0.1,0.3,0.1,0.4
				c0.1,0,0.1,0.1,0.1,0.1c0.1,0.3,0.4,0.4,0.6,0.2c0,0,0-0.1,0-0.1c0,0,0-0.1,0-0.2c0.1,0,0.1,0.1,0.2,0.1c0.1,0,0.1,0,0.2,0
				c0.1-0.1,0.2-0.1,0.3-0.2c0.2,0.1,0.3,0.2,0.4,0.3c0.1-0.1,0.1-0.2,0.2-0.2c0,0,0,0,0,0c0,0,0,0,0,0.1c-0.1,0.1-0.1,0.2,0,0.3
				c0.1,0.1,0.3,0.1,0.4,0.1c0.1,0,0.2,0,0.3,0c0,0,0.1,0,0.1,0c0,0,0-0.1-0.1-0.1c-0.1-0.1-0.1-0.1-0.2-0.2c0,0,0-0.1-0.1-0.1
				c-0.2-0.1-0.4-0.2-0.4-0.4c-0.1-0.1-0.2-0.1-0.3-0.1c-0.1,0-0.1-0.1-0.2-0.1c-0.3-0.1-0.5-0.3-0.6-0.6c0,0-0.1-0.1-0.1-0.1
				c0,0.2,0,0.2-0.2,0.1c-0.1,0-0.1,0-0.2-0.1c-0.1,0-0.2-0.1-0.2-0.2c0,0,0.1-0.1,0.1-0.2c-0.1,0-0.2-0.1-0.3-0.1
				c-0.2,0.2-0.2,0.2-0.4,0.1c0,0-0.1,0-0.1,0C98.2,21.9,98.1,22,98,22c-0.1,0.1-0.2,0.1,0,0.2c0,0,0,0.1,0,0.2
				C98,22.5,97.9,22.5,97.9,22.6z M97.9,23.3c0,0.1-0.1,0.2-0.1,0.3C97.7,23.7,97.8,24,98,24c0.1,0,0.2,0,0.2,0.1
				c0.1,0,0.3-0.1,0.3-0.2c0,0,0-0.1-0.1-0.1c-0.2,0-0.3-0.1-0.3-0.2C98.1,23.4,98,23.4,97.9,23.3z M134.9,47.5c0,0,0.1,0,0.2,0
				c0,0,0-0.1,0-0.1c-0.1,0-0.1,0-0.2,0c-0.1,0-0.2-0.1-0.2-0.2c0,0,0-0.1-0.1-0.1c-0.1,0-0.1-0.1-0.2-0.1c-0.1,0-0.1,0-0.1,0.1
				c0,0.1,0,0.2,0.1,0.2C134.6,47.3,134.7,47.4,134.9,47.5z M131.6,53.4c-0.2-0.1-0.3-0.1-0.3,0c0,0.1,0,0.1,0,0.2
				c0.1,0,0.2-0.1,0.3-0.1C131.6,53.5,131.6,53.4,131.6,53.4z M135.4,47.8c0.2,0,0.4,0.1,0.6,0.1C135.9,47.6,135.6,47.5,135.4,47.8z
				 M103.2,25.1c0,0.1,0,0.2,0.1,0.2c0.1,0,0.2,0,0.2-0.1c0,0,0-0.1,0-0.2C103.4,25.1,103.3,25.1,103.2,25.1z M92.9,26.4
				c0,0.3,0.1,0.2,0.4,0.1C93.2,26.5,93.1,26.4,92.9,26.4z M93.4,25C93.4,25,93.4,25,93.4,25c0.1-0.1,0.2-0.1,0.2-0.2
				c0,0,0-0.1,0-0.1c0,0-0.1,0-0.1,0.1c0,0-0.1,0.1-0.1,0.1C93.4,24.9,93.4,24.9,93.4,25z M93,25.6C93,25.6,93,25.5,93,25.6
				c0-0.2-0.1-0.2-0.2-0.1C92.8,25.5,92.9,25.5,93,25.6z M135.4,47.5C135.4,47.6,135.4,47.6,135.4,47.5c0.1,0,0.1,0,0.2,0
				c0,0,0-0.1,0-0.1c0,0-0.1,0-0.1,0C135.3,47.4,135.4,47.5,135.4,47.5z M103.1,24.9c0,0.1,0.1,0.1,0.1,0.1c0,0,0.1,0,0.1,0
				c0,0,0-0.1,0-0.1C103.2,24.9,103.2,24.9,103.1,24.9z M95,18.4C95.1,18.3,95.1,18.3,95,18.4c0.1-0.1,0-0.1,0-0.2c0,0-0.1,0-0.1,0
				C95,18.3,95,18.3,95,18.4z"/>
			<path class="st1" d="M115.4,34c0.1,0.1,0.3,0.2,0.4,0.3c0,0,0,0,0,0.1C115.6,34.2,115.5,34.1,115.4,34
				C115.4,34,115.4,34,115.4,34z"/>
			<path class="st1" d="M110.9,32.3c0.2,0.1,0.4,0.2,0.6,0.4c0.1,0.1,0.1,0.2,0.1,0.3c-0.1,0.1-0.1,0-0.2,0
				c-0.1-0.1-0.1-0.1-0.2-0.1c-0.1-0.1-0.2-0.2-0.3-0.2c-0.1-0.1-0.2-0.3-0.4-0.3c0,0,0-0.1,0-0.1c0.1,0,0.2-0.1,0.3,0.1
				C110.7,32.3,110.8,32.3,110.9,32.3C110.9,32.3,110.9,32.3,110.9,32.3z"/>
			<path class="st1" d="M106.5,34.4c-0.1,0-0.3,0-0.3-0.1c-0.1-0.2-0.1-0.3-0.1-0.5c0-0.1,0.1-0.2,0.2-0.1
				C106.5,33.8,106.6,34.1,106.5,34.4z"/>
			<path class="st1" d="M109.4,31c0.1,0.1,0.2,0.1,0.2,0.2c0,0.1-0.1,0.2-0.1,0.2c0,0-0.1,0-0.1,0c-0.1,0-0.1-0.1-0.2-0.2
				c0,0,0-0.1-0.1-0.1c0.1,0,0.1,0,0.2,0c0,0,0.1,0,0.1,0.1C109.4,31.1,109.4,31.1,109.4,31C109.4,31,109.4,31,109.4,31z"/>
			<path class="st1" d="M94.8,22.1c0-0.1,0-0.2-0.1-0.3c0.1,0,0.2-0.1,0.2,0c0.1,0,0.1,0.2,0.1,0.3C95,22.1,94.9,22.1,94.8,22.1z"/>
			<path class="st1" d="M104.6,33.6c0-0.1-0.1-0.2,0-0.3c0.1,0,0.2-0.1,0.2,0c0.1,0,0.1,0.2,0.1,0.2
				C104.9,33.6,104.8,33.6,104.6,33.6z"/>
			<path class="st1" d="M113.2,35.7c-0.1-0.1-0.1-0.2-0.1-0.2c0.1-0.1,0.1-0.1,0.2-0.1c0.1,0.1,0.1,0.2,0,0.2
				C113.4,35.7,113.3,35.7,113.2,35.7z"/>
			<path class="st1" d="M133.7,46.5c0.1,0,0.2,0,0.2,0c0,0,0,0.1,0,0.1c0,0-0.1,0-0.1,0C133.7,46.6,133.7,46.6,133.7,46.5z"/>
			<path class="st1" d="M133.3,46.7c0.1,0,0.1,0.1,0.2,0.1c0,0,0.1,0.1,0.1,0.1c0,0,0,0.1-0.1,0.1c0,0-0.1,0-0.1-0.1
				C133.4,46.8,133.4,46.8,133.3,46.7z"/>
			<path class="st1" d="M133.8,46.3c-0.1,0-0.2,0.1-0.2,0.1c0,0,0-0.1,0-0.1C133.6,46.3,133.7,46.3,133.8,46.3
				C133.8,46.3,133.8,46.3,133.8,46.3z"/>
			<path class="st1" d="M102.4,26.3c0-0.1,0-0.1,0-0.1c0,0,0.1,0,0.1,0c0,0,0,0.1,0,0.1C102.5,26.2,102.4,26.2,102.4,26.3z"/>
			<path class="st1" d="M112.1,33.7c0-0.1,0.1-0.1,0.1-0.2c0,0,0.1,0,0.1,0C112.3,33.6,112.2,33.6,112.1,33.7
				C112.2,33.7,112.2,33.7,112.1,33.7z"/>
			<path class="st1" d="M111.7,33.2c0-0.1,0-0.1,0-0.1c0,0,0.1,0,0.2-0.1c0,0,0,0.1,0,0.1C111.8,33.2,111.8,33.2,111.7,33.2z"/>
			<path class="st1" d="M109.1,30.6c0,0.1,0,0.1,0,0.1c0,0-0.1,0-0.1,0c0,0,0-0.1,0-0.1C109,30.7,109,30.7,109.1,30.6z"/>
		</g>
	</g>
	<g>
		<g>
			<path class="st0" d="M56.7,83.8c-4.2,0-7.2,1.6-9.6,5.1c-1.6,2.1-3.9,3.5-4.7,5.9c-2.4,6.1-7.3,12.4-6.5,19.2
				c0.2,1.6,0.9,3,1.2,4.5c0.2,1.4,0.2,2.8,0.5,4c0.5,2.8,1.6,5.4,2.8,7.9c0.5,1.1,1.2,2.1,1.7,3.1c0.7,1.6,0.5,2.8,0.7,4.4
				c0.4,2.6,3,5.8,4.9,7.3c1.7,1.2,4.2,1.6,6.3,1.7c3.5,0.2,2.6-5.1,3-7.4c0.2-3.3,1.9-6.1,2.4-9.3c0.7-3.1,0.5-6.5,0.7-9.8
				c0.3-6-1.6-11.5-0.2-17.5c0.7-3.3,1.4-6.3,1.7-9.6c0.2-2.3,0.7-4.7,0.9-7c0-0.4,0-0.9,0-1.2"/>
		</g>
		<g>
			<path class="st1" d="M74.1,79.3c-0.1,0.3-0.3,0.5-0.4,0.8c-0.1,0.2-0.3,0.3-0.4,0.5c0,0-0.1,0.1-0.2,0.1C72.9,81,72.6,81,72.4,81
				c-0.3-0.1-0.4,0-0.6,0.2c-0.4,0.4-1,0.7-1.5,0.9c-0.7,0.3-1.3,0.6-2,0.9c-0.8,0.4-1.6,0.8-2.3,1.3c-0.7,0.5-1.3,1-1.8,1.6
				c-0.4,0.5-0.7,1.1-0.9,1.8c-0.2,0.5-0.3,1.1-0.5,1.6c-0.2,0.7-0.5,1.3-0.8,2c-0.2,0.5-0.4,0.9-0.6,1.4c-0.2,0.4-0.4,0.8-0.6,1.2
				c-0.2,0.5-0.4,0.9-0.6,1.4c-0.3,0.5-0.5,1.1-0.8,1.6c-0.2,0.4-0.4,0.9-0.6,1.3c-0.1,0.3-0.3,0.6-0.4,0.9c-0.2,0.5-0.4,1-0.6,1.4
				c-0.1,0.3-0.2,0.6-0.4,0.9c0,0.1-0.1,0.2-0.1,0.3c-0.1,0.2-0.1,0.4-0.2,0.6c-0.1,0.2-0.1,0.5-0.2,0.7c-0.1,0.3-0.2,0.7-0.3,1
				c0,0.2-0.1,0.3-0.1,0.5c-0.2,0.3,0,0.7-0.2,1.1c-0.2,0.4-0.2,0.9-0.4,1.4c0,0,0,0.1,0,0.1c0.1,0.3,0,0.6-0.1,0.8
				c-0.1,0.3-0.1,0.6-0.1,0.9c0,0.1,0,0.3-0.1,0.4c0,0.3-0.1,0.5,0,0.8c-0.1,0-0.1,0-0.1,0c0,0.1,0,0.2,0.2,0.3
				c-0.2,0.1-0.2,0.2-0.2,0.3c0,0.1,0,0.2,0,0.2c0,0,0,0.1,0,0.1c0.2,0.2,0,0.4,0,0.6c0,0.2-0.1,0.4,0,0.6c0,0,0,0,0,0
				c-0.1,0.2,0,0.4,0.1,0.6c0,0,0,0.1,0,0.1c0,0-0.1,0-0.2-0.1c0.2,0.3,0,0.5,0,0.8c0,0.2,0,0.4,0,0.5c0,0.4,0,0.8,0.1,1.2
				c0,0.3,0,0.5,0,0.8c0,0.4,0.1,0.7,0.1,1.1c0,0.3,0,0.5,0,0.8c0,0.3,0,0.5,0.1,0.8c0,0.1,0,0.3,0,0.4c0,0.3,0,0.6,0,0.8
				c0,0.3,0.1,0.5,0.1,0.8c0,0.3,0.1,0.5,0.1,0.8c0,0.2,0.1,0.5,0.1,0.7c0,0.2,0.1,0.5,0.1,0.7c0,0,0,0.1,0,0.1
				c0.1,0.3,0.1,0.6,0.1,0.8c0,0.3,0.1,0.5,0.1,0.8c0.1,0.3,0.1,0.6,0.2,1c0.1,0.3,0.1,0.6,0.2,0.9c0,0.1,0,0.1,0,0.2
				c0,0.1,0.1,0.3,0.1,0.4c0,0.1,0.1,0.3,0.1,0.4c0.2,0.7,0.3,1.4,0.5,2c0.1,0.6,0.3,1.1,0.4,1.7c0.1,0.4,0.3,0.9,0.4,1.3
				c0.1,0.3,0.2,0.6,0.3,0.9c0.2,0.6,0.3,1.1,0.5,1.7c0.2,0.6,0.3,1.2,0.5,1.8c0.1,0.5,0.3,0.9,0.4,1.4c0.2,0.6,0.3,1.1,0.4,1.7
				c0.1,0.3,0.2,0.7,0.2,1c0.1,0.7,0.3,1.3,0.3,2c0.1,0.7,0.1,1.5,0.2,2.2c0,0.8,0,1.7,0.1,2.5c0,0.6,0.1,1.3,0.1,1.9
				c0,0.5-0.1,1-0.1,1.5c0,0.1,0,0.2,0,0.3c0,0.2,0,0.5-0.1,0.7c-0.1,0.2-0.3,0.4-0.5,0.6c-0.2,0.2-0.5,0.1-0.8,0.2
				c0,0-0.1,0-0.2,0.1c-1,0-1.9,0-2.9,0c0,0,0-0.1,0-0.1c0-0.1,0-0.2-0.1-0.3c-0.1-0.1-0.3-0.2-0.4-0.3c-0.2-0.1-0.4-0.3-0.6-0.4
				c0,0,0-0.1,0-0.1c-0.2-0.1-0.3-0.3-0.5-0.4c-0.2-0.1-0.4-0.2-0.6-0.3c-0.2-0.1-0.3-0.3-0.5-0.4c-0.2-0.1-0.3-0.2-0.4-0.3
				c-0.4-0.2-0.8-0.5-1.1-0.8c-0.2-0.2-0.4-0.3-0.5-0.5c-0.1-0.1-0.2-0.2-0.3-0.3c-0.1-0.1-0.2-0.2-0.3-0.3
				c-0.1-0.1-0.1-0.1-0.2-0.2c-0.1-0.1-0.1-0.2-0.2-0.2c-0.2-0.1-0.3-0.3-0.5-0.4c-0.2-0.2-0.4-0.5-0.6-0.7
				c-0.2-0.2-0.3-0.5-0.5-0.8c-0.4-0.6-0.7-1.1-1-1.7c0,0,0-0.1,0-0.1c-0.1-0.2-0.2-0.4-0.3-0.6c-0.2-0.4-0.5-0.8-0.7-1.3
				c-0.2-0.4-0.4-0.8-0.6-1.2c-0.2-0.3-0.3-0.7-0.5-1c-0.1-0.3-0.3-0.6-0.4-1c-0.2-0.5-0.4-1-0.5-1.4c-0.2-0.5-0.4-1-0.6-1.5
				c-0.2-0.4-0.3-0.8-0.5-1.1c-0.1-0.3-0.3-0.6-0.4-0.9c-0.1-0.3-0.2-0.5-0.3-0.8c-0.1-0.3-0.2-0.6-0.3-0.9
				c-0.2-0.5-0.3-1.1-0.5-1.6c-0.1-0.3-0.2-0.7-0.3-1c-0.1-0.2-0.1-0.5-0.2-0.7c-0.1-0.5-0.3-1-0.4-1.5c-0.1-0.4-0.2-0.7-0.2-1.1
				c-0.1-0.4-0.2-0.8-0.2-1.2c0-0.2-0.1-0.4-0.1-0.5c-0.1-0.3-0.1-0.6-0.2-0.9c-0.1-0.4-0.1-0.9-0.2-1.3c0,0,0,0,0,0
				c0-0.3-0.1-0.5-0.1-0.8c-0.1-0.5-0.1-0.9-0.2-1.4c0-0.2-0.1-0.5-0.1-0.7c-0.1-0.4-0.1-0.8-0.2-1.3c0-0.3,0-0.7-0.1-1.1
				c0-0.5-0.1-0.9-0.1-1.4c0-0.3,0-0.7-0.1-1c0-0.4-0.1-0.8-0.1-1.3c0-0.5,0-1.1,0-1.6c0-0.9,0-1.7,0-2.6c0-0.5,0.1-1.1,0.1-1.6
				c0-0.5,0.1-1,0.1-1.6c0-0.5,0.1-1,0.2-1.5c0,0,0-0.1,0-0.1c0.1-0.6,0.2-1.1,0.3-1.7c0-0.2,0.1-0.5,0.2-0.7
				c0.1-0.3,0.1-0.5,0.2-0.8c0.1-0.4,0.1-0.7,0.3-1.1c0.1-0.3,0.2-0.7,0.3-1c0.2-0.5,0.3-1,0.5-1.6c0.1-0.4,0.3-0.9,0.4-1.3
				c0.2-0.4,0.3-0.8,0.5-1.2c0.1-0.3,0.3-0.6,0.4-1c0.1-0.3,0.3-0.6,0.4-0.8c0.1-0.2,0.2-0.4,0.3-0.6c0.2-0.3,0.3-0.7,0.5-1
				c0.2-0.3,0.3-0.6,0.5-0.9c0.1-0.1,0.2-0.3,0.2-0.4c0.2-0.4,0.5-0.7,0.7-1c0.2-0.3,0.4-0.6,0.6-0.9c0.2-0.3,0.4-0.5,0.6-0.8
				c0.2-0.2,0.3-0.4,0.5-0.6c0.3-0.4,0.7-0.7,1-1.1c0.2-0.3,0.5-0.5,0.7-0.8c0.3-0.3,0.6-0.5,0.8-0.8c0.3-0.4,0.7-0.7,1.1-0.9
				c0.4-0.2,0.7-0.5,1.1-0.7c0.7-0.4,1.4-0.7,2.2-0.9c0.6-0.2,1.1-0.4,1.7-0.4c0.6-0.1,1.2-0.2,1.8-0.2c0.9,0,1.8-0.2,2.7-0.3
				c0,0,0,0,0,0c0.4-0.1,0.9-0.2,1.3-0.4c0.8-0.3,1.5-0.6,2.3-0.9c0.7-0.3,1.4-0.7,2.2-1c0.6-0.3,1.2-0.6,1.9-0.8
				c0.4-0.1,0.8-0.3,1.2-0.3c0.3-0.1,0.7-0.1,1-0.1c0.1,0,0.1,0,0.2-0.1c0.1-0.1,0.2-0.3,0.3-0.4c0.1-0.2,0.2-0.3,0.4-0.2
				c0.2,0,0.3,0,0.4-0.2c0.1,0,0.2,0,0.4,0c0.1,0.1,0.1,0.2,0.3,0.2c0.1,0,0.3,0,0.3,0.1c0.2,0.2,0.4,0.4,0.5,0.6
				c0,0,0.1,0.1,0.1,0.1C74.1,78.4,74.1,78.9,74.1,79.3z M48.8,136c-0.2,0.2-0.1,0.3,0,0.5c0.1,0.2,0.3,0.3,0.4,0.5
				c0.1,0.2,0.3,0.5,0.4,0.7c0,0.1,0.1,0.1,0.1,0.2c0.1,0.2,0.1,0.4,0.3,0.5c0,0,0.1,0,0.1,0.1c0.1,0.2,0.2,0.4,0.2,0.6
				c0,0.2,0.1,0.4,0.2,0.5c0.1,0.2,0.2,0.3,0.2,0.5c0,0.2,0,0.4,0.2,0.5c0,0,0,0.1,0,0.1c0.2,0.3,0.3,0.7,0.5,0.9
				c0.1,0.1,0.3,0.2,0.4,0.4c0.2,0.2,0.5,0.4,0.8,0.3c0.1,0,0.2,0,0.2-0.1c0,0,0-0.1-0.1-0.2c0-0.1,0-0.1,0-0.2
				c0.1-0.1,0.1-0.1,0-0.2c-0.1-0.1-0.1-0.2,0.1-0.2c0.2,0,0.2-0.2,0.3-0.3c0,0,0,0,0-0.1c-0.1,0.1-0.2,0.1-0.3,0.2
				c-0.1-0.2,0-0.2,0.1-0.3c-0.1-0.2-0.1-0.2,0-0.4c0-0.1,0-0.1,0-0.2c0,0,0-0.1,0-0.1c0.1,0,0.1,0,0.2,0c0-0.1,0-0.1,0-0.2
				c0,0,0-0.1,0-0.1c0-0.1,0-0.3,0-0.4c0-0.2,0.1-0.4,0.2-0.7c-0.1-0.1-0.1-0.1-0.2-0.2c0.1-0.1,0.2-0.3,0.4-0.5
				c0.2-0.2,0.3-0.3,0.3-0.6c0-0.1,0-0.1,0-0.2c0-0.1,0-0.3,0.1-0.4c0-0.2,0.1-0.3-0.1-0.5c-0.1-0.1-0.1-0.2,0.1-0.3
				c0.1,0,0.1-0.1,0.1-0.1c0-0.1,0.1-0.2,0.2-0.2c0.1,0,0.2-0.1,0.1-0.3c0,0,0-0.1,0-0.2c0.1-0.3,0.1-0.4-0.1-0.5
				c-0.1,0-0.1-0.1-0.2-0.1c-0.1,0-0.3-0.1-0.4,0.1c-0.3-0.1-0.3-0.3-0.3-0.5c0-0.1,0-0.2,0.2-0.2c0,0,0.1,0,0.1,0
				c0.1-0.1,0.3-0.1,0.2-0.3c0,0,0.1-0.1,0.1-0.1c0.1,0,0.1,0,0.2,0c0.1,0,0.5-0.1,0.6-0.2c0,0,0-0.1,0-0.1c0-0.1,0.1-0.2,0.1-0.3
				c0.1,0.1,0.1,0.2,0.2,0.3c0.1,0.1,0.1,0.1,0.2,0c0-0.1,0-0.1,0.1-0.2c0,0.1,0.1,0.1,0.1,0.2c0.1-0.1,0.1-0.1,0.1-0.1
				c0-0.2,0-0.5,0.1-0.7c0-0.1,0-0.3-0.1-0.3c0-0.1-0.1-0.2-0.1-0.4c0-0.1,0-0.2,0-0.3c0-0.1,0.1-0.2-0.1-0.2
				c-0.2,0-0.1-0.1-0.1-0.2c0-0.1,0.1-0.2,0.1-0.3c-0.1-0.3-0.1-0.6-0.2-0.9c0,0,0-0.1,0-0.1c0-0.1,0-0.1-0.1-0.2
				c0,0-0.1-0.1-0.1-0.1c-0.1-0.2-0.1-0.5-0.1-0.7c0-0.1,0-0.2-0.1-0.3c0-0.1,0-0.2,0-0.3c0-0.3,0-0.6-0.1-0.9c0-0.1,0-0.1-0.1-0.2
				c-0.1-0.1-0.1-0.1,0-0.2c0-0.1,0.1-0.2,0.1-0.2c-0.1-0.2-0.1-0.4-0.1-0.6c0-0.2,0.1-0.5-0.1-0.7c0,0,0-0.1,0-0.1
				c0-0.1,0-0.2,0-0.3c0-0.1,0-0.1,0-0.2c0.1-0.1,0-0.2,0-0.3c0-0.3,0-0.6-0.1-0.9c0,0,0,0,0,0c-0.2-0.2-0.2-0.4-0.2-0.5
				c0-0.3-0.1-0.5-0.1-0.8c0-0.3,0-0.6,0-0.8c0-0.3,0-0.6,0.1-0.9c0,0,0-0.1,0-0.1c-0.1-0.2-0.1-0.3,0.1-0.4c0,0,0-0.1,0-0.1
				c0-0.3,0-0.5,0-0.8c0-0.2,0-0.5,0.2-0.7c0.1-0.1,0.1-0.3,0-0.4c0,0,0-0.1,0-0.2c0,0,0-0.1,0-0.1c-0.1-0.2,0-0.4,0-0.5
				c0-0.6,0-1.2,0-1.7c0-0.1,0-0.2,0-0.4c0-0.1,0-0.2-0.1-0.3c-0.1-0.1-0.1-0.2,0-0.3c0-0.1,0.1-0.1,0.1-0.2c0-0.2,0-0.3,0-0.5
				c0-0.1,0-0.1,0-0.2c-0.1-0.3,0-0.8,0-1.1c0-0.3,0.1-0.5,0.1-0.8c0-0.3,0.1-0.6,0.1-1c0.1-0.3,0.1-0.5,0-0.8c0,0,0-0.1,0-0.1
				c0.2-0.2,0.1-0.4,0.1-0.6c0-0.1,0-0.3,0-0.4c0-0.1,0-0.2,0-0.3c0-0.1-0.1-0.3,0-0.4c0-0.1,0.1-0.2,0.1-0.3c0-0.2,0.1-0.4,0.1-0.6
				c0-0.2,0.1-0.3,0.1-0.5c0-0.2,0.1-0.3,0-0.5c0,0,0,0,0,0c0-0.1,0-0.3,0.1-0.4c0.1-0.3,0-0.6,0-0.9c0-0.1,0.1-0.1,0.1-0.2
				c0-0.1,0.1-0.2,0.1-0.3c0-0.1,0-0.1,0-0.2c0.1-0.4,0.3-0.8,0.1-1.2c0,0,0-0.1,0-0.1c0.2-0.2,0.2-0.4,0.1-0.6c0-0.2,0-0.3,0.1-0.5
				c0.1-0.1,0.2-0.3,0.2-0.5c0,0,0,0,0,0c0-0.1,0.1-0.2,0.1-0.3c0-0.1,0.1-0.2,0.1-0.3c0-0.2,0-0.3,0.1-0.5c0-0.1,0-0.3,0.1-0.4
				c0.1-0.3,0.2-0.5,0.3-0.7c0.1-0.2,0.1-0.5,0.1-0.7c0-0.1-0.1-0.4-0.2-0.5c-0.1,0-0.1-0.1,0-0.2c0.1-0.1,0.2-0.2,0.2-0.4
				c0,0,0,0,0,0c0-0.2,0.1-0.4,0.1-0.6c0-0.2-0.1-0.3-0.2-0.3c-0.1,0-0.1,0-0.2-0.1c-0.1-0.3-0.3-0.5-0.4-0.8c0,0,0,0,0,0
				c0.2,0,0.2,0,0.2-0.2c0.1-0.2,0.2-0.3,0.3-0.4c0.1-0.1,0.2-0.3,0.3-0.4c0,0,0-0.1,0-0.1c0-0.1,0-0.2,0.1-0.2
				c0.1-0.1,0-0.2-0.1-0.2c-0.1,0-0.2-0.1-0.3-0.1c-0.1,0-0.3-0.2-0.4-0.1c0,0-0.1,0-0.1-0.1c-0.1-0.2-0.3-0.5-0.4-0.7
				c-0.1-0.1-0.1-0.1-0.2,0c-0.1,0.1-0.2,0.1-0.3,0c-0.1-0.1-0.1-0.1-0.2-0.1c-0.1,0-0.2-0.1-0.1-0.2c0-0.1,0-0.2-0.1-0.3
				c-0.1,0-0.2-0.1-0.2-0.1c0.1-0.2,0-0.4-0.2-0.5c-0.3-0.2-0.3-0.2-0.2-0.5c0,0-0.1,0-0.1-0.1c-0.1-0.1-0.2-0.1-0.2-0.2
				c0-0.3,0-0.7,0.1-1c0,0,0.1-0.1,0.1-0.1c0.1,0,0.2,0.1,0.3,0.1c0.2,0.1,0.3,0.3,0.5,0.1c0.1-0.1,0.2-0.1,0.3-0.1
				c0.1-0.1,0-0.1-0.1-0.2c0.1-0.1,0.2-0.1,0.4-0.2c0.1-0.1,0.2-0.1,0.3,0c0,0,0.1,0.1,0.2,0.1c0.1,0,0.1-0.1,0.2-0.1
				c0-0.1-0.1-0.1-0.1-0.1c-0.3-0.1-0.4-0.2-0.4-0.6c0.1,0.1,0.3,0.3,0.4,0.4c0.1,0.1,0.1,0.1,0.2,0c0.1-0.1,0.2-0.3,0.2-0.4
				c0-0.1,0.1-0.2,0.2-0.2c0.1,0,0.2-0.1,0.2-0.2c0.1-0.1,0.2-0.2,0.1-0.4c0,0,0,0,0,0c0-0.1,0.1-0.2,0.1-0.3c0-0.1,0.1-0.2,0.1-0.3
				c0-0.3,0.1-0.5,0.3-0.7c0.2-0.1,0.4-0.2,0.6-0.3c0,0,0,0,0,0c-0.1-0.2,0-0.2,0.2-0.2c0.2,0,0.1-0.2,0.2-0.3c0,0,0-0.1,0-0.2
				c0,0-0.1-0.1-0.1-0.1c-0.2,0-0.4,0-0.6-0.1c0,0.1,0,0.2-0.2,0.3c-0.1,0.1-0.3,0.1-0.3,0.3c0,0,0,0,0,0c-0.2,0-0.3,0-0.5,0
				c0,0,0,0,0,0c0,0-0.1,0-0.1-0.1c0,0,0,0.1,0,0.1c0,0.1,0,0.1,0,0.2c0,0-0.1,0-0.2,0c-0.1,0-0.2-0.1-0.3-0.2c0,0-0.1,0-0.1,0
				c0,0,0,0.1,0,0.1c0,0.1,0.1,0.1,0.2,0.2c0.1,0.1,0.1,0.2-0.1,0.2c-0.1,0-0.1,0.1-0.1,0.2c0,0,0,0.1-0.1,0.1c-0.1,0-0.1,0-0.2,0
				c0,0,0-0.1,0-0.1c0-0.1-0.1-0.2-0.1-0.2c0,0-0.1,0-0.2,0c-0.1,0-0.2,0-0.2,0.1c-0.1,0-0.2,0-0.2,0c-0.2,0.1-0.4,0.3-0.7,0.5
				c0,0,0,0,0,0c-0.1,0.1-0.2,0.2-0.3,0.2c-0.1,0.1-0.2,0.1-0.3,0.2c-0.1,0.1-0.2,0.2-0.3,0.4c-0.1,0.1-0.2,0.4-0.1,0.5
				c0,0.1,0,0.2,0,0.2c-0.1,0.1-0.1,0.3,0,0.4c0.1,0.1,0,0.2-0.1,0.2c-0.1,0-0.1,0-0.2,0c-0.1,0-0.1,0-0.2,0c-0.2,0-0.4,0-0.5,0
				c0,0-0.1,0-0.1-0.1c-0.1-0.3-0.5-0.4-0.5-0.8c0-0.2-0.1-0.2-0.3-0.2c0,0-0.1,0-0.1,0c-0.1-0.1-0.2-0.1-0.2,0c0,0-0.1,0.1-0.1,0.1
				c-0.1,0-0.1-0.1-0.2-0.1c0.1,0.4,0,0.5-0.2,0.5c0-0.1,0-0.2,0-0.3c0-0.1-0.1-0.2-0.1-0.2c-0.2,0-0.3,0-0.4,0.1
				c-0.2,0.2-0.4,0.3-0.5,0.6c-0.1,0.2-0.2,0.4-0.3,0.6c0,0.1-0.1,0.2-0.1,0.2c-0.1,0.2-0.2,0.3-0.2,0.5c0,0.2-0.2,0.3-0.3,0.4
				c-0.1,0.2-0.1,0.2,0,0.4c0.1,0.2,0.2,0.4,0.1,0.6c-0.1,0.1-0.2,0.3-0.2,0.4c0,0.1-0.1,0.1-0.2,0.1c0,0-0.1,0.1-0.2,0.1
				c0,0.1,0,0.1-0.1,0.2c0,0.1,0,0.3-0.2,0.4c-0.2,0-0.4,0-0.5,0.2c0,0-0.1,0-0.1,0c0,0-0.1,0-0.1,0.1c-0.1,0.1-0.1,0.2-0.2,0.2
				c-0.1,0.1-0.1,0.2-0.1,0.3c0,0.1,0,0.2,0,0.3c0,0.1-0.1,0.2-0.1,0.4c0,0.1,0,0.1,0,0.2c-0.1,0-0.1,0-0.1,0c0,0.2,0,0.3-0.2,0.2
				c0,0,0,0-0.1,0c-0.1,0.1-0.3,0.2-0.4,0.5c-0.1,0.3-0.3,0.5-0.3,0.8c-0.1,0.3-0.2,0.6-0.3,1c-0.1,0.4-0.3,0.8-0.4,1.2
				c-0.1,0.3-0.2,0.6-0.3,0.8c-0.1,0.2-0.1,0.4-0.1,0.6c-0.1,0.3-0.1,0.5-0.2,0.8c0,0.2-0.1,0.3-0.2,0.5c-0.1,0.3-0.1,0.6-0.1,0.9
				c-0.1,0.5-0.2,0.9-0.3,1.4c-0.1,0.5-0.2,1.1-0.2,1.6c-0.1,0.5-0.1,1-0.1,1.4c0,0.3-0.1,0.6-0.1,0.9c0,0.2,0,0.4-0.1,0.5
				c0,0.1,0,0.2,0,0.4c0,0.4-0.1,0.7-0.1,1.1c0,0.2,0,0.5,0,0.7c-0.1,0.3,0,0.5,0,0.8c0,0.3,0,0.5-0.1,0.8c0,0.1,0,0.3,0,0.4
				c0,0.2,0,0.5,0,0.7c0,0.2,0,0.4,0,0.6c0,0.3,0,0.5,0.1,0.8c0,0.1,0,0.1,0.1,0.2c0.2,0.2,0.2,0.4,0,0.6c0,0,0,0.1,0,0.2
				c0,0.1,0,0.2,0,0.3c0,0.2,0,0.4,0,0.6c0,0.3,0.1,0.6,0.1,1c0,0.4,0.1,0.8,0.2,1.2c0,0.1,0,0.2,0.1,0.2c0.1,0.1,0.1,0.3,0.1,0.5
				c-0.1,0.1-0.1,0.3-0.1,0.4c0,0.4,0.1,0.7,0.1,1.1c0.1,0.4,0,0.7,0.2,1.1c0,0,0,0.1,0,0.1c0,0.1,0,0.1,0,0.2
				c0,0.2,0.1,0.5,0.1,0.7c0,0.2,0.1,0.5,0.2,0.7c0.1,0.3,0.3,0.5,0.2,0.8c0,0,0,0.1,0,0.1c0.1,0.2,0.1,0.4,0.2,0.6
				c0,0.1,0.1,0.3,0.1,0.4c0.1,0.2,0.2,0.3,0.1,0.6c0,0,0,0.1,0,0.1c0.1,0.1,0.2,0.2,0.3,0.3c0,0,0.1,0.1,0.1,0.2c0,0.1,0,0.2,0,0.2
				c0,0,0,0.1,0,0.1c0.1,0,0.1,0.1,0.1,0.2c0,0.1,0,0.1,0,0.2c0,0.1,0.1,0.3,0,0.4c0,0,0,0.2,0,0.2c0.1,0.4,0.2,0.8,0.4,1.2
				c0.1,0.1,0.1,0.3,0.2,0.5c0,0.1,0.1,0.2,0.1,0.2c0,0.1,0.1,0.2,0.1,0.2c-0.1,0.4,0.1,0.7,0.3,1c0,0,0.1,0.1,0.1,0.1
				c0.3,0.1,0.3,0.2,0.1,0.4c0,0-0.1,0.1-0.1,0.1c0,0.1,0,0.2,0,0.2c0.2,0.2,0.3,0.4,0.3,0.6c0,0.2,0.2,0.5,0.1,0.7c0,0,0,0,0,0.1
				c0,0,0,0.1,0,0.1c-0.1,0.1,0,0.2,0,0.2c0,0,0,0.1,0,0.1c0,0.1,0,0.2,0.1,0.3c0.2,0.2,0.2,0.5,0.2,0.7c0,0.1,0,0.2,0.1,0.3
				c0.1,0.1,0.2,0.2,0.4,0.3c0-0.1,0.1-0.1,0.1-0.2c0.2,0.1,0.2,0,0.2-0.1c0-0.1,0.3-0.2,0.4-0.2c0,0,0,0,0.1,0.1c0,0,0,0.1,0.1,0.1
				c0.2,0,0.2,0.2,0.2,0.4c0,0.1,0,0.3,0,0.4c0,0.1,0,0.1,0.1,0.2c0,0.1,0.1,0.2,0.1,0.2C48.5,135.8,48.6,136,48.8,136z M56.5,90.4
				C56.5,90.5,56.5,90.5,56.5,90.4c0.2,0.2,0.1,0.3,0.1,0.4c0,0.1,0.1,0.2,0.2,0.3c0,0-0.1,0.1-0.1,0.1c-0.2,0-0.3,0.1-0.3,0.3
				c0,0.1,0,0.1-0.1,0.2c-0.2,0.2-0.1,0.5,0.1,0.6c0,0,0.1,0,0.1,0c0,0,0.1-0.1,0.1-0.1c0,0.1,0,0.2,0,0.2c0,0,0.1,0.1,0.1,0.1
				c0.1,0.1,0.2,0.1,0.3,0.1c0,0.2,0,0.4,0,0.5c0.1,0,0.2,0,0.3,0c0,0,0,0,0,0.1c0,0,0,0-0.1,0c-0.1,0-0.3,0-0.3,0.2
				c0,0.1,0.1,0.3,0.1,0.3c0.1,0.1,0.1,0.1,0.1,0.2c0,0,0.1,0.1,0.1,0.1c0,0,0-0.1,0.1-0.1c0-0.1,0-0.2,0-0.2c0,0,0-0.1,0-0.1
				c0-0.2,0-0.4,0.1-0.5c0-0.1,0-0.2,0-0.3c0-0.1,0-0.1,0-0.2c0-0.3,0-0.6,0.2-0.8c0,0,0-0.1,0-0.2c-0.2,0.1-0.2,0.1-0.3-0.1
				c0-0.1,0-0.1,0-0.2c0-0.1,0-0.2,0-0.3c0,0,0.1,0,0.2,0c0-0.1,0-0.2,0-0.3c-0.3,0-0.3,0-0.3-0.3c0,0,0-0.1-0.1-0.1
				c-0.1-0.1-0.2-0.1-0.3-0.2c-0.1-0.1-0.2-0.1-0.2,0.1c0,0-0.1,0.1-0.2,0.1C56.6,90.4,56.5,90.4,56.5,90.4z M55.9,90.8
				c-0.1,0-0.2,0-0.3,0c-0.2,0-0.4,0.2-0.3,0.4c0,0.1,0,0.2,0.1,0.2c0,0.1,0.2,0.2,0.3,0.2c0,0,0-0.1,0-0.1c-0.1-0.1,0-0.3,0.1-0.4
				C55.9,91,55.8,90.9,55.9,90.8z M54.5,134.9c0,0,0.1,0.1,0.1,0.1c0,0,0.1,0,0.1,0c0-0.1,0-0.1,0-0.2c-0.1-0.1,0-0.2,0.1-0.3
				c0,0,0.1-0.1,0.1-0.1c0-0.1,0-0.1,0-0.2c0-0.1-0.1-0.1-0.1-0.1c-0.1,0-0.1,0.1-0.1,0.2C54.5,134.6,54.5,134.7,54.5,134.9z
				 M47.8,135.2c0-0.2-0.1-0.3-0.2-0.2c-0.1,0-0.1,0.1-0.2,0.1c0.1,0.1,0.2,0.2,0.3,0.2C47.7,135.3,47.7,135.2,47.8,135.2z
				 M54.6,135.6c0.1,0.2,0.1,0.3,0.2,0.5C54.9,135.8,54.8,135.6,54.6,135.6z M57.1,96.3c-0.1,0.1-0.1,0.1-0.2,0.2
				c0.1,0,0.1,0.1,0.2,0.1c0.1,0,0.1-0.1,0.2-0.1C57.2,96.4,57.1,96.3,57.1,96.3z M50.6,88.2c-0.2,0.1-0.2,0.2,0.1,0.4
				C50.7,88.4,50.6,88.3,50.6,88.2z M52.1,87.8C52.1,87.8,52.1,87.9,52.1,87.8c0.1,0.1,0.2,0.1,0.3,0.1c0,0,0.1-0.1,0.1-0.1
				c0,0-0.1,0-0.1,0c-0.1,0-0.1,0-0.2,0C52.2,87.8,52.1,87.8,52.1,87.8z M51.3,87.8C51.4,87.8,51.4,87.8,51.3,87.8
				c0.1-0.1,0.1-0.1,0-0.3C51.3,87.6,51.3,87.7,51.3,87.8z M54.7,135.4C54.7,135.4,54.7,135.4,54.7,135.4c0,0.1,0.1,0.1,0.1,0.1
				c0,0,0.1-0.1,0.1-0.1C54.9,135.4,54.9,135.4,54.7,135.4C54.8,135.3,54.8,135.4,54.7,135.4z M57.2,96.1c0,0.1-0.1,0.1-0.1,0.1
				c0,0,0.1,0.1,0.1,0.1c0,0,0.1-0.1,0.1-0.1C57.3,96.2,57.3,96.1,57.2,96.1z M58.6,85.8C58.6,85.8,58.6,85.8,58.6,85.8
				c0.1,0,0.1,0,0.2-0.1c0,0-0.1-0.1-0.1,0C58.6,85.7,58.6,85.7,58.6,85.8z"/>
			<path class="st1" d="M55.9,111.3c0,0.2,0,0.3,0,0.5c0,0,0,0-0.1,0C55.8,111.6,55.8,111.4,55.9,111.3
				C55.9,111.3,55.9,111.3,55.9,111.3z"/>
			<path class="st1" d="M54.9,106.6c0,0.2,0,0.5,0,0.7c0,0.1-0.1,0.2-0.3,0.2c-0.1,0-0.1-0.1-0.1-0.2c0-0.1,0-0.2,0-0.2
				c0-0.1,0-0.3,0-0.4c0-0.2,0.1-0.3,0.1-0.5c0,0,0.1-0.1,0.1,0c0.1,0.1,0.2,0.1,0.1,0.3C54.9,106.4,54.9,106.5,54.9,106.6
				C54.9,106.6,54.9,106.6,54.9,106.6z"/>
			<path class="st1" d="M50.9,103.9c0-0.1-0.1-0.2-0.1-0.3c0.1-0.1,0.2-0.3,0.4-0.4c0.1-0.1,0.2,0,0.2,0.2
				C51.4,103.6,51.2,103.9,50.9,103.9z"/>
			<path class="st1" d="M55.3,104.6c0,0.1,0,0.2-0.1,0.3c0,0-0.2,0-0.3,0c0,0,0-0.1,0-0.1c0-0.1,0-0.1,0-0.2c0,0,0-0.1,0.1-0.1
				c0,0,0.1,0.1,0.1,0.1c0,0,0,0.1,0,0.1C55.2,104.7,55.2,104.6,55.3,104.6C55.3,104.6,55.3,104.6,55.3,104.6z"/>
			<path class="st1" d="M55.2,87.5c0.1-0.1,0.1-0.1,0.2-0.2c0.1,0.1,0.1,0.1,0.2,0.2c0,0.1-0.1,0.2-0.2,0.2
				C55.4,87.7,55.3,87.6,55.2,87.5z"/>
			<path class="st1" d="M50.5,101.9c0.1-0.1,0.2-0.2,0.2-0.2c0.1,0,0.2,0.1,0.2,0.2c0,0.1-0.1,0.2-0.1,0.2
				C50.7,102.1,50.6,102,50.5,101.9z"/>
			<path class="st1" d="M53.3,110.3c0-0.1,0.1-0.2,0.2-0.2c0.1,0,0.2,0,0.2,0.2c0,0.1-0.1,0.2-0.2,0.2
				C53.4,110.5,53.3,110.4,53.3,110.3z"/>
			<path class="st1" d="M54.7,133.4c0,0.1,0.1,0.2,0.1,0.2c0,0-0.1,0.1-0.1,0.1c0,0-0.1-0.1-0.1-0.1
				C54.6,133.5,54.7,133.5,54.7,133.4z"/>
			<path class="st1" d="M54.4,133.2c0,0.1,0,0.2,0,0.2c0,0,0,0.1,0,0.1c0,0-0.1,0-0.1,0c0,0,0-0.1,0-0.1
				C54.3,133.4,54.3,133.3,54.4,133.2z"/>
			<path class="st1" d="M55,133.4c-0.1,0-0.1-0.1-0.2-0.1c0,0,0-0.1,0.1-0.1C54.9,133.3,54.9,133.3,55,133.4
				C55,133.4,55,133.4,55,133.4z"/>
			<path class="st1" d="M55.7,96.1c0.1,0,0.1-0.1,0.1-0.1c0,0,0.1,0.1,0.1,0.1c0,0-0.1,0.1-0.1,0.1C55.8,96.2,55.7,96.2,55.7,96.1z"
				/>
			<path class="st1" d="M54.4,108.3c0.1,0,0.1,0,0.2,0c0,0,0,0.1,0,0.1C54.6,108.4,54.5,108.4,54.4,108.3
				C54.4,108.4,54.4,108.4,54.4,108.3z"/>
			<path class="st1" d="M54.6,107.7C54.6,107.7,54.7,107.7,54.6,107.7c0.1,0,0.2,0,0.2,0c0,0,0,0.1-0.1,0.1
				C54.7,107.8,54.6,107.8,54.6,107.7z"/>
			<path class="st1" d="M55.5,104.2c-0.1,0-0.1,0.1-0.1,0.1c0,0-0.1-0.1-0.1-0.1c0,0,0.1-0.1,0.1-0.1
				C55.4,104.1,55.4,104.1,55.5,104.2z"/>
		</g>
	</g>
	<g>
		<g>
			<path class="st0" d="M103.8,140.5c3.6,2.2,6.9,2.5,10.8,0.8c2.5-0.9,5.1-0.9,7.2-2.5c5.3-3.9,12.8-6.6,15.7-12.8
				c0.7-1.4,0.8-3,1.4-4.5c0.6-1.3,1.3-2.5,1.7-3.7c1-2.6,1.6-5.4,1.8-8.2c0.1-1.2,0.1-2.4,0.2-3.6c0.2-1.7,1-2.6,1.7-4.1
				c1.1-2.4,0.6-6.5-0.2-8.8c-0.8-2-2.7-3.6-4.4-4.8c-2.9-2-4.9,2.9-6.4,4.6c-1.9,2.7-4.9,4.2-7,6.5c-2.3,2.3-3.9,5.2-5.8,7.9
				c-3.5,4.8-4.8,10.6-9.2,14.9c-2.4,2.4-4.5,4.6-6.6,7.2c-1.4,1.8-3.1,3.6-4.5,5.5c-0.2,0.3-0.5,0.7-0.7,1"/>
		</g>
		<g>
			<path class="st1" d="M86.6,134.9c0.3-0.2,0.5-0.3,0.8-0.5c0.2-0.1,0.4-0.1,0.6-0.2c0.1,0,0.1,0,0.2,0c0.3-0.1,0.5,0,0.7,0.2
				c0.2,0.2,0.4,0.2,0.6,0.2c0.6-0.1,1.2-0.1,1.8,0c0.7,0.1,1.4,0.2,2.2,0.3c0.9,0.1,1.8,0.1,2.7,0.1c0.8-0.1,1.6-0.1,2.4-0.4
				c0.6-0.2,1.2-0.6,1.7-1c0.4-0.4,0.8-0.7,1.3-1.1c0.6-0.4,1.2-0.9,1.7-1.3c0.4-0.3,0.8-0.6,1.2-0.8c0.4-0.2,0.8-0.4,1.1-0.7
				c0.4-0.3,0.8-0.5,1.3-0.8c0.5-0.3,1-0.6,1.5-1c0.4-0.3,0.8-0.5,1.2-0.8c0.3-0.2,0.6-0.4,0.9-0.6c0.4-0.3,0.8-0.6,1.2-0.9
				c0.3-0.2,0.5-0.4,0.8-0.5c0.1-0.1,0.2-0.1,0.3-0.2c0.2-0.1,0.3-0.3,0.5-0.4c0.2-0.2,0.4-0.3,0.5-0.5c0.3-0.2,0.5-0.5,0.8-0.7
				c0.1-0.1,0.2-0.3,0.4-0.3c0.3-0.2,0.4-0.6,0.7-0.8c0.4-0.3,0.7-0.6,1-1c0,0,0.1-0.1,0.1-0.1c0.1-0.3,0.3-0.5,0.5-0.6
				c0.2-0.2,0.4-0.5,0.6-0.7c0.1-0.1,0.2-0.2,0.3-0.3c0.2-0.2,0.4-0.4,0.4-0.7c0.1,0,0.1,0,0.1,0c0-0.1,0.1-0.2,0-0.3
				c0.2,0.1,0.3-0.1,0.3-0.2c0-0.1,0.1-0.1,0.1-0.2c0,0,0.1-0.1,0.1-0.1c-0.1-0.3,0.2-0.3,0.3-0.5c0.1-0.2,0.3-0.3,0.3-0.5
				c0,0,0,0,0,0c0.2-0.1,0.2-0.3,0.2-0.5c0,0,0.1-0.1,0.1-0.1c0,0,0,0.1,0.1,0.2c0-0.3,0.3-0.5,0.4-0.7c0.1-0.1,0.2-0.3,0.3-0.4
				c0.2-0.3,0.4-0.7,0.6-1.1c0.1-0.2,0.3-0.4,0.4-0.7c0.2-0.3,0.3-0.7,0.5-1c0.1-0.2,0.2-0.4,0.4-0.7c0.1-0.2,0.3-0.5,0.4-0.7
				c0.1-0.1,0.1-0.2,0.2-0.3c0.1-0.2,0.3-0.5,0.4-0.7c0.1-0.2,0.2-0.5,0.3-0.7c0.1-0.2,0.2-0.5,0.3-0.7c0.1-0.2,0.2-0.4,0.3-0.7
				c0.1-0.2,0.2-0.4,0.3-0.7c0,0,0-0.1,0-0.1c0.1-0.3,0.2-0.5,0.3-0.8c0.1-0.2,0.2-0.5,0.3-0.7c0.1-0.3,0.3-0.6,0.4-0.9
				c0.1-0.3,0.2-0.6,0.3-0.9c0-0.1,0.1-0.1,0.1-0.2c0-0.1,0.1-0.3,0.1-0.4c0-0.1,0.1-0.3,0.2-0.4c0.2-0.7,0.4-1.3,0.7-2
				c0.2-0.6,0.4-1.1,0.5-1.7c0.1-0.4,0.2-0.9,0.3-1.3c0.1-0.3,0.2-0.6,0.3-0.9c0.2-0.6,0.3-1.1,0.5-1.7c0.2-0.6,0.3-1.2,0.5-1.8
				c0.1-0.5,0.2-1,0.4-1.4c0.2-0.6,0.4-1.1,0.5-1.7c0.1-0.3,0.2-0.7,0.3-1c0.2-0.6,0.5-1.3,0.8-1.9c0.3-0.7,0.7-1.3,1-2
				c0.4-0.7,0.9-1.5,1.3-2.2c0.3-0.5,0.6-1.1,0.9-1.6c0.3-0.4,0.6-0.8,0.9-1.2c0.1-0.1,0.1-0.1,0.2-0.2c0.1-0.2,0.3-0.4,0.5-0.5
				c0.2-0.1,0.5-0.2,0.7-0.2c0.3,0,0.5,0.2,0.8,0.2c0.1,0,0.1,0,0.2,0c0.8,0.5,1.6,1,2.5,1.5c0,0-0.1,0.1-0.1,0.1
				c0,0.1-0.1,0.2-0.1,0.3c0,0.2,0.1,0.3,0.2,0.5c0.1,0.2,0.2,0.5,0.3,0.7c0,0,0,0.1,0,0.1c0.1,0.2,0.1,0.4,0.2,0.6
				c0.1,0.2,0.3,0.4,0.3,0.6c0.1,0.2,0.1,0.4,0.3,0.6c0.1,0.1,0.1,0.3,0.2,0.5c0.2,0.4,0.4,0.8,0.5,1.3c0.1,0.2,0.1,0.5,0.2,0.7
				c0,0.1,0.1,0.3,0.1,0.4c0,0.1,0.1,0.2,0.1,0.4c0,0.1,0,0.2,0,0.3c0,0.1,0,0.2,0.1,0.3c0.1,0.2,0.1,0.4,0.2,0.6
				c0.1,0.3,0.1,0.6,0.1,1c0,0.3,0,0.6,0,0.9c0,0.7,0,1.3,0,2c0,0,0,0.1,0,0.1c0,0.2-0.1,0.4-0.1,0.6c0,0.5-0.1,1-0.1,1.4
				c0,0.4-0.1,0.9-0.2,1.3c0,0.4-0.1,0.7-0.1,1.1c0,0.3-0.1,0.7-0.2,1c-0.1,0.5-0.2,1-0.3,1.5c-0.1,0.5-0.2,1.1-0.3,1.6
				c-0.1,0.4-0.1,0.8-0.2,1.2c-0.1,0.3-0.1,0.6-0.2,1c-0.1,0.3-0.1,0.6-0.2,0.8c-0.1,0.3-0.1,0.6-0.2,0.9c-0.2,0.5-0.3,1.1-0.5,1.6
				c-0.1,0.3-0.2,0.7-0.3,1c-0.1,0.2-0.2,0.5-0.2,0.7c-0.2,0.5-0.3,1-0.5,1.4c-0.1,0.4-0.3,0.7-0.4,1.1c-0.1,0.4-0.3,0.8-0.4,1.2
				c-0.1,0.2-0.1,0.3-0.2,0.5c-0.1,0.3-0.2,0.5-0.3,0.8c-0.2,0.4-0.4,0.8-0.6,1.2c0,0,0,0,0,0c-0.1,0.2-0.2,0.5-0.3,0.7
				c-0.2,0.4-0.4,0.8-0.6,1.2c-0.1,0.2-0.2,0.4-0.3,0.7c-0.2,0.4-0.3,0.8-0.5,1.2c-0.2,0.3-0.3,0.6-0.5,0.9
				c-0.2,0.4-0.4,0.8-0.6,1.2c-0.2,0.3-0.3,0.6-0.5,0.9c-0.2,0.4-0.4,0.8-0.6,1.1c-0.3,0.5-0.6,0.9-0.9,1.4
				c-0.5,0.7-0.9,1.5-1.4,2.2c-0.3,0.4-0.6,0.9-1,1.3c-0.3,0.4-0.6,0.8-0.9,1.2c-0.3,0.4-0.6,0.8-0.9,1.2c0,0,0,0-0.1,0.1
				c-0.4,0.4-0.8,0.8-1.2,1.3c-0.2,0.2-0.3,0.4-0.5,0.5c-0.2,0.2-0.4,0.4-0.6,0.6c-0.3,0.2-0.5,0.6-0.8,0.8
				c-0.3,0.2-0.5,0.5-0.8,0.7c-0.4,0.4-0.8,0.7-1.3,1c-0.4,0.3-0.7,0.6-1.1,0.9c-0.4,0.3-0.7,0.5-1.1,0.8c-0.3,0.2-0.6,0.4-0.8,0.6
				c-0.3,0.2-0.5,0.3-0.8,0.5c-0.2,0.1-0.4,0.2-0.6,0.3c-0.3,0.2-0.6,0.4-0.9,0.6c-0.3,0.2-0.6,0.3-0.9,0.5
				c-0.1,0.1-0.3,0.2-0.4,0.2c-0.4,0.2-0.8,0.4-1.1,0.5c-0.3,0.2-0.7,0.3-1,0.5c-0.3,0.1-0.6,0.2-0.9,0.3c-0.2,0.1-0.5,0.2-0.7,0.2
				c-0.5,0.1-0.9,0.2-1.4,0.4c-0.3,0.1-0.7,0.2-1,0.3c-0.4,0.1-0.7,0.1-1.1,0.2c-0.5,0.1-0.9,0.2-1.4,0.2c-0.4,0-0.9,0-1.3,0
				c-0.8,0-1.6-0.1-2.4-0.4c-0.6-0.2-1.2-0.3-1.7-0.6c-0.6-0.3-1.1-0.5-1.7-0.8c-0.8-0.5-1.6-0.8-2.5-1.2c0,0,0,0,0,0
				c-0.4-0.1-0.9-0.3-1.3-0.4c-0.8-0.2-1.6-0.3-2.4-0.4c-0.8-0.1-1.6-0.2-2.4-0.3c-0.7-0.1-1.3-0.2-2-0.3c-0.4-0.1-0.8-0.2-1.2-0.3
				c-0.3-0.1-0.6-0.3-0.9-0.4c-0.1,0-0.1-0.1-0.2,0c-0.2,0.1-0.3,0.1-0.5,0.2c-0.2,0.1-0.3,0.1-0.5,0c-0.1-0.1-0.3-0.1-0.4,0
				c-0.1-0.1-0.2-0.1-0.3-0.2c0-0.1,0-0.3-0.2-0.3c-0.1,0-0.2-0.1-0.2-0.3c-0.1-0.3-0.2-0.5-0.1-0.8c0,0,0-0.1,0-0.1
				C86.2,135.7,86.4,135.3,86.6,134.9z M138.2,100.4c0.2-0.1,0.2-0.2,0.2-0.4c0-0.2-0.1-0.4-0.1-0.7c0-0.3,0-0.5,0-0.8
				c0-0.1,0-0.1,0-0.2c0.1-0.2,0.1-0.4,0-0.6c0,0,0-0.1,0-0.1c0-0.2,0.1-0.4,0.2-0.6c0.1-0.2,0.1-0.4,0.1-0.6c0-0.2,0-0.4,0.1-0.5
				c0.1-0.2,0.2-0.3,0.1-0.6c0,0,0-0.1,0-0.1c0-0.4,0.1-0.7,0-1.1c0-0.2-0.1-0.4-0.1-0.6c0-0.3-0.2-0.5-0.5-0.7
				c-0.1,0-0.2-0.1-0.2,0c0,0,0,0.1-0.1,0.2c0,0,0,0.1-0.1,0.1c-0.1,0-0.1,0.1-0.1,0.2c0,0.1,0,0.2-0.2,0.1
				c-0.2-0.1-0.3,0.1-0.4,0.1c0,0,0,0,0,0.1c0.1,0,0.2,0,0.3,0c0,0.2-0.2,0.2-0.3,0.2c0,0.2,0,0.2-0.2,0.3c-0.1,0-0.1,0.1-0.1,0.1
				c0,0-0.1,0.1-0.1,0.1c-0.1-0.1-0.1-0.1-0.1-0.1c0,0.1-0.1,0.1-0.1,0.2c0,0,0,0.1,0,0.1c-0.1,0.1-0.2,0.2-0.2,0.4
				c-0.1,0.2-0.3,0.3-0.5,0.4c0,0.1,0.1,0.2,0.1,0.3c-0.2,0.1-0.4,0.1-0.6,0.2c-0.2,0.1-0.5,0.1-0.6,0.3c0,0.1,0,0.1-0.1,0.2
				c-0.1,0.1-0.2,0.2-0.2,0.3c-0.1,0.1-0.2,0.2-0.2,0.4c0,0.1-0.1,0.2-0.2,0.2c-0.1,0-0.2,0-0.2,0c-0.1,0.1-0.2,0.1-0.3,0.1
				c-0.1,0-0.2,0-0.2,0.2c0,0-0.1,0.1-0.1,0.1c-0.2,0.2-0.3,0.3-0.2,0.5c0,0.1,0.1,0.1,0.1,0.2c0.1,0.1,0.2,0.3,0.4,0.2
				c0.2,0.2,0.1,0.4,0,0.6c-0.1,0.1-0.1,0.2-0.2,0.1c0,0-0.1,0-0.1,0c-0.1,0-0.3,0-0.4,0.2c0,0-0.1,0-0.1,0c-0.1,0-0.1-0.1-0.2-0.1
				c-0.1-0.1-0.5-0.2-0.6-0.1c0,0,0,0-0.1,0.1c-0.1,0-0.2,0.1-0.3,0.1c0-0.1,0-0.2,0-0.3c0-0.1-0.1-0.1-0.2-0.1
				c-0.1,0-0.1,0.1-0.2,0.2c0-0.1,0-0.1,0-0.2c-0.1,0-0.1,0-0.1,0.1c-0.1,0.2-0.3,0.4-0.4,0.5c-0.1,0.1-0.1,0.2-0.1,0.3
				c0,0.1-0.1,0.2-0.1,0.3c0,0.1-0.1,0.2-0.2,0.2c-0.1,0.1-0.1,0.1,0,0.2c0.1,0.1,0.1,0.2,0,0.2c-0.1,0.1-0.2,0.1-0.2,0.2
				c-0.1,0.3-0.2,0.6-0.3,0.9c0,0,0,0.1-0.1,0.1c0,0.1,0,0.1,0,0.2c0,0,0,0.1,0,0.1c-0.1,0.2-0.1,0.5-0.3,0.6
				c-0.1,0.1-0.1,0.2-0.1,0.3c-0.1,0.1-0.1,0.1-0.2,0.2c-0.1,0.3-0.3,0.5-0.4,0.8c0,0,0,0.1,0,0.2c0,0.1,0,0.1-0.1,0.2
				c-0.1,0-0.2,0.1-0.2,0.2c0,0.2-0.2,0.4-0.3,0.6c-0.1,0.2-0.3,0.4-0.2,0.7c0,0,0,0,0,0.1c-0.1,0.1-0.1,0.2-0.2,0.3
				c0,0.1-0.1,0.1-0.1,0.1c-0.1,0.1-0.1,0.1-0.1,0.3c-0.2,0.3-0.3,0.5-0.4,0.8c0,0,0,0,0,0c0.1,0.2,0,0.4-0.1,0.6
				c-0.1,0.3-0.2,0.5-0.3,0.8c-0.1,0.2-0.3,0.5-0.5,0.7c-0.2,0.2-0.3,0.5-0.6,0.7c0,0,0,0,0,0.1c0,0.2-0.1,0.3-0.3,0.3
				c0,0-0.1,0-0.1,0.1c-0.1,0.2-0.3,0.5-0.4,0.7c-0.1,0.2-0.3,0.4-0.5,0.5c-0.1,0.1-0.2,0.2-0.2,0.3c0,0.1,0,0.1-0.1,0.2
				c0,0-0.1,0.1-0.1,0.1c0,0.2-0.2,0.3-0.3,0.5c-0.3,0.5-0.6,1-0.9,1.5c-0.1,0.1-0.1,0.2-0.2,0.3c-0.1,0.1-0.1,0.2-0.1,0.3
				c0,0.1,0,0.2-0.2,0.3c-0.1,0-0.1,0.1-0.2,0.1c-0.1,0.1-0.2,0.3-0.3,0.4c0,0-0.1,0.1-0.1,0.1c-0.1,0.3-0.4,0.7-0.6,0.9
				c-0.2,0.2-0.4,0.4-0.5,0.6c-0.2,0.2-0.4,0.5-0.6,0.7c-0.2,0.2-0.4,0.4-0.4,0.7c0,0,0,0.1-0.1,0.1c-0.2,0-0.3,0.2-0.4,0.4
				c-0.1,0.1-0.1,0.2-0.2,0.3c-0.1,0.1-0.1,0.2-0.2,0.3c-0.1,0.1-0.1,0.3-0.2,0.4c-0.1,0.1-0.2,0.1-0.3,0.2
				c-0.1,0.2-0.3,0.3-0.4,0.5c-0.1,0.1-0.2,0.3-0.3,0.4c-0.1,0.1-0.3,0.2-0.3,0.4c0,0,0,0,0,0c-0.1,0.1-0.2,0.2-0.3,0.3
				c-0.2,0.2-0.3,0.5-0.5,0.7c-0.1,0.1-0.1,0.1-0.2,0.1c-0.1,0.1-0.2,0.1-0.2,0.2c0,0-0.1,0.1-0.1,0.1c-0.3,0.3-0.6,0.5-0.7,0.9
				c0,0-0.1,0.1-0.1,0.1c-0.2,0.1-0.3,0.2-0.4,0.4c0,0.2-0.1,0.3-0.3,0.4c-0.2,0.1-0.3,0.2-0.5,0.3c0,0,0,0,0,0
				c-0.1,0.1-0.2,0.1-0.2,0.2c-0.1,0.1-0.2,0.1-0.3,0.2c-0.1,0.1-0.2,0.3-0.3,0.4c-0.1,0.1-0.2,0.2-0.3,0.3
				c-0.2,0.2-0.4,0.3-0.6,0.5c-0.2,0.2-0.3,0.4-0.5,0.5c-0.1,0.1-0.1,0.4-0.1,0.5c0,0.1,0,0.1-0.1,0.2c-0.2,0-0.3,0.1-0.4,0.2
				c0,0,0,0,0,0c-0.2,0.2-0.3,0.3-0.5,0.5c-0.1,0.1-0.1,0.3,0.1,0.4c0,0,0.1,0.1,0.1,0.2c0,0.3,0,0.6-0.1,0.9c0,0,0,0,0,0
				c-0.1-0.1-0.2-0.1-0.3,0c-0.1,0.1-0.3,0.2-0.5,0.2c-0.2,0.1-0.3,0.1-0.5,0.2c0,0,0,0-0.1,0.1c-0.1,0.1-0.1,0.1-0.2,0.2
				c-0.1,0.1-0.1,0.1,0,0.2c0.1,0.1,0.1,0.2,0.2,0.2c0.1,0.1,0.1,0.3,0.3,0.3c0,0,0.1,0.1,0.1,0.1c0,0.3,0,0.6,0,0.8
				c0,0.1,0,0.2,0.1,0.1c0.2,0,0.2,0,0.3,0.2c0,0.1,0.1,0.2,0.1,0.2c0.1,0.1,0.1,0.2,0,0.3c-0.1,0.1-0.1,0.2,0,0.3
				c0.1,0.1,0.1,0.2,0.1,0.2c-0.2,0.1-0.2,0.4-0.1,0.5c0.1,0.3,0.1,0.3-0.1,0.5c0,0,0.1,0.1,0.1,0.1c0,0.1,0.1,0.2,0.1,0.3
				c-0.2,0.3-0.4,0.6-0.6,0.8c0,0-0.1,0-0.2,0c-0.1-0.1-0.2-0.2-0.2-0.3c-0.1-0.2-0.1-0.4-0.4-0.4c-0.1,0-0.2-0.1-0.3-0.1
				c-0.2,0-0.1,0.1-0.1,0.2c-0.1,0-0.3,0-0.4,0c-0.1,0-0.2,0-0.3-0.2c0-0.1-0.1-0.1-0.1-0.1c-0.1,0-0.1,0-0.2,0c0,0.1,0,0.2,0,0.2
				c0.2,0.2,0.3,0.4,0,0.7c0-0.2-0.1-0.3-0.1-0.5c0-0.1,0-0.2-0.1-0.1c-0.1,0.1-0.3,0.2-0.4,0.3c-0.1,0.1-0.1,0.1-0.2,0.1
				c-0.1,0-0.2,0-0.3,0c-0.1,0.1-0.3,0.1-0.3,0.3c0,0,0,0,0,0c-0.1,0.1-0.2,0.2-0.3,0.2c-0.1,0.1-0.2,0.2-0.2,0.3
				c-0.1,0.3-0.4,0.4-0.6,0.4c-0.2,0-0.4,0-0.7-0.1c0,0,0,0,0,0c0,0.2-0.1,0.2-0.2,0.1c-0.2-0.1-0.2,0.1-0.3,0.1
				c-0.1,0-0.1,0.1-0.1,0.2c0,0,0,0.1,0.1,0.1c0.1,0.1,0.3,0.2,0.4,0.3c0-0.1,0.1-0.2,0.3-0.1c0.1,0,0.3,0.1,0.4-0.1c0,0,0,0,0,0
				c0.1,0.1,0.3,0.2,0.4,0.3c0,0,0,0,0,0c0,0,0.1,0.1,0.1,0.1c0,0,0.1-0.1,0.1-0.1c0,0,0.1-0.1,0.1-0.1c0,0,0.1,0,0.1,0.1
				c0.1,0.1,0.1,0.2,0.1,0.3c0,0,0.1,0.1,0.1,0.1c0,0,0.1-0.1,0.1-0.1c0-0.1,0-0.2,0-0.3c0-0.1,0-0.2,0.2-0.1c0.1,0,0.2,0,0.2-0.1
				c0,0,0.1-0.1,0.1-0.1c0.1,0,0.1,0,0.2,0.1c0,0,0,0.1,0,0.1c0,0.1,0,0.2,0,0.2c0,0,0.1,0.1,0.2,0.1c0.1,0,0.2,0,0.2,0.1
				c0.1,0,0.2,0.1,0.2,0.1c0.3,0,0.5,0,0.8,0c0,0,0,0,0,0c0.1,0,0.3-0.1,0.4,0c0.1,0,0.2,0,0.3,0c0.1-0.1,0.3-0.1,0.5-0.1
				c0.2,0,0.3-0.2,0.4-0.4c0-0.1,0.1-0.2,0.2-0.2c0.2-0.1,0.3-0.2,0.2-0.3c0-0.1,0.1-0.1,0.2-0.1c0.1,0,0.1,0.1,0.1,0.1
				c0,0,0.1,0.1,0.1,0.1c0.1,0.1,0.3,0.2,0.5,0.3c0,0,0.1,0.1,0.1,0.1c0,0.3,0.2,0.6,0,0.9c-0.1,0.1,0,0.2,0.1,0.3
				c0,0,0.1,0.1,0.1,0.1c0,0.2,0.1,0.2,0.2,0.1c0.1,0,0.1,0,0.2,0c0,0.1,0.1,0.1,0.1,0.2c0.2-0.4,0.2-0.4,0.4-0.4
				c-0.1,0.1-0.1,0.2-0.2,0.3c0,0.1,0,0.2,0,0.2c0.1,0.1,0.3,0.2,0.4,0.1c0.3,0,0.5-0.1,0.7-0.2c0.2-0.1,0.4-0.3,0.6-0.4
				c0.1,0,0.1-0.1,0.2-0.1c0.2-0.1,0.3-0.2,0.4-0.3c0.1-0.1,0.3-0.2,0.5-0.2c0.2-0.1,0.2-0.1,0.2-0.3c0-0.2,0-0.4,0.3-0.5
				c0.1-0.1,0.3-0.1,0.4-0.2c0.1,0,0.1-0.1,0.2,0c0,0,0.1,0,0.2,0c0.1,0,0.1-0.1,0.2-0.2c0.1-0.1,0.2-0.3,0.4-0.2
				c0.2,0.1,0.3,0.2,0.5,0.1c0,0,0.1,0,0.1,0c0,0,0.1,0,0.1,0c0.1,0,0.2-0.1,0.3-0.1c0.1,0,0.2-0.1,0.2-0.2c0-0.1,0.1-0.2,0.2-0.3
				c0.1-0.1,0.2-0.2,0.3-0.2c0,0,0.1-0.1,0.1-0.1c0,0,0.1,0.1,0.1,0.1c0.1-0.2,0.2-0.2,0.3-0.1c0,0,0.1,0,0.1,0c0.2,0,0.4,0,0.6-0.2
				c0.2-0.2,0.5-0.3,0.7-0.5c0.2-0.3,0.5-0.4,0.8-0.6c0.3-0.3,0.7-0.5,1-0.8c0.2-0.2,0.5-0.4,0.7-0.6c0.2-0.1,0.3-0.3,0.4-0.4
				c0.2-0.2,0.4-0.4,0.6-0.6c0.1-0.1,0.3-0.2,0.4-0.3c0.2-0.2,0.4-0.4,0.6-0.7c0.3-0.3,0.7-0.7,1-1c0.4-0.4,0.7-0.8,1-1.2
				c0.3-0.4,0.6-0.8,0.9-1.1c0.2-0.2,0.4-0.4,0.6-0.7c0.1-0.2,0.2-0.3,0.3-0.4c0.1-0.1,0.1-0.2,0.2-0.3c0.2-0.3,0.5-0.6,0.7-0.9
				c0.1-0.2,0.2-0.4,0.4-0.6c0.2-0.2,0.3-0.5,0.4-0.7c0.1-0.2,0.3-0.4,0.5-0.6c0.1-0.1,0.1-0.2,0.2-0.3c0.1-0.2,0.3-0.4,0.4-0.6
				c0.1-0.2,0.2-0.3,0.3-0.5c0.1-0.2,0.3-0.5,0.4-0.7c0,0,0-0.1,0-0.2c-0.1-0.2,0-0.4,0.3-0.5c0.1,0,0.1-0.1,0.1-0.1
				c0.1-0.1,0.1-0.1,0.1-0.2c0.1-0.2,0.2-0.3,0.4-0.5c0.2-0.3,0.3-0.6,0.5-0.8c0.2-0.3,0.3-0.7,0.5-1.1c0-0.1,0.1-0.2,0-0.2
				c0-0.2,0-0.3,0.2-0.4c0.1-0.1,0.2-0.2,0.3-0.3c0.2-0.3,0.3-0.6,0.5-1c0.1-0.3,0.4-0.6,0.4-1c0,0,0-0.1,0.1-0.1
				c0-0.1,0.1-0.1,0.1-0.2c0.1-0.2,0.2-0.5,0.3-0.7c0.1-0.2,0.2-0.4,0.2-0.7c0.1-0.3,0-0.6,0.2-0.8c0,0,0-0.1,0-0.1
				c0.1-0.2,0.1-0.4,0.2-0.6c0-0.1,0.1-0.3,0.1-0.4c0-0.2,0-0.4,0.2-0.5c0,0,0-0.1,0-0.1c0-0.1-0.1-0.3-0.1-0.4c0-0.1,0-0.1,0-0.2
				c0-0.1,0.1-0.1,0.2-0.2c0,0,0.1-0.1,0-0.1c-0.1-0.1,0-0.2,0-0.2c0-0.1,0.1-0.1,0.1-0.2c0.1-0.1,0.1-0.3,0.2-0.3
				c0.1,0,0.1-0.1,0.1-0.2c0.1-0.4,0.3-0.8,0.3-1.2c0-0.2,0.1-0.3,0.1-0.5c0-0.1,0-0.2,0-0.3c0-0.1,0-0.2,0.1-0.2
				c0.3-0.3,0.3-0.6,0.3-1c0,0,0-0.1,0-0.1c-0.2-0.2-0.1-0.3,0.1-0.4c0,0,0.1,0,0.1,0c0,0,0.1-0.1,0.1-0.2c-0.1-0.2,0-0.5,0.1-0.7
				c0.1-0.2,0.1-0.5,0.3-0.7c0,0,0-0.1,0-0.1c0,0,0-0.1,0-0.1c0.1,0,0.1-0.1,0.1-0.2c0,0,0-0.1,0-0.1c0-0.1,0.1-0.2,0.1-0.3
				c0-0.3,0.1-0.5,0.2-0.8c0-0.1,0.1-0.2,0-0.3c0-0.1-0.1-0.3-0.2-0.4c-0.1,0-0.1,0.1-0.2,0.1c-0.1-0.2-0.2-0.1-0.3,0
				c-0.1,0.1-0.4,0-0.5,0c0,0,0-0.1,0-0.1c0,0,0-0.1,0-0.1c-0.2-0.1-0.1-0.3,0-0.4c0.1-0.1,0.1-0.2,0.2-0.3c0-0.1,0-0.1,0.1-0.2
				c0-0.1,0-0.2,0.1-0.2C138.4,100.7,138.4,100.6,138.2,100.4z M107.5,134.9c0-0.1,0-0.1,0-0.1c-0.1-0.2,0.1-0.2,0.1-0.3
				c0-0.1,0-0.2,0-0.4c0,0,0.1-0.1,0.1,0c0.2,0.1,0.3,0.1,0.4-0.1c0-0.1,0.1-0.1,0.1-0.1c0.3-0.1,0.4-0.4,0.2-0.6c0,0-0.1,0-0.1,0
				c0,0-0.1,0-0.2,0c0-0.1,0.1-0.1,0.1-0.2c0-0.1,0-0.1,0-0.2c-0.1-0.1-0.1-0.2-0.2-0.3c0.1-0.2,0.2-0.3,0.3-0.4
				c-0.1-0.1-0.2-0.1-0.2-0.2c0,0,0,0,0,0c0,0,0,0,0.1,0c0.1,0.1,0.2,0.1,0.3,0c0.1-0.1,0.1-0.3,0.1-0.4c0-0.1,0-0.2,0-0.3
				c0,0,0-0.1,0-0.1c0,0-0.1,0-0.1,0.1c-0.1,0.1-0.1,0.1-0.2,0.2c0,0-0.1,0-0.1,0.1c-0.1,0.2-0.2,0.4-0.4,0.4
				c-0.1,0.1-0.1,0.2-0.1,0.3c0,0.1-0.1,0.1-0.1,0.2c-0.1,0.3-0.3,0.5-0.6,0.6c0,0-0.1,0.1-0.1,0.1c0.2,0,0.2,0,0.1,0.2
				c0,0.1,0,0.1-0.1,0.2c0,0.1-0.1,0.1-0.2,0.2c0,0-0.1-0.1-0.2-0.1c0,0.1-0.1,0.2-0.1,0.3c0.2,0.2,0.2,0.2,0.1,0.4c0,0,0,0.1,0,0.1
				c0.1,0.1,0.1,0.2,0.2,0.3c0.1,0.1,0.1,0.2,0.2,0.1c0,0,0.1,0,0.2,0C107.4,134.9,107.4,134.9,107.5,134.9z M108.2,134.9
				c0.1,0,0.2,0.1,0.3,0.1c0.2,0.1,0.4,0.1,0.5-0.1c0-0.1,0-0.2,0.1-0.2c0-0.1-0.1-0.3-0.2-0.3c0,0-0.1,0-0.1,0.1
				c0,0.2-0.1,0.3-0.2,0.3C108.3,134.7,108.3,134.9,108.2,134.9z M132.9,98.3c0,0,0-0.1,0-0.2c0,0-0.1,0-0.1,0c0,0.1,0,0.1,0,0.2
				c0,0.1-0.1,0.2-0.2,0.2c0,0-0.1,0-0.1,0.1c0,0-0.1,0.1-0.1,0.2c0,0.1,0,0.1,0.1,0.1c0.1,0,0.2,0,0.2-0.1
				C132.7,98.6,132.8,98.5,132.9,98.3z M138.7,101.7c-0.1,0.2-0.1,0.3,0,0.3c0.1,0,0.1,0,0.2,0c0-0.1-0.1-0.2-0.1-0.3
				C138.8,101.7,138.7,101.7,138.7,101.7z M133.1,97.7c0-0.2,0.1-0.4,0.1-0.6C133,97.3,132.9,97.6,133.1,97.7z M110.1,129.7
				c0.1,0,0.2,0,0.2,0c0-0.1,0-0.2-0.1-0.2c0,0-0.1,0-0.2,0C110,129.5,110.1,129.6,110.1,129.7z M111.2,140c0.3,0,0.2-0.1,0.1-0.4
				C111.3,139.7,111.3,139.8,111.2,140z M109.8,139.5C109.8,139.5,109.8,139.4,109.8,139.5c-0.1-0.1-0.1-0.2-0.2-0.3
				c0,0-0.1,0-0.1,0c0,0,0,0.1,0.1,0.1c0,0,0.1,0.1,0.1,0.1C109.7,139.5,109.7,139.5,109.8,139.5z M110.4,139.9
				C110.4,139.9,110.4,139.9,110.4,139.9c-0.2,0-0.2,0.1-0.1,0.2C110.3,140,110.4,140,110.4,139.9z M132.9,97.8
				C132.9,97.8,133,97.8,132.9,97.8c0-0.1,0-0.1,0-0.2c0,0-0.1,0-0.1,0c0,0,0,0.1,0,0.1C132.8,97.8,132.9,97.8,132.9,97.8z
				 M109.9,129.7c0.1,0,0.1-0.1,0.1-0.1c0,0,0-0.1,0-0.1c0,0-0.1,0-0.1,0C109.8,129.6,109.9,129.7,109.9,129.7z M103.2,137.8
				C103.2,137.7,103.2,137.7,103.2,137.8c-0.1-0.1-0.1-0.1-0.2,0c0,0,0,0.1,0,0.1C103.1,137.8,103.2,137.8,103.2,137.8z"/>
			<path class="st1" d="M119.1,117.6c0.1-0.1,0.2-0.3,0.3-0.4c0,0,0,0,0.1,0C119.3,117.4,119.2,117.5,119.1,117.6
				C119.1,117.6,119.1,117.6,119.1,117.6z"/>
			<path class="st1" d="M117.4,122.1c0.1-0.2,0.2-0.4,0.4-0.6c0.1-0.1,0.2-0.1,0.3-0.1c0.1,0.1,0,0.1,0,0.2
				c-0.1,0.1-0.1,0.1-0.1,0.2c-0.1,0.1-0.2,0.2-0.3,0.3c-0.1,0.1-0.3,0.2-0.4,0.4c0,0-0.1,0-0.1,0c0-0.1-0.1-0.2,0.1-0.3
				C117.3,122.2,117.4,122.1,117.4,122.1C117.4,122.1,117.4,122.1,117.4,122.1z"/>
			<path class="st1" d="M119.4,126.5c0,0.1,0,0.3-0.1,0.3c-0.2,0.1-0.3,0.1-0.5,0.1c-0.1,0-0.2-0.1-0.1-0.2
				C118.8,126.5,119.1,126.4,119.4,126.5z"/>
			<path class="st1" d="M116,123.5c0.1-0.1,0.1-0.2,0.2-0.2c0.1,0,0.2,0.1,0.2,0.1c0,0,0,0.1,0,0.1c0,0.1-0.1,0.1-0.2,0.2
				c0,0-0.1,0-0.1,0.1c0-0.1,0-0.1,0-0.2c0,0,0-0.1,0.1-0.1C116.2,123.6,116.1,123.6,116,123.5C116.1,123.6,116,123.5,116,123.5z"/>
			<path class="st1" d="M107,138c-0.1,0-0.2,0-0.3,0.1c0-0.1-0.1-0.2,0-0.2c0-0.1,0.2-0.1,0.3-0.1C107,137.8,107,137.9,107,138z"/>
			<path class="st1" d="M118.6,128.3c-0.1,0-0.2,0.1-0.3,0c0-0.1-0.1-0.2,0-0.2c0-0.1,0.2-0.1,0.2-0.1
				C118.6,128.1,118.6,128.2,118.6,128.3z"/>
			<path class="st1" d="M120.8,119.8c-0.1,0.1-0.2,0.1-0.2,0.1c-0.1-0.1-0.1-0.1-0.1-0.2c0.1-0.1,0.2-0.1,0.2,0
				C120.8,119.6,120.8,119.7,120.8,119.8z"/>
			<path class="st1" d="M131.9,99.5c0-0.1,0-0.2,0-0.2c0,0,0.1,0,0.1,0c0,0.1,0,0.1,0,0.1C132,99.4,131.9,99.5,131.9,99.5z"/>
			<path class="st1" d="M132.1,99.8c0-0.1,0.1-0.1,0.1-0.2c0,0,0.1-0.1,0.1-0.1c0,0,0.1,0,0.1,0.1c0,0,0,0.1-0.1,0.1
				C132.2,99.8,132.1,99.8,132.1,99.8z"/>
			<path class="st1" d="M131.7,99.3c0,0.1,0.1,0.2,0.1,0.2c0,0-0.1,0-0.1,0C131.7,99.5,131.6,99.5,131.7,99.3
				C131.6,99.4,131.6,99.4,131.7,99.3z"/>
			<path class="st1" d="M111.2,130.5c-0.1,0-0.1,0-0.1,0c0,0,0-0.1,0-0.1c0,0,0.1,0,0.1,0C111.2,130.4,111.2,130.5,111.2,130.5z"/>
			<path class="st1" d="M118.7,120.9c-0.1,0-0.1-0.1-0.2-0.1c0,0,0-0.1,0-0.1C118.6,120.7,118.7,120.8,118.7,120.9
				C118.8,120.8,118.7,120.8,118.7,120.9z"/>
			<path class="st1" d="M118.3,121.3c-0.1,0-0.1,0-0.1,0c0,0,0-0.1-0.1-0.2c0,0,0.1,0,0.1,0C118.2,121.2,118.3,121.2,118.3,121.3z"
				/>
			<path class="st1" d="M115.7,123.8c0.1,0,0.1,0,0.1,0c0,0,0,0.1,0,0.1c0,0-0.1,0-0.1,0C115.7,124,115.7,123.9,115.7,123.8z"/>
		</g>
	</g>
</g>
</svg>
