<svg id="Layer_1" data-name="Layer 1" xmlns="http://www.w3.org/2000/svg" viewBox="0 0 668.98 496.86"><title>logo</title><path d="M253.82,25a8.35,8.35,0,0,1-7.86,7H86.7L81.75,63.13,150.09,63a6,6,0,0,1,6.12,7l-2.36,17.9c-0.44,3.93-3.93,7.57-7.86,7.57H77.65L59,202.55A8,8,0,0,1,51.13,210l-21.71-.15c-3.93,0-6.55-3.06-6.11-7.42l30.94-195A8.36,8.36,0,0,1,62.11,0H250.5c3.93,0,6.11,3.06,5.67,7.43Z" fill="#fff"/><path d="M158.16,205.65c-1,2.21-2.45,4.17-4.67,4.17H121.91c-2.2,0-3.19-2-2.2-4.17L190.34,67.08c1-2.21,2.21-4.17,4.66-4.17h45.87A4.47,4.47,0,0,1,245,67.08l31.15,138.57a3.79,3.79,0,0,1-3.92,4.17H241.62c-2.45,0-3.19-2-3.43-4.17L233,176H171.42Zm54.62-104-27.05,43.44h41.07Z" fill="#fff"/><path d="M416.7,63.64a3.6,3.6,0,0,1,3.68,4.42l-2.9,21.25a5,5,0,0,1-4.91,4.42H362.47L343.78,205.41a5,5,0,0,1-5.15,4.41H311.36a3.51,3.51,0,0,1-3.68-4.41L326.36,93.73H277.67a3.88,3.88,0,0,1-3.93-4.42l2.9-21.25a5.49,5.49,0,0,1,5.16-4.42H416.7Z" fill="#fff"/><path d="M46.83,277.49l41.63-45c2.39-2.59,4.59-3.59,7.37-3.59h32.87c3,0,3.59,2.79,1,5.38l-53.19,53L114,358.37c1.4,2.79,1.6,6.17-2.38,6.17H81.89a5.9,5.9,0,0,1-6-3.59l-25.5-48.21-10,10-5.37,38.45a4,4,0,0,1-3.79,3.39H2.81A2.81,2.81,0,0,1,0,361.15L18.15,232.27a3.66,3.66,0,0,1,3.59-3.38H50.42a2.81,2.81,0,0,1,2.79,3.38Z" fill="#fff"/><path d="M144.35,491.65a4,4,0,0,1-3.79,3.39H112.08a2.8,2.8,0,0,1-2.78-3.39l35.35-259.38a3.67,3.67,0,0,1,3.59-3.38h28.69a2.81,2.81,0,0,1,2.78,3.38Z" fill="#fff"/><path d="M271.82,333.47a2.59,2.59,0,0,1,2.58,3.19L271,361.15a3.67,3.67,0,0,1-3.59,3.39H188.16a2.8,2.8,0,0,1-2.79-3.39l18.13-128.89a3.66,3.66,0,0,1,3.59-3.38h28.69a2.81,2.81,0,0,1,2.79,3.38L224.2,333.47h47.62Z" fill="#fff"/><path d="M372.61,333.47a2.6,2.6,0,0,1,2.59,3.19l-3.39,24.5a3.66,3.66,0,0,1-3.58,3.39H289a2.8,2.8,0,0,1-2.79-3.39l18.13-128.89a3.66,3.66,0,0,1,3.59-3.38h28.68a2.81,2.81,0,0,1,2.79,3.38L325,333.47h47.61Z" fill="#fff"/><path d="M496.07,256.77a3.81,3.81,0,0,1-3.59,3.19H436.1l-2.79,20.72h44.42a2.7,2.7,0,0,1,2.6,3.18l-3.79,24.5a3.84,3.84,0,0,1-3.59,3.38h-44l-3.18,21.72H488.9a2.59,2.59,0,0,1,2.58,3.19l-3.38,24.5a3.67,3.67,0,0,1-3.59,3.39H389.69a2.9,2.9,0,0,1-2.79-3.39L405,232.27a4,4,0,0,1,3.78-3.38h88.25c1.79,0,2.79,1.39,2.59,3.38Z" fill="#fff"/><path d="M610.89,300.59c-4.58,6.57-10.76,11.16-17.93,14.54l75.51,174.94c1,2.19.59,4.58-2,4.58H635.81a5.72,5.72,0,0,1-5.18-3.39l-72.52-171H544l-5.58,40.84a4,4,0,0,1-4,3.39H506.11a2.65,2.65,0,0,1-2.78-3.39l17.92-128.68c0.4-2.19,1.79-3.59,3.78-3.59h41c16.54,0,28.89,4,37.45,10.36,10.76,7.77,15.54,19.53,15.54,32.08C619.06,283.46,616.07,293.22,610.89,300.59ZM580,262.35c-3.38-2.79-8-3.78-12.75-3.78H552.73l-4.58,32.27h17.13c6,0,11.16-1.4,14.74-4.78,3-2.59,4.78-6.57,4.78-11.95C584.79,268.32,583,264.74,580,262.35Z" fill="#fff"/><path d="M170.39,445.54c0-32.11,25.19-58.87,62.81-58.87,11.49,0,26.93,4.1,33.85,7.72,1.74,0.94,1.58,2.36.79,3.62l-11.3,24c-0.95,1.42-1.89,1.73-3.62,1.1-5-1.89-10.52-7.23-24.17-5.81s-25.43,13.66-25.15,27c0.2,9.08,6.45,18.49,18.73,20.61,10.65,1.84,20.07-1.93,24.58-6.21,1.34-1.26,2.52-.63,3.15.95L260.45,485a2.61,2.61,0,0,1-1.57,3.46c-9.13,4.09-24.12,8.42-35.77,8.42C194.78,496.86,170.39,481.43,170.39,445.54Z" fill="#fff"/><path d="M359.52,465.16a2.06,2.06,0,0,1,2,2.52l-3.32,24.93a2.89,2.89,0,0,1-2.83,2.67H276.79a2.21,2.21,0,0,1-2.2-2.67l14.33-101.84a2.89,2.89,0,0,1,2.83-2.67h30.05a2.22,2.22,0,0,1,2.2,2.67L313.3,465.16h46.22Z" fill="#fff"/><path d="M446,390.92a3.32,3.32,0,0,1,3-2.83h28.28a2.37,2.37,0,0,1,2.35,2.83l-8.81,62c-1.57,11-5.67,20.46-12,27.86-8.81,10.07-28,16.05-45.58,16.05-13.07,0-23.15-3.46-29.91-9.76-6.92-6.29-10.7-15.43-10.7-26.6a71.07,71.07,0,0,1,1.1-10.86l8.35-58.72a3.2,3.2,0,0,1,3-2.83h27.8a2.45,2.45,0,0,1,2.36,2.83l-8,55.88a61.9,61.9,0,0,0-.94,9.29c0,5.19,1.18,7.4,2.49,9,2,2.34,6.49,4.09,9.56,4.33,4.69,0.36,11.18-.9,13.83-4.48s4.56-8.66,5.35-14.8Z" fill="#fff"/><path d="M569.76,486c-6.76,6.14-22.93,9.29-34.73,9.29H485.68a2.29,2.29,0,0,1-2.21-2.67L497.8,390.76a3,3,0,0,1,2.84-2.67h35c9.92,0,24.19,2.36,30,7.08,5,4.25,8,10.55,8,18.89A25.89,25.89,0,0,1,561,437.51v0.32c6.46,2.36,11.18,5.82,14.17,10.23s4.25,9.76,4.25,15.59C579.37,473.25,575.91,480.65,569.76,486Zm-26.7-32.11c-3-2.52-7.71-3-12.12-3H522l-3.15,21.88H530c5.66,0,10.07-.95,12.75-3.15q3.31-2.83,3.31-8C546.05,458,545,455.46,543.06,453.89ZM540.86,412a8,8,0,0,0-5.82-2l-7.12-.23-2.68,18.89,5.71,0.24c4.1,0,7.4-1.26,9.44-3.62a11.18,11.18,0,0,0,2.68-7.71A7.11,7.11,0,0,0,540.86,412Z" fill="#fff"/></svg>