<?xml version="1.0" encoding="utf-8"?>
<!-- Generator: Adobe Illustrator 19.2.1, SVG Export Plug-In . SVG Version: 6.00 Build 0)  -->
<svg version="1.1" id="Layer_1" xmlns="http://www.w3.org/2000/svg" xmlns:xlink="http://www.w3.org/1999/xlink" x="0px" y="0px"
	 viewBox="0 0 282.6 568.7" style="enable-background:new 0 0 282.6 568.7;" xml:space="preserve">
<style type="text/css">
	.st0{fill:#32A8E0;}
	.st1{fill:#FFFFFF;}
	.st2{clip-path:url(#SVGID_2_);}
	.st3{clip-path:url(#SVGID_4_);}
	.st4{clip-path:url(#SVGID_6_);}
	.st5{clip-path:url(#SVGID_8_);}
	.st6{clip-path:url(#SVGID_10_);}
	.st7{clip-path:url(#SVGID_12_);}
	.st8{clip-path:url(#SVGID_14_);}
	.st9{clip-path:url(#SVGID_16_);}
	.st10{clip-path:url(#SVGID_18_);}
	.st11{clip-path:url(#SVGID_20_);}
	.st12{clip-path:url(#SVGID_22_);}
	.st13{clip-path:url(#SVGID_24_);}
	.st14{clip-path:url(#SVGID_26_);}
	.st15{clip-path:url(#SVGID_28_);}
	.st16{clip-path:url(#SVGID_30_);}
	.st17{clip-path:url(#SVGID_32_);}
	.st18{clip-path:url(#SVGID_34_);}
	.st19{clip-path:url(#SVGID_36_);}
	.st20{clip-path:url(#SVGID_38_);}
	.st21{clip-path:url(#SVGID_40_);}
	.st22{clip-path:url(#SVGID_42_);}
	.st23{clip-path:url(#SVGID_44_);}
	.st24{clip-path:url(#SVGID_46_);}
	.st25{clip-path:url(#SVGID_48_);}
	.st26{fill:#E52427;}
	.st27{fill:#FFEC00;stroke:#FFFFFF;stroke-miterlimit:10;}
	.st28{fill:none;stroke:#E52427;stroke-miterlimit:10;}
</style>
<title>4</title>
<rect x="63.3" y="258.5" width="40" height="27"/>
<polygon class="st0" points="38.6,45.5 31.1,61 41.4,110.7 76.7,127.4 128.7,127.2 201.8,117.5 222.9,107.4 224.3,69.4 223.3,40.8 
	216.3,37.5 "/>
<path class="st0" d="M161.8,45.1l5.2-9.2l-11.2-5.4l-8.5,3.4l0,0c-1.6-0.8-3.2-1.5-4.9-2.1l-3.2-1.3l14.6-17.3L123.6,0l-6.8,12.2
	l0.7,18.3c-0.5,0.1-1.1,0.3-1.6,0.4l-3.8,1l-3.1-4.1l-14.2,5.4l2.7,7.8c-18.3,16.7-19.7,45.1-3,63.4s45.1,19.7,63.4,3
	c9.4-8.5,14.7-20.6,14.7-33.2C172.5,63.5,168.7,53.2,161.8,45.1z"/>
<path d="M129.2,33.2c0.1-1,0.3-1.9,0.4-2.9c1.7,0.1,3.2,0.3,4.9,0.4c-0.1,1-0.2,1.9-0.2,2.9c12.9,2.4,22.8,9,29.1,20.5
	c4.6,8.2,6,17.7,4,26.9c-4.4,21.5-25.5,35.4-47,31c-21.5-4.4-35.4-25.5-31-47C93.3,46.2,110,32.8,129.2,33.2z M125.5,107.6
	c19.1,1.6,35.9-12.5,37.5-31.6s-12.5-35.9-31.6-37.5C112.3,36.9,95.6,51,93.9,70C92.2,89.1,106.4,105.9,125.5,107.6
	C125.5,107.6,125.5,107.6,125.5,107.6z"/>
<path d="M133.9,8.8c1.4,0.1,2.7,0.2,4.1,0.4c3.4,0.2,5.9,3.1,5.7,6.4c0,0.1,0,0.2,0,0.4c-0.1,1.7-0.3,3.3-0.4,5
	c-0.2,2.3-1.7,4.3-3.9,5.2c-0.5,0.2-0.8,0.7-1,1.2c-0.2,1.2-1.3,2.1-2.5,2l-7.3-0.6c-1.2-0.1-2.2-1.1-2.2-2.3
	c-0.1-0.5-0.4-1-0.8-1.3c-2.1-1.2-3.3-3.6-3-6c0.2-1.7,0.3-3.4,0.4-5.1c0.3-3.1,2.9-5.4,6-5.3C130.6,8.6,132.3,8.6,133.9,8.8
	C133.9,8.8,133.9,8.8,133.9,8.8z M138.6,24.3c1.4-0.4,2.5-1.6,2.7-3.1c0.3-2,0.5-3.9,0.5-5.9c0-2.2-1.7-4.1-3.9-4.3
	c-2.8-0.3-5.7-0.6-8.5-0.7c-2.1-0.2-4.1,1.3-4.5,3.4c-0.3,2.1-0.5,4.2-0.5,6.3c0,1.4,0.8,2.7,2,3.3c0.7-3.1,1.1-3.4,4.3-3.1
	c1.5,0.1,3,0.3,4.5,0.4C138.2,20.8,138.6,21.3,138.6,24.3z"/>
<path d="M105.2,39c-0.2-0.4-0.5-0.8-0.8-1.1c-1.7,0.2-3.3-1-3.5-2.8c0,0,0,0,0,0c0-0.5,0.3-1,0.7-1.3c1.5-1,3-1.9,4.6-2.9
	c0.6-0.5,1.5-0.3,1.9,0.3c0,0,0.1,0.1,0.1,0.1c1.4,1.9,1.5,2.4,0.5,3.8c0.2,0.3,0.5,0.7,0.8,1.2C108,37.2,106.6,38.1,105.2,39z"/>
<path d="M156.9,43.3c-1.2-1.1-2.4-2.1-3.7-3.2c0.3-0.4,0.6-0.7,0.9-1c-0.6-1.4,0.3-3.7,1.8-4.1c0.5-0.1,1,0,1.4,0.3
	c1.4,1.1,2.7,2.3,4.1,3.5c0.6,0.4,0.8,1.3,0.4,1.9c-0.1,0.1-0.2,0.2-0.3,0.3c-0.9,0.9-1.5,2.5-3.3,1.5
	C157.7,42.7,157.3,43,156.9,43.3z"/>
<path d="M131.1,40.1c18.3,1.5,31.8,17.5,30.3,35.8c-1.5,18.3-17.5,31.8-35.8,30.3c-18.2-1.5-31.8-17.5-30.3-35.8
	c1.5-18.2,17.4-31.8,35.7-30.3C131,40.1,131.1,40.1,131.1,40.1z M131.1,41.9c-17.2-1.3-32.2,11.7-33.5,28.9
	c-1.2,16.8,11.1,31.6,27.9,33.4c17.1,1.5,32.4-11.2,34-28c1.7-17.2-10.9-32.6-28.2-34.3C131.2,41.9,131.2,41.9,131.1,41.9z"/>
<path d="M122.2,81.7l-2.3-2.3c1.5-1.4,3-2.7,4.3-4.1c0.4-0.4,0.5-1,0.5-1.5c-0.4-2.9,1.8-4.9,4.8-4.3c0.5,0.1,0.9,0,1.3-0.3
	c3.6-3.4,7.2-6.8,10.9-10.2c1.2-1.1,2.4-2.2,3.8-3.1c-1.7,1.9-3.5,3.8-5.2,5.7c-2.6,2.9-5.3,5.8-7.9,8.8c-0.3,0.5-0.5,1-0.4,1.6
	c0.5,2-0.7,4-2.7,4.6c-0.6,0.1-1.2,0.2-1.7,0c-0.5,0-1,0.2-1.3,0.5C124.9,78.6,123.7,80.1,122.2,81.7z M128.2,75
	c1,0.1,1.9-0.8,2-1.8c0.1-1-0.8-1.9-1.8-2l0,0c-1-0.1-1.9,0.8-2,1.8C126.3,74,127.2,74.9,128.2,75z"/>
<path d="M101.1,69.9c0.5,0,1.1,0,1.6,0.2c0.4,0.2,0.6,0.5,0.7,0.9c-0.1,0.3-0.4,0.6-0.7,0.8c-1.2,0-2.4-0.1-3.6-0.3
	c-0.3-0.2-0.5-0.5-0.5-0.9c0.1-0.4,0.4-0.6,0.8-0.7C100,69.7,100.5,69.7,101.1,69.9L101.1,69.9z"/>
<path d="M127,100.4c0,0.5,0,1-0.2,1.5c-0.3,0.4-0.6,0.7-1,1c-0.3-0.3-0.6-0.7-0.7-1.1c0-1,0.1-2,0.3-3c0.2-0.4,0.5-0.7,0.9-0.9
	c0.3,0.3,0.6,0.7,0.8,1.1C127.1,99.5,127.1,99.9,127,100.4z"/>
<path d="M131.6,45.8c0,0.5,0,1-0.2,1.5c-0.3,0.4-0.6,0.7-1,1c-0.3-0.3-0.6-0.7-0.7-1.1c0-1,0-1.9,0.2-2.9c0.3-0.4,0.6-0.7,1-0.9
	c0.3,0.3,0.6,0.7,0.8,1.1C131.8,44.9,131.7,45.4,131.6,45.8z"/>
<path d="M155.6,76.3c-0.5,0-1.1,0-1.6-0.2c-0.4-0.2-0.6-0.5-0.7-0.9c0.1-0.4,0.4-0.7,0.8-0.8c1.1,0,2.1,0.1,3.2,0.3
	c0.4,0.2,0.7,0.5,0.8,0.9c-0.2,0.4-0.5,0.7-0.9,0.9C156.7,76.5,156.1,76.4,155.6,76.3C155.6,76.3,155.6,76.3,155.6,76.3z"/>
<path d="M153.6,62.2c-0.3-0.3-0.5-0.7-0.7-1l1.8-1.2c0.1,0,0.4,0.4,0.7,0.6C154.8,61.2,154.2,61.6,153.6,62.2z"/>
<path d="M113.4,95.9c-0.7,0.6-1.2,1.1-1.7,1.6c-0.2-0.2-0.4-0.4-0.6-0.7c0.4-0.6,0.9-1.1,1.4-1.6C112.8,95.4,113.1,95.6,113.4,95.9z
	"/>
<path d="M140.4,97.4c0.4,0.6,0.7,1.2,0.9,1.9c-0.1,0.3-0.3,0.5-0.6,0.7c-0.4-0.6-0.8-1.1-1.2-1.8c0.1-0.3,0.2-0.6,0.4-0.8
	C139.9,97.4,140.4,97.4,140.4,97.4z"/>
<path d="M116.2,45.7c0.4,0.8,0.7,1.6,1,2.4c-0.2,0.2-0.4,0.4-0.6,0.6c-0.4-0.6-0.8-1.2-1.2-1.8C115.6,46.4,115.8,46,116.2,45.7z"/>
<path d="M146,49.3c-0.6,0.6-1.2,1.1-1.8,1.6c-0.2-0.2-0.4-0.4-0.5-0.7c0.4-0.6,0.8-1.1,1.3-1.6C145.1,48.6,145.5,49,146,49.3z"/>
<path d="M102,86.4c-0.2-0.3-0.4-0.6-0.5-1c0.6-0.4,1.2-0.8,1.8-1.1c0.2,0.2,0.4,0.4,0.6,0.7C103.3,85.4,102.8,85.8,102,86.4z"/>
<path d="M153.3,89.7c-0.4,0.2-0.8,0.4-1.2,0.6c-0.6-0.4-1.1-0.9-1.6-1.5c0.2-0.2,0.4-0.4,0.7-0.5L153.3,89.7z"/>
<path d="M104.6,55.5l1.7,1.7c-0.2,0.2-0.4,0.4-0.7,0.6c-0.6-0.4-1.2-0.9-1.7-1.4C103.9,56.4,104.2,56,104.6,55.5z"/>
<path d="M139.7,122.5L139.7,122.5c0.1,0,0.1,0,0.1-0.1L139.7,122.5z"/>
<path d="M220.5,101.6c0.5-2.1,1.1-4,0.6-6.4c-0.5-2.1-1.4-4.2-2.5-6.1c-0.6-1.2-2.4-1.9-0.9-3.6c-1.8-2.3,0.6-4.6,0.1-6.9
	c1.5-1.1,0.1-2-0.3-2.9c-0.4-0.4-0.9-0.7-1.5-0.9c0.5-0.3,0.9-0.8,1.1-1.3c-0.1-1.8,0.7-3.8-0.5-5.6c-0.3-0.5-0.3-1.1,0-1.6
	c0.2-0.7,0.9-1.2,1-1.8c0-0.7-0.1-1.5-0.3-2.2c0-0.3,0.2-0.6,0.2-0.9c0.3-1.9,1.1-3.7,1-5.7c0-1.2-0.1-2.4-0.5-3.6
	c-0.3-0.9-1.1-1.3-1.3-2c0.1-0.8,0.2-1.6,0.5-2.3c-0.1-0.3-0.3-0.5-0.5-0.6c-0.8-0.4-1.7-0.7-2.6-0.7h-21.6l-5,11.4L185.9,95
	l2.6,15.4L187,111c0,0.2-0.1,0.4-0.2,0.6c-0.9,1.5-1.1,3.3-0.4,4.9c0.1,0.5,0.3,1,0.7,1.3c3,1.7,5,4.6,7.4,6.9
	c0.9,1.1,1.7,2.2,2.3,3.5c0.1,0.3,0.2,0.5,0.4,0.7c-0.3,0.1-0.6,0.1-0.9,0.1c-2.9-1.4-5.5-3.3-7.6-5.7c-0.2-0.3-0.3-0.7-0.3-1.1
	c0.1-1.4-0.2-1.7-1.7-1.6c-0.4-0.1-0.7-0.2-1.1-0.3c-0.8-0.1-1.6-0.2-2.7-0.3c3.7,6.5,5.3,9.4,6,10.7c0-0.1,0.1-0.2,0.1-0.3v-0.1
	c-4.3-7.8-3-5.9-1.8-4c0.8,1.3,1.8,2.4,1.8,4c0.2,0.4,0.4,0.7,0.6,1.1c-0.1-0.1-0.2-0.3-0.3-0.4l-0.1,0.1l0.2,0.5
	c-0.1-0.1-0.3-0.2-0.4-0.3l0.2-0.2c-0.1-0.2-0.2-0.3-0.3-0.5c-0.1,0.1-0.2,0.3-0.3,0.4c-0.2,0.1-0.4,0.1-0.6,0
	c-1.2-1.4-2.4-2.8-3.6-4.3c-1.6-2.1-3.1-4.3-4.7-6.4c-0.6-0.8-1.4-1.3-2.4-0.5c-0.3,0.2-0.7,0.3-1.1,0.3c-1.1,0-1.9,0.2-2.1,1.4
	c-0.1,0.1-0.3,0.2-0.5,0.3c0-0.2,0-0.4-0.1-0.6c-0.1-0.2-0.2-0.3-0.3-0.5c-1,1.2-1.4,0.5-1.9-0.5c-0.4-0.4-1-0.4-1.4,0
	c-0.1,0.1-0.2,0.3-0.3,0.5c-0.3,0.7-0.6,1.5-0.7,2.3c0.2,1.7,0.2,3.5,0,5.2c-0.1,2.1-0.9,4-2.3,5.5c-0.2,0.2-0.4,0.4-0.7,0.5
	c-0.4-0.2-0.7-0.5-0.8-0.9c0.1-2.6-0.6-5.2,0.7-7.8c0.5-1.2,1-2.4,1.2-3.7c0-0.5-0.2-1-0.6-1.3c-0.5-0.6-1.1-0.5-1.3,0.3
	c-0.4,1.5-1.3,3.1-1.2,4.6c0.2,2.4-1.3,3.9-2.3,5.5c-0.7,1.1-1.6,2.6-3.3,2.7c-0.1-1.3-0.2-2.5-0.3-3.8c-0.1-1.4,0.4-2.7,1.3-3.7
	c1-1.4,1.8-2.9,2.5-4.4c0.1-0.4,0.2-0.9,0.1-1.3c-0.1-0.5-0.6-0.8-1.1-0.7c-0.1,0-0.3,0.1-0.4,0.2c-1.7,1.4-2.7,3.3-3,5.5
	c-0.1,0.4-0.2,0.8-0.4,1.1c-1,2.1-2.7,3.7-4.8,4.7c-0.1,0.1-0.3,0.1-0.4,0.1c-0.1-0.2-0.2-0.4-0.2-0.6c0.9-2.7,2.2-5.2,3.9-7.4
	c0.8-1,1.6-1.9,2.3-2.9c0.2-0.4,0.2-0.8,0.2-1.2c0-0.6-0.2-0.7-0.7-0.3c-0.4,0.2-0.8,0.5-1.2,0.8c-0.4,0.4-0.6,1.1-1,1.5
	c-1.8,1.4-3.4,3.1-5.2,4.4c-1.3,0.9-2.5,2.2-4,2.8c-0.3,0.2-0.7,0.3-1.1,0.4l0.3-1.2c1.7-3.2,4-6.1,6.8-8.4c0.5-0.3,1-0.6,1.5-1
	c0.2-0.5,0.4-1,0.5-1.5c-0.6,0-1.2,0.1-1.7,0.3c-3.3,3.3-7.3,5.7-11.1,8.4c-0.3,0.2-0.6,0.2-0.9,0.2c0-0.3,0.1-0.6,0.3-0.9
	c2.1-3,4.5-5.8,7.1-8.4l1.8-1.8c0.1-0.3,0.2-0.6,0.2-0.9c-0.4-0.1-0.7-0.1-1.1-0.1c-0.5,0.1-0.9,0.4-1.3,0.7
	c-3.4,2.5-6.7,5.3-10.5,7.3c-0.6,0.3-1.2,0.8-1.8,1.1c-0.2,0.1-0.5,0.1-0.7,0.1c0-0.3,0.1-0.6,0.2-0.9c1.9-2.4,4.2-4.4,6.8-6
	c1.7-1.1,3.7-1.7,5.1-3.3c0.3-0.4,1.1-0.7,0.4-1.2c-21.3,9.8-46.5,0.5-56.3-20.8c-7.4-16-4.1-35,8.3-47.5l-14.1,1
	c-0.1,0.4-0.4,0.7-0.5,1.1c0,0.7-0.6,1.2-1.3,1.1c0,0-0.1,0-0.1,0h-2.1l-0.2,0.5l-2.8,3.6l-3.4,3.4l-1.9,12.9l-1,23.8l4,9.6l2,7.6
	c0,0-8.8,0.4-9-0.2c-0.2-0.6-3.4-7.8-3.6-8.4s-3.4-9-3.4-9V80l2-25l7.7-8.5h-5.9c-1.1,0-2,0-1.7-1.5c-0.2-0.3-0.6-0.4-0.9-0.4
	c-0.5,0.2-1,0.4-1.4,0.6c-0.2,0-0.4,0-0.6,0c0-0.3,0-0.5,0.2-0.7c0.7-0.6,1.4-1.2,2.2-1.6c1.4-0.7-0.4-1.7,0.3-2.2
	c0.9-0.7,1-1.2,0-1.8c-0.4-0.3-0.8-0.5-1.3-0.7c0.1-0.2,0.3-0.3,0.4-0.5l2.5-0.4c-2.3-0.6-3.8-1.2-5.6-1.1c-0.9,0-1.9-0.1-2.8-0.3
	c-2-0.5-4.1-1.2-6.1-1.6c-1-0.2-2-0.3-3-0.6S45.1,33.6,44,33c-0.4-0.1-0.8-0.1-1.2,0c1.3,0.9,2.6,1.5,4.1,1.9
	c3.9,1,7.9,1.4,11.8,2.5c1.7,0.5,3.2,1.4,4.3,2.7c-0.6-0.1-1.3-0.1-1.9,0c-3.2,0.5-6.2-0.8-9.4-0.7c-1.8,0.1-3.7,0-5.5,0
	c-1.5,0-2.7-1-4.3-0.7c-0.8,0.2-1.5,0.2-1.6,1.3c1.4,0.3,2.8,0,4.3,0.6c1.2,0.5,2.8,0.2,4.1,0.1c4-0.4,8,0.9,12,0.7
	c0.3,0,0.5,0.2,0.6,0.5c0,0.3-0.1,0.6-0.3,0.8c-1.2,0.5-2.4,1-3.5,1.7c-1.8,1.5-4.1,2.3-6.5,2.2c-1-0.1-2.1,0.2-2.9,0.8
	c-1.1,0.8-2.4,1.4-3.8,1.8c-1.4,0.5-2.8,1-4.2,1.6c-0.3,0.2-0.5,0.4-0.7,0.7c0.2,0.1,0.5,0.2,0.8,0.3c0.3,0.1,0.7,0.1,1,0
	c0.9,0,1,0.5,0.6,1.2c-0.4,0.7-1.2,1.7-1,2.1c0.7,1.1-0.6,2,0,2.7c0.9,1.1-0.2,2-0.1,3.1c0,1.8-0.2,3.5-0.6,5.2
	c0,0.3-0.2,0.6-0.5,0.7c-0.9,0.5-0.4,1.1-0.1,1.7c0.3,0.7,0.5,1.5,0.7,2.3c0.4,1.3,0.6,2.6,0.6,3.9c-0.3,1.3-0.7,2.5-1.2,3.7
	c-0.1,0.2-0.2,0.3-0.3,0.5c-1.2,3.6-1.4,5.2-0.2,8c0.3,0.7,0.5,1.5,0.6,2.3c0.1,3.8,0.1,3.8,3.7,4c0.1,2.6,0.4,5.2,0.9,7.7
	c0.4,1.9,0.9,4,3.2,4.7c1.2,0.4,2.5,0.7,3.8,0.9c1.5,0.2,3,0,4.6,0.6c1.4,0.5,3.2,0.1,4.8,0.1s3,0.7,4.6,0.7c9.3-0.1,18.7,0,28-0.1
	c2.6,0,5.2,0.7,7.4,2.2c1.6,1.1,3.6,0.8,4.9,2.3c1.3-0.2,2.3,0.7,3.4,1.1c1.7,0.9,3.6,1.3,5.5,1.4c0.8,0,1.8-0.3,2.2,0.1
	c1.1,1,2.3,0.3,3.3,0.6c1,0.4,2.2,0.7,3.3,0.6c1.7-0.3,2.7,0.5,3.5,2c0.5,1.4,1.9,2.2,3.3,1.9c0.4-0.1,0.9-0.1,1.3,0
	c1.3,0,1.5,0.4,1.1,1.8c-0.4,1.4-0.1,2,1,2.1c2.2,0.3,4.5-0.2,6.3-1.5l-0.1-0.1c0.1-0.1,0.3-0.2,0.2,0c0.3-0.2,0.4-0.1,0.4-0.1
	s-0.2,0.3-0.3,0.4l-0.1-0.1c-0.2,0.6-0.4,1.2-0.7,1.8c-0.3,0.8-1.4,1.8-0.6,2.5c1,0.7,2.3,0.7,3.2-0.1c0.5-0.3,1-0.6,1.6-0.9
	l0.9-0.3c-0.1,0.3-0.1,0.6-0.2,0.9c-0.3,0.8-0.7,1.6-1,2.4c0.1,0.2,0.2,0.3,0.4,0.4c1.1,0.7,2.4,0.7,3.5,0c1.4-0.6,2.7-1.4,3.8-2.5
	c0.1-0.1,0.4-0.1,0.4,0c0.1,0.2,0.2,0.4,0.1,0.6c-0.7,1.2-1.5,2.4-1.3,4c0.2,1.3,1.2,2.1,2.4,1.5c1.1-0.7,2.2-1.4,3.2-2.3
	c0.2,0.6,0.4,1.2,0.7,1.9c0.9,1.9,1.1,2.1,3,1.8c0.5-0.1,0.9-0.3,1.3-0.6c1-0.9,2-1.9,2.9-2.9c-0.1,0.8-0.1,1.5,0,2.3
	c0.2,0.7,0.5,1.3,0.9,1.8c0.4,0.4,2.8-0.1,3.2-0.6s0.9-1.3,1.4-2s0.8-0.5,1.1,0c0.1,0.2,0.3,0.3,0.4,0.5c0.5,1.6,1.6,2.2,3.3,2.2
	c1.5,0.2,2.9-0.8,3.2-2.3c0.2-0.3,0.5-0.6,0.8-0.8c1,0.8,2,1.5,3,2.1c1.2,0.7,2.7,0.4,3.4-0.8c0.2-0.3,0.3-0.6,0.4-0.9
	c0.1-0.5,0.1-1.1,0.1-1.6c0.4,0.3,0.9,0.6,1.4,0.9c0.4,0.3,0.8,0.5,1.3,0.7c1.3,0.7,2,0.6,2.7-0.6c0.3-0.5,0.3-1.1,0.2-1.7
	c-0.3-1.2-0.7-2.3-1.3-3.4c-0.2-0.1-0.3-0.2-0.4-0.4c0.1,0,0.3-0.1,0.4-0.1c0.1,0.2,0.2,0.3,0.2,0.5h-0.1c1.8,0.8,3.5,1.7,5.1,2.8
	c1.1,0.8,2.1,0.4,3.1,0.4c0.7,0,1-1.2,0.7-1.9c-1-2.1-2.5-3.9-4.2-5.5c0.1-0.1,0.3-0.2,0.5-0.3c0.3,0.1,0.5,0.2,0.8,0.3
	c3.1,1.8,6.5,2.8,10.1,2.9c1.7,0,1.8-0.2,1.6-2.3c0.1-0.3,0.2-0.7,0.5-0.9c1.4,0.3,2.6-0.5,3.9-0.7c0.7,0,1.3-0.6,1.3-1.3
	c0-0.1,0-0.1,0-0.2c-0.1-1.3,0.3-1.7,1.7-1.9c0.9-0.1,1.7-1.1,2.5-1.8c0.3-0.4,0.5-0.9,0.4-1.4c-0.2-1.2,0.2-2.4,1.1-3.2
	c0.1-0.2,0.3-0.3,0.5-0.4c1.3-0.2,1.5-0.9,1.8-2.1c0.4-1,0.5-2.1,0.3-3.2C220.3,104.5,220.2,103,220.5,101.6z M174.9,133.6
	c-0.7,0.9-1.4,0.9-2,0.1c-1-1.6-1.7-3.4-2-5.3c-0.1-0.1-0.1-0.3,0-0.4c1.5-0.9,1-2.4,1.1-3.7c0-0.4,0.2-0.7,0.5-0.9
	c0.5-0.1,0.9,0.1,1.3,0.4c0.4,0.5,0.6,1,0.7,1.6c0.1,1.1,0.6,2.2,1.5,2.9c0.1,0.1,0.2,0.3,0.3,0.4
	C175.5,130.5,176,132.2,174.9,133.6z M182.7,133.5c-2.3-0.6-2.9-2.7-4-4.3c-1.4-2-0.8-4.2-1-6.9c1.4,1.7,2.6,2.9,3.5,4.2
	C182.7,128.5,183.3,131.1,182.7,133.5L182.7,133.5z M190.3,113.7l-0.2-0.2c0-0.2,0.1-0.3,0.2-0.4l0.2,0.2
	C190.5,113.4,190.4,113.6,190.3,113.7L190.3,113.7z M192.9,115.6c-0.1-0.1-0.2-0.2-0.2-0.4c0-0.1,0.1-0.2,0.2-0.2
	c0.1,0.1,0.2,0.2,0.2,0.4L192.9,115.6z M194.2,116.2c-0.1-0.1-0.2-0.2-0.2-0.4l0.2-0.2c0.1,0.1,0.2,0.2,0.2,0.4
	C194.4,116.1,194.3,116.2,194.2,116.2L194.2,116.2z M215.1,100.2c0.7,0.2,1.3,0.6,1.7,1.2c1.4,1.3,1.4,1.8,0.1,3.1l-2,2
	c-0.6-2.3-0.7-2.4-0.3-4.6C214.6,101.4,213.9,100.3,215.1,100.2L215.1,100.2z M210,107.9c0.2,0.1,0.4,0.3,0.6,0.4
	c-0.3,0.1-0.6,0.2-0.8,0.4c-0.1-0.2-0.1-0.4-0.2-0.6C209.6,107.9,209.8,107.8,210,107.9C210,107.9,210,107.9,210,107.9L210,107.9z
	 M206.8,111.3c0-0.4,0.3-0.7,0.6-0.8c0.8-0.1,1.7-0.1,2.5,0c1,0.1,2.8,1.6,2.6,1.7c-0.8,0.1-1.6,0.2-2.4,0.3h-2.5
	c-0.5,0-0.9-0.4-0.9-0.8C206.7,111.5,206.7,111.4,206.8,111.3L206.8,111.3z M199.9,115c0.9-0.6,1.9-1,3-1.3c0.9,0,1.8,0.3,2.5,0.9
	c1.4,0.8,3,1.1,3.9,2.9c-3.6,0.3-6.5-1.4-9.8-2.1C199.8,115.2,199.8,115,199.9,115L199.9,115z M197.5,113.7l0.2,0.2
	c-0.1,0.1-0.2,0.2-0.4,0.2c-0.1,0-0.2-0.1-0.2-0.2C197.3,113.9,197.4,113.8,197.5,113.7L197.5,113.7z M195.5,116.9l-0.2-0.2
	c0-0.2,0.1-0.3,0.2-0.4l0.2,0.2C195.6,116.6,195.5,116.7,195.5,116.9L195.5,116.9z M204.9,124.7c-1.1-0.2-2.1-0.5-3.1-1
	c-0.7-0.5-2.3,0.2-2.3-1.5c-0.4-0.2-0.8-0.2-1.2-0.1c-1.5,0.6-1-1.8-2.3-1.4c0.1-0.2,0.1-0.5,0.2-0.7c0.5-0.6,1.3-0.8,2-0.4
	c1.3,0.6,2.6,1,4,1.2c1.4,0.2,2.7,1.2,3.2,2.5c0.1,0.4,0.3,0.7,0.6,1C205.7,124.5,205.3,124.6,204.9,124.7L204.9,124.7z
	 M210.6,120.8c-2.2,0.1-4.3-0.1-6.4-0.7c-0.8-0.5-1.6-1.1-2.2-1.8h-0.3c0.1,0,0.1-0.1,0.2-0.1c-0.3,0-0.6-0.2-0.8-0.4
	c0.3-0.1,0.5-0.2,0.8-0.2c0.2,0.1,0.3,0.2,0.4,0.3c-0.1,0.1-0.3,0.2-0.4,0.3h0.1l0.1,0.1c3.3-0.2,5.9,1,8.6,0.6
	c0.3,0.1,0.6,0.4,0.6,0.8C211.3,120.1,211.5,120.7,210.6,120.8L210.6,120.8z M214.2,116.8c-0.5,0.4-1,0.6-1.6,0.7
	c-0.5-0.2-0.9-0.4-1.2-0.8l-4.2-2.9c2.3-0.4,4.3,0.2,6.1-0.7c0.7-0.4,1.7,0.4,1.8,1.3S215.3,116.3,214.2,116.8L214.2,116.8z
	 M219,108.2c0,0.6-0.1,1.2-0.5,1.7c-1.1,0.8-2.4,1.4-3.7,1.8c-1,0.3-1.3-0.9-2-1.4c0-0.2,0.1-0.4,0.3-0.6c1-0.7,2-1.3,3.1-1.7
	c0.7-0.2,1.3-0.7,1.6-1.3c0.2-0.3,0.5-0.5,0.8-0.7c0.2,0.3,0.4,0.6,0.5,1C219,107.4,219,107.8,219,108.2L219,108.2z M219.7,99
	c0,0.4-0.2,0.8-0.4,1.1c-0.3,0.5-0.7,0.7-1.1,0.1c-0.5-0.8-1-1.5-1.6-2.2c-0.4-0.6-1.2-1-1.4-1.7c-0.3-1.1,1.2-0.4,1.5-1.2
	c0.4-1.1,0.9-2.2,1.4-3.2C219.4,94,219.9,96.5,219.7,99L219.7,99z"/>
<path d="M173.2,109.2c0.7,0,1.3,0.6,2,0.6c0.5,0,1.2-0.7,1.7-0.5c0.6,0.2,1.1,0.3,1.7,0.4c-0.2-2.4,2.4-0.4,2.4-0.9s-4.1-13-4.1-13
	l1.6-38l3.8-11.1h-15.7c-0.5-0.1-1,0-1.5,0.2c-0.8,0.5-1.7,0.8-2.7,0.7c14.2,18.6,10.6,45.2-8,59.4c-1.1,0.8-2.2,1.6-3.4,2.4h0.4
	C158.5,109.1,165.9,109.1,173.2,109.2z"/>
<path d="M148.3,110.7l-1.2,0.6C147.7,111.6,147.9,111.3,148.3,110.7z"/>
<path d="M148.3,110.6L148.3,110.6c0.8-0.4,1.7-0.9,2.5-1.4C149.8,109.2,148.9,109.8,148.3,110.6z"/>
<path d="M146.8,111.1c-0.2,0.1-0.4,0.3-0.6,0.4c0.1,0,0.1,0.1,0.2,0.1c0.1,0,0.5-0.2,0.7-0.3C147,111.2,146.9,111.2,146.8,111.1z"/>
<polygon points="195.3,194.3 202.5,190.3 198.2,144.9 182.7,149.4 "/>
<polygon points="235.5,189.2 242.1,193.6 254.8,186.7 242.6,174.5 "/>
<polygon points="214.4,181.5 226.6,146.6 243.1,145 216.2,184.1 "/>
<polygon class="st1" points="199.1,192 206.2,188 202,142.6 186.5,147 "/>
<polygon class="st1" points="239.9,189.2 246.5,193.6 259.2,186.7 247,174.5 "/>
<polygon class="st1" points="215.4,183.5 227.6,148.6 244.1,147.1 221.5,187.9 "/>
<polygon points="261.7,450.5 23.3,504.2 23.3,294.6 261.7,240.8 "/>
<g>
	<g>
		<defs>
			<path id="SVGID_1_" d="M229.4,243.4c8,4.3,15.9,8.7,23.9,13c-0.1-0.1-0.2-0.1-0.3-0.1c-0.3,0.1-0.6,0.2-0.9,0.4l-23.9-13
				c0.3-0.2,0.6-0.3,0.9-0.4C229.2,243.3,229.3,243.3,229.4,243.4z"/>
		</defs>
		<clipPath id="SVGID_2_">
			<use xlink:href="#SVGID_1_"  style="overflow:visible;"/>
		</clipPath>
		<g class="st2">
			<g>
				<path d="M252,256.7l-23.9-13c0.1-0.1,0.2-0.2,0.4-0.2l23.9,13C252.3,256.5,252.1,256.6,252,256.7"/>
				<path d="M252.4,256.4l-23.9-13c0.2-0.1,0.3-0.1,0.5-0.2h0.2l23.9,13h-0.2C252.8,256.3,252.6,256.4,252.4,256.4"/>
				<path d="M253.1,256.3l-23.9-13h0.1L253.1,256.3L253.1,256.3"/>
				<path d="M253.2,256.3l-23.9-13l0,0L253.2,256.3L253.2,256.3"/>
			</g>
		</g>
	</g>
</g>
<g>
	<g>
		<defs>
			<path id="SVGID_3_" d="M221.9,229.6c8,4.3,15.9,8.7,23.9,13c-0.2-0.1-0.5-0.1-0.7-0.1l-23.9-13
				C221.4,229.5,221.7,229.5,221.9,229.6z"/>
		</defs>
		<clipPath id="SVGID_4_">
			<use xlink:href="#SVGID_3_"  style="overflow:visible;"/>
		</clipPath>
		<g class="st3">
			<g>
				<path d="M245.1,242.5l-23.9-13h0.5l23.9,13C245.4,242.4,245.3,242.4,245.1,242.5"/>
				<path d="M245.5,242.5l-23.9-13c0.1,0,0.2,0,0.2,0.1l23.9,13C245.7,242.5,245.6,242.5,245.5,242.5"/>
				<path d="M245.7,242.5l-23.9-13l0,0L245.7,242.5L245.7,242.5"/>
			</g>
		</g>
	</g>
</g>
<g>
	<g>
		<defs>
			<path id="SVGID_5_" d="M228.1,215.6c8,4.3,15.9,8.7,23.9,13c-0.2-0.1-0.5-0.1-0.7-0.1l-24-13
				C227.6,215.4,227.9,215.5,228.1,215.6z"/>
		</defs>
		<clipPath id="SVGID_6_">
			<use xlink:href="#SVGID_5_"  style="overflow:visible;"/>
		</clipPath>
		<g class="st4">
			<g>
				<path d="M251.2,228.4l-23.9-12.9h0.5l23.9,13C251.5,228.4,251.4,228.4,251.2,228.4"/>
				<path d="M251.7,228.5l-23.9-13c0.1,0,0.2,0,0.2,0.1l23.9,13C251.9,228.5,251.8,228.5,251.7,228.5"/>
				<path d="M251.9,228.5l-23.9-13l0,0L251.9,228.5L251.9,228.5"/>
			</g>
		</g>
	</g>
</g>
<g>
	<g>
		<defs>
			<path id="SVGID_7_" d="M237.3,194.2c8,4.3,15.9,8.7,23.9,13c-0.1,0-0.1,0-0.1-0.1v0l-23.9-13
				C237.2,194.2,237.2,194.2,237.3,194.2L237.3,194.2z"/>
		</defs>
		<clipPath id="SVGID_8_">
			<use xlink:href="#SVGID_7_"  style="overflow:visible;"/>
		</clipPath>
		<g class="st5">
			<g>
				<path d="M261,207.1l-23.9-13l0,0L261,207.1L261,207.1"/>
				<path d="M261.1,207.1l-23.9-13h0.1L261.1,207.1L261.1,207.1"/>
			</g>
		</g>
	</g>
</g>
<g>
	<g>
		<defs>
			<path id="SVGID_9_" d="M230.9,259.4c-8-4.3-15.9-8.7-23.9-13c3,1.5,6.3,2.1,9.6,1.5c4.1-0.5,8-2,11.5-4.2l23.9,13
				c-3.5,2.2-7.4,3.7-11.5,4.2C237.2,261.5,233.9,260.9,230.9,259.4z"/>
		</defs>
		<clipPath id="SVGID_10_">
			<use xlink:href="#SVGID_9_"  style="overflow:visible;"/>
		</clipPath>
		<g class="st6">
			<g>
				<path d="M230.9,259.4l-23.9-13c0.1,0.1,0.3,0.2,0.5,0.2l23.9,13C231.2,259.6,231,259.5,230.9,259.4"/>
				<path d="M231.3,259.6l-23.9-13c0.8,0.4,1.6,0.7,2.5,0.9l23.9,13C232.9,260.3,232.1,260,231.3,259.6"/>
				<path d="M233.9,260.6l-23.9-13c2.2,0.5,4.4,0.6,6.6,0.3c2.8-0.4,5.6-1.2,8.2-2.4l23.9,13c-2.6,1.2-5.4,2-8.2,2.4
					C238.3,261.2,236.1,261.1,233.9,260.6"/>
				<path d="M248.7,258.4l-23.9-13c1.1-0.5,2.2-1.1,3.3-1.8l23.9,13C251,257.3,249.9,257.9,248.7,258.4"/>
			</g>
		</g>
	</g>
</g>
<g>
	<g>
		<defs>
			<path id="SVGID_11_" d="M245.2,205.8l-23.9-13c6.5-0.9,11.9-0.3,15.8,1.3l23.9,13C257.2,205.5,251.8,204.9,245.2,205.8z"/>
		</defs>
		<clipPath id="SVGID_12_">
			<use xlink:href="#SVGID_11_"  style="overflow:visible;"/>
		</clipPath>
		<g class="st7">
			<g>
				<path d="M245.2,205.8l-23.9-13c4.4-0.7,8.8-0.6,13.1,0.4l23.9,13C254,205.2,249.6,205.1,245.2,205.8"/>
				<path d="M258.3,206.2l-23.9-13c1,0.3,1.9,0.6,2.7,0.9l23.9,13C260.2,206.8,259.3,206.5,258.3,206.2"/>
			</g>
		</g>
	</g>
</g>
<polygon points="223.5,245.5 199.6,232.5 221.2,229.5 245.1,242.5 "/>
<polygon points="226.3,231.9 202.4,219 227.3,215.5 251.2,228.4 "/>
<g>
	<g>
		<defs>
			<path id="SVGID_13_" d="M221.8,270.9c-2-1.1-4-2.2-6-3.2c-6-3.2-11.9-6.5-17.9-9.7c-5.5-3-9.5-8.3-11.1-16.5l23.9,13
				C212.3,262.6,216.4,267.9,221.8,270.9z"/>
		</defs>
		<clipPath id="SVGID_14_">
			<use xlink:href="#SVGID_13_"  style="overflow:visible;"/>
		</clipPath>
		<g class="st8">
			<g>
				<path d="M221.8,270.9l-23.9-13c-5.5-3-9.5-8.3-11.1-16.5l23.9,13C212.3,262.6,216.4,267.9,221.8,270.9"/>
			</g>
		</g>
	</g>
</g>
<polygon points="210.1,247.4 186.2,234.4 186.2,233.5 210.1,246.5 "/>
<g>
	<g>
		<defs>
			<path id="SVGID_15_" d="M204.6,255.1l-23.9-13c-0.4-0.3-0.6-0.8-0.5-1.3l23.9,13C204,254.3,204.2,254.8,204.6,255.1z"/>
		</defs>
		<clipPath id="SVGID_16_">
			<use xlink:href="#SVGID_15_"  style="overflow:visible;"/>
		</clipPath>
		<g class="st9">
			<g>
				<path d="M204.6,255.1l-23.9-13c-0.4-0.3-0.6-0.8-0.5-1.3l23.9,13C204,254.3,204.2,254.8,204.6,255.1"/>
			</g>
		</g>
	</g>
</g>
<g>
	<g>
		<defs>
			<path id="SVGID_17_" d="M210.1,246.5l-23.9-13c0-1.8,0.2-3.5,0.4-5.3l23.9,13C210.2,243,210.1,244.7,210.1,246.5z"/>
		</defs>
		<clipPath id="SVGID_18_">
			<use xlink:href="#SVGID_17_"  style="overflow:visible;"/>
		</clipPath>
		<g class="st10">
			<g>
				<path d="M210.1,246.5l-23.9-13c0-1.8,0.2-3.5,0.4-5.3l23.9,13C210.2,243,210.1,244.7,210.1,246.5"/>
			</g>
		</g>
	</g>
</g>
<polygon points="206.1,247.9 182.2,235 186.2,234.4 210.1,247.4 "/>
<polygon points="204,253.8 180.2,240.8 180.7,236.7 204.6,249.7 "/>
<g>
	<g>
		<defs>
			<path id="SVGID_19_" d="M204.6,249.7l-23.9-13c0.1-0.8,0.7-1.5,1.5-1.7l23.9,13C205.3,248.1,204.6,248.9,204.6,249.7z"/>
		</defs>
		<clipPath id="SVGID_20_">
			<use xlink:href="#SVGID_19_"  style="overflow:visible;"/>
		</clipPath>
		<g class="st11">
			<g>
				<path d="M204.6,249.7l-23.9-13c0-0.2,0.1-0.3,0.1-0.5l23.9,13C204.6,249.4,204.6,249.5,204.6,249.7"/>
				<path d="M204.7,249.2l-23.9-13c0-0.1,0.1-0.2,0.1-0.3l23.9,13C204.8,249,204.7,249.1,204.7,249.2"/>
				<path d="M204.8,248.9l-23.9-13c0-0.1,0.1-0.1,0.1-0.2l23.9,13C204.9,248.8,204.9,248.9,204.8,248.9"/>
				<path d="M204.9,248.7l-23.9-13c0-0.1,0.1-0.1,0.1-0.2l23.9,13C205,248.6,205,248.7,204.9,248.7"/>
				<path d="M205.1,248.5l-23.9-13l0.2-0.2l23.9,13L205.1,248.5"/>
				<path d="M205.3,248.4l-23.9-13l0.2-0.2l23.9,13C205.4,248.2,205.3,248.3,205.3,248.4"/>
				<path d="M205.5,248.2l-23.9-13c0.1-0.1,0.1-0.1,0.2-0.1l23.9,13C205.6,248.1,205.6,248.1,205.5,248.2"/>
				<path d="M205.7,248.1l-23.9-13c0.1-0.1,0.3-0.1,0.4-0.1l23.9,13C206,248,205.8,248,205.7,248.1"/>
			</g>
		</g>
	</g>
</g>
<g>
	<g>
		<defs>
			<path id="SVGID_21_" d="M206.3,241.6l-23.9-13c-0.4-0.3-0.6-0.8-0.5-1.3l23.9,13C205.6,240.8,205.8,241.3,206.3,241.6z"/>
		</defs>
		<clipPath id="SVGID_22_">
			<use xlink:href="#SVGID_21_"  style="overflow:visible;"/>
		</clipPath>
		<g class="st12">
			<g>
				<path d="M206.3,241.6l-23.9-13c-0.4-0.3-0.6-0.8-0.5-1.3l23.9,13C205.6,240.8,205.8,241.3,206.3,241.6"/>
			</g>
		</g>
	</g>
</g>
<g>
	<g>
		<defs>
			<path id="SVGID_23_" d="M212.1,233.9l-23.9-13c4.8-14.9,17.6-25.8,33.1-28.1l23.9,13C229.7,208.1,216.9,219,212.1,233.9z"/>
		</defs>
		<clipPath id="SVGID_24_">
			<use xlink:href="#SVGID_23_"  style="overflow:visible;"/>
		</clipPath>
		<g class="st13">
			<g>
				<path d="M212.1,233.9l-23.9-13c0.2-0.5,0.3-1,0.5-1.5l23.9,13C212.5,232.9,212.3,233.4,212.1,233.9"/>
				<path d="M212.6,232.4l-23.9-13c0.7-1.8,1.5-3.6,2.4-5.3l23.9,13C214.1,228.8,213.3,230.6,212.6,232.4"/>
				<path d="M215,227.1l-23.9-13c0.7-1.5,1.6-2.9,2.6-4.2l23.9,13C216.7,224.2,215.8,225.7,215,227.1"/>
				<path d="M217.6,222.9l-23.9-13c0.9-1.3,1.9-2.5,2.9-3.7l23.9,13C219.5,220.4,218.5,221.6,217.6,222.9"/>
				<path d="M220.5,219.2l-23.9-13c1.1-1.2,2.2-2.3,3.4-3.4l23.9,13C222.7,216.9,221.6,218,220.5,219.2"/>
				<path d="M223.9,215.8l-23.9-13c1.3-1.2,2.7-2.3,4.1-3.3l23.9,13C226.6,213.6,225.2,214.6,223.9,215.8"/>
				<path d="M228,212.6l-23.9-13c1.8-1.3,3.7-2.4,5.8-3.3l23.9,13C231.8,210.2,229.8,211.3,228,212.6"/>
				<path d="M233.8,209.2l-23.9-13c3.6-1.7,7.5-2.8,11.4-3.4l23.9,13C241.3,206.4,237.4,207.5,233.8,209.2"/>
			</g>
		</g>
	</g>
</g>
<polygon points="207.8,234.5 183.9,221.6 188.3,221 212.1,233.9 "/>
<polygon points="205.7,240.4 181.9,227.4 182.5,223.3 206.4,236.3 "/>
<g>
	<g>
		<defs>
			<path id="SVGID_25_" d="M206.4,236.3l-23.9-13c0-0.8,0.6-1.5,1.4-1.7l23.9,13C207,234.8,206.4,235.5,206.4,236.3z"/>
		</defs>
		<clipPath id="SVGID_26_">
			<use xlink:href="#SVGID_25_"  style="overflow:visible;"/>
		</clipPath>
		<g class="st14">
			<g>
				<path d="M206.4,236.3l-23.9-13c0-0.2,0.1-0.3,0.1-0.5l23.9,13C206.4,235.9,206.4,236.1,206.4,236.3"/>
				<path d="M206.5,235.7l-23.9-13c0-0.1,0.1-0.2,0.1-0.3l23.9,13C206.6,235.5,206.5,235.6,206.5,235.7"/>
				<path d="M206.6,235.4l-23.9-13c0-0.1,0.1-0.1,0.1-0.2l23.9,13C206.7,235.3,206.7,235.4,206.6,235.4"/>
				<path d="M206.8,235.2l-23.9-13c0-0.1,0.1-0.1,0.1-0.2l23.9,13C206.8,235.1,206.8,235.1,206.8,235.2"/>
				<path d="M206.9,235.1l-23.9-13c0-0.1,0.1-0.1,0.1-0.2l23.9,13C207,235,206.9,235,206.9,235.1"/>
				<path d="M207,234.9l-23.9-13c0.1,0,0.1-0.1,0.2-0.1l23.9,13C207.1,234.9,207.1,234.9,207,234.9"/>
				<path d="M207.2,234.8l-23.9-13c0.1,0,0.1-0.1,0.2-0.1l23.9,13C207.3,234.7,207.3,234.7,207.2,234.8"/>
				<path d="M207.4,234.6l-23.9-13c0.1-0.1,0.3-0.1,0.4-0.1l23.9,13C207.7,234.6,207.5,234.6,207.4,234.6"/>
			</g>
		</g>
	</g>
</g>
<g>
	<g>
		<defs>
			<path id="SVGID_27_" d="M171.7,269.7c-8-4.3-15.9-8.7-23.9-13c1.2,0.6,2.6,0.8,4,0.6c5.7-0.8,9.2-6.5,11.2-13.7l23.9,13
				c-2,7.2-5.6,12.9-11.2,13.7C174.3,270.5,172.9,270.3,171.7,269.7z"/>
		</defs>
		<clipPath id="SVGID_28_">
			<use xlink:href="#SVGID_27_"  style="overflow:visible;"/>
		</clipPath>
		<g class="st15">
			<g>
				<path d="M171.7,269.7l-23.9-13c0.1,0,0.1,0.1,0.2,0.1l23.9,13C171.9,269.7,171.8,269.7,171.7,269.7"/>
				<path d="M171.9,269.8l-23.9-13c0.3,0.2,0.7,0.3,1,0.4l23.9,13C172.6,270,172.2,269.9,171.9,269.8"/>
				<path d="M172.9,270.1l-23.9-13c0.9,0.2,1.9,0.3,2.8,0.1c0.9-0.1,1.8-0.4,2.6-0.8l23.9,13c-0.8,0.4-1.7,0.7-2.6,0.8
					C174.8,270.4,173.8,270.3,172.9,270.1"/>
				<path d="M178.4,269.5l-23.9-13c0.5-0.2,1-0.5,1.4-0.8l23.9,13C179.3,268.9,178.8,269.2,178.4,269.5"/>
				<path d="M179.8,268.6l-23.9-13c0.4-0.3,0.8-0.6,1.1-0.9l23.9,13C180.6,268.1,180.2,268.4,179.8,268.6"/>
				<path d="M180.9,267.7l-23.9-13c0.4-0.3,0.8-0.7,1.1-1.1l23.9,13C181.7,267,181.3,267.4,180.9,267.7"/>
				<path d="M182,266.6l-23.9-13c0.4-0.4,0.8-0.9,1.1-1.4l23.9,13C182.8,265.7,182.4,266.2,182,266.6"/>
				<path d="M183.1,265.2l-23.9-13c0.5-0.6,0.9-1.4,1.3-2.1l23.9,13C184,263.8,183.6,264.6,183.1,265.2"/>
				<path d="M184.4,263.1l-23.9-13c0.6-1.2,1.2-2.5,1.7-3.8l23.9,13C185.6,260.6,185.1,261.9,184.4,263.1"/>
				<path d="M186.1,259.4l-23.9-13c0.3-0.9,0.6-1.9,0.9-2.8l23.9,13C186.7,257.5,186.4,258.5,186.1,259.4"/>
			</g>
		</g>
	</g>
</g>
<g>
	<g>
		<defs>
			<path id="SVGID_29_" d="M187,256.5l-23.9-13c1.4-5.5,2.2-11.1,2.2-16.8c0-3.9-0.5-7.2-1.8-9.4l23.9,13c1.2,2.2,1.8,5.5,1.8,9.4
				C189.2,245.4,188.4,251,187,256.5z"/>
		</defs>
		<clipPath id="SVGID_30_">
			<use xlink:href="#SVGID_29_"  style="overflow:visible;"/>
		</clipPath>
		<g class="st16">
			<g>
				<path d="M187,256.5l-23.9-13c1.4-5.5,2.2-11.1,2.2-16.8c0-3.9-0.5-7.2-1.8-9.4l23.9,13c1.2,2.2,1.8,5.5,1.8,9.4
					C189.2,245.4,188.4,251,187,256.5"/>
			</g>
		</g>
	</g>
</g>
<g>
	<g>
		<defs>
			<path id="SVGID_31_" d="M161,214.7c8,4.3,15.9,8.7,23.9,13c1.1,0.6,2,1.5,2.5,2.7l-23.9-13C163,216.2,162.1,215.3,161,214.7z"/>
		</defs>
		<clipPath id="SVGID_32_">
			<use xlink:href="#SVGID_31_"  style="overflow:visible;"/>
		</clipPath>
		<g class="st17">
			<g>
				<path d="M187.4,230.4l-23.9-13c-0.6-1.1-1.4-2-2.5-2.7l23.9,13C186,228.3,186.9,229.3,187.4,230.4"/>
			</g>
		</g>
	</g>
</g>
<g>
	<g>
		<defs>
			<path id="SVGID_33_" d="M163.7,281.1l-23.9-13c-1.8-1-3.4-2.5-4.5-4.2c-3-4.3-4.2-10.3-4.2-17.2c-0.1-9.2,1.7-18.3,5.3-26.7
				c4.4-9.7,11.7-16.9,22.5-18.4c4.3-0.6,7.9-0.1,10.6,1.4l23.9,13c-2.8-1.5-6.3-2-10.6-1.4c-10.8,1.5-18,8.7-22.5,18.4
				c-3.6,7.9-5.2,17.4-5.3,26.7c0,7,1.2,13,4.2,17.2C160.3,278.6,161.9,280.1,163.7,281.1z"/>
		</defs>
		<clipPath id="SVGID_34_">
			<use xlink:href="#SVGID_33_"  style="overflow:visible;"/>
		</clipPath>
		<g class="st18">
			<g>
				<path d="M163.7,281.1l-23.9-13c-1.8-1-3.4-2.5-4.5-4.2c-3-4.3-4.2-10.3-4.2-17.2c0-8,1.3-15.9,3.9-23.4l23.9,13
					c-2.6,7.5-3.9,15.4-3.9,23.4c0,7,1.2,13,4.2,17.2C160.3,278.6,161.9,280.1,163.7,281.1"/>
				<path d="M158.9,236.3l-23.9-13c0.4-1.1,0.9-2.2,1.3-3.3c0.4-0.9,0.8-1.7,1.3-2.6l23.9,13c-0.4,0.8-0.9,1.7-1.3,2.6
					C159.8,234.1,159.3,235.2,158.9,236.3"/>
				<path d="M161.5,230.5l-23.9-13c0.7-1.4,1.5-2.7,2.4-3.9l23.9,13C163.1,227.8,162.3,229.1,161.5,230.5"/>
				<path d="M163.9,226.5l-23.9-13c0.7-1,1.5-2,2.3-2.9l23.9,13C165.4,224.5,164.7,225.5,163.9,226.5"/>
				<path d="M166.2,223.6l-23.9-13c0.7-0.8,1.6-1.7,2.4-2.4l23.9,13C167.8,221.9,166.9,222.8,166.2,223.6"/>
				<path d="M168.6,221.1l-23.9-13c0.9-0.8,1.8-1.5,2.7-2.2l23.9,13C170.4,219.6,169.5,220.4,168.6,221.1"/>
				<path d="M171.4,219l-23.9-13c1.2-0.8,2.4-1.5,3.7-2.1l23.9,13C173.8,217.5,172.6,218.2,171.4,219"/>
				<path d="M175.1,216.9l-23.9-13c2.4-1.2,5-1.9,7.7-2.3c2.6-0.4,5.2-0.3,7.7,0.3l23.9,13c-2.5-0.6-5.1-0.7-7.7-0.3
					C180.1,215,177.5,215.7,175.1,216.9"/>
				<path d="M190.4,214.9l-23.9-13c0.9,0.2,1.7,0.5,2.5,0.9l23.9,13C192.1,215.4,191.3,215.1,190.4,214.9"/>
				<path d="M192.9,215.8l-23.9-13c0.1,0.1,0.3,0.2,0.4,0.2l23.9,13C193.2,215.9,193,215.8,192.9,215.8"/>
			</g>
		</g>
	</g>
</g>
<g>
	<g>
		<defs>
			<path id="SVGID_35_" d="M118.7,277.1l-23.9-13c1.2,0.6,2.6,0.8,4,0.6c5.7-0.8,9.2-6.5,11.2-13.7l23.9,13
				c-2,7.2-5.6,12.9-11.2,13.7C121.3,277.9,119.9,277.7,118.7,277.1z"/>
		</defs>
		<clipPath id="SVGID_36_">
			<use xlink:href="#SVGID_35_"  style="overflow:visible;"/>
		</clipPath>
		<g class="st19">
			<g>
				<path d="M118.7,277.1l-23.9-13c0.1,0,0.1,0.1,0.2,0.1l23.9,13C118.8,277.2,118.8,277.2,118.7,277.1"/>
				<path d="M118.9,277.2l-23.9-13c0.3,0.2,0.7,0.3,1,0.4l23.9,13C119.5,277.5,119.2,277.4,118.9,277.2"/>
				<path d="M119.9,277.6l-23.9-13c0.9,0.2,1.9,0.3,2.8,0.1c0.9-0.1,1.8-0.4,2.6-0.8l23.9,13c-0.8,0.4-1.7,0.7-2.6,0.8
					C121.8,277.8,120.8,277.8,119.9,277.6"/>
				<path d="M125.3,276.9l-23.9-13c0.5-0.2,1-0.5,1.4-0.8l23.9,13C126.3,276.4,125.8,276.7,125.3,276.9"/>
				<path d="M126.7,276.1l-23.9-13c0.4-0.3,0.8-0.6,1.1-0.9l23.9,13C127.5,275.5,127.1,275.8,126.7,276.1"/>
				<path d="M127.9,275.2l-23.9-13c0.4-0.3,0.8-0.7,1.1-1.1l23.9,13L127.9,275.2"/>
				<path d="M128.9,274.1l-23.9-13c0.4-0.4,0.8-0.9,1.1-1.4l23.9,13C129.7,273.2,129.3,273.7,128.9,274.1"/>
				<path d="M130.1,272.7l-23.9-13c0.5-0.7,0.9-1.4,1.3-2.1l23.9,13C130.9,271.3,130.5,272,130.1,272.7"/>
				<path d="M131.3,270.6l-23.9-13c0.6-1.2,1.2-2.5,1.7-3.8l23.9,13C132.6,268.1,132,269.4,131.3,270.6"/>
				<path d="M133,266.8l-23.9-13c0.3-0.9,0.6-1.8,0.9-2.8l23.9,13C133.7,265,133.4,265.9,133,266.8"/>
			</g>
		</g>
	</g>
</g>
<g>
	<g>
		<defs>
			<path id="SVGID_37_" d="M133.9,264L110,251c1.4-5.5,2.1-11.1,2.1-16.8c0-3.9-0.5-7.2-1.7-9.4l23.9,13c1.2,2.2,1.8,5.5,1.8,9.4
				C136.1,252.9,135.4,258.5,133.9,264z"/>
		</defs>
		<clipPath id="SVGID_38_">
			<use xlink:href="#SVGID_37_"  style="overflow:visible;"/>
		</clipPath>
		<g class="st20">
			<g>
				<path d="M133.9,264L110,251c1.4-5.5,2.1-11.1,2.1-16.8c0-3.9-0.5-7.2-1.7-9.4l23.9,13c1.2,2.2,1.8,5.5,1.8,9.4
					C136.1,252.9,135.4,258.5,133.9,264"/>
			</g>
		</g>
	</g>
</g>
<g>
	<g>
		<defs>
			<path id="SVGID_39_" d="M108,222.2l23.9,13c1.1,0.6,2,1.6,2.5,2.7l-23.9-13C110,223.8,109.1,222.8,108,222.2z"/>
		</defs>
		<clipPath id="SVGID_40_">
			<use xlink:href="#SVGID_39_"  style="overflow:visible;"/>
		</clipPath>
		<g class="st21">
			<g>
				<path d="M134.3,237.8l-23.9-13c-0.6-1.1-1.4-2-2.5-2.7l23.9,13C132.9,235.7,133.7,236.7,134.3,237.8"/>
			</g>
		</g>
	</g>
</g>
<g>
	<g>
		<defs>
			<path id="SVGID_41_" d="M110.7,288.6c-8-4.3-15.9-8.7-23.9-13c-1.8-1-3.4-2.5-4.5-4.2c-3-4.3-4.2-10.3-4.2-17.2
				c-0.1-9.2,1.7-18.3,5.3-26.7c4.4-9.7,11.7-16.9,22.5-18.4c4.3-0.6,7.9-0.1,10.6,1.4c2,1.1,4,2.2,6,3.2c6,3.2,11.9,6.5,17.9,9.7
				c-2.8-1.5-6.3-2-10.6-1.4c-10.8,1.5-18,8.7-22.5,18.4c-3.6,7.9-5.3,17.4-5.3,26.7c0,7,1.2,13,4.2,17.2
				C107.3,286.1,108.9,287.6,110.7,288.6z"/>
		</defs>
		<clipPath id="SVGID_42_">
			<use xlink:href="#SVGID_41_"  style="overflow:visible;"/>
		</clipPath>
		<g class="st22">
			<g>
				<path d="M110.7,288.6l-23.9-13c-1.8-1-3.4-2.5-4.5-4.2c-3-4.3-4.2-10.3-4.2-17.2c0-8,1.3-15.9,3.9-23.4l23.9,13
					c-2.6,7.5-3.9,15.4-3.9,23.4c0,7,1.2,13,4.2,17.2C107.3,286.1,108.9,287.6,110.7,288.6"/>
				<path d="M105.9,243.8l-23.9-13c0.4-1.1,0.9-2.2,1.3-3.3c0.4-0.9,0.8-1.7,1.3-2.6l23.9,13c-0.4,0.8-0.9,1.7-1.3,2.6
					C106.7,241.6,106.3,242.7,105.9,243.8"/>
				<path d="M108.5,237.9l-23.9-13c0.7-1.4,1.5-2.7,2.4-3.9l23.9,13C110,235.2,109.2,236.5,108.5,237.9"/>
				<path d="M110.9,234L87,221c0.7-1,1.5-2,2.3-2.9l23.9,13C112.4,232,111.6,233,110.9,234"/>
				<path d="M113.2,231l-23.9-13c0.7-0.8,1.6-1.7,2.4-2.4l23.9,13L113.2,231"/>
				<path d="M115.6,228.6l-23.9-13c0.9-0.8,1.8-1.5,2.7-2.2l23.9,13C117.4,227.1,116.5,227.8,115.6,228.6"/>
				<path d="M118.3,226.4l-23.9-13c1.2-0.8,2.4-1.5,3.7-2.1l23.9,13C120.7,224.9,119.5,225.6,118.3,226.4"/>
				<path d="M122,224.3l-23.9-13c2.4-1.2,5-1.9,7.7-2.3c2.6-0.4,5.2-0.3,7.7,0.3l23.9,13c-2.5-0.6-5.1-0.7-7.7-0.3
					C127,222.4,124.4,223.2,122,224.3"/>
				<path d="M137.3,222.3l-23.9-13c0.9,0.2,1.7,0.5,2.5,0.9l23.9,13C139,222.8,138.2,222.5,137.3,222.3"/>
				<path d="M139.9,223.2l-23.9-13c0.1,0.1,0.3,0.2,0.4,0.2l23.9,13C140.1,223.4,140,223.3,139.9,223.2"/>
			</g>
		</g>
	</g>
</g>
<g>
	<g>
		<defs>
			<path id="SVGID_43_" d="M67.8,268.6l23.9,13c-0.2-0.1-0.4-0.1-0.6-0.1l-23.9-13C67.4,268.5,67.6,268.5,67.8,268.6z"/>
		</defs>
		<clipPath id="SVGID_44_">
			<use xlink:href="#SVGID_43_"  style="overflow:visible;"/>
		</clipPath>
		<g class="st23">
			<g>
				<path d="M91,281.5l-23.9-13h0.4l23.9,13H91"/>
				<path d="M91.4,281.5l-23.9-13c0.1,0,0.2,0,0.2,0.1l23.9,13C91.6,281.5,91.5,281.5,91.4,281.5"/>
				<path d="M91.6,281.6l-23.9-13l0,0L91.6,281.6L91.6,281.6"/>
			</g>
		</g>
	</g>
</g>
<polygon points="79.2,283.1 55.3,270.2 67.2,268.5 91,281.5 "/>
<polygon points="53.7,286.7 29.9,273.7 42.6,272 66.5,284.9 "/>
<g>
	<g>
		<defs>
			<path id="SVGID_45_" d="M61.7,215.9c8,4.3,15.9,8.7,23.9,13c-0.2-0.1-0.5-0.2-0.7-0.1l-23.9-13C61.2,215.7,61.5,215.8,61.7,215.9
				z"/>
		</defs>
		<clipPath id="SVGID_46_">
			<use xlink:href="#SVGID_45_"  style="overflow:visible;"/>
		</clipPath>
		<g class="st24">
			<g>
				<path d="M84.9,228.7l-23.9-13h0.5l23.9,13H84.9"/>
				<path d="M85.3,228.8l-23.9-13c0.1,0,0.2,0,0.2,0.1l23.9,13C85.5,228.8,85.4,228.8,85.3,228.8"/>
				<path d="M85.5,228.8l-23.9-13l0,0L85.5,228.8L85.5,228.8"/>
			</g>
		</g>
	</g>
</g>
<polygon points="66.5,284.9 42.6,272 47.8,231.6 71.7,244.6 "/>
<polygon points="78.8,229.6 55,216.6 61,215.8 84.9,228.7 "/>
<g>
	<g>
		<defs>
			<path id="SVGID_47_" d="M75.9,230.6l-23.9-13c0.9-0.5,1.9-0.8,2.9-1l23.9,13C77.8,229.8,76.8,230.1,75.9,230.6z"/>
		</defs>
		<clipPath id="SVGID_48_">
			<use xlink:href="#SVGID_47_"  style="overflow:visible;"/>
		</clipPath>
		<g class="st25">
			<g>
				<path d="M75.9,230.6l-23.9-13c0.9-0.5,1.9-0.8,2.9-1l23.9,13C77.8,229.8,76.8,230.1,75.9,230.6"/>
			</g>
		</g>
	</g>
</g>
<polygon points="60.2,238.4 36.3,225.4 52.1,217.6 75.9,230.6 "/>
<path class="st26" d="M240.9,204.1c6.5-0.9,11.9-0.3,15.8,1.3c0.8,0.4,0.8,1,0.4,1.8l-4.7,9.6c-0.1,0.4-0.5,0.8-1,0.8
	c-0.3,0-0.5,0-0.8-0.1c-3.5-1.1-7.3-1.5-11-0.9c-8,1.1-14.4,6.6-17.8,13.6l24.9-3.5c0.8-0.1,1.3,0.4,1.2,1.4l-0.6,4.1
	c0,0.9-0.6,1.6-1.5,1.7l-26.4,3.7c-0.3,1.5-0.4,3-0.5,4.5l0.1,1.6l21.6-3c0.7-0.1,1.2,0.3,1.1,1.4l-0.5,4.1
	c-0.1,0.9-0.7,1.6-1.6,1.8l-19.2,2.7c2.6,6.5,8.4,9.5,15.6,8.5c4.1-0.5,8-2,11.5-4.2c0.3-0.2,0.6-0.3,0.9-0.4c0.4,0,0.7,0.2,0.7,0.6
	c0,0,0,0,0,0l3.3,8.6c0.3,0.7-0.1,1.6-0.8,1.9c-5,3.3-10,5-16.6,6c-13.6,1.9-25.7-3.4-28.7-19.1l-5.7,0.8c-0.6,0.1-1.1-0.5-1.1-1.4
	l0.5-4.1c0.1-0.8,0.7-1.5,1.5-1.7l4-0.6v-0.9c0-1.8,0.2-3.5,0.4-5.3l-3.5,0.5c-0.6,0-1.1-0.4-1.1-1c0-0.1,0-0.3,0-0.4l0.6-4.1
	c0-0.8,0.6-1.5,1.4-1.7l4.3-0.6C212.4,217.9,224.9,206.3,240.9,204.1z"/>
<path class="st26" d="M193.2,218c3.1,4,4.4,10.3,4.4,17.7c0.1,9.1-1.7,18.2-5.2,26.6c-4.3,9.8-11.6,17.1-22.3,18.6
	c-7.2,1-12.1-1.2-15.2-5.6s-4.2-10.3-4.2-17.2c-0.1-9.2,1.7-18.3,5.3-26.7c4.4-9.7,11.7-16.9,22.5-18.4
	C185.3,211.9,190.2,213.8,193.2,218z M182.7,254.8c1.4-5.5,2.2-11.1,2.2-16.8c0-3.9-0.5-7.2-1.8-9.4c-1-2.4-3.6-3.7-6.1-3.2
	c-5.5,0.8-9.4,5.8-11.5,13.2c-1.5,5.6-2.3,11.3-2.2,17.1c0,3.9,0.5,7.1,1.6,9.4c1.1,2.6,3.8,4,6.6,3.5
	C177.1,267.7,180.6,262,182.7,254.8"/>
<path class="st26" d="M140.1,225.4c3.1,4,4.4,10.3,4.4,17.7c0.1,9.1-1.7,18.2-5.2,26.6c-4.4,9.8-11.6,17.1-22.3,18.6
	c-7.2,1-12.1-1.2-15.2-5.6c-3.1-4.4-4.2-10.3-4.2-17.2c-0.1-9.2,1.7-18.3,5.3-26.7c4.4-9.7,11.7-16.9,22.5-18.4
	C132.3,219.4,137.1,221.2,140.1,225.4z M129.6,262.3c1.4-5.5,2.1-11.1,2.1-16.8c0-3.9-0.5-7.2-1.8-9.4c-1-2.4-3.6-3.7-6.1-3.2
	c-5.5,0.8-9.4,5.8-11.5,13.2c-1.5,5.6-2.3,11.3-2.2,17.1c0,3.9,0.5,7.1,1.6,9.4c1.1,2.6,3.8,4,6.6,3.5
	C124,275.2,127.6,269.4,129.6,262.3"/>
<path class="st26" d="M80.5,227c0.6-0.1,1.1,0.3,1.2,0.9c0,0.1,0,0.3,0,0.4l-6.9,53.2l11.9-1.7c0.5-0.1,1.1,0.3,1.1,0.8
	c0,0.2,0,0.3,0,0.5l-1.2,9.1c-0.1,0.8-0.7,1.4-1.5,1.6l-37.4,5.3c-0.5,0.1-1.1-0.3-1.1-0.8c0-0.2,0-0.3,0-0.5l1.3-9.1
	c0-0.8,0.7-1.5,1.5-1.6l12.7-1.8l5.2-40.3l-12.7,6.4c-0.3,0.2-0.6,0.3-0.9,0.3c-0.7,0.1-0.9-0.3-0.7-1.6l1.2-8.9c0-1,0.6-2,1.6-2.3
	l15.8-7.8c0.9-0.5,1.9-0.8,2.9-1L80.5,227z"/>
<path class="st27" d="M245.2,205.8c6.5-0.9,11.9-0.3,15.8,1.3c0.8,0.4,0.8,1,0.4,1.8l-4.7,9.6c-0.1,0.4-0.5,0.8-1,0.8
	c-0.3,0-0.5,0-0.8-0.1c-3.5-1.1-7.3-1.5-11-0.9c-8,1.1-14.4,6.6-17.8,13.6l24.9-3.5c0.8-0.1,1.3,0.4,1.2,1.4l-0.6,4.1
	c0,0.9-0.6,1.6-1.5,1.7l-26.4,3.7c-0.3,1.5-0.4,3-0.5,4.5l0.1,1.6l21.6-3c0.7-0.1,1.2,0.3,1.1,1.4l-0.5,4.1
	c-0.1,0.9-0.7,1.6-1.6,1.8l-19.2,2.7c2.6,6.5,8.4,9.5,15.6,8.5c4.1-0.5,8-2,11.5-4.2c0.3-0.2,0.6-0.3,0.9-0.4c0.4,0,0.7,0.2,0.7,0.6
	c0,0,0,0,0,0l3.3,8.6c0.3,0.7-0.1,1.6-0.8,1.9c-5,3.3-10,5-16.6,6c-13.6,1.9-25.7-3.4-28.7-19.1l-5.7,0.8c-0.6,0.1-1.1-0.5-1.1-1.4
	l0.5-4.1c0.1-0.8,0.7-1.5,1.5-1.7l4-0.6v-0.9c0-1.8,0.2-3.5,0.4-5.3l-3.5,0.5c-0.6,0-1.1-0.4-1.1-1c0-0.1,0-0.3,0-0.4l0.6-4.1
	c0-0.8,0.6-1.5,1.4-1.7l4.3-0.6C216.9,219,229.7,208.1,245.2,205.8z"/>
<path class="st27" d="M197.5,219.7c3.1,4,4.4,10.3,4.4,17.7c0.1,9.1-1.7,18.2-5.2,26.6c-4.3,9.8-11.6,17.1-22.3,18.6
	c-7.2,1-12.1-1.2-15.2-5.6s-4.2-10.3-4.2-17.2c-0.1-9.2,1.7-18.3,5.3-26.7c4.4-9.7,11.7-16.9,22.5-18.4
	C189.6,213.6,194.5,215.5,197.5,219.7z M187,256.5c1.4-5.5,2.2-11.1,2.2-16.8c0-3.9-0.5-7.2-1.8-9.4c-1-2.4-3.6-3.7-6.1-3.2
	c-5.5,0.8-9.4,5.8-11.5,13.2c-1.5,5.6-2.3,11.3-2.2,17.1c0,3.9,0.5,7.1,1.6,9.4c1.1,2.6,3.8,4,6.6,3.5
	C181.4,269.4,184.9,263.7,187,256.5"/>
<path class="st27" d="M144.4,227.1c3.1,4,4.4,10.3,4.4,17.7c0.1,9.1-1.7,18.2-5.2,26.6c-4.4,9.8-11.6,17.1-22.3,18.6
	c-7.2,1-12.1-1.2-15.2-5.6c-3.1-4.4-4.2-10.3-4.2-17.2c-0.1-9.2,1.7-18.3,5.3-26.7c4.4-9.7,11.7-16.9,22.5-18.4
	C136.6,221.1,141.4,223,144.4,227.1z M133.9,264c1.4-5.5,2.1-11.1,2.1-16.8c0-3.9-0.5-7.2-1.8-9.4c-1-2.4-3.6-3.7-6.1-3.2
	c-5.5,0.8-9.4,5.8-11.5,13.2c-1.5,5.6-2.3,11.3-2.2,17.1c0,3.9,0.5,7.1,1.6,9.4c1.1,2.6,3.8,4,6.6,3.5
	C128.3,276.9,131.9,271.2,133.9,264"/>
<path class="st28" d="M140.2,233.8c2.4,3.2,3.4,8,3.4,13.8c0.1,7.1-1.3,14.1-4,20.7c-3.4,7.6-9,13.3-17.4,14.5
	c-5.6,0.8-9.4-0.9-11.8-4.4c-2.3-3.3-3.3-8-3.3-13.4c-0.1-7.1,1.3-14.2,4.1-20.8c3.5-7.5,9.1-13.2,17.5-14.4
	C134.1,229.1,137.9,230.5,140.2,233.8z"/>
<path class="st28" d="M193.3,226c2.4,3.2,3.4,8,3.4,13.8c0.1,7.1-1.3,14.1-4,20.7c-3.4,7.6-9,13.3-17.4,14.5
	c-5.6,0.8-9.4-0.9-11.8-4.4c-2.3-3.3-3.3-8-3.3-13.4c-0.1-7.1,1.3-14.2,4.1-20.8c3.5-7.5,9.1-13.2,17.5-14.4
	C187.2,221.3,191,222.8,193.3,226z"/>
<path class="st27" d="M84.9,228.7c0.6-0.1,1.1,0.3,1.2,0.9c0,0.1,0,0.3,0,0.4l-6.9,53.2l11.9-1.7c0.5-0.1,1.1,0.3,1.1,0.8
	c0,0.2,0,0.3,0,0.5l-1.2,9.1c-0.1,0.8-0.7,1.4-1.5,1.6l-37.4,5.3c-0.5,0.1-1.1-0.3-1.1-0.8c0-0.2,0-0.3,0-0.5l1.3-9.1
	c0-0.8,0.7-1.5,1.5-1.6l12.7-1.8l5.2-40.3L59,251.1c-0.3,0.2-0.6,0.3-0.9,0.3c-0.7,0.1-0.9-0.3-0.7-1.6l1.2-8.9c0-1,0.6-2,1.6-2.3
	l15.8-7.8c0.9-0.5,1.9-0.8,2.9-1L84.9,228.7z"/>
<polyline class="st28" points="63,242.1 80.3,235.2 71.7,289.6 "/>
<line class="st28" x1="55.7" y1="293.1" x2="87.2" y2="287.9"/>
<path class="st28" d="M253.8,211.9c0,0-18.6-1.3-30.2,15.1c-11,15.5-6.9,30.6,1.7,36.7s26.4,2,26.4,2"/>
<line class="st28" x1="209.4" y1="237.4" x2="249.1" y2="231.8"/>
<line class="st28" x1="204.6" y1="251.7" x2="244.3" y2="246"/>
</svg>
