<?xml version="1.0" encoding="utf-8"?>
<!-- Generator: Adobe Illustrator 19.2.1, SVG Export Plug-In . SVG Version: 6.00 Build 0)  -->
<svg version="1.1" id="Layer_1" xmlns="http://www.w3.org/2000/svg" xmlns:xlink="http://www.w3.org/1999/xlink" x="0px" y="0px"
	 viewBox="0 0 1694.5 562.2" style="enable-background:new 0 0 1694.5 562.2;" xml:space="preserve">
<style type="text/css">
	.st0{fill-rule:evenodd;clip-rule:evenodd;fill:#E52427;}
	.st1{fill-rule:evenodd;clip-rule:evenodd;}
	.st2{enable-background:new    ;}
	.st3{clip-path:url(#SVGID_2_);enable-background:new    ;}
	.st4{clip-path:url(#SVGID_4_);enable-background:new    ;}
	.st5{clip-path:url(#SVGID_6_);enable-background:new    ;}
	.st6{clip-path:url(#SVGID_8_);enable-background:new    ;}
	.st7{clip-path:url(#SVGID_10_);enable-background:new    ;}
	.st8{clip-path:url(#SVGID_12_);enable-background:new    ;}
	.st9{clip-path:url(#SVGID_14_);enable-background:new    ;}
	.st10{clip-path:url(#SVGID_16_);enable-background:new    ;}
	.st11{fill:#DFCE00;stroke:#FFFFFF;stroke-width:3;stroke-miterlimit:10;}
	.st12{clip-path:url(#SVGID_18_);enable-background:new    ;}
	.st13{clip-path:url(#SVGID_20_);enable-background:new    ;}
	.st14{clip-path:url(#SVGID_22_);enable-background:new    ;}
	.st15{clip-path:url(#SVGID_24_);enable-background:new    ;}
	.st16{clip-path:url(#SVGID_26_);enable-background:new    ;}
	.st17{clip-path:url(#SVGID_28_);enable-background:new    ;}
	.st18{clip-path:url(#SVGID_30_);enable-background:new    ;}
	.st19{clip-path:url(#SVGID_32_);enable-background:new    ;}
	.st20{clip-path:url(#SVGID_34_);enable-background:new    ;}
	.st21{clip-path:url(#SVGID_36_);enable-background:new    ;}
	.st22{clip-path:url(#SVGID_38_);enable-background:new    ;}
	.st23{clip-path:url(#SVGID_40_);enable-background:new    ;}
	.st24{clip-path:url(#SVGID_42_);enable-background:new    ;}
	.st25{clip-path:url(#SVGID_44_);enable-background:new    ;}
	.st26{clip-path:url(#SVGID_46_);enable-background:new    ;}
	.st27{clip-path:url(#SVGID_48_);enable-background:new    ;}
	.st28{fill:#502D61;}
	.st29{fill-rule:evenodd;clip-rule:evenodd;fill:#502D61;}
	.st30{fill:#FFEB08;}
	.st31{fill:#FFFFFF;}
	.st32{fill:#E42125;}
	.st33{fill:#070300;}
</style>
<g>
	<polygon class="st0" points="1027.7,467.1 747.1,534.3 747.1,360.3 1027.7,293.2 	"/>
	<g>
		<path class="st1" d="M811,365.6c1,0.5,2,1.1,3.1,1.5c13.7,5.1,16.8,16.2,12.3,28.1c-6.6,17.4-19.1,29.5-36.2,37
			c-8.4,3.7-16.8,6.5-26.1,3.9c-0.8-0.2-2.5,0.7-2.9,1.5c-3.9,8.1-7.6,16.3-11.3,24.4c-0.4,0.9-0.7,2-1.2,2.9
			c-1.5,2.5-2.7,5.8-6.4,5.1c-4.6-0.8-8-4.5-7.3-8.7c0.8-5.1,2.1-10.3,4.4-14.8c9.4-18.1,19.2-36.1,29-54c3.2-5.9,6.6-11.8,9.8-17.8
			c0.9-1.7,1.3-3.6,2.2-6c7.4,2.2,14.7-0.5,22-3.1C805.2,365.6,808.1,365.6,811,365.6z M768.6,422.9c2.7-0.4,4.1-0.6,5.4-0.9
			c0.9-0.2,1.8-0.4,2.6-0.8c16.4-6.8,29.5-17.3,38.3-32.9c1.2-2.1,1.8-4.6,2.2-7c0.5-2.9-0.8-4.6-3.9-4c-3.8,0.8-7.6,1.5-11.4,2.6
			c-5.5,1.5-9.6,4.6-12.4,9.8c-3.4,6.1-7.6,11.8-11.4,17.7C775.1,412.3,772.1,417.2,768.6,422.9z"/>
		<path class="st1" d="M992,365.6c2.2,1,4.4,2.2,6.6,3.1c6.3,2.7,7.3,6.3,3.4,11.8c-19.3,27.4-38.5,54.8-57.9,82.1
			c-1.8,2.6-4.4,4.6-6.9,6.6c-2.6,2.1-4.6,0.4-6-1.8c-2.7-4.3-2.4-8.9,0-13c3.3-5.9,7.1-11.5,10.8-17.2c1.6-2.5,3.4-4.9,5.4-7.7
			c-6.3-2.8-7.6-8.1-7.1-13.9c1.2-12.8,2.9-25.6,4.3-38.5c0.3-2.9,0.3-5.8,0.5-9.6c-0.5,0.3-0.2-0.1,0.1-0.1
			c5.4,0.5,10.9,0.4,16.1,1.8c4.6,1.2,5.3,5,3.2,9.5c-1.1,2.5-1.9,5.1-2.6,7.7c-2.8,10.4-5.4,20.9-8.1,31.4
			c-0.2,0.7-0.1,1.5-0.3,3.1c1.2-1.5,2-2.3,2.7-3.2c10.2-15.3,20.4-30.6,30.4-46c1.1-1.7,1.1-4.1,1.5-6.2
			C989.4,365.6,990.7,365.6,992,365.6z"/>
		<path class="st1" d="M1024.2,365.6c1,0.5,2,1,3.1,1.5c6.8,3.2,8.4,7,5.3,13.8c-2.7,5.8-5.8,11.4-9.1,16.9
			c-4.7,7.8-9.2,15.7-14.5,23.2c-5.2,7.3-11.2,14-16.9,20.9c-1.5,1.9-3.2,4.3-6.2,2.5c-2.9-1.8-2.3-4.6-1.1-7
			c5.1-10.3,10.2-20.5,15.4-30.7c5.1-10,10.4-19.9,15.4-29.9c1.5-3,3.7-6.2,0.9-9.8c-0.2-0.2,0.3-0.9,0.5-1.4
			C1019.5,365.6,1021.8,365.6,1024.2,365.6z"/>
		<path class="st1" d="M897.5,425.8c-5.7,2-11,3.7-16.2,5.8c-1.6,0.6-3.2,1.8-4.1,3.2c-6.2,9.3-12.3,18.8-18.4,28.2
			c-0.8,1.2-1.7,2.3-2.6,3.4c-2,2.3-4.7,5.1-7.6,3.3c-2.5-1.6-3.8-5.1-5.6-7.8c-0.3-0.4,0-1.2,0-2c-8.5,0.7-16,3.3-23.1,7.4
			c-1.7,1-3.4,1.9-5.3,2.5c-3.2,1-5.9,0.2-7.5-3c-0.8-1.6-1.9-3.1-2.7-4.8c-1.2-2.4-2.4-4.9,1.5-6.3c0.5-0.2,1-1.1,1.1-1.8
			c2.6-14.5,9.9-27.1,16.7-39.8c6.4-11.8,13.1-23.4,19.6-35.2c1.5-2.8,2.1-6.1,3.7-8.9c0.9-1.5,3-3.6,4.3-3.5c5,0.6,10,1.6,14.9,3.1
			c3.5,1.1,3.5,2.9,1.3,5.8c-3,3.9-5.8,8-8.3,12.3c-11.9,20.7-23.6,41.4-35.6,62.6c9.6,0.7,19.5-5.8,27,4.4c4.2-6.1,8.4-12,12.6-18
			c1.2-1.7,2.2-3.6,3.6-5.1c2.3-2.6,3.2-5.1,1.4-8.6c-1.1-2.2-0.6-5.2-0.9-8.9c3.5,1.8,5.8,3,8.4,4.4c5.8-7.7,11.3-15.5,17.4-22.7
			c7.2-8.5,14.5-16.8,22.5-24.4c7-6.7,12.9-6.5,20.7-0.7c3.6,2.7,4.7,7.1,2.6,12c-1.8,4.2-4,8.2-6.1,12.2
			c-9.2,17.7-18.5,35.3-27.7,53c-3,5.9-5.9,11.9-8.9,17.8c-1.6,3.1-4,5.3-7.6,4.9c-2.5-0.3-3.9-4.7-3.4-8.8
			c1.2-10.3,5.7-19.5,9.5-28.8C895.5,430.5,896.5,428.2,897.5,425.8z M889.2,416.5c0.2,0.4,0.3,0.8,0.5,1.1c2.2,0,4.3-0.1,6.5,0
			c4.2,0.2,6.5-1.7,8.1-5.6c3.4-8.1,7.4-16,11.1-24.1c0.8-1.8,1.5-3.8,2.3-5.6c-0.3-0.2-0.7-0.4-1-0.7
			C907.5,393.3,898.3,404.9,889.2,416.5z"/>
		<path class="st1" d="M974.7,459.4c0.1-7.4,3.4-9.4,10.2-6.2c1.3,0.6,2.7,1,3.9,1.7c2.6,1.5,3.7,3.5,2.3,6.5
			c-1.1,2.2-2.3,4.4-3.2,6.6c-1.1,2.6-2.7,3.1-5.2,2.2C978.5,468.8,974.7,463.8,974.7,459.4z"/>
	</g>
	<g>
		<g class="st2">
			<g class="st2">
				<defs>
					<path id="SVGID_1_" class="st2" d="M952.9,271.4c5.7,3.1,11.4,6.2,17.1,9.3c1,0.5,2,1.1,3,1.6c0,0-0.1,0-0.1-0.1l-20.1-10.9
						C952.8,271.4,952.8,271.4,952.9,271.4z"/>
				</defs>
				<use xlink:href="#SVGID_1_"  style="overflow:visible;"/>
				<clipPath id="SVGID_2_">
					<use xlink:href="#SVGID_1_"  style="overflow:visible;"/>
				</clipPath>
				<g class="st3">
					<path d="M972.8,282.3l-20.1-10.9c0,0,0.1,0,0.1,0L972.8,282.3C972.9,282.3,972.9,282.3,972.8,282.3"/>
					<path d="M972.9,282.3l-20.1-10.9c0,0,0,0,0,0L972.9,282.3C973,282.3,972.9,282.3,972.9,282.3"/>
				</g>
			</g>
			<g class="st2">
				<defs>
					<path id="SVGID_3_" class="st2" d="M938.3,334.2c-5.7-3.1-11.4-6.2-17.1-9.3c-1-0.6-2-1.1-3-1.6c2.7,1.5,5.8,2.2,9.1,1.7
						c2-0.3,4-0.8,5.5-1.8c1.5-0.9,2.5-2.1,2.5-3.9c0-2.1-1-3.2-3.7-4.8c-0.3-0.1-0.5-0.3-0.8-0.4l20.1,10.9
						c0.3,0.1,0.5,0.3,0.8,0.4c2.7,1.6,3.7,2.7,3.7,4.8c0,1.8-1,3-2.5,3.9c-1.5,0.9-3.5,1.5-5.5,1.8
						C944.1,336.4,941,335.7,938.3,334.2z"/>
				</defs>
				<use xlink:href="#SVGID_3_"  style="overflow:visible;"/>
				<clipPath id="SVGID_4_">
					<use xlink:href="#SVGID_3_"  style="overflow:visible;"/>
				</clipPath>
				<g class="st4">
					<path d="M938.3,334.2l-20.1-10.9c0.2,0.1,0.4,0.2,0.6,0.3l20.1,10.9C938.7,334.4,938.5,334.3,938.3,334.2"/>
					<path d="M938.9,334.5l-20.1-10.9c0.9,0.5,1.9,0.8,2.9,1.1l20.1,10.9C940.8,335.4,939.9,335,938.9,334.5"/>
					<path d="M941.8,335.6l-20.1-10.9c1.8,0.5,3.6,0.6,5.6,0.3c1.7-0.2,3.3-0.7,4.7-1.3l20.1,10.9c-1.4,0.7-3.1,1.1-4.7,1.3
						C945.5,336.2,943.6,336.1,941.8,335.6"/>
					<path d="M952.1,334.6L932,323.7c0.3-0.1,0.6-0.3,0.8-0.4c0.1-0.1,0.3-0.2,0.4-0.3l20.1,10.9c-0.1,0.1-0.3,0.2-0.4,0.3
						C952.7,334.3,952.4,334.5,952.1,334.6"/>
					<path d="M953.4,333.9L933.3,323c0.2-0.2,0.4-0.3,0.6-0.5l20.1,10.9C953.8,333.6,953.6,333.8,953.4,333.9"/>
					<path d="M954,333.4l-20.1-10.9c0.1-0.1,0.3-0.3,0.4-0.4l20.1,10.9C954.3,333.2,954.1,333.3,954,333.4"/>
					<path d="M954.4,333l-20.1-10.9c0.1-0.1,0.2-0.3,0.3-0.4l20.1,10.9C954.6,332.8,954.5,332.9,954.4,333"/>
					<path d="M954.7,332.6l-20.1-10.9c0.1-0.1,0.2-0.3,0.3-0.4l20.1,10.9C954.9,332.4,954.8,332.5,954.7,332.6"/>
					<path d="M955,332.2l-20.1-10.9c0.1-0.2,0.2-0.3,0.2-0.5l20.1,10.9C955.1,331.9,955.1,332.1,955,332.2"/>
					<path d="M955.2,331.7l-20.1-10.9c0.2-0.4,0.2-0.9,0.2-1.4c0-2.1-1-3.2-3.7-4.8c-0.3-0.1-0.5-0.3-0.8-0.4l20.1,10.9
						c0.3,0.1,0.5,0.3,0.8,0.4c2.7,1.6,3.7,2.7,3.7,4.8C955.4,330.8,955.3,331.3,955.2,331.7"/>
				</g>
			</g>
			<g class="st2">
				<defs>
					<path id="SVGID_5_" class="st2" d="M952.4,305.5c-6.7-3.6-13.4-7.3-20.1-10.9c3.3,1.8,7,2.9,10.4,4.8c0.3,0.2,0.7,0.4,1,0.5
						c2,1.1,4,2.2,6,3.3c4.4,2.4,8.7,4.7,13.1,7.1C959.4,308.5,955.7,307.3,952.4,305.5z"/>
				</defs>
				<use xlink:href="#SVGID_5_"  style="overflow:visible;"/>
				<clipPath id="SVGID_6_">
					<use xlink:href="#SVGID_5_"  style="overflow:visible;"/>
				</clipPath>
				<g class="st5">
					<path d="M952.4,305.5l-20.1-10.9c0.4,0.2,0.8,0.4,1.2,0.6l20.1,10.9C953.2,305.9,952.8,305.7,952.4,305.5"/>
					<path d="M953.6,306.1l-20.1-10.9c2.6,1.3,5.3,2.2,7.9,3.5l20.1,10.9C958.9,308.4,956.2,307.4,953.6,306.1"/>
					<path d="M961.5,309.7l-20.1-10.9c0.4,0.2,0.8,0.4,1.3,0.6l20.1,10.9C962.4,310.1,962,309.9,961.5,309.7"/>
				</g>
			</g>
			<g class="st2">
				<defs>
					<path id="SVGID_7_" class="st2" d="M929,348.4c-4-2.2-8-4.4-12.1-6.6c-0.3-0.2-0.7-0.4-1-0.5c-2.3-1.3-4.7-2.6-7-3.8
						c-0.7-0.4-1.3-0.8-2-1.2l20.1,10.9C927.7,347.6,928.3,348,929,348.4z"/>
				</defs>
				<use xlink:href="#SVGID_7_"  style="overflow:visible;"/>
				<clipPath id="SVGID_8_">
					<use xlink:href="#SVGID_7_"  style="overflow:visible;"/>
				</clipPath>
				<g class="st6">
					<path d="M929,348.4l-20.1-10.9c-0.7-0.4-1.3-0.8-2-1.2l20.1,10.9C927.7,347.6,928.3,348,929,348.4"/>
				</g>
			</g>
			<g class="st2">
				<defs>
					<path id="SVGID_9_" class="st2" d="M915.1,321.2c5.7,3.1,11.4,6.2,17.1,9.3c1,0.5,2,1.1,3,1.6c-0.3-0.1-0.5-0.2-0.8-0.2
						c-0.4,0.1-0.8,0.3-1,0.8l-20.1-10.9c0.3-0.5,0.7-0.8,1.1-0.8C914.6,321,914.9,321,915.1,321.2z"/>
				</defs>
				<use xlink:href="#SVGID_9_"  style="overflow:visible;"/>
				<clipPath id="SVGID_10_">
					<use xlink:href="#SVGID_9_"  style="overflow:visible;"/>
				</clipPath>
				<g class="st7">
					<path d="M933.4,332.8l-20.1-10.9c0-0.1,0.1-0.1,0.1-0.2l20.1,10.9C933.5,332.7,933.4,332.7,933.4,332.8"/>
					<path d="M933.5,332.6l-20.1-10.9c0-0.1,0.1-0.1,0.1-0.2l20.1,10.9C933.6,332.5,933.6,332.5,933.5,332.6"/>
					<path d="M933.7,332.4l-20.1-10.9c0-0.1,0.1-0.1,0.1-0.1l20.1,10.9C933.8,332.3,933.7,332.4,933.7,332.4"/>
					<path d="M933.8,332.3l-20.1-10.9c0,0,0.1-0.1,0.2-0.1l20.1,10.9C933.9,332.2,933.9,332.2,933.8,332.3"/>
					<path d="M934,332.2l-20.1-10.9c0.1,0,0.1-0.1,0.2-0.1l20.1,10.9C934.1,332.1,934,332.1,934,332.2"/>
					<path d="M934.1,332.1L914,321.1c0.1-0.1,0.2-0.1,0.3-0.1c0.1,0,0.3,0,0.4,0l20.1,10.9c-0.1,0-0.3,0-0.4,0
						C934.4,332,934.2,332,934.1,332.1"/>
					<path d="M934.9,332l-20.1-10.9c0.1,0,0.2,0.1,0.3,0.1l20.1,10.9C935.1,332,935,332,934.9,332"/>
					<path d="M935.2,332.1l-20.1-10.9c0,0,0,0,0.1,0L935.2,332.1C935.2,332.1,935.2,332.1,935.2,332.1"/>
				</g>
			</g>
			<g>
				<polygon points="926.8,344.8 906.7,333.9 913.3,321.9 933.4,332.8 				"/>
			</g>
			<g class="st2">
				<defs>
					<path id="SVGID_11_" class="st2" d="M927,347.2l-20.1-10.9c-0.9-0.6-0.8-1.3-0.2-2.3l20.1,10.9
						C926.2,345.9,926.1,346.6,927,347.2z"/>
				</defs>
				<use xlink:href="#SVGID_11_"  style="overflow:visible;"/>
				<clipPath id="SVGID_12_">
					<use xlink:href="#SVGID_11_"  style="overflow:visible;"/>
				</clipPath>
				<g class="st8">
					<path d="M927,347.2l-20.1-10.9c-0.7-0.4-0.8-0.9-0.5-1.6l20.1,10.9C926.2,346.2,926.3,346.7,927,347.2"/>
					<path d="M926.5,345.6l-20.1-10.9c0.1-0.2,0.1-0.3,0.2-0.5l20.1,10.9C926.6,345.2,926.5,345.4,926.5,345.6"/>
					<path d="M926.7,345.1l-20.1-10.9c0-0.1,0.1-0.2,0.1-0.2l20.1,10.9C926.8,344.9,926.7,345,926.7,345.1"/>
				</g>
			</g>
			<g class="st2">
				<defs>
					<path id="SVGID_13_" class="st2" d="M956.4,280.7l-20.1-10.9c7.1-1,13.6,0.2,16.5,1.5l20.1,10.9
						C969.9,280.9,963.5,279.7,956.4,280.7z"/>
				</defs>
				<use xlink:href="#SVGID_13_"  style="overflow:visible;"/>
				<clipPath id="SVGID_14_">
					<use xlink:href="#SVGID_13_"  style="overflow:visible;"/>
				</clipPath>
				<g class="st9">
					<path d="M956.4,280.7l-20.1-10.9c5.4-0.8,10.4-0.3,13.8,0.6l20.1,10.9C966.8,280.5,961.7,280,956.4,280.7"/>
					<path d="M970.1,281.4L950,270.4c1.1,0.3,2,0.6,2.7,0.9l20.1,10.9C972.1,281.9,971.2,281.6,970.1,281.4"/>
				</g>
			</g>
			<g class="st2">
				<defs>
					<path id="SVGID_15_" class="st2" d="M941.5,320.6c-6.7-3.6-13.4-7.3-20.1-10.9c-2-1.1-3.8-2.4-5.4-4.1c-2.5-2.6-4.1-6-4.1-11.4
						c0-6.9,2.6-12.2,6.6-16.3c4.6-4.5,11-7.2,17.8-8.1l20.1,10.9c-6.7,0.9-13.2,3.6-17.8,8.1c-4,4-6.6,9.4-6.6,16.3
						c0,5.4,1.6,8.8,4.1,11.4C937.7,318.2,939.5,319.5,941.5,320.6z"/>
				</defs>
				<use xlink:href="#SVGID_15_"  style="overflow:visible;"/>
				<clipPath id="SVGID_16_">
					<use xlink:href="#SVGID_15_"  style="overflow:visible;"/>
				</clipPath>
				<g class="st10">
					<path d="M941.5,320.6l-20.1-10.9c-2-1.1-3.8-2.4-5.4-4.1c-2.5-2.6-4.1-6-4.1-11.4c0-3,0.5-5.8,1.4-8.2l20.1,10.9
						c-0.9,2.5-1.4,5.2-1.4,8.2c0,5.4,1.6,8.8,4.1,11.4C937.7,318.2,939.5,319.5,941.5,320.6"/>
					<path d="M933.4,296.9l-20.1-10.9c0.4-1,0.8-1.9,1.2-2.8l20.1,10.9C934.2,295,933.8,295.9,933.4,296.9"/>
					<path d="M934.7,294.1l-20.1-10.9c0.4-0.8,0.9-1.5,1.3-2.2l20.1,10.9C935.5,292.6,935.1,293.3,934.7,294.1"/>
					<path d="M936,291.9L915.9,281c0.5-0.7,1-1.4,1.6-2l20.1,10.9C937,290.6,936.5,291.2,936,291.9"/>
					<path d="M937.6,289.9L917.5,279c0.3-0.4,0.7-0.7,1-1.1c0.2-0.2,0.5-0.5,0.7-0.7l20.1,10.9c-0.3,0.2-0.5,0.5-0.7,0.7
						C938.2,289.2,937.9,289.6,937.6,289.9"/>
					<path d="M939.3,288.1l-20.1-10.9c0.8-0.7,1.7-1.4,2.5-2l20.1,10.9C941,286.8,940.1,287.4,939.3,288.1"/>
					<path d="M941.9,286.1l-20.1-10.9c1.3-0.9,2.7-1.7,4.1-2.4l20.1,10.9C944.6,284.5,943.2,285.2,941.9,286.1"/>
					<path d="M946,283.8l-20.1-10.9c3.2-1.5,6.7-2.5,10.3-3l20.1,10.9C952.7,281.3,949.2,282.3,946,283.8"/>
				</g>
			</g>
			<g>
				<path class="st11" d="M956.4,280.7c7.1-1,13.6,0.2,16.5,1.5c0.7,0.3,0.8,1.1,0.3,2l-6.7,12.8c-0.3,0.4-0.6,0.6-0.9,0.7
					c-0.3,0-0.6-0.1-0.9-0.2c-2.6-1.2-6.6-2.1-10.3-1.6c-1.7,0.2-3.5,0.8-4.6,1.8c-0.8,0.7-1.4,1.8-1.4,3.1c0,1.6,1.2,2.9,3.3,4.2
					c4.8,2.9,10.7,4,15.3,8.1c3.1,2.9,5.5,6.5,5.4,13.1c0,5.9-2.5,11.8-7.3,16.5c-4.2,4-10.3,7-18.1,8.1c-8.1,1.1-14.6,0-19.9-3.7
					c-0.9-0.5-0.8-1.3-0.2-2.3l6.6-12c0.3-0.5,0.7-0.8,1-0.8c0.3,0,0.7,0.1,1,0.3c3.3,2.7,7.4,4.3,11.9,3.6c2-0.3,4-0.8,5.5-1.8
					c1.5-0.9,2.5-2.1,2.5-3.9c0-2.1-1-3.2-3.7-4.8c-5-2.9-11.4-4.3-15.6-9c-2.5-2.6-4.1-6-4.1-11.4c0-6.9,2.6-12.2,6.6-16.3
					C943.1,284.4,949.6,281.7,956.4,280.7z"/>
			</g>
			<g class="st2">
				<defs>
					<path id="SVGID_17_" class="st2" d="M905.9,275.3l20.1,10.9c-0.3-0.1-0.6-0.2-1.1-0.1l-20.1-10.9
						C905.3,275.2,905.6,275.2,905.9,275.3z"/>
				</defs>
				<use xlink:href="#SVGID_17_"  style="overflow:visible;"/>
				<clipPath id="SVGID_18_">
					<use xlink:href="#SVGID_17_"  style="overflow:visible;"/>
				</clipPath>
				<g class="st12">
					<path d="M924.9,286.2l-20.1-10.9c0.3,0,0.6,0,0.8,0l20.1,10.9C925.5,286.1,925.2,286.1,924.9,286.2"/>
					<path d="M925.7,286.2l-20.1-10.9c0.1,0,0.2,0,0.2,0.1l20.1,10.9C925.9,286.2,925.8,286.2,925.7,286.2"/>
					<path d="M926,286.3l-20.1-10.9c0,0,0,0,0,0L926,286.3C926,286.3,926,286.3,926,286.3"/>
				</g>
			</g>
			<g class="st2">
				<defs>
					<path id="SVGID_19_" class="st2" d="M912.9,311.6l-20.1-10.9c-0.5-0.3-0.8-1-0.8-2l20.1,10.9
						C912.1,310.6,912.3,311.3,912.9,311.6z"/>
				</defs>
				<use xlink:href="#SVGID_19_"  style="overflow:visible;"/>
				<clipPath id="SVGID_20_">
					<use xlink:href="#SVGID_19_"  style="overflow:visible;"/>
				</clipPath>
				<g class="st13">
					<path d="M912.9,311.6l-20.1-10.9c-0.5-0.3-0.8-1-0.8-2l20.1,10.9C912.1,310.6,912.3,311.3,912.9,311.6"/>
				</g>
			</g>
			<g>
				<polygon points="914.5,287.6 894.4,276.7 904.8,275.2 924.9,286.2 				"/>
			</g>
			<g>
				<polygon points="912.1,309.6 892,298.6 892.2,279.6 912.3,290.5 				"/>
			</g>
			<g>
				<path class="st11" d="M924.9,286.2c1.4-0.2,1.9,0.6,1.5,2.3l-4.8,19.7c-0.4,1.7-1.2,2.6-2.6,2.8l-5,0.7c-1.4,0.2-2-0.5-2-2.2
					l0.2-19.1c0.1-1.7,0.8-2.7,2.2-2.9L924.9,286.2z"/>
			</g>
			<g class="st2">
				<defs>
					<path id="SVGID_21_" class="st2" d="M912.3,290.5l-20.1-10.9c0.1-1.7,0.8-2.7,2.2-2.9l20.1,10.9
						C913.1,287.8,912.4,288.8,912.3,290.5z"/>
				</defs>
				<use xlink:href="#SVGID_21_"  style="overflow:visible;"/>
				<clipPath id="SVGID_22_">
					<use xlink:href="#SVGID_21_"  style="overflow:visible;"/>
				</clipPath>
				<g class="st14">
					<path d="M912.3,290.5l-20.1-10.9c0-0.5,0.1-0.9,0.2-1.3l20.1,10.9C912.4,289.6,912.3,290,912.3,290.5"/>
					<path d="M912.5,289.2l-20.1-10.9c0-0.1,0.1-0.3,0.2-0.4l20.1,10.9C912.6,288.9,912.6,289.1,912.5,289.2"/>
					<path d="M912.7,288.8l-20.1-10.9c0-0.1,0.1-0.2,0.2-0.2l20.1,10.9C912.8,288.6,912.7,288.7,912.7,288.8"/>
					<path d="M912.8,288.6l-20.1-10.9c0-0.1,0.1-0.1,0.2-0.2l20.1,10.9C912.9,288.4,912.9,288.5,912.8,288.6"/>
					<path d="M913,288.4l-20.1-10.9c0.1-0.1,0.1-0.1,0.2-0.2l20.1,10.9C913.1,288.2,913.1,288.3,913,288.4"/>
					<path d="M913.2,288.2l-20.1-10.9c0.1-0.1,0.1-0.1,0.2-0.2l20.1,10.9C913.3,288.1,913.2,288.1,913.2,288.2"/>
					<path d="M913.4,288l-20.1-10.9c0.1-0.1,0.2-0.1,0.3-0.2l20.1,10.9C913.6,287.9,913.5,288,913.4,288"/>
					<path d="M913.7,287.8l-20.1-10.9c0.2-0.1,0.5-0.2,0.8-0.2l20.1,10.9C914.2,287.7,913.9,287.7,913.7,287.8"/>
				</g>
			</g>
		</g>
		<g class="st2">
			<g class="st2">
				<defs>
					<path id="SVGID_23_" class="st2" d="M885.3,278.2l20.1,10.9c-0.2-0.1-0.5-0.2-0.8-0.1l-20.1-10.9
						C884.8,278,885.1,278.1,885.3,278.2z"/>
				</defs>
				<use xlink:href="#SVGID_23_"  style="overflow:visible;"/>
				<clipPath id="SVGID_24_">
					<use xlink:href="#SVGID_23_"  style="overflow:visible;"/>
				</clipPath>
				<g class="st15">
					<path d="M904.6,289l-20.1-10.9c0.2,0,0.4,0,0.5,0l20.1,10.9C905,289,904.8,289,904.6,289"/>
					<path d="M905.2,289l-20.1-10.9c0.1,0,0.2,0,0.2,0.1l20.1,10.9C905.3,289.1,905.3,289.1,905.2,289"/>
					<path d="M905.4,289.1l-20.1-10.9c0,0,0,0,0,0L905.4,289.1C905.4,289.1,905.4,289.1,905.4,289.1"/>
				</g>
			</g>
			<g class="st2">
				<defs>
					<path id="SVGID_25_" class="st2" d="M863.5,361.4l-20.1-10.9c-0.4-0.2-0.7-0.7-0.5-1.5L863,360
						C862.9,360.7,863.1,361.2,863.5,361.4z"/>
				</defs>
				<use xlink:href="#SVGID_25_"  style="overflow:visible;"/>
				<clipPath id="SVGID_26_">
					<use xlink:href="#SVGID_25_"  style="overflow:visible;"/>
				</clipPath>
				<g class="st16">
					<path d="M863.5,361.4l-20.1-10.9c-0.4-0.2-0.7-0.7-0.5-1.5L863,360C862.9,360.7,863.1,361.2,863.5,361.4"/>
				</g>
			</g>
			<g>
				<polygon points="863,360 842.9,349 849.5,298.3 869.6,309.3 				"/>
			</g>
			<g class="st2">
				<defs>
					<path id="SVGID_27_" class="st2" d="M851.7,311.5l-20.1-10.9c-0.4-0.2-0.7-0.8-0.6-1.4l20.1,10.9
						C851,310.8,851.3,311.3,851.7,311.5z"/>
				</defs>
				<use xlink:href="#SVGID_27_"  style="overflow:visible;"/>
				<clipPath id="SVGID_28_">
					<use xlink:href="#SVGID_27_"  style="overflow:visible;"/>
				</clipPath>
				<g class="st17">
					<path d="M851.7,311.5l-20.1-10.9c-0.4-0.2-0.7-0.8-0.6-1.4l20.1,10.9C851,310.8,851.3,311.3,851.7,311.5"/>
				</g>
			</g>
			<g>
				<polygon points="854.6,296 834.5,285.1 884.5,278.1 904.6,289 				"/>
			</g>
			<g>
				<polygon points="851.1,310.1 831,299.2 832.5,287.1 852.7,298.1 				"/>
			</g>
			<g class="st2">
				<defs>
					<path id="SVGID_29_" class="st2" d="M852.7,298.1l-20.1-10.9c0.2-1,1-1.9,1.9-2l20.1,10.9C853.7,296.2,852.8,297.1,852.7,298.1
						z"/>
				</defs>
				<use xlink:href="#SVGID_29_"  style="overflow:visible;"/>
				<clipPath id="SVGID_30_">
					<use xlink:href="#SVGID_29_"  style="overflow:visible;"/>
				</clipPath>
				<g class="st18">
					<path d="M852.7,298.1l-20.1-10.9c0-0.1,0.1-0.3,0.1-0.4l20.1,10.9C852.7,297.8,852.7,297.9,852.7,298.1"/>
					<path d="M852.8,297.6l-20.1-10.9c0-0.1,0.1-0.2,0.2-0.3l20.1,10.9C852.9,297.4,852.8,297.5,852.8,297.6"/>
					<path d="M852.9,297.3l-20.1-10.9c0.1-0.1,0.1-0.2,0.2-0.3l20.1,10.9C853,297.1,853,297.2,852.9,297.3"/>
					<path d="M853.1,297L833,286.1c0.1-0.1,0.1-0.2,0.2-0.2l20.1,10.9C853.2,296.9,853.2,296.9,853.1,297"/>
					<path d="M853.3,296.8l-20.1-10.9c0.1-0.1,0.1-0.1,0.2-0.2l20.1,10.9C853.4,296.6,853.3,296.7,853.3,296.8"/>
					<path d="M853.5,296.6l-20.1-10.9c0.1-0.1,0.2-0.1,0.2-0.2l20.1,10.9C853.7,296.4,853.6,296.5,853.5,296.6"/>
					<path d="M853.7,296.4l-20.1-10.9c0.1-0.1,0.2-0.1,0.3-0.2l20.1,10.9C853.9,296.3,853.8,296.3,853.7,296.4"/>
					<path d="M854,296.2l-20.1-10.9c0.2-0.1,0.3-0.1,0.5-0.2l20.1,10.9C854.4,296.1,854.2,296.1,854,296.2"/>
				</g>
			</g>
			<g>
				<path class="st11" d="M904.6,289c0.9-0.1,1.6,0.6,1.4,1.6l-1.6,12c-0.1,1-0.9,1.9-1.8,2l-17,2.4l-6.5,50.7c-0.2,1.2-1,1.9-1.9,2
					l-12.8,1.8c-0.9,0.1-1.5-0.5-1.4-1.6l6.6-50.7l-17,2.4c-0.9,0.1-1.5-0.6-1.5-1.5l1.6-12c0.2-1,1-1.9,1.9-2L904.6,289z"/>
			</g>
		</g>
		<g class="st2">
			<g class="st2">
				<defs>
					<path id="SVGID_31_" class="st2" d="M820.8,338.8l20.1,10.9c-0.2-0.1-0.4-0.1-0.7-0.1l-20.1-10.9
						C820.4,338.6,820.6,338.7,820.8,338.8z"/>
				</defs>
				<use xlink:href="#SVGID_31_"  style="overflow:visible;"/>
				<clipPath id="SVGID_32_">
					<use xlink:href="#SVGID_31_"  style="overflow:visible;"/>
				</clipPath>
				<g class="st19">
					<path d="M840.3,349.6l-20.1-10.9c0.2,0,0.3,0,0.4,0l20.1,10.9C840.6,349.6,840.4,349.6,840.3,349.6"/>
					<path d="M840.7,349.6l-20.1-10.9c0.1,0,0.1,0,0.2,0.1l20.1,10.9C840.8,349.7,840.8,349.7,840.7,349.6"/>
					<path d="M840.9,349.7l-20.1-10.9c0,0,0,0,0,0L840.9,349.7C840.9,349.7,840.9,349.7,840.9,349.7"/>
				</g>
			</g>
			<g class="st2">
				<defs>
					<path id="SVGID_33_" class="st2" d="M815.7,313.5l20.1,10.9c-0.2-0.1-0.4-0.1-0.6-0.1l-20.1-10.9
						C815.4,313.3,815.6,313.4,815.7,313.5z"/>
				</defs>
				<use xlink:href="#SVGID_33_"  style="overflow:visible;"/>
				<clipPath id="SVGID_34_">
					<use xlink:href="#SVGID_33_"  style="overflow:visible;"/>
				</clipPath>
				<g class="st20">
					<path d="M835.2,324.3l-20.1-10.9c0.1,0,0.3,0,0.4,0l20.1,10.9C835.5,324.3,835.4,324.3,835.2,324.3"/>
					<path d="M835.6,324.3l-20.1-10.9c0.1,0,0.1,0,0.2,0.1l20.1,10.9C835.8,324.4,835.7,324.3,835.6,324.3"/>
					<path d="M835.8,324.4l-20.1-10.9c0,0,0,0,0,0L835.8,324.4C835.8,324.4,835.8,324.4,835.8,324.4"/>
				</g>
			</g>
			<g class="st2">
				<defs>
					<path id="SVGID_35_" class="st2" d="M824.6,286.7l20.1,10.9c-0.2-0.1-0.4-0.1-0.7-0.1L824,286.6
						C824.2,286.5,824.5,286.6,824.6,286.7z"/>
				</defs>
				<use xlink:href="#SVGID_35_"  style="overflow:visible;"/>
				<clipPath id="SVGID_36_">
					<use xlink:href="#SVGID_35_"  style="overflow:visible;"/>
				</clipPath>
				<g class="st21">
					<path d="M844.1,297.5L824,286.6c0.2,0,0.3,0,0.5,0l20.1,10.9C844.4,297.5,844.3,297.5,844.1,297.5"/>
					<path d="M844.5,297.5l-20.1-10.9c0.1,0,0.1,0,0.2,0.1l20.1,10.9C844.7,297.6,844.6,297.6,844.5,297.5"/>
					<path d="M844.7,297.6l-20.1-10.9c0,0,0,0,0,0L844.7,297.6C844.7,297.6,844.7,297.6,844.7,297.6"/>
				</g>
			</g>
			<g>
				<polygon points="811.4,353.7 791.3,342.7 820.2,338.7 840.3,349.6 				"/>
			</g>
			<g class="st2">
				<defs>
					<path id="SVGID_37_" class="st2" d="M794.2,371.2c-6.7-3.6-13.4-7.3-20.1-10.9c-0.4-0.2-0.7-0.8-0.6-1.4l20.1,10.9
						C793.6,370.5,793.8,371,794.2,371.2z"/>
				</defs>
				<use xlink:href="#SVGID_37_"  style="overflow:visible;"/>
				<clipPath id="SVGID_38_">
					<use xlink:href="#SVGID_37_"  style="overflow:visible;"/>
				</clipPath>
				<g class="st22">
					<path d="M794.2,371.2l-20.1-10.9c-0.4-0.2-0.7-0.8-0.6-1.4l20.1,10.9C793.6,370.5,793.8,371,794.2,371.2"/>
				</g>
			</g>
			<g>
				<polygon points="814.9,327.2 794.8,316.2 815.1,313.4 835.2,324.3 				"/>
			</g>
			<g>
				<polygon points="803.8,303.2 783.7,292.2 824,286.6 844.1,297.5 				"/>
			</g>
			<g>
				<polygon points="793.6,369.8 773.5,358.9 781.9,294.2 802,305.1 				"/>
			</g>
			<g>
				<path class="st11" d="M844.1,297.5c0.8-0.1,1.3,0.5,1.2,1.5l-1.7,12.3c-0.1,0.9-0.9,1.7-1.6,1.8l-25.8,3.6l-1.3,10.4l20.3-2.9
					c0.7-0.1,1.3,0.5,1.2,1.4l-1.8,12.3c-0.1,0.9-0.8,1.8-1.6,1.9l-20.1,2.8l-1.5,10.9l28.8-4.1c0.7-0.1,1.4,0.5,1.2,1.4l-1.6,12.3
					c-0.1,1-0.8,1.8-1.6,1.9l-43.3,6.1c-0.8,0.1-1.4-0.6-1.3-1.5l8.4-64.7c0.1-0.9,0.9-1.8,1.7-1.9L844.1,297.5z"/>
			</g>
			<g class="st2">
				<defs>
					<path id="SVGID_39_" class="st2" d="M802,305.1l-20.1-10.9c0.1-0.9,0.9-1.8,1.7-1.9l20.1,10.9
						C802.9,303.3,802.1,304.2,802,305.1z"/>
				</defs>
				<use xlink:href="#SVGID_39_"  style="overflow:visible;"/>
				<clipPath id="SVGID_40_">
					<use xlink:href="#SVGID_39_"  style="overflow:visible;"/>
				</clipPath>
				<g class="st23">
					<path d="M802,305.1l-20.1-10.9c0-0.2,0.1-0.3,0.1-0.5l20.1,10.9C802.1,304.8,802,304.9,802,305.1"/>
					<path d="M802.1,304.6L782,293.7c0-0.1,0.1-0.2,0.1-0.3l20.1,10.9C802.2,304.4,802.2,304.5,802.1,304.6"/>
					<path d="M802.3,304.3l-20.1-10.9c0-0.1,0.1-0.2,0.2-0.2l20.1,10.9C802.4,304.2,802.3,304.3,802.3,304.3"/>
					<path d="M802.4,304.1l-20.1-10.9c0.1-0.1,0.1-0.2,0.2-0.2l20.1,10.9C802.5,303.9,802.5,304,802.4,304.1"/>
					<path d="M802.6,303.9l-20.1-10.9c0.1-0.1,0.1-0.1,0.2-0.2l20.1,10.9C802.7,303.7,802.7,303.8,802.6,303.9"/>
					<path d="M802.8,303.7l-20.1-10.9c0.1-0.1,0.2-0.1,0.2-0.2l20.1,10.9C802.9,303.5,802.9,303.6,802.8,303.7"/>
					<path d="M803,303.5l-20.1-10.9c0.1-0.1,0.2-0.1,0.3-0.2l20.1,10.9C803.2,303.4,803.1,303.4,803,303.5"/>
					<path d="M803.3,303.3l-20.1-10.9c0.1-0.1,0.3-0.1,0.5-0.1l20.1,10.9C803.6,303.2,803.5,303.3,803.3,303.3"/>
				</g>
			</g>
		</g>
		<g class="st2">
			<g class="st2">
				<defs>
					<path id="SVGID_41_" class="st2" d="M766.1,346.5l20.1,10.9c-0.2-0.1-0.4-0.2-0.7-0.1l-20.1-10.9
						C765.7,346.3,765.9,346.4,766.1,346.5z"/>
				</defs>
				<use xlink:href="#SVGID_41_"  style="overflow:visible;"/>
				<clipPath id="SVGID_42_">
					<use xlink:href="#SVGID_41_"  style="overflow:visible;"/>
				</clipPath>
				<g class="st24">
					<path d="M785.6,357.3l-20.1-10.9c0.1,0,0.3,0,0.4,0l20.1,10.9C785.9,357.3,785.7,357.3,785.6,357.3"/>
					<path d="M786,357.3l-20.1-10.9c0.1,0,0.1,0,0.2,0.1l20.1,10.9C786.1,357.4,786.1,357.3,786,357.3"/>
					<path d="M786.2,357.4l-20.1-10.9c0,0,0,0,0,0L786.2,357.4C786.2,357.4,786.2,357.4,786.2,357.4"/>
				</g>
			</g>
			<g>
				<polygon points="763.8,360.4 743.7,349.4 765.4,346.4 785.6,357.3 				"/>
			</g>
			<g class="st2">
				<defs>
					<path id="SVGID_43_" class="st2" d="M746.6,377.9c-6.7-3.6-13.4-7.3-20.1-10.9c-0.4-0.2-0.7-0.7-0.5-1.4l20.1,10.9
						C745.9,377.1,746.1,377.7,746.6,377.9z"/>
				</defs>
				<use xlink:href="#SVGID_43_"  style="overflow:visible;"/>
				<clipPath id="SVGID_44_">
					<use xlink:href="#SVGID_43_"  style="overflow:visible;"/>
				</clipPath>
				<g class="st25">
					<path d="M746.6,377.9L726.5,367c-0.4-0.2-0.7-0.7-0.5-1.4l20.1,10.9C745.9,377.1,746.1,377.7,746.6,377.9"/>
				</g>
			</g>
			<g class="st2">
				<defs>
					<path id="SVGID_45_" class="st2" d="M749.8,297.2c4,2.2,8,4.4,12.1,6.6c0.3,0.2,0.7,0.4,1,0.5c2.3,1.3,4.7,2.6,7,3.8
						c-0.2-0.1-0.4-0.1-0.7-0.1l-20.1-10.9C749.3,297.1,749.6,297.1,749.8,297.2z"/>
				</defs>
				<use xlink:href="#SVGID_45_"  style="overflow:visible;"/>
				<clipPath id="SVGID_46_">
					<use xlink:href="#SVGID_45_"  style="overflow:visible;"/>
				</clipPath>
				<g class="st26">
					<path d="M769.2,308l-20.1-10.9c0.2,0,0.3,0,0.5,0l20.1,10.9C769.5,308,769.3,308,769.2,308"/>
					<path d="M769.7,308.1l-20.1-10.9c0.1,0,0.1,0,0.2,0.1l20.1,10.9C769.8,308.1,769.7,308.1,769.7,308.1"/>
					<path d="M769.8,308.1l-20.1-10.9c0,0,0,0,0,0L769.8,308.1C769.9,308.2,769.9,308.1,769.8,308.1"/>
				</g>
			</g>
			<g>
				<polygon points="756.1,309.9 736,299 749.1,297.1 769.2,308 				"/>
			</g>
			<g>
				<polygon points="746,376.5 725.9,365.6 734.3,300.8 754.4,311.8 				"/>
			</g>
			<g class="st2">
				<defs>
					<path id="SVGID_47_" class="st2" d="M754.4,311.8l-20.1-10.9c0.1-1,0.8-1.8,1.6-1.9l20.1,10.9
						C755.2,310,754.5,310.8,754.4,311.8z"/>
				</defs>
				<use xlink:href="#SVGID_47_"  style="overflow:visible;"/>
				<clipPath id="SVGID_48_">
					<use xlink:href="#SVGID_47_"  style="overflow:visible;"/>
				</clipPath>
				<g class="st27">
					<path d="M754.4,311.8l-20.1-10.9c0-0.2,0.1-0.4,0.1-0.6l20.1,10.9C754.5,311.4,754.4,311.6,754.4,311.8"/>
					<path d="M754.5,311.2l-20.1-10.9c0-0.1,0.1-0.2,0.1-0.3l20.1,10.9C754.6,311,754.6,311.1,754.5,311.2"/>
					<path d="M754.7,310.9L734.6,300c0-0.1,0.1-0.1,0.1-0.2l20.1,10.9C754.8,310.8,754.7,310.8,754.7,310.9"/>
					<path d="M754.8,310.7l-20.1-10.9c0.1-0.1,0.1-0.1,0.2-0.2l20.1,10.9C754.9,310.6,754.9,310.6,754.8,310.7"/>
					<path d="M755,310.5l-20.1-10.9c0.1-0.1,0.1-0.1,0.2-0.2l20.1,10.9C755.1,310.4,755,310.4,755,310.5"/>
					<path d="M755.1,310.3L735,299.4c0.1-0.1,0.1-0.1,0.2-0.2l20.1,10.9C755.3,310.2,755.2,310.3,755.1,310.3"/>
					<path d="M755.3,310.2l-20.1-10.9c0.1-0.1,0.2-0.1,0.3-0.2l20.1,10.9C755.5,310.1,755.4,310.1,755.3,310.2"/>
					<path d="M755.6,310l-20.1-10.9c0.1-0.1,0.3-0.1,0.5-0.1l20.1,10.9C755.9,309.9,755.7,310,755.6,310"/>
				</g>
			</g>
			<g>
				<path class="st11" d="M769.2,308c0.8-0.1,1.4,0.5,1.3,1.5l-6.6,50.8l21.7-3.1c0.7-0.1,1.4,0.5,1.2,1.4l-1.6,12.3
					c-0.1,1-0.8,1.8-1.6,1.9l-36.2,5.1c-0.8,0.1-1.5-0.6-1.3-1.5l8.4-64.7c0.1-1,0.8-1.8,1.6-1.9L769.2,308z"/>
			</g>
		</g>
	</g>
</g>
<g>
	<path class="st28" d="M268,562.2c-1.6,0-3.3,0-4.9-0.1l1.3-51.6c1.2,0,2.5,0,3.7,0.1L268,562.2z M272.9,562.1l-1.1-51.6
		c1.2,0,2.5-0.1,3.7-0.1l2.2,51.6C276.1,562,274.5,562.1,272.9,562.1z M258.2,561.9c-1.6-0.1-3.3-0.2-4.9-0.3l3.6-51.5
		c1.2,0.1,2.5,0.2,3.7,0.2L258.2,561.9z M282.6,561.7l-3.4-51.5c1.2-0.1,2.5-0.2,3.7-0.3l4.6,51.5
		C285.9,561.5,284.3,561.6,282.6,561.7z M248.4,561.2c-1.6-0.2-3.2-0.3-4.9-0.5l6-51.3c1.2,0.1,2.5,0.3,3.7,0.4L248.4,561.2z
		 M292.4,560.8l-5.8-51.3c1.2-0.1,2.4-0.3,3.7-0.5l7,51.2C295.6,560.4,294,560.6,292.4,560.8z M238.7,560.1
		c-1.6-0.2-3.3-0.5-4.9-0.7l8.4-51c1.2,0.2,2.4,0.4,3.7,0.6L238.7,560.1z M302.1,559.5l-8.1-51c1.2-0.2,2.4-0.4,3.6-0.6l9.3,50.8
		C305.3,559,303.7,559.2,302.1,559.5z M229,558.5c-1.6-0.3-3.2-0.6-4.8-1l10.8-50.5c1.2,0.3,2.4,0.5,3.6,0.7L229,558.5z
		 M311.7,557.7l-10.5-50.6c1.2-0.3,2.4-0.5,3.6-0.8l11.7,50.3C314.9,557,313.3,557.4,311.7,557.7z M219.4,556.5
		c-1.6-0.4-3.2-0.8-4.8-1.2l13.1-50c1.2,0.3,2.4,0.6,3.6,0.9L219.4,556.5z M321.3,555.5l-12.9-50c1.2-0.3,2.4-0.6,3.6-1l14,49.7
		C324.4,554.7,322.9,555.1,321.3,555.5z M209.9,554c-1.6-0.4-3.1-0.9-4.7-1.4l15.4-49.3c1.2,0.4,2.4,0.7,3.5,1.1L209.9,554z
		 M330.7,552.8l-15.2-49.4c1.2-0.4,2.4-0.7,3.5-1.1l16.3,49C333.8,551.9,332.3,552.4,330.7,552.8z M200.5,551
		c-1.6-0.5-3.1-1.1-4.7-1.6l17.7-48.5c1.2,0.4,2.3,0.8,3.5,1.2L200.5,551z M340,549.7l-17.5-48.6c1.2-0.4,2.3-0.8,3.5-1.3l18.6,48.2
		C343.1,548.6,341.6,549.2,340,549.7z M191.3,547.7c-1.5-0.6-3.1-1.2-4.6-1.8l19.9-47.7c1.1,0.5,2.3,0.9,3.4,1.4L191.3,547.7z
		 M349.2,546.2l-19.7-47.7c1.1-0.5,2.3-1,3.4-1.5l20.8,47.3C352.2,545,350.7,545.6,349.2,546.2z M182.2,543.9
		c-1.5-0.7-3-1.4-4.5-2.1l22.2-46.7c1.1,0.5,2.2,1,3.4,1.5L182.2,543.9z M358.1,542.3l-21.9-46.8c1.1-0.5,2.2-1.1,3.3-1.6l23,46.3
		C361.1,540.9,359.6,541.6,358.1,542.3z M173.3,539.7c-1.5-0.7-2.9-1.5-4.4-2.3l24.3-45.6c1.1,0.6,2.2,1.1,3.3,1.7L173.3,539.7z
		 M366.9,537.9l-24-45.7c1.1-0.6,2.2-1.2,3.2-1.8l25.1,45.2C369.7,536.4,368.3,537.2,366.9,537.9z M164.6,535
		c-1.4-0.8-2.8-1.6-4.2-2.4l26.3-44.4c1.1,0.6,2.1,1.3,3.2,1.9L164.6,535z M375.4,533.2l-26.1-44.6c1.1-0.6,2.1-1.3,3.2-1.9l27.1,44
		C378.2,531.5,376.9,532.4,375.4,533.2z M156.2,530c-1.4-0.9-2.8-1.7-4.1-2.6l28.4-43.2c1,0.7,2.1,1.4,3.1,2L156.2,530z M383.8,528
		l-28.2-43.3c1-0.7,2.1-1.4,3.1-2.1l29.1,42.6C386.5,526.2,385.1,527.2,383.8,528z M148,524.6c-1.3-0.9-2.7-1.9-4-2.8l30.4-41.8
		c1,0.7,2,1.4,3,2.1L148,524.6z M391.8,522.5l-30.1-42c1-0.7,2-1.5,3-2.2l31.1,41.3C394.5,520.6,393.2,521.6,391.8,522.5z
		 M140.1,518.9c-1.3-1-2.6-2-3.9-3l32.2-40.4c1,0.8,1.9,1.5,2.9,2.3L140.1,518.9z M399.7,516.6l-32-40.5c1-0.8,1.9-1.5,2.9-2.3
		l32.9,39.8C402.2,514.6,400.9,515.6,399.7,516.6z M132.4,512.8c-1.3-1.1-2.5-2.1-3.7-3.2l34.1-38.8c0.9,0.8,1.9,1.6,2.8,2.4
		L132.4,512.8z M407.2,510.4l-33.8-39c0.9-0.8,1.9-1.6,2.8-2.5l34.7,38.2C409.7,508.2,408.4,509.3,407.2,510.4z M125.1,506.3
		c-1.2-1.1-2.4-2.2-3.6-3.4l35.8-37.2c0.9,0.9,1.8,1.7,2.7,2.5L125.1,506.3z M414.4,503.8l-35.6-37.4c0.9-0.9,1.8-1.7,2.7-2.6
		l36.5,36.6C416.8,501.5,415.6,502.7,414.4,503.8z M118,499.5c-1.1-1.2-2.3-2.3-3.4-3.5l37.5-35.5c0.9,0.9,1.7,1.8,2.6,2.7
		L118,499.5z M421.4,496.9l-37.3-35.7c0.9-0.9,1.7-1.8,2.5-2.7l38.1,34.9C423.6,494.5,422.5,495.7,421.4,496.9z M111.3,492.4
		c-1.1-1.2-2.2-2.4-3.2-3.7l39.1-33.8c0.8,0.9,1.6,1.9,2.5,2.8L111.3,492.4z M428,489.7l-38.9-34c0.8-0.9,1.6-1.9,2.4-2.8l39.7,33.1
		C430.1,487.2,429.1,488.4,428,489.7z M104.9,485c-1-1.3-2.1-2.5-3.1-3.8l40.6-31.9c0.8,1,1.5,1.9,2.3,2.9L104.9,485z M434.3,482.1
		L393.9,450c0.8-1,1.5-1.9,2.3-2.9l41.1,31.2C436.3,479.6,435.3,480.9,434.3,482.1z M98.8,477.3c-1-1.3-1.9-2.6-2.9-4l42-30
		c0.7,1,1.4,2,2.2,3L98.8,477.3z M440.2,474.3l-41.9-30.3c0.7-1,1.4-2,2.1-3l42.5,29.3C442.1,471.7,441.2,473,440.2,474.3z
		 M93.1,469.3c-0.9-1.3-1.8-2.7-2.7-4.1l43.4-28.1c0.7,1,1.4,2.1,2,3.1L93.1,469.3z M445.8,466.3L402.6,438c0.7-1,1.3-2.1,2-3.1
		l43.9,27.3C447.5,463.5,446.7,464.9,445.8,466.3z M87.8,461.1c-0.9-1.4-1.7-2.8-2.5-4.2l44.6-26c0.6,1.1,1.3,2.1,1.9,3.2
		L87.8,461.1z M451,457.9l-44.5-26.3c0.6-1.1,1.2-2.1,1.9-3.2l45.1,25.3C452.6,455.1,451.8,456.5,451,457.9z M82.9,452.7
		c-0.8-1.4-1.6-2.9-2.3-4.3l45.8-23.9c0.6,1.1,1.2,2.2,1.7,3.3L82.9,452.7z M455.8,449.3l-45.7-24.2c0.6-1.1,1.2-2.2,1.7-3.3
		L458,445C457.3,446.5,456.5,447.9,455.8,449.3z M78.4,444c-0.7-1.5-1.4-3-2.1-4.4l46.8-21.8c0.5,1.1,1,2.2,1.6,3.3L78.4,444z
		 M460.2,440.6l-46.7-22c0.5-1.1,1-2.2,1.5-3.4l47.2,20.9C461.5,437.6,460.8,439.1,460.2,440.6z M74.2,435.1c-0.7-1.5-1.3-3-1.9-4.5
		l47.8-19.6c0.5,1.1,0.9,2.3,1.4,3.4L74.2,435.1z M464.1,431.6l-47.7-19.8c0.5-1.1,0.9-2.3,1.4-3.4L466,427
		C465.4,428.5,464.8,430.1,464.1,431.6z M70.5,426.1c-0.6-1.5-1.2-3.1-1.7-4.6l48.7-17.3c0.4,1.2,0.8,2.3,1.3,3.5L70.5,426.1z
		 M467.7,422.4l-48.6-17.6c0.4-1.2,0.8-2.3,1.2-3.5l49,16.4C468.8,419.3,468.3,420.8,467.7,422.4z M67.2,416.8
		c-0.5-1.6-1-3.2-1.5-4.7l49.4-15c0.4,1.2,0.7,2.3,1.1,3.5L67.2,416.8z M470.8,413.1l-49.3-15.3c0.4-1.2,0.7-2.3,1-3.5l49.7,14.1
		C471.8,409.9,471.3,411.5,470.8,413.1z M64.4,407.4c-0.4-1.6-0.9-3.2-1.3-4.7l50.1-12.8c0.3,1.2,0.6,2.4,1,3.6L64.4,407.4z
		 M473.5,403.6l-50-13c0.3-1.2,0.6-2.4,0.9-3.6l50.3,11.8C474.3,400.5,473.9,402.1,473.5,403.6z M61.9,397.9c-0.4-1.6-0.7-3.2-1-4.8
		l50.6-10.4c0.2,1.2,0.5,2.4,0.8,3.6L61.9,397.9z M475.8,394.1l-50.6-10.6c0.3-1.2,0.5-2.4,0.7-3.6l50.8,9.5
		C476.4,390.9,476.1,392.5,475.8,394.1z M60,388.3c-0.3-1.6-0.6-3.2-0.8-4.8l51-8c0.2,1.2,0.4,2.4,0.6,3.7L60,388.3z M477.6,384.4
		l-51-8.2c0.2-1.2,0.4-2.4,0.6-3.7l51.2,7.1C478.1,381.2,477.8,382.8,477.6,384.4z M58.4,378.6c-0.2-1.6-0.4-3.2-0.6-4.9l51.3-5.7
		c0.1,1.2,0.3,2.5,0.4,3.7L58.4,378.6z M478.9,374.7l-51.3-5.9c0.1-1.2,0.3-2.5,0.4-3.7l51.4,4.7
		C479.3,371.5,479.1,373.1,478.9,374.7z M57.4,368.9c-0.1-1.6-0.3-3.3-0.4-4.9l51.6-3.3c0.1,1.2,0.2,2.5,0.3,3.7L57.4,368.9z
		 M479.8,365l-51.5-3.5c0.1-1.2,0.2-2.5,0.2-3.7l51.6,2.4C480,361.7,479.9,363.3,479.8,365z M56.7,359.1c-0.1-1.6-0.1-3.3-0.1-4.9
		l51.6-0.9c0,1.2,0.1,2.5,0.1,3.7L56.7,359.1z M480.2,355.2l-51.6-1.2c0-1.2,0-2.5,0-3.7h51.7C480.3,351.9,480.3,353.6,480.2,355.2z
		 M108.2,349.6l-51.7-0.2c0-1.6,0-3.3,0.1-4.9l51.6,1.4C108.2,347.1,108.2,348.3,108.2,349.6z M428.6,348c0-1.2-0.1-2.5-0.1-3.7
		l51.6-1.9c0.1,1.6,0.1,3.2,0.1,4.9L428.6,348z M108.4,342.2l-51.6-2.6c0.1-1.6,0.2-3.3,0.3-4.9l51.5,3.8
		C108.6,339.7,108.5,340.9,108.4,342.2z M428.3,340.6c-0.1-1.2-0.2-2.5-0.3-3.7l51.5-4.2c0.1,1.6,0.2,3.2,0.3,4.9L428.3,340.6z
		 M109,334.8l-51.4-5c0.2-1.6,0.3-3.3,0.5-4.9l51.3,6.1C109.2,332.3,109.1,333.5,109,334.8z M427.7,333.2c-0.1-1.2-0.3-2.5-0.4-3.7
		l51.2-6.6c0.2,1.6,0.4,3.2,0.6,4.8L427.7,333.2z M109.8,327.4l-51.1-7.3c0.2-1.6,0.5-3.2,0.7-4.8l51,8.5
		C110.2,324.9,110,326.2,109.8,327.4z M426.8,325.8c-0.2-1.2-0.4-2.4-0.6-3.7l50.9-9c0.3,1.6,0.5,3.2,0.8,4.8L426.8,325.8z
		 M111.1,320.1l-50.7-9.7c0.3-1.6,0.6-3.2,1-4.8l50.5,10.9C111.5,317.7,111.3,318.9,111.1,320.1z M425.5,318.6
		c-0.2-1.2-0.5-2.4-0.8-3.6l50.4-11.3c0.4,1.6,0.7,3.2,1,4.8L425.5,318.6z M112.6,312.8l-50.2-12c0.4-1.6,0.8-3.2,1.2-4.8l49.9,13.2
		C113.2,310.4,112.9,311.6,112.6,312.8z M423.9,311.3c-0.3-1.2-0.6-2.4-0.9-3.6l49.8-13.7c0.4,1.6,0.8,3.1,1.2,4.7L423.9,311.3z
		 M114.5,305.7l-49.6-14.4c0.5-1.6,0.9-3.1,1.4-4.7l49.3,15.5C115.2,303.3,114.9,304.5,114.5,305.7z M421.9,304.2
		c-0.4-1.2-0.7-2.4-1.1-3.5l49.1-16c0.5,1.5,1,3.1,1.5,4.7L421.9,304.2z M116.7,298.6L67.8,282c0.5-1.6,1.1-3.1,1.6-4.6l48.5,17.8
		C117.5,296.3,117.1,297.4,116.7,298.6z M419.6,297.1c-0.4-1.2-0.8-2.3-1.3-3.5l48.3-18.3c0.6,1.5,1.1,3.1,1.7,4.6L419.6,297.1z
		 M119.3,291.6l-48.1-18.9c0.6-1.5,1.2-3,1.9-4.5l47.6,20C120.2,289.3,119.7,290.5,119.3,291.6z M417,290.2
		c-0.5-1.1-0.9-2.3-1.4-3.4l47.4-20.5c0.6,1.5,1.3,3,1.9,4.5L417,290.2z M122.2,284.8L75,263.6c0.7-1.5,1.4-3,2.1-4.5l46.6,22.3
		C123.2,282.6,122.7,283.7,122.2,284.8z M414.1,283.4c-0.5-1.1-1-2.2-1.6-3.3l46.4-22.7c0.7,1.5,1.4,3,2.1,4.4L414.1,283.4z
		 M125.4,278.1l-46.1-23.3c0.7-1.5,1.5-2.9,2.3-4.4l45.5,24.4C126.5,275.9,125.9,277,125.4,278.1z M410.8,276.8
		c-0.6-1.1-1.1-2.2-1.7-3.3l45.3-24.8c0.8,1.4,1.5,2.9,2.3,4.3L410.8,276.8z M128.9,271.5l-45-25.4c0.8-1.4,1.6-2.8,2.5-4.2
		l44.4,26.5C130.1,269.4,129.5,270.5,128.9,271.5z M407.3,270.3c-0.6-1.1-1.2-2.1-1.9-3.2l44.1-26.9c0.8,1.4,1.7,2.8,2.5,4.2
		L407.3,270.3z M132.7,265.2l-43.7-27.5c0.9-1.4,1.8-2.8,2.7-4.1l43.1,28.5C134,263.1,133.3,264.1,132.7,265.2z M403.4,264
		c-0.7-1-1.3-2.1-2-3.1l42.8-28.9c0.9,1.4,1.8,2.7,2.7,4.1L403.4,264z M136.8,259l-42.4-29.5c0.9-1.3,1.9-2.7,2.8-4l41.7,30.4
		C138.2,257,137.5,258,136.8,259z M399.3,257.9c-0.7-1-1.4-2-2.2-3l41.5-30.8c1,1.3,1.9,2.6,2.9,4L399.3,257.9z M141.1,253l-41-31.4
		c1-1.3,2-2.6,3-3.9l40.3,32.3C142.7,251,141.9,252,141.1,253z M394.9,251.9c-0.8-1-1.5-1.9-2.3-2.9l40-32.7c1,1.3,2,2.5,3,3.8
		L394.9,251.9z M145.8,247.2l-39.5-33.3c1.1-1.3,2.1-2.5,3.2-3.7l38.7,34.2C147.4,245.3,146.6,246.3,145.8,247.2z M390.2,246.2
		c-0.8-0.9-1.6-1.9-2.5-2.8l38.5-34.5c1.1,1.2,2.2,2.4,3.2,3.7L390.2,246.2z M150.7,241.6l-38-35c1.1-1.2,2.2-2.4,3.4-3.6l37.1,35.9
		C152.4,239.8,151.5,240.7,150.7,241.6z M385.2,240.7c-0.8-0.9-1.7-1.8-2.6-2.7l36.8-36.2c1.1,1.2,2.3,2.3,3.4,3.5L385.2,240.7z
		 M155.9,236.3l-36.3-36.8c1.2-1.1,2.3-2.3,3.5-3.4l35.5,37.6C157.6,234.6,156.7,235.4,155.9,236.3z M380,235.4
		c-0.9-0.9-1.8-1.7-2.7-2.6l35.1-37.9c1.2,1.1,2.4,2.2,3.5,3.4L380,235.4z M161.3,231.2l-34.6-38.4c1.2-1.1,2.4-2.2,3.7-3.2
		l33.7,39.2C163.1,229.6,162.2,230.4,161.3,231.2z M374.6,230.3c-0.9-0.8-1.9-1.6-2.8-2.4l33.3-39.5c1.3,1.1,2.5,2.1,3.7,3.2
		L374.6,230.3z M166.9,226.4l-32.8-39.9c1.3-1,2.5-2.1,3.8-3.1l31.8,40.7C168.8,224.8,167.8,225.6,166.9,226.4z M368.9,225.5
		c-1-0.8-1.9-1.5-2.9-2.3l31.5-41c1.3,1,2.6,2,3.9,3L368.9,225.5z M172.7,221.8l-30.9-41.4c1.3-1,2.6-1.9,4-2.9l29.9,42.1
		C174.7,220.3,173.7,221.1,172.7,221.8z M363.1,221c-1-0.7-2-1.4-3-2.2l29.6-42.4c1.3,0.9,2.7,1.9,4,2.9L363.1,221z M178.8,217.5
		l-29-42.8c1.4-0.9,2.7-1.8,4.1-2.7l28,43.4C180.8,216.2,179.8,216.8,178.8,217.5z M357,216.8c-1-0.7-2.1-1.4-3.1-2l27.6-43.7
		c1.4,0.9,2.8,1.8,4.1,2.7L357,216.8z M185,213.5l-27-44.1c1.4-0.8,2.8-1.7,4.2-2.5l25.9,44.7C187.1,212.2,186,212.9,185,213.5z
		 M350.7,212.8c-1.1-0.6-2.1-1.3-3.2-1.9L373,166c1.4,0.8,2.8,1.6,4.2,2.5L350.7,212.8z M191.4,209.8l-24.9-45.3
		c1.4-0.8,2.9-1.6,4.3-2.3l23.8,45.8C193.5,208.6,192.4,209.2,191.4,209.8z M344.2,209.1c-1.1-0.6-2.2-1.2-3.3-1.7l23.4-46
		c1.5,0.7,2.9,1.5,4.3,2.3L344.2,209.1z M197.9,206.4L175.2,160c1.5-0.7,2.9-1.4,4.4-2.1l21.7,46.9
		C200.1,205.3,199,205.9,197.9,206.4z M337.6,205.8c-1.1-0.5-2.2-1.1-3.4-1.6l21.2-47.1c1.5,0.7,3,1.4,4.5,2.1L337.6,205.8z
		 M204.6,203.3L184,155.9c1.5-0.6,3-1.3,4.5-1.9l19.5,47.8C206.9,202.3,205.8,202.8,204.6,203.3z M330.9,202.7
		c-1.1-0.5-2.3-1-3.4-1.4l19-48c1.5,0.6,3.1,1.2,4.6,1.9L330.9,202.7z M211.5,200.5l-18.4-48.3c1.5-0.6,3.1-1.1,4.6-1.7l17.2,48.7
		C213.8,199.6,212.6,200.1,211.5,200.5z M323.9,200c-1.2-0.4-2.3-0.8-3.5-1.2l16.8-48.9c1.5,0.5,3.1,1.1,4.6,1.7L323.9,200z
		 M218.4,198L202.4,149c1.6-0.5,3.1-1,4.7-1.5l14.9,49.5C220.8,197.3,219.6,197.7,218.4,198z M316.9,197.6c-1.2-0.4-2.4-0.7-3.5-1.1
		l14.5-49.6c1.6,0.5,3.1,0.9,4.7,1.4L316.9,197.6z M225.5,195.9l-13.8-49.8c1.6-0.4,3.2-0.9,4.7-1.3l12.6,50.1
		C227.9,195.2,226.7,195.6,225.5,195.9z M309.8,195.5c-1.2-0.3-2.4-0.6-3.6-0.9l12.2-50.2c1.6,0.4,3.2,0.8,4.8,1.2L309.8,195.5z
		 M232.7,194.1l-11.5-50.4c1.6-0.4,3.2-0.7,4.8-1l10.3,50.6C235.1,193.5,233.9,193.8,232.7,194.1z M302.6,193.7
		c-1.2-0.3-2.4-0.5-3.6-0.7l9.8-50.7c1.6,0.3,3.2,0.6,4.8,1L302.6,193.7z M240,192.6l-9.1-50.8c1.6-0.3,3.2-0.6,4.8-0.8l7.9,51
		C242.4,192.2,241.2,192.4,240,192.6z M295.4,192.3c-1.2-0.2-2.4-0.4-3.7-0.6l7.4-51.1c1.6,0.2,3.2,0.5,4.8,0.8L295.4,192.3z
		 M247.3,191.5l-6.7-51.2c1.6-0.2,3.2-0.4,4.9-0.6L251,191C249.7,191.2,248.5,191.3,247.3,191.5z M288,191.3
		c-1.2-0.1-2.4-0.3-3.7-0.4l5-51.4c1.6,0.2,3.3,0.3,4.9,0.5L288,191.3z M254.7,190.7l-4.4-51.5c1.6-0.1,3.2-0.3,4.9-0.4l3.2,51.6
		C257.1,190.5,255.9,190.6,254.7,190.7z M280.6,190.5c-1.2-0.1-2.5-0.2-3.7-0.2l2.7-51.6c1.6,0.1,3.3,0.2,4.9,0.3L280.6,190.5z
		 M262.1,190.2l-2-51.6c1.6-0.1,3.2-0.1,4.9-0.1l0.8,51.6C264.5,190.1,263.3,190.2,262.1,190.2z M273.2,190.2
		c-1.2,0-2.5-0.1-3.7-0.1l0.3-51.7c1.6,0,3.3,0,4.9,0.1L273.2,190.2z"/>
	<circle class="st29" cx="268.4" cy="350.3" r="170.5"/>
</g>
<g>
	<g>
		<path class="st30" d="M119.6,287.9h16.6c1.7,0,4.8,0.2,7.4,2.6c2.9,2.9,2.9,6.3,2.9,9.6v28.9c0,3.2-0.2,7.4-3.6,10.4
			c-2.5,2.3-5.4,2.6-7.6,2.6h-15.8V287.9z M132.7,334.7c2.2,0,3.6-1,4.1-1.9c0.8-1.1,0.9-3.6,0.9-4.9v-26.5c0-1.4,0.1-3.3-0.9-4.6
			c-1-1.3-2.3-1.5-3.6-1.5h-4.7v39.2H132.7z"/>
		<path class="st30" d="M151.7,287.9h8.8v54.2h-8.8V287.9z"/>
		<path class="st30" d="M181,342.1l-6.3-40.8h-0.4l0.5,7.2v33.6h-8.8v-54.2h13.9l5.2,35h0.3l5.2-35h13.9v54.2h-8.8v-33.6l0.5-7.2
			h-0.4l-6.3,40.8H181z"/>
		<path class="st30" d="M209.9,287.9h22.6v7.6h-13.8v13h10.7v7.6h-10.7v18.4h14.9v7.6h-23.8V287.9z"/>
		<path class="st30" d="M254.7,342.1l-9.2-32l-0.3,0.1l0.4,6.1v25.8h-8.8v-54.2h9.8l9.1,30.6h0.2l-0.5-5.7v-24.8h8.8v54.2H254.7z"/>
		<path class="st30" d="M276.4,342.1v-46.6h-9.5v-7.6h27.7v7.6h-9.4v46.6H276.4z"/>
		<path class="st30" d="M297.6,287.9h8.8v54.2h-8.8V287.9z"/>
		<path class="st30" d="M338.3,330.8c0,3-0.5,6-3.3,8.6c-2.2,2.1-5.8,3.5-9.9,3.5c-3.3,0-7.1-1.1-9.8-3.5c-3.4-3.1-3.7-6.7-3.7-10.2
			v-29.7c0-3.4,0.7-6.2,3.6-8.9c2.9-2.7,6.3-3.4,9.7-3.4c4,0,7.1,1.3,9.2,3.2c3.5,3.1,3.9,7.1,3.9,9.9v6h-8.8v-6.7
			c0-1.2,0-2.4-1.1-3.6c-0.9-0.9-1.9-1.2-3.2-1.2c-1.6,0-2.6,0.5-3.3,1.1c-1.2,1.1-1.3,2.6-1.3,3.9v30.4c0,1.3-0.1,2.6,1.1,3.8
			c1.2,1.2,2.6,1.3,3.6,1.3c1.1,0,2.5-0.2,3.4-1.4c0.9-1.1,0.9-2.2,0.9-3.3v-8.9h8.8V330.8z"/>
		<path class="st30" d="M361.6,342.1l-1.5-10h-9.4l-1.5,10H340l10-54.2h10.8l10,54.2H361.6z M359.1,324.5l-3.6-21.6h-0.2l-3.6,21.6
			H359.1z"/>
		<path class="st30" d="M377.9,342.1v-46.6h-9.5v-7.6h27.7v7.6h-9.4v46.6H377.9z"/>
		<path class="st30" d="M399.2,287.9h22.6v7.6H408v13h10.7v7.6H408v18.4h14.9v7.6h-23.8V287.9z"/>
	</g>
	<g>
		<path class="st30" d="M149.3,353h8.8v54.2h-8.8V353z"/>
		<path class="st30" d="M163.5,407.2V353h8.8v46.6h14.5v7.6H163.5z"/>
		<path class="st30" d="M208,407.2V353h22.5v7.6h-13.7v13.8h10.5v7.6h-10.5v25.2H208z"/>
		<path class="st30" d="M233.5,353h8.8v54.2h-8.8V353z"/>
		<path class="st30" d="M254.9,407.2v-46.6h-9.5V353h27.7v7.6h-9.4v46.6H254.9z"/>
		<path class="st30" d="M293.7,407.2l-9.2-32l-0.3,0.1l0.4,6.1v25.8h-8.8V353h9.8l9.1,30.6h0.2l-0.5-5.7V353h8.8v54.2H293.7z"/>
		<path class="st30" d="M308.2,353h22.6v7.6H317v13h10.7v7.6H317v18.4H332v7.6h-23.8V353z"/>
		<path class="st30" d="M343.5,389.1v4.9c0,2.6,0.2,3.6,0.5,4.3c0.9,1.9,2.4,2.1,3.9,2.1c0.9,0,2.5-0.1,3.4-1.1
			c0.8-0.9,0.9-2.6,0.9-3.6v-3.6c0-2.2-0.8-4.3-2.8-6.1l-9.1-8.4c-1.4-1.3-2.6-2.6-3.6-4.3c-1.3-2.2-1.8-4.5-1.8-7V362
			c0-2.6,1.2-5.1,2.9-6.7c3.1-2.9,8.2-3.1,10.1-3.1c3.1,0,6.8,0.5,9.7,3.3s3.1,6.2,3.1,8.3v5.5h-8.8v-4.5c0-1.2,0.1-2.5-1-3.7
			c-0.8-0.9-1.8-1.2-3-1.2c-1.1,0-2.5,0.3-3.3,1.1c-0.9,0.9-0.9,1.9-0.9,2.9v2.5c0,1.9,0.5,2.9,2.2,4.4l9.1,8.3
			c2.9,2.7,6,5.7,6,11.5v6.2c0,2.6-0.3,5.6-3.1,8.3c-2.9,2.8-6.3,3.1-9.5,3.1c-2.9,0-6.1-0.5-9.1-2.5c-4-2.8-4.6-6.9-4.6-9.6v-6.7
			H343.5z"/>
		<path class="st30" d="M373.7,389.1v4.9c0,2.6,0.2,3.6,0.5,4.3c0.9,1.9,2.4,2.1,3.9,2.1c0.9,0,2.5-0.1,3.4-1.1
			c0.8-0.9,0.9-2.6,0.9-3.6v-3.6c0-2.2-0.8-4.3-2.8-6.1l-9.1-8.4c-1.4-1.3-2.6-2.6-3.6-4.3c-1.3-2.2-1.8-4.5-1.8-7V362
			c0-2.6,1.2-5.1,2.9-6.7c3.1-2.9,8.2-3.1,10.1-3.1c3.1,0,6.8,0.5,9.7,3.3s3.1,6.2,3.1,8.3v5.5h-8.8v-4.5c0-1.2,0.1-2.5-1-3.7
			c-0.8-0.9-1.8-1.2-3-1.2c-1.1,0-2.5,0.3-3.3,1.1c-0.9,0.9-0.9,1.9-0.9,2.9v2.5c0,1.9,0.5,2.9,2.2,4.4l9.1,8.3
			c2.9,2.7,6,5.7,6,11.5v6.2c0,2.6-0.3,5.6-3.1,8.3c-2.9,2.8-6.3,3.1-9.5,3.1c-2.9,0-6.1-0.5-9.1-2.5c-4-2.8-4.6-6.9-4.6-9.6v-6.7
			H373.7z"/>
	</g>
	<g>
		<path class="st30" d="M196.5,469.8l-9.2-32l-0.3,0.1l0.4,6.1v25.8h-8.8v-54.2h9.8l9.1,30.6h0.2l-0.5-5.7v-24.8h8.8v54.2H196.5z"/>
		<path class="st30" d="M237.7,457.9c0,3.1-0.2,6.4-3.6,9.5c-3.1,2.7-7,3.2-9.8,3.2s-6.7-0.5-9.8-3.2c-3.5-3.1-3.6-6.4-3.6-9.5
			v-30.3c0-3.1,0.2-6.4,3.6-9.5c3.1-2.7,7-3.2,9.8-3.2s6.7,0.5,9.8,3.2c3.5,3.1,3.6,6.4,3.6,9.5V457.9z M219.6,457.6
			c0,1.2,0.1,2.7,0.9,3.8c1.1,1.5,2.8,1.6,3.8,1.6s2.7-0.2,3.8-1.6c0.8-1.1,0.9-2.6,0.9-3.8v-29.7c0-1.2-0.1-2.7-0.9-3.8
			c-1.1-1.5-2.8-1.6-3.8-1.6s-2.7,0.2-3.8,1.6c-0.8,1.1-0.9,2.6-0.9,3.8V457.6z"/>
		<path class="st30" d="M242.9,415.7h8.8v54.2h-8.8V415.7z"/>
		<path class="st30" d="M283.8,457.9c0,3.1-0.2,6.4-3.6,9.5c-3.1,2.7-7,3.2-9.8,3.2s-6.7-0.5-9.8-3.2c-3.5-3.1-3.6-6.4-3.6-9.5
			v-30.3c0-3.1,0.2-6.4,3.6-9.5c3.1-2.7,7-3.2,9.8-3.2s6.7,0.5,9.8,3.2c3.5,3.1,3.6,6.4,3.6,9.5V457.9z M265.7,457.6
			c0,1.2,0.1,2.7,0.9,3.8c1.1,1.5,2.8,1.6,3.8,1.6s2.7-0.2,3.8-1.6c0.8-1.1,0.9-2.6,0.9-3.8v-29.7c0-1.2-0.1-2.7-0.9-3.8
			c-1.1-1.5-2.8-1.6-3.8-1.6s-2.7,0.2-3.8,1.6c-0.8,1.1-0.9,2.6-0.9,3.8V457.6z"/>
		<path class="st30" d="M297.1,451.8v4.9c0,2.6,0.2,3.6,0.5,4.3c0.9,1.9,2.4,2.1,3.9,2.1c0.9,0,2.5-0.1,3.4-1.1
			c0.8-0.9,0.9-2.6,0.9-3.6v-3.6c0-2.2-0.8-4.3-2.8-6.1l-9.1-8.4c-1.4-1.3-2.6-2.6-3.6-4.3c-1.3-2.2-1.8-4.5-1.8-7v-4.3
			c0-2.6,1.2-5.1,2.9-6.7c3.1-2.9,8.2-3.1,10.1-3.1c3.1,0,6.8,0.5,9.7,3.3s3.1,6.2,3.1,8.3v5.5h-8.8v-4.5c0-1.2,0.1-2.5-1-3.7
			c-0.8-0.9-1.8-1.2-3-1.2c-1.1,0-2.5,0.3-3.3,1.1c-0.9,0.9-0.9,1.9-0.9,2.9v2.5c0,1.9,0.5,2.9,2.2,4.4l9.1,8.3
			c2.9,2.7,6,5.7,6,11.5v6.2c0,2.6-0.3,5.6-3.1,8.3c-2.9,2.8-6.3,3.1-9.5,3.1c-2.9,0-6.1-0.5-9.1-2.5c-4-2.8-4.6-6.9-4.6-9.6v-6.7
			H297.1z"/>
		<path class="st30" d="M345.9,457.9c0,3.1-0.2,6.4-3.6,9.5c-3.1,2.7-7,3.2-9.8,3.2s-6.7-0.5-9.8-3.2c-3.5-3.1-3.6-6.4-3.6-9.5
			v-30.3c0-3.1,0.2-6.4,3.6-9.5c3.1-2.7,7-3.2,9.8-3.2s6.7,0.5,9.8,3.2c3.5,3.1,3.6,6.4,3.6,9.5V457.9z M327.8,457.6
			c0,1.2,0.1,2.7,0.9,3.8c1.1,1.5,2.8,1.6,3.8,1.6s2.7-0.2,3.8-1.6c0.8-1.1,0.9-2.6,0.9-3.8v-29.7c0-1.2-0.1-2.7-0.9-3.8
			c-1.1-1.5-2.8-1.6-3.8-1.6s-2.7,0.2-3.8,1.6c-0.8,1.1-0.9,2.6-0.9,3.8V457.6z"/>
		<path class="st30" d="M350.7,469.8v-9.3h8.4v9.3H350.7z M352.9,457.6l-1.8-15.2v-26.7h7.6v26.7l-1.8,15.2H352.9z"/>
	</g>
</g>
<g>
	<g>
		<path class="st31" d="M677.2,446.8c-1.7,0-3.4,0-5.2-0.1l0.1-5.1c1.7,0,3.4,0.1,5.1,0.1L677.2,446.8z M666.9,446.6
			c-1.7-0.1-3.4-0.2-5.1-0.3l0.3-5.1c1.7,0.1,3.4,0.2,5.1,0.3L666.9,446.6z M656.6,446c-1.7-0.1-3.4-0.3-5.1-0.4l0.5-5.1
			c1.7,0.2,3.3,0.3,5,0.4L656.6,446z M646.4,445c-1.7-0.2-3.4-0.4-5.1-0.6l0.7-5.1c1.7,0.2,3.3,0.4,5,0.6L646.4,445z M636.2,443.6
			c-1.7-0.3-3.4-0.5-5.1-0.8l0.8-5c1.7,0.3,3.3,0.5,5,0.8L636.2,443.6z M626,441.9c-1.7-0.3-3.4-0.6-5.1-1l1-5c1.6,0.3,3.3,0.7,5,1
			L626,441.9z M615.9,439.9c-1.7-0.4-3.4-0.8-5-1.2l1.2-5c1.6,0.4,3.3,0.8,4.9,1.2L615.9,439.9z M605.9,437.4
			c-1.7-0.4-3.3-0.9-5-1.4l1.4-4.9c1.6,0.5,3.2,0.9,4.9,1.3L605.9,437.4z M596,434.7c-1.7-0.5-3.3-1-4.9-1.5l1.6-4.9
			c1.6,0.5,3.2,1,4.8,1.5L596,434.7z M586.1,431.5c-1.6-0.6-3.3-1.1-4.9-1.7l1.7-4.8c1.6,0.6,3.2,1.1,4.8,1.7L586.1,431.5z
			 M576.4,428c-1.6-0.6-3.2-1.2-4.8-1.9l1.9-4.7c1.5,0.6,3.1,1.2,4.7,1.8L576.4,428z M566.9,424.2c-1.6-0.7-3.2-1.4-4.7-2.1l2.1-4.7
			c1.5,0.7,3.1,1.3,4.6,2L566.9,424.2z M557.4,420c-1.6-0.7-3.1-1.5-4.7-2.2l2.2-4.6c1.5,0.7,3,1.5,4.6,2.2L557.4,420z M548.2,415.4
			c-1.6-0.8-3.1-1.6-4.6-2.4l2.4-4.5c1.5,0.8,2.9,1.6,4.5,2.4L548.2,415.4z M539.1,410.6c-1.5-0.9-3-1.7-4.5-2.6l2.6-4.4
			c1.4,0.8,2.9,1.7,4.4,2.5L539.1,410.6z M530.2,405.3c-1.5-0.9-3-1.9-4.4-2.8l2.8-4.3c1.3,0.9,2.8,1.8,4.3,2.7L530.2,405.3z
			 M521.5,399.7c-1.6-1.1-3-2.1-4.2-3l3-4.1c1.2,0.9,2.6,1.9,4.1,2.9L521.5,399.7z M513.1,393.6c-2.7-2-4.1-3.3-4.1-3.3l3.4-3.9
			c0,0,1.3,1.2,3.9,3.1L513.1,393.6z"/>
		<g>
			<polygon class="st31" points="672.2,469.7 714.9,442 669.6,418.8 			"/>
		</g>
	</g>
	<g>
		<path class="st32" d="M678.9,441.7c-1.7,0-3.4,0-5.2-0.1l0.1-5.1c1.7,0,3.4,0.1,5.1,0.1L678.9,441.7z M668.6,441.5
			c-1.7-0.1-3.4-0.2-5.1-0.3l0.3-5.1c1.7,0.1,3.4,0.2,5.1,0.3L668.6,441.5z M658.3,440.8c-1.7-0.1-3.4-0.3-5.1-0.4l0.5-5.1
			c1.7,0.2,3.3,0.3,5,0.4L658.3,440.8z M648.1,439.9c-1.7-0.2-3.4-0.4-5.1-0.6l0.7-5.1c1.7,0.2,3.3,0.4,5,0.6L648.1,439.9z
			 M637.9,438.5c-1.7-0.3-3.4-0.5-5.1-0.8l0.8-5c1.7,0.3,3.3,0.5,5,0.8L637.9,438.5z M627.7,436.8c-1.7-0.3-3.4-0.6-5.1-1l1-5
			c1.6,0.3,3.3,0.7,5,1L627.7,436.8z M617.6,434.8c-1.7-0.4-3.4-0.8-5-1.2l1.2-5c1.6,0.4,3.3,0.8,4.9,1.2L617.6,434.8z M607.6,432.3
			c-1.7-0.4-3.3-0.9-5-1.4l1.4-4.9c1.6,0.5,3.2,0.9,4.9,1.3L607.6,432.3z M597.7,429.5c-1.7-0.5-3.3-1-4.9-1.5l1.6-4.9
			c1.6,0.5,3.2,1,4.8,1.5L597.7,429.5z M587.8,426.4c-1.6-0.6-3.3-1.1-4.9-1.7l1.7-4.8c1.6,0.6,3.2,1.1,4.8,1.7L587.8,426.4z
			 M578.1,422.9c-1.6-0.6-3.2-1.2-4.8-1.9l1.9-4.7c1.5,0.6,3.1,1.2,4.7,1.8L578.1,422.9z M568.6,419.1c-1.6-0.7-3.2-1.4-4.7-2.1
			l2.1-4.7c1.5,0.7,3.1,1.3,4.6,2L568.6,419.1z M559.2,414.9c-1.6-0.7-3.1-1.5-4.7-2.2l2.2-4.6c1.5,0.7,3,1.5,4.6,2.2L559.2,414.9z
			 M549.9,410.3c-1.6-0.8-3.1-1.6-4.6-2.4l2.4-4.5c1.5,0.8,2.9,1.6,4.5,2.4L549.9,410.3z M540.8,405.4c-1.5-0.9-3-1.7-4.5-2.6
			l2.6-4.4c1.4,0.8,2.9,1.7,4.4,2.5L540.8,405.4z M531.9,400.2c-1.5-0.9-3-1.9-4.4-2.8l2.8-4.3c1.3,0.9,2.8,1.8,4.3,2.7L531.9,400.2
			z M523.2,394.6c-1.6-1.1-3-2.1-4.2-3l3-4.1c1.2,0.9,2.6,1.9,4.1,2.9L523.2,394.6z M514.8,388.5c-2.7-2.1-4.1-3.3-4.1-3.3l3.4-3.9
			c0,0,1.3,1.2,3.9,3.1L514.8,388.5z"/>
		<g>
			<polygon class="st32" points="673.9,464.6 716.6,436.9 671.3,413.7 			"/>
		</g>
	</g>
</g>
<g>
	<g>
		<path class="st31" d="M1225.6,431.8c-1.6,0.7-3.2,1.3-4.8,1.9l-1.9-4.8c1.6-0.6,3.1-1.2,4.7-1.9L1225.6,431.8z M1216.1,435.6
			c-1.6,0.6-3.2,1.2-4.8,1.8l-1.7-4.8c1.6-0.6,3.2-1.1,4.8-1.7L1216.1,435.6z M1206.3,439c-1.6,0.5-3.3,1.1-4.9,1.6l-1.5-4.9
			c1.6-0.5,3.2-1,4.8-1.6L1206.3,439z M1196.5,442.1c-1.7,0.5-3.3,1-5,1.4l-1.3-4.9c1.6-0.4,3.2-0.9,4.9-1.4L1196.5,442.1z
			 M1186.6,444.8c-1.7,0.4-3.3,0.8-5,1.2l-1.2-5c1.6-0.4,3.3-0.8,4.9-1.2L1186.6,444.8z M1176.5,447.2c-1.7,0.4-3.4,0.7-5,1l-1-5
			c1.6-0.3,3.3-0.7,5-1L1176.5,447.2z M1166.4,449.2c-1.7,0.3-3.4,0.6-5.1,0.9l-0.8-5c1.7-0.3,3.3-0.5,5-0.8L1166.4,449.2z
			 M1156.2,450.8c-1.7,0.2-3.4,0.5-5.1,0.7l-0.6-5.1c1.7-0.2,3.3-0.4,5-0.7L1156.2,450.8z M1146,452.1c-1.7,0.2-3.4,0.3-5.1,0.5
			l-0.4-5.1c1.7-0.1,3.3-0.3,5-0.5L1146,452.1z M1135.7,453c-1.7,0.1-3.4,0.2-5.1,0.3l-0.3-5.1c1.7-0.1,3.4-0.2,5.1-0.3L1135.7,453z
			 M1125.4,453.5c-1.7,0.1-3.5,0.1-5.2,0.1l-0.1-5.1c1.7,0,3.4-0.1,5.1-0.1L1125.4,453.5z M1115.1,453.7c-1.7,0-3.5,0-5.2-0.1
			l0.1-5.1c1.7,0,3.3,0.1,5.1,0.1L1115.1,453.7z M1104.8,453.4c-1.7-0.1-3.5-0.2-5.2-0.3l0.3-5.1c1.7,0.1,3.3,0.2,5.1,0.2
			L1104.8,453.4z M1094.5,452.8c-1.8-0.1-3.5-0.3-5.1-0.4l0.5-5.1c1.6,0.2,3.3,0.3,5,0.4L1094.5,452.8z M1084.3,451.9
			c-1.8-0.2-3.5-0.4-5.1-0.6l0.7-5.1c1.6,0.2,3.3,0.4,5,0.6L1084.3,451.9z M1074,450.5c-1.8-0.3-3.5-0.6-5.1-0.9l0.9-5
			c1.6,0.3,3.2,0.6,5,0.8L1074,450.5z M1063.8,448.7c-1.8-0.4-3.5-0.7-5.1-1.1l1.1-5c1.5,0.3,3.1,0.7,4.9,1.1L1063.8,448.7z
			 M1053.7,446.3c-3.3-0.9-5-1.4-5.1-1.5l1.6-4.8c0,0,1.7,0.6,4.8,1.4L1053.7,446.3z"/>
		<g>
			<polygon class="st31" points="1229.8,454.9 1258.6,412.8 1207.8,409 			"/>
		</g>
	</g>
	<g>
		<path class="st32" d="M1225.2,426.4c-1.6,0.7-3.2,1.3-4.8,1.9l-1.9-4.8c1.6-0.6,3.1-1.2,4.7-1.9L1225.2,426.4z M1215.6,430.2
			c-1.6,0.6-3.2,1.2-4.8,1.8l-1.7-4.8c1.6-0.6,3.2-1.1,4.8-1.7L1215.6,430.2z M1205.9,433.6c-1.6,0.5-3.3,1.1-4.9,1.6l-1.5-4.9
			c1.6-0.5,3.2-1,4.8-1.6L1205.9,433.6z M1196.1,436.7c-1.7,0.5-3.3,1-5,1.4l-1.3-4.9c1.6-0.4,3.2-0.9,4.9-1.4L1196.1,436.7z
			 M1186.1,439.4c-1.7,0.4-3.3,0.8-5,1.2l-1.2-5c1.6-0.4,3.3-0.8,4.9-1.2L1186.1,439.4z M1176.1,441.8c-1.7,0.4-3.4,0.7-5,1l-1-5
			c1.6-0.3,3.3-0.7,5-1L1176.1,441.8z M1166,443.8c-1.7,0.3-3.4,0.6-5.1,0.9l-0.8-5c1.7-0.3,3.3-0.5,5-0.8L1166,443.8z
			 M1155.8,445.4c-1.7,0.2-3.4,0.5-5.1,0.7l-0.6-5.1c1.7-0.2,3.3-0.4,5-0.7L1155.8,445.4z M1145.6,446.7c-1.7,0.2-3.4,0.3-5.1,0.5
			l-0.4-5.1c1.7-0.1,3.3-0.3,5-0.5L1145.6,446.7z M1135.3,447.6c-1.7,0.1-3.5,0.2-5.1,0.3l-0.3-5.1c1.7-0.1,3.4-0.2,5.1-0.3
			L1135.3,447.6z M1125,448.1c-1.7,0.1-3.5,0.1-5.2,0.1l-0.1-5.1c1.7,0,3.4-0.1,5.1-0.1L1125,448.1z M1114.7,448.3
			c-1.7,0-3.5,0-5.2-0.1l0.1-5.1c1.7,0,3.3,0.1,5.1,0.1L1114.7,448.3z M1104.4,448.1c-1.8-0.1-3.5-0.2-5.2-0.3l0.3-5.1
			c1.7,0.1,3.3,0.2,5.1,0.2L1104.4,448.1z M1094.1,447.5c-1.8-0.1-3.5-0.3-5.1-0.4l0.5-5.1c1.6,0.2,3.3,0.3,5,0.4L1094.1,447.5z
			 M1083.8,446.5c-1.8-0.2-3.5-0.4-5.1-0.6l0.7-5.1c1.6,0.2,3.3,0.4,5,0.6L1083.8,446.5z M1073.6,445.1c-1.8-0.3-3.5-0.6-5.1-0.9
			l0.9-5c1.6,0.3,3.2,0.6,5,0.8L1073.6,445.1z M1063.4,443.3c-1.8-0.4-3.5-0.7-5.1-1.1l1.1-5c1.5,0.3,3.1,0.7,4.9,1.1L1063.4,443.3z
			 M1053.3,441c-3.3-0.9-5-1.4-5.1-1.5l1.6-4.8c0,0,1.7,0.6,4.8,1.4L1053.3,441z"/>
		<g>
			<polygon class="st32" points="1229.4,449.5 1258.2,407.4 1207.4,403.6 			"/>
		</g>
	</g>
</g>
<g>
	<g>
		<path d="M1443.3,219.7c-0.3,2.3-2.6,4.1-4.6,4.1h-94.2l-2.9,18.4l40.4-0.1c2.3,0,3.9,1.8,3.6,4.1l-1.4,10.6
			c-0.3,2.3-2.3,4.5-4.6,4.5h-40.4l-11,63.3c-0.3,2.6-2.3,4.4-4.7,4.4l-12.8-0.1c-2.3,0-3.9-1.8-3.6-4.4l18.3-115.3
			c0.3-2.6,2.6-4.4,4.7-4.4h111.4c2.3,0,3.6,1.8,3.4,4.4L1443.3,219.7z"/>
		<path d="M1386.7,326.5c-0.6,1.3-1.4,2.5-2.8,2.5h-18.7c-1.3,0-1.9-1.2-1.3-2.5l41.8-81.9c0.6-1.3,1.3-2.5,2.8-2.5h27.1
			c1.3,0,2.3,1.2,2.5,2.5l18.4,81.9c0.2,1.3-0.9,2.5-2.3,2.5h-18.1c-1.5,0-1.9-1.2-2-2.5l-3.1-17.6h-36.4L1386.7,326.5z M1419,265
			l-16,25.7h24.3L1419,265z"/>
		<path d="M1539.6,242.5c1.5,0,2.5,1.2,2.2,2.6l-1.7,12.6c-0.1,1.5-1.5,2.6-2.9,2.6h-29.6l-11.1,66c-0.3,1.7-1.6,2.6-3,2.6h-16.1
			c-1.4,0-2.5-1-2.2-2.6l11-66h-28.8c-1.5,0-2.5-1.2-2.3-2.6l1.7-12.6c0.3-1.5,1.6-2.6,3-2.6H1539.6z"/>
		<path d="M1320.9,369l24.6-26.6c1.4-1.5,2.7-2.1,4.4-2.1h19.4c1.8,0,2.1,1.6,0.6,3.2l-31.4,31.3l22.1,42c0.8,1.6,0.9,3.7-1.4,3.7
			h-17.6c-1.8,0-2.7-0.6-3.5-2.1l-15.1-28.5l-5.9,5.9l-3.2,22.7c-0.2,1.2-1.2,2-2.2,2h-16.8c-1.1,0-1.8-0.8-1.7-2l10.7-76.2
			c0.1-1.2,1.1-2,2.1-2h17c1.1,0,1.8,0.8,1.7,2L1320.9,369z"/>
		<path d="M1378.6,495.6c-0.2,1.2-1.2,2-2.2,2h-16.8c-1.1,0-1.8-0.8-1.6-2l20.9-153.4c0.1-1.2,1.1-2,2.1-2h17c1.1,0,1.8,0.8,1.6,2
			L1378.6,495.6z"/>
		<path d="M1453.9,402.1c0.9,0,1.8,0.8,1.5,1.9l-2,14.5c-0.1,1.2-1.1,2-2.1,2h-46.9c-1.1,0-1.9-0.9-1.7-2l10.7-76.2
			c0.1-1.2,1.1-2,2.1-2h17c1.1,0,1.8,0.8,1.6,2l-8.5,59.8H1453.9z"/>
		<path d="M1513.5,402.1c0.9,0,1.8,0.8,1.5,1.9l-2,14.5c-0.1,1.2-1.1,2-2.1,2h-46.9c-1.1,0-1.9-0.9-1.7-2l10.7-76.2
			c0.1-1.2,1.1-2,2.1-2h17c1.1,0,1.8,0.8,1.6,2l-8.5,59.8H1513.5z"/>
		<path d="M1586.5,356.7c-0.1,1.1-1.2,1.9-2.1,1.9h-33.3l-1.7,12.3h26.3c0.9,0,1.6,0.8,1.5,1.9l-2.2,14.5c-0.1,1.1-1.1,2-2.1,2h-26
			l-1.9,12.8h37.3c0.9,0,1.8,0.8,1.5,1.9l-2,14.5c-0.1,1.2-1.1,2-2.1,2h-56.1c-1.1,0-1.8-0.9-1.6-2l10.7-76.2c0.1-1.1,1.2-2,2.2-2
			h52.2c1.1,0,1.7,0.8,1.5,2L1586.5,356.7z"/>
		<path d="M1654.4,382.6c-2.7,3.9-6.4,6.6-10.6,8.6l44.6,103.4c0.6,1.3,0.4,2.7-1.2,2.7h-18.1c-0.9,0-2.4-0.5-3.1-2l-42.9-101.1
			h-8.4l-3.3,24.1c-0.2,1.3-1.3,2-2.4,2h-16.7c-1.1,0-1.9-0.7-1.6-2l10.6-76.1c0.2-1.3,1.1-2.1,2.2-2.1h24.3
			c9.8,0,17.1,2.4,22.1,6.1c6.4,4.6,9.2,11.5,9.2,19C1659.2,372.5,1657.5,378.3,1654.4,382.6z M1636.2,360c-2-1.7-4.7-2.2-7.5-2.2
			h-8.6l-2.7,19.1h10.1c3.5,0,6.6-0.8,8.7-2.8c1.8-1.5,2.8-3.9,2.8-7.1C1639,363.6,1637.9,361.4,1636.2,360z"/>
		<path d="M1394,468.3c0-19,14.9-34.8,37.1-34.8c6.8,0,15.9,2.4,20,4.6c1,0.6,0.9,1.4,0.5,2.1l-6.7,14.2c-0.6,0.8-1.1,1-2.1,0.7
			c-3-1.1-6.2-4.3-14.3-3.4c-8,0.8-15,8.1-14.9,16c0.1,5.4,3.8,10.9,11.1,12.2c6.3,1.1,11.9-1.1,14.5-3.7c0.8-0.7,1.5-0.4,1.9,0.6
			l6.1,15c0.3,0.9,0,1.6-0.9,2.1c-5.4,2.4-14.3,5-21.1,5C1408.4,498.7,1394,489.6,1394,468.3z"/>
		<path d="M1505.8,479.9c0.7,0,1.4,0.7,1.2,1.5l-2,14.7c-0.1,0.9-0.8,1.6-1.7,1.6h-46.5c-0.8,0-1.5-0.7-1.3-1.6l8.5-60.2
			c0.1-0.9,0.8-1.6,1.7-1.6h17.8c0.8,0,1.4,0.7,1.3,1.6l-6.3,44H1505.8z"/>
		<path d="M1556.9,436c0.2-0.9,0.9-1.7,1.8-1.7h16.7c0.9,0,1.5,0.7,1.4,1.7l-5.2,36.7c-0.9,6.5-3.4,12.1-7.1,16.5
			c-5.2,6-16.5,9.5-27,9.5c-7.7,0-13.7-2-17.7-5.8c-4.1-3.7-6.3-9.1-6.3-15.7c0-1.8,0.3-4.3,0.6-6.4l4.9-34.7
			c0.1-0.9,0.9-1.7,1.8-1.7h16.4c0.8,0,1.5,0.7,1.4,1.7l-4.7,33c-0.3,1.8-0.6,3.7-0.6,5.5c0,3.1,0.7,4.4,1.5,5.3
			c1.2,1.4,3.8,2.4,5.7,2.6c2.8,0.2,6.6-0.5,8.2-2.6c1.6-2.2,2.7-5.1,3.2-8.8L1556.9,436z"/>
		<path d="M1630.1,492.2c-4,3.6-13.6,5.5-20.5,5.5h-29.2c-0.8,0-1.4-0.7-1.3-1.6l8.5-60.2c0.1-0.8,0.8-1.6,1.7-1.6h20.7
			c5.9,0,14.3,1.4,17.8,4.2c3,2.5,4.7,6.2,4.7,11.2c0,3.2-0.6,5.8-1.9,8c-1.3,2.4-3.3,4.3-5.7,5.9v0.2c3.8,1.4,6.6,3.4,8.4,6
			c1.8,2.6,2.5,5.8,2.5,9.2C1635.8,484.7,1633.7,489.1,1630.1,492.2z M1614.3,473.3c-1.8-1.5-4.6-1.8-7.2-1.8h-5.3l-1.9,12.9h6.6
			c3.3,0,6-0.6,7.5-1.9c1.3-1.1,2-2.7,2-4.7C1616.1,475.7,1615.4,474.2,1614.3,473.3z M1613,448.5c-0.8-0.8-2-1.2-3.4-1.2l-4.2-0.1
			l-1.6,11.2l3.4,0.1c2.4,0,4.4-0.7,5.6-2.1c1-1.1,1.6-2.7,1.6-4.6C1614.3,450.4,1613.8,449.3,1613,448.5z"/>
	</g>
	<g>
		<path class="st30" d="M1449,215.7c-0.3,2.3-2.6,4.1-4.6,4.1h-94.2l-2.9,18.4l40.4-0.1c2.3,0,3.9,1.8,3.6,4.1l-1.4,10.6
			c-0.3,2.3-2.3,4.5-4.6,4.5h-40.4l-11,63.3c-0.3,2.6-2.3,4.4-4.7,4.4l-12.8-0.1c-2.3,0-3.9-1.8-3.6-4.4l18.3-115.3
			c0.3-2.6,2.6-4.4,4.6-4.4H1447c2.3,0,3.6,1.8,3.4,4.4L1449,215.7z"/>
		<path class="st30" d="M1392.4,322.6c-0.6,1.3-1.5,2.5-2.8,2.5H1371c-1.3,0-1.9-1.2-1.3-2.5l41.8-81.9c0.6-1.3,1.3-2.5,2.8-2.5
			h27.1c1.3,0,2.3,1.2,2.5,2.5l18.4,81.9c0.2,1.3-0.9,2.5-2.3,2.5h-18.1c-1.5,0-1.9-1.2-2-2.5l-3.1-17.6h-36.4L1392.4,322.6z
			 M1424.7,261.1l-16,25.7h24.3L1424.7,261.1z"/>
		<path class="st30" d="M1545.3,238.6c1.4,0,2.5,1.2,2.2,2.6l-1.7,12.6c-0.1,1.5-1.4,2.6-2.9,2.6h-29.6l-11.1,66
			c-0.3,1.7-1.6,2.6-3,2.6H1483c-1.4,0-2.5-1-2.2-2.6l11-66h-28.8c-1.5,0-2.5-1.2-2.3-2.6l1.7-12.6c0.3-1.5,1.6-2.6,3-2.6H1545.3z"
			/>
		<path class="st30" d="M1326.6,365l24.6-26.6c1.4-1.5,2.7-2.1,4.4-2.1h19.4c1.8,0,2.1,1.6,0.6,3.2l-31.4,31.3l22.1,42
			c0.8,1.6,0.9,3.7-1.4,3.7h-17.6c-1.8,0-2.7-0.6-3.5-2.1l-15.1-28.5l-5.9,5.9l-3.2,22.7c-0.2,1.2-1.2,2-2.2,2h-16.8
			c-1.1,0-1.8-0.8-1.7-2l10.7-76.2c0.1-1.2,1.1-2,2.1-2h17c1.1,0,1.8,0.8,1.7,2L1326.6,365z"/>
		<path class="st30" d="M1384.3,491.7c-0.2,1.2-1.2,2-2.2,2h-16.8c-1.1,0-1.8-0.8-1.6-2l20.9-153.4c0.1-1.2,1.1-2,2.1-2h17
			c1.1,0,1.8,0.8,1.6,2L1384.3,491.7z"/>
		<path class="st30" d="M1459.6,398.1c0.9,0,1.8,0.8,1.5,1.9l-2,14.5c-0.1,1.2-1.1,2-2.1,2h-46.9c-1.1,0-1.9-0.9-1.7-2l10.7-76.2
			c0.1-1.2,1.1-2,2.1-2h17c1.1,0,1.8,0.8,1.6,2l-8.5,59.8H1459.6z"/>
		<path class="st30" d="M1519.2,398.1c0.9,0,1.8,0.8,1.5,1.9l-2,14.5c-0.1,1.2-1.1,2-2.1,2h-46.9c-1.1,0-1.9-0.9-1.7-2l10.7-76.2
			c0.1-1.2,1.1-2,2.1-2h17c1.1,0,1.8,0.8,1.6,2l-8.5,59.8H1519.2z"/>
		<path class="st30" d="M1592.2,352.8c-0.1,1.1-1.2,1.9-2.1,1.9h-33.3l-1.7,12.3h26.3c0.9,0,1.6,0.8,1.5,1.9l-2.2,14.5
			c-0.1,1.1-1.1,2-2.1,2h-26l-1.9,12.8h37.3c0.9,0,1.8,0.8,1.5,1.9l-2,14.5c-0.1,1.2-1.1,2-2.1,2h-56.1c-1.1,0-1.8-0.9-1.6-2
			l10.7-76.2c0.1-1.1,1.2-2,2.2-2h52.2c1.1,0,1.7,0.8,1.5,2L1592.2,352.8z"/>
		<path class="st30" d="M1660.1,378.7c-2.7,3.9-6.4,6.6-10.6,8.6l44.6,103.4c0.6,1.3,0.4,2.7-1.2,2.7h-18.1c-0.9,0-2.4-0.5-3.1-2
			l-42.9-101.1h-8.4l-3.3,24.1c-0.2,1.3-1.3,2-2.4,2h-16.7c-1.1,0-1.9-0.7-1.6-2l10.6-76.1c0.2-1.3,1.1-2.1,2.2-2.1h24.3
			c9.8,0,17.1,2.4,22.1,6.1c6.4,4.6,9.2,11.5,9.2,19C1664.9,368.6,1663.2,374.3,1660.1,378.7z M1641.9,356.1c-2-1.7-4.7-2.2-7.5-2.2
			h-8.6l-2.7,19.1h10.1c3.5,0,6.6-0.8,8.7-2.8c1.8-1.5,2.8-3.9,2.8-7.1C1644.7,359.6,1643.6,357.5,1641.9,356.1z"/>
		<path class="st30" d="M1399.7,464.4c0-19,14.9-34.8,37.1-34.8c6.8,0,15.9,2.4,20,4.6c1,0.6,0.9,1.4,0.5,2.1l-6.7,14.2
			c-0.6,0.8-1.1,1-2.1,0.6c-3-1.1-6.2-4.3-14.3-3.4c-8,0.8-15,8.1-14.9,16c0.1,5.4,3.8,10.9,11.1,12.2c6.3,1.1,11.9-1.1,14.5-3.7
			c0.8-0.7,1.5-0.4,1.9,0.6l6.2,15c0.3,0.9,0,1.6-0.9,2.1c-5.4,2.4-14.3,5-21.1,5C1414.1,494.7,1399.7,485.6,1399.7,464.4z"/>
		<path class="st30" d="M1511.5,476c0.7,0,1.4,0.7,1.2,1.5l-2,14.7c-0.1,0.9-0.8,1.6-1.7,1.6h-46.5c-0.8,0-1.5-0.7-1.3-1.6l8.5-60.2
			c0.1-0.9,0.8-1.6,1.7-1.6h17.8c0.8,0,1.4,0.7,1.3,1.6l-6.3,44H1511.5z"/>
		<path class="st30" d="M1562.6,432.1c0.2-0.9,0.9-1.7,1.8-1.7h16.7c0.9,0,1.5,0.7,1.4,1.7l-5.2,36.7c-0.9,6.5-3.4,12.1-7.1,16.5
			c-5.2,6-16.5,9.5-27,9.5c-7.7,0-13.7-2-17.7-5.8c-4.1-3.7-6.3-9.1-6.3-15.7c0-1.8,0.3-4.3,0.6-6.4l4.9-34.7
			c0.1-0.9,0.9-1.7,1.8-1.7h16.4c0.8,0,1.5,0.7,1.4,1.7l-4.7,33c-0.3,1.8-0.6,3.7-0.6,5.5c0,3.1,0.7,4.4,1.5,5.3
			c1.2,1.4,3.8,2.4,5.7,2.6c2.8,0.2,6.6-0.5,8.2-2.6c1.6-2.2,2.7-5.1,3.2-8.8L1562.6,432.1z"/>
		<path class="st30" d="M1635.8,488.3c-4,3.6-13.6,5.5-20.5,5.5h-29.2c-0.8,0-1.4-0.7-1.3-1.6l8.5-60.2c0.1-0.8,0.8-1.6,1.7-1.6
			h20.7c5.9,0,14.3,1.4,17.8,4.2c3,2.5,4.7,6.2,4.7,11.2c0,3.2-0.7,5.8-1.9,8c-1.3,2.4-3.3,4.3-5.7,5.9v0.2c3.8,1.4,6.6,3.4,8.4,6
			c1.8,2.6,2.5,5.8,2.5,9.2C1641.5,480.8,1639.4,485.2,1635.8,488.3z M1620,469.3c-1.8-1.5-4.6-1.8-7.2-1.8h-5.3l-1.9,12.9h6.6
			c3.3,0,6-0.6,7.5-1.9c1.3-1.1,2-2.7,2-4.7C1621.8,471.8,1621.1,470.3,1620,469.3z M1618.7,444.6c-0.8-0.8-2-1.2-3.4-1.2l-4.2-0.1
			l-1.6,11.2l3.4,0.1c2.4,0,4.4-0.7,5.6-2.1c1-1.1,1.6-2.7,1.6-4.6C1620,446.4,1619.5,445.3,1618.7,444.6z"/>
	</g>
</g>
<g>
	<g>
		<polygon class="st33" points="1413.5,146.2 1169.8,5.9 1169.9,59.5 997.2,59.7 643.9,60.2 0,61.5 0.2,240.9 753,239 944.6,221.6 
			1004.4,239 1170.1,238.8 1170.2,287.1 		"/>
		<polygon class="st31" points="1413.1,140.3 1169.5,0 1169.6,53.6 996.9,53.8 643.6,54.2 -0.3,55.5 -0.1,235 752.7,233.1 
			944.3,215.7 1004,233 1169.8,232.8 1169.9,281.2 		"/>
		<g>
			<g>
				<polygon class="st28" points="1197.2,81 1203.3,80.9 1203.3,74.8 1199.5,74.8 1199.5,73.6 1197,73.7 1197.1,74.9 1195.9,74.9 
					1195.9,77.3 1197.1,77.3 				"/>
				<path class="st28" d="M1142.5,74.9l4.5-0.1l0.2,7.4l-4.5,0.1L1142.5,74.9z M1151.6,74.7l4.5-0.1l0.2,7.4l-4.5,0.1L1151.6,74.7z
					 M1160.7,74.5l4.5-0.1l0.2,7.4l-4.5,0.1L1160.7,74.5z M1169.8,74.3l4.5-0.1l0.2,7.4l-4.5,0.1L1169.8,74.3z M1178.9,74.1l4.5-0.1
					l0.2,7.4l-4.5,0.1L1178.9,74.1z M1188,73.9l4.5-0.1l0.2,7.4l-4.5,0.1L1188,73.9z"/>
				<polygon class="st28" points="1135.7,82.4 1138.1,82.4 1138.1,81.2 1139.3,81.1 1139.3,78.7 1138,78.7 1138,75 1131.9,75.1 
					1131.9,81.2 1135.6,81.2 				"/>
				<path class="st28" d="M1133.1,192.2l7.4-0.1l0,4.8l-7.4,0.1L1133.1,192.2z M1133,182.6l7.4-0.1l0,4.8l-7.4,0.1L1133,182.6z
					 M1132.9,172.9l7.4-0.1l0,4.8l-7.4,0.1L1132.9,172.9z M1132.8,163.3l7.4-0.1l0.1,4.8l-7.4,0.1L1132.8,163.3z M1132.7,153.6
					l7.4-0.1l0.1,4.8l-7.4,0.1L1132.7,153.6z M1132.6,144l7.4-0.1l0,4.8l-7.4,0.1L1132.6,144z M1132.5,134.3l7.4-0.1l0.1,4.8
					l-7.4,0.1L1132.5,134.3z M1132.4,124.7l7.4-0.1l0.1,4.8l-7.4,0.1L1132.4,124.7z M1132.3,115l7.4-0.1l0.1,4.8l-7.4,0.1
					L1132.3,115z M1132.2,105.4l7.4-0.1l0,4.8l-7.4,0.1L1132.2,105.4z M1132.1,95.7l7.4-0.1l0.1,4.8l-7.4,0.1L1132.1,95.7z M1132,86
					l7.4-0.1l0,4.8l-7.4,0.1L1132,86z"/>
				<polygon class="st28" points="1133.2,208.1 1139.4,207.9 1139.4,204.3 1140.6,204.2 1140.6,201.8 1139.3,201.8 1139.3,200.5 
					1136.8,200.6 1136.8,201.8 1133.2,201.9 				"/>
				<path class="st28" d="M1143.8,200.4l4.5-0.1l0.2,7.4l-4.5,0.1L1143.8,200.4z M1152.9,200.2l4.5-0.1l0.2,7.4l-4.5,0.1
					L1152.9,200.2z M1162,200l4.5-0.1l0.2,7.4l-4.5,0.1L1162,200z M1171.1,199.8l4.5-0.1l0.2,7.4l-4.5,0.1L1171.1,199.8z
					 M1180.2,199.6l4.5-0.1l0.2,7.4l-4.5,0.1L1180.2,199.6z M1189.3,199.4l4.5-0.1l0.2,7.4l-4.5,0.1L1189.3,199.4z"/>
				<polygon class="st28" points="1198.5,206.6 1201,206.6 1201,205.3 1204.6,205.3 1204.6,199.1 1198.4,199.2 1198.4,202.9 
					1197.2,202.9 1197.2,205.4 1198.5,205.4 				"/>
				<path class="st28" d="M1197.5,228.1l7.4-0.1l0,4.5l-7.4,0.1L1197.5,228.1z M1197.4,219l7.4-0.1l0,4.5l-7.4,0.1L1197.4,219z
					 M1197.3,209.9l7.4-0.1l0,4.5l-7.4,0.1L1197.3,209.9z"/>
				<polygon class="st28" points="1197.7,246 1205.3,241.5 1204.1,239.6 1205,239.5 1205,237.1 1202.7,237.1 1201.5,235.2 
					1199.4,236.4 1199.8,237.1 1197.6,237.2 				"/>
				<path class="st28" d="M1205.9,232.6l4.3-2.6l3.8,6.4l-4.3,2.6L1205.9,232.6z M1214.6,227.4l4.3-2.6l3.8,6.4l-4.3,2.6
					L1214.6,227.4z M1223.3,222.3l4.3-2.6l3.8,6.4l-4.3,2.6L1223.3,222.3z M1231.9,217.2l4.3-2.6l3.8,6.4l-4.3,2.6L1231.9,217.2z
					 M1240.6,212l4.3-2.6l3.8,6.4l-4.3,2.6L1240.6,212z M1249.3,206.9l4.3-2.6l3.8,6.4l-4.3,2.6L1249.3,206.9z M1258,201.7l4.3-2.6
					l3.8,6.4l-4.3,2.6L1258,201.7z M1266.7,196.6l4.3-2.6l3.8,6.4l-4.3,2.6L1266.7,196.6z M1275.4,191.5l4.3-2.6l3.8,6.4l-4.3,2.6
					L1275.4,191.5z M1284.1,186.3l4.3-2.6l3.8,6.4l-4.3,2.6L1284.1,186.3z M1292.8,181.2l4.3-2.6l3.8,6.4l-4.3,2.6L1292.8,181.2z
					 M1301.4,176.1l4.3-2.6l3.8,6.4l-4.3,2.6L1301.4,176.1z M1310.1,170.9l4.3-2.6l3.8,6.4l-4.3,2.6L1310.1,170.9z M1318.8,165.8
					l4.3-2.6l3.8,6.4l-4.3,2.6L1318.8,165.8z M1327.5,160.6l4.3-2.6l3.8,6.4l-4.3,2.6L1327.5,160.6z M1336.2,155.5l4.3-2.6l3.8,6.4
					l-4.3,2.6L1336.2,155.5z M1344.9,150.4l4.3-2.6l3.8,6.4l-4.3,2.6L1344.9,150.4z M1353.6,145.2l4.3-2.6l3.8,6.4l-4.3,2.6
					L1353.6,145.2z"/>
				<polygon class="st28" points="1366,146.4 1373.6,141.9 1365.9,137.6 1364.8,139.6 1364.4,138.8 1362.3,140.1 1363.4,142 
					1362.3,144 1364.4,145.2 1364.9,144.5 				"/>
				<path class="st28" d="M1353.5,139.1l3.6-6.4l4.4,2.5l-3.6,6.4L1353.5,139.1z M1344.7,134.1l3.6-6.4l4.4,2.5l-3.6,6.4
					L1344.7,134.1z M1335.9,129.1l3.6-6.4l4.4,2.5l-3.6,6.4L1335.9,129.1z M1327.1,124.2l3.6-6.4l4.4,2.5l-3.6,6.4L1327.1,124.2z
					 M1318.3,119.2l3.6-6.4l4.4,2.5l-3.6,6.4L1318.3,119.2z M1309.5,114.3l3.6-6.4l4.4,2.5l-3.6,6.4L1309.5,114.3z M1300.7,109.3
					l3.6-6.4l4.4,2.5l-3.6,6.4L1300.7,109.3z M1292,104.4l3.6-6.4l4.4,2.5l-3.6,6.4L1292,104.4z M1283.2,99.4l3.6-6.4l4.4,2.5
					l-3.6,6.4L1283.2,99.4z M1274.4,94.5l3.6-6.4l4.4,2.5l-3.6,6.4L1274.4,94.5z M1265.6,89.5l3.6-6.4l4.4,2.5L1270,92L1265.6,89.5z
					 M1256.8,84.5l3.6-6.4l4.4,2.5l-3.6,6.4L1256.8,84.5z M1248,79.6l3.6-6.4l4.4,2.5l-3.6,6.4L1248,79.6z M1239.2,74.6l3.6-6.4
					l4.4,2.5l-3.6,6.4L1239.2,74.6z M1230.4,69.7l3.6-6.4l4.4,2.5l-3.6,6.4L1230.4,69.7z M1221.6,64.7l3.6-6.4l4.4,2.5l-3.6,6.4
					L1221.6,64.7z M1212.8,59.8l3.6-6.4l4.4,2.5l-3.6,6.4L1212.8,59.8z M1204,54.8l3.6-6.4l4.4,2.5l-3.6,6.4L1204,54.8z"/>
				<polygon class="st28" points="1199.6,52.3 1200.7,50.4 1203,50.3 1203,47.9 1202.1,47.9 1203.2,45.9 1195.5,41.5 1195.6,50.4 
					1197.9,50.4 1197.5,51.1 				"/>
				<path class="st28" d="M1195.8,65.1l7.4-0.1l0.1,4.9l-7.4,0.1L1195.8,65.1z M1195.7,55.3l7.4-0.1l0.1,4.9l-7.4,0.1L1195.7,55.3z"
					/>
			</g>
			<g>
				<polygon class="st28" points="1217.1,103 1223.2,102.9 1223.2,96.8 1219.5,96.8 1219.4,95.6 1217,95.6 1217,96.8 1215.8,96.8 
					1215.8,99.3 1217.1,99.3 				"/>
				<path class="st28" d="M1162.4,96.8l4.5-0.1l0.2,7.4l-4.5,0.1L1162.4,96.8z M1171.5,96.6l4.5-0.1l0.2,7.4l-4.5,0.1L1171.5,96.6z
					 M1180.6,96.4l4.5-0.1l0.2,7.4l-4.5,0.1L1180.6,96.4z M1189.7,96.2l4.5-0.1l0.2,7.4l-4.5,0.1L1189.7,96.2z M1198.8,96l4.5-0.1
					l0.2,7.4l-4.5,0.1L1198.8,96z M1207.9,95.8l4.5-0.1l0.2,7.4l-4.5,0.1L1207.9,95.8z"/>
				<polygon class="st28" points="1155.6,104.4 1158.1,104.3 1158,103.1 1159.2,103.1 1159.2,100.6 1158,100.6 1157.9,96.9 
					1151.8,97.1 1151.8,103.2 1155.6,103.1 				"/>
				<path class="st28" d="M1152.6,172.7l7.4-0.1l0,4.6l-7.4,0.1L1152.6,172.7z M1152.5,163.4l7.4-0.1l0,4.6l-7.4,0.1L1152.5,163.4z
					 M1152.4,154.2l7.4-0.1l0,4.6l-7.4,0.1L1152.4,154.2z M1152.3,144.9l7.4-0.1l0,4.6l-7.4,0.1L1152.3,144.9z M1152.2,135.6
					l7.4-0.1l0,4.6l-7.4,0.1L1152.2,135.6z M1152.1,126.3l7.4-0.1l0,4.6l-7.4,0.1L1152.1,126.3z M1152,117.1l7.4-0.1l0,4.6l-7.4,0.1
					L1152,117.1z M1151.9,107.8l7.4-0.1l0,4.6l-7.4,0.1L1151.9,107.8z"/>
				<polygon class="st28" points="1152.7,188.2 1158.9,188 1158.8,184.4 1160.1,184.3 1160.1,181.9 1158.8,181.9 1158.8,180.6 
					1156.3,180.7 1156.3,181.9 1152.7,182 				"/>
				<path class="st28" d="M1163.3,180.5l4.5-0.1l0.2,7.4l-4.5,0.1L1163.3,180.5z M1172.4,180.3l4.5-0.1l0.2,7.4l-4.5,0.1
					L1172.4,180.3z M1181.5,180.1l4.5-0.1l0.2,7.4l-4.5,0.1L1181.5,180.1z M1190.6,179.9l4.5-0.1l0.2,7.4l-4.5,0.1L1190.6,179.9z
					 M1199.7,179.7l4.5-0.1l0.2,7.4l-4.5,0.1L1199.7,179.7z M1208.8,179.5l4.5-0.1l0.2,7.4l-4.5,0.1L1208.8,179.5z"/>
				<polygon class="st28" points="1218,186.7 1220.5,186.7 1220.5,185.4 1224.1,185.4 1224.1,179.2 1217.9,179.3 1217.9,183 
					1216.7,183 1216.7,185.5 1218,185.5 				"/>
				
					<rect x="1216.8" y="190.8" transform="matrix(0.9999 -1.043980e-02 1.043980e-02 0.9999 -1.9529 12.7524)" class="st28" width="7.4" height="5.3"/>
				<polygon class="st28" points="1217,210.3 1224.6,205.8 1223.5,203.9 1224.3,203.9 1224.3,201.4 1222,201.4 1220.9,199.5 
					1218.7,200.7 1219.2,201.4 1216.9,201.5 				"/>
				<path class="st28" d="M1225.2,196.9l4.3-2.6l3.8,6.4l-4.3,2.6L1225.2,196.9z M1233.9,191.8l4.3-2.6l3.8,6.4l-4.3,2.6
					L1233.9,191.8z M1242.5,186.6l4.3-2.6l3.8,6.4l-4.3,2.6L1242.5,186.6z M1251.2,181.5l4.3-2.6l3.8,6.4l-4.3,2.6L1251.2,181.5z
					 M1259.9,176.4l4.3-2.6l3.8,6.4l-4.3,2.6L1259.9,176.4z M1268.5,171.3l4.3-2.6l3.8,6.4l-4.3,2.6L1268.5,171.3z M1277.2,166.1
					l4.3-2.6l3.8,6.4l-4.3,2.6L1277.2,166.1z M1285.8,161l4.3-2.6l3.8,6.4l-4.3,2.6L1285.8,161z M1294.5,155.9l4.3-2.6l3.8,6.4
					l-4.3,2.6L1294.5,155.9z M1303.2,150.8l4.3-2.6l3.8,6.4l-4.3,2.6L1303.2,150.8z M1311.8,145.6l4.3-2.6l3.8,6.4l-4.3,2.6
					L1311.8,145.6z"/>
				<polygon class="st28" points="1324.3,146.9 1331.9,142.4 1324.2,138 1323.1,140 1322.6,139.3 1320.5,140.5 1321.7,142.5 
					1320.6,144.4 1322.7,145.7 1323.1,144.9 				"/>
				<path class="st28" d="M1311.8,139.5l3.6-6.4l4.4,2.5l-3.6,6.4L1311.8,139.5z M1303,134.6l3.6-6.4l4.4,2.5l-3.6,6.4L1303,134.6z
					 M1294.2,129.6l3.6-6.4l4.4,2.5l-3.6,6.4L1294.2,129.6z M1285.5,124.7l3.6-6.4l4.4,2.5l-3.6,6.4L1285.5,124.7z M1276.7,119.7
					l3.6-6.4l4.4,2.5l-3.6,6.4L1276.7,119.7z M1267.9,114.8l3.6-6.4l4.4,2.5l-3.6,6.4L1267.9,114.8z M1259.2,109.8l3.6-6.4l4.4,2.5
					l-3.6,6.4L1259.2,109.8z M1250.4,104.9l3.6-6.4l4.4,2.5l-3.6,6.4L1250.4,104.9z M1241.6,100l3.6-6.4l4.4,2.5l-3.6,6.4
					L1241.6,100z M1232.8,95l3.6-6.4l4.4,2.5l-3.6,6.4L1232.8,95z M1224.1,90.1l3.6-6.4l4.4,2.5l-3.6,6.4L1224.1,90.1z"/>
				<polygon class="st28" points="1219.7,87.6 1220.8,85.6 1223.1,85.6 1223.1,83.1 1222.2,83.1 1223.3,81.2 1215.6,76.8 
					1215.7,85.7 1218,85.7 1217.5,86.4 				"/>
				
					<rect x="1215.7" y="89.4" transform="matrix(0.9999 -1.018131e-02 1.018131e-02 0.9999 -0.8655 12.4202)" class="st28" width="7.4" height="3.7"/>
			</g>
			<g>
				<polygon class="st28" points="1178,123.5 1180.4,123.5 1180.4,122.3 1181.6,122.3 1181.6,119.8 1180.3,119.8 1180.3,116.1 
					1174.1,116.2 1174.2,122.4 1177.9,122.3 				"/>
				<path class="st28" d="M1174.5,153.2l7.4-0.1l0,4.4l-7.4,0.1L1174.5,153.2z M1174.4,144.4l7.4-0.1l0,4.4l-7.4,0.1L1174.4,144.4z
					 M1174.3,135.6l7.4-0.1l0,4.4l-7.4,0.1L1174.3,135.6z M1174.3,126.8l7.4-0.1l0,4.4l-7.4,0.1L1174.3,126.8z"/>
				<polygon class="st28" points="1174.7,168.2 1180.9,168.1 1180.8,164.4 1182,164.4 1182,162 1180.8,162 1180.7,160.7 
					1178.3,160.8 1178.3,162 1174.6,162 				"/>
				<path class="st28" d="M1185.9,160.6l5.1-0.1l0.2,7.4l-5.1,0.1L1185.9,160.6z M1196.2,160.4l5.1-0.1l0.2,7.4l-5.1,0.1
					L1196.2,160.4z M1206.5,160.1l5.1-0.1l0.2,7.4l-5.1,0.1L1206.5,160.1z M1216.8,159.9l5.1-0.1l0.2,7.4l-5.1,0.1L1216.8,159.9z
					 M1227,159.7l5.1-0.1l0.2,7.4l-5.1,0.1L1227,159.7z"/>
				<polygon class="st28" points="1237.5,166.8 1240,166.8 1239.9,165.5 1243.6,165.5 1243.5,159.3 1237.3,159.4 1237.4,163.1 
					1236.2,163.1 1236.2,165.6 1237.5,165.6 				"/>
				<polygon class="st28" points="1236.3,174.6 1243.9,170.2 1242.8,168.2 1243.6,168.2 1243.6,165.7 1241.4,165.7 1240.2,163.8 
					1238.1,165 1238.5,165.8 1236.2,165.8 				"/>
				<path class="st28" d="M1244.6,161.2l4.4-2.5l3.7,6.4l-4.4,2.5L1244.6,161.2z M1253.3,156.2l4.4-2.5l3.7,6.4l-4.4,2.5
					L1253.3,156.2z M1262.1,151.1l4.4-2.5l3.7,6.4l-4.4,2.5L1262.1,151.1z M1270.9,146l4.4-2.5l3.7,6.4l-4.4,2.5L1270.9,146z"/>
				<polygon class="st28" points="1283.3,147.3 1291,142.8 1283.3,138.4 1282.2,140.4 1281.7,139.7 1279.6,140.9 1280.8,142.9 
					1279.6,144.9 1281.8,146.1 1282.2,145.3 				"/>
				<path class="st28" d="M1270.7,139.8l3.7-6.4l4.4,2.5l-3.7,6.4L1270.7,139.8z M1261.9,134.8l3.7-6.4l4.4,2.5l-3.7,6.4
					L1261.9,134.8z M1253,129.7l3.7-6.4l4.4,2.5l-3.7,6.4L1253,129.7z M1244.1,124.7l3.7-6.4l4.4,2.5l-3.7,6.4L1244.1,124.7z
					 M1185.4,116l5.1-0.1l0.2,7.4l-5.1,0.1L1185.4,116z M1195.6,115.8l5.1-0.1l0.2,7.4l-5.1,0.1L1195.6,115.8z M1205.8,115.5
					l5.1-0.1l0.2,7.4l-5.1,0.1L1205.8,115.5z M1216,115.3l5.1-0.1l0.2,7.4l-5.1,0.1L1216,115.3z M1226.2,115.1l5.1-0.1l0.2,7.4
					l-5.1,0.1L1226.2,115.1z M1236.4,114.8l5.2-0.1l1.7,1l-2.6,4.6l0,1.8l-4.1,0.1L1236.4,114.8z"/>
			</g>
			<g>
				<polygon class="st28" points="1194.2,145.9 1200.4,145.6 1200.3,143.5 1200.4,143.5 1200.3,141.9 1201.5,142 1201.5,140.1 
					1200.2,140.1 1200.1,136.3 1194.1,136.6 				"/>
				<path class="st28" d="M1205.6,138.2l5.5-0.2l0.2,7.4l-5.5,0.2L1205.6,138.2z M1216.5,137.9l5.5-0.2l0.2,7.4l-5.5,0.2
					L1216.5,137.9z M1227.4,137.6l5.5-0.2l0.2,7.4l-5.5,0.2L1227.4,137.6z"/>
				<polygon class="st28" points="1238.5,144.6 1257.6,144.1 1240.1,136.5 1239.8,137.2 1238.3,137.3 1238.4,140.4 1237.2,143.3 
					1238.5,143.9 				"/>
				<path class="st28" d="M1205.6,136.1l5.5-0.2l0.3,7.4l-5.5,0.2L1205.6,136.1z M1216.7,135.6l5.5-0.2l0.3,7.4l-5.5,0.2
					L1216.7,135.6z M1227.7,135.1l5.5-0.2l0.3,7.4l-5.5,0.2L1227.7,135.1z"/>
			</g>
		</g>
	</g>
	<g>
		<path d="M103.3,78.3c-0.2,1.6-2.3,3.3-4,3c-1.4-0.2-2.5-0.2-3.9,0.2c-0.4,0.2-0.9,0.2-1.4,0c-1.9-0.5-3.9-0.2-5.8,0H82
			c-2.8,0-5.4,0.5-8.2,0.7c-1.4,0-3,0-4.6,0.5c-0.9,0.2-1.6,0.5-1.4,1.6c0,0.4-0.2,0.5-0.2,0.9v7.4H68v24.9l0.9,0.5v0.9
			c2.3,0.2,4.7,0.5,7,0c1.4-0.4,3,0.2,4.4,0.4c1.8,0.2,9.8,0.4,11.7,0.2c1.4,0,2.6,0.5,3.2,1.9c0.7,1.6,0.4,2.5-1.1,3.7
			c-1.6,1.4-3.3,1.6-5.4,0.9c-1.6-0.5-9.6-0.5-11.4-0.2c-2.8,0.5-5.6,0.5-8.4,0.5v2.8c0.2,3.3-0.7,6.7-0.7,9.8
			c0,2.8-0.4,5.6-0.2,8.4c0,4.6,0.5,9.1-0.2,13.7c0,0.4-0.2,0.7,0,0.9c0.7,4-0.5,7.9-0.5,11.9c-0.2,4.2-0.7,8.6-0.7,12.8
			c-0.2,2.6-0.4,5.4-2.1,7.7c-0.2,0.2-0.4,0.5-0.4,0.5c1.2,1.8-0.2,3-1.2,3.5c-1.8,1.1-3.3,2.3-5.3,2.8c-1.4,0.3-2.8,0.3-3.9,1.2
			c-0.4,0.2-0.7,0.2-1.1,0.2c-1.6-0.4-3.2-1.1-4.2-2.1c-0.7-0.7-1.2-1.4-1.2-2.5c-0.5-4.4-0.2-8.8-0.4-13
			c-0.2-6.8,0.5-13.7,0.7-20.5v-7.2c0-2.3,0.2-4.6,0.2-6.8c0.2-4,0-8.1-0.4-11.9c-0.2-2.3,0-4.7,0-7c0-6.1,0.2-12.4-0.2-18.6
			c0-2.5,0-4.7-0.2-7c0-4.2,0.2-8.2,0.5-12.3c0.4-2.5,0.2-4.7,0.5-7.2c0.4-1.9,0.4-3.7,0.7-5.4c0.2-0.7,0.2-1.6,0.2-2.3
			c0-0.5-0.7-1.1-0.2-1.6c0.4-0.5,0.9-1.2,1.6-1.6c1.4-0.7,2.8-1.1,4.2-1.1c1.8-0.2,3.7-0.3,5.3,0.2c2.5,0.5,4.7,0.4,7,0.2
			c4.4-0.2,8.6-0.7,12.8-0.7c2.8,0,5.6,0,8.4,0.2c0.9,0.2,1.8,0.2,2.5,0c1.9-0.5,3.7-0.4,5.4,0.2c1.4,0.4,2.8,0.9,4.2,0.9
			C102,75.3,103.3,76.9,103.3,78.3z"/>
		<path d="M127.6,132.6c0.7,1.8,0.7,3.5,0.9,5.3c0.2,2.5,0.4,4.9,0.7,7.2c0.2,2.3,0.4,4.6,0.7,6.8c0.4,2.8,0.7,11.7,0.7,14.5
			c-0.2,2.8-0.4,5.6-0.4,8.4c0,2.6-0.2,5.3-0.2,7.9l-0.4,2.8c-0.5,2.1-0.7,4.2-0.5,6.5c0.4,3.2,0.4,6.3-0.4,9.6
			c-0.4,1.1-0.9,1.8-1.4,2.6c-0.7,1.1-2.1,1.8-2.3,3.2c0,0.2-0.2,0.4-0.4,0.4c-0.9-0.2-1.6,0-2.3,0.7c-0.9-0.5-2.1,0.5-3.2-0.5
			c-0.7-0.7-1.8-1.1-2.8-1.4c-1.8-0.5-2.5-1.8-2.8-3.7c-1.1-5.8-0.7-11.6-1.2-17.4c-0.5-3.3-0.5-6.7-1.1-9.8
			c-0.2-0.9-0.2-1.9-0.2-2.8c0-4.2-0.4-14.4-0.4-18.6c-0.2-7.4-0.4-14.5-0.9-21.9l-0.9-19.3c-0.4-8.1,0-16.1-0.2-24.2
			c0-3.3-0.2-6.7-0.2-10.2c0-0.9-0.2-1.6-0.4-2.5c-0.4-1.4-0.2-1.9,1.1-2.5c2.3-0.9,4.6-0.7,7-0.2c3,0.7,4.9,2.6,6.8,4.6
			c1.4,1.6,2.1,3.7,2.5,5.8c0.2,1.8,0.2,3.5,0,5.4c-0.4,1.8-0.2,3.5,0.2,5.3c0.4,2.5,0,5.1,0.4,7.5c0.5,3.3-0.2,6.8,0.7,10.2
			c0.2,0.5,0.2,1.2,0,1.8c-0.2,1.4-0.2,2.8,0,4.2c0.7,2.5,0.2,5.1,0.5,7.7V132.6z"/>
		<path d="M155.3,184.2c-0.2-4.9,0.2-9.8,0.5-14.7c0.2-1.9,0.2-3.7,0.2-5.6c0.4-3.7,0.2-7.5,0.5-11.2l1.1-15.6
			c0.5-7.4,0.5-14.7,0.4-22.3c-0.2-3.9,0.2-7.7,0.4-11.7c0.2-2.5,0-5.1,0.2-7.5l0.7-7.4v-4.4c0.2-1.1-0.4-1.4-1.4-1.2
			c-3.9,0.9-7.9,0.3-11.9,1.1c-0.5,0-1.1,0.2-1.6,0.4c-4.2,1.9-7.4,1.1-9.8-2.8c-0.4-0.5-0.9-1.1-1.4-1.4c-0.9-0.9-1.2-1.9-1.1-3.2
			c0.2-1.4,0.7-1.9,2.1-1.8c5.8,0.2,11.6-0.5,17.4-0.5c2.5,0,4.7-0.4,7-0.7s4.6-0.7,7-0.9c3.9-0.2,7.7-0.7,11.6-0.2
			c3.3,0.2,6.7,0.5,10,0.9c0.5,0,1.1,0.2,1.6,0c1.2-0.4,2.5-0.4,3.5-0.2c2.1,0.5,4.2,0.2,6.1,0c0.9,0,1.8-0.2,2.5,0
			c2.1,0,4,1.8,4.4,3.9c0.2,1.8-0.9,3.2-3,2.8c-1.9-0.4-3.7-0.2-5.4,0.4h-1.2c-0.4-0.2-0.9-0.2-1.2,0c-3.5,1.4-7,0.9-10.5,0.9
			c-2.5,0.2-4.7,0.7-7,0.5c-0.7-0.2-1.1,0.2-0.9,0.9v1.4c0.2,1.6,0.2,3.2,0,4.7c-0.2,1.9-0.4,3.9,0,5.8c0.5,2.3,0,4.6-0.4,6.8
			c-0.2,1.6-0.5,3.3-0.9,4.9c-0.5,1.9-0.4,3.9-0.2,6c0.4,4.2,0.9,8.4,0.2,12.6c-0.5,2.5-0.4,4.9,0,7.2c0.5,2.8,0.4,5.6,0.2,8.4
			c-0.2,4-0.9,8.1-1.2,12.1c-0.5,5.8-0.7,11.4-0.5,17.2c0,2.8,0.4,5.4,0,8.2c-0.2,3.9-0.2,7.5-0.7,11.2c-0.5,3.7-0.5,7.4-1.6,10.9
			c-0.2,0.9-0.7,1.6-1.8,1.8c-1.2,0-2.5,0.7-3.7,0.3c-0.7-0.3-1.1,1.1-1.9,0.2c-0.5-0.5-1.4-0.2-2.1-0.4c-1.9-0.2-3.7-1.4-4.9-3
			c-0.9-0.9-1.4-2.5-1.2-3.9c0.2-1.1,0.2-1.9,0.2-2.8C155.5,189.6,155.3,187,155.3,184.2z"/>
		<path d="M272.9,171.7c-0.2,0.9-0.2,1.9-0.2,2.8c0,0.7-0.2,1.4-0.2,2.1c-0.2,1.9,0,3.9,0,5.8c0,2.1,0.2,4.4-0.2,6.7
			c-0.2,1.6-0.2,3.7,0,6c0.2,1.2,0,2.6,0,3.9c-0.2,0.5-0.2,0.9-0.2,1.4c-0.2,1.1-0.9,1.9-1.6,2.6l-0.4,0.4c-1.2,1.2-2.5,2.5-4.2,2.5
			h-0.9c-3-0.7-5.1-2.3-6.3-4.9c-0.4-1.2-0.9-2.5-1.4-3.7l-3.5-8.6c-2.8-6.1-5.6-12.6-8.2-19.3l-1.4-3.7l-3.2-8.1
			c-1.9-4-3.5-8.2-4.9-12.4l-1.6-4.2l-0.7-1.8c-1.1-3-2.1-6-3-8.9c-1.2-4.6-3-8.9-4.6-13.3l-3.2-8.6v4.2l0.4,4.7
			c0.2,2.5,0.4,5.1,0.4,7.7c0.2,3.3,0.4,6.5,0.7,9.3c0.2,2.6,0.2,5.1,0,7.4c0,1.6-0.2,3.2-0.2,4.6s0,2.8-0.2,4.2
			c0.9,2.5,0.7,5.1,0.7,7.5c-0.2,1.2-0.2,2.6-0.2,3.9c0.2,1.4,0.2,2.8-0.2,4.6c-0.4,0.9-0.2,1.9,0,3c0,0.7,0.2,1.4,0.2,2.1v1.4
			c0,1.2,0,2.5-0.4,3.7c-0.2,0.9,0,1.9,0,3c0.2,0.2,0.2,0.5,0.2,0.9v3.9c0,1.8,0,3.5,0.2,5.1c0.4,2.6,0.5,5.3,0.5,7.7
			c0,1.6,0.2,3.2,0.2,4.6c0,0.7,0.2,1.4,0.4,1.9c0.5,1.8,0,3.2-0.4,4.7l-0.2,0.2c-0.4,0.9-0.7,1.1-1.1,1.1c-0.2,0-0.4-0.2-0.4-0.2
			c-0.9,0-1.6,0.2-2.5,0.4c-1.1,0.2-2.3,0.4-3.5,0.2h-0.5c-0.5,0.2-1.1,0.4-1.6,0.4c-1.4,0-2.5-0.7-3.5-1.4l-0.4-0.2
			c-1.9-1.2-3-3-3-5.1c-0.2-2.5-0.4-4.7-0.7-7c-0.2-1.6-0.4-3-0.4-4.4l-0.4-3.5c0-1.6-0.2-3.3-0.4-4.9c-0.2-1.9-0.2-3.9-0.2-5.6
			s0-3.5-0.2-5.1l-0.5-6.8c0-2.3-0.2-4.6-0.4-6.8l-0.2-1.9c-0.4-3.7-0.7-7.4-0.5-11c0.2-5.4-0.2-11-0.4-16.3l-0.2-0.9
			c-0.2-3.3-0.2-6.8-0.2-10.2v-0.7c0-0.7,0.2-1.4,0.2-2.1s0.2-1.6,0.2-2.5l-0.2-2.8l-0.5-8.4c-0.2-3-0.2-6.1-0.2-8.9v-2.8
			c0-0.7,0-1.2,0.2-1.9v-2.6c-0.2-2.5,0.2-4.6,0.7-6.7c0.2-1.1,0.7-1.9,1.4-2.6s1.8-1.6,3-1.6c0.5,0,1.1,0.2,1.6,0.4
			c1.6,0.7,3.5,1.2,5.3,1.6l0.5,0.2c1.4,0.5,2.3,1.4,3.2,2.5l0.4,0.4c0.2,0.2,0.4,0.4,0.4,0.7l1.2,1.1c2.1,2.1,3.3,4.7,4.2,7.2
			l2.8,6.7l1.8,4.6c0.4,0.9,0.7,1.8,0.4,2.8c0,0.4,0.2,0.7,0.5,1.1v0.2c2.6,4,4.4,8.4,6,12.4c0.4,1.2,0.9,2.5,1.6,3.9
			c2.3,5.3,3.7,9.6,4,14.2c0.2,2.6,1.1,5.4,2.6,8.9c0.5,0.9,0.7,1.8,1.1,2.6l0.9,2.3l2.6,6.5c1.2,2.8,2.5,6,3.9,8.9
			c1.1,2.1,1.9,4.6,2.6,6.8c0.4,0.7,0.7,1.6,0.9,2.3c1.6,4.4,3.5,9.1,6,13.8v-0.4c0.2-0.7,0.4-1.2,0.4-1.9c0-1.6,0.2-3,0.2-4.6
			c0-2.3,0.2-4.7,0.4-7v-0.9c0.2-3.3,0.5-6.7,0.4-10c0-2.3-0.2-4.7-0.5-6.8l-0.2-2.5v-0.4c-0.2-0.9-0.2-1.6-0.2-2.5
			c0-2.1,0-4.4-0.2-6.5s-0.2-4-0.2-6v-4.4c-0.7-2.3-0.9-4.9-0.7-8.1c0-0.7-0.2-1.2-0.2-1.8c-0.2-0.5-0.4-1.1-0.4-1.8v-10.5
			c0-5.8,0-11.7,0.2-17.5v-2.6c0-1.9,0.2-3.9,0-6v-2.1c0-1.6,0-3.2-0.2-4.7c-0.2-1.9,0.5-3.2,2.1-3.9c1.4-0.5,3.3,0,4.6,1.4
			s1.8,2.8,1.6,4.6c-0.2,0.7,0,1.6,0,2.3v1.2c-0.2,3.7,0,7.2,0.2,10.7c0,3.3,0.2,6.8,0,10.3c0,3.2,0.4,6.5,0.7,10.2
			c0.7,4.6,0.7,9.1,0.7,13.5c0,1.8,0.2,3.3,0.4,5.1c0,1.4,0.2,3,0.2,4.6v1.8c0.2,1.1,0.2,2.3,0.2,3.3v4.7c0,3.3,0,6.7-0.2,10
			c0,2.1,0,4,0.2,6.1C273.1,166.8,273.1,169.3,272.9,171.7z"/>
		<path d="M338.7,199.6c-1.1,0.5-2.1,1.1-3.2,1.4c-3.5,0.9-6.8,0.2-10.2,1.4c-3.7-0.4-7.4,1.1-11,1.4c-2.3,0.2-4.6,0-6.8,0.2
			c-0.5,0.2-1.2,0-1.9,0.2c-3.3,1.4-6.7,1.2-10,1.6s-6.3-0.5-8.8-3c-0.4-0.5-0.9-1.2-0.9-2.1l-0.9-15.2v-3c0.2-3,0-5.8-0.2-8.6
			c0-3.3,0-6.7-0.2-10c-0.2-3.9,0.4-7.7,0.2-11.4c-0.4-4.9-0.2-10-0.4-15.1c-0.4-6-0.2-12.1-0.2-18.2c0-3,0.2-5.8,0.4-8.8
			c0.5-5.3,0-10.3,0-15.6c0-2.3,0-4.7,0.2-7c0.2-1.1,0.4-2.3,0.7-3.2c0.4-0.7,0.7-1.2,0.2-2.1c-0.5-0.7,0-1.2,0.5-1.6
			c1.4-0.9,2.6-1.2,4-1.4c0.9-0.2,1.6-0.4,2.5-0.4c3.2,0,6.1-0.7,9.3-0.9c5.1-0.2,10-0.9,15.1-0.7c3.3,0.2,6.5,0,9.8-1.1
			c2.5-0.7,4.7,0.4,7,0.9l0.5,0.5c0.2,0.2,0.4,0.4,0.4,0.5c-0.2,0.4-0.4,0.5-0.5,0.5s-0.4-0.2-0.5-0.2s-0.4,0.2-0.5,0.4
			c0.4,0.9,1.4,0.5,1.6,1.1c0.2,0.2,0.2,0.4,0.2,0.4c-0.5,1.1-2.3,2.3-3.2,2.8c-0.9,0.4-1.8,0.7-2.6,1.2c-2.6,1.4-5.4,1.6-8.4,1.2
			c-1.1,0-2.1-0.2-3.2-0.4c-2.3-0.7-4.4,0-6.7,0.2c-1.4,0-2.5-0.2-3.9-0.3c-0.4,0-0.7-0.2-1.1-0.2c-2.5,0-2.6,0.4-2.3,3
			c0.5,2.6,0.5,5.3,0.5,8.1c0,2.1-0.4,4.4,0,6.5c0.2,0.4,0.2,0.7,0,1.1c-0.4,1.2-0.4,2.6-0.4,3.9c0,1.9,0.2,3.7-0.2,5.6
			c-0.2,1.1,0,2.3-0.2,3.3c0,0.9,0.2,1.4,1.1,1.2h2.6c3.2-0.2,6.5-0.2,9.6,0.4c0.9,0.4,1.9-0.2,2.8-0.5c0.9-0.2,1.4,0,2.1,0.7
			c0.7,0.9,1.6,1.4,1.8,3c0.2,1.8-0.9,3.9-2.3,4c-3.3,0.3-6.5,1.2-9.6,1.8c-1.1,0.2-2.1,0-3.2-0.3c-1.2-0.4-2.6-0.4-3.9-0.2
			c-0.9,0-1.2,0.4-1.2,1.4c0,1.2,0.2,2.5,0.4,3.7c0.4,5.1,0.5,10.2,0,15.4c-0.7,7.5-0.7,15.1-1.1,22.6l-1.1,21c0,1.6-0.4,3-0.4,4.4
			c0,0.9,0.4,1.2,1.1,1.2c3.7-0.2,7.5,0,11.4-0.4l11.9-1.6c3.5-0.5,7,0,10.5,1.1c0.9,0.2,1.6,1.1,2.6,1.8
			C337.3,198.4,337.3,198.4,338.7,199.6z"/>
		<path d="M352.2,98.8c0.9,2.1,1.9,4.4,2.3,6.8c0.2,1.6,0.9,2.8,1.6,4.2l7.2,13.3c2.1,3.5,3.9,7.4,6.5,10.5c2.1,2.6,3.9,5.4,5.6,8.4
			c1.9,3.3,4.4,6.5,6,10.3c1.1,2.8,2.5,5.4,3.3,8.2c1.2,3.9,2.8,7.9,2.5,12.1c0,0.7-0.2,1.6-0.4,2.3c-0.4,1.4-0.5,2.6-0.5,4
			c-0.7,7.4-2.8,14-7.9,19.6c-0.7,1.1-1.6,1.9-2.6,2.5c-2.3,0.9-4.4,1.9-6.7,2.6l-3.9,1.1c-1.2,0.5-2.3,0.7-3.5,0.5
			s-2.3-0.4-3.5-0.4c-3.2-0.2-6-1.6-8.4-3.5l-4-3.2c-2.3-1.8-4.2-4-5.6-6.7c-2.5-4.2-4.7-8.4-6.1-13c-1.1-4-1.2-8.1-1.1-12.1
			c0.4-3.5,1.1-6.7,1.6-10c0-0.5,0.2-1.2,0.4-1.8c0.5-1.6,1.2-1.9,3.2-1.6c0.2,0,0.4,0,0.5,0.2c2.6,0.5,4,2.3,3.9,5.1
			c-0.5,3.3-0.7,6.7-0.7,10c0,0.4,0,0.9-0.2,1.2c-0.9,3.2,0,6.3,0.7,9.3c0.7,3.2,2.3,6.1,4,9.1c1.9,3.3,4.6,6.1,8.1,8.2
			c1.4,0.9,3.2,1.4,4.7,1.6s2.6-0.7,3.7-1.6c0.9-0.7,1.8-1.6,2.3-2.6c1.1-2.1,2.3-3.9,3.5-5.8c0.7-1.2,1.1-2.5,1.1-3.9
			c0.4-6.1-0.5-12.1-2.3-17.9c-1.4-5.3-3.7-10.2-6.3-15.1c-2.3-4.2-4.7-8.2-7.2-12.4c-1.8-3-3.7-5.8-5.6-8.8
			c-2.3-3.7-4.2-7.7-6-11.7c-0.9-2.3-2.5-4.2-3.3-6.3c-1.4-3.5-3-6.8-3.5-10.7c-0.4-3.2-0.4-6.1,0.5-9.1c0.5-1.6,1.1-3.3,1.4-4.9
			c0.4-1.4,0.9-2.6,1.6-3.7c2.5-3.2,4.7-6.3,8.1-8.4c1.6-0.9,3-1.6,4.7-2.1c1.9-0.5,3.7-1.4,5.6-1.9c3-0.9,6-1.2,8.9-0.9
			c2.3,0.2,4.4,0.4,6.5,1.4c3.3,1.4,5.4,3.9,7.5,6.7c1.8,2.3,3,4.7,3,7.5c0.2,3.9,0.2,7.9-1.2,11.6c-0.4,1.1-0.5,1.9-1.4,2.6
			c-0.9,0.9-1.4,1.1-2.5,0.2c-1.4-1.1-2.3-2.5-2.3-4.4v-8.8c0-0.7,0-1.4,0.2-2.1c0.2-0.9,0.2-1.6-0.2-2.5c-0.7-2.5-2.3-3.9-4.9-4.2
			c-1.2-0.2-2.3-0.9-3.7-0.7c-2.3,0.5-4.6,0.7-6.8,1.1c-1.8,0-3,1.4-4.4,2.3c-1.8,1.2-3.3,2.5-4.4,4.2c-0.7,1.1-1.1,2.1-1.1,3.2
			c0.2,1.2,0,2.3,0.2,3.3C350.6,94.1,351.1,96.3,352.2,98.8z"/>
		<path d="M409.1,98.8c0.9,2.1,1.9,4.4,2.3,6.8c0.2,1.6,0.9,2.8,1.6,4.2l7.2,13.3c2.1,3.5,3.9,7.4,6.5,10.5c2.1,2.6,3.9,5.4,5.6,8.4
			c1.9,3.3,4.4,6.5,6,10.3c1.1,2.8,2.5,5.4,3.3,8.2c1.2,3.9,2.8,7.9,2.5,12.1c0,0.7-0.2,1.6-0.4,2.3c-0.4,1.4-0.5,2.6-0.5,4
			c-0.7,7.4-2.8,14-7.9,19.6c-0.7,1.1-1.6,1.9-2.6,2.5c-2.3,0.9-4.4,1.9-6.7,2.6l-3.9,1.1c-1.2,0.5-2.3,0.7-3.5,0.5
			s-2.3-0.4-3.5-0.4c-3.2-0.2-6-1.6-8.4-3.5l-4-3.2c-2.3-1.8-4.2-4-5.6-6.7c-2.5-4.2-4.7-8.4-6.1-13c-1.1-4-1.2-8.1-1.1-12.1
			c0.4-3.5,1.1-6.7,1.6-10c0-0.5,0.2-1.2,0.4-1.8c0.5-1.6,1.2-1.9,3.2-1.6c0.2,0,0.4,0,0.5,0.2c2.6,0.5,4,2.3,3.9,5.1
			c-0.5,3.3-0.7,6.7-0.7,10c0,0.4,0,0.9-0.2,1.2c-0.9,3.2,0,6.3,0.7,9.3c0.7,3.2,2.3,6.1,4,9.1c1.9,3.3,4.6,6.1,8.1,8.2
			c1.4,0.9,3.2,1.4,4.7,1.6s2.6-0.7,3.7-1.6c0.9-0.7,1.8-1.6,2.3-2.6c1.1-2.1,2.3-3.9,3.5-5.8c0.7-1.2,1.1-2.5,1.1-3.9
			c0.4-6.1-0.5-12.1-2.3-17.9c-1.4-5.3-3.7-10.2-6.3-15.1c-2.3-4.2-4.7-8.2-7.2-12.4c-1.8-3-3.7-5.8-5.6-8.8
			c-2.3-3.7-4.2-7.7-6-11.7c-0.9-2.3-2.5-4.2-3.3-6.3c-1.4-3.5-3-6.8-3.5-10.7c-0.4-3.2-0.4-6.1,0.5-9.1c0.5-1.6,1.1-3.3,1.4-4.9
			c0.4-1.4,0.9-2.6,1.6-3.7c2.5-3.2,4.7-6.3,8.1-8.4c1.6-0.9,3-1.6,4.7-2.1c1.9-0.5,3.7-1.4,5.6-1.9c3-0.9,6-1.2,8.9-0.9
			c2.3,0.2,4.4,0.4,6.5,1.4c3.3,1.4,5.4,3.9,7.5,6.7c1.8,2.3,3,4.7,3,7.5c0.2,3.9,0.2,7.9-1.2,11.6c-0.4,1.1-0.5,1.9-1.4,2.6
			c-0.9,0.9-1.4,1.1-2.5,0.2c-1.4-1.1-2.3-2.5-2.3-4.4v-8.8c0-0.7,0-1.4,0.2-2.1c0.2-0.9,0.2-1.6-0.2-2.5c-0.7-2.5-2.3-3.9-4.9-4.2
			c-1.2-0.2-2.3-0.9-3.7-0.7c-2.3,0.5-4.6,0.7-6.8,1.1c-1.8,0-3,1.4-4.4,2.3c-1.8,1.2-3.3,2.5-4.4,4.2c-0.7,1.1-1.1,2.1-1.1,3.2
			c0.2,1.2,0,2.3,0.2,3.3C407.6,94.1,408.1,96.3,409.1,98.8z"/>
		<path d="M470.9,156.3c-2.6-0.4-0.9-0.2-3.5,0c-3,0-5.8-0.5-8.8-0.4c-1.2,0.2-2.5,0.4-3.7-0.2c-1.2-0.7-2.3-1.2-2.8-2.8
			c-0.2-0.5-0.4-0.7-0.7-0.9c-0.9-1.2-0.7-2.3,0.4-3c0.5-0.4,1.1-0.5,1.6-0.4c3,0,5.8-0.2,8.6,0c2.1,0.2,4.2,0,6.5-0.3
			c0.7,0,1.6-0.2,2.3,0c3.9,0.7,3.5,0.3,7.4,0c3.3-0.2,6.7-0.4,9.8-0.4c2.1,0,4,0.4,6,0.7c1.1,0.2,2.3,0.5,2.5,2.5
			c0.4,1.9-0.4,3.7-2.1,3.9l-7.4,0.9c-2.8,0.4-5.6,0.2-8.4,0.7c-0.9,0.2-1.9-0.2-2.8,0.2L470.9,156.3z"/>
		<path d="M569.4,204.7c-0.4,0.2-1.1,0.4-1.4,1.1c-0.5,0.9-1.2,0.7-1.9,0.4c-1.9-0.7-3.3-1.9-4.9-3c-0.9-0.7-1.1-1.8-1.2-2.6
			c-0.9-3.5-1.6-7.2-2.8-10.5c-1.1-3-1.4-6-1.8-8.9c-0.9-5.6-1.9-11-3.2-16.7l-1.9-10.3l-0.7-2.6c-0.2-0.7-0.5-1.1-1.6-0.7
			c-3.3,0.9-6.8,1.2-10.5,1.4c-4.9,0.2-9.8,0.9-14.7,1.4c-1.1,0-1.2,0.5-1.4,1.2l-1.8,8.9c-0.5,2.6-0.9,5.3-1.8,7.9l-1.9,7.9
			c-1.1,4-2.3,8.1-3.7,12.1c-0.5,1.6-0.9,3.3-1.1,4.9c-0.7,3.5-3.2,5.8-6.7,7.2c-1.2,0.5-2.5,0.5-3.7,0.5c-1.8,0-3.7-0.5-5.4-0.9
			c-1.4-0.2-1.6-0.5-1.4-1.9c0.2-1.8,0.9-3.5,1.4-5.3c1.1-3.9,1.4-7.7,2.1-11.7l2.5-12.3c1.2-6,2.8-11.9,4-17.9
			c1.1-4.9,2.3-9.6,3.7-14.4c1.4-5.4,2.6-10.7,4.2-16.1c0.7-2.8,1.8-5.4,2.3-8.2c1.1-4.2,2.6-8.4,3.5-12.8c0.2-1.2,0.7-2.3,1.1-3.5
			l0.9-3.5c0.4-1.9,0.9-3.9,1.8-5.6c0.9-1.6,0.7-3.3,1.2-5.1c0.9-3.2,1.9-6.3,3.3-9.3c0.5-1.1,1.6-1.8,2.8-1.9
			c1.2-0.3,2.5-0.5,3.7-0.7c0.4-0.2,0.7,0,0.9-0.3c1.1-1.1,2.5-0.5,3.7-0.5c3.9,0.2,6,2.3,7.5,4.9c1.4,2.6,2.3,5.4,2.8,8.2
			c1.1,4,1.9,8.2,2.5,12.4c0.7,5.3,1.9,10.5,2.1,16c0.2,1.8,0.7,3.3,1.1,5.1c1.6,6.1,2.8,12.4,4,18.8c1.1,5.3,2.3,10.3,3.9,15.4
			c1.2,3.5,1.4,7.2,2.3,10.7l2.5,10.5c1.2,3.9,1.8,7.7,2.3,11.6c0,1.1,0.2,2.3,0.7,3.3c1.1,3.2,1.6,6.5,2.5,9.8
			c0.2,0.5,0.2,1.2,0.2,1.8c-0.5,1.8-0.2,3.3-0.4,5.1C569.7,205.7,570.2,204.7,569.4,204.7z M535,93c-0.4,1.6,0,3.2-0.5,4.6
			c-1.1,3.2-1.4,6.5-2.6,9.5c-0.7,1.9-1.2,3.9-1.4,5.8c-0.4,2.5-0.5,4.9-1.4,7.4c-0.7,2.5-1.4,4.9-1.9,7.4l-2.8,13.5
			c-0.7,3.5-0.7,3.3,3.3,3c3.9-0.4,7.7-0.9,11.6-0.9c1.9,0,4-0.2,6,0c1.8,0,1.9-0.2,1.6-1.8c-0.5-3.2-1.1-6.1-1.8-9.3
			c-2.8-12.6-6.1-25.1-8.2-37.7c-0.2-1.1,0-2.3-0.9-3.2C535.4,91.8,535.2,92.5,535,93z"/>
		<path d="M593,98.8c0.9,2.1,1.9,4.4,2.3,6.8c0.2,1.6,0.9,2.8,1.6,4.2l7.2,13.3c2.1,3.5,3.9,7.4,6.5,10.5c2.1,2.6,3.9,5.4,5.6,8.4
			c1.9,3.3,4.4,6.5,6,10.3c1.1,2.8,2.5,5.4,3.3,8.2c1.2,3.9,2.8,7.9,2.5,12.1c0,0.7-0.2,1.6-0.4,2.3c-0.4,1.4-0.5,2.6-0.5,4
			c-0.7,7.4-2.8,14-7.9,19.6c-0.7,1.1-1.6,1.9-2.6,2.5c-2.3,0.9-4.4,1.9-6.7,2.6l-3.9,1.1c-1.2,0.5-2.3,0.7-3.5,0.5
			s-2.3-0.4-3.5-0.4c-3.2-0.2-6-1.6-8.4-3.5l-4-3.2c-2.3-1.8-4.2-4-5.6-6.7c-2.5-4.2-4.7-8.4-6.1-13c-1.1-4-1.2-8.1-1.1-12.1
			c0.4-3.5,1.1-6.7,1.6-10c0-0.5,0.2-1.2,0.4-1.8c0.5-1.6,1.2-1.9,3.2-1.6c0.2,0,0.4,0,0.5,0.2c2.6,0.5,4,2.3,3.9,5.1
			c-0.5,3.3-0.7,6.7-0.7,10c0,0.4,0,0.9-0.2,1.2c-0.9,3.2,0,6.3,0.7,9.3c0.7,3.2,2.3,6.1,4,9.1c1.9,3.3,4.6,6.1,8.1,8.2
			c1.4,0.9,3.2,1.4,4.7,1.6s2.6-0.7,3.7-1.6c0.9-0.7,1.8-1.6,2.3-2.6c1.1-2.1,2.3-3.9,3.5-5.8c0.7-1.2,1.1-2.5,1.1-3.9
			c0.4-6.1-0.5-12.1-2.3-17.9c-1.4-5.3-3.7-10.2-6.3-15.1c-2.3-4.2-4.7-8.2-7.2-12.4c-1.8-3-3.7-5.8-5.6-8.8
			c-2.3-3.7-4.2-7.7-6-11.7c-0.9-2.3-2.5-4.2-3.3-6.3c-1.4-3.5-3-6.8-3.5-10.7c-0.4-3.2-0.4-6.1,0.5-9.1c0.5-1.6,1.1-3.3,1.4-4.9
			c0.4-1.4,0.9-2.6,1.6-3.7c2.5-3.2,4.7-6.3,8.1-8.4c1.6-0.9,3-1.6,4.7-2.1c1.9-0.5,3.7-1.4,5.6-1.9c3-0.9,6-1.2,8.9-0.9
			c2.3,0.2,4.4,0.4,6.5,1.4c3.3,1.4,5.4,3.9,7.5,6.7c1.8,2.3,3,4.7,3,7.5c0.2,3.9,0.2,7.9-1.2,11.6c-0.4,1.1-0.5,1.9-1.4,2.6
			c-0.9,0.9-1.4,1.1-2.5,0.2c-1.4-1.1-2.3-2.5-2.3-4.4v-8.8c0-0.7,0-1.4,0.2-2.1c0.2-0.9,0.2-1.6-0.2-2.5c-0.7-2.5-2.3-3.9-4.9-4.2
			c-1.2-0.2-2.3-0.9-3.7-0.7c-2.3,0.5-4.6,0.7-6.8,1.1c-1.8,0-3,1.4-4.4,2.3c-1.8,1.2-3.3,2.5-4.4,4.2c-0.7,1.1-1.1,2.1-1.1,3.2
			c0.2,1.2,0,2.3,0.2,3.3C591.5,94.1,592,96.3,593,98.8z"/>
		<path d="M654.7,156.3c-2.6-0.4-0.9-0.2-3.5,0c-3,0-5.8-0.5-8.8-0.4c-1.2,0.2-2.5,0.4-3.7-0.2c-1.2-0.7-2.3-1.2-2.8-2.8
			c-0.2-0.5-0.4-0.7-0.7-0.9c-0.9-1.2-0.7-2.3,0.4-3c0.5-0.4,1.1-0.5,1.6-0.4c3,0,5.8-0.2,8.6,0c2.1,0.2,4.2,0,6.5-0.3
			c0.7,0,1.6-0.2,2.3,0c3.9,0.7,3.5,0.3,7.4,0c3.3-0.2,6.7-0.4,9.8-0.4c2.1,0,4,0.4,6,0.7c1.1,0.2,2.3,0.5,2.5,2.5
			c0.4,1.9-0.4,3.7-2.1,3.9l-7.4,0.9c-2.8,0.4-5.6,0.2-8.4,0.7c-0.9,0.2-1.9-0.2-2.8,0.2L654.7,156.3z"/>
		<path d="M753.3,204.7c-0.4,0.2-1.1,0.4-1.4,1.1c-0.5,0.9-1.2,0.7-1.9,0.4c-1.9-0.7-3.3-1.9-4.9-3c-0.9-0.7-1.1-1.8-1.2-2.6
			c-0.9-3.5-1.6-7.2-2.8-10.5c-1.1-3-1.4-6-1.8-8.9c-0.9-5.6-1.9-11-3.2-16.7l-1.9-10.3l-0.7-2.6c-0.2-0.7-0.5-1.1-1.6-0.7
			c-3.3,0.9-6.8,1.2-10.5,1.4c-4.9,0.2-9.8,0.9-14.7,1.4c-1.1,0-1.2,0.5-1.4,1.2l-1.8,8.9c-0.5,2.6-0.9,5.3-1.8,7.9l-1.9,7.9
			c-1.1,4-2.3,8.1-3.7,12.1c-0.5,1.6-0.9,3.3-1.1,4.9c-0.7,3.5-3.2,5.8-6.7,7.2c-1.2,0.5-2.5,0.5-3.7,0.5c-1.8,0-3.7-0.5-5.4-0.9
			c-1.4-0.2-1.6-0.5-1.4-1.9c0.2-1.8,0.9-3.5,1.4-5.3c1.1-3.9,1.4-7.7,2.1-11.7l2.5-12.3c1.2-6,2.8-11.9,4-17.9
			c1.1-4.9,2.3-9.6,3.7-14.4c1.4-5.4,2.6-10.7,4.2-16.1c0.7-2.8,1.8-5.4,2.3-8.2c1.1-4.2,2.6-8.4,3.5-12.8c0.2-1.2,0.7-2.3,1.1-3.5
			l0.9-3.5c0.4-1.9,0.9-3.9,1.8-5.6c0.9-1.6,0.7-3.3,1.2-5.1c0.9-3.2,1.9-6.3,3.3-9.3c0.5-1.1,1.6-1.8,2.8-1.9
			c1.2-0.3,2.5-0.5,3.7-0.7c0.4-0.2,0.7,0,0.9-0.3c1.1-1.1,2.5-0.5,3.7-0.5c3.9,0.2,6,2.3,7.5,4.9c1.4,2.6,2.3,5.4,2.8,8.2
			c1.1,4,1.9,8.2,2.5,12.4c0.7,5.3,1.9,10.5,2.1,16c0.2,1.8,0.7,3.3,1.1,5.1c1.6,6.1,2.8,12.4,4,18.8c1.1,5.3,2.3,10.3,3.9,15.4
			c1.2,3.5,1.4,7.2,2.3,10.7l2.5,10.5c1.2,3.9,1.8,7.7,2.3,11.6c0,1.1,0.2,2.3,0.7,3.3c1.1,3.2,1.6,6.5,2.5,9.8
			c0.2,0.5,0.2,1.2,0.2,1.8c-0.5,1.8-0.2,3.3-0.4,5.1C753.6,205.7,754.1,204.7,753.3,204.7z M718.9,93c-0.4,1.6,0,3.2-0.5,4.6
			c-1.1,3.2-1.4,6.5-2.6,9.5c-0.7,1.9-1.2,3.9-1.4,5.8c-0.4,2.5-0.5,4.9-1.4,7.4c-0.7,2.5-1.4,4.9-1.9,7.4l-2.8,13.5
			c-0.7,3.5-0.7,3.3,3.3,3c3.9-0.4,7.7-0.9,11.6-0.9c1.9,0,4-0.2,6,0c1.8,0,1.9-0.2,1.6-1.8c-0.5-3.2-1.1-6.1-1.8-9.3
			c-2.8-12.6-6.1-25.1-8.2-37.7c-0.2-1.1,0-2.3-0.9-3.2C719.2,91.8,719.1,92.5,718.9,93z"/>
		<path d="M778.8,156.3c-2.6-0.4-0.9-0.2-3.5,0c-3,0-5.8-0.5-8.8-0.4c-1.2,0.2-2.5,0.4-3.7-0.2c-1.2-0.7-2.3-1.2-2.8-2.8
			c-0.2-0.5-0.4-0.7-0.7-0.9c-0.9-1.2-0.7-2.3,0.4-3c0.5-0.4,1.1-0.5,1.6-0.4c3,0,5.8-0.2,8.6,0c2.1,0.2,4.2,0,6.5-0.3
			c0.7,0,1.6-0.2,2.3,0c3.9,0.7,3.5,0.3,7.4,0c3.3-0.2,6.7-0.4,9.8-0.4c2.1,0,4,0.4,6,0.7c1.1,0.2,2.3,0.5,2.5,2.5
			c0.4,1.9-0.4,3.7-2.1,3.9l-7.4,0.9c-2.8,0.4-5.6,0.2-8.4,0.7c-0.9,0.2-1.9-0.2-2.8,0.2L778.8,156.3z"/>
		<path d="M837,129.3c3.5-0.4,6.3,0.2,9.3,0.5c2.3,0.4,4.6,0.4,6.7,1.2c0.7,0.4,1.8,0,2.6-0.2l5.6-1.1c0.7-0.2,1.2-0.3,1.1-1.2
			c-0.2-1.2,0.7-1.4,1.4-1.2c2.3,0.3,4.6,0.9,6.7,1.4l2.8,0.5c1.1,0.4,2.1,1.1,2.8,2.1c1.8,3,2.1,6.3,1.8,9.8c0,1.4-0.2,2.8,0.2,4.2
			c0.4,2.1,0,4.2-0.4,6.1l-1.8,12.3c-0.2,0.7-0.4,1.4-0.7,2.1c-0.4,1.1-0.5,2.3-0.7,3.3c-0.2,2.3-1.1,4.2-1.6,6.3
			c0,0.2-0.2,0.5-0.2,0.7c-0.4,3.5-1.9,6.8-2.5,10.3c-0.4,3.2-1.6,6.1-2.8,9.1l-0.5,0.9c-0.7,3.5-2.6,6.3-4.4,9.3
			c-0.9,1.2-1.9,2.5-3.2,3.3c-0.5,0.4-0.9,0.7-1.6,0.7c-2.3,0.4-4.6,1.1-6.8,1.4c-3.2,0.5-6.3-0.2-9.5-0.7c-1.4-0.2-3-0.5-4.6-0.5
			c-3.9-0.5-7.5-1.6-10.7-4c-7-5.3-11.6-12.1-14.5-20.2c-2.1-6.3-3.5-12.8-4.6-19.5c-0.5-3.3-1.4-6.7-1.8-10.2
			c-0.4-3.7-0.7-7.4-0.7-11l0.5-14c0.2-3.3,0.7-6.8,1.2-10.2c0.5-4.2,1.1-8.2,1.9-12.3c1.6-6.8,3.3-13.5,6.1-19.8
			c2.3-4.6,4.9-9.1,8.4-13l1.6-1.9c0.7-0.9,1.6-1.2,2.5-1.1c2.5,0.5,4.7-0.3,6.8-0.9c5.1-1.2,9.6-0.5,14.2,1.4
			c1.6,0.7,2.6,1.9,3.9,3l2.6,2.6c1.9,1.9,3,4.2,2.6,7c0,0.7,0,1.4,0.2,2.1c1.2,3.3,0.5,6.8-0.4,10.2c-0.2,0.4-0.4,0.7-0.4,1.1
			c-0.2,0.7-0.4,1.8-1.2,1.9c-1.2,0.2-2.3,0.5-3.5-0.2c-2.8-1.4-3.9-3.9-4-6.7c-0.2-1.8,0-3.5,0-5.3s-0.4-3.3-0.5-4.9
			c-0.2-0.9-0.5-1.8-1.4-2.5c-0.5-0.2-1.1-0.5-1.2-0.9c-0.7-0.9-1.8-1.1-2.8-1.1c-2.3,0.2-4.4,1.6-4.7,3.9c-0.4,1.2-0.9,2.3-1.8,3.2
			c-1.4,1.8-2.3,3.7-2.6,6c-0.5,3.5-2.1,6.8-2.8,10.3l-2.1,10.7c-0.7,2.6-0.9,5.4-1.4,8.2c-0.4,2.6-0.2,5.4-0.4,8.2
			c-0.2,3-0.5,5.8-0.4,8.8c0,3.5-0.4,7.2,0,10.7c0.5,6.1,1.2,12.3,2.6,18.4c1.1,4,2.5,7.9,3.7,11.9c0.5,1.6,0.7,3.3,1.1,5.1
			c0.5,2.1,1.8,3.9,2.6,5.6c1.4,3.2,4,5.1,6.8,7c0.4,0.2,0.7,0.4,1.1,0.7c1.8,2.5,4.9,2.1,7.5,2.8c1.1,0.4,1.9-0.4,2.5-1.4
			c1.4-2.5,2.5-5.1,3.2-7.7c1.6-5.4,2.1-10.9,3-16.3c0.7-6,1.2-11.7,1.8-17.7c0.4-3.3,0.4-6.8,0.5-10.2l0.7-6.8v-1.8
			c0-0.7-0.2-1.1-1.1-0.9c-3,1.1-6,1.4-8.9,1.2c-0.7-0.2-1.2,0-1.9,0.2c-3.5,0.7-6.8,0.7-10.2-0.4c-3.7-1.2-6.1-3.9-7.9-7.2
			c-0.5-1.1,0.5-1.9,0.2-3c0-0.2,0.7-0.4,1.1-0.4H837z"/>
		<path d="M954,204.7c-0.4,0.2-1.1,0.4-1.4,1.1c-0.5,0.9-1.2,0.7-1.9,0.4c-1.9-0.7-3.3-1.9-4.9-3c-0.9-0.7-1.1-1.8-1.2-2.6
			c-0.9-3.5-1.6-7.2-2.8-10.5c-1.1-3-1.4-6-1.8-8.9c-0.9-5.6-1.9-11-3.2-16.7l-1.9-10.3l-0.7-2.6c-0.2-0.7-0.5-1.1-1.6-0.7
			c-3.3,0.9-6.8,1.2-10.5,1.4c-4.9,0.2-9.8,0.9-14.7,1.4c-1.1,0-1.2,0.5-1.4,1.2l-1.8,8.9c-0.5,2.6-0.9,5.3-1.8,7.9l-1.9,7.9
			c-1.1,4-2.3,8.1-3.7,12.1c-0.5,1.6-0.9,3.3-1.1,4.9c-0.7,3.5-3.2,5.8-6.7,7.2c-1.2,0.5-2.5,0.5-3.7,0.5c-1.8,0-3.7-0.5-5.4-0.9
			c-1.4-0.2-1.6-0.5-1.4-1.9c0.2-1.8,0.9-3.5,1.4-5.3c1.1-3.9,1.4-7.7,2.1-11.7l2.5-12.3c1.2-6,2.8-11.9,4-17.9
			c1.1-4.9,2.3-9.6,3.7-14.4c1.4-5.4,2.6-10.7,4.2-16.1c0.7-2.8,1.8-5.4,2.3-8.2c1.1-4.2,2.6-8.4,3.5-12.8c0.2-1.2,0.7-2.3,1.1-3.5
			l0.9-3.5c0.3-1.9,0.9-3.9,1.8-5.6c0.9-1.6,0.7-3.3,1.2-5.1c0.9-3.2,1.9-6.3,3.3-9.3c0.5-1.1,1.6-1.8,2.8-1.9
			c1.2-0.3,2.5-0.5,3.7-0.7c0.4-0.2,0.7,0,0.9-0.3c1.1-1.1,2.5-0.5,3.7-0.5c3.9,0.2,6,2.3,7.5,4.9c1.4,2.6,2.3,5.4,2.8,8.2
			c1.1,4,1.9,8.2,2.5,12.4c0.7,5.3,1.9,10.5,2.1,16c0.2,1.8,0.7,3.3,1.1,5.1c1.6,6.1,2.8,12.4,4,18.8c1.1,5.3,2.3,10.3,3.9,15.4
			c1.2,3.5,1.4,7.2,2.3,10.7l2.5,10.5c1.2,3.9,1.8,7.7,2.3,11.6c0,1.1,0.2,2.3,0.7,3.3c1.1,3.2,1.6,6.5,2.5,9.8
			c0.2,0.5,0.2,1.2,0.2,1.8c-0.5,1.8-0.2,3.3-0.3,5.1C954.3,205.7,954.8,204.7,954,204.7z M919.6,93c-0.4,1.6,0,3.2-0.5,4.6
			c-1.1,3.2-1.4,6.5-2.6,9.5c-0.7,1.9-1.2,3.9-1.4,5.8c-0.3,2.5-0.5,4.9-1.4,7.4c-0.7,2.5-1.4,4.9-1.9,7.4l-2.8,13.5
			c-0.7,3.5-0.7,3.3,3.3,3c3.9-0.4,7.7-0.9,11.6-0.9c1.9,0,4-0.2,6,0c1.8,0,1.9-0.2,1.6-1.8c-0.5-3.2-1.1-6.1-1.8-9.3
			c-2.8-12.6-6.1-25.1-8.2-37.7c-0.2-1.1,0-2.3-0.9-3.2C920,91.8,919.8,92.5,919.6,93z"/>
		<path d="M1033.6,90.2c-1.9,3.9-3.7,7.7-5.4,11.6c-2.6,5.4-5.1,11-8.1,16.3c-2.3,4.2-4.9,8.2-7.9,12.1c-1.8,2.1-4,3.9-6.1,5.6
			c-0.2,0.3-0.5,0.5-0.9,0.7c-1.8,0.9-2.3,0.5-2.8-1.2c0-0.4-0.2-0.9-0.5-0.9c-2.1-0.7-2.6-2.6-3.7-4c-3.9-5.4-6.8-11-10.2-16.8
			c-1.4-2.5-2.6-5.3-3.9-7.9c-0.4-0.5-0.5-1.2-1.1-1.8c-0.4,0-0.5,0.2-0.5,0.5c0.2,3.2-0.2,6.3-0.3,9.5c-0.2,8.1-0.5,16.3-0.9,24.5
			c-0.2,3.2-0.4,6.5-0.2,9.8c0.2,3.7,0,7.4-0.3,11c-0.4,3.3-0.5,6.8-0.7,10.2c-0.4,4.4-0.7,8.6-0.2,13c0.4,2.6,0.5,5.4,0.7,8.1
			c0,0.5,0.2,1.1,0.4,1.6c0,0.4,0.4,0.9,0,1.1c-0.9,0.9-0.5,1.9-0.5,2.8c-0.3,2.3-1.6,4-3.5,5.1c-0.7,0.3-1.6,0.5-1.9,1.1
			c-1.1,1.2-2.1,1.2-3.3,0.9c-2.6-0.7-5.1-1.2-7.4-3.2c-1.4-1.2-1.9-2.8-1.9-4.7c0-6.1,0-12.3-0.2-18.4c-0.2-2.6,0.2-5.1,0.2-7.7
			c-0.2-6.1,0.2-12.3,0-18.4V134c0.2-6.5,0.4-13,0.9-19.5c0.3-5.8-0.7-11.6-0.2-17.4c0.5-4.2,0.7-8.2,1.4-12.4l0.7-3.5
			c0.4-1.1,0.4-1.9,0.4-2.8c0-2.1,0.4-2.6,2.3-3.3c1.4-0.3,4.6-0.3,6-0.3c0.3-0.2,0.7,0,0.9,0c3.7-0.9,6.7,0.3,8.9,3
			c3.3,3.5,6.1,7.4,8.1,11.7c2.1,4.9,3.9,10,6.5,14.7c1.6,2.6,3.2,5.3,4.6,8.1l2.6,5.3c0.7,1.2,1.1,1.2,1.6,0
			c2.8-5.3,5.8-10.7,8.2-16.1c3.5-7.4,7-14.7,11.6-21.4l2.1-3.2c0.4-0.7,0.9-1.2,1.6-1.4c1.9-0.4,3.9-0.9,5.8-0.5
			c0.9,0,1.8,0.2,2.3,0.7c2.8,1.9,4.7,4.4,4.9,8.1c0.4,4.4,0.2,8.9,0.2,13.5v14.2c0,4.6,0.2,9.1,0.4,13.8c0.2,1.9,0,4-0.4,6.1
			c-0.2,0.9-0.3,1.9-0.2,3c0.2,2.1,0,4.2-0.2,6.1c-0.2,3.3,0,6.7-0.2,9.8c0,1.6,0,3.2-0.2,4.9c0,3.3,0,6.7-0.2,10v6.5
			c-0.4,8.2-0.2,16.5-0.9,24.7c0,1.1-0.5,2.1-0.5,3.2c-0.2,0.7-0.9,1.1-1.4,1.2c-1.2,0-2.5-0.2-3.3-0.9l-2.8-2.6
			c-1.2-1.2-1.6-3-1.6-4.7c0-4.4,0.4-8.8,0.2-13c-0.3-4.7,0.5-9.5,0.4-14.2c-0.2-7.5,0.7-14.9,0.7-22.4l0.7-13.3
			c0-3.9,0-7.7,0.2-11.6c0-3.2,0.2-6.5,0.7-9.6c0.5-2.6,0.2-5.4,0-8.1c-0.2-3-0.4-6.1-0.4-9.1c0.2-0.7,0.4-1.4-0.4-1.9
			C1033.9,89.5,1033.7,89.9,1033.6,90.2z"/>
		<path d="M1109.8,199.6c-1.1,0.5-2.1,1.1-3.2,1.4c-3.5,0.9-6.8,0.2-10.2,1.4c-3.7-0.4-7.4,1.1-11,1.4c-2.3,0.2-4.6,0-6.8,0.2
			c-0.5,0.2-1.2,0-1.9,0.2c-3.3,1.4-6.7,1.2-10,1.6s-6.3-0.5-8.8-3c-0.4-0.5-0.9-1.2-0.9-2.1l-0.9-15.2v-3c0.2-3,0-5.8-0.2-8.6
			c0-3.3,0-6.7-0.2-10c-0.2-3.9,0.4-7.7,0.2-11.4c-0.3-4.9-0.2-10-0.3-15.1c-0.4-6-0.2-12.1-0.2-18.2c0-3,0.2-5.8,0.4-8.8
			c0.5-5.3,0-10.3,0-15.6c0-2.3,0-4.7,0.2-7c0.2-1.1,0.4-2.3,0.7-3.2c0.4-0.7,0.7-1.2,0.2-2.1c-0.5-0.7,0-1.2,0.5-1.6
			c1.4-0.9,2.6-1.2,4-1.4c0.9-0.2,1.6-0.4,2.5-0.4c3.2,0,6.1-0.7,9.3-0.9c5.1-0.2,10-0.9,15.1-0.7c3.3,0.2,6.5,0,9.8-1.1
			c2.5-0.7,4.7,0.4,7,0.9l0.5,0.5c0.2,0.2,0.4,0.4,0.4,0.5c-0.2,0.4-0.4,0.5-0.5,0.5c-0.2,0-0.4-0.2-0.5-0.2s-0.4,0.2-0.5,0.4
			c0.4,0.9,1.4,0.5,1.6,1.1c0.2,0.2,0.2,0.4,0.2,0.4c-0.5,1.1-2.3,2.3-3.2,2.8c-0.9,0.4-1.8,0.7-2.6,1.2c-2.6,1.4-5.4,1.6-8.4,1.2
			c-1.1,0-2.1-0.2-3.2-0.4c-2.3-0.7-4.4,0-6.7,0.2c-1.4,0-2.5-0.2-3.9-0.3c-0.4,0-0.7-0.2-1.1-0.2c-2.5,0-2.6,0.4-2.3,3
			c0.5,2.6,0.5,5.3,0.5,8.1c0,2.1-0.4,4.4,0,6.5c0.2,0.4,0.2,0.7,0,1.1c-0.4,1.2-0.4,2.6-0.4,3.9c0,1.9,0.2,3.7-0.2,5.6
			c-0.2,1.1,0,2.3-0.2,3.3c0,0.9,0.2,1.4,1.1,1.2h2.6c3.2-0.2,6.5-0.2,9.6,0.4c0.9,0.4,1.9-0.2,2.8-0.5c0.9-0.2,1.4,0,2.1,0.7
			c0.7,0.9,1.6,1.4,1.8,3c0.2,1.8-0.9,3.9-2.3,4c-3.3,0.3-6.5,1.2-9.6,1.8c-1.1,0.2-2.1,0-3.2-0.3c-1.2-0.4-2.6-0.4-3.9-0.2
			c-0.9,0-1.2,0.4-1.2,1.4c0,1.2,0.2,2.5,0.3,3.7c0.4,5.1,0.5,10.2,0,15.4c-0.7,7.5-0.7,15.1-1.1,22.6l-1.1,21c0,1.6-0.3,3-0.3,4.4
			c0,0.9,0.3,1.2,1.1,1.2c3.7-0.2,7.5,0,11.4-0.4l11.9-1.6c3.5-0.5,7,0,10.5,1.1c0.9,0.2,1.6,1.1,2.6,1.8
			C1108.4,198.4,1108.4,198.4,1109.8,199.6z"/>
	</g>
</g>
<g>
</g>
<g>
</g>
<g>
</g>
<g>
</g>
<g>
</g>
<g>
</g>
</svg>
