<svg xmlns="http://www.w3.org/2000/svg" xmlns:xlink="http://www.w3.org/1999/xlink" viewBox="0 0 1694.8 562.17"><defs><clipPath id="a" transform="translate(0.34)"><path d="M952.86,271.4l17.08,9.3,3,1.64-0.14-.06-20.1-10.94Z"/></clipPath><clipPath id="b" transform="translate(0.34)"><path d="M938.33,334.22l-17.09-9.3-3-1.64a14.56,14.56,0,0,0,9.1,1.71,15.4,15.4,0,0,0,5.55-1.75,4.45,4.45,0,0,0,2.47-3.88c0-2.07-1-3.21-3.73-4.78l-0.79-.44,20.11,10.94,0.79,0.44c2.73,1.57,3.73,2.71,3.72,4.78a4.43,4.43,0,0,1-2.47,3.88,15.47,15.47,0,0,1-5.55,1.76A14.53,14.53,0,0,1,938.33,334.22Z"/></clipPath><clipPath id="c" transform="translate(0.34)"><path d="M952.44,305.54L932.33,294.6c3.28,1.78,7,2.93,10.36,4.79l1,0.54,6,3.28,13.07,7.11C959.39,308.46,955.72,307.32,952.44,305.54Z"/></clipPath><clipPath id="d" transform="translate(0.34)"><path d="M929,348.37l-12.06-6.56-1-.55-7-3.83a22.61,22.61,0,0,1-2-1.22L927,347.15A23.22,23.22,0,0,0,929,348.37Z"/></clipPath><clipPath id="e" transform="translate(0.34)"><path d="M915.11,321.18l17.09,9.3,3,1.64a1.22,1.22,0,0,0-.76-0.16,1.51,1.51,0,0,0-1,.83l-20.1-10.93a1.49,1.49,0,0,1,1.05-.83A1.13,1.13,0,0,1,915.11,321.18Z"/></clipPath><clipPath id="f" transform="translate(0.34)"><path d="M927,347.15l-20.1-10.94c-0.9-.55-0.81-1.26-0.18-2.33l20.1,10.94C926.2,345.89,926.1,346.61,927,347.15Z"/></clipPath><clipPath id="g" transform="translate(0.34)"><path d="M956.35,280.75l-20.11-10.94c7.1-1,13.56.17,16.47,1.53l20.1,10.94C969.91,280.91,963.45,279.75,956.35,280.75Z"/></clipPath><clipPath id="h" transform="translate(0.34)"><path d="M941.48,320.6l-20.11-10.94a20.06,20.06,0,0,1-5.4-4.09c-2.45-2.61-4.09-6-4.08-11.41a22.27,22.27,0,0,1,6.59-16.26c4.56-4.47,11-7.15,17.77-8.1l20.11,10.94c-6.74.95-13.21,3.63-17.77,8.1A22.29,22.29,0,0,0,932,305.1c0,5.41,1.63,8.81,4.08,11.41A20,20,0,0,0,941.48,320.6Z"/></clipPath><clipPath id="i" transform="translate(0.34)"><path d="M905.89,275.34L926,286.27a1.78,1.78,0,0,0-1.06-.12l-20.1-10.94A1.76,1.76,0,0,1,905.89,275.34Z"/></clipPath><clipPath id="j" transform="translate(0.34)"><path d="M912.87,311.61l-20.11-10.94a2.09,2.09,0,0,1-.8-2l20.1,10.94A2.1,2.1,0,0,0,912.87,311.61Z"/></clipPath><clipPath id="k" transform="translate(0.34)"><path d="M912.28,290.49l-20.1-10.94c0.1-1.69.82-2.67,2.18-2.86l20.1,10.94C913.1,287.82,912.37,288.8,912.28,290.49Z"/></clipPath><clipPath id="l" transform="translate(0.34)"><path d="M885.33,278.2l20.1,10.94a1.25,1.25,0,0,0-.8-0.13l-20.1-10.94A1.29,1.29,0,0,1,885.33,278.2Z"/></clipPath><clipPath id="m" transform="translate(0.34)"><path d="M863.53,361.44l-20.1-10.94a1.29,1.29,0,0,1-.53-1.46L863,360A1.3,1.3,0,0,0,863.53,361.44Z"/></clipPath><clipPath id="n" transform="translate(0.34)"><path d="M851.72,311.52l-20.11-10.94a1.39,1.39,0,0,1-.63-1.42l20.1,10.94A1.39,1.39,0,0,0,851.72,311.52Z"/></clipPath><clipPath id="o" transform="translate(0.34)"><path d="M852.66,298.07l-20.11-10.93a2.5,2.5,0,0,1,1.91-2L854.56,296A2.48,2.48,0,0,0,852.66,298.07Z"/></clipPath><clipPath id="p" transform="translate(0.34)"><path d="M820.82,338.8l20.11,10.93a1.06,1.06,0,0,0-.67-0.11l-20.1-10.93A1,1,0,0,1,820.82,338.8Z"/></clipPath><clipPath id="q" transform="translate(0.34)"><path d="M815.74,313.48l20.1,10.93a1,1,0,0,0-.63-0.11l-20.1-10.93A1,1,0,0,1,815.74,313.48Z"/></clipPath><clipPath id="r" transform="translate(0.34)"><path d="M824.65,286.68l20.11,10.93a1.08,1.08,0,0,0-.67-0.1L824,286.58A1.06,1.06,0,0,1,824.65,286.68Z"/></clipPath><clipPath id="s" transform="translate(0.34)"><path d="M794.23,371.21l-20.1-10.94a1.36,1.36,0,0,1-.6-1.39l20.11,10.94A1.36,1.36,0,0,0,794.23,371.21Z"/></clipPath><clipPath id="t" transform="translate(0.34)"><path d="M802,305.09l-20.1-10.93a2.27,2.27,0,0,1,1.74-1.91l20.11,10.94A2.28,2.28,0,0,0,802,305.09Z"/></clipPath><clipPath id="u" transform="translate(0.34)"><path d="M766.11,346.48l20.1,10.94a1,1,0,0,0-.66-0.11l-20.1-10.94A1.1,1.1,0,0,1,766.11,346.48Z"/></clipPath><clipPath id="v" transform="translate(0.34)"><path d="M746.57,377.89L726.46,367a1.22,1.22,0,0,1-.55-1.37L746,376.52A1.22,1.22,0,0,0,746.57,377.89Z"/></clipPath><clipPath id="w" transform="translate(0.34)"><path d="M749.78,297.23l12.06,6.56,1,0.55,7,3.82a1.18,1.18,0,0,0-.71-0.11l-20.1-10.93A1.12,1.12,0,0,1,749.78,297.23Z"/></clipPath><clipPath id="x" transform="translate(0.34)"><path d="M754.42,311.78l-20.1-10.94A2.07,2.07,0,0,1,736,299l20.11,10.94A2.06,2.06,0,0,0,754.42,311.78Z"/></clipPath></defs><title>fintness-as-a-game</title><polygon points="1028.01 467.13 747.47 534.26 747.47 360.35 1028.01 293.22 1028.01 467.13" fill="#e52427" fill-rule="evenodd"/><path d="M811,365.58c1,0.5,2,1.07,3.09,1.47,13.66,5.1,16.82,16.18,12.26,28.11-6.65,17.4-19.11,29.53-36.16,37-8.36,3.66-16.77,6.55-26.09,3.88a3.43,3.43,0,0,0-2.87,1.55c-3.87,8.09-7.56,16.27-11.29,24.43a29.24,29.24,0,0,1-1.2,2.87c-1.5,2.52-2.73,5.77-6.44,5.12-4.6-.8-8-4.49-7.33-8.75a49.56,49.56,0,0,1,4.41-14.83c9.39-18.15,19.25-36.06,29-54,3.22-5.95,6.62-11.81,9.81-17.78a50,50,0,0,0,2.2-6c7.37,2.19,14.68-.5,22-3.06H811Zm-42.33,57.29c2.65-.43,4.06-0.62,5.44-0.9a13.94,13.94,0,0,0,2.62-.76c16.37-6.79,29.55-17.34,38.35-32.91a22.77,22.77,0,0,0,2.2-7c0.55-2.92-.78-4.62-3.94-4-3.81.75-7.64,1.53-11.37,2.58a19.59,19.59,0,0,0-12.44,9.84c-3.39,6.13-7.59,11.8-11.36,17.74C775.07,412.28,772.14,417.16,768.62,422.87Z" transform="translate(0.34)" fill-rule="evenodd"/><path d="M992,365.58c2.21,1,4.39,2.18,6.64,3.13,6.28,2.65,7.3,6.25,3.4,11.8q-28.94,41.07-57.9,82.14a35.13,35.13,0,0,1-6.89,6.63c-2.63,2.11-4.57.39-6-1.83-2.73-4.3-2.37-8.87,0-13,3.32-5.89,7.11-11.52,10.77-17.21,1.62-2.51,3.44-4.9,5.39-7.66-6.31-2.76-7.62-8.1-7.06-13.91,1.23-12.84,2.87-25.64,4.25-38.47,0.31-2.9.29-5.83,0.47-9.56-0.51.35-.17-0.08,0.12-0.06,5.38,0.5,10.94.4,16.08,1.79,4.58,1.25,5.27,5,3.24,9.48a48.4,48.4,0,0,0-2.6,7.73c-2.77,10.44-5.45,20.91-8.13,31.37a25.11,25.11,0,0,0-.29,3.08c1.24-1.49,2-2.3,2.65-3.22,10.17-15.3,20.39-30.58,30.41-46,1.1-1.7,1.06-4.13,1.55-6.23H992Z" transform="translate(0.34)" fill-rule="evenodd"/><path d="M1024.18,365.58c1,0.51,2,1,3.08,1.52,6.76,3.16,8.45,7,5.26,13.8-2.71,5.77-5.81,11.37-9.07,16.85-4.65,7.84-9.23,15.75-14.51,23.15s-11.17,14-16.89,20.92c-1.54,1.86-3.21,4.31-6.15,2.49s-2.29-4.57-1.11-7q7.58-15.44,15.43-30.72c5.1-10,10.41-19.85,15.44-29.86,1.52-3,3.68-6.21.95-9.79-0.16-.21.33-0.92,0.52-1.39h7.06Z" transform="translate(0.34)" fill-rule="evenodd"/><path d="M897.46,425.81c-5.74,2-11,3.75-16.23,5.78a9.13,9.13,0,0,0-4.09,3.18c-6.23,9.33-12.26,18.79-18.38,28.18a29.27,29.27,0,0,1-2.62,3.41c-2,2.3-4.73,5.11-7.57,3.35-2.51-1.57-3.82-5.1-5.57-7.83a4.74,4.74,0,0,1,0-2,54.56,54.56,0,0,0-23.11,7.36,29,29,0,0,1-5.26,2.54c-3.23,1-5.89.24-7.54-3-0.82-1.62-1.89-3.13-2.7-4.76-1.22-2.44-2.41-4.93,1.49-6.26a2.59,2.59,0,0,0,1.13-1.79c2.6-14.53,9.88-27.11,16.73-39.83,6.36-11.83,13.15-23.42,19.58-35.2,1.53-2.81,2.15-6.14,3.71-8.92,0.87-1.55,3-3.64,4.27-3.49a82.84,82.84,0,0,1,14.85,3.13c3.55,1.08,3.53,2.91,1.3,5.84a114.86,114.86,0,0,0-8.29,12.25c-11.86,20.67-23.56,41.41-35.57,62.58,9.63,0.71,19.49-5.84,27,4.43l12.58-18a60.76,60.76,0,0,1,3.58-5.13c2.3-2.64,3.2-5.06,1.38-8.63-1.11-2.17-.62-5.16-0.95-8.89l8.42,4.39c5.82-7.68,11.27-15.5,17.39-22.74A329.47,329.47,0,0,1,915.5,371.3c7-6.73,12.9-6.46,20.68-.75,3.6,2.65,4.7,7.06,2.58,12-1.81,4.17-4,8.2-6.09,12.25-9.2,17.68-18.46,35.33-27.65,53-3,5.88-5.92,11.85-8.89,17.78-1.58,3.14-4,5.33-7.65,4.87-2.5-.32-3.86-4.65-3.38-8.83,1.16-10.29,5.7-19.45,9.52-28.85C895.53,430.5,896.47,428.23,897.46,425.81Zm-8.3-9.33,0.49,1.14c2.17,0,4.34-.08,6.5,0,4.16,0.17,6.49-1.72,8.14-5.62,3.44-8.13,7.41-16,11.12-24.06,0.85-1.83,1.52-3.75,2.27-5.63l-1-.65Z" transform="translate(0.34)" fill-rule="evenodd"/><path d="M974.73,459.41c0.08-7.38,3.43-9.38,10.25-6.17,1.29,0.61,2.68,1,3.92,1.71,2.57,1.46,3.72,3.54,2.31,6.47-1.07,2.22-2.28,4.37-3.21,6.65-1.07,2.59-2.73,3.08-5.23,2.19C978.47,468.76,974.68,463.75,974.73,459.41Z" transform="translate(0.34)" fill-rule="evenodd"/><g style="isolation:isolate"><g style="isolation:isolate"><path d="M952.86,271.4l17.08,9.3,3,1.64-0.14-.06-20.1-10.94Z" transform="translate(0.34)"/><g clip-path="url(#a)"><g style="isolation:isolate"><path d="M972.82,282.28l-20.1-10.94,0.1,0,20.1,10.94-0.1,0" transform="translate(0.34)"/><path d="M972.92,282.32l-20.1-10.94,0,0L973,282.34l0,0" transform="translate(0.34)"/></g></g></g><g style="isolation:isolate"><path d="M938.33,334.22l-17.09-9.3-3-1.64a14.56,14.56,0,0,0,9.1,1.71,15.4,15.4,0,0,0,5.55-1.75,4.45,4.45,0,0,0,2.47-3.88c0-2.07-1-3.21-3.73-4.78l-0.79-.44,20.11,10.94,0.79,0.44c2.73,1.57,3.73,2.71,3.72,4.78a4.43,4.43,0,0,1-2.47,3.88,15.47,15.47,0,0,1-5.55,1.76A14.53,14.53,0,0,1,938.33,334.22Z" transform="translate(0.34)"/><g clip-path="url(#b)"><g style="isolation:isolate"><path d="M938.33,334.22l-20.11-10.94,0.6,0.31,20.1,10.93-0.6-.31" transform="translate(0.34)"/><path d="M938.92,334.53l-20.1-10.93a15.18,15.18,0,0,0,2.91,1.09l20.1,10.94a15.18,15.18,0,0,1-2.91-1.09" transform="translate(0.34)"/><path d="M941.84,335.62l-20.1-10.94a14.12,14.12,0,0,0,5.58.31,16.71,16.71,0,0,0,4.71-1.32l20.1,10.94a16.62,16.62,0,0,1-4.71,1.32,14.2,14.2,0,0,1-5.58-.31" transform="translate(0.34)"/><path d="M952.13,334.61L932,323.68c0.29-.14.57-0.29,0.84-0.44l0.4-.26,20.11,10.94-0.4.25c-0.26.15-.54,0.3-0.83,0.44" transform="translate(0.34)"/><path d="M953.37,333.92L933.26,323a7.58,7.58,0,0,0,.63-0.5L954,333.42a7,7,0,0,1-.63.5" transform="translate(0.34)"/><path d="M954,333.42l-20.11-10.94a5.12,5.12,0,0,0,.41-0.41L954.4,333c-0.13.14-.26,0.28-0.41,0.41" transform="translate(0.34)"/><path d="M954.4,333l-20.1-10.94c0.11-.13.21-0.26,0.31-0.39l20.1,10.93a5,5,0,0,1-.31.39" transform="translate(0.34)"/><path d="M954.71,332.62l-20.1-10.93a4.63,4.63,0,0,0,.25-0.41L955,332.21a3.59,3.59,0,0,1-.25.41" transform="translate(0.34)"/><path d="M955,332.21l-20.1-10.93a3.94,3.94,0,0,0,.22-0.5l20.1,10.94a3,3,0,0,1-.22.5" transform="translate(0.34)"/><path d="M955.19,331.72l-20.1-10.94a4.26,4.26,0,0,0,.24-1.42c0-2.07-1-3.21-3.73-4.78l-0.79-.44,20.11,10.94,0.79,0.44c2.73,1.57,3.73,2.71,3.72,4.78a4.06,4.06,0,0,1-.24,1.42" transform="translate(0.34)"/></g></g></g><g style="isolation:isolate"><path d="M952.44,305.54L932.33,294.6c3.28,1.78,7,2.93,10.36,4.79l1,0.54,6,3.28,13.07,7.11C959.39,308.46,955.72,307.32,952.44,305.54Z" transform="translate(0.34)"/><g clip-path="url(#c)"><g style="isolation:isolate"><path d="M952.44,305.54L932.33,294.6l1.17,0.6,20.11,10.94-1.17-.6" transform="translate(0.34)"/><path d="M953.61,306.14L933.51,295.2c2.56,1.26,5.3,2.24,7.94,3.54l20.1,10.94c-2.63-1.3-5.37-2.28-7.93-3.53" transform="translate(0.34)"/><path d="M961.54,309.67l-20.1-10.94c0.42,0.21.84,0.42,1.25,0.65l20.1,10.93c-0.42-.22-0.83-0.44-1.25-0.65" transform="translate(0.34)"/></g></g></g><g style="isolation:isolate"><path d="M929,348.37l-12.06-6.56-1-.55-7-3.83a22.61,22.61,0,0,1-2-1.22L927,347.15A23.22,23.22,0,0,0,929,348.37Z" transform="translate(0.34)"/><g clip-path="url(#d)"><g style="isolation:isolate"><path d="M929,348.37l-20.11-10.93a22.61,22.61,0,0,1-2-1.22L927,347.15a23.22,23.22,0,0,0,2,1.21" transform="translate(0.34)"/></g></g></g><g style="isolation:isolate"><path d="M915.11,321.18l17.09,9.3,3,1.64a1.22,1.22,0,0,0-.76-0.16,1.51,1.51,0,0,0-1,.83l-20.1-10.93a1.49,1.49,0,0,1,1.05-.83A1.13,1.13,0,0,1,915.11,321.18Z" transform="translate(0.34)"/><g clip-path="url(#e)"><g style="isolation:isolate"><path d="M933.41,332.8l-20.1-10.93,0.12-.19,20.1,10.94-0.12.19" transform="translate(0.34)"/><path d="M933.52,332.61l-20.1-10.94,0.14-.18,20.1,10.94-0.15.19" transform="translate(0.34)"/><path d="M933.67,332.42l-20.1-10.94a0.94,0.94,0,0,1,.14-0.14l20.11,10.93-0.14.14" transform="translate(0.34)"/><path d="M933.81,332.28l-20.11-10.93,0.15-.12L934,332.16l-0.14.12" transform="translate(0.34)"/><path d="M934,332.16l-20.1-10.93,0.18-.1,20.1,10.93-0.19.1" transform="translate(0.34)"/><path d="M934.14,332.06L914,321.13a0.89,0.89,0,0,1,.32-0.09,1,1,0,0,1,.44,0L934.9,332a1.21,1.21,0,0,0-.44,0,1.07,1.07,0,0,0-.31.1" transform="translate(0.34)"/><path d="M934.9,332l-20.11-10.94a1.16,1.16,0,0,1,.26.1l20.1,10.93L934.9,332" transform="translate(0.34)"/><path d="M935.16,332.09l-20.1-10.93,0.05,0,20.11,10.94-0.06,0" transform="translate(0.34)"/></g></g></g><polygon points="927.16 344.83 907.06 333.89 913.64 321.86 933.75 332.8 927.16 344.83"/><g style="isolation:isolate"><path d="M927,347.15l-20.1-10.94c-0.9-.55-0.81-1.26-0.18-2.33l20.1,10.94C926.2,345.89,926.1,346.61,927,347.15Z" transform="translate(0.34)"/><g clip-path="url(#f)"><g style="isolation:isolate"><path d="M927,347.15l-20.1-10.94a1.16,1.16,0,0,1-.55-1.59l20.1,10.94a1.16,1.16,0,0,0,.55,1.59" transform="translate(0.34)"/><path d="M926.46,345.57l-20.1-10.94a3.34,3.34,0,0,1,.23-0.5l20.1,10.94a4.21,4.21,0,0,0-.23.5" transform="translate(0.34)"/><path d="M926.69,345.07l-20.1-10.94,0.13-.24,20.1,10.94-0.13.24" transform="translate(0.34)"/></g></g></g><g style="isolation:isolate"><path d="M956.35,280.75l-20.11-10.94c7.1-1,13.56.17,16.47,1.53l20.1,10.94C969.91,280.91,963.45,279.75,956.35,280.75Z" transform="translate(0.34)"/><g clip-path="url(#g)"><g style="isolation:isolate"><path d="M956.35,280.75l-20.11-10.94a36.88,36.88,0,0,1,13.8.61l20.11,10.93a36.91,36.91,0,0,0-13.8-.61" transform="translate(0.34)"/><path d="M970.15,281.36L950,270.42a15.3,15.3,0,0,1,2.68.92l20.1,10.94a15.49,15.49,0,0,0-2.67-.92" transform="translate(0.34)"/></g></g></g><g style="isolation:isolate"><path d="M941.48,320.6l-20.11-10.94a20.06,20.06,0,0,1-5.4-4.09c-2.45-2.61-4.09-6-4.08-11.41a22.27,22.27,0,0,1,6.59-16.26c4.56-4.47,11-7.15,17.77-8.1l20.11,10.94c-6.74.95-13.21,3.63-17.77,8.1A22.29,22.29,0,0,0,932,305.1c0,5.41,1.63,8.81,4.08,11.41A20,20,0,0,0,941.48,320.6Z" transform="translate(0.34)"/><g clip-path="url(#h)"><g style="isolation:isolate"><path d="M941.48,320.6l-20.11-10.94a20.06,20.06,0,0,1-5.4-4.09c-2.45-2.61-4.09-6-4.08-11.41a23.86,23.86,0,0,1,1.41-8.24l20.11,10.94A23.84,23.84,0,0,0,932,305.1c0,5.41,1.63,8.81,4.08,11.41a20,20,0,0,0,5.4,4.09" transform="translate(0.34)"/><path d="M933.41,296.87L913.3,285.93a21.11,21.11,0,0,1,1.25-2.77l20.1,10.94a21.22,21.22,0,0,0-1.24,2.77" transform="translate(0.34)"/><path d="M934.65,294.1l-20.1-10.94A23.09,23.09,0,0,1,915.9,281L936,291.92a21.94,21.94,0,0,0-1.35,2.18" transform="translate(0.34)"/><path d="M936,291.92L915.9,281a23.19,23.19,0,0,1,1.57-2l20.1,10.94a21.82,21.82,0,0,0-1.57,2" transform="translate(0.34)"/><path d="M937.57,289.93L917.47,279c0.33-.37.67-0.73,1-1.08s0.49-.47.74-0.7l20.11,10.94c-0.25.23-.5,0.46-0.74,0.7s-0.69.71-1,1.08" transform="translate(0.34)"/><path d="M939.33,288.15l-20.11-10.94a25.41,25.41,0,0,1,2.55-2l20.1,10.94a24.71,24.71,0,0,0-2.55,2" transform="translate(0.34)"/><path d="M941.88,286.14l-20.1-10.94a29,29,0,0,1,4.14-2.38L946,283.76a29,29,0,0,0-4.14,2.38" transform="translate(0.34)"/><path d="M946,283.76l-20.11-10.93a36.43,36.43,0,0,1,10.33-3l20.11,10.94a36.17,36.17,0,0,0-10.33,3" transform="translate(0.34)"/></g></g></g><path d="M956.35,280.75c7.1-1,13.56.17,16.47,1.53,0.73,0.28.82,1.06,0.35,2L966.5,297.1a1.26,1.26,0,0,1-.87.67,1.69,1.69,0,0,1-.94-0.22A19.61,19.61,0,0,0,954.4,296a8.89,8.89,0,0,0-4.64,1.85,4,4,0,0,0-1.37,3.13c0,1.57,1.18,2.88,3.26,4.16,4.83,2.86,10.65,4,15.28,8.07,3.09,2.91,5.46,6.5,5.44,13.09a22.86,22.86,0,0,1-7.31,16.46c-4.2,4-10.3,7-18.14,8.13-8.09,1.14-14.56,0-19.92-3.68-0.9-.55-0.81-1.26-0.18-2.33l6.58-12a1.51,1.51,0,0,1,1-.83,1.39,1.39,0,0,1,1,.34,15.21,15.21,0,0,0,11.92,3.63,15.47,15.47,0,0,0,5.55-1.76,4.43,4.43,0,0,0,2.47-3.88c0-2.07-1-3.21-3.72-4.78-5-2.94-11.37-4.3-15.63-9-2.46-2.6-4.09-6-4.08-11.41a22.29,22.29,0,0,1,6.59-16.26C943.14,284.38,949.61,281.69,956.35,280.75Z" transform="translate(0.34)" fill="#dfce00" stroke="#fff" stroke-miterlimit="10" stroke-width="3"/><g style="isolation:isolate"><path d="M905.89,275.34L926,286.27a1.78,1.78,0,0,0-1.06-.12l-20.1-10.94A1.76,1.76,0,0,1,905.89,275.34Z" transform="translate(0.34)"/><g clip-path="url(#i)"><g style="isolation:isolate"><path d="M924.94,286.16l-20.1-10.94a2.07,2.07,0,0,1,.79,0l20.1,10.94a2,2,0,0,0-.79,0" transform="translate(0.34)"/><path d="M925.73,286.18l-20.1-10.94,0.23,0.08L926,286.26a1.25,1.25,0,0,0-.23-0.08" transform="translate(0.34)"/><path d="M926,286.26l-20.1-10.94,0,0L926,286.27l0,0" transform="translate(0.34)"/></g></g></g><g style="isolation:isolate"><path d="M912.87,311.61l-20.11-10.94a2.09,2.09,0,0,1-.8-2l20.1,10.94A2.1,2.1,0,0,0,912.87,311.61Z" transform="translate(0.34)"/><g clip-path="url(#j)"><g style="isolation:isolate"><path d="M912.87,311.61l-20.11-10.94a2.09,2.09,0,0,1-.8-2l20.1,10.94a2.1,2.1,0,0,0,.8,2" transform="translate(0.34)"/></g></g></g><polygon points="914.8 287.63 894.7 276.69 905.17 275.22 925.28 286.16 914.8 287.63"/><polygon points="912.4 309.58 892.29 298.64 892.51 279.55 912.61 290.49 912.4 309.58"/><path d="M924.94,286.16c1.37-.2,1.9.61,1.45,2.34l-4.78,19.73c-0.35,1.71-1.18,2.62-2.55,2.81l-5,.7c-1.35.19-2-.51-2-2.17l0.22-19.09c0.1-1.69.83-2.67,2.19-2.86Z" transform="translate(0.34)" fill="#dfce00" stroke="#fff" stroke-miterlimit="10" stroke-width="3"/><g style="isolation:isolate"><path d="M912.28,290.49l-20.1-10.94c0.1-1.69.82-2.67,2.18-2.86l20.1,10.94C913.1,287.82,912.37,288.8,912.28,290.49Z" transform="translate(0.34)"/><g clip-path="url(#k)"><g style="isolation:isolate"><path d="M912.28,290.49l-20.1-10.94a4.47,4.47,0,0,1,.24-1.3l20.1,10.94a4.67,4.67,0,0,0-.25,1.3" transform="translate(0.34)"/><path d="M912.52,289.19l-20.1-10.94a3.88,3.88,0,0,1,.17-0.37l20.1,10.94a3.15,3.15,0,0,0-.17.37" transform="translate(0.34)"/><path d="M912.69,288.82l-20.1-10.94a1.74,1.74,0,0,1,.15-0.25l20.11,10.94a1.87,1.87,0,0,0-.15.25" transform="translate(0.34)"/><path d="M912.85,288.57l-20.11-10.94a2,2,0,0,1,.15-0.19L913,288.37a1.2,1.2,0,0,0-.16.2" transform="translate(0.34)"/><path d="M913,288.37L892.9,277.44a1,1,0,0,1,.17-0.17l20.1,10.93a1.67,1.67,0,0,0-.17.17" transform="translate(0.34)"/><path d="M913.17,288.2l-20.1-10.93a1.24,1.24,0,0,1,.21-0.17L913.38,288a1.33,1.33,0,0,0-.21.17" transform="translate(0.34)"/><path d="M913.38,288l-20.1-10.94a2.12,2.12,0,0,1,.31-0.18l20.1,10.94a2.21,2.21,0,0,0-.31.18" transform="translate(0.34)"/><path d="M913.69,287.85l-20.1-10.94a2.76,2.76,0,0,1,.77-0.22l20.1,10.94a2.66,2.66,0,0,0-.77.22" transform="translate(0.34)"/></g></g></g></g><g style="isolation:isolate"><g style="isolation:isolate"><path d="M885.33,278.2l20.1,10.94a1.25,1.25,0,0,0-.8-0.13l-20.1-10.94A1.29,1.29,0,0,1,885.33,278.2Z" transform="translate(0.34)"/><g clip-path="url(#l)"><g style="isolation:isolate"><path d="M904.63,289l-20.1-10.94a1.33,1.33,0,0,1,.54,0L905.18,289a1.35,1.35,0,0,0-.54,0" transform="translate(0.34)"/><path d="M905.18,289L885.07,278.1l0.22,0.08,20.1,10.93-0.22-.08" transform="translate(0.34)"/><path d="M905.4,289.11l-20.1-10.93,0,0,20.1,10.94,0,0" transform="translate(0.34)"/></g></g></g><g style="isolation:isolate"><path d="M863.53,361.44l-20.1-10.94a1.29,1.29,0,0,1-.53-1.46L863,360A1.3,1.3,0,0,0,863.53,361.44Z" transform="translate(0.34)"/><g clip-path="url(#m)"><g style="isolation:isolate"><path d="M863.53,361.44l-20.1-10.94a1.29,1.29,0,0,1-.53-1.46L863,360a1.3,1.3,0,0,0,.53,1.46" transform="translate(0.34)"/></g></g></g><polygon points="863.33 359.98 843.23 349.04 849.79 298.32 869.89 309.25 863.33 359.98"/><g style="isolation:isolate"><path d="M851.72,311.52l-20.11-10.94a1.39,1.39,0,0,1-.63-1.42l20.1,10.94A1.39,1.39,0,0,0,851.72,311.52Z" transform="translate(0.34)"/><g clip-path="url(#n)"><g style="isolation:isolate"><path d="M851.72,311.52l-20.11-10.94a1.39,1.39,0,0,1-.63-1.42l20.1,10.94a1.39,1.39,0,0,0,.64,1.42" transform="translate(0.34)"/></g></g></g><polygon points="854.9 296.05 834.8 285.11 884.87 278.07 904.97 289.01 854.9 296.05"/><polygon points="851.42 310.1 831.32 299.16 832.89 287.14 853 298.07 851.42 310.1"/><g style="isolation:isolate"><path d="M852.66,298.07l-20.11-10.93a2.5,2.5,0,0,1,1.91-2L854.56,296A2.48,2.48,0,0,0,852.66,298.07Z" transform="translate(0.34)"/><g clip-path="url(#o)"><g style="isolation:isolate"><path d="M852.66,298.07l-20.11-10.93a3.85,3.85,0,0,1,.11-0.43l20.11,10.94a2,2,0,0,0-.11.43" transform="translate(0.34)"/><path d="M852.77,297.64L832.66,286.7c0-.12.1-0.23,0.16-0.34l20.1,10.94a3.07,3.07,0,0,0-.15.34" transform="translate(0.34)"/><path d="M852.92,297.3l-20.1-10.94a3,3,0,0,1,.17-0.27L853.09,297a2.66,2.66,0,0,0-.17.27" transform="translate(0.34)"/><path d="M853.09,297L833,286.09a2.3,2.3,0,0,1,.19-0.24l20.1,10.94-0.19.24" transform="translate(0.34)"/><path d="M853.28,296.79l-20.1-10.94a2.41,2.41,0,0,1,.21-0.21l20.11,10.93a2.27,2.27,0,0,0-.21.22" transform="translate(0.34)"/><path d="M853.49,296.58l-20.11-10.93,0.25-.19,20.1,10.93-0.24.2" transform="translate(0.34)"/><path d="M853.73,296.38l-20.1-10.93a1.76,1.76,0,0,1,.31-0.18L854,296.2l-0.31.18" transform="translate(0.34)"/><path d="M854,296.2l-20.1-10.93a1.81,1.81,0,0,1,.52-0.16L854.56,296a1.8,1.8,0,0,0-.52.16" transform="translate(0.34)"/></g></g></g><path d="M904.63,289a1.21,1.21,0,0,1,1.37,1.57l-1.57,12a2.29,2.29,0,0,1-1.81,2l-17,2.39L879,357.73a2.29,2.29,0,0,1-1.92,2l-12.75,1.8A1.2,1.2,0,0,1,863,360l6.56-50.72-17,2.39a1.28,1.28,0,0,1-1.46-1.55l1.58-12a2.48,2.48,0,0,1,1.91-2Z" transform="translate(0.34)" fill="#dfce00" stroke="#fff" stroke-miterlimit="10" stroke-width="3"/></g><g style="isolation:isolate"><g style="isolation:isolate"><path d="M820.82,338.8l20.11,10.93a1.06,1.06,0,0,0-.67-0.11l-20.1-10.93A1,1,0,0,1,820.82,338.8Z" transform="translate(0.34)"/><g clip-path="url(#p)"><g style="isolation:isolate"><path d="M840.26,349.62l-20.1-10.93a1,1,0,0,1,.43,0l20.1,10.93a1.2,1.2,0,0,0-.44,0" transform="translate(0.34)"/><path d="M840.69,349.64l-20.1-10.93a0.85,0.85,0,0,1,.2.07l20.1,10.94-0.2-.07" transform="translate(0.34)"/><path d="M840.89,349.71l-20.1-10.94,0,0,20.11,10.93,0,0" transform="translate(0.34)"/></g></g></g><g style="isolation:isolate"><path d="M815.74,313.48l20.1,10.93a1,1,0,0,0-.63-0.11l-20.1-10.93A1,1,0,0,1,815.74,313.48Z" transform="translate(0.34)"/><g clip-path="url(#q)"><g style="isolation:isolate"><path d="M835.22,324.3l-20.1-10.93a1.07,1.07,0,0,1,.41,0l20.11,10.94a1.13,1.13,0,0,0-.42,0" transform="translate(0.34)"/><path d="M835.64,324.33l-20.11-10.94,0.18,0.06,20.11,10.94-0.18-.07" transform="translate(0.34)"/><path d="M835.81,324.39l-20.11-10.94,0,0,20.1,10.93,0,0" transform="translate(0.34)"/></g></g></g><g style="isolation:isolate"><path d="M824.65,286.68l20.11,10.93a1.08,1.08,0,0,0-.67-0.1L824,286.58A1.06,1.06,0,0,1,824.65,286.68Z" transform="translate(0.34)"/><g clip-path="url(#r)"><g style="isolation:isolate"><path d="M844.09,297.52L824,286.58a1.24,1.24,0,0,1,.46,0l20.1,10.94a1.12,1.12,0,0,0-.46,0" transform="translate(0.34)"/><path d="M844.55,297.54l-20.1-10.94,0.17,0.06,20.11,10.94-0.18-.06" transform="translate(0.34)"/><path d="M844.73,297.6l-20.11-10.94,0,0,20.11,10.93h0" transform="translate(0.34)"/></g></g></g><polygon points="811.75 353.67 791.65 342.73 820.49 338.68 840.6 349.62 811.75 353.67"/><g style="isolation:isolate"><path d="M794.23,371.21l-20.1-10.94a1.36,1.36,0,0,1-.6-1.39l20.11,10.94A1.36,1.36,0,0,0,794.23,371.21Z" transform="translate(0.34)"/><g clip-path="url(#s)"><g style="isolation:isolate"><path d="M794.23,371.21l-20.1-10.94a1.36,1.36,0,0,1-.6-1.39l20.11,10.94a1.36,1.36,0,0,0,.59,1.38" transform="translate(0.34)"/></g></g></g><polygon points="815.26 327.16 795.15 316.22 815.46 313.37 835.56 324.3 815.26 327.16"/><polygon points="804.11 303.18 784 292.25 824.32 286.58 844.42 297.52 804.11 303.18"/><polygon points="793.97 369.83 773.86 358.89 782.27 294.15 802.37 305.09 793.97 369.83"/><path d="M844.09,297.52c0.83-.11,1.27.5,1.2,1.49l-1.67,12.34a2.15,2.15,0,0,1-1.64,1.79l-25.76,3.62-1.3,10.41,20.3-2.85a1.12,1.12,0,0,1,1.18,1.41L834.65,338a2.17,2.17,0,0,1-1.65,1.89l-20.12,2.83-1.46,10.91,28.84-4.05a1.08,1.08,0,0,1,1.18,1.41l-1.56,12.3a2.07,2.07,0,0,1-1.64,1.91l-43.33,6.09a1.19,1.19,0,0,1-1.27-1.5l8.4-64.74a2.28,2.28,0,0,1,1.74-1.9Z" transform="translate(0.34)" fill="#dfce00" stroke="#fff" stroke-miterlimit="10" stroke-width="3"/><g style="isolation:isolate"><path d="M802,305.09l-20.1-10.93a2.27,2.27,0,0,1,1.74-1.91l20.11,10.94A2.28,2.28,0,0,0,802,305.09Z" transform="translate(0.34)"/><g clip-path="url(#t)"><g style="isolation:isolate"><path d="M802,305.09l-20.1-10.93a1.81,1.81,0,0,1,.11-0.46l20.1,10.94a2.1,2.1,0,0,0-.11.45" transform="translate(0.34)"/><path d="M802.14,304.64L782,293.7a2.46,2.46,0,0,1,.13-0.29l20.11,10.94a2.09,2.09,0,0,0-.13.29" transform="translate(0.34)"/><path d="M802.27,304.35l-20.11-10.94,0.15-.25,20.1,10.93a2.52,2.52,0,0,0-.15.25" transform="translate(0.34)"/><path d="M802.42,304.1l-20.1-10.93a1.94,1.94,0,0,1,.17-0.22l20.1,10.93-0.17.22" transform="translate(0.34)"/><path d="M802.59,303.88l-20.1-10.93,0.2-.21,20.11,10.94-0.2.2" transform="translate(0.34)"/><path d="M802.8,303.68l-20.11-10.94,0.24-.18L803,303.49a1.77,1.77,0,0,0-.23.19" transform="translate(0.34)"/><path d="M803,303.49l-20.1-10.93a1.64,1.64,0,0,1,.29-0.17l20.1,10.93a2.5,2.5,0,0,0-.29.17" transform="translate(0.34)"/><path d="M803.31,303.32l-20.1-10.93a1.51,1.51,0,0,1,.45-0.14l20.11,10.94a1.5,1.5,0,0,0-.46.14" transform="translate(0.34)"/></g></g></g></g><g style="isolation:isolate"><g style="isolation:isolate"><path d="M766.11,346.48l20.1,10.94a1,1,0,0,0-.66-0.11l-20.1-10.94A1.1,1.1,0,0,1,766.11,346.48Z" transform="translate(0.34)"/><g clip-path="url(#u)"><g style="isolation:isolate"><path d="M785.55,357.31l-20.1-10.94a1.17,1.17,0,0,1,.44,0L786,357.33a1.08,1.08,0,0,0-.43,0" transform="translate(0.34)"/><path d="M786,357.33l-20.1-10.94,0.19,0.07,20.1,10.93-0.2-.07" transform="translate(0.34)"/><path d="M786.18,357.4l-20.1-10.93,0,0,20.1,10.94,0,0" transform="translate(0.34)"/></g></g></g><polygon points="764.14 360.37 744.03 349.43 765.78 346.37 785.89 357.31 764.14 360.37"/><g style="isolation:isolate"><path d="M746.57,377.89L726.46,367a1.22,1.22,0,0,1-.55-1.37L746,376.52A1.22,1.22,0,0,0,746.57,377.89Z" transform="translate(0.34)"/><g clip-path="url(#v)"><g style="isolation:isolate"><path d="M746.57,377.89L726.46,367a1.22,1.22,0,0,1-.55-1.37L746,376.52a1.22,1.22,0,0,0,.54,1.37" transform="translate(0.34)"/></g></g></g><g style="isolation:isolate"><path d="M749.78,297.23l12.06,6.56,1,0.55,7,3.82a1.18,1.18,0,0,0-.71-0.11l-20.1-10.93A1.12,1.12,0,0,1,749.78,297.23Z" transform="translate(0.34)"/><g clip-path="url(#w)"><g style="isolation:isolate"><path d="M769.17,308l-20.1-10.93a1.36,1.36,0,0,1,.49,0l20.1,10.94a1.29,1.29,0,0,0-.49,0" transform="translate(0.34)"/><path d="M769.65,308.07l-20.1-10.94,0.19,0.07,20.11,10.94-0.19-.07" transform="translate(0.34)"/><path d="M769.85,308.14L749.74,297.2l0,0,20.1,10.93,0,0" transform="translate(0.34)"/></g></g></g><polygon points="756.4 309.89 736.29 298.95 749.4 297.11 769.5 308.05 756.4 309.89"/><polygon points="746.36 376.52 726.25 365.58 734.65 300.84 754.75 311.78 746.36 376.52"/><g style="isolation:isolate"><path d="M754.42,311.78l-20.1-10.94A2.07,2.07,0,0,1,736,299l20.11,10.94A2.06,2.06,0,0,0,754.42,311.78Z" transform="translate(0.34)"/><g clip-path="url(#x)"><g style="isolation:isolate"><path d="M754.42,311.78l-20.1-10.94a2.4,2.4,0,0,1,.13-0.57l20.11,10.94a2.43,2.43,0,0,0-.13.57" transform="translate(0.34)"/><path d="M754.55,311.21l-20.11-10.94a1.52,1.52,0,0,1,.13-0.29l20.1,10.94a2.08,2.08,0,0,0-.13.29" transform="translate(0.34)"/><path d="M754.68,310.92L734.58,300a2.26,2.26,0,0,1,.13-0.22l20.11,10.94a1.7,1.7,0,0,0-.14.22" transform="translate(0.34)"/><path d="M754.81,310.7l-20.11-10.94,0.15-.19L755,310.51a1.46,1.46,0,0,0-.15.19" transform="translate(0.34)"/><path d="M755,310.51l-20.1-10.93,0.17-.17,20.11,10.94a1.39,1.39,0,0,0-.17.17" transform="translate(0.34)"/><path d="M755.13,310.34L735,299.41a1.28,1.28,0,0,1,.2-0.15l20.11,10.93a1.6,1.6,0,0,0-.2.16" transform="translate(0.34)"/><path d="M755.33,310.18l-20.11-10.93a1.42,1.42,0,0,1,.27-0.15L755.59,310a1.74,1.74,0,0,0-.26.15" transform="translate(0.34)"/><path d="M755.59,310l-20.1-10.93A1.52,1.52,0,0,1,736,299l20.11,10.94a1.53,1.53,0,0,0-.47.14" transform="translate(0.34)"/></g></g></g><path d="M769.17,308a1.16,1.16,0,0,1,1.27,1.49l-6.63,50.83,21.75-3.06a1.08,1.08,0,0,1,1.18,1.41L785.16,371a2,2,0,0,1-1.63,1.9L747.29,378a1.15,1.15,0,0,1-1.27-1.5l8.39-64.74a2.06,2.06,0,0,1,1.65-1.89Z" transform="translate(0.34)" fill="#dfce00" stroke="#fff" stroke-miterlimit="10" stroke-width="3"/></g><path d="M268,562.17q-2.45,0-4.88-.06l1.27-51.64c1.24,0,2.48,0,3.73.05Zm4.91,0-1.09-51.65q1.87,0,3.73-.12L277.72,562Q275.3,562.07,272.86,562.12Zm-14.69-.2q-2.44-.12-4.88-0.29l3.64-51.53q1.85,0.13,3.72.22Zm24.46-.23-3.44-51.54q1.87-.12,3.72-0.29l4.58,51.45Q285.06,561.54,282.63,561.7Zm-34.22-.47q-2.44-.23-4.87-0.51l6-51.31q1.84,0.22,3.69.39Zm44-.4-5.77-51.33q1.84-.21,3.67-0.46l7,51.18C295.61,560.44,294,560.65,292.36,560.83Zm-53.68-.74c-1.63-.23-3.26-0.48-4.86-0.74l8.4-51q1.82,0.3,3.65.56Zm63.39-.58-8.13-51q1.82-.29,3.63-0.62l9.34,50.8C305.31,559,303.68,559.25,302.07,559.51Zm-73.07-1c-1.62-.31-3.24-0.63-4.83-1L234.94,507q1.8,0.38,3.61.72Zm82.73-.77-10.52-50.58q1.82-.38,3.62-0.8l11.68,50.32Q314.13,557.23,311.73,557.73Zm-92.32-1.27q-2.39-.56-4.76-1.18l13.07-50q1.79,0.47,3.59.9Zm101.89-1-12.88-50q1.8-.46,3.59-1l14,49.72Q323.67,554.9,321.29,555.51ZM209.92,554c-1.56-.45-3.14-0.92-4.7-1.41l15.4-49.31q1.76,0.55,3.54,1.06Zm120.82-1.13-15.2-49.37q1.78-.55,3.54-1.13l16.31,49Q333.08,552.13,330.74,552.85ZM200.53,551c-1.57-.53-3.13-1.08-4.65-1.63l17.7-48.53q1.74,0.64,3.5,1.23ZM340,549.75l-17.46-48.62q1.75-.63,3.47-1.29L344.63,548Q342.35,548.92,340,549.75Zm-148.75-2.07c-1.53-.6-3.07-1.22-4.57-1.84l19.94-47.65q1.71,0.71,3.44,1.39Zm157.91-1.46-19.72-47.75q1.71-.71,3.41-1.45l20.8,47.28Q351.45,545.29,349.2,546.22Zm-167-2.34c-1.5-.67-3-1.36-4.48-2.06l22.15-46.67q1.67,0.79,3.36,1.54Zm175.92-1.6L336.24,495.5q1.68-.78,3.33-1.6l23,46.27Q360.35,541.25,358.14,542.29Zm-184.81-2.62c-1.48-.74-2.95-1.5-4.38-2.26l24.3-45.58q1.63,0.87,3.28,1.7Zm193.55-1.72-24-45.74q1.63-.86,3.24-1.75l25.08,45.16C369.75,536.42,368.29,537.2,366.88,537.95ZM164.65,535q-2.13-1.2-4.23-2.45l26.35-44.43q1.6,1,3.23,1.87Zm210.8-1.86-26.13-44.56q1.6-.94,3.18-1.91l27.14,44Q377.56,532,375.45,533.18ZM156.2,530q-2.08-1.3-4.12-2.64l28.4-43.15q1.55,1,3.13,2Zm227.57-2-28.15-43.31q1.55-1,3.08-2.05l29.15,42.65Q385.82,526.71,383.77,528ZM148,524.64q-2-1.4-4-2.84L174.38,480q1.5,1.09,3,2.15Zm243.83-2.12-30.12-42q1.51-1.08,3-2.2l31.08,41.26Q393.83,521.1,391.85,522.52Zm-251.77-3.65q-1.94-1.48-3.85-3l32.25-40.36q1.46,1.16,2.94,2.29Zm259.59-2.23-32-40.54q1.46-1.15,2.88-2.33l32.94,39.79Q401.58,515.12,399.66,516.64Zm-267.24-3.88c-1.27-1.06-2.53-2.14-3.73-3.2l34.11-38.8q1.39,1.22,2.8,2.41ZM407.2,510.4l-33.85-39q1.4-1.21,2.77-2.46l34.74,38.23Q409.05,508.79,407.2,510.4Zm-282.14-4.11q-1.8-1.66-3.56-3.35l35.83-37.21q1.34,1.29,2.71,2.55Zm289.38-2.47-35.59-37.44q1.34-1.28,2.66-2.58L418,500.4Q416.22,502.13,414.44,503.82ZM118,499.49q-1.72-1.73-3.4-3.5l37.48-35.55q1.28,1.35,2.59,2.67Zm303.38-2.6L384.1,461.15q1.28-1.34,2.53-2.71l38.11,34.87Q423.09,495.13,421.39,496.9Zm-310.12-4.51q-1.64-1.81-3.23-3.66l39.08-33.78q1.22,1.41,2.47,2.79ZM428,489.67l-38.9-34q1.22-1.4,2.41-2.83l39.66,33.1Q429.61,487.83,428,489.67ZM104.87,485q-1.56-1.89-3.07-3.82l40.61-31.92q1.14,1.46,2.32,2.88Zm329.41-2.83L393.86,450q1.16-1.46,2.28-2.94l41.15,31.23Q435.8,480.23,434.28,482.14ZM98.82,477.29q-1.47-2-2.9-4l42-30q1.08,1.51,2.18,3Zm341.38-2.95-41.86-30.27q1.09-1.5,2.14-3L443,470.33Q441.64,472.35,440.21,474.34Zm-347.07-5q-1.38-2-2.71-4.08l43.37-28.06q1,1.56,2,3.08Zm352.63-3.07L402.56,438q1-1.55,2-3.13l43.86,27.29Q447.12,464.2,445.77,466.25Zm-358-5.15q-1.28-2.08-2.51-4.19l44.62-26q0.93,1.6,1.91,3.18ZM451,457.92l-44.48-26.27q0.95-1.6,1.85-3.23l45.07,25.25Q452.2,455.81,451,457.92ZM82.89,452.66q-1.18-2.14-2.32-4.31l45.78-23.94q0.86,1.64,1.75,3.25Zm372.87-3.31L410.1,425.18q0.87-1.64,1.71-3.31L458,445Q456.9,447.18,455.76,449.35ZM78.36,444c-0.72-1.47-1.44-3-2.12-4.42l46.84-21.78q0.78,1.67,1.59,3.32Zm381.79-3.44-46.72-22q0.79-1.68,1.55-3.38l47.22,20.94Q461.2,438.34,460.15,440.56ZM74.24,435.14q-1-2.24-1.91-4.5L120.12,411q0.7,1.71,1.44,3.4Zm389.9-3.56-47.69-19.85q0.71-1.7,1.38-3.43L466,427C465.38,428.54,464.76,430.08,464.14,431.58ZM70.52,426.07c-0.59-1.53-1.16-3.08-1.71-4.62l48.66-17.33q0.62,1.74,1.28,3.46Zm397.18-3.68-48.58-17.57q0.63-1.74,1.22-3.5l49,16.43C468.81,419.28,468.26,420.85,467.7,422.39ZM67.23,416.83c-0.52-1.58-1-3.16-1.49-4.7l49.42-15q0.54,1.76,1.11,3.5Zm403.61-3.76-49.34-15.3q0.55-1.75,1-3.53l49.69,14.12C471.79,409.92,471.31,411.51,470.83,413.07ZM64.37,407.45q-0.66-2.36-1.27-4.74L113.16,390q0.46,1.8,1,3.58Zm409.15-3.82-50-13q0.46-1.78.88-3.58l50.29,11.79C474.32,400.45,473.93,402.06,473.52,403.63ZM61.95,397.94c-0.36-1.59-.72-3.2-1-4.8l50.6-10.39q0.37,1.81.79,3.61Zm413.82-3.87-50.56-10.61q0.38-1.82.72-3.64l50.78,9.46Q476.26,391.68,475.76,394.07ZM60,388.33q-0.44-2.41-.82-4.83l51-8q0.29,1.83.62,3.65Zm417.59-3.9-51-8.25q0.29-1.83.55-3.67l51.17,7.07Q477.95,382,477.56,384.42ZM58.45,378.64q-0.33-2.42-.59-4.86l51.34-5.68q0.2,1.85.45,3.68Zm420.45-3.91-51.32-5.91q0.21-1.83.38-3.68l51.44,4.71C479.25,371.48,479.08,373.13,478.9,374.73ZM57.37,368.91Q57.16,366.47,57,364l51.55-3.29q0.12,1.85.28,3.69ZM479.79,365l-51.54-3.52q0.13-1.85.21-3.71l51.6,2.36C480,361.71,479.9,363.34,479.79,365Zm-423-5.83q-0.1-2.44-.14-4.89l51.65-.94q0,1.85.11,3.7Zm423.5-3.94L428.59,354q0-1.85,0-3.71h51.66Q480.29,352.75,480.24,355.2Zm-372-5.62-51.66-.21q0-2.46.08-4.9l51.64,1.4Q108.23,347.72,108.22,349.58ZM428.62,348q0-1.87-.1-3.73l51.62-1.88c0.06,1.61.1,3.24,0.12,4.86Zm-320.2-5.87-51.59-2.57q0.12-2.46.3-4.89l51.52,3.76Q108.52,340.3,108.42,342.15Zm319.92-1.54q-0.11-1.87-.26-3.72l51.48-4.25q0.2,2.42.35,4.86ZM109,334.76l-51.42-5q0.24-2.44.53-4.87l51.29,6.13Q109.14,332.91,109,334.76Zm318.78-1.55c-0.13-1.24-.28-2.47-0.44-3.7l51.23-6.61q0.31,2.42.57,4.85Zm-317.9-5.82-51.14-7.31q0.35-2.43.75-4.84l51,8.49Q110.11,325.56,109.84,327.4Zm316.94-1.55c-0.19-1.23-.39-2.44-0.6-3.66l50.87-9q0.42,2.41.8,4.84Zm-315.72-5.76-50.74-9.67q0.46-2.41,1-4.81l50.5,10.85Q111.41,318.26,111.06,320.08Zm314.44-1.53q-0.37-1.82-.77-3.63l50.4-11.34q0.54,2.38,1,4.79Zm-312.88-5.71-50.24-12q0.57-2.39,1.2-4.75l49.94,13.19Q113,311,112.62,312.85Zm311.26-1.51q-0.45-1.8-.94-3.6l49.81-13.67q0.64,2.35,1.24,4.73Zm-309.37-5.65L64.89,291.33q0.68-2.35,1.41-4.68l49.28,15.5Q115,303.91,114.51,305.69Zm307.4-1.5q-0.53-1.77-1.1-3.52l49.11-16c0.5,1.54,1,3.12,1.47,4.69Zm-305.17-5.57L67.84,282q0.79-2.33,1.64-4.63L118,295.11Q117.33,296.85,116.73,298.62Zm302.88-1.48q-0.61-1.74-1.26-3.46l48.32-18.28c0.58,1.54,1.15,3.09,1.69,4.63Zm-300.32-5.49L71.23,272.71q0.9-2.28,1.85-4.54l47.62,20Q120,289.91,119.29,291.65ZM417,290.23q-0.69-1.71-1.42-3.4L463,266.33q1,2.24,1.89,4.51ZM122.17,284.8L75,263.65c0.68-1.5,1.37-3,2.07-4.47l46.61,22.26Q122.93,283.11,122.17,284.8Zm291.89-1.36q-0.77-1.67-1.57-3.32l46.41-22.68c0.72,1.48,1.43,3,2.1,4.43Zm-288.69-5.35-46.1-23.31c0.74-1.46,1.5-2.93,2.28-4.37l45.53,24.4Q126.21,276.44,125.37,278.09Zm285.46-1.27q-0.85-1.64-1.74-3.27l45.32-24.79q1.17,2.14,2.29,4.31Zm-282-5.27-45-25.43q1.21-2.14,2.47-4.25l44.37,26.46Q129.79,269.93,128.88,271.55Zm278.41-1.21q-0.93-1.6-1.89-3.18l44.13-26.86q1.27,2.09,2.49,4.2Zm-274.61-5.15-43.73-27.5q1.3-2.07,2.65-4.12l43.09,28.49Q133.67,263.6,132.68,265.18ZM403.44,264q-1-1.56-2-3.09l42.85-28.86q1.37,2,2.69,4.09Zm-266.66-5L94.35,229.5q1.4-2,2.85-4L138.93,256Q137.83,257.46,136.77,259Zm262.53-1.11q-1.07-1.51-2.17-3l41.46-30.81q1.46,2,2.87,4ZM141.15,253l-41-31.42q1.49-1.94,3-3.85l40.27,32.35Q142.28,251.52,141.15,253Zm253.74-1.06q-1.14-1.47-2.32-2.91l40-32.67q1.54,1.89,3,3.81ZM145.8,247.2l-39.53-33.26q1.58-1.88,3.2-3.72l38.74,34.17Q147,245.78,145.8,247.2Zm244.4-1q-1.21-1.41-2.46-2.8l38.47-34.47q1.63,1.82,3.22,3.67Zm-239.49-4.56-38-35q1.66-1.8,3.37-3.57l37.13,35.92Q152,240.28,150.71,241.63Zm234.54-1q-1.27-1.35-2.57-2.67l36.83-36.22q1.72,1.75,3.4,3.53ZM155.86,236.3l-36.3-36.75q1.74-1.72,3.52-3.4l35.45,37.57Q157.19,235,155.86,236.3ZM380,235.38q-1.33-1.3-2.69-2.56L412.49,195q1.79,1.67,3.55,3.37Zm-218.79-4.16-34.57-38.39q1.82-1.64,3.68-3.24L164,228.77Q162.63,230,161.26,231.22Zm213.34-.89q-1.38-1.23-2.79-2.42l33.34-39.46c1.25,1.06,2.5,2.14,3.72,3.22Zm-207.72-3.94-32.76-39.94q1.89-1.55,3.82-3.06l31.83,40.68Q168.31,225.21,166.87,226.39Zm202.06-.85q-1.44-1.16-2.91-2.29l31.49-41q1.95,1.5,3.86,3Zm-196.22-3.73-30.9-41.4q2-1.46,4-2.89l29.93,42.1Q174.2,220.71,172.72,221.81Zm190.33-.8q-1.49-1.09-3-2.15l29.57-42.36c1.34,0.93,2.68,1.9,4,2.86Zm-184.3-3.49-29-42.77c1.35-.92,2.73-1.83,4.09-2.71l28,43.44Q180.28,216.48,178.76,217.52ZM357,216.76q-1.55-1-3.11-2l27.59-43.67q2.08,1.31,4.12,2.67Zm-172-3.24-27-44.07q2.08-1.27,4.2-2.5l25.93,44.68Q186.55,212.55,185,213.52Zm165.72-.72q-1.59-1-3.2-1.87L373,166c1.42,0.81,2.85,1.64,4.25,2.48Zm-159.32-3-24.88-45.27q2.14-1.18,4.31-2.3l23.84,45.83Q193,208.92,191.37,209.81Zm152.88-.68c-1.09-.58-2.19-1.16-3.3-1.72l23.43-46q2.19,1.11,4.34,2.27Zm-146.32-2.73L175.16,160q2.18-1.07,4.39-2.09l21.72,46.87Q199.59,205.58,197.92,206.39Zm139.69-.64q-1.67-.8-3.35-1.56l21.25-47.09c1.5,0.67,3,1.38,4.47,2.08Zm-133-2.46L184,155.92c1.49-.65,3-1.28,4.49-1.89L208,201.86Q206.32,202.56,204.62,203.3Zm126.23-.6q-1.7-.72-3.43-1.41l19-48c1.53,0.61,3.06,1.23,4.56,1.87Zm-119.38-2.2L193.1,152.22q2.29-.87,4.6-1.69l17.24,48.7Q213.2,199.85,211.47,200.51ZM323.94,200q-1.73-.64-3.49-1.25l16.76-48.86c1.54,0.53,3.1,1.08,4.64,1.65ZM218.45,198L202.35,149c1.55-.51,3.13-1,4.69-1.48L222,196.93Q220.2,197.46,218.45,198Zm98.48-.48q-1.76-.56-3.54-1.08l14.46-49.59q2.36,0.69,4.69,1.43Zm-91.39-1.66-13.79-49.78q2.36-.65,4.74-1.26l12.63,50.09Q227.32,195.4,225.54,195.89Zm84.28-.41q-1.79-.47-3.59-0.91l12.15-50.21q2.39,0.58,4.75,1.21Zm-77.1-1.4-11.46-50.37q2.38-.54,4.79-1l10.3,50.62Q234.52,193.67,232.72,194.08Zm69.9-.34q-1.8-.39-3.62-0.74l9.79-50.72q2.41,0.47,4.81,1ZM240,192.61l-9.1-50.85q2.4-.43,4.82-0.81l7.94,51Q241.79,192.29,240,192.61Zm55.39-.27q-1.83-.31-3.67-0.58l7.43-51.12q2.42,0.35,4.83.76Zm-48.07-.87-6.74-51.22q2.42-.32,4.86-0.58L251,191Q249.13,191.23,247.29,191.47Zm40.72-.2q-1.83-.22-3.68-0.4l5-51.41c1.61,0.16,3.25.34,4.88,0.54Zm-33.34-.6-4.37-51.47q2.43-.21,4.88-0.36l3.2,51.56Q256.51,190.52,254.67,190.68Zm26-.13q-1.84-.14-3.7-0.23l2.69-51.59q2.45,0.13,4.89.31Zm-18.55-.33-2-51.62q2.43-.09,4.87-0.13l0.85,51.65Q263.93,190.14,262.07,190.22Zm11.14-.05q-1.85-.05-3.71-0.07l0.33-51.66q2.46,0,4.9.09Z" transform="translate(0.34)" fill="#502d61"/><circle cx="268.77" cy="350.3" r="170.49" fill="#502d61"/><path d="M162.65,325.11V264.19H188v8.53h-15.4v15.49H184.4v8.53H172.57v28.37h-9.92Z" transform="translate(0.34)" fill="#ffeb08"/><path d="M221,311.71c0,3.48-.17,7.22-4.09,10.7-3.48,3-7.83,3.57-11.05,3.57s-7.57-.52-11.05-3.57c-3.92-3.48-4.09-7.22-4.09-10.7V277.59c0-3.48.17-7.22,4.09-10.7,3.48-3,7.83-3.57,11.05-3.57s7.57,0.52,11.05,3.57c3.92,3.48,4.09,7.22,4.09,10.7v34.11Zm-20.36-.35a7.34,7.34,0,0,0,1,4.26,5.89,5.89,0,0,0,8.53,0,7.34,7.34,0,0,0,1-4.26V277.94a7.34,7.34,0,0,0-1-4.26,5.89,5.89,0,0,0-8.53,0,7.34,7.34,0,0,0-1,4.26v33.42Z" transform="translate(0.34)" fill="#ffeb08"/><path d="M247.23,325.11a13.49,13.49,0,0,1-1.48-7.22V304.22c0-1.65-.09-3.57-1.48-4.79a5.56,5.56,0,0,0-3.57-1h-3.92v26.63h-9.92V264.19h16.36c5.4,0,8.79,1.74,10.44,3.74,1.83,2.18,2.61,5.92,2.61,8.7v7a10.2,10.2,0,0,1-2.61,7.4,8,8,0,0,1-4.79,2.35v0.26a10.46,10.46,0,0,1,3.74,2c2.78,2.44,3,5.31,3,7.83v13.05c0,5.48.35,7.14,2.78,8.18v0.44H247.23Zm-6-35.77a6,6,0,0,0,3.65-.87c1.39-1,1.48-2.87,1.48-4V278.2c0-2.61-.44-3.57-0.78-4.09a3.46,3.46,0,0,0-3.22-1.39h-5.57v16.62h4.44Z" transform="translate(0.34)" fill="#ffeb08"/><path d="M281.52,299.79H276v-8.53h15.49v33.85h-8.09v-5.83h-0.26a11.92,11.92,0,0,1-2.7,4.61c-1.91,1.83-4.35,2.09-6.53,2.09-3.83,0-6.53-.78-9-3.57-2.78-3.22-3.22-6.79-3.22-10.09V277.68c0-4.79,1-8.44,4.7-11.31a15.67,15.67,0,0,1,10-3c4.61,0,8.79,1.13,11.4,3.66,1.65,1.57,3.65,4.7,3.65,10.18v6.53h-9.92v-5.92c0-1.65-.09-3.39-1.22-4.61a4.83,4.83,0,0,0-3.65-1.31,4.7,4.7,0,0,0-3.92,1.48,6.58,6.58,0,0,0-1.13,4.35V311.1a8.29,8.29,0,0,0,.87,4.44,5,5,0,0,0,4.44,2,4.17,4.17,0,0,0,3.57-1.74,7.07,7.07,0,0,0,1-4.26V299.79Z" transform="translate(0.34)" fill="#ffeb08"/><path d="M297.27,264.19h25.41v8.53H307.2v14.62h12v8.53h-12v20.71H324v8.53H297.27V264.19Z" transform="translate(0.34)" fill="#ffeb08"/><path d="M336,325.11V272.72H325.3v-8.53h31.15v8.53H345.92v52.39H336Z" transform="translate(0.34)" fill="#ffeb08"/><path d="M161.69,331.53h18.36a10.66,10.66,0,0,1,8.09,3.31c2.7,2.87,3.13,6.7,3.13,9.83v5a11.23,11.23,0,0,1-1.31,5.74,6.26,6.26,0,0,1-4.7,3.22v0.17a7.63,7.63,0,0,1,5.31,4.61,15.62,15.62,0,0,1,1,6.61v10.09A14.81,14.81,0,0,1,189.8,388c-2.35,3.92-5.66,4.44-8.88,4.44H161.69V331.53Zm14.79,23.58a4.83,4.83,0,0,0,3.74-1.57,7.31,7.31,0,0,0,1.13-4.26v-4a7.7,7.7,0,0,0-.78-3.66c-1-1.48-3-1.57-3.92-1.57h-5v15.05h4.87Zm0.87,28.8c1.39,0,2.87-.09,3.74-1.83,0.35-.7.61-1.74,0.61-5.57V371.3c0-3.83-.44-5.13-1-5.83-1.13-1.65-3.13-1.83-4.7-1.83h-4.44v20.28h5.74Z" transform="translate(0.34)" fill="#ffeb08"/><path d="M226.44,379c0,3.48-.17,7.22-4.09,10.7-3.48,3-7.83,3.57-11.05,3.57s-7.57-.52-11.05-3.57c-3.92-3.48-4.09-7.22-4.09-10.7V344.93c0-3.48.17-7.22,4.09-10.7,3.48-3,7.83-3.57,11.05-3.57s7.57,0.52,11.05,3.57c3.92,3.48,4.09,7.22,4.09,10.7V379Zm-20.36-.35a7.34,7.34,0,0,0,1,4.26,5.89,5.89,0,0,0,8.53,0,7.34,7.34,0,0,0,1-4.26V345.28a7.34,7.34,0,0,0-1-4.26,5.89,5.89,0,0,0-8.53,0,7.34,7.34,0,0,0-1,4.26V378.7Z" transform="translate(0.34)" fill="#ffeb08"/><path d="M252.63,392.44a13.49,13.49,0,0,1-1.48-7.22V371.56c0-1.65-.09-3.57-1.48-4.79a5.56,5.56,0,0,0-3.57-1h-3.92v26.63h-9.92V331.53h16.36c5.4,0,8.79,1.74,10.44,3.74,1.83,2.18,2.61,5.92,2.61,8.7v7a10.2,10.2,0,0,1-2.61,7.4,8,8,0,0,1-4.79,2.35v0.26a10.46,10.46,0,0,1,3.74,2c2.78,2.44,3,5.31,3,7.83v13.05c0,5.48.35,7.14,2.78,8.18v0.44H252.63Zm-6-35.77a6,6,0,0,0,3.65-.87c1.39-1,1.48-2.87,1.48-4v-6.27c0-2.61-.44-3.57-0.78-4.09a3.46,3.46,0,0,0-3.22-1.39h-5.57v16.62h4.44Z" transform="translate(0.34)" fill="#ffeb08"/><path d="M267.34,331.53h9.92v60.92h-9.92V331.53Z" transform="translate(0.34)" fill="#ffeb08"/><path d="M303.1,392.44L292.75,356.5l-0.35.09,0.44,6.88v29h-9.92V331.53h11l10.18,34.37h0.26l-0.52-6.44V331.53h9.92v60.92H303.1Z" transform="translate(0.34)" fill="#ffeb08"/><path d="M339,367.12h-5.57v-8.53h15.49v33.85h-8.09v-5.83h-0.26a11.92,11.92,0,0,1-2.7,4.61c-1.91,1.83-4.35,2.09-6.53,2.09-3.83,0-6.53-.78-9-3.57-2.78-3.22-3.22-6.79-3.22-10.09V345c0-4.79,1-8.44,4.7-11.31a15.67,15.67,0,0,1,10-3c4.61,0,8.79,1.13,11.4,3.66,1.65,1.57,3.65,4.7,3.65,10.18V351H339V345.1c0-1.65-.09-3.39-1.22-4.61a4.83,4.83,0,0,0-3.65-1.31,4.7,4.7,0,0,0-3.92,1.48A6.58,6.58,0,0,0,329,345v33.42a8.29,8.29,0,0,0,.87,4.44,5,5,0,0,0,4.44,2,4.17,4.17,0,0,0,3.57-1.74,7.07,7.07,0,0,0,1-4.26V367.12Z" transform="translate(0.34)" fill="#ffeb08"/><path d="M161,459.4V398.48h25.32V407h-15.4V422.5h11.83V431H170.92V459.4H161Z" transform="translate(0.34)" fill="#ffeb08"/><path d="M189.63,398.48h9.92V459.4h-9.92V398.48Z" transform="translate(0.34)" fill="#ffeb08"/><path d="M213.74,459.4V407H203v-8.53h31.15V407H223.66V459.4h-9.92Z" transform="translate(0.34)" fill="#ffeb08"/><path d="M257.42,459.4l-10.36-35.94-0.35.09,0.44,6.88v29h-9.92V398.48h11l10.18,34.37h0.26l-0.52-6.44V398.48H268V459.4H257.42Z" transform="translate(0.34)" fill="#ffeb08"/><path d="M273.7,398.48h25.41V407H283.62v14.62h12v8.53h-12v20.71h16.79v8.53H273.7V398.48Z" transform="translate(0.34)" fill="#ffeb08"/><path d="M313.38,439.12v5.48c0,3,.26,4.09.61,4.79,1,2.09,2.7,2.35,4.35,2.35,1,0,2.78-.09,3.83-1.22,0.87-1,1-3,1-4.09v-4a9,9,0,0,0-3.13-6.87l-10.18-9.4a21.65,21.65,0,0,1-4.09-4.79,14.82,14.82,0,0,1-2-7.83v-4.87a10.88,10.88,0,0,1,3.31-7.57c3.48-3.22,9.22-3.48,11.4-3.48,3.48,0,7.66.52,10.88,3.66a12.31,12.31,0,0,1,3.48,9.31v6.18h-9.92v-5c0-1.39.09-2.78-1.13-4.18a4.34,4.34,0,0,0-3.39-1.39,5.46,5.46,0,0,0-3.65,1.22,4.14,4.14,0,0,0-1,3.22v2.78c0,2.18.61,3.31,2.44,5l10.18,9.31c3.31,3,6.79,6.44,6.79,12.88v7c0,2.87-.35,6.27-3.48,9.31s-7,3.48-10.7,3.48a17.57,17.57,0,0,1-10.18-2.78c-4.53-3.13-5.22-7.75-5.22-10.79v-7.57h9.92Z" transform="translate(0.34)" fill="#ffeb08"/><path d="M347.32,439.12v5.48c0,3,.26,4.09.61,4.79,1,2.09,2.7,2.35,4.35,2.35,1,0,2.78-.09,3.83-1.22,0.87-1,1-3,1-4.09v-4a9,9,0,0,0-3.13-6.87l-10.18-9.4a21.65,21.65,0,0,1-4.09-4.79,14.82,14.82,0,0,1-2-7.83v-4.87a10.88,10.88,0,0,1,3.31-7.57c3.48-3.22,9.22-3.48,11.4-3.48,3.48,0,7.66.52,10.88,3.66a12.31,12.31,0,0,1,3.48,9.31v6.18h-9.92v-5c0-1.39.09-2.78-1.13-4.18a4.34,4.34,0,0,0-3.39-1.39,5.46,5.46,0,0,0-3.65,1.22,4.14,4.14,0,0,0-1,3.22v2.78c0,2.18.61,3.31,2.44,5l10.18,9.31c3.31,3,6.79,6.44,6.79,12.88v7c0,2.87-.35,6.27-3.48,9.31s-7,3.48-10.7,3.48a17.57,17.57,0,0,1-10.18-2.78c-4.53-3.13-5.22-7.75-5.22-10.79v-7.57h9.92Z" transform="translate(0.34)" fill="#ffeb08"/><path d="M371.78,459.4V449h9.4V459.4h-9.4Zm2.44-13.75-2-17.14v-30h8.53v30l-2,17.14h-4.52Z" transform="translate(0.34)" fill="#ffeb08"/><path d="M677.23,446.8q-2.59,0-5.15-.07l0.12-5.11q2.51,0.06,5.06.07Zm-10.3-.24q-2.59-.11-5.15-0.25l0.3-5.1q2.51,0.15,5.05.25Zm-10.29-.6q-2.59-.19-5.13-0.44l0.48-5.08q2.5,0.24,5,.43Zm-10.26-1q-2.58-.29-5.12-0.62l0.66-5.07q2.49,0.33,5,.61Zm-10.22-1.34q-2.57-.38-5.09-0.8l0.84-5q2.48,0.41,5,.79ZM626,441.95q-2.55-.47-5.06-1l1-5q2.46,0.5,5,1Zm-10.1-2.07q-2.53-.57-5-1.17l1.21-5q2.44,0.59,4.93,1.15Zm-10-2.43q-2.52-.66-5-1.35l1.38-4.92q2.42,0.68,4.89,1.33ZM596,434.66q-2.49-.75-4.92-1.53l1.56-4.87q2.39,0.77,4.83,1.5Zm-9.82-3.15q-2.47-.84-4.87-1.71L583,425q2.36,0.85,4.78,1.68Zm-9.7-3.5q-2.44-.93-4.8-1.88l1.91-4.74q2.32,0.93,4.71,1.85Zm-9.57-3.85q-2.41-1-4.73-2.05l2.08-4.67q2.28,1,4.64,2ZM557.45,420q-2.38-1.11-4.65-2.23l2.25-4.59q2.23,1.09,4.57,2.18Zm-9.26-4.54q-2.35-1.21-4.57-2.4l2.42-4.5q2.18,1.17,4.48,2.35Zm-9.09-4.88q-2.32-1.31-4.47-2.58l2.59-4.4q2.11,1.24,4.39,2.52Zm-8.9-5.24q-2.3-1.42-4.37-2.76l2.78-4.29q2,1.3,4.28,2.7Zm-8.68-5.62c-1.56-1.06-3-2.06-4.25-3l3-4.15c1.24,0.89,2.62,1.86,4.14,2.89Zm-8.42-6.06c-2.68-2-4.07-3.26-4.13-3.31l3.35-3.85s1.35,1.17,3.88,3.11Z" transform="translate(0.34)" fill="#fff"/><polygon points="672.51 469.68 715.28 442.03 669.95 418.81 672.51 469.68" fill="#fff"/><path d="M678.93,441.69q-2.59,0-5.15-.07l0.12-5.11q2.52,0.06,5.06.07Zm-10.3-.24q-2.59-.1-5.15-0.25l0.3-5.1q2.51,0.15,5.05.25Zm-10.29-.6q-2.59-.19-5.13-0.44l0.48-5.08q2.5,0.24,5,.43Zm-10.26-1q-2.58-.29-5.12-0.62l0.66-5.06q2.49,0.33,5,.61Zm-10.22-1.34q-2.57-.38-5.09-0.8l0.84-5q2.48,0.41,5,.79Zm-10.17-1.7q-2.55-.47-5.06-1l1-5q2.46,0.5,5,1Zm-10.1-2.07q-2.54-.57-5-1.17l1.21-5q2.44,0.59,4.93,1.15Zm-10-2.43q-2.52-.66-5-1.35l1.38-4.92q2.42,0.68,4.89,1.33Zm-9.92-2.79q-2.49-.75-4.92-1.53l1.56-4.87q2.38,0.77,4.83,1.5Zm-9.82-3.15q-2.47-.84-4.87-1.71l1.73-4.81q2.35,0.85,4.78,1.68Zm-9.7-3.5q-2.44-.93-4.8-1.88l1.91-4.74q2.32,0.93,4.72,1.85Zm-9.57-3.85q-2.41-1-4.73-2.05l2.08-4.66q2.28,1,4.64,2Zm-9.42-4.19q-2.38-1.11-4.65-2.23l2.25-4.58q2.23,1.09,4.57,2.18Zm-9.27-4.54q-2.35-1.21-4.57-2.4l2.42-4.5q2.18,1.17,4.48,2.35Zm-9.09-4.89q-2.32-1.31-4.47-2.58l2.59-4.4q2.11,1.24,4.39,2.52Zm-8.9-5.24q-2.3-1.42-4.37-2.76l2.78-4.29q2,1.31,4.28,2.7Zm-8.68-5.62c-1.56-1.06-3-2.05-4.25-3l3-4.15q1.86,1.34,4.14,2.89Zm-8.42-6.06c-2.68-2.05-4.07-3.26-4.13-3.31l3.35-3.85s1.35,1.17,3.88,3.11Z" transform="translate(0.34)" fill="#e42125"/><polygon points="674.21 464.58 716.98 436.92 671.65 413.7 674.21 464.58" fill="#e42125"/><path d="M1225.64,431.81q-2.4,1-4.78,1.93L1219,429q2.34-.92,4.7-1.89Zm-9.59,3.77q-2.43.91-4.85,1.76l-1.7-4.82q2.37-.83,4.76-1.72Zm-9.72,3.43q-2.46.82-4.9,1.58l-1.53-4.87q2.4-.75,4.82-1.55Zm-9.83,3.08q-2.49.73-5,1.41l-1.35-4.93q2.42-.66,4.87-1.38Zm-9.94,2.72q-2.51.65-5,1.23l-1.17-5q2.44-.58,4.92-1.21Zm-10,2.37q-2.54.55-5,1l-1-5q2.46-.49,5-1Zm-10.11,2q-2.56.46-5.08,0.86l-0.81-5q2.48-.4,5-0.85Zm-10.18,1.64q-2.58.36-5.11,0.68l-0.63-5.07q2.49-.31,5-0.67ZM1146,452.08q-2.59.27-5.13,0.5l-0.45-5.09q2.5-.22,5-0.49Zm-10.27.9q-2.6.18-5.15,0.31l-0.26-5.1q2.5-.13,5.06-0.3Zm-10.3.53q-2.61.08-5.15,0.12l-0.08-5.11q2.5,0,5.06-.12Zm-10.31.16q-2.62,0-5.16-.06l0.11-5.11q2.49,0.05,5.06.06v5.11Zm-10.31-.22q-2.62-.11-5.15-0.25l0.3-5.1q2.48,0.14,5.06.25Zm-10.3-.6q-2.63-.2-5.14-0.44l0.49-5.08q2.46,0.23,5,.43Zm-10.27-1q-2.65-.31-5.12-0.64l0.69-5.06q2.42,0.33,5,.63ZM1074,450.48q-2.67-.42-5.1-0.85l0.9-5c1.58,0.28,3.24.56,5,.83Zm-10.18-1.82c-1.85-.37-3.54-0.74-5.07-1.09l1.14-5c1.49,0.34,3.14.7,4.94,1.06Zm-10.11-2.33c-3.26-.85-5-1.43-5.09-1.45l1.6-4.85s1.69,0.55,4.78,1.36Z" transform="translate(0.34)" fill="#fff"/><polygon points="1230.18 454.86 1258.91 412.8 1208.12 408.95 1230.18 454.86" fill="#fff"/><path d="M1225.23,426.44q-2.4,1-4.78,1.93l-1.87-4.75q2.34-.92,4.69-1.89Zm-9.59,3.77q-2.43.91-4.84,1.76l-1.7-4.82q2.37-.83,4.76-1.73Zm-9.72,3.43q-2.46.82-4.9,1.58l-1.53-4.87q2.4-.75,4.82-1.55Zm-9.83,3.08q-2.49.73-5,1.4l-1.35-4.93q2.42-.66,4.87-1.38Zm-9.94,2.72q-2.52.64-5,1.23l-1.17-5q2.44-.58,4.92-1.21Zm-10,2.37q-2.54.55-5,1l-1-5q2.46-.49,5-1Zm-10.11,2q-2.56.46-5.08,0.86l-0.81-5q2.48-.4,5-0.85Zm-10.18,1.64q-2.57.36-5.11,0.68l-0.63-5.07q2.49-.31,5-0.67Zm-10.23,1.27q-2.59.27-5.13,0.5l-0.45-5.09q2.5-.22,5-0.49Zm-10.27.9q-2.6.18-5.15,0.31l-0.26-5.1q2.5-.13,5.05-0.3Zm-10.3.53q-2.61.09-5.15,0.13l-0.08-5.11q2.5,0,5.06-.12Zm-10.31.16q-2.62,0-5.16-.06l0.11-5.11q2.49,0.05,5.06.06v5.11Zm-10.31-.22q-2.62-.1-5.15-0.25l0.3-5.1q2.48,0.14,5.06.25Zm-10.3-.6q-2.63-.2-5.14-0.44l0.49-5.09q2.46,0.23,5,.43Zm-10.27-1q-2.65-.3-5.12-0.64l0.69-5.06q2.42,0.33,5,.63Zm-10.23-1.39q-2.67-.42-5.1-0.85l0.9-5q2.37,0.42,5,.83Zm-10.18-1.82c-1.85-.37-3.54-0.74-5.07-1.09l1.14-5q2.23,0.51,4.94,1.06ZM1053.32,441c-3.26-.85-5-1.43-5.09-1.46l1.6-4.85s1.69,0.55,4.78,1.36Z" transform="translate(0.34)" fill="#e42125"/><polygon points="1229.77 449.5 1258.5 407.43 1207.71 403.58 1229.77 449.5" fill="#e42125"/><path d="M1443.3,219.66a4.94,4.94,0,0,1-4.65,4.13h-94.16l-2.93,18.44,40.41-.09a3.54,3.54,0,0,1,3.62,4.13l-1.4,10.58a5,5,0,0,1-4.64,4.47h-40.41l-11,63.33a4.75,4.75,0,0,1-4.65,4.39l-12.84-.09c-2.32,0-3.87-1.81-3.61-4.39l18.29-115.28a5,5,0,0,1,4.65-4.39h111.39c2.32,0,3.62,1.81,3.36,4.39Z" transform="translate(0.34)"/><path d="M1386.74,326.5c-0.58,1.3-1.45,2.46-2.76,2.46h-18.67c-1.3,0-1.88-1.16-1.3-2.46l41.76-81.93c0.58-1.31,1.31-2.47,2.76-2.47h27.12a2.64,2.64,0,0,1,2.46,2.47l18.42,81.93a2.24,2.24,0,0,1-2.32,2.46h-18.11c-1.45,0-1.88-1.16-2-2.46L1431,308.94h-36.4ZM1419,265l-16,25.68h24.28Z" transform="translate(0.34)"/><path d="M1539.6,242.54a2.12,2.12,0,0,1,2.17,2.61l-1.71,12.56a3,3,0,0,1-2.9,2.61h-29.62l-11.05,66a3,3,0,0,1-3,2.61h-16.12a2.07,2.07,0,0,1-2.17-2.61l11-66H1457.4a2.3,2.3,0,0,1-2.33-2.61l1.71-12.56a3.25,3.25,0,0,1,3-2.61h79.76Z" transform="translate(0.34)"/><path d="M1320.92,369l24.61-26.62a5.55,5.55,0,0,1,4.36-2.12h19.43c1.77,0,2.12,1.65.58,3.18l-31.45,31.33,22.14,42c0.83,1.65.94,3.65-1.41,3.65h-17.55a3.48,3.48,0,0,1-3.53-2.12L1323,389.82l-5.89,5.89L1314,418.44a2.38,2.38,0,0,1-2.24,2h-16.84a1.67,1.67,0,0,1-1.65-2L1304,342.23a2.17,2.17,0,0,1,2.12-2h17a1.66,1.66,0,0,1,1.65,2Z" transform="translate(0.34)"/><path d="M1378.57,495.59a2.37,2.37,0,0,1-2.24,2h-16.84a1.66,1.66,0,0,1-1.64-2l20.9-153.36a2.16,2.16,0,0,1,2.12-2h17a1.66,1.66,0,0,1,1.65,2Z" transform="translate(0.34)"/><path d="M1453.94,402.07a1.54,1.54,0,0,1,1.53,1.88l-2,14.49a2.17,2.17,0,0,1-2.12,2h-46.87a1.65,1.65,0,0,1-1.65-2l10.72-76.21a2.16,2.16,0,0,1,2.12-2h17a1.66,1.66,0,0,1,1.65,2l-8.48,59.84h28.15Z" transform="translate(0.34)"/><path d="M1513.54,402.07a1.54,1.54,0,0,1,1.53,1.88l-2,14.49a2.17,2.17,0,0,1-2.12,2h-46.87a1.65,1.65,0,0,1-1.65-2l10.72-76.21a2.16,2.16,0,0,1,2.12-2h17a1.65,1.65,0,0,1,1.65,2l-8.48,59.84h28.15Z" transform="translate(0.34)"/><path d="M1586.53,356.72a2.25,2.25,0,0,1-2.12,1.88h-33.33l-1.65,12.25h26.27a1.6,1.6,0,0,1,1.53,1.88L1575,387.23a2.27,2.27,0,0,1-2.12,2h-26L1545,402.07h37.34a1.53,1.53,0,0,1,1.53,1.88l-2,14.49a2.18,2.18,0,0,1-2.12,2h-56.06a1.71,1.71,0,0,1-1.65-2l10.72-76.21a2.38,2.38,0,0,1,2.23-2h52.17a1.58,1.58,0,0,1,1.53,2Z" transform="translate(0.34)"/><path d="M1654.42,382.63a26,26,0,0,1-10.6,8.6l44.65,103.44c0.59,1.3.35,2.71-1.18,2.71h-18.14a3.37,3.37,0,0,1-3.06-2l-42.88-101.08h-8.36l-3.3,24.15a2.38,2.38,0,0,1-2.36,2h-16.73a1.57,1.57,0,0,1-1.65-2l10.6-76.08a2.29,2.29,0,0,1,2.24-2.12h24.26c9.78,0,17.08,2.36,22.14,6.12,6.36,4.59,9.18,11.55,9.18,19C1659.25,372.5,1657.49,378.27,1654.42,382.63ZM1636.16,360a11.63,11.63,0,0,0-7.53-2.24H1620l-2.7,19.08h10.13c3.53,0,6.6-.83,8.71-2.83A8.93,8.93,0,0,0,1639,367C1639,363.55,1637.93,361.44,1636.16,360Z" transform="translate(0.34)"/><path d="M1394,468.33c0-19,14.9-34.8,37.14-34.8,6.8,0,15.92,2.42,20,4.56a1.35,1.35,0,0,1,.47,2.14l-6.68,14.2a1.53,1.53,0,0,1-2.14.65c-3-1.11-6.21-4.27-14.3-3.43s-15,8.07-14.86,16c0.11,5.38,3.81,10.93,11.07,12.19,6.3,1.09,11.88-1.15,14.54-3.67,0.79-.75,1.49-0.37,1.86.56l6.15,15a1.55,1.55,0,0,1-.93,2.05c-5.4,2.42-14.26,5-21.15,5C1408.39,498.67,1394,489.55,1394,468.33Z" transform="translate(0.34)"/><path d="M1505.79,479.93a1.22,1.22,0,0,1,1.21,1.5l-2,14.74a1.71,1.71,0,0,1-1.67,1.58h-46.5a1.3,1.3,0,0,1-1.3-1.58l8.46-60.22a1.72,1.72,0,0,1,1.67-1.58h17.77a1.32,1.32,0,0,1,1.3,1.58l-6.32,44h27.33Z" transform="translate(0.34)"/><path d="M1556.91,436a2,2,0,0,1,1.77-1.67h16.72a1.4,1.4,0,0,1,1.39,1.67l-5.21,36.67a32,32,0,0,1-7.07,16.47c-5.21,6-16.53,9.49-27,9.49-7.73,0-13.69-2-17.69-5.77s-6.32-9.12-6.32-15.73a42.33,42.33,0,0,1,.65-6.42l4.94-34.71a1.89,1.89,0,0,1,1.77-1.67h16.43a1.45,1.45,0,0,1,1.39,1.67l-4.75,33a37.36,37.36,0,0,0-.56,5.49c0,3.07.7,4.38,1.48,5.3a9.46,9.46,0,0,0,5.65,2.56c2.77,0.21,6.61-.53,8.18-2.64a18.41,18.41,0,0,0,3.16-8.75Z" transform="translate(0.34)"/><path d="M1630.1,492.25c-4,3.63-13.56,5.49-20.53,5.49h-29.18a1.35,1.35,0,0,1-1.3-1.58l8.47-60.22a1.78,1.78,0,0,1,1.67-1.58h20.71c5.87,0,14.31,1.4,17.76,4.19,3,2.51,4.74,6.24,4.74,11.17a15.31,15.31,0,0,1-7.54,13.86v0.19a16.61,16.61,0,0,1,8.37,6,16.14,16.14,0,0,1,2.51,9.21C1635.78,484.72,1633.73,489.09,1630.1,492.25Zm-15.79-19c-1.77-1.49-4.56-1.77-7.16-1.77h-5.27L1600,484.44h6.58c3.34,0,6-.56,7.54-1.86a5.9,5.9,0,0,0,2-4.75A5.6,5.6,0,0,0,1614.31,473.27Zm-1.3-24.76a4.71,4.71,0,0,0-3.44-1.21l-4.21-.13-1.58,11.17,3.37,0.14a7.13,7.13,0,0,0,5.59-2.14,6.61,6.61,0,0,0,1.58-4.56A4.2,4.2,0,0,0,1613,448.51Z" transform="translate(0.34)"/><path d="M1449,215.73a4.94,4.94,0,0,1-4.65,4.13h-94.16l-2.93,18.44,40.41-.09a3.54,3.54,0,0,1,3.62,4.13l-1.4,10.58a5,5,0,0,1-4.64,4.47h-40.41l-11,63.33a4.75,4.75,0,0,1-4.65,4.39l-12.84-.09c-2.32,0-3.87-1.81-3.61-4.39L1331,205.36a5,5,0,0,1,4.65-4.39H1447c2.32,0,3.62,1.81,3.36,4.39Z" transform="translate(0.34)" fill="#ffeb08"/><path d="M1392.44,322.57c-0.58,1.3-1.45,2.46-2.76,2.46H1371c-1.3,0-1.88-1.16-1.3-2.46l41.76-81.93c0.58-1.31,1.31-2.47,2.76-2.47h27.12a2.65,2.65,0,0,1,2.46,2.47l18.42,81.93a2.24,2.24,0,0,1-2.32,2.46h-18.11c-1.45,0-1.88-1.16-2-2.46L1436.68,305h-36.4Zm32.29-61.5-16,25.68H1433Z" transform="translate(0.34)" fill="#ffeb08"/><path d="M1545.3,238.61a2.12,2.12,0,0,1,2.18,2.61l-1.71,12.56a3,3,0,0,1-2.9,2.61h-29.62l-11.05,66a3,3,0,0,1-3,2.61H1483a2.07,2.07,0,0,1-2.17-2.61l11-66H1463.1a2.3,2.3,0,0,1-2.33-2.61l1.71-12.56a3.24,3.24,0,0,1,3-2.61h79.76Z" transform="translate(0.34)" fill="#ffeb08"/><path d="M1326.62,365l24.61-26.62a5.55,5.55,0,0,1,4.36-2.12H1375c1.77,0,2.12,1.65.59,3.18l-31.45,31.32,22.14,42c0.83,1.65.94,3.65-1.41,3.65h-17.55a3.48,3.48,0,0,1-3.53-2.12l-15.08-28.5-5.89,5.89-3.17,22.73a2.38,2.38,0,0,1-2.25,2h-16.84a1.67,1.67,0,0,1-1.65-2l10.72-76.21a2.17,2.17,0,0,1,2.12-2h17a1.66,1.66,0,0,1,1.65,2Z" transform="translate(0.34)" fill="#ffeb08"/><path d="M1384.27,491.66a2.37,2.37,0,0,1-2.24,2h-16.84a1.66,1.66,0,0,1-1.64-2l20.9-153.36a2.16,2.16,0,0,1,2.12-2h17a1.66,1.66,0,0,1,1.65,2Z" transform="translate(0.34)" fill="#ffeb08"/><path d="M1459.64,398.14a1.54,1.54,0,0,1,1.53,1.89l-2,14.48a2.17,2.17,0,0,1-2.12,2h-46.87a1.65,1.65,0,0,1-1.65-2l10.72-76.21a2.16,2.16,0,0,1,2.12-2h17a1.66,1.66,0,0,1,1.65,2l-8.48,59.84h28.15Z" transform="translate(0.34)" fill="#ffeb08"/><path d="M1519.24,398.14a1.54,1.54,0,0,1,1.53,1.89l-2,14.48a2.18,2.18,0,0,1-2.12,2h-46.87a1.65,1.65,0,0,1-1.65-2l10.72-76.21a2.16,2.16,0,0,1,2.12-2h17a1.66,1.66,0,0,1,1.65,2l-8.48,59.84h28.15Z" transform="translate(0.34)" fill="#ffeb08"/><path d="M1592.23,352.79a2.25,2.25,0,0,1-2.12,1.88h-33.33l-1.65,12.25h26.26a1.6,1.6,0,0,1,1.53,1.88l-2.24,14.49a2.28,2.28,0,0,1-2.12,2h-26l-1.88,12.84H1588a1.53,1.53,0,0,1,1.53,1.89l-2,14.48a2.17,2.17,0,0,1-2.12,2h-56.06a1.72,1.72,0,0,1-1.65-2l10.72-76.21a2.38,2.38,0,0,1,2.23-2h52.18a1.58,1.58,0,0,1,1.53,2Z" transform="translate(0.34)" fill="#ffeb08"/><path d="M1660.12,378.7a26,26,0,0,1-10.6,8.6l44.65,103.44c0.59,1.29.35,2.71-1.18,2.71h-18.14a3.37,3.37,0,0,1-3.06-2l-42.88-101.08h-8.36l-3.3,24.14a2.38,2.38,0,0,1-2.36,2h-16.73a1.57,1.57,0,0,1-1.64-2l10.6-76.08a2.29,2.29,0,0,1,2.24-2.12h24.26c9.78,0,17.08,2.36,22.14,6.12,6.36,4.59,9.19,11.55,9.19,19C1664.95,368.57,1663.18,374.34,1660.12,378.7Zm-18.26-22.61a11.65,11.65,0,0,0-7.53-2.24h-8.6l-2.7,19.08h10.13c3.53,0,6.6-.83,8.71-2.83a8.93,8.93,0,0,0,2.83-7.06C1644.69,359.62,1643.63,357.5,1641.86,356.09Z" transform="translate(0.34)" fill="#ffeb08"/><path d="M1399.67,464.4c0-19,14.9-34.8,37.14-34.8,6.8,0,15.92,2.42,20,4.56a1.35,1.35,0,0,1,.46,2.14l-6.68,14.2a1.53,1.53,0,0,1-2.14.65c-3-1.11-6.21-4.27-14.3-3.43s-15,8.07-14.86,16c0.11,5.38,3.81,10.93,11.07,12.18,6.3,1.09,11.88-1.14,14.54-3.67,0.79-.75,1.49-0.37,1.86.56l6.15,15a1.55,1.55,0,0,1-.93,2.05c-5.4,2.41-14.26,5-21.15,5C1414.09,494.74,1399.67,485.62,1399.67,464.4Z" transform="translate(0.34)" fill="#ffeb08"/><path d="M1511.49,476a1.22,1.22,0,0,1,1.21,1.49l-2,14.74a1.71,1.71,0,0,1-1.67,1.58h-46.49a1.3,1.3,0,0,1-1.3-1.58l8.46-60.22a1.72,1.72,0,0,1,1.67-1.58h17.77a1.32,1.32,0,0,1,1.3,1.58l-6.32,44h27.33Z" transform="translate(0.34)" fill="#ffeb08"/><path d="M1562.61,432.11a2,2,0,0,1,1.77-1.67h16.72a1.4,1.4,0,0,1,1.39,1.67l-5.21,36.67a32.05,32.05,0,0,1-7.07,16.47c-5.21,6-16.53,9.49-27,9.49-7.73,0-13.69-2-17.69-5.77s-6.32-9.12-6.32-15.73a42.43,42.43,0,0,1,.65-6.42l4.94-34.72a1.89,1.89,0,0,1,1.77-1.67H1543a1.45,1.45,0,0,1,1.39,1.67l-4.75,33a37.23,37.23,0,0,0-.56,5.5c0,3.07.7,4.38,1.47,5.3a9.47,9.47,0,0,0,5.65,2.56c2.77,0.21,6.61-.54,8.18-2.64a18.39,18.39,0,0,0,3.16-8.75Z" transform="translate(0.34)" fill="#ffeb08"/><path d="M1635.8,488.32c-4,3.63-13.55,5.49-20.53,5.49h-29.18a1.35,1.35,0,0,1-1.3-1.58l8.47-60.22a1.78,1.78,0,0,1,1.67-1.58h20.71c5.87,0,14.31,1.4,17.76,4.18,3,2.51,4.74,6.24,4.74,11.17a15.31,15.31,0,0,1-7.54,13.86v0.19a16.62,16.62,0,0,1,8.37,6,16.12,16.12,0,0,1,2.51,9.21C1641.48,480.79,1639.43,485.16,1635.8,488.32Zm-15.79-19c-1.77-1.49-4.56-1.77-7.16-1.77h-5.27l-1.86,12.94h6.58c3.34,0,6-.56,7.54-1.86a5.9,5.9,0,0,0,2-4.75A5.6,5.6,0,0,0,1620,469.34Zm-1.3-24.76a4.71,4.71,0,0,0-3.44-1.21l-4.21-.13-1.58,11.17,3.37,0.14a7.13,7.13,0,0,0,5.58-2.14,6.61,6.61,0,0,0,1.58-4.56A4.2,4.2,0,0,0,1618.71,444.58Z" transform="translate(0.34)" fill="#ffeb08"/><polygon points="1413.82 146.22 1170.17 5.94 1170.24 59.51 997.55 59.73 644.23 60.19 0.34 61.45 0.57 240.9 753.38 239 944.96 221.6 1004.72 238.97 1170.46 238.76 1170.53 287.13 1413.82 146.22" fill="#070300"/><polygon points="1413.48 140.27 1169.83 0 1169.9 53.57 997.21 53.79 643.89 54.24 0 55.52 0.23 234.96 753.05 233.06 944.62 215.66 1004.38 233.02 1170.13 232.81 1170.19 281.18 1413.48 140.27" fill="#fff"/><polygon points="1197.55 81.05 1203.66 80.91 1203.6 74.8 1199.87 74.84 1199.85 73.61 1197.39 73.66 1197.41 74.86 1196.21 74.88 1196.24 77.34 1197.47 77.33 1197.55 81.05" fill="#502d61"/><path d="M1142.51,74.87l4.54-.1,0.16,7.39-4.55.1Zm9.09-.2,4.54-.1,0.16,7.38-4.54.1Zm9.09-.2,4.54-.1,0.16,7.39-4.55.1Zm9.09-.2,4.54-.1,0.16,7.39-4.55.1Zm9.09-.2,4.55-.1,0.16,7.39-4.54.1Zm9.09-.2,4.54-.1,0.16,7.39-4.54.1Z" transform="translate(0.34)" fill="#502d61"/><polygon points="1136 82.41 1138.46 82.36 1138.44 81.16 1139.64 81.14 1139.61 78.68 1138.38 78.69 1138.3 74.97 1132.19 75.11 1132.25 81.22 1135.98 81.18 1136 82.41" fill="#502d61"/><path d="M1133.08,192.21l7.39-.08,0,4.82-7.39.08Zm-0.1-9.65,7.39-.08,0,4.83-7.39.08Zm-0.1-9.65,7.39-.08,0,4.83-7.39.08Zm-0.1-9.65,7.39-.08,0.05,4.83-7.39.08Zm-0.1-9.65,7.38-.08,0.05,4.83-7.39.08Zm-0.1-9.65,7.39-.08,0,4.83-7.39.08Zm-0.1-9.65,7.39-.08,0.05,4.83-7.39.08Zm-0.1-9.65,7.39-.08,0.05,4.83-7.39.08Zm-0.1-9.65,7.39-.08,0.05,4.83-7.39.08Zm-0.1-9.65,7.39-.08,0,4.82-7.39.08Zm-0.1-9.65,7.39-.08,0.05,4.82-7.39.08ZM1132,86l7.39-.08,0,4.82-7.39.08Z" transform="translate(0.34)" fill="#502d61"/><polygon points="1133.59 208.06 1139.78 207.92 1139.7 204.26 1140.93 204.25 1140.9 201.78 1139.64 201.8 1139.62 200.54 1137.15 200.59 1137.18 201.82 1133.52 201.86 1133.59 208.06" fill="#502d61"/><path d="M1143.82,200.43l4.54-.1,0.17,7.39-4.54.1Zm9.09-.2,4.54-.1,0.16,7.39-4.54.1Zm9.09-.2,4.54-.1,0.16,7.39-4.54.1Zm9.09-.2,4.54-.1,0.16,7.38-4.54.1Zm9.09-.2,4.54-.1,0.16,7.39-4.54.1Zm9.09-.2,4.54-.1,0.17,7.38-4.55.1Z" transform="translate(0.34)" fill="#502d61"/><polygon points="1198.87 206.61 1201.33 206.56 1201.3 205.33 1204.97 205.29 1204.9 199.09 1198.7 199.23 1198.79 202.89 1197.55 202.91 1197.58 205.37 1198.84 205.35 1198.87 206.61" fill="#502d61"/><path d="M1197.48,228.08l7.39-.08,0,4.54-7.39.08Zm-0.09-9.08,7.39-.07,0,4.54-7.39.07Zm-0.1-9.08,7.39-.08,0,4.54-7.39.08Z" transform="translate(0.34)" fill="#502d61"/><polygon points="1198.01 246.02 1205.63 241.51 1204.47 239.55 1205.33 239.54 1205.3 237.08 1203.03 237.11 1201.87 235.15 1199.75 236.41 1200.18 237.14 1197.91 237.16 1198.01 246.02" fill="#502d61"/><path d="M1205.88,232.58l4.34-2.57,3.76,6.36-4.34,2.57Zm8.69-5.14,4.35-2.57,3.76,6.36-4.34,2.57Zm8.69-5.14,4.34-2.57,3.76,6.36-4.34,2.57Zm8.69-5.14,4.35-2.57L1240,221l-4.34,2.57Zm8.69-5.14,4.34-2.57,3.76,6.36-4.34,2.57Zm8.69-5.14,4.34-2.57,3.76,6.36-4.34,2.57Zm8.69-5.14,4.34-2.57,3.76,6.36-4.34,2.57Zm8.69-5.14L1271,194l3.76,6.36-4.35,2.57Zm8.69-5.14,4.34-2.57,3.76,6.36-4.34,2.57Zm8.69-5.14,4.35-2.57,3.76,6.36-4.34,2.57Zm8.69-5.14,4.34-2.57,3.76,6.36-4.34,2.57Zm8.69-5.14,4.34-2.57,3.76,6.36-4.34,2.57Zm8.69-5.14,4.34-2.57,3.76,6.36-4.34,2.57Zm8.69-5.14,4.34-2.57,3.76,6.36-4.35,2.57Zm8.69-5.14,4.34-2.57,3.76,6.36-4.34,2.57Zm8.69-5.14,4.34-2.57,3.76,6.36-4.35,2.57Zm8.69-5.14,4.34-2.57,3.76,6.36-4.34,2.57Zm8.69-5.14,4.34-2.57,3.76,6.36-4.34,2.57Z" transform="translate(0.34)" fill="#502d61"/><polygon points="1366.36 146.44 1373.98 141.93 1366.26 137.58 1365.15 139.56 1364.71 138.83 1362.59 140.08 1363.75 142.03 1362.64 144.02 1364.78 145.22 1365.2 144.48 1366.36 146.44" fill="#502d61"/><path d="M1353.5,139.06l3.63-6.44,4.4,2.48-3.62,6.43Zm-8.79-5,3.63-6.43,4.4,2.48-3.62,6.43Zm-8.79-5,3.63-6.43,4.4,2.48-3.63,6.44Zm-8.79-5,3.63-6.43,4.4,2.48-3.63,6.43Zm-8.79-5,3.63-6.44,4.4,2.48-3.62,6.44Zm-8.79-5,3.63-6.43,4.39,2.48-3.62,6.44Zm-8.79-5,3.63-6.43,4.39,2.48-3.62,6.43Zm-8.79-5,3.63-6.44,4.4,2.48-3.63,6.43Zm-8.79-5,3.63-6.43,4.4,2.48-3.63,6.44Zm-8.79-5L1278,88l4.4,2.48-3.63,6.43Zm-8.79-5,3.63-6.43,4.4,2.48L1270,92Zm-8.79-5,3.63-6.43,4.4,2.48L1261.17,87Zm-8.79-5,3.63-6.43,4.4,2.48-3.63,6.43Zm-8.79-5,3.63-6.43,4.39,2.48-3.63,6.43Zm-8.79-5,3.63-6.44,4.39,2.48-3.62,6.43Zm-8.79-5,3.63-6.43,4.4,2.48L1226,67.2Zm-8.8-5,3.63-6.44,4.4,2.48-3.63,6.43Zm-8.79-5,3.63-6.43,4.4,2.48-3.63,6.43Z" transform="translate(0.34)" fill="#502d61"/><polygon points="1199.96 52.33 1201.07 50.35 1203.34 50.33 1203.32 47.87 1202.47 47.87 1203.58 45.9 1195.86 41.54 1195.96 50.4 1198.23 50.38 1197.81 51.12 1199.96 52.33" fill="#502d61"/><path d="M1195.77,65.09l7.39-.08,0.05,4.89-7.39.08Zm-0.1-9.79,7.39-.08,0.05,4.89-7.39.08Z" transform="translate(0.34)" fill="#502d61"/><polygon points="1217.48 103 1223.59 102.86 1223.53 96.76 1219.8 96.79 1219.78 95.56 1217.31 95.62 1217.34 96.81 1216.14 96.83 1216.16 99.29 1217.4 99.28 1217.48 103" fill="#502d61"/><path d="M1162.44,96.83l4.54-.1,0.16,7.39-4.54.1Zm9.09-.2,4.55-.1,0.16,7.39-4.54.1Zm9.09-.2,4.54-.1,0.16,7.39-4.54.1Zm9.09-.2,4.54-.1,0.16,7.39-4.54.1Zm9.09-.2,4.54-.09,0.16,7.39-4.54.1Zm9.09-.2,4.54-.1,0.16,7.39-4.54.1Z" transform="translate(0.34)" fill="#502d61"/><polygon points="1155.93 104.36 1158.39 104.31 1158.37 103.11 1159.57 103.09 1159.54 100.63 1158.31 100.65 1158.23 96.93 1152.12 97.06 1152.18 103.17 1155.91 103.14 1155.93 104.36" fill="#502d61"/><path d="M1152.57,172.69l7.39-.08,0,4.63-7.39.08Zm-0.1-9.27,7.39-.08,0,4.64-7.38.08Zm-0.1-9.27,7.39-.08,0,4.64-7.39.08Zm-0.1-9.27,7.39-.08,0,4.64-7.39.08Zm-0.1-9.27,7.39-.08,0,4.64-7.39.08Zm-0.09-9.27,7.39-.08,0,4.63-7.38.08Zm-0.1-9.27,7.39-.08,0,4.63-7.39.08Zm-0.1-9.27,7.39-.08,0,4.63-7.39.08Z" transform="translate(0.34)" fill="#502d61"/><polygon points="1153.07 188.16 1159.27 188.02 1159.19 184.36 1160.42 184.34 1160.39 181.88 1159.13 181.9 1159.1 180.64 1156.64 180.69 1156.67 181.92 1153 181.96 1153.07 188.16" fill="#502d61"/><path d="M1163.31,180.54l4.54-.1,0.16,7.39-4.54.1Zm9.09-.2,4.54-.1,0.16,7.38-4.55.1Zm9.08-.2,4.55-.1,0.16,7.39-4.55.1Zm9.09-.2,4.54-.1,0.16,7.39-4.54.1Zm9.09-.2,4.55-.1,0.16,7.39-4.54.1Zm9.09-.2,4.55-.1,0.16,7.38-4.55.1Z" transform="translate(0.34)" fill="#502d61"/><polygon points="1218.36 186.72 1220.82 186.66 1220.79 185.43 1224.46 185.39 1224.39 179.19 1218.19 179.33 1218.28 182.99 1217.04 183 1217.07 185.47 1218.33 185.46 1218.36 186.72" fill="#502d61"/><rect x="1216.82" y="190.76" width="7.39" height="5.33" transform="translate(-1.62 12.75) rotate(-0.6)" fill="#502d61"/><polygon points="1217.33 210.33 1224.95 205.82 1223.8 203.86 1224.65 203.86 1224.62 201.4 1222.35 201.42 1221.19 199.46 1219.07 200.72 1219.51 201.45 1217.23 201.47 1217.33 210.33" fill="#502d61"/><path d="M1225.19,196.9l4.33-2.56,3.76,6.36-4.33,2.56Zm8.67-5.13,4.33-2.56,3.76,6.36-4.34,2.56Zm8.67-5.13,4.33-2.56,3.76,6.36-4.33,2.56Zm8.66-5.12,4.33-2.56,3.76,6.36-4.33,2.56Zm8.67-5.12,4.33-2.56,3.76,6.36-4.33,2.56Zm8.66-5.13,4.33-2.56,3.76,6.36-4.33,2.56Zm8.67-5.13,4.33-2.56,3.76,6.36-4.33,2.56Zm8.67-5.13,4.33-2.56,3.76,6.36-4.33,2.56Zm8.66-5.12,4.33-2.56,3.76,6.36-4.33,2.56Zm8.67-5.13,4.33-2.56,3.76,6.36-4.33,2.56Zm8.67-5.12,4.33-2.56,3.76,6.36-4.33,2.56Z" transform="translate(0.34)" fill="#502d61"/><polygon points="1324.61 146.87 1332.23 142.37 1324.52 138.01 1323.4 139.99 1322.97 139.26 1320.85 140.51 1322 142.47 1320.89 144.45 1323.04 145.66 1323.45 144.91 1324.61 146.87" fill="#502d61"/><path d="M1311.78,139.5l3.63-6.43,4.39,2.47-3.63,6.43Zm-8.77-4.94,3.63-6.43,4.38,2.47L1307.4,137Zm-8.77-4.94,3.63-6.44,4.39,2.47-3.63,6.44Zm-8.77-4.94,3.63-6.43,4.39,2.47-3.63,6.43Zm-8.77-4.94,3.63-6.43,4.38,2.47-3.63,6.43Zm-8.77-4.94,3.63-6.43,4.39,2.47-3.63,6.43Zm-8.77-4.94,3.63-6.43,4.38,2.47-3.62,6.43Zm-8.77-4.94,3.63-6.44,4.38,2.47-3.62,6.43Zm-8.77-4.94,3.63-6.43,4.39,2.47-3.63,6.43ZM1232.84,95l3.63-6.43,4.39,2.47-3.63,6.43Zm-8.77-4.94,3.63-6.43,4.38,2.47-3.63,6.43Z" transform="translate(0.34)" fill="#502d61"/><polygon points="1220.03 87.61 1221.14 85.62 1223.41 85.61 1223.39 83.14 1222.54 83.15 1223.65 81.17 1215.94 76.82 1216.02 85.68 1218.3 85.65 1217.88 86.39 1220.03 87.61" fill="#502d61"/><rect x="1215.75" y="89.36" width="7.39" height="3.72" transform="translate(-0.53 12.42) rotate(-0.58)" fill="#502d61"/><polygon points="1178.3 123.55 1180.76 123.49 1180.73 122.29 1181.93 122.28 1181.91 119.81 1180.68 119.83 1180.59 116.11 1174.48 116.24 1174.55 122.36 1178.27 122.32 1178.3 123.55" fill="#502d61"/><path d="M1174.53,153.21l7.39-.08,0,4.41-7.39.08Zm-0.09-8.81,7.39-.08,0,4.41-7.39.08Zm-0.09-8.81,7.39-.08,0,4.41-7.39.08Zm-0.09-8.82,7.39-.08,0,4.41-7.39.08Z" transform="translate(0.34)" fill="#502d61"/><polygon points="1175.03 168.23 1181.22 168.09 1181.14 164.43 1182.38 164.41 1182.35 161.95 1181.09 161.96 1181.06 160.7 1178.6 160.76 1178.63 161.99 1174.96 162.03 1175.03 168.23" fill="#502d61"/><path d="M1185.87,160.59l5.15-.12,0.16,7.39L1186,168Zm10.29-.23,5.15-.12,0.16,7.39-5.15.12Zm10.29-.23,5.15-.12,0.16,7.39-5.15.12Zm10.29-.23,5.15-.12,0.17,7.39-5.15.12Zm10.29-.23,5.15-.12,0.17,7.39-5.15.12Z" transform="translate(0.34)" fill="#502d61"/><polygon points="1237.85 166.81 1240.31 166.75 1240.28 165.52 1243.95 165.48 1243.88 159.28 1237.68 159.42 1237.76 163.09 1236.53 163.1 1236.56 165.56 1237.82 165.55 1237.85 166.81" fill="#502d61"/><polygon points="1236.65 174.58 1244.27 170.17 1243.11 168.18 1243.97 168.17 1243.95 165.71 1241.69 165.73 1240.56 163.78 1238.43 165.02 1238.86 165.76 1236.56 165.78 1236.65 174.58" fill="#502d61"/><path d="M1244.6,161.24l4.38-2.54,3.71,6.39-4.37,2.54Zm8.75-5.08,4.38-2.54,3.71,6.39-4.38,2.54Zm8.75-5.08,4.38-2.54,3.71,6.39-4.38,2.54Zm8.75-5.08,4.38-2.54,3.71,6.39-4.38,2.54Z" transform="translate(0.34)" fill="#502d61"/><polygon points="1283.65 147.3 1291.34 142.84 1283.61 138.44 1282.5 140.4 1282.08 139.67 1279.94 140.91 1281.09 142.89 1279.96 144.86 1282.1 146.08 1282.52 145.35 1283.65 147.3" fill="#502d61"/><path d="M1270.75,139.81l3.66-6.42,4.44,2.53-3.65,6.42Zm-8.88-5,3.66-6.42,4.44,2.53-3.66,6.42ZM1253,129.7l3.66-6.42,4.44,2.53-3.65,6.42Zm-8.88-5,3.65-6.42,4.44,2.53-3.65,6.42ZM1185.36,116l5.11-.12,0.17,7.39-5.11.11Zm10.22-.23,5.1-.11,0.17,7.39-5.11.12Zm10.21-.23,5.11-.12,0.17,7.39-5.11.11Zm10.21-.23,5.11-.12,0.17,7.39-5.11.12Zm10.22-.23,5.11-.11,0.16,7.39-5.11.11Zm10.21-.23,5.17-.12,1.72,1-2.62,4.61,0,1.82-4.15.1Z" transform="translate(0.34)" fill="#502d61"/><polygon points="1194.49 145.89 1200.71 145.6 1200.65 143.49 1200.74 143.49 1200.67 141.95 1201.84 141.99 1201.82 140.06 1200.58 140.09 1200.42 136.32 1194.39 136.59 1194.49 145.89" fill="#502d61"/><path d="M1205.62,138.18l5.45-.15,0.21,7.38-5.45.15Zm10.91-.3,5.45-.15,0.21,7.38-5.45.15Zm10.91-.3,5.45-.16,0.21,7.38-5.45.15Z" transform="translate(0.34)" fill="#502d61"/><polygon points="1238.88 144.65 1257.92 144.13 1240.45 136.52 1240.15 137.22 1238.67 137.26 1238.76 140.41 1237.51 143.29 1238.86 143.88 1238.88 144.65" fill="#502d61"/><path d="M1205.61,136.09l5.53-.24,0.32,7.38-5.53.24Zm11.06-.48,5.53-.24,0.32,7.38L1217,143Zm11.05-.48,5.53-.24,0.32,7.38-5.53.24Z" transform="translate(0.34)" fill="#502d61"/><path d="M103.25,78.29a3.83,3.83,0,0,1-4,3,9.58,9.58,0,0,0-3.86.17,1.92,1.92,0,0,1-1.4,0c-1.93-.53-3.86-0.17-5.78,0H82c-2.8,0-5.43.53-8.24,0.7a14,14,0,0,0-4.56.53c-0.88.17-1.58,0.53-1.4,1.58,0,0.35-.18.53-0.18,0.88v7.36H68v24.89l0.88,0.53v0.88c2.28,0.18,4.73.53,7,0,1.4-.35,3,0.18,4.38.35,1.75,0.17,9.82.35,11.74,0.17a3.07,3.07,0,0,1,3.16,1.93c0.7,1.58.35,2.45-1.05,3.68a5.08,5.08,0,0,1-5.43.88c-1.58-.53-9.64-0.53-11.39-0.18a45.19,45.19,0,0,1-8.41.53v2.8c0.18,3.33-.7,6.66-0.7,9.82,0,2.8-.35,5.61-0.18,8.41,0,4.56.53,9.12-.18,13.67a1.46,1.46,0,0,0,0,.88c0.7,4-.53,7.89-0.53,11.92-0.18,4.21-.7,8.59-0.7,12.8-0.18,2.63-.35,5.43-2.1,7.71a2.51,2.51,0,0,0-.35.53c1.23,1.75-.18,3-1.23,3.51-1.75,1.05-3.33,2.28-5.26,2.8-1.4.35-2.8,0.35-3.86,1.23a2.22,2.22,0,0,1-1.05.18,8.73,8.73,0,0,1-4.21-2.1,3.35,3.35,0,0,1-1.23-2.46c-0.53-4.38-.18-8.76-0.35-13-0.18-6.84.53-13.67,0.7-20.51v-7.19c0-2.28.18-4.56,0.18-6.84a89.4,89.4,0,0,0-.35-11.92c-0.18-2.28,0-4.73,0-7,0-6.13.18-12.45-.18-18.58,0-2.45,0-4.73-.18-7,0-4.21.18-8.24,0.53-12.27,0.35-2.45.18-4.73,0.53-7.19,0.35-1.93.35-3.68,0.7-5.43a10,10,0,0,0,.18-2.28c0-.53-0.7-1.05-0.18-1.58a4.51,4.51,0,0,1,1.58-1.58,9.34,9.34,0,0,1,4.21-1.05,13.2,13.2,0,0,1,5.26.18,23.7,23.7,0,0,0,7,.18c4.38-.18,8.59-0.7,12.8-0.7,2.8,0,5.61,0,8.41.17a5.79,5.79,0,0,0,2.45,0,9.52,9.52,0,0,1,5.43.17,18,18,0,0,0,4.21.88A3.07,3.07,0,0,1,103.25,78.29Z" transform="translate(0.34)"/><path d="M127.62,132.63a18.37,18.37,0,0,1,.88,5.26c0.18,2.45.35,4.91,0.7,7.19,0.18,2.28.35,4.56,0.7,6.84,0.35,2.8.7,11.74,0.7,14.55-0.18,2.8-.35,5.61-0.35,8.41,0,2.63-.18,5.26-0.18,7.89l-0.35,2.8a19.92,19.92,0,0,0-.53,6.49,29.89,29.89,0,0,1-.35,9.64,12.55,12.55,0,0,1-1.4,2.63c-0.7,1.05-2.1,1.75-2.28,3.16a0.38,0.38,0,0,1-.35.35,2.3,2.3,0,0,0-2.28.7c-0.88-.53-2.1.53-3.16-0.53a7,7,0,0,0-2.8-1.4c-1.75-.53-2.45-1.75-2.8-3.68-1.05-5.79-.7-11.57-1.23-17.35-0.53-3.33-.53-6.66-1.05-9.82a15.08,15.08,0,0,1-.18-2.8c0-4.21-.35-14.37-0.35-18.58-0.18-7.36-.35-14.55-0.88-21.91l-0.88-19.28c-0.35-8.06,0-16.13-.18-24.19,0-3.33-.18-6.66-0.18-10.17a11.83,11.83,0,0,0-.35-2.45c-0.35-1.4-.18-1.93,1.05-2.45a11.92,11.92,0,0,1,7-.18c3,0.7,4.91,2.63,6.84,4.56a11.43,11.43,0,0,1,2.45,5.78,28.13,28.13,0,0,1,0,5.43,13.3,13.3,0,0,0,.18,5.26c0.35,2.46,0,5.08.35,7.54,0.53,3.33-.18,6.84.7,10.17a3,3,0,0,1,0,1.75,16.89,16.89,0,0,0,0,4.21c0.7,2.45.18,5.08,0.53,7.71v6.49Z" transform="translate(0.34)"/><path d="M155.32,184.16a137.79,137.79,0,0,1,.53-14.72c0.18-1.93.18-3.68,0.18-5.61,0.35-3.68.18-7.54,0.53-11.22L157.6,137c0.53-7.36.53-14.72,0.35-22.26-0.18-3.86.18-7.71,0.35-11.75,0.18-2.45,0-5.08.18-7.54l0.7-7.36V83.72c0.18-1.05-.35-1.4-1.4-1.23-3.86.88-7.89,0.35-11.92,1.05a5.11,5.11,0,0,0-1.58.35c-4.21,1.93-7.36,1.05-9.82-2.8a5.31,5.31,0,0,0-1.4-1.4A3.54,3.54,0,0,1,132,76.53c0.18-1.4.7-1.93,2.1-1.75,5.78,0.17,11.57-.53,17.35-0.53a45.25,45.25,0,0,0,7-.7c2.28-.35,4.56-0.7,7-0.88,3.86-.18,7.71-0.7,11.57-0.18,3.33,0.18,6.66.53,10,.88a4.78,4.78,0,0,0,1.58,0,8,8,0,0,1,3.51-.18,18,18,0,0,0,6.14,0,11.42,11.42,0,0,1,2.45,0,4.66,4.66,0,0,1,4.38,3.86,2.38,2.38,0,0,1-3,2.8,11.33,11.33,0,0,0-5.43.35h-1.23a1.49,1.49,0,0,0-1.23,0c-3.51,1.4-7,.88-10.52.88-2.45.17-4.73,0.7-7,.53-0.7-.18-1.05.18-0.88,0.88v1.4a21.36,21.36,0,0,1,0,4.73,21.31,21.31,0,0,0,0,5.79c0.53,2.28,0,4.56-.35,6.84a48,48,0,0,1-.88,4.91,16.91,16.91,0,0,0-.18,6c0.35,4.21.88,8.41,0.18,12.62a19.8,19.8,0,0,0,0,7.19,33.81,33.81,0,0,1,.18,8.41c-0.18,4-.88,8.06-1.23,12.1a140.63,140.63,0,0,0-.53,17.18c0,2.8.35,5.43,0,8.24-0.18,3.86-.18,7.54-0.7,11.22s-0.53,7.36-1.58,10.87a2,2,0,0,1-1.75,1.75c-1.23,0-2.45.7-3.68,0.35-0.7-.35-1.05,1.05-1.93.18-0.53-.53-1.4-0.18-2.1-0.35a7.32,7.32,0,0,1-4.91-3,4.92,4.92,0,0,1-1.23-3.86,16,16,0,0,0,.18-2.8C155.49,189.6,155.32,187,155.32,184.16Z" transform="translate(0.34)"/><path d="M272.94,171.72a15.08,15.08,0,0,0-.18,2.8c0,0.7-.18,1.4-0.18,2.1-0.18,1.93,0,3.86,0,5.78a42.85,42.85,0,0,1-.18,6.66,33.57,33.57,0,0,0,0,6,28.33,28.33,0,0,1,0,3.86,3.86,3.86,0,0,0-.18,1.4,5.09,5.09,0,0,1-1.58,2.63l-0.35.35c-1.23,1.23-2.45,2.45-4.21,2.45h-0.88a8.69,8.69,0,0,1-6.31-4.91,31.68,31.68,0,0,0-1.4-3.68L254,188.55c-2.8-6.14-5.61-12.62-8.24-19.28l-1.4-3.68-3.16-8.06a107.93,107.93,0,0,1-4.91-12.45l-1.58-4.21-0.7-1.75c-1.05-3-2.1-6-3-8.94-1.23-4.56-3-8.94-4.56-13.32l-3.16-8.59v4.21l0.35,4.73c0.18,2.46.35,5.08,0.35,7.71,0.18,3.33.35,6.49,0.7,9.29a51.54,51.54,0,0,1,0,7.36c0,1.58-.18,3.16-0.18,4.56a33.78,33.78,0,0,1-.18,4.21c0.88,2.45.7,5.08,0.7,7.54a28.42,28.42,0,0,0-.18,3.86,13.58,13.58,0,0,1-.18,4.56,5.72,5.72,0,0,0,0,3c0,0.7.18,1.4,0.18,2.1v1.4a13.13,13.13,0,0,1-.35,3.68,16.88,16.88,0,0,0,0,3,1.31,1.31,0,0,1,.18.88v3.86a47.59,47.59,0,0,0,.18,5.08,59,59,0,0,1,.53,7.71c0,1.58.18,3.16,0.18,4.56a6.3,6.3,0,0,0,.35,1.93c0.53,1.75,0,3.16-.35,4.73l-0.18.17c-0.35.88-.7,1.05-1.05,1.05a0.61,0.61,0,0,1-.35-0.18,11.87,11.87,0,0,0-2.45.35,11.5,11.5,0,0,1-3.51.17h-0.53a5.11,5.11,0,0,1-1.58.35,6.23,6.23,0,0,1-3.51-1.4l-0.35-.18a5.89,5.89,0,0,1-3-5.08c-0.18-2.45-.35-4.73-0.7-7a40,40,0,0,1-.35-4.38l-0.35-3.51a46.19,46.19,0,0,0-.35-4.91c-0.18-1.93-.18-3.86-0.18-5.61a47.58,47.58,0,0,0-.18-5.08l-0.53-6.84c0-2.28-.18-4.56-0.35-6.84L206,157.34a77.67,77.67,0,0,1-.53-11c0.18-5.43-.18-11-0.35-16.3l-0.18-.88c-0.18-3.33-.18-6.84-0.18-10.17v-0.7c0-.7.18-1.4,0.18-2.1s0.18-1.58.18-2.46l-0.18-2.8-0.53-8.41c-0.18-3-.18-6.13-0.18-8.94v-2.8a7.19,7.19,0,0,1,.18-1.93V86.17a20.49,20.49,0,0,1,.7-6.66,4.82,4.82,0,0,1,1.4-2.63,4.54,4.54,0,0,1,3-1.58,5.13,5.13,0,0,1,1.58.35,26,26,0,0,0,5.26,1.58l0.53,0.18A7.35,7.35,0,0,1,220,79.86l0.35,0.35a0.91,0.91,0,0,1,.35.7L221.93,82a18.92,18.92,0,0,1,4.21,7.19l2.8,6.66,1.75,4.56a3.85,3.85,0,0,1,.35,2.8,1.52,1.52,0,0,0,.53,1.05v0.17a67.05,67.05,0,0,1,6,12.45,22.41,22.41,0,0,0,1.58,3.86c2.28,5.26,3.68,9.64,4,14.2a26.31,26.31,0,0,0,2.63,8.94,16.49,16.49,0,0,1,1.05,2.63l0.88,2.28,2.63,6.49c1.23,2.8,2.45,6,3.86,8.94a45.94,45.94,0,0,1,2.63,6.84,12.17,12.17,0,0,1,.88,2.28,113.68,113.68,0,0,0,6,13.85v-0.35a7.45,7.45,0,0,0,.35-1.93c0-1.58.18-3,.18-4.56,0-2.28.18-4.73,0.35-7v-0.88a95.16,95.16,0,0,0,.35-10,43.23,43.23,0,0,0-.53-6.84l-0.18-2.45v-0.35a11.57,11.57,0,0,1-.18-2.45c0-2.1,0-4.38-.18-6.49s-0.18-4-.18-6V133.5a23.06,23.06,0,0,1-.7-8.06c0-.7-0.18-1.23-0.18-1.75a5.18,5.18,0,0,1-.35-1.75V111.42c0-5.78,0-11.75.18-17.53V91.26c0-1.93.18-3.86,0-6V83.2a42.72,42.72,0,0,0-.18-4.73,3.42,3.42,0,0,1,2.1-3.86,4.34,4.34,0,0,1,4.56,1.4,5.65,5.65,0,0,1,1.58,4.56,9.9,9.9,0,0,0,0,2.28v1.23c-0.18,3.68,0,7.19.18,10.69,0,3.33.18,6.84,0,10.34,0,3.16.35,6.49,0.7,10.17a88.22,88.22,0,0,1,.7,13.5,49.53,49.53,0,0,0,.35,5.08c0,1.4.18,3,.18,4.56v1.75a21.21,21.21,0,0,1,.18,3.33v4.73c0,3.33,0,6.66-.18,10,0,2.1,0,4,.18,6.13A51.6,51.6,0,0,1,272.94,171.72Z" transform="translate(0.34)"/><path d="M338.68,199.59a25,25,0,0,1-3.16,1.4c-3.51.88-6.84,0.17-10.17,1.4-3.68-.35-7.36,1.05-11,1.4-2.28.17-4.56,0-6.84,0.17-0.53.17-1.23,0-1.93,0.17-3.33,1.4-6.66,1.23-10,1.58a10.27,10.27,0,0,1-8.76-3,3.84,3.84,0,0,1-.88-2.1L285,185.39v-3a69.53,69.53,0,0,0-.18-8.59c0-3.33,0-6.66-.18-10-0.18-3.86.35-7.71,0.18-11.39-0.35-4.91-.18-10-0.35-15.08-0.35-6-.18-12.09-0.18-18.23,0-3,.18-5.78.35-8.76,0.53-5.26,0-10.34,0-15.6,0-2.28,0-4.73.18-7a16.67,16.67,0,0,1,.7-3.15,1.84,1.84,0,0,0,.18-2.1c-0.53-.7,0-1.23.53-1.58a9.28,9.28,0,0,1,4-1.4,11.8,11.8,0,0,1,2.45-.35c3.16,0,6.14-.7,9.29-0.88,5.08-.18,10-0.88,15.08-0.7a26.85,26.85,0,0,0,9.82-1.05c2.45-.7,4.73.35,7,0.88l0.53,0.53a0.93,0.93,0,0,1,.35.53,0.75,0.75,0,0,1-.53.53c-0.18,0-.35-0.18-0.53-0.18a0.93,0.93,0,0,0-.53.35c0.35,0.88,1.4.53,1.58,1.05a0.54,0.54,0,0,1,.18.35,9.61,9.61,0,0,1-3.16,2.8,17.65,17.65,0,0,0-2.63,1.23,13.83,13.83,0,0,1-8.41,1.23,19.37,19.37,0,0,1-3.16-.35c-2.28-.7-4.38,0-6.66.17a28.74,28.74,0,0,1-3.86-.35c-0.35,0-.7-0.18-1.05-0.18-2.45,0-2.63.35-2.28,3a40.68,40.68,0,0,1,.53,8.06c0,2.1-.35,4.38,0,6.49a1.12,1.12,0,0,1,0,1.05,14.38,14.38,0,0,0-.35,3.86,30,30,0,0,1-.18,5.61c-0.18,1.05,0,2.28-.18,3.33,0,0.88.18,1.4,1.05,1.23h2.63a44.47,44.47,0,0,1,9.64.35c0.88,0.35,1.93-.18,2.8-0.53a2,2,0,0,1,2.1.7c0.7,0.88,1.58,1.4,1.75,3,0.18,1.75-.88,3.86-2.28,4-3.33.35-6.49,1.23-9.64,1.75a6.53,6.53,0,0,1-3.16-.35,9.53,9.53,0,0,0-3.86-.18c-0.88,0-1.23.35-1.23,1.4a26.17,26.17,0,0,0,.35,3.68,90.66,90.66,0,0,1,0,15.43c-0.7,7.54-.7,15.07-1.05,22.61l-1.05,21c0,1.58-.35,3-0.35,4.38a1,1,0,0,0,1.05,1.23c3.68-.17,7.54,0,11.39-0.35l11.92-1.58a24,24,0,0,1,10.52,1.05c0.88,0.17,1.58,1.05,2.63,1.75C337.28,198.36,337.28,198.36,338.68,199.59Z" transform="translate(0.34)"/><path d="M352.18,98.8a28.48,28.48,0,0,1,2.28,6.84,12.26,12.26,0,0,0,1.58,4.21l7.19,13.32c2.1,3.51,3.86,7.36,6.49,10.52a70.12,70.12,0,0,1,5.61,8.41c1.93,3.33,4.38,6.49,6,10.34,1.05,2.8,2.45,5.43,3.33,8.24,1.23,3.86,2.8,7.89,2.45,12.1a10.26,10.26,0,0,1-.35,2.28,15.91,15.91,0,0,0-.53,4c-0.7,7.36-2.8,14-7.89,19.63a7,7,0,0,1-2.63,2.45c-2.28.88-4.38,1.93-6.66,2.63l-3.86,1.05a6.17,6.17,0,0,1-3.51.53,23.82,23.82,0,0,0-3.51-.35,15,15,0,0,1-8.41-3.51l-4-3.16a20.7,20.7,0,0,1-5.61-6.66,62.56,62.56,0,0,1-6.14-13,40.42,40.42,0,0,1-1.05-12.09c0.35-3.51,1.05-6.66,1.58-10a6.23,6.23,0,0,1,.35-1.75c0.53-1.58,1.23-1.93,3.16-1.58a0.65,0.65,0,0,1,.53.17,4.43,4.43,0,0,1,3.86,5.08,63.86,63.86,0,0,0-.7,10,3,3,0,0,1-.18,1.23c-0.88,3.16,0,6.31.7,9.29a32.25,32.25,0,0,0,4,9.12,22.68,22.68,0,0,0,8.06,8.24A11.65,11.65,0,0,0,359,198c1.58,0.18,2.63-.7,3.68-1.58A8.25,8.25,0,0,0,365,193.8a63.46,63.46,0,0,1,3.51-5.79,7.5,7.5,0,0,0,1.05-3.86,51.22,51.22,0,0,0-2.28-17.88,70.5,70.5,0,0,0-6.31-15.07c-2.28-4.21-4.73-8.24-7.19-12.45-1.75-3-3.68-5.78-5.61-8.76a92.3,92.3,0,0,1-6-11.74c-0.88-2.28-2.45-4.21-3.33-6.31-1.4-3.51-3-6.84-3.51-10.69a22.73,22.73,0,0,1,.53-9.12c0.53-1.58,1.05-3.33,1.4-4.91a11.7,11.7,0,0,1,1.58-3.68c2.45-3.15,4.73-6.31,8.06-8.41a23,23,0,0,1,4.73-2.1c1.93-.53,3.68-1.4,5.61-1.93a22.26,22.26,0,0,1,8.94-.88,16.62,16.62,0,0,1,6.49,1.4c3.33,1.4,5.43,3.86,7.54,6.66a12.35,12.35,0,0,1,3,7.54c0.18,3.86.18,7.89-1.23,11.57a4.82,4.82,0,0,1-1.4,2.63c-0.88.88-1.4,1.05-2.45,0.17a5.24,5.24,0,0,1-2.28-4.38V87.05a8.53,8.53,0,0,1,.18-2.1,3.94,3.94,0,0,0-.18-2.45,5.42,5.42,0,0,0-4.91-4.21c-1.23-.18-2.28-0.88-3.68-0.7-2.28.53-4.56,0.7-6.84,1.05-1.75,0-3,1.4-4.38,2.28a14.37,14.37,0,0,0-4.38,4.21,5.65,5.65,0,0,0-1.05,3.16c0.18,1.23,0,2.28.18,3.33A15.06,15.06,0,0,0,352.18,98.8Z" transform="translate(0.34)"/><path d="M409.15,98.8a28.48,28.48,0,0,1,2.28,6.84,12.26,12.26,0,0,0,1.58,4.21l7.19,13.32c2.1,3.51,3.86,7.36,6.49,10.52a70.12,70.12,0,0,1,5.61,8.41c1.93,3.33,4.38,6.49,6,10.34,1.05,2.8,2.45,5.43,3.33,8.24,1.23,3.86,2.8,7.89,2.45,12.1a10.26,10.26,0,0,1-.35,2.28,15.91,15.91,0,0,0-.53,4c-0.7,7.36-2.8,14-7.89,19.63a7,7,0,0,1-2.63,2.45c-2.28.88-4.38,1.93-6.66,2.63l-3.86,1.05a6.17,6.17,0,0,1-3.51.53,23.82,23.82,0,0,0-3.51-.35,15,15,0,0,1-8.41-3.51l-4-3.16a20.7,20.7,0,0,1-5.61-6.66,62.56,62.56,0,0,1-6.14-13,40.42,40.42,0,0,1-1.05-12.09c0.35-3.51,1.05-6.66,1.58-10a6.23,6.23,0,0,1,.35-1.75c0.53-1.58,1.23-1.93,3.16-1.58a0.65,0.65,0,0,1,.53.17,4.43,4.43,0,0,1,3.86,5.08,63.86,63.86,0,0,0-.7,10,3,3,0,0,1-.18,1.23c-0.88,3.16,0,6.31.7,9.29a32.25,32.25,0,0,0,4,9.12,22.68,22.68,0,0,0,8.06,8.24A11.65,11.65,0,0,0,416,198c1.58,0.18,2.63-.7,3.68-1.58a8.25,8.25,0,0,0,2.28-2.63,63.46,63.46,0,0,1,3.51-5.79,7.5,7.5,0,0,0,1.05-3.86,51.22,51.22,0,0,0-2.28-17.88,70.5,70.5,0,0,0-6.31-15.07c-2.28-4.21-4.73-8.24-7.19-12.45-1.75-3-3.68-5.78-5.61-8.76a92.3,92.3,0,0,1-6-11.74c-0.88-2.28-2.45-4.21-3.33-6.31-1.4-3.51-3-6.84-3.51-10.69a22.73,22.73,0,0,1,.53-9.12c0.53-1.58,1.05-3.33,1.4-4.91a11.7,11.7,0,0,1,1.58-3.68c2.45-3.15,4.73-6.31,8.06-8.41a23,23,0,0,1,4.73-2.1c1.93-.53,3.68-1.4,5.61-1.93a22.26,22.26,0,0,1,8.94-.88,16.62,16.62,0,0,1,6.49,1.4c3.33,1.4,5.43,3.86,7.54,6.66a12.35,12.35,0,0,1,3,7.54c0.18,3.86.18,7.89-1.23,11.57a4.82,4.82,0,0,1-1.4,2.63c-0.88.88-1.4,1.05-2.45,0.17a5.24,5.24,0,0,1-2.28-4.38V87.05a8.53,8.53,0,0,1,.18-2.1,3.94,3.94,0,0,0-.18-2.45,5.42,5.42,0,0,0-4.91-4.21c-1.23-.18-2.28-0.88-3.68-0.7-2.28.53-4.56,0.7-6.84,1.05-1.75,0-3,1.4-4.38,2.28a14.37,14.37,0,0,0-4.38,4.21,5.65,5.65,0,0,0-1.05,3.16c0.18,1.23,0,2.28.18,3.33A15.06,15.06,0,0,0,409.15,98.8Z" transform="translate(0.34)"/><path d="M470.85,156.29c-2.63-.35-0.88-0.17-3.51,0-3,0-5.78-.53-8.76-0.35a6.59,6.59,0,0,1-3.68-.18c-1.23-.7-2.28-1.23-2.8-2.8a1.23,1.23,0,0,0-.7-0.88c-0.88-1.23-.7-2.28.35-3a1.79,1.79,0,0,1,1.58-.35c3,0,5.78-.17,8.59,0a27.38,27.38,0,0,0,6.49-.35,9.88,9.88,0,0,1,2.28,0c3.86,0.7,3.51.35,7.36,0,3.33-.18,6.66-0.35,9.82-0.35a32.71,32.71,0,0,1,6,.7,2.48,2.48,0,0,1,2.45,2.46c0.35,1.93-.35,3.68-2.1,3.86l-7.36.88c-2.8.35-5.61,0.18-8.41,0.7-0.88.18-1.93-.18-2.8,0.18Z" transform="translate(0.34)"/><path d="M569.37,204.67a2.47,2.47,0,0,0-1.4,1.05c-0.53.88-1.23,0.7-1.93,0.35a22.94,22.94,0,0,1-4.91-3,4.09,4.09,0,0,1-1.23-2.63,103,103,0,0,0-2.8-10.52,40.32,40.32,0,0,1-1.75-8.94c-0.88-5.61-1.93-11-3.16-16.65L550.26,154l-0.7-2.63c-0.18-.7-0.53-1.05-1.58-0.7a50.74,50.74,0,0,1-10.52,1.4c-4.91.17-9.82,0.88-14.72,1.4a1.25,1.25,0,0,0-1.4,1.23l-1.75,8.94a63.7,63.7,0,0,1-1.75,7.89l-1.93,7.89q-1.58,6-3.68,12.09a24.58,24.58,0,0,0-1.05,4.91c-0.7,3.51-3.16,5.79-6.66,7.19a9,9,0,0,1-3.68.53,29.24,29.24,0,0,1-5.43-.88c-1.4-.17-1.58-0.53-1.4-1.93a29.2,29.2,0,0,1,1.4-5.26c1.05-3.86,1.4-7.71,2.1-11.75L500,172.07c1.23-6,2.8-11.92,4-17.88,1.05-4.91,2.28-9.64,3.68-14.37,1.4-5.43,2.63-10.69,4.21-16.13,0.7-2.8,1.75-5.43,2.28-8.24,1.05-4.21,2.63-8.41,3.51-12.8a26.63,26.63,0,0,1,1.05-3.51l0.88-3.51A20.88,20.88,0,0,1,521.34,90c0.88-1.58.7-3.33,1.23-5.08a58.7,58.7,0,0,1,3.33-9.29,3.66,3.66,0,0,1,2.8-1.93,27.44,27.44,0,0,1,3.68-.7,1.34,1.34,0,0,0,.88-0.35c1.05-1.05,2.45-.53,3.68-0.53,3.86,0.17,6,2.28,7.54,4.91a28.66,28.66,0,0,1,2.8,8.24,97.63,97.63,0,0,1,2.45,12.45c0.7,5.26,1.93,10.52,2.1,16,0.18,1.75.7,3.33,1.05,5.08,1.58,6.13,2.8,12.45,4,18.76A152.49,152.49,0,0,0,560.78,153c1.23,3.51,1.4,7.19,2.28,10.69l2.45,10.52a67.49,67.49,0,0,1,2.28,11.57,7.6,7.6,0,0,0,.7,3.33c1.05,3.15,1.58,6.49,2.45,9.82a6,6,0,0,1,.18,1.75c-0.53,1.75-.18,3.33-0.35,5.08C569.72,205.72,570.25,204.67,569.37,204.67ZM535,93c-0.35,1.58,0,3.15-.53,4.56-1.05,3.16-1.4,6.49-2.63,9.47a23.18,23.18,0,0,0-1.4,5.78,36.34,36.34,0,0,1-1.4,7.36c-0.7,2.45-1.4,4.91-1.93,7.36l-2.8,13.5c-0.7,3.51-.7,3.33,3.33,3,3.86-.35,7.71-0.88,11.57-0.88,1.93,0,4-.17,6,0,1.75,0,1.93-.17,1.58-1.75-0.53-3.16-1.05-6.14-1.75-9.29-2.8-12.62-6.14-25.07-8.24-37.69-0.18-1.05,0-2.28-.88-3.16A4.13,4.13,0,0,0,535,93Z" transform="translate(0.34)"/><path d="M593,98.8a28.48,28.48,0,0,1,2.28,6.84,12.26,12.26,0,0,0,1.58,4.21l7.19,13.32c2.1,3.51,3.86,7.36,6.49,10.52a70.12,70.12,0,0,1,5.61,8.41c1.93,3.33,4.38,6.49,6,10.34,1.05,2.8,2.45,5.43,3.33,8.24,1.23,3.86,2.8,7.89,2.45,12.1a10.26,10.26,0,0,1-.35,2.28,15.91,15.91,0,0,0-.53,4c-0.7,7.36-2.8,14-7.89,19.63a7,7,0,0,1-2.63,2.45c-2.28.88-4.38,1.93-6.66,2.63L606,204.85a6.17,6.17,0,0,1-3.51.53A23.82,23.82,0,0,0,599,205a15,15,0,0,1-8.41-3.51l-4-3.16a20.7,20.7,0,0,1-5.61-6.66,62.56,62.56,0,0,1-6.14-13,40.42,40.42,0,0,1-1.05-12.09c0.35-3.51,1.05-6.66,1.58-10a6.23,6.23,0,0,1,.35-1.75c0.53-1.58,1.23-1.93,3.16-1.58a0.65,0.65,0,0,1,.53.17,4.43,4.43,0,0,1,3.86,5.08,63.86,63.86,0,0,0-.7,10,3,3,0,0,1-.18,1.23c-0.88,3.16,0,6.31.7,9.29a32.25,32.25,0,0,0,4,9.12,22.68,22.68,0,0,0,8.06,8.24,11.65,11.65,0,0,0,4.73,1.58c1.58,0.18,2.63-.7,3.68-1.58a8.25,8.25,0,0,0,2.28-2.63,63.46,63.46,0,0,1,3.51-5.79,7.5,7.5,0,0,0,1.05-3.86,51.22,51.22,0,0,0-2.28-17.88,70.5,70.5,0,0,0-6.31-15.07c-2.28-4.21-4.73-8.24-7.19-12.45-1.75-3-3.68-5.78-5.61-8.76a92.3,92.3,0,0,1-6-11.74c-0.88-2.28-2.45-4.21-3.33-6.31-1.4-3.51-3-6.84-3.51-10.69a22.73,22.73,0,0,1,.53-9.12c0.53-1.58,1.05-3.33,1.4-4.91a11.7,11.7,0,0,1,1.58-3.68c2.45-3.15,4.73-6.31,8.06-8.41a23,23,0,0,1,4.73-2.1c1.93-.53,3.68-1.4,5.61-1.93a22.26,22.26,0,0,1,8.94-.88,16.62,16.62,0,0,1,6.49,1.4c3.33,1.4,5.43,3.86,7.54,6.66a12.35,12.35,0,0,1,3,7.54c0.18,3.86.18,7.89-1.23,11.57a4.82,4.82,0,0,1-1.4,2.63c-0.88.88-1.4,1.05-2.45,0.17a5.24,5.24,0,0,1-2.28-4.38V87.05a8.53,8.53,0,0,1,.18-2.1,3.94,3.94,0,0,0-.18-2.45,5.42,5.42,0,0,0-4.91-4.21c-1.23-.18-2.28-0.88-3.68-0.7-2.28.53-4.56,0.7-6.84,1.05-1.75,0-3,1.4-4.38,2.28a14.37,14.37,0,0,0-4.38,4.21,5.65,5.65,0,0,0-1.05,3.16c0.18,1.23,0,2.28.18,3.33A15.06,15.06,0,0,0,593,98.8Z" transform="translate(0.34)"/><path d="M654.74,156.29c-2.63-.35-0.88-0.17-3.51,0-3,0-5.78-.53-8.76-0.35a6.59,6.59,0,0,1-3.68-.18c-1.23-.7-2.28-1.23-2.8-2.8a1.23,1.23,0,0,0-.7-0.88c-0.88-1.23-.7-2.28.35-3a1.79,1.79,0,0,1,1.58-.35c3,0,5.78-.17,8.59,0a27.38,27.38,0,0,0,6.49-.35,9.88,9.88,0,0,1,2.28,0c3.86,0.7,3.51.35,7.36,0,3.33-.18,6.66-0.35,9.82-0.35a32.71,32.71,0,0,1,6,.7,2.48,2.48,0,0,1,2.45,2.46c0.35,1.93-.35,3.68-2.1,3.86l-7.36.88c-2.8.35-5.61,0.18-8.41,0.7-0.88.18-1.93-.18-2.8,0.18Z" transform="translate(0.34)"/><path d="M753.25,204.67a2.47,2.47,0,0,0-1.4,1.05c-0.53.88-1.23,0.7-1.93,0.35a22.94,22.94,0,0,1-4.91-3,4.09,4.09,0,0,1-1.23-2.63,103,103,0,0,0-2.8-10.52,40.32,40.32,0,0,1-1.75-8.94c-0.88-5.61-1.93-11-3.16-16.65L734.15,154l-0.7-2.63c-0.18-.7-0.53-1.05-1.58-0.7a50.74,50.74,0,0,1-10.52,1.4c-4.91.17-9.82,0.88-14.72,1.4a1.25,1.25,0,0,0-1.4,1.23l-1.75,8.94a63.7,63.7,0,0,1-1.75,7.89l-1.93,7.89q-1.58,6-3.68,12.09a24.58,24.58,0,0,0-1.05,4.91c-0.7,3.51-3.16,5.79-6.66,7.19a9,9,0,0,1-3.68.53,29.24,29.24,0,0,1-5.43-.88c-1.4-.17-1.58-0.53-1.4-1.93a29.2,29.2,0,0,1,1.4-5.26c1.05-3.86,1.4-7.71,2.1-11.75l2.45-12.27c1.23-6,2.8-11.92,4-17.88,1.05-4.91,2.28-9.64,3.68-14.37,1.4-5.43,2.63-10.69,4.21-16.13,0.7-2.8,1.75-5.43,2.28-8.24,1.05-4.21,2.63-8.41,3.51-12.8a26.63,26.63,0,0,1,1.05-3.51l0.88-3.51A20.88,20.88,0,0,1,705.22,90c0.88-1.58.7-3.33,1.23-5.08a58.7,58.7,0,0,1,3.33-9.29,3.66,3.66,0,0,1,2.8-1.93,27.44,27.44,0,0,1,3.68-.7,1.34,1.34,0,0,0,.88-0.35c1.05-1.05,2.45-.53,3.68-0.53,3.86,0.17,6,2.28,7.54,4.91a28.66,28.66,0,0,1,2.8,8.24,97.63,97.63,0,0,1,2.45,12.45c0.7,5.26,1.93,10.52,2.1,16,0.18,1.75.7,3.33,1.05,5.08,1.58,6.13,2.8,12.45,4,18.76A152.49,152.49,0,0,0,744.66,153c1.23,3.51,1.4,7.19,2.28,10.69l2.45,10.52a67.49,67.49,0,0,1,2.28,11.57,7.6,7.6,0,0,0,.7,3.33c1.05,3.15,1.58,6.49,2.45,9.82a6,6,0,0,1,.18,1.75c-0.53,1.75-.18,3.33-0.35,5.08C753.6,205.72,754.13,204.67,753.25,204.67ZM718.9,93c-0.35,1.58,0,3.15-.53,4.56-1.05,3.16-1.4,6.49-2.63,9.47a23.18,23.18,0,0,0-1.4,5.78,36.34,36.34,0,0,1-1.4,7.36c-0.7,2.45-1.4,4.91-1.93,7.36L708.2,141c-0.7,3.51-.7,3.33,3.33,3,3.86-.35,7.71-0.88,11.57-0.88,1.93,0,4-.17,6,0,1.75,0,1.93-.17,1.58-1.75-0.53-3.16-1.05-6.14-1.75-9.29-2.8-12.62-6.14-25.07-8.24-37.69-0.18-1.05,0-2.28-.88-3.16A4.13,4.13,0,0,0,718.9,93Z" transform="translate(0.34)"/><path d="M778.85,156.29c-2.63-.35-0.88-0.17-3.51,0-3,0-5.78-.53-8.76-0.35a6.59,6.59,0,0,1-3.68-.18c-1.23-.7-2.28-1.23-2.8-2.8a1.23,1.23,0,0,0-.7-0.88c-0.88-1.23-.7-2.28.35-3a1.79,1.79,0,0,1,1.58-.35c3,0,5.78-.17,8.59,0a27.38,27.38,0,0,0,6.49-.35,9.88,9.88,0,0,1,2.28,0c3.86,0.7,3.51.35,7.36,0,3.33-.18,6.66-0.35,9.82-0.35a32.71,32.71,0,0,1,6,.7,2.48,2.48,0,0,1,2.45,2.46c0.35,1.93-.35,3.68-2.1,3.86l-7.36.88c-2.8.35-5.61,0.18-8.41,0.7-0.88.18-1.93-.18-2.8,0.18Z" transform="translate(0.34)"/><path d="M837,129.3a39.68,39.68,0,0,1,9.29.53c2.28,0.35,4.56.35,6.66,1.23,0.7,0.35,1.75,0,2.63-.17l5.61-1.05c0.7-.17,1.23-0.35,1.05-1.23a1,1,0,0,1,1.4-1.23c2.28,0.35,4.56.88,6.66,1.4l2.8,0.53a5.46,5.46,0,0,1,2.8,2.1,15.73,15.73,0,0,1,1.75,9.82,16.94,16.94,0,0,0,.18,4.21,17.85,17.85,0,0,1-.35,6.13l-1.75,12.27a9.91,9.91,0,0,1-.7,2.1,22.57,22.57,0,0,0-.7,3.33c-0.18,2.28-1.05,4.21-1.58,6.31,0,0.18-.17.53-0.17,0.7-0.35,3.51-1.93,6.84-2.45,10.34a34.26,34.26,0,0,1-2.8,9.12l-0.53.88c-0.7,3.51-2.63,6.31-4.38,9.29a14.27,14.27,0,0,1-3.16,3.33,2.61,2.61,0,0,1-1.58.7c-2.28.35-4.56,1.05-6.84,1.4-3.16.53-6.31-.18-9.47-0.7a36,36,0,0,0-4.56-.53,21.61,21.61,0,0,1-10.69-4c-7-5.26-11.57-12.09-14.55-20.16a120.78,120.78,0,0,1-4.56-19.46c-0.53-3.33-1.4-6.66-1.75-10.17-0.35-3.68-.7-7.36-0.7-11l0.53-14a100.48,100.48,0,0,1,1.23-10.17c0.53-4.21,1.05-8.24,1.93-12.27A108.21,108.21,0,0,1,814.43,89a56.74,56.74,0,0,1,8.41-13l1.58-1.93A2.48,2.48,0,0,1,826.88,73c2.45,0.53,4.73-.35,6.84-0.88a21.85,21.85,0,0,1,14.2,1.4,16.19,16.19,0,0,1,3.86,3l2.63,2.63a8.12,8.12,0,0,1,2.63,7,8.56,8.56,0,0,0,.17,2.1c1.23,3.33.53,6.84-.35,10.17a2.48,2.48,0,0,0-.35,1.05c-0.17.7-.35,1.75-1.23,1.93-1.23.17-2.28,0.53-3.51-.18-2.8-1.4-3.86-3.86-4-6.66-0.18-1.75,0-3.51,0-5.26a42.12,42.12,0,0,0-.53-4.91,4,4,0,0,0-1.4-2.45,2.24,2.24,0,0,1-1.23-.88,3.35,3.35,0,0,0-2.8-1.05A4.89,4.89,0,0,0,837,83.9a7,7,0,0,1-1.75,3.15,12.27,12.27,0,0,0-2.63,6c-0.53,3.51-2.1,6.84-2.8,10.34L827.76,114c-0.7,2.63-.88,5.43-1.4,8.24-0.35,2.63-.18,5.43-0.35,8.24a73.3,73.3,0,0,0-.35,8.77c0,3.51-.35,7.19,0,10.69a132.94,132.94,0,0,0,2.63,18.41c1.05,4,2.45,7.89,3.68,11.92a43.41,43.41,0,0,1,1.05,5.08c0.53,2.1,1.75,3.86,2.63,5.61,1.4,3.16,4,5.08,6.84,7a3.68,3.68,0,0,1,1.05.7c1.75,2.45,4.91,2.1,7.54,2.8,1.05,0.35,1.93-.35,2.46-1.4a32.5,32.5,0,0,0,3.15-7.71c1.58-5.43,2.1-10.87,3-16.3,0.7-6,1.23-11.74,1.75-17.7,0.35-3.33.35-6.84,0.53-10.17l0.7-6.84v-1.75c0-.7-0.18-1.05-1.05-0.88a22.56,22.56,0,0,1-8.94,1.23,3.64,3.64,0,0,0-1.93.17,20,20,0,0,1-10.17-.35,13.83,13.83,0,0,1-7.89-7.19c-0.53-1.05.53-1.93,0.18-3a1.48,1.48,0,0,1,1.05-.35H837Z" transform="translate(0.34)"/><path d="M954,204.67a2.46,2.46,0,0,0-1.4,1.05c-0.53.88-1.23,0.7-1.93,0.35a22.92,22.92,0,0,1-4.91-3,4.09,4.09,0,0,1-1.23-2.63,102.73,102.73,0,0,0-2.8-10.52,40.32,40.32,0,0,1-1.75-8.94c-0.88-5.61-1.93-11-3.16-16.65L934.86,154l-0.7-2.63c-0.18-.7-0.53-1.05-1.58-0.7a50.74,50.74,0,0,1-10.52,1.4c-4.91.17-9.82,0.88-14.72,1.4a1.25,1.25,0,0,0-1.4,1.23l-1.75,8.94a63.71,63.71,0,0,1-1.75,7.89l-1.93,7.89q-1.58,6-3.68,12.09a24.57,24.57,0,0,0-1.05,4.91c-0.7,3.51-3.16,5.79-6.66,7.19a9,9,0,0,1-3.68.53,29.26,29.26,0,0,1-5.43-.88c-1.4-.17-1.58-0.53-1.4-1.93a29.28,29.28,0,0,1,1.4-5.26c1.05-3.86,1.4-7.71,2.1-11.75l2.46-12.27c1.23-6,2.8-11.92,4-17.88,1.05-4.91,2.28-9.64,3.68-14.37,1.4-5.43,2.63-10.69,4.21-16.13,0.7-2.8,1.75-5.43,2.28-8.24,1.05-4.21,2.63-8.41,3.51-12.8a26.55,26.55,0,0,1,1.05-3.51l0.88-3.51A20.86,20.86,0,0,1,905.94,90c0.88-1.58.7-3.33,1.23-5.08a58.66,58.66,0,0,1,3.33-9.29,3.66,3.66,0,0,1,2.8-1.93A27.41,27.41,0,0,1,917,73a1.34,1.34,0,0,0,.88-0.35c1.05-1.05,2.46-.53,3.68-0.53,3.86,0.17,6,2.28,7.54,4.91a28.65,28.65,0,0,1,2.8,8.24,97.55,97.55,0,0,1,2.46,12.45c0.7,5.26,1.93,10.52,2.1,16,0.17,1.75.7,3.33,1.05,5.08,1.58,6.13,2.8,12.45,4,18.76A152.36,152.36,0,0,0,945.38,153c1.23,3.51,1.4,7.19,2.28,10.69l2.45,10.52a67.4,67.4,0,0,1,2.28,11.57,7.61,7.61,0,0,0,.7,3.33c1.05,3.15,1.58,6.49,2.45,9.82a6,6,0,0,1,.17,1.75c-0.53,1.75-.17,3.33-0.35,5.08C954.32,205.72,954.85,204.67,954,204.67ZM919.61,93c-0.35,1.58,0,3.15-.53,4.56-1.05,3.16-1.4,6.49-2.63,9.47a23.21,23.21,0,0,0-1.4,5.78,36.24,36.24,0,0,1-1.4,7.36c-0.7,2.45-1.4,4.91-1.93,7.36l-2.8,13.5c-0.7,3.51-.7,3.33,3.33,3,3.86-.35,7.71-0.88,11.57-0.88,1.93,0,4-.17,6,0,1.75,0,1.93-.17,1.58-1.75-0.53-3.16-1.05-6.14-1.75-9.29-2.8-12.62-6.14-25.07-8.24-37.69-0.17-1.05,0-2.28-.88-3.16A4.12,4.12,0,0,0,919.61,93Z" transform="translate(0.34)"/><path d="M1033.55,90.21c-1.93,3.86-3.68,7.71-5.43,11.57-2.63,5.43-5.08,11-8.06,16.3a89.46,89.46,0,0,1-7.89,12.1,46.66,46.66,0,0,1-6.13,5.61,1.76,1.76,0,0,1-.88.7c-1.75.88-2.28,0.53-2.8-1.23a0.81,0.81,0,0,0-.53-0.88c-2.1-.7-2.63-2.63-3.68-4-3.86-5.43-6.84-11-10.17-16.83-1.4-2.45-2.63-5.26-3.86-7.89a9.27,9.27,0,0,0-1.05-1.75,0.47,0.47,0,0,0-.53.53,85.43,85.43,0,0,1-.35,9.47c-0.18,8.06-.53,16.3-0.88,24.54a90.9,90.9,0,0,0-.18,9.82,77.58,77.58,0,0,1-.35,11c-0.35,3.33-.53,6.84-0.7,10.17a64.13,64.13,0,0,0-.18,13c0.35,2.63.53,5.43,0.7,8.06a5.14,5.14,0,0,0,.35,1.58c0,0.35.35,0.88,0,1.05-0.88.88-.53,1.93-0.53,2.8a6.74,6.74,0,0,1-3.51,5.08A5,5,0,0,0,975,202a2.81,2.81,0,0,1-3.33.88c-2.63-.7-5.08-1.23-7.36-3.16a5.86,5.86,0,0,1-1.93-4.73c0-6.13,0-12.27-.18-18.41-0.17-2.63.18-5.08,0.18-7.71-0.18-6.14.18-12.27,0-18.41V134c0.18-6.49.35-13,.88-19.46,0.35-5.79-.7-11.57-0.18-17.35,0.53-4.21.7-8.24,1.4-12.45l0.7-3.51a8.2,8.2,0,0,0,.35-2.8c0-2.1.35-2.63,2.28-3.33a34.12,34.12,0,0,1,6-.35,1.46,1.46,0,0,1,.88,0,8.56,8.56,0,0,1,8.94,3,41.25,41.25,0,0,1,8.06,11.75c2.1,4.91,3.86,10,6.49,14.72,1.58,2.63,3.16,5.26,4.56,8.06l2.63,5.26c0.7,1.23,1.05,1.23,1.58,0,2.8-5.26,5.78-10.69,8.24-16.13,3.51-7.36,7-14.72,11.57-21.39l2.1-3.15a2.49,2.49,0,0,1,1.58-1.4c1.93-.35,3.86-0.88,5.79-0.53a3.23,3.23,0,0,1,2.28.7c2.8,1.93,4.73,4.38,4.91,8.06,0.35,4.38.17,8.94,0.17,13.5v14.2c0,4.56.18,9.12,0.35,13.85a24.5,24.5,0,0,1-.35,6.13,8.32,8.32,0,0,0-.17,3,35.47,35.47,0,0,1-.17,6.13c-0.18,3.33,0,6.66-.18,9.82a47.46,47.46,0,0,1-.18,4.91c0,3.33,0,6.66-.17,10v6.49c-0.35,8.24-.17,16.48-0.88,24.72,0,1.05-.53,2.1-0.53,3.16a2,2,0,0,1-1.4,1.23,5.29,5.29,0,0,1-3.33-.88l-2.8-2.63a6.49,6.49,0,0,1-1.58-4.73c0-4.38.35-8.77,0.17-13-0.35-4.73.53-9.46,0.35-14.2-0.18-7.54.7-14.9,0.7-22.44l0.7-13.32c0-3.86,0-7.71.17-11.57a59.41,59.41,0,0,1,.7-9.64c0.53-2.63.17-5.43,0-8.06-0.17-3-.35-6.13-0.35-9.12a1.6,1.6,0,0,0-.35-1.93A1.75,1.75,0,0,0,1033.55,90.21Z" transform="translate(0.34)"/><path d="M1109.81,199.59a25,25,0,0,1-3.16,1.4c-3.51.88-6.84,0.17-10.17,1.4-3.68-.35-7.36,1.05-11,1.4-2.28.17-4.56,0-6.84,0.17-0.53.17-1.23,0-1.93,0.17-3.33,1.4-6.66,1.23-10,1.58a10.27,10.27,0,0,1-8.76-3,3.84,3.84,0,0,1-.88-2.1l-0.88-15.25v-3a69.33,69.33,0,0,0-.18-8.59c0-3.33,0-6.66-.17-10-0.17-3.86.35-7.71,0.17-11.39-0.35-4.91-.17-10-0.35-15.08-0.35-6-.18-12.09-0.18-18.23,0-3,.18-5.78.35-8.76,0.53-5.26,0-10.34,0-15.6,0-2.28,0-4.73.17-7a16.79,16.79,0,0,1,.7-3.15,1.84,1.84,0,0,0,.18-2.1c-0.53-.7,0-1.23.53-1.58a9.28,9.28,0,0,1,4-1.4,11.79,11.79,0,0,1,2.45-.35c3.16,0,6.13-.7,9.29-0.88,5.08-.18,10-0.88,15.07-0.7a26.84,26.84,0,0,0,9.82-1.05c2.46-.7,4.73.35,7,0.88l0.53,0.53a0.94,0.94,0,0,1,.35.53,0.75,0.75,0,0,1-.53.53c-0.18,0-.35-0.18-0.53-0.18a0.94,0.94,0,0,0-.53.35c0.35,0.88,1.4.53,1.58,1.05a0.54,0.54,0,0,1,.18.35,9.61,9.61,0,0,1-3.16,2.8,17.69,17.69,0,0,0-2.63,1.23,13.83,13.83,0,0,1-8.41,1.23,19.37,19.37,0,0,1-3.16-.35c-2.28-.7-4.38,0-6.66.17a28.74,28.74,0,0,1-3.86-.35c-0.35,0-.7-0.18-1.05-0.18-2.45,0-2.63.35-2.28,3a40.64,40.64,0,0,1,.53,8.06c0,2.1-.35,4.38,0,6.49a1.12,1.12,0,0,1,0,1.05,14.38,14.38,0,0,0-.35,3.86,29.94,29.94,0,0,1-.18,5.61c-0.17,1.05,0,2.28-.17,3.33,0,0.88.17,1.4,1.05,1.23h2.63a44.47,44.47,0,0,1,9.64.35c0.88,0.35,1.93-.18,2.8-0.53a2,2,0,0,1,2.1.7c0.7,0.88,1.58,1.4,1.75,3,0.18,1.75-.88,3.86-2.28,4-3.33.35-6.49,1.23-9.64,1.75a6.53,6.53,0,0,1-3.16-.35,9.53,9.53,0,0,0-3.86-.18c-0.88,0-1.23.35-1.23,1.4a26.24,26.24,0,0,0,.35,3.68,90.5,90.5,0,0,1,0,15.43c-0.7,7.54-.7,15.07-1.05,22.61l-1.05,21c0,1.58-.35,3-0.35,4.38a1,1,0,0,0,1.05,1.23c3.68-.17,7.54,0,11.39-0.35l11.92-1.58a24,24,0,0,1,10.52,1.05c0.88,0.17,1.58,1.05,2.63,1.75C1108.4,198.36,1108.4,198.36,1109.81,199.59Z" transform="translate(0.34)"/></svg>