<?xml version="1.0" encoding="utf-8"?>
<!-- Generator: Adobe Illustrator 16.0.0, SVG Export Plug-In . SVG Version: 6.00 Build 0)  -->
<!DOCTYPE svg PUBLIC "-//W3C//DTD SVG 1.1//EN" "http://www.w3.org/Graphics/SVG/1.1/DTD/svg11.dtd">
<svg version="1.1" id="Layer_1" xmlns="http://www.w3.org/2000/svg" xmlns:xlink="http://www.w3.org/1999/xlink" x="0px" y="0px"
	 width="207.408px" height="283.333px" viewBox="0 0 207.408 283.333" enable-background="new 0 0 207.408 283.333"
	 xml:space="preserve">
<g>
	<g>
		<g>
			<g enable-background="new    ">
				<defs>
					<path id="SVGID_1_" enable-background="new    " d="M150.208,171.667c17.351,9.438,34.699,18.877,52.05,28.314
						c-0.594-0.322-1.313-0.455-2.113-0.342l-52.05-28.314C148.896,171.211,149.614,171.342,150.208,171.667z"/>
				</defs>
				<use xlink:href="#SVGID_1_"  overflow="visible"/>
				<clipPath id="SVGID_2_">
					<use xlink:href="#SVGID_1_"  overflow="visible"/>
				</clipPath>
				<g clip-path="url(#SVGID_2_)" enable-background="new    ">
					<path d="M200.145,199.639l-52.05-28.314c0.507-0.072,0.98-0.045,1.411,0.066l52.049,28.314
						C201.124,199.594,200.651,199.569,200.145,199.639"/>
					<path d="M201.555,199.706l-52.049-28.314c0.207,0.053,0.403,0.125,0.589,0.217l52.051,28.314
						C201.961,199.833,201.762,199.758,201.555,199.706"/>
					<path d="M202.146,199.922l-52.051-28.314c0.037,0.018,0.076,0.039,0.113,0.059l52.05,28.314
						C202.22,199.959,202.183,199.942,202.146,199.922"/>
				</g>
			</g>
			<g>
				<polygon points="181.013,202.329 128.961,174.012 148.095,171.325 200.145,199.639 				"/>
			</g>
			<g enable-background="new    ">
				<defs>
					<path id="SVGID_3_" enable-background="new    " d="M134.052,275.899c-17.349-9.439-34.699-18.875-52.05-28.316
						c-1.176-0.639-1.857-2.029-1.697-3.768l52.052,28.316C132.194,273.868,132.877,275.26,134.052,275.899z"/>
				</defs>
				<use xlink:href="#SVGID_3_"  overflow="visible"/>
				<clipPath id="SVGID_4_">
					<use xlink:href="#SVGID_3_"  overflow="visible"/>
				</clipPath>
				<g clip-path="url(#SVGID_4_)" enable-background="new    ">
					<path d="M134.052,275.899l-52.05-28.316c-1.176-0.639-1.857-2.029-1.697-3.768l52.052,28.316
						C132.194,273.868,132.877,275.26,134.052,275.899"/>
				</g>
			</g>
			<g>
				<polygon points="132.356,272.131 80.305,243.815 83.701,217.528 135.749,245.844 				"/>
			</g>
			<g enable-background="new    ">
				<defs>
					<path id="SVGID_5_" enable-background="new    " d="M141.087,64.842c17.349,9.438,34.699,18.877,52.049,28.314
						c-0.596-0.324-1.317-0.455-2.12-0.342l-52.05-28.316C139.768,64.385,140.489,64.518,141.087,64.842z"/>
				</defs>
				<use xlink:href="#SVGID_5_"  overflow="visible"/>
				<clipPath id="SVGID_6_">
					<use xlink:href="#SVGID_5_"  overflow="visible"/>
				</clipPath>
				<g clip-path="url(#SVGID_6_)" enable-background="new    ">
					<path d="M191.016,92.815l-52.05-28.316c0.507-0.07,0.982-0.045,1.415,0.066l52.049,28.316
						C191.998,92.768,191.523,92.743,191.016,92.815"/>
					<path d="M192.43,92.881l-52.049-28.316c0.207,0.055,0.405,0.127,0.593,0.221l52.05,28.313
						C192.837,93.006,192.639,92.932,192.43,92.881"/>
					<path d="M193.023,93.098l-52.05-28.313c0.038,0.018,0.074,0.035,0.113,0.057l52.049,28.314
						C193.099,93.137,193.061,93.118,193.023,93.098"/>
				</g>
			</g>
			<g>
				<polygon points="140.597,208.008 88.547,179.692 93.883,139.467 145.933,167.782 				"/>
			</g>
			<g>
				<polygon points="114.063,211.737 62.012,183.422 88.547,179.692 140.597,208.008 				"/>
			</g>
			<g>
				<polygon points="162.804,96.78 110.752,68.465 138.966,64.499 191.016,92.815 				"/>
			</g>
			<g enable-background="new    ">
				<defs>
					<path id="SVGID_7_" enable-background="new    " d="M155.381,101.7l-52.05-28.314c2.157-2.881,3.839-4.418,7.421-4.92
						l52.052,28.314C159.22,97.284,157.539,98.819,155.381,101.7z"/>
				</defs>
				<use xlink:href="#SVGID_7_"  overflow="visible"/>
				<clipPath id="SVGID_8_">
					<use xlink:href="#SVGID_7_"  overflow="visible"/>
				</clipPath>
				<g clip-path="url(#SVGID_8_)" enable-background="new    ">
					<path d="M155.381,101.7l-52.05-28.314c0.447-0.6,0.875-1.139,1.305-1.625l52.049,28.316
						C156.257,100.561,155.829,101.102,155.381,101.7"/>
					<path d="M156.685,100.077L104.636,71.76c0.341-0.385,0.682-0.736,1.034-1.055l52.05,28.316
						C157.366,99.338,157.025,99.69,156.685,100.077"/>
					<path d="M157.72,99.022l-52.05-28.316c0.295-0.266,0.6-0.51,0.918-0.729L158.64,98.29
						C158.321,98.51,158.017,98.756,157.72,99.022"/>
					<path d="M158.64,98.29l-52.052-28.313c0.365-0.252,0.748-0.475,1.158-0.668l52.052,28.314
						C159.386,97.817,159.003,98.04,158.64,98.29"/>
					<path d="M159.798,97.624l-52.052-28.314c0.854-0.402,1.826-0.678,3.006-0.844l52.052,28.314
						C161.624,96.946,160.649,97.223,159.798,97.624"/>
				</g>
			</g>
			<g enable-background="new    ">
				<defs>
					<path id="SVGID_9_" enable-background="new    " d="M67.662,254.786c-17.35-9.441-34.699-18.877-52.05-28.316
						c-1.169-0.635-1.805-2.033-1.479-3.807l52.051,28.314C65.857,252.749,66.494,254.149,67.662,254.786z"/>
				</defs>
				<use xlink:href="#SVGID_9_"  overflow="visible"/>
				<clipPath id="SVGID_10_">
					<use xlink:href="#SVGID_9_"  overflow="visible"/>
				</clipPath>
				<g clip-path="url(#SVGID_10_)" enable-background="new    ">
					<path d="M67.662,254.786l-52.05-28.316c-1.169-0.635-1.805-2.033-1.479-3.807l52.051,28.314
						C65.857,252.749,66.494,254.149,67.662,254.786"/>
				</g>
			</g>
			<g>
				<polygon points="66.184,250.977 14.133,222.663 17.529,195.874 69.579,224.188 				"/>
			</g>
			<g>
				<polygon points="72.939,215.717 20.89,187.403 103.331,73.385 155.381,101.7 				"/>
			</g>
			<g enable-background="new    ">
				<defs>
					<path id="SVGID_11_" enable-background="new    " d="M69.579,224.188l-52.05-28.314c0.479-3.422,1.203-5.336,3.36-8.471
						l52.05,28.314C70.783,218.852,70.058,220.766,69.579,224.188z"/>
				</defs>
				<use xlink:href="#SVGID_11_"  overflow="visible"/>
				<clipPath id="SVGID_12_">
					<use xlink:href="#SVGID_11_"  overflow="visible"/>
				</clipPath>
				<g clip-path="url(#SVGID_12_)" enable-background="new    ">
					<path d="M69.579,224.188l-52.05-28.314c0.221-1.58,0.494-2.84,0.938-4.047l52.051,28.314
						C70.074,221.348,69.801,222.606,69.579,224.188"/>
					<path d="M70.518,220.141l-52.051-28.314c0.24-0.652,0.531-1.289,0.888-1.955l52.05,28.316
						C71.047,218.852,70.756,219.489,70.518,220.141"/>
					<path d="M71.404,218.188l-52.05-28.316c0.411-0.764,0.913-1.566,1.535-2.469l52.05,28.314
						C72.318,216.62,71.816,217.422,71.404,218.188"/>
				</g>
			</g>
			<g>
				<g>
					<path fill="#92C01A" d="M200.145,199.639c2.388-0.334,4.052,1.496,3.811,4.121l-3.635,28.365
						c-0.487,2.658-2.634,5.014-5.035,5.35l-19.118,2.689l-3.406,26.287c-0.242,2.613-2.398,4.984-4.787,5.318l-31.807,4.471
						c-2.389,0.336-4.053-1.498-3.811-4.109l3.393-26.287l-65.99,9.273c-2.39,0.336-4.063-1.482-3.575-4.141l3.396-26.789
						c0.479-3.422,1.204-5.336,3.36-8.471L155.381,101.7c2.158-2.881,3.839-4.416,7.423-4.92l28.212-3.965
						c2.389-0.338,4.064,1.494,3.822,4.117l-13.825,105.396L200.145,199.639z M140.597,208.008l5.336-40.227l-31.87,43.955
						L140.597,208.008"/>
					<path fill="#FFFFFF" d="M135.612,277.281c-1.21,0-2.307-0.472-3.087-1.328c-0.895-0.98-1.308-2.37-1.164-3.914l3.229-25.021
						l-64.692,9.091c-1.563,0.219-2.934-0.287-3.826-1.357c-0.845-1.014-1.154-2.418-0.872-3.954l3.387-26.734
						c0.509-3.641,1.333-5.72,3.529-8.911l82.455-114.037c2.328-3.108,4.215-4.779,8.094-5.324l28.213-3.965
						c1.508-0.212,2.861,0.262,3.789,1.28c0.896,0.981,1.311,2.373,1.168,3.919l-13.658,104.132l17.83-2.507
						c1.518-0.21,2.854,0.264,3.777,1.276c0.896,0.981,1.311,2.376,1.168,3.927l-3.639,28.4c-0.581,3.176-3.109,5.824-5.889,6.213
						l-18.363,2.583l-3.309,25.532c-0.281,3.047-2.761,5.777-5.64,6.18l-31.806,4.471
						C136.068,277.264,135.838,277.281,135.612,277.281z M136.908,244.671l-3.561,27.588c-0.086,0.94,0.145,1.786,0.656,2.347
						c0.485,0.533,1.195,0.756,2.023,0.645l31.807-4.471c1.935-0.271,3.734-2.295,3.932-4.42l3.508-27.079l19.873-2.796
						c1.933-0.271,3.773-2.265,4.19-4.54l3.626-28.312c0.087-0.948-0.146-1.799-0.657-2.359c-0.484-0.532-1.196-0.758-2.022-0.645
						l-20.434,2.872l13.996-106.699c0.087-0.94-0.146-1.789-0.657-2.35c-0.488-0.535-1.205-0.766-2.032-0.647l-28.213,3.965
						c-3.223,0.453-4.689,1.764-6.762,4.529L73.75,216.303c-2.025,2.945-2.712,4.674-3.181,8.023l-3.394,26.776
						c-0.182,0.996-0.025,1.817,0.433,2.367c0.451,0.542,1.166,0.776,2.011,0.657L136.908,244.671z M111.872,213.054l35.571-49.061
						l-5.955,44.899L111.872,213.054z M144.422,171.57l-28.169,38.85l23.452-3.296L144.422,171.57z"/>
				</g>
			</g>
		</g>
		<g>
			
				<rect x="183.637" y="220.28" transform="matrix(0.1562 0.9877 -0.9877 0.1562 375.4424 3.5614)" fill="#181716" width="4" height="2.499"/>
			<path fill="#181716" d="M89.212,238.822l-0.625-3.951l4.775-0.756l0.625,3.951L89.212,238.822z M98.763,237.309l-0.625-3.951
				l4.775-0.756l0.625,3.951L98.763,237.309z M108.313,235.797l-0.625-3.951l4.775-0.756l0.625,3.951L108.313,235.797z
				 M117.863,234.286l-0.625-3.951l4.774-0.757l0.626,3.951L117.863,234.286z M127.413,232.773l-0.625-3.951l4.775-0.756
				l0.625,3.951L127.413,232.773z M136.963,231.261l-0.625-3.951l4.775-0.756l0.625,3.951L136.963,231.261z M146.514,229.749
				l-0.625-3.951l4.775-0.756l0.625,3.951L146.514,229.749z M156.064,228.237l-0.625-3.951l4.774-0.756l0.625,3.951L156.064,228.237
				z M165.615,226.725l-0.627-3.951l4.775-0.757l0.626,3.951L165.615,226.725z M175.164,225.212l-0.625-3.951l4.775-0.756
				l0.625,3.951L175.164,225.212z"/>
			<polygon fill="#181716" points="79.065,240.427 80.246,235.119 83.064,235.745 83.812,235.626 83.859,235.921 84.15,235.986 
				83.986,236.725 84.437,239.578 			"/>
			<path fill="#181716" d="M85.265,230.968l-3.904-0.867l1.115-5.018l3.904,0.867L85.265,230.968z M87.819,222.086l-3.129-2.492
				l3.203-4.021l3.129,2.492L87.819,222.086z M94.225,214.045l-3.128-2.492l3.203-4.02l3.128,2.492L94.225,214.045z M100.63,206.005
				l-3.128-2.492l3.203-4.02l3.128,2.492L100.63,206.005z M107.037,197.965l-3.128-2.492l3.203-4.02l3.128,2.492L107.037,197.965z
				 M113.442,189.925l-3.128-2.492l3.203-4.02l3.127,2.492L113.442,189.925z M119.848,181.885l-3.127-2.492l3.202-4.02l3.128,2.492
				L119.848,181.885z M126.254,173.845l-3.128-2.492l3.203-4.02l3.128,2.492L126.254,173.845z M132.66,165.805l-3.129-2.492
				l3.203-4.02l3.129,2.492L132.66,165.805z M139.065,157.765l-3.128-2.492l3.203-4.02l3.128,2.492L139.065,157.765z
				 M145.472,149.725l-3.128-2.492l3.203-4.02l3.127,2.492L145.472,149.725z M151.877,141.685l-3.127-2.492l3.202-4.02l3.128,2.492
				L151.877,141.685z M158.283,133.645l-3.128-2.492l3.202-4.02l3.129,2.492L158.283,133.645z M164.689,125.605l-3.129-2.492
				l3.203-4.02l3.129,2.492L164.689,125.605z"/>
			<polygon fill="#181716" points="171.096,117.565 167.967,115.073 170.045,112.464 177.038,111.71 176.389,116.708 
				172.584,116.214 172.133,116.263 			"/>
			<path fill="#181716" d="M158.26,256.217l-3.967-0.516l0.647-4.982l3.967,0.516L158.26,256.217z M159.555,246.252l-3.967-0.516
				l0.647-4.982l3.967,0.516L159.555,246.252z M160.85,236.288l-3.967-0.516l0.647-4.982l3.967,0.516L160.85,236.288z
				 M162.145,226.323l-3.967-0.516l0.647-4.982l3.967,0.516L162.145,226.323z M163.439,216.357l-3.967-0.516l0.647-4.982
				l3.967,0.516L163.439,216.357z M164.734,206.392l-3.967-0.516l0.647-4.982l3.967,0.516L164.734,206.392z M166.029,196.427
				l-3.967-0.516l0.647-4.982l3.967,0.516L166.029,196.427z M167.324,186.462l-3.967-0.516l0.647-4.982l3.967,0.516L167.324,186.462
				z M168.619,176.498l-3.967-0.516L165.3,171l3.967,0.516L168.619,176.498z M169.914,166.533l-3.967-0.516l0.647-4.982l3.967,0.516
				L169.914,166.533z M171.209,156.568l-3.967-0.516l0.647-4.982l3.967,0.516L171.209,156.568z M172.504,146.603l-3.967-0.516
				l0.647-4.982l3.967,0.516L172.504,146.603z M173.799,136.638l-3.967-0.516l0.647-4.982l3.967,0.516L173.799,136.638z
				 M175.094,126.673l-3.967-0.516l0.647-4.982l3.967,0.516L175.094,126.673z"/>
			
				<rect x="153.468" y="260.93" transform="matrix(0.9917 0.1289 -0.1289 0.9917 35.0923 -17.8527)" fill="#181716" width="4" height="2.5"/>
		</g>
		<circle cx="155.438" cy="262.018" r="4.822"/>
		<circle cx="187.937" cy="221.833" r="4.823"/>
	</g>
	<polygon points="86.005,17.922 92.713,65.717 88.521,67.395 69.234,20.438 	"/>
	<polygon points="33.178,48.11 34.016,68.233 72.588,75.782 71.75,66.557 	"/>
	<polygon points="69.234,59.01 13.891,17.083 27.308,6.182 45.756,7.02 74.266,56.495 	"/>
</g>
</svg>
