<svg xmlns="http://www.w3.org/2000/svg" viewBox="0 0 637.28 180.15"><title>title.en</title><polygon points="304 62.67 0 145.33 0 82.67 304 0 304 62.67"/><path d="M16.83,138.37c2.52-13.34,5-26.69,7.58-40,0.39-2,1.1-3.49-1.35-5.29-1.6-1.18-1.54-4.61-1.92-5.93,4.46-.6,8.43-0.86,12.27-1.71,4.8-1.06,9.5-2.61,14.24-4l0.85,2.12c-3,1.79-5.84,3.8-8.94,5.32-3.46,1.69-5.78,3.81-6.25,7.93-0.34,3.06-1.5,6-2.52,9.93l8.16-1.91c1.49,4.62-2.34,6.16-4.94,6.81-4.89,1.23-6.2,4.36-7.06,8.61a66.53,66.53,0,0,1-3.75,13.26c-1.13,2.6-3.83,4.52-5.83,6.74Z" fill="#181716" fill-rule="evenodd"/><path d="M173.91,91.24c-2.71,1.91-5.87,4.18-9.08,6.39-4,2.74-8.8.82-9.44-4a23.8,23.8,0,0,1,.46-7.33q3.49-18.65,7.28-37.25a4.48,4.48,0,0,1,2.61-3c4.78-1.13,9.65-1.9,14.5-2.68a17.07,17.07,0,0,1,3.55.16l0.54,1.48c-2.23,1.44-4.28,3.44-6.72,4.19-5.27,1.62-7.1,5.2-7.37,10.23a52.18,52.18,0,0,1-1,5.71l9.16-2.59,1,0.87c-1.7,1.81-3.08,4.62-5.14,5.26-6.59,2.05-8.64,6.72-9.17,12.87a77,77,0,0,1-1.55,7.89l12.69-3.59c2.07-9.66,4.18-20.1,6.6-30.47a34.93,34.93,0,0,1,3.78-10c1-1.68,3.83-3.35,5.64-3.16,1.56,0.16,3.84,2.81,4.1,4.6,1.2,8.29,1.8,16.67,2.64,25a8.71,8.71,0,0,0,1.68,4.76c1.12-4.55,2.33-9.08,3.33-13.66,1.85-8.49,3.41-17,5.5-25.47,0.37-1.5,2.73-2.51,4.17-3.74l1.48,0.89c-0.55,2.74-1,5.5-1.66,8.22-3,12.81-5.9,25.63-9,38.42-0.71,2.95-1.47,7.23-5.45,6.12-2.8-.78-5.75-3.8-7-6.56-1.58-3.47-1.62-7.68-2.12-11.59a135.64,135.64,0,0,0-2.18-14.34c-0.76,3.18-1.65,6.34-2.26,9.54-1.71,8.88-3.17,17.81-5.06,26.65-0.31,1.47-2.23,2.59-3.4,3.87Z" fill="#181716" fill-rule="evenodd"/><path d="M128,107.2c-2.38,5.88-5.19,6.07-12.88,1.06-1,.95-1.83,2.26-3,2.89-2.9,1.51-6.63,4.41-8.78,3.57-2.67-1-5.14-5.06-5.83-8.2-1.91-8.68-.42-17.39,2.68-25.61a68.24,68.24,0,0,1,7.61-14.24c2.88-4.2,9.54-6.12,13.15-4.41,4.78,2.26,5.83,6.78,5.14,11.28A199.16,199.16,0,0,1,121.12,97C119.56,102.62,121.65,106.64,128,107.2ZM117.33,66.48L105.9,88.41l1,1.07c6.5-4.16,6.72,3,9.81,5C121.42,85.3,122.14,73.49,117.33,66.48Zm-12.51,44.35h1.79c8.07-7.39,7.2-7.63-1.87-17.94C104.77,99.59,104.8,105.21,104.82,110.83Z" fill="#181716" fill-rule="evenodd"/><path d="M52.6,110.54c-1.34,5.29-2.5,10.06-3.77,14.8a11.15,11.15,0,0,1-1.7,4.06c-0.89,1.11-2.37,1.76-3.59,2.6-0.72-1.46-2.22-3-2-4.36,1-6.83,2.35-13.6,3.65-20.38,1.43-7.41,2.93-14.8,4.44-22.19,0.16-.78.38-2,0.9-2.18,5.07-2.21,10-5.18,15.36-6.11,6.35-1.11,10.34,4.15,7.59,10-2.66,5.69-6.74,10.82-10.77,15.73-2,2.49-3.29,4.52-1.47,7.31,2.14,3.3.73,9.14,7,9.67,0.59,0.05,1.45,2.58,1.31,3.86-0.1.86-2.06,2.39-2.63,2.17-2.9-1.12-6.3-2.11-8.24-4.29C56.07,118.41,54.72,114.48,52.6,110.54ZM67.92,82.18c-9.43,1-14.22,8.67-14.25,22.18C60.44,98.29,66.83,92.33,67.92,82.18Z" fill="#181716" fill-rule="evenodd"/><path d="M137,101.52c1.2-2.06,2.87-4,3.52-6.2,3.73-12.74,7.53-25.49,10.63-38.39,1.07-4.44,2.31-5.34,6.43-2.84A153.16,153.16,0,0,1,143,101.81a8.61,8.61,0,0,1-9.47,4.85c-4.17-.67-5.48-4.22-5.67-7.73-0.3-5.54-.54-11.21.28-16.66,1.15-7.62,3.54-15,4.94-22.64,0.68-3.73,2.61-3.36,5.28-3,3.28,0.49,3.49,2.34,2.82,5-1.5,5.9-3.12,11.78-4.32,17.74A143.69,143.69,0,0,0,134.63,95c-0.18,2.08.66,4.26,1,6.39Z" fill="#181716" fill-rule="evenodd"/><path d="M100.44,68.8c-2.26,1.46-4.35,3.53-6.83,4.26-5.17,1.52-6.75,5.08-7.11,9.86-0.14,1.92-.59,3.82-0.95,6l9.23-2.61,1,1.06c-1.94,1.85-3.58,4.61-5.89,5.38-5.69,1.91-7.85,5.7-8.32,11.26a82.35,82.35,0,0,1-1.66,8.74L93,110.42l0.61,1.85c-4.83,3.47-9.43,7.37-14.65,10.11-1.36.72-5-1.84-6.89-3.61-1-.9-0.84-3.49-0.53-5.19q3.7-20.58,7.76-41.1a4,4,0,0,1,2.48-2.55c5.26-1.17,10.59-2.06,15.91-3a6.18,6.18,0,0,1,2.21.49Z" fill="#181716" fill-rule="evenodd"/><path d="M270.76,43.54l8.67-27.67c7.85-.28,8.61.47,6.14,7.65q-7.22,21-14.89,41.89c-0.58,1.58-2.41,2.71-3.66,4-1-1.86-3-3.79-2.83-5.56,0.28-3.53,1.72-7,2.65-10.46,0.29-1.08,1-2.82.56-3.21-7.39-6.68-5.18-16.13-7.19-24.33-0.27-1.11-.38-2.25-0.65-3.9,1.69-.35,3.38-0.79,5.1-1,3.32-.51,4.8.7,4.7,4.34-0.17,6,.13,12.11.23,18.17Z" fill="#181716" fill-rule="evenodd"/><path d="M226.5,37.51c-8.53,1.74-9.63,1.19-11-5.1,10.42,1.8,18.79-8.81,30.76-4.6-2.13,1.6-3.33,3.05-4.84,3.54-4.8,1.55-6.75,4.78-7.7,9.61-2.08,10.64-4.74,21.17-7.16,31.74-0.48,2.08-.59,4.37-1.56,6.18-0.76,1.42-2.68,3.24-4,3.15-2.62-.19-3.58-2.2-2.93-5.07,2.44-10.91,4.7-21.86,7-32.8C225.58,42.14,226,40.09,226.5,37.51Z" fill="#181716" fill-rule="evenodd"/><path d="M257.69,24L247.51,65.49C250.76,64.38,253,63,255.37,63c1.72,0,3.54,1.49,5.14,2.58,0.21,0.14-.84,2.67-0.93,2.65-5.76-1.51-8.27,3.42-12.06,5.84-1.39.89-4.14,1.76-4.87,1.1-1.34-1.22-2.52-3.72-2.25-5.44,2.25-14.37,4.82-28.69,7.39-43a3.34,3.34,0,0,1,1.93-2.33A76.53,76.53,0,0,1,257.69,24Z" fill="#181716" fill-rule="evenodd"/><path d="M19,134.88c2.52-13.34,5-26.69,7.58-40,0.39-2,1.1-3.49-1.35-5.29-1.6-1.18-1.54-4.61-1.92-5.93,4.46-.59,8.43-0.86,12.27-1.71,4.8-1.06,9.5-2.61,14.24-4l0.85,2.12c-3,1.79-5.84,3.8-8.94,5.32-3.46,1.69-5.78,3.81-6.25,7.93-0.34,3.06-1.5,6-2.52,9.93l8.16-1.91c1.49,4.62-2.34,6.16-4.94,6.82-4.89,1.23-6.2,4.36-7.07,8.61A66.6,66.6,0,0,1,25.33,130c-1.13,2.6-3.83,4.52-5.83,6.74Z" fill="#fff" fill-rule="evenodd"/><path d="M176,87.74c-2.71,1.91-5.88,4.18-9.08,6.39-4,2.74-8.8.82-9.44-4a23.82,23.82,0,0,1,.46-7.33q3.49-18.65,7.28-37.25a4.48,4.48,0,0,1,2.61-3c4.78-1.13,9.65-1.9,14.5-2.68a17.07,17.07,0,0,1,3.55.16l0.54,1.48c-2.23,1.43-4.28,3.44-6.72,4.19-5.27,1.62-7.1,5.2-7.37,10.23a51.93,51.93,0,0,1-1,5.71l9.16-2.59,1,0.87c-1.7,1.81-3.08,4.62-5.14,5.26-6.59,2.05-8.64,6.72-9.17,12.87A76.74,76.74,0,0,1,165.71,86l12.69-3.59c2.07-9.66,4.18-20.1,6.6-30.47a34.91,34.91,0,0,1,3.78-10c1-1.68,3.83-3.35,5.64-3.16,1.56,0.16,3.84,2.81,4.1,4.6,1.2,8.29,1.8,16.67,2.64,25a8.72,8.72,0,0,0,1.68,4.76c1.12-4.55,2.33-9.08,3.33-13.66,1.85-8.49,3.41-17,5.5-25.47,0.37-1.5,2.73-2.51,4.17-3.74l1.48,0.89c-0.55,2.74-1,5.5-1.66,8.22-3,12.81-5.9,25.63-9,38.42-0.71,2.95-1.47,7.23-5.45,6.12-2.8-.78-5.75-3.8-7-6.56-1.58-3.47-1.62-7.67-2.12-11.59A135.38,135.38,0,0,0,189.9,51.4c-0.76,3.18-1.64,6.34-2.26,9.54-1.7,8.88-3.17,17.81-5.06,26.65-0.31,1.47-2.23,2.59-3.4,3.88Z" fill="#fff" fill-rule="evenodd"/><path d="M130.13,103.71c-2.38,5.88-5.18,6.07-12.88,1.06-1,.95-1.83,2.26-3,2.89-2.9,1.51-6.63,4.41-8.78,3.57-2.67-1-5.14-5.06-5.83-8.2-1.91-8.68-.42-17.39,2.68-25.61a68.18,68.18,0,0,1,7.61-14.24c2.88-4.2,9.54-6.12,13.15-4.41,4.78,2.26,5.83,6.78,5.14,11.28a199.14,199.14,0,0,1-4.91,23.48C121.69,99.13,123.79,103.15,130.13,103.71ZM119.47,63L108,84.92,109,86c6.5-4.16,6.72,3,9.81,5C123.56,81.81,124.28,70,119.47,63ZM107,107.34h1.79c8.07-7.39,7.2-7.63-1.87-17.94C106.91,96.1,106.94,101.72,107,107.34Z" fill="#fff" fill-rule="evenodd"/><path d="M54.74,107.05c-1.34,5.29-2.5,10.06-3.77,14.8a11.12,11.12,0,0,1-1.7,4.06c-0.89,1.11-2.37,1.76-3.59,2.6-0.72-1.46-2.22-3-2-4.36,1-6.83,2.35-13.6,3.65-20.38,1.43-7.41,2.93-14.8,4.44-22.19,0.16-.78.38-2,0.9-2.18,5.07-2.21,10-5.18,15.37-6.11,6.35-1.11,10.34,4.15,7.59,10C72.93,89,68.85,94.14,64.82,99.05c-2,2.49-3.29,4.52-1.47,7.31,2.14,3.3.73,9.14,7,9.67,0.59,0.05,1.45,2.58,1.31,3.86-0.1.86-2.06,2.39-2.63,2.17-2.9-1.12-6.3-2.11-8.24-4.29C58.21,114.92,56.86,111,54.74,107.05ZM70.05,78.69c-9.43,1-14.22,8.67-14.25,22.18C62.57,94.8,69,88.83,70.05,78.69Z" fill="#fff" fill-rule="evenodd"/><path d="M139.12,98c1.2-2.06,2.87-4,3.52-6.2,3.73-12.74,7.52-25.49,10.63-38.39,1.07-4.44,2.31-5.34,6.43-2.84a153.18,153.18,0,0,1-14.62,47.7,8.61,8.61,0,0,1-9.47,4.85c-4.17-.67-5.48-4.22-5.67-7.73-0.3-5.54-.54-11.21.28-16.66,1.15-7.62,3.54-15,4.94-22.64,0.68-3.73,2.61-3.36,5.28-3,3.28,0.49,3.49,2.34,2.82,5-1.5,5.9-3.12,11.78-4.31,17.74a143.45,143.45,0,0,0-2.18,15.58c-0.18,2.08.66,4.26,1,6.39Z" fill="#fff" fill-rule="evenodd"/><path d="M102.58,65.31c-2.26,1.46-4.35,3.53-6.83,4.26-5.17,1.52-6.75,5.08-7.11,9.86-0.14,1.92-.59,3.82-0.95,6l9.23-2.61,1,1.06C96,85.74,94.35,88.5,92,89.27c-5.69,1.91-7.85,5.71-8.32,11.26a82.11,82.11,0,0,1-1.66,8.74l13.1-2.34,0.61,1.85c-4.83,3.47-9.43,7.37-14.65,10.11-1.36.72-5-1.84-6.89-3.61-1-.9-0.84-3.49-0.53-5.19Q77.4,89.49,81.46,69a4,4,0,0,1,2.48-2.55c5.26-1.17,10.59-2.06,15.91-3a6.19,6.19,0,0,1,2.21.49Z" fill="#fff" fill-rule="evenodd"/><path d="M272.9,40.05l8.67-27.67c7.86-.28,8.61.47,6.14,7.65q-7.22,21-14.89,41.89c-0.58,1.58-2.41,2.71-3.66,4-1-1.86-3-3.79-2.83-5.56,0.28-3.53,1.73-7,2.65-10.46,0.29-1.08,1-2.82.56-3.21-7.39-6.68-5.18-16.13-7.19-24.34-0.27-1.11-.38-2.25-0.65-3.9,1.69-.35,3.38-0.79,5.1-1,3.32-.5,4.8.7,4.7,4.34-0.17,6,.13,12.11.23,18.17Z" fill="#fff" fill-rule="evenodd"/><path d="M228.64,34c-8.53,1.74-9.63,1.19-11-5.1,10.42,1.8,18.79-8.81,30.76-4.6-2.13,1.6-3.33,3.05-4.84,3.54-4.8,1.55-6.75,4.78-7.7,9.61-2.08,10.64-4.74,21.17-7.16,31.74-0.48,2.08-.59,4.37-1.56,6.18-0.76,1.42-2.68,3.24-4,3.15-2.62-.19-3.58-2.2-2.93-5.07,2.44-10.91,4.7-21.86,7-32.8C227.71,38.65,228.12,36.6,228.64,34Z" fill="#fff" fill-rule="evenodd"/><path d="M259.83,20.52L249.65,62c3.24-1.11,5.53-2.45,7.85-2.51,1.72,0,3.54,1.49,5.14,2.58,0.21,0.14-.84,2.67-0.93,2.65-5.76-1.51-8.27,3.42-12.06,5.84-1.39.89-4.14,1.76-4.87,1.1-1.34-1.22-2.52-3.72-2.25-5.44,2.25-14.37,4.81-28.69,7.39-43a3.33,3.33,0,0,1,1.93-2.33A76.68,76.68,0,0,1,259.83,20.52Z" fill="#fff" fill-rule="evenodd"/><path d="M631.55,98.93l-1.12-.51c-0.34-.15-0.8-0.35-0.95-0.44-0.71-.42-1.4-0.87-2.09-1.31-1.32-.85-2.83-1.82-4.51-2.7a18.2,18.2,0,0,0-8.55-2.3,15.67,15.67,0,0,0-11.12,4.73c-1.16,1.13-2.47,2.25-3.85,3.4q-0.53-.51-1.12-1a16.53,16.53,0,0,0-11.08-4.51,15.79,15.79,0,0,0-9,2.87,21.75,21.75,0,0,0-12.3-4.57h-0.54a13,13,0,0,0-9.21,4.25A15,15,0,0,0,547,92.4a36.33,36.33,0,0,0-4.48-.32c-0.55,0-1.07,0-1.59.06a12.37,12.37,0,0,0-4.49-16,30.47,30.47,0,0,0-8.05-3.66,11.93,11.93,0,0,0-3.54-.52,12.71,12.71,0,0,0-9.63,4.25,47.28,47.28,0,0,0-7.68,12.07,12.4,12.4,0,0,0-2.31-2.39A28.35,28.35,0,0,0,496.58,81a16.4,16.4,0,0,0-5.11-.86c-5.16,0-9.39,2.64-12.57,7.86-0.62,1-1.26,2-1.9,3l-1.11-.55a12.3,12.3,0,0,0-5.34-1.17,14.07,14.07,0,0,0-5.67,1.19,29.44,29.44,0,0,0-10.65,8,13.84,13.84,0,0,0-6.18-1.82,27.6,27.6,0,0,0-3.65-2.17,17.24,17.24,0,0,0-7.29-1.69,11.76,11.76,0,0,0-7.85,2.77c-1.38,1.19-2.91,2.53-4.52,4a15.17,15.17,0,0,0-5.68-2.83,22.38,22.38,0,0,0-5.84-.83l-0.79,0a12.88,12.88,0,0,0-6.95,2.47,104.49,104.49,0,0,0-9.83-4.76,10.53,10.53,0,0,0-4.2-.86,12.54,12.54,0,0,0-10,5.36c-0.47.7-.91,1.4-1.34,2.09a26.32,26.32,0,0,0-7.3-4.82,31.8,31.8,0,0,0-12.68-2.93,23.23,23.23,0,0,0-14.62,5.15,54.08,54.08,0,0,0-18.66,26.82c-1.37,4.37-5,16,5.68,25a24.48,24.48,0,0,0,3.54,2.62,41.31,41.31,0,0,0-2.49,8.84c-1.25,7.87,1.55,13.85,8.33,17.78l2.33,1.35h9.12l3-4.29,0.08-.11a15.68,15.68,0,0,0,1.14-1.75q1.39-2.5,2.76-5c1.86-3.4,3.62-6.61,5.49-9.78s4-6.67,6-9.92l0.14-.24,0.54,0.39a35.26,35.26,0,0,0,6.56,3.39l0.62,0.26A11,11,0,0,0,384,154a12.11,12.11,0,0,0,7.54-2.65l1.44-1.17c1.52-1.23,3.07-2.48,4.61-3.83A17.47,17.47,0,0,0,408,150h0a14,14,0,0,0,1.79-.11,16.93,16.93,0,0,0,4.59-1.28,20.61,20.61,0,0,0,13.74,5.27,18.67,18.67,0,0,0,8.63-2.07l5.64,1.34a20.41,20.41,0,0,1,2.87.79,12.55,12.55,0,0,0,9.72,4.1l0.7,0a15.89,15.89,0,0,0,12.61-7.19,15.84,15.84,0,0,0,7.65,1.95,17,17,0,0,0,5.19-.82,37,37,0,0,0,5.37-2.18c2.22,2.15,5.6,4.73,10.28,4.72h0a12,12,0,0,0,7.71-2.8c1.79-1.48,3.5-2.92,5.14-4.35a24.1,24.1,0,0,0,16.76,7,19.59,19.59,0,0,0,8.94-2.08,42.5,42.5,0,0,0,5.42-3.32,17.78,17.78,0,0,0,7.54,4.63,14,14,0,0,0,4.54.78c2.65,0,7.66-.87,11.34-6.67q0.51-.8,1.08-1.58a22,22,0,0,0,3.83,3.2,21.67,21.67,0,0,0,12.14,4.09h0.54a15.26,15.26,0,0,0,10.62,3.72c0.82,0,1.72,0,2.75-.12,8.47-.66,15.37-4.35,20.44-7.49,5.49-3.4,8.73-8.71,8.89-14.57a16.61,16.61,0,0,0-.86-5.74A29.65,29.65,0,0,0,636,117.39l1.31-2.3V101.63Z" fill="#93c019" fill-rule="evenodd"/><path d="M515.64,102.28a1.81,1.81,0,0,1-.14-0.68,34.2,34.2,0,0,1,7.29-12.87,3,3,0,0,1,2.6-.66,21.28,21.28,0,0,1,5.47,2.44c1.95,1.3,1.64,3.45-.26,4.78-2.65,1.86-5.28,3.75-7.78,5.81C520.58,102.95,518.19,102.85,515.64,102.28Z" fill="#e42326" fill-rule="evenodd"/><path d="M627.28,118.44c-3.3,5.79-8.52,8.77-14.79,10.25l6.13-9.51-0.66-.51c-4.93,3-9.44,6.46-12.73,11.61l5.09,3.54c5.4,3.76,5.48,9.78-.09,13.24-4.88,3-10,5.56-16,6-5.14.4-6.52-.41-8.25-5.31-4,2.91-7.88,1.67-11.48-.73-6.4-4.26-4-10.09-2.41-15.69a1.16,1.16,0,0,0-.43-0.1c-5.52,5.56-11.79,10.41-16.06,17.14-1,1.54-2.12,2.49-4.19,1.78-2.84-1-4.39-2.16-4.11-4.52a31.06,31.06,0,0,1,2.12-8.36c1.91-4.52,4.29-8.85,6.5-13.33-3.05,1.09-7.79,5.58-9.2,8.32-3.72,7.23-8.66,13.32-16.09,17.14-6,3.08-17-1.36-17.16-10.45a13,13,0,0,0-.41-3.7,54.19,54.19,0,0,1-4.47,5.44c-3.4,3.23-6.95,6.32-10.57,9.31-1.38,1.13-3,.35-5-1.7-2.46-2.48-2.53-5.38-1.8-8.49,0.11-.45.22-0.9,0.41-1.65A25.08,25.08,0,0,1,478,148.48a6.12,6.12,0,0,1-8-4.12c-1.58-4.7-1-9.34.3-14,1.79-6.54,5.08-12.34,8.69-18,2.8-4.39,5.7-8.72,8.41-13.16,1.65-2.7,3-3.67,6.07-2.69A18.52,18.52,0,0,1,499,99.77c1.33,1.05,1.07,3.09,0,4.61-2.1,3-4.12,6-6.17,9L493,114l7.71-.36c-0.36,3.34-3.82,6.67-7.8,7.21a10.52,10.52,0,0,1-2.82.25c-2.59-.38-4,1-5.07,3.06-2.46,4.79-5,9.55-7.4,14.35a14.24,14.24,0,0,0-.62,2.8c2.39-.77,4.49-1.1,6.23-2.06,3.58-2,7-4.25,10.42-6.46a4.21,4.21,0,0,0,.75-1.4c4.15-7,8.27-14.1,12.48-21.1,1.11-1.84,3.06-2.16,5-1.1,1,0.56,2,1.2,3,1.74,2.35,1.25,2.78,3.32,1.25,5.53q-7.27,10.49-14.45,21a3.44,3.44,0,0,0-.6,1.84c1-.61,2-1.15,3-1.85,2.33-1.74,4.61-3.56,6.91-5.33a18.24,18.24,0,0,0,5.86-7.27,33.75,33.75,0,0,1,8.79-11.54,7,7,0,0,1,6.94-1.7A2.21,2.21,0,0,0,535,111a11,11,0,0,1,4.86-2.61,17,17,0,0,1,5.84,0c3.13,0.39,4.45,2,4.37,5.24-0.06,2.63-.29,5.26-0.48,8.48,2.89-2.08,5.51-3.89,8-5.81a27.05,27.05,0,0,0,3.6-3.28c0.55-.6.57-1.69,1.13-2.27,0.87-.89,2-2.21,3-2.17,4.06,0.2,7.24,2.42,9.71,5.53,0.33,0.42-.13,1.8-0.61,2.47-2.18,3.1-4.52,6.08-6.74,9.15a26,26,0,0,0-1.62,2.92l0.4,0.29a13.41,13.41,0,0,0,1.09-.95c4-4.26,7.89-8.56,11.9-12.78a28.35,28.35,0,0,1,4.07-3.64c2.82-2,5.43-1.54,8,.73,3.59,3.19,4,3.58,1.07,8.35-3.28,5.36-6.93,10.48-10.31,15.77a31.13,31.13,0,0,0-1.94,4.34l0.52,0.48a28.24,28.24,0,0,0,3.88-2.59c3.57-3.32,7-6.75,10.49-10.18a2.6,2.6,0,0,0,.68-1.57,11.81,11.81,0,0,1,3.8-8.29c3.37-3.11,7.13-5.81,10.4-9,2.67-2.6,5.28-2.18,8-.73,2.12,1.11,4.08,2.54,6.15,3.77,0.92,0.54,1.92.93,2.89,1.38v4.47Zm-91-6-0.16.56a18.09,18.09,0,0,1,2.27,1.23c1.31,1,2.54,2,3.81,3-1.24,1.05-2.45,2.14-3.71,3.15-2.37,1.89-4.92,3.59-7.12,5.65-1.66,1.56-.89,4.54,1,5,2.29,0.5,7.7-1.68,8.49-3.82a47.19,47.19,0,0,0,2.43-9.14,4.69,4.69,0,0,0-1.56-3.85C540.23,113.24,538.15,113,536.3,112.48Zm51.59,33.95c6.37-1.44,12.32-3.78,17.31-7.94L597,133A61,61,0,0,1,587.89,146.43Zm-60.71-15a14.16,14.16,0,0,0-2.42,13.44c4.87-1.94,8.44-5.3,11.71-9.87A11.19,11.19,0,0,1,527.18,131.45Z" fill="#e42326" fill-rule="evenodd"/><path d="M346.91,176.13c-3.2-1.86-4.08-3.7-3.46-7.56,0.85-5.37,3.31-10.13,5.88-14.8,3-5.38,6.18-10.63,9.25-15.95a21.11,21.11,0,0,0,2.27-5.16c-1.32,1.4-2.62,2.83-4,4.21-3.69,3.77-7.34,7.59-11.13,11.26-2.84,2.75-3.78,2.31-6.76-.21-5-4.23-4.25-9.14-2.6-14.41a44,44,0,0,1,15.29-21.93c5.6-4.39,11.39-3.37,17.2-.89a17.6,17.6,0,0,1,5.22,3.7,3.89,3.89,0,0,1,.6,4.9c-0.95-.55-1.75-1-2.56-1.48a8.47,8.47,0,0,0-10,.62A52.21,52.21,0,0,0,345.71,139c-0.28.61-.54,1.24-0.79,1.86a3,3,0,0,0,.08.78c2.22-1.79,4.4-3.31,6.32-5.12,5.27-5,10.51-10,15.58-15.12,2.23-2.27,4.35-1.21,6.51-.39,1.86,0.7,2.47,2.33,2.36,4.29-0.23,4.15-2.34,7.63-4.29,11-4.59,8-9.58,15.83-14.29,23.8-2.91,4.94-5.58,10-8.37,15-0.2.35-.45,0.67-0.69,1h-1.22Z" fill="#e42326" fill-rule="evenodd"/><path d="M445.71,113.39c1.32-1.46,4.37-.46,5.3,1.76s0.36,4-.47,6.06c-2.07,5-5,9.3-9.67,12.15-3.74,2.26-7.51,2.41-11.37-.24a17.2,17.2,0,0,0-2.79,10.69c3.43-.15,6-1.69,8.59-3.28,8-4.95,14.06-12,20.46-18.7,1.1-1.14,1.41-3,2.14-4.54,2.42-5.07,5.79-9.28,11.05-11.63a3.57,3.57,0,0,1,2.64-.13,13.52,13.52,0,0,1,4.11,2.77c1.08,1.16.6,2.58-.43,3.83-2.42,2.91-4.74,5.9-7.1,8.86a7.44,7.44,0,0,0-1.61,6c0.32,2.26.18,4.59,0.31,6.89,0.31,5.43-1.64,10-5,14.16a10.71,10.71,0,0,0-1.24,2.06c-1.12,2.29-2.83,3.8-5.45,3.92a3.31,3.31,0,0,1-2.4-.65c-2.38-2.83-5.72-3.39-9-4.17l-2.27-.54a4,4,0,0,1,1.13-4.39c3.62-3,7.26-6.07,11-9,0.95-.74,1.54-1.34,1.32-2.6s-0.23-2.35-.36-3.85c-3.19,3.37-6,6.7-9.16,9.57-3.85,3.47-8,6.65-12.12,9.76-5.7,4.28-15.09.12-16.08-8.35-0.87-7.48,1.94-13.88,6.75-19.3a124.34,124.34,0,0,1,11.82-11.36c0.78-.67,3-0.27,4.24.33A44.25,44.25,0,0,1,445.71,113.39Zm-14.14,16.49a3.75,3.75,0,0,0,4.66,0c4.13-2.87,6-7.29,7.65-11.79A49.76,49.76,0,0,0,431.57,129.88Zm22.7,9.85-0.42-.25-5.93,4.76,0.21,0.65,5.13,0.74Z" fill="#e42326" fill-rule="evenodd"/><path d="M385.39,140.85a95,95,0,0,0,7.8-6.89c4.89-5.32,9.54-10.87,14.24-16.38,1.22-1.43,2.17-3.1,3.39-4.54a3.16,3.16,0,0,1,2-1.06,11.91,11.91,0,0,1,3.59.47c2.7,0.73,3.65,2.38,2.77,5.06a36.42,36.42,0,0,1-2.45,5.54c-2.2,4.19-4.51,8.31-6.74,12.48a19,19,0,0,0-.86,2.18l0.36,0.42,6.56-3.65,0.57,0.35c-1.65,3.23-3.18,6.54-5,9.64a4.65,4.65,0,0,1-3.13,1.53c-3.44.44-8.18-3.71-8.39-7.17-0.07-1.13,0-2.27,0-3.9-2.46,2.83-4.5,5.49-6.87,7.82s-5.27,4.59-8,6.8a1.94,1.94,0,0,1-1.64.33,30.37,30.37,0,0,1-5.42-2.68c-3.28-2.27-3.41-5.74-2.58-9.15,1.81-7.43,5.26-14.15,9.37-20.55,1.64-2.55,3.11-5.21,4.79-7.73a2.29,2.29,0,0,1,1.95-.88,94,94,0,0,1,9,4.38c1.2,0.68,1.32,1.93.34,3.31q-7,9.81-13.85,19.76a44.78,44.78,0,0,0-2.29,4.16Z" fill="#e42326" fill-rule="evenodd"/><g style="isolation:isolate"><path d="M417.9,61.5c0-.15,0-0.3,0-0.45,0-.6-0.1-1.2-0.19-1.83-0.71-4.95-2.54-8.5-5.32-10.54a10.19,10.19,0,0,0-1.31-.85l-14.52-7.9a10.3,10.3,0,0,1,1.31.85c2.78,2,4.61,5.59,5.32,10.54,0.09,0.62.14,1.23,0.19,1.83,0,0.15,0,.3,0,0.45,0,0.58,0,1.16,0,1.72a0.48,0.48,0,0,1,0,.05c0,0.55-.07,1.07-0.13,1.59,0,0.13,0,.27-0.05.4-0.07.52-.16,1-0.27,1.54l0,0.07c-0.11.48-.24,0.94-0.39,1.4l-0.12.34q-0.22.65-.49,1.26l-0.06.14c-0.19.42-.4,0.83-0.62,1.23a16.87,16.87,0,0,1-.94,1.53,16.55,16.55,0,0,1-1.06,1.33l-0.26.27c-0.34.37-.69,0.73-1.05,1.07s-0.56.51-.86,0.75l-0.19.16c-0.37.3-.76,0.58-1.16,0.85s-0.57.37-.86,0.54-0.37.24-.57,0.35-0.68.36-1,.53l-0.47.24c-0.3.14-.61,0.27-0.92,0.39l-0.59.25c-0.51.2-1,.37-1.55,0.53L383,74.2,382.71,41.5a1.78,1.78,0,0,1,.07-0.53l0-.09a2.19,2.19,0,0,1,.24-0.5l0,0a1.94,1.94,0,0,1,.39-0.43l0,0a1.66,1.66,0,0,1,.52-0.28l14.35-4.39a47.27,47.27,0,0,1,7.21-1.65c0.6-.08,1.2-0.15,1.79-0.2l0.45,0c0.59,0,1.17-.07,1.74-0.08h0c0.57,0,1.13,0,1.68,0l0.42,0c0.56,0,1.11.09,1.65,0.16h0c0.54,0.08,1.07.18,1.59,0.29l0.39,0.09c0.3,0.07.6,0.16,0.89,0.25s0.73,0.22,1.09.34l0.76,0.29q0.53,0.21,1.05.45c0.39,0.18.77,0.35,1.15,0.56l-9.44-5.13-5.08-2.76L405,27.46l-0.43-.18q-0.51-.24-1-0.45l-0.77-.29c-0.36-.12-0.72-0.24-1.09-0.34L401.2,26,400.8,26l-0.39-.09c-0.53-.11-1.05-0.22-1.59-0.29h0c-0.54-.08-1.1-0.13-1.66-0.17l-0.42,0c-0.56,0-1.12,0-1.69,0h0c-0.57,0-1.16,0-1.75.08l-0.44,0c-0.59.05-1.19,0.11-1.79,0.2a47.28,47.28,0,0,0-7.21,1.65l-14.35,4.39-0.2.08-0.24.14L369,32l0,0-0.07.06-0.16.16-0.14.18,0,0v0l-0.1.16a2,2,0,0,0-.12.27s0,0,0,.07a0.77,0.77,0,0,0,0,.09,1.87,1.87,0,0,0-.08.53l0.09,8.62L356.66,35.9h0l-0.14-.05h0a0.91,0.91,0,0,0-.32,0l-0.19,0L320.82,46.61l-0.18.07,0,0-0.1.06-0.08,0-0.07.05-0.07.05-0.05,0-0.11.11,0,0,0,0-0.16.2h0l0,0.06-0.1.16v0l-0.06.14-0.05.12v0a1.87,1.87,0,0,0-.06.2s0,0.07,0,.11a1.6,1.6,0,0,0,0,.31l0,3.66L313.8,49h0l-0.14,0h0a1,1,0,0,0-.36,0L313,49,299.9,53a4.29,4.29,0,0,0-.51.19l-0.06,0-0.06,0a3.91,3.91,0,0,0-.45.26l0,0h0a3.8,3.8,0,0,0-.37.29l0,0L298.3,54l-0.24.25,0,0-0.07.09-0.28.36-0.07.08,0,0.07c-0.12.18-.25,0.37-0.37,0.58l-4.88,8.45-9.7-5.28,0,0-0.16-.06h0a1,1,0,0,0-.36,0l-0.19,0L270.41,62l-0.19.08-0.23.13-0.06,0,0,0-0.08.06-0.15.15-0.13.17,0,0v0l-0.09.15a1.94,1.94,0,0,0-.11.25s0,0.06,0,.09l0,0.11a1.94,1.94,0,0,0-.07.56l0.13,12.8-13.65-7.43,0,0-0.19-.07h-0.1l-0.43-.09L254.58,69,254,68.93l-0.35-.05L253,68.82l-0.37,0-0.71,0-0.41,0h-1.22l-0.84,0-0.46,0-0.95.08-0.43,0-1.44.17a36.92,36.92,0,0,0-5.66,1.26c-0.78.24-1.55,0.51-2.31,0.8l-0.74.31c-0.51.21-1,.41-1.5,0.64l-0.25.11c-0.2.09-.38,0.2-0.58,0.3-0.46.23-.92,0.46-1.37,0.71l-0.84.49q-0.64.38-1.25,0.79l-0.46.29-0.49.36-0.53.39c-0.41.31-.8,0.63-1.19,1l-0.37.31-0.12.1c-0.43.39-.84,0.79-1.24,1.2l-0.28.3-0.4.42c-0.3.34-.58,0.68-0.85,1s-0.37.49-.54,0.74-0.29.43-.43,0.65l-0.15.23c-0.24.38-.47,0.77-0.68,1.16l-0.12.25-0.19.39q-0.29.6-.55,1.22l-0.16.38-0.08.2c-0.16.44-.3,0.9-0.43,1.36l-0.08.31c-0.15.56-.28,1.12-0.37,1.71v0c-0.09.57-.15,1.16-0.2,1.75,0,0.11,0,.22,0,0.34q0,0.88,0,1.8c0,0.12,0,.24,0,0.36,0,0.64.09,1.28,0.18,1.94,0.66,4.61,2.54,7.28,5,9.14a14.54,14.54,0,0,0,2,1.27l14.52,7.9a14.65,14.65,0,0,1-2-1.27c-2.5-1.86-4.37-4.52-5-9.14-0.09-.66-0.15-1.31-0.18-1.94,0-.12,0-0.24,0-0.35q0-.91,0-1.8c0-.11,0-0.22,0-0.33,0-.6.1-1.19,0.2-1.76v0c0.1-.58.23-1.15,0.37-1.7l0.09-.32q0.22-.79.51-1.55l0.16-.4c0.16-.4.34-0.78,0.52-1.16L252.6,99l0.33,0.17,0.12,0.05c0.28,0.13.57,0.26,0.88,0.38,0.52,0.19,1,.36,1.58.52l0.54,0.15,0.72,0.2,0.29,0.07c0.83,0.21,1.67.41,2.52,0.6l2.26,0.54,0.64,0.16,0.39,0.11,1.26,0.37,0.4,0.13c0.52,0.17,1,.36,1.55.58l0.25,0.11c0.51,0.22,1,.45,1.51.72l-9.44-5.13L253.33,96l-0.65-.34c-0.29-.14-0.58-0.27-0.87-0.39l-0.24-.11c-0.51-.21-1-0.4-1.55-0.58l-0.41-.13-1.26-.37L248,94l-0.21-.06-0.47-.11-2.22-.53c-0.85-.19-1.69-0.39-2.52-0.6l-1-.28L241,92.28c-0.53-.16-1.06-0.33-1.58-0.52-0.32-.12-0.61-0.25-0.89-0.39l-0.36-.18,0,0,0.2-.41c0.25-.48.52-1,0.8-1.41l0.15-.23c0.31-.47.62-0.94,1-1.38s0.81-1,1.25-1.45l0.29-.31q0.64-.67,1.34-1.29l0.38-.32c0.38-.33.77-0.64,1.17-0.95l0.54-.4c0.31-.22.62-0.43,0.94-0.64s0.83-.54,1.26-0.79l0.83-.48c0.45-.25.91-0.49,1.38-0.72l0.82-.4c0.49-.23,1-0.44,1.5-0.64l0.74-.31c0.76-.29,1.53-0.56,2.31-0.8A36.88,36.88,0,0,1,260.74,77q0.73-.1,1.43-0.17l0.53,0,0.84-.07,0.59,0,0.71,0h1.21l0.56,0,0.56,0,0.52,0,0.5,0,0.47,0.07,0.43,0.07,0.22,0,0.43,43.4a1.18,1.18,0,0,0,.54,1l14.52,7.9a1.18,1.18,0,0,1-.54-1L283.78,79.7l14.07,7.65,13.85-24c0.12-.21.24-0.4,0.37-0.58l0.11-.16,0.28-.36,0.11-.13,0.25-.25,0.1-.1a4,4,0,0,1,.37-0.3l0,0a3.71,3.71,0,0,1,.45-0.26l0.13-.06a4.08,4.08,0,0,1,.5-0.19l5.21-1.6,0.45,45.62a1.19,1.19,0,0,0,.56,1l14.52,7.9a1.19,1.19,0,0,1-.56-1l-0.24-24,14,7.63,20.38-6.24a1.1,1.1,0,0,0,.51.87L383.8,99a1.17,1.17,0,0,1-.53-1L383,74.61l14,7.64L404.29,80q0.78-.24,1.55-0.53l0.62-.26c0.3-.12.6-0.24,0.88-0.38l0,0,0.46-.24c0.33-.17.67-0.33,1-0.52l0.56-.35c0.29-.18.58-0.35,0.86-0.54l0.12-.08c0.35-.24.7-0.5,1-0.77l0.21-.17c0.23-.19.46-0.37,0.68-0.57l0.15-.15q0.57-.52,1.09-1.09l0.19-.2,0,0c0.37-.43.73-0.87,1.06-1.34a17.4,17.4,0,0,0,.94-1.53l0.08-.14q0.29-.53.54-1.09l0.06-.14c0.13-.31.27-0.62,0.38-0.94,0-.11.07-0.22,0.11-0.33s0.08-.23.11-0.34c0.15-.46.28-0.92,0.39-1.4l0-.07c0.11-.5.2-1,0.27-1.54,0-.13,0-0.27.05-0.4,0.06-.52.11-1,0.13-1.59a0.51,0.51,0,0,1,0-.06C417.94,62.66,417.93,62.08,417.9,61.5ZM283.7,71.82a2,2,0,0,1,.07-0.56l0-.11a2,2,0,0,1,.23-0.49v0a1.87,1.87,0,0,1,.38-0.41l0,0a1.56,1.56,0,0,1,.48-0.25l4.71-1.44-5.87,10.18Zm50.65,16.6-0.22-22.76,14.09,7.67,17.68-5.41a1.24,1.24,0,0,1,.46,0,1,1,0,0,1,.26.08l-14.52-7.9,0,0L351.89,60h0a1.23,1.23,0,0,0-.46,0l-17.25,5.28L334,56.4a1.54,1.54,0,0,1,0-.31,1,1,0,0,1,0-.1,1.37,1.37,0,0,1,.06-0.21l0.06-.15,0.06-.13,0.12-.2,0-.06A2.36,2.36,0,0,1,334.6,55l0,0,0.16-.15,0.07-.05,0.15-.1,0.1-.05,0.22-.1,33-10.09,0.41,41.41L359.77,81l0,0-0.19-.07h-0.05a1.32,1.32,0,0,0-.49,0Z"/><path d="M314.46,118.93L301.4,101.75l-14.52-7.9L299.94,111a2.63,2.63,0,0,0,.81.74l14.52,7.9A2.63,2.63,0,0,1,314.46,118.93Z"/><path d="M260.42,120.6a3.38,3.38,0,0,0-2-2.71L243.88,110a3.39,3.39,0,0,1,2,2.71,3.5,3.5,0,0,1,0,.78c0,0.05,0,.11,0,0.16a3.37,3.37,0,0,1-.16.69c0,0.07-.06.14-0.09,0.22s-0.07.16-.11,0.24l-0.15.25-0.11.18-0.14.19-0.19.23-0.11.12-0.34.34-0.31.27c-0.26.2-.54,0.39-0.83,0.58l-0.36.22c-0.25.15-.5,0.28-0.76,0.42l-0.3.16c-0.26.12-.53,0.23-0.79,0.34l-0.42.18c-0.41.16-.83,0.3-1.26,0.43a13.42,13.42,0,0,1-2.08.47c-0.43.06-.85,0.09-1.27,0.11h-0.41c-0.28,0-.56,0-0.84,0l-0.47,0-0.76-.09-0.48-.08-0.74-.16-0.44-.11c-0.45-.12-0.89-0.26-1.33-0.42h0c-0.44-.16-0.87-0.36-1.29-0.56l-0.74-.37-0.18-.1-0.06,0a1.55,1.55,0,0,0-.3-0.11h0a1.15,1.15,0,0,0-.43,0,1,1,0,0,0-.29.09l-0.15.09-0.11.09h0l-0.11.11-0.1.13v0l0,0-0.08.13a2.19,2.19,0,0,0-.1.22l-4.35,11.22-0.12.3h0a3,3,0,0,0-.13.46v0.07a1.19,1.19,0,0,0,0,.37v0.06a0.78,0.78,0,0,0,.14.3l0,0a1.08,1.08,0,0,0,.31.25l14.52,7.9a1.07,1.07,0,0,1-.31-0.25l0,0a0.76,0.76,0,0,1-.14-0.31V138.4a1.23,1.23,0,0,1,0-.37V138a3,3,0,0,1,.13-0.46l0.12-.31L241.16,126a2,2,0,0,1,.18-0.34l0,0a1.43,1.43,0,0,1,.22-0.26h0a1,1,0,0,1,.56-0.27,1.15,1.15,0,0,1,.43,0,1.56,1.56,0,0,1,.38.14l0.17,0.09,0.61,0.31,0.16,0.07c0.42,0.2.84,0.39,1.27,0.55h0c0.43,0.16.87,0.3,1.31,0.42l0.16,0.05,0.27,0.06,0.74,0.16,0.49,0.08,0.76,0.09,0.48,0c0.28,0,.56,0,0.84,0h0.41c0.42,0,.84-0.05,1.27-0.11a13.42,13.42,0,0,0,2.08-.47c0.42-.13.84-0.27,1.26-0.43l0.38-.16c0.26-.1.51-0.21,0.76-0.32l0.08,0,0.27-.14c0.27-.14.54-0.28,0.8-0.43l0.34-.22,0.34-.21,0.5-.37,0.25-.21L259,124l0.33-.34,0.09-.09h0l0,0,0.18-.23,0.13-.16,0,0,0.12-.19,0.12-.19,0,0c0-.08.07-0.16,0.11-0.24s0.06-.12.08-0.18v0a3.3,3.3,0,0,0,.16-0.69c0-.05,0-0.1,0-0.16A3.56,3.56,0,0,0,260.42,120.6Z"/><path d="M218.72,148.33l-2.62-8.47L201.58,132l2.62,8.47a1.59,1.59,0,0,0,.62,1.05l14.52,7.9A1.59,1.59,0,0,1,218.72,148.33Z"/><path d="M182.41,159.46l8.29-33.93,11.5,6.25,10.39-3.19-5.93-18.83L196,104l1.46-6c0.06-.22.12-0.43,0.19-0.64a3.22,3.22,0,0,1,.23-0.51l0-.05a1.71,1.71,0,0,1,.34-0.41h0a1.42,1.42,0,0,1,.5-0.27l14.83-4.53,0.18,0a1.07,1.07,0,0,1,.39,0,1.15,1.15,0,0,1,.29.1l-14.52-7.9,0,0-0.21-.08h0a1.07,1.07,0,0,0-.39,0l-0.18,0-14.83,4.53-0.19.07-0.2.12-0.11.09h0l0,0-0.13.13-0.12.16-0.06.1,0,0,0,0.07a3.17,3.17,0,0,0-.18.42v0a6.43,6.43,0,0,0-.19.64l-15,61.48a0.93,0.93,0,0,0,.3,1.13l14.52,7.9A0.94,0.94,0,0,1,182.41,159.46Zm15.65-38.76-6.69,2,3.2-13.11Z"/><path d="M233,144a1.55,1.55,0,0,1-1.06,1.82L220,149.42l-0.2,0c-0.65.09-.94-0.47-1.11-1.13l-2.62-8.47-16.57,5.07-2.06,9.91a2.38,2.38,0,0,1-1.3,1.88l-12.85,3.93c-0.78.12-1.11-.42-0.92-1.2l15-61.48a2.29,2.29,0,0,1,1.3-1.89l14.83-4.53,0.18,0a1.28,1.28,0,0,1,1.36,1.05Zm-30.79-12.18,10.39-3.19-5.93-18.83-4.45,22" fill="#e42326"/></g><path d="M431.5,54.55c1.38,9.56-1,17.53-5.75,24-5.21,6.94-13.26,11.94-22.62,14.81L384.58,99l-0.2,0a1,1,0,0,1-1.1-1.13L382.71,41.5a2,2,0,0,1,1.3-1.89l14.35-4.39a47.27,47.27,0,0,1,7.21-1.65c6.22-.87,11.71,0,16.53,3.31S430.27,45.92,431.5,54.55ZM414.84,72.79a18.41,18.41,0,0,0,2.86-13.56c-0.71-4.95-2.54-8.5-5.32-10.54a10.92,10.92,0,0,0-8.55-1.92,24.23,24.23,0,0,0-3.68.84l-3.41,1,0.35,33.58L404.29,80a20,20,0,0,0,10.55-7.25" fill="#e42326"/><path d="M370.65,43.71a1,1,0,0,1,1,1.15l0,10.75a2,2,0,0,1-1.24,1.78l-22.43,6.87,0.14,9.06,17.68-5.41a1,1,0,0,1,1.22,1l0,10.78a2,2,0,0,1-1.23,1.86l-17.52,5.36,0,9.53,25.13-7.7a1,1,0,0,1,1.22,1l0.13,10.72a1.87,1.87,0,0,1-1.22,1.87l-37.74,11.55-0.18,0a1,1,0,0,1-1.14-1.13L334,56.4a2.08,2.08,0,0,1,1.3-1.89l35.12-10.75Z" fill="#e42326"/><path d="M327.76,56.86c1-.14,1.27.9,0.46,2.2l-18,28.78,19.19,25.36c0.72,1,1,2.41-.58,2.89l-11.81,3.61a4,4,0,0,1-.62.14,1.93,1.93,0,0,1-2-.92L301.4,101.75l-3.36,5.4L298.22,124a2.06,2.06,0,0,1-1.3,1.89l-11.34,3.48-0.2,0a1,1,0,0,1-1.12-1.14L283.7,71.82a1.88,1.88,0,0,1,1.23-1.87l11.42-3.49,0.19,0a1,1,0,0,1,1.12,1.13l0.19,19.8,13.85-24a4.61,4.61,0,0,1,2.72-2.41l13.08-4Z" fill="#e42326"/><path d="M260.74,77a25.4,25.4,0,0,1,9.16.13c0.68,0.14.86,0.79,0.57,1.66l-4.33,11.91a1.1,1.1,0,0,1-.85.73,1.81,1.81,0,0,1-.71-0.07,18.63,18.63,0,0,0-7-.37,15.33,15.33,0,0,0-2.35.52,8.36,8.36,0,0,0-3.9,2.25,3.46,3.46,0,0,0-.83,2.87c0.19,1.35,1.41,2.29,3.42,3.07,4.64,1.73,10,1.85,14.57,4.64,3.1,2,5.64,4.74,6.45,10.36a19.7,19.7,0,0,1-4.46,15.1c-3.23,4.05-8.28,7.52-15.09,9.61a37.32,37.32,0,0,1-5.75,1.31,22,22,0,0,1-12.4-1.52c-0.88-.34-0.88-1-0.45-2L241.16,126a1.29,1.29,0,0,1,1-.9,1.32,1.32,0,0,1,.81.17,14.2,14.2,0,0,0,8.95,1.81,13.42,13.42,0,0,0,2.08-.47,14.62,14.62,0,0,0,4.72-2.32,4,4,0,0,0,1.71-3.67c-0.25-1.75-1.29-2.58-3.9-3.53-4.8-1.77-10.63-2-15-5.38-2.5-1.86-4.37-4.52-5-9.14a19.16,19.16,0,0,1,3.84-14.83c3.49-4.48,8.91-7.71,14.77-9.51A36.88,36.88,0,0,1,260.74,77Z" fill="#e42326"/><circle cx="203.59" cy="102.28" r="2.97" fill="#ffeb08"/><circle cx="211.15" cy="100.39" r="2.97" fill="#ffeb08"/><circle cx="213.57" cy="110.1" r="2.97" fill="#ffeb08"/><circle cx="216.27" cy="117.65" r="2.97" fill="#ffeb08"/><circle cx="219.24" cy="126.01" r="2.97" fill="#ffeb08"/><circle cx="221.13" cy="134.1" r="2.97" fill="#ffeb08"/><circle cx="204.4" cy="136.8" r="2.97" fill="#ffeb08"/><circle cx="211.96" cy="134.64" r="2.97" fill="#ffeb08"/><circle cx="261.31" cy="84.48" r="2.97" fill="#ffeb08"/><circle cx="290.44" cy="74.23" r="2.97" fill="#ffeb08"/><circle cx="290.44" cy="83.67" r="2.97" fill="#ffeb08"/><circle cx="290.98" cy="93.11" r="2.97" fill="#ffeb08"/><circle cx="290.98" cy="101.47" r="2.97" fill="#ffeb08"/><circle cx="299.34" cy="94.46" r="2.97" fill="#ffeb08"/><circle cx="306.08" cy="84.48" r="2.97" fill="#ffeb08"/><circle cx="306.62" cy="97.42" r="2.97" fill="#ffeb08"/><circle cx="341.68" cy="59.66" r="2.97" fill="#ffeb08"/><circle cx="341.68" cy="69.37" r="2.97" fill="#ffeb08"/><circle cx="341.42" cy="78.81" r="2.97" fill="#ffeb08"/><circle cx="341.68" cy="88.79" r="2.97" fill="#ffeb08"/><circle cx="341.68" cy="97.96" r="2.97" fill="#ffeb08"/><circle cx="341.42" cy="106.86" r="2.97" fill="#ffeb08"/><circle cx="349.51" cy="104.97" r="2.97" fill="#ffeb08"/><circle cx="357.87" cy="102.28" r="2.97" fill="#ffeb08"/><circle cx="366.5" cy="99.31" r="2.97" fill="#ffeb08"/><circle cx="350.31" cy="56.7" r="2.97" fill="#ffeb08"/><circle cx="358.67" cy="54" r="2.97" fill="#ffeb08"/><circle cx="365.69" cy="52.11" r="2.97" fill="#ffeb08"/><circle cx="389.69" cy="44.29" r="2.97" fill="#ffeb08"/><circle cx="389.15" cy="54.54" r="2.97" fill="#ffeb08"/><circle cx="388.88" cy="63.71" r="2.97" fill="#ffeb08"/><circle cx="388.88" cy="73.42" r="2.97" fill="#ffeb08"/><circle cx="389.42" cy="83.67" r="2.97" fill="#ffeb08"/><circle cx="388.61" cy="92.3" r="2.97" fill="#ffeb08"/><circle cx="399.4" cy="89.06" r="2.97" fill="#ffeb08"/><circle cx="409.38" cy="84.48" r="2.97" fill="#ffeb08"/><circle cx="418.01" cy="78.81" r="2.97" fill="#ffeb08"/><circle cx="423.14" cy="69.64" r="2.97" fill="#ffeb08"/><circle cx="423.95" cy="58.86" r="2.97" fill="#ffeb08"/><circle cx="420.17" cy="49.15" r="2.97" fill="#ffeb08"/><circle cx="413.16" cy="42.13" r="2.97" fill="#ffeb08"/><circle cx="401.29" cy="41.59" r="2.97" fill="#ffeb08"/><circle cx="361.1" cy="76.93" r="2.97" fill="#ffeb08"/><circle cx="351.66" cy="79.35" r="2.97" fill="#ffeb08"/><circle cx="312.56" cy="104.98" r="2.97" fill="#ffeb08"/><circle cx="318.22" cy="112.26" r="2.97" fill="#ffeb08"/><circle cx="311.48" cy="74.5" r="2.97" fill="#ffeb08"/><circle cx="317.14" cy="66.14" r="2.97" fill="#ffeb08"/><circle cx="291.25" cy="110.37" r="2.97" fill="#ffeb08"/><circle cx="291.52" cy="120.35" r="2.97" fill="#ffeb08"/><circle cx="252.95" cy="86.1" r="2.97" fill="#ffeb08"/><circle cx="245.67" cy="91.22" r="2.97" fill="#ffeb08"/><circle cx="243.24" cy="100.12" r="2.97" fill="#ffeb08"/><circle cx="248.1" cy="108.21" r="2.97" fill="#ffeb08"/><circle cx="255.92" cy="110.91" r="2.97" fill="#ffeb08"/><circle cx="264.28" cy="114.95" r="2.97" fill="#ffeb08"/><circle cx="265.63" cy="124.66" r="2.97" fill="#ffeb08"/><circle cx="257.81" cy="130.87" r="2.97" fill="#ffeb08"/><circle cx="246.48" cy="133.56" r="2.97" fill="#ffeb08"/><circle cx="224.09" cy="142.19" r="2.97" fill="#ffeb08"/><circle cx="199.82" cy="112.26" r="2.97" fill="#ffeb08"/><circle cx="197.66" cy="121.97" r="2.97" fill="#ffeb08"/><circle cx="195.5" cy="131.41" r="2.97" fill="#ffeb08"/><circle cx="193.35" cy="140.58" r="2.97" fill="#ffeb08"/><circle cx="191.19" cy="150.29" r="2.97" fill="#ffeb08"/><polygon points="441.33 46 517.33 16.66 519.33 24 444 50.66 441.33 46" fill="#e42326"/><polygon points="444.67 60 446 66 514.67 48 514 42.66 444.67 60" fill="#e42326"/><polyline points="438.67 35.33 477.33 13.33 474.67 10 435.33 31.33 437.33 34" fill="#e42326"/><polygon points="440.67 44 516.67 14.66 518.67 22 443.33 48.66 440.67 44" fill="#ffeb08"/><polygon points="444 58 445.33 64 514 46 513.33 40.66 444 58" fill="#ffeb08"/><polyline points="438 33.33 476.67 11.33 474 8 434.67 29.33 436.67 32" fill="#ffeb08"/><polygon points="556.64 89.13 557.97 93.66 561.71 90.78 560.13 95.22 564.85 95.09 560.95 97.76 564.85 100.43 560.13 100.3 561.71 104.74 557.97 101.86 556.64 106.39 555.3 101.86 551.56 104.74 553.14 100.3 548.43 100.43 552.32 97.76 548.43 95.09 553.14 95.22 551.56 90.78 555.3 93.66 556.64 89.13" fill="#fff"/><polygon points="453.9 87.06 455.24 91.58 458.98 88.7 457.39 93.15 462.11 93.02 458.22 95.69 462.11 98.36 457.39 98.22 458.98 102.67 455.24 99.79 453.9 104.32 452.57 99.79 448.83 102.67 450.41 98.22 445.69 98.36 449.59 95.69 445.69 93.02 450.41 93.15 448.83 88.7 452.57 91.58 453.9 87.06" fill="#fff"/><polygon points="151.33 121.33 66.67 142.66 70 148.66 152.66 125.33 151.33 121.33" fill="#e42326" fill-rule="evenodd"/><polygon points="152.66 133.33 94 153.33 98.67 158.66 142 148 142 144.66 154 138 152.66 133.33" fill="#e42326" fill-rule="evenodd"/><polygon points="151.33 118 66.67 139.33 70 145.33 152.66 122 151.33 118" fill="#ffeb08" fill-rule="evenodd"/><polygon points="152.66 130 94 150 98.67 155.33 142 144.66 142 141.33 154 134.66 152.66 130" fill="#ffeb08" fill-rule="evenodd"/></svg>