<?xml version="1.0" encoding="utf-8"?>
<!-- Generator: Adobe Illustrator 16.0.0, SVG Export Plug-In . SVG Version: 6.00 Build 0)  -->
<!DOCTYPE svg PUBLIC "-//W3C//DTD SVG 1.1//EN" "http://www.w3.org/Graphics/SVG/1.1/DTD/svg11.dtd">
<svg version="1.1" id="Layer_1" xmlns="http://www.w3.org/2000/svg" xmlns:xlink="http://www.w3.org/1999/xlink" x="0px" y="0px"
	 width="367.777px" height="287.185px" viewBox="0 0 367.777 287.185" enable-background="new 0 0 367.777 287.185"
	 xml:space="preserve">
<g>
	<g>
		<g enable-background="new    ">
			<defs>
				<path id="SVGID_1_" enable-background="new    " d="M311.021,199.54c17.351,9.439,34.7,18.877,52.05,28.314
					c-0.593-0.324-1.313-0.455-2.114-0.342l-52.05-28.314C309.707,199.086,310.427,199.217,311.021,199.54z"/>
			</defs>
			<use xlink:href="#SVGID_1_"  overflow="visible"/>
			<clipPath id="SVGID_2_">
				<use xlink:href="#SVGID_1_"  overflow="visible"/>
			</clipPath>
			<g clip-path="url(#SVGID_2_)" enable-background="new    ">
				<path d="M360.956,227.512l-52.05-28.314c0.507-0.07,0.981-0.045,1.412,0.066l52.049,28.314
					C361.937,227.467,361.462,227.442,360.956,227.512"/>
				<path d="M362.367,227.579l-52.049-28.314c0.207,0.053,0.403,0.127,0.589,0.219l52.053,28.313
					C362.773,227.706,362.574,227.631,362.367,227.579"/>
				<path d="M362.96,227.795l-52.053-28.313c0.039,0.018,0.077,0.037,0.113,0.057l52.05,28.314
					C363.034,227.834,362.997,227.817,362.96,227.795"/>
			</g>
		</g>
		<g>
			<polygon points="329.387,231.95 277.337,203.635 308.906,199.198 360.956,227.512 			"/>
		</g>
		<g enable-background="new    ">
			<defs>
				<path id="SVGID_3_" enable-background="new    " d="M246.136,282.231c-17.352-9.439-34.699-18.879-52.051-28.316
					c-1.178-0.639-1.861-2.029-1.7-3.766l52.049,28.316C244.273,280.2,244.958,281.59,246.136,282.231z"/>
			</defs>
			<use xlink:href="#SVGID_3_"  overflow="visible"/>
			<clipPath id="SVGID_4_">
				<use xlink:href="#SVGID_3_"  overflow="visible"/>
			</clipPath>
			<g clip-path="url(#SVGID_4_)" enable-background="new    ">
				<path d="M246.136,282.231l-52.051-28.316c-1.178-0.639-1.861-2.029-1.7-3.766l52.049,28.316
					C244.273,280.2,244.958,281.59,246.136,282.231"/>
			</g>
		</g>
		<g enable-background="new    ">
			<defs>
				<path id="SVGID_5_" enable-background="new    " d="M293.349,64.506c17.351,9.439,34.699,18.877,52.051,28.316
					c-0.598-0.324-1.32-0.457-2.125-0.344l-52.051-28.314C292.028,64.051,292.753,64.182,293.349,64.506z"/>
			</defs>
			<use xlink:href="#SVGID_5_"  overflow="visible"/>
			<clipPath id="SVGID_6_">
				<use xlink:href="#SVGID_5_"  overflow="visible"/>
			</clipPath>
			<g clip-path="url(#SVGID_6_)" enable-background="new    ">
				<path d="M343.274,92.479l-52.051-28.314c0.511-0.07,0.988-0.045,1.419,0.066l52.051,28.314
					C344.261,92.434,343.783,92.409,343.274,92.479"/>
				<path d="M344.693,92.545l-52.051-28.314c0.208,0.055,0.407,0.127,0.595,0.219l52.049,28.314
					C345.101,92.672,344.901,92.6,344.693,92.545"/>
				<path d="M345.286,92.764L293.237,64.45c0.037,0.02,0.074,0.037,0.111,0.057l52.051,28.316
					C345.362,92.803,345.325,92.784,345.286,92.764"/>
			</g>
		</g>
		<g>
			<polygon points="253.354,242.635 201.304,214.321 235.253,209.549 287.303,237.864 			"/>
		</g>
		<g>
			<polygon points="244.434,278.465 192.385,250.149 196.507,219.639 248.558,247.954 			"/>
		</g>
		<g enable-background="new    ">
			<defs>
				<path id="SVGID_7_" enable-background="new    " d="M248.558,247.954l-52.051-28.314c0.251-2.613,2.408-4.982,4.797-5.318
					l52.05,28.314C250.965,242.971,248.809,245.34,248.558,247.954z"/>
			</defs>
			<use xlink:href="#SVGID_7_"  overflow="visible"/>
			<clipPath id="SVGID_8_">
				<use xlink:href="#SVGID_7_"  overflow="visible"/>
			</clipPath>
			<g clip-path="url(#SVGID_8_)" enable-background="new    ">
				<path d="M248.558,247.954l-52.051-28.314c0.047-0.486,0.16-0.963,0.327-1.42l52.05,28.314
					C248.716,246.991,248.603,247.469,248.558,247.954"/>
				<path d="M248.884,246.534l-52.05-28.314c0.103-0.279,0.225-0.551,0.365-0.811l52.051,28.314
					C249.109,245.983,248.986,246.254,248.884,246.534"/>
				<path d="M249.25,245.723l-52.051-28.314c0.122-0.227,0.256-0.443,0.402-0.652l52.052,28.313
					C249.506,245.28,249.37,245.497,249.25,245.723"/>
				<path d="M249.653,245.069l-52.052-28.313c0.141-0.199,0.291-0.393,0.451-0.574l52.051,28.316
					C249.942,244.678,249.791,244.87,249.653,245.069"/>
				<path d="M250.104,244.499l-52.051-28.316c0.163-0.184,0.335-0.357,0.516-0.52l52.05,28.316
					C250.438,244.139,250.266,244.313,250.104,244.499"/>
				<path d="M250.618,243.979l-52.05-28.316c0.193-0.174,0.395-0.334,0.606-0.48l52.049,28.316
					C251.014,243.643,250.811,243.803,250.618,243.979"/>
				<path d="M251.224,243.499l-52.049-28.316c0.252-0.174,0.516-0.326,0.786-0.455l52.051,28.314
					C251.739,243.17,251.478,243.323,251.224,243.499"/>
				<path d="M252.012,243.042l-52.051-28.314c0.431-0.201,0.882-0.342,1.343-0.406l52.05,28.314
					C252.894,242.7,252.441,242.84,252.012,243.042"/>
			</g>
		</g>
		<g>
			<polygon points="287.303,237.864 235.253,209.549 247.376,116.502 299.427,144.819 			"/>
		</g>
		<g>
			<polygon points="323.185,95.303 271.134,66.989 291.224,64.165 343.274,92.479 			"/>
		</g>
		<g enable-background="new    ">
			<defs>
				<path id="SVGID_9_" enable-background="new    " d="M313.863,98.413l-52.05-28.316c3.111-1.469,6.46-2.707,9.32-3.107
					l52.051,28.314C320.322,95.706,316.975,96.942,313.863,98.413z"/>
			</defs>
			<use xlink:href="#SVGID_9_"  overflow="visible"/>
			<clipPath id="SVGID_10_">
				<use xlink:href="#SVGID_9_"  overflow="visible"/>
			</clipPath>
			<g clip-path="url(#SVGID_10_)" enable-background="new    ">
				<path d="M313.863,98.413l-52.05-28.316c0.012-0.004,0.025-0.012,0.037-0.018l52.052,28.316
					C313.889,98.401,313.876,98.405,313.863,98.413"/>
				<path d="M313.902,98.395l-52.052-28.316c3.102-1.461,6.435-2.689,9.283-3.09l52.051,28.314
					C320.335,95.704,317.002,96.932,313.902,98.395"/>
			</g>
		</g>
		<g enable-background="new    ">
			<defs>
				<path id="SVGID_11_" enable-background="new    " d="M262.251,161.315c-17.35-9.439-34.699-18.879-52.05-28.314
					c-0.953-0.518-1.238-2.045-0.853-4.953l52.051,28.314C261.014,159.272,261.299,160.797,262.251,161.315z"/>
			</defs>
			<use xlink:href="#SVGID_11_"  overflow="visible"/>
			<clipPath id="SVGID_12_">
				<use xlink:href="#SVGID_11_"  overflow="visible"/>
			</clipPath>
			<g clip-path="url(#SVGID_12_)" enable-background="new    ">
				<path d="M262.251,161.315L210.201,133c-0.953-0.518-1.238-2.045-0.853-4.953l52.051,28.314
					C261.014,159.272,261.299,160.797,262.251,161.315"/>
			</g>
		</g>
		<g>
			<polygon points="270.311,118.989 218.261,90.672 261.813,70.096 313.863,98.413 			"/>
		</g>
		<g>
			<polygon points="261.399,156.362 209.349,128.047 213.234,98.081 265.285,126.393 			"/>
		</g>
		<g enable-background="new    ">
			<defs>
				<path id="SVGID_13_" enable-background="new    " d="M265.285,126.393l-52.051-28.313c0.241-2.869,1.678-5.648,5.026-7.408
					l52.05,28.316C266.963,120.747,265.526,123.528,265.285,126.393z"/>
			</defs>
			<use xlink:href="#SVGID_13_"  overflow="visible"/>
			<clipPath id="SVGID_14_">
				<use xlink:href="#SVGID_13_"  overflow="visible"/>
			</clipPath>
			<g clip-path="url(#SVGID_14_)" enable-background="new    ">
				<path d="M265.285,126.393l-52.051-28.313c0.07-0.842,0.246-1.678,0.54-2.479l52.05,28.314
					C265.529,124.719,265.355,125.553,265.285,126.393"/>
				<path d="M265.824,123.917l-52.05-28.314c0.14-0.379,0.305-0.75,0.499-1.111l52.05,28.314
					C266.129,123.167,265.963,123.538,265.824,123.917"/>
				<path d="M266.323,122.805l-52.05-28.314c0.156-0.291,0.332-0.578,0.527-0.855l52.05,28.314
					C266.656,122.229,266.48,122.514,266.323,122.805"/>
				<path d="M266.851,121.95l-52.05-28.314c0.181-0.258,0.38-0.512,0.597-0.756l52.049,28.314
					C267.231,121.438,267.032,121.69,266.851,121.95"/>
				<path d="M267.446,121.194l-52.049-28.314c0.224-0.254,0.465-0.498,0.727-0.734l52.05,28.314
					C267.913,120.696,267.67,120.94,267.446,121.194"/>
				<path d="M268.174,120.459l-52.05-28.314c0.303-0.271,0.63-0.531,0.987-0.777l52.049,28.316
					C268.805,119.928,268.478,120.188,268.174,120.459"/>
				<path d="M269.16,119.684l-52.049-28.316c0.354-0.246,0.738-0.479,1.149-0.695l52.05,28.316
					C269.898,119.206,269.516,119.436,269.16,119.684"/>
			</g>
		</g>
		<g>
			<g>
				<path fill="#E52427" d="M343.274,92.479c2.389-0.334,4.064,1.484,3.812,4.107L329.387,231.95l31.569-4.438
					c2.389-0.336,4.053,1.498,3.812,4.109l-4.124,30.512c-0.24,2.611-2.396,4.982-4.784,5.318l-107.603,15.123
					c-2.389,0.336-4.064-1.498-3.823-4.109l4.124-30.512c0.251-2.613,2.407-4.982,4.796-5.318l33.949-4.771l12.124-93.045
					l-33.011,15.738c-1.089,0.498-2.006,0.824-2.752,0.928c-2.043,0.289-2.801-1.084-2.265-5.123l3.886-29.969
					c0.241-2.865,1.678-5.646,5.025-7.404l43.553-20.576c3.111-1.471,6.459-2.707,9.321-3.109L343.274,92.479z"/>
				<path fill="#FFFFFF" d="M247.702,283.615c-1.214,0-2.314-0.474-3.098-1.332c-0.895-0.981-1.309-2.37-1.167-3.909l4.129-30.554
					c0.292-3.042,2.774-5.771,5.647-6.175l33.195-4.665l11.788-90.467l-31.351,14.946c-1.274,0.583-2.237,0.904-3.045,1.016
					c-1.181,0.167-2.082-0.114-2.705-0.824c-0.846-0.966-1.058-2.638-0.688-5.421l3.885-29.966c0.208-2.479,1.345-5.951,5.553-8.161
					l43.591-20.595c2.533-1.197,6.258-2.725,9.608-3.195l20.09-2.824c1.529-0.213,2.871,0.266,3.797,1.285
					c0.89,0.979,1.298,2.368,1.149,3.908l-17.532,134.095l30.268-4.255c1.519-0.212,2.856,0.264,3.781,1.277
					c0.895,0.98,1.309,2.371,1.166,3.914l-4.129,30.554c-0.279,3.039-2.757,5.77-5.636,6.175l-107.603,15.123
					C248.159,283.598,247.927,283.615,247.702,283.615z M300.656,143.125l-12.46,95.624l-34.703,4.877
					c-1.932,0.271-3.736,2.298-3.94,4.424l-4.128,30.55c-0.085,0.931,0.146,1.775,0.658,2.336c0.489,0.536,1.207,0.764,2.034,0.649
					l107.603-15.123c1.934-0.272,3.732-2.296,3.928-4.42l4.129-30.554c0.086-0.935-0.146-1.78-0.656-2.341
					c-0.485-0.533-1.202-0.76-2.024-0.645l-32.871,4.62l0.171-1.303l17.699-135.363c0.09-0.938-0.138-1.781-0.644-2.338
					c-0.486-0.536-1.2-0.765-2.038-0.649l-20.089,2.824c-2.456,0.346-5.58,1.391-9.033,3.023l-43.554,20.576
					c-3.367,1.77-4.285,4.559-4.456,6.584l-3.891,30.014c-0.361,2.723-0.022,3.576,0.211,3.843c0.049,0.056,0.165,0.188,0.57,0.188
					c0.111,0,0.229-0.01,0.353-0.027c0.604-0.084,1.412-0.36,2.476-0.847L300.656,143.125z"/>
			</g>
		</g>
	</g>
	<circle cx="322.627" cy="113.924" r="4.823"/>
	<circle cx="343.736" cy="249.172" r="4.823"/>
	<path fill="#181716" d="M308.978,256.438l-3.973-0.461l0.404-3.483l3.973,0.461L308.978,256.438z M309.958,247.988l-3.973-0.461
		l0.576-4.967l3.973,0.461L309.958,247.988z M311.11,238.054l-3.973-0.461l0.576-4.967l3.973,0.461L311.11,238.054z
		 M312.263,228.121l-3.973-0.461l0.576-4.967l3.973,0.461L312.263,228.121z M313.416,218.187l-3.973-0.461l0.576-4.966l3.973,0.461
		L313.416,218.187z M314.568,208.254l-3.973-0.461l0.576-4.967l3.973,0.461L314.568,208.254z M315.721,198.321l-3.973-0.461
		l0.576-4.967l3.973,0.461L315.721,198.321z M316.873,188.387l-3.973-0.461l0.576-4.967l3.973,0.461L316.873,188.387z
		 M318.025,178.454l-3.973-0.461l0.576-4.967l3.973,0.461L318.025,178.454z M319.179,168.521l-3.973-0.461l0.576-4.967l3.973,0.461
		L319.179,168.521z M320.331,158.587l-3.973-0.461l0.576-4.967l3.973,0.461L320.331,158.587z M321.483,148.654l-3.973-0.461
		l0.576-4.967l3.973,0.461L321.483,148.654z M322.636,138.72l-3.973-0.461l0.576-4.967l3.973,0.461L322.636,138.72z
		 M278.142,138.403l-1.715-3.613l4.518-2.144l1.715,3.613L278.142,138.403z M287.176,134.116l-1.715-3.613l4.518-2.145l1.715,3.613
		L287.176,134.116z M296.21,129.828l-1.715-3.613l4.518-2.144l1.715,3.613L296.21,129.828z M323.788,128.788l-3.973-0.461
		l0.576-4.967l3.973,0.461L323.788,128.788z M305.244,125.541l-1.715-3.613l4.518-2.145l1.715,3.613L305.244,125.541z
		 M314.278,121.252l-1.715-3.613l4.518-2.144l1.715,3.613L314.278,121.252z M324.941,118.854l-3.973-0.461l0.454-3.918l0.749,0.087
		l-0.575-1.21l4.215-2.001L324.941,118.854z"/>
	<path fill="#181716" d="M258.556,263.659l-0.582-3.957l4.947-0.727l0.582,3.957L258.556,263.659z M268.449,262.207l-0.582-3.957
		l4.947-0.727l0.582,3.957L268.449,262.207z M278.344,260.754l-0.582-3.957l4.947-0.727l0.582,3.957L278.344,260.754z
		 M288.237,259.302l-0.582-3.957l4.947-0.727l0.582,3.957L288.237,259.302z M298.132,257.85l-0.582-3.957l4.946-0.727l0.582,3.957
		L298.132,257.85z M308.024,256.397l-0.58-3.957l4.947-0.726l0.58,3.957L308.024,256.397z M317.919,254.945l-0.58-3.957l4.946-0.726
		l0.58,3.957L317.919,254.945z M327.813,253.493l-0.58-3.957l4.947-0.726l0.58,3.957L327.813,253.493z M337.707,252.041l-0.58-3.957
		l4.946-0.726l0.58,3.957L337.707,252.041z"/>
</g>
<g>
	<g>
		<g>
			<g enable-background="new    ">
				<defs>
					<path id="SVGID_15_" enable-background="new    " d="M122.809,131.907c17.352,9.439,34.699,18.877,52.051,28.314
						c-0.665-0.361-1.459-0.514-2.315-0.393l-52.049-28.316C121.352,131.393,122.144,131.543,122.809,131.907z"/>
				</defs>
				<use xlink:href="#SVGID_15_"  overflow="visible"/>
				<clipPath id="SVGID_16_">
					<use xlink:href="#SVGID_15_"  overflow="visible"/>
				</clipPath>
				<g clip-path="url(#SVGID_16_)" enable-background="new    ">
					<path d="M172.544,159.829l-52.049-28.316c0.531-0.074,1.039-0.043,1.505,0.078l52.051,28.313
						C173.583,159.784,173.076,159.752,172.544,159.829"/>
					<path d="M174.051,159.903L122,131.59c0.237,0.059,0.466,0.143,0.679,0.25l52.051,28.314
						C174.515,160.047,174.287,159.963,174.051,159.903"/>
					<path d="M174.729,160.155l-52.051-28.314c0.045,0.02,0.088,0.043,0.13,0.066l52.051,28.314
						C174.816,160.198,174.772,160.176,174.729,160.155"/>
				</g>
			</g>
			<g enable-background="new    ">
				<defs>
					<path id="SVGID_17_" enable-background="new    " d="M101.21,252.731l-52.051-28.314c-1.196-0.652-1.983-1.982-1.98-3.646
						l52.051,28.314C99.227,250.749,100.014,252.081,101.21,252.731z"/>
				</defs>
				<use xlink:href="#SVGID_17_"  overflow="visible"/>
				<clipPath id="SVGID_18_">
					<use xlink:href="#SVGID_17_"  overflow="visible"/>
				</clipPath>
				<g clip-path="url(#SVGID_18_)" enable-background="new    ">
					<path d="M101.21,252.731l-52.051-28.314c-1.196-0.652-1.983-1.982-1.98-3.646l52.051,28.314
						C99.227,250.749,100.014,252.081,101.21,252.731"/>
				</g>
			</g>
			<g>
				<polygon points="135.724,165.002 83.673,136.688 120.495,131.512 172.544,159.829 				"/>
			</g>
			<g>
				<polygon points="99.229,249.084 47.179,220.77 47.253,181.028 99.303,209.342 				"/>
			</g>
			<g enable-background="new    ">
				<defs>
					<path id="SVGID_19_" enable-background="new    " d="M81.76,93.553l52.05,28.314c-0.665-0.361-1.456-0.514-2.308-0.395
						L79.451,93.159C80.304,93.04,81.095,93.192,81.76,93.553z"/>
				</defs>
				<use xlink:href="#SVGID_19_"  overflow="visible"/>
				<clipPath id="SVGID_20_">
					<use xlink:href="#SVGID_19_"  overflow="visible"/>
				</clipPath>
				<g clip-path="url(#SVGID_20_)" enable-background="new    ">
					<path d="M131.502,121.473L79.451,93.159c0.528-0.072,1.034-0.045,1.499,0.076L133,121.549
						C132.534,121.43,132.029,121.399,131.502,121.473"/>
					<path d="M133,121.549L80.95,93.235c0.237,0.061,0.465,0.145,0.679,0.25l52.051,28.316
						C133.465,121.696,133.238,121.61,133,121.549"/>
					<path d="M133.68,121.801L81.629,93.485c0.044,0.023,0.087,0.045,0.131,0.068l52.05,28.314
						C133.768,121.844,133.723,121.821,133.68,121.801"/>
				</g>
			</g>
			<g enable-background="new    ">
				<defs>
					<path id="SVGID_21_" enable-background="new    " d="M60.415,214.088c-17.351-9.438-34.7-18.875-52.05-28.314
						c-1.2-0.652-1.984-1.988-1.982-3.646l52.05,28.314C58.43,212.1,59.216,213.438,60.415,214.088z"/>
				</defs>
				<use xlink:href="#SVGID_21_"  overflow="visible"/>
				<clipPath id="SVGID_22_">
					<use xlink:href="#SVGID_21_"  overflow="visible"/>
				</clipPath>
				<g clip-path="url(#SVGID_22_)" enable-background="new    ">
					<path d="M60.415,214.088l-52.05-28.314c-1.2-0.652-1.984-1.988-1.982-3.646l52.05,28.314
						C58.43,212.1,59.216,213.438,60.415,214.088"/>
				</g>
			</g>
			<g>
				<polygon points="103.762,125.372 51.711,97.057 79.451,93.159 131.502,121.473 				"/>
			</g>
			<g>
				<polygon points="99.377,170.112 47.325,141.795 47.399,102.309 99.45,130.624 				"/>
			</g>
			<g enable-background="new    ">
				<defs>
					<path id="SVGID_23_" enable-background="new    " d="M99.45,130.624l-52.051-28.314c0.004-2.578,1.922-4.916,4.312-5.252
						l52.051,28.314C101.372,125.708,99.454,128.043,99.45,130.624z"/>
				</defs>
				<use xlink:href="#SVGID_23_"  overflow="visible"/>
				<clipPath id="SVGID_24_">
					<use xlink:href="#SVGID_23_"  overflow="visible"/>
				</clipPath>
				<g clip-path="url(#SVGID_24_)" enable-background="new    ">
					<path d="M99.45,130.624l-52.051-28.314c0.001-0.639,0.118-1.262,0.332-1.844l52.051,28.314
						C99.568,129.362,99.451,129.987,99.45,130.624"/>
					<path d="M99.782,128.78l-52.051-28.314c0.093-0.25,0.202-0.49,0.326-0.723l52.049,28.316
						C99.983,128.29,99.875,128.532,99.782,128.78"/>
					<path d="M100.106,128.059L48.058,99.743c0.104-0.193,0.221-0.383,0.348-0.563l52.051,28.314
						C100.329,127.674,100.213,127.864,100.106,128.059"/>
					<path d="M100.456,127.495L48.405,99.18c0.119-0.172,0.247-0.334,0.384-0.488l52.051,28.313
						C100.703,127.161,100.575,127.323,100.456,127.495"/>
					<path d="M100.84,127.004L48.789,98.692c0.138-0.156,0.283-0.303,0.436-0.441l52.051,28.316
						C101.122,126.704,100.977,126.85,100.84,127.004"/>
					<path d="M101.275,126.567L49.225,98.25c0.166-0.146,0.337-0.285,0.519-0.408l52.049,28.314
						C101.612,126.282,101.439,126.418,101.275,126.567"/>
					<path d="M101.792,126.157L49.743,97.842c0.222-0.154,0.455-0.289,0.697-0.404l52.051,28.316
						C102.249,125.868,102.016,126.002,101.792,126.157"/>
					<path d="M102.491,125.754L50.44,97.438c0.402-0.188,0.828-0.318,1.271-0.381l52.051,28.314
						C103.319,125.434,102.894,125.565,102.491,125.754"/>
				</g>
			</g>
			<g>
				<polygon points="62.801,175.25 10.751,146.938 47.325,141.795 99.377,170.112 				"/>
			</g>
			<g>
				<polygon points="58.433,210.442 6.383,182.127 6.438,152.186 58.488,180.502 				"/>
			</g>
			<g enable-background="new    ">
				<defs>
					<path id="SVGID_25_" enable-background="new    " d="M58.488,180.502L6.438,152.186c0.006-2.578,1.914-4.912,4.313-5.248
						l52.05,28.313C60.401,175.588,58.494,177.922,58.488,180.502z"/>
				</defs>
				<use xlink:href="#SVGID_25_"  overflow="visible"/>
				<clipPath id="SVGID_26_">
					<use xlink:href="#SVGID_25_"  overflow="visible"/>
				</clipPath>
				<g clip-path="url(#SVGID_26_)" enable-background="new    ">
					<path d="M58.488,180.502L6.438,152.186c0.002-0.639,0.121-1.266,0.335-1.848l52.051,28.314
						C58.608,179.237,58.489,179.86,58.488,180.502"/>
					<path d="M58.823,178.653L6.772,150.338c0.092-0.248,0.199-0.488,0.323-0.719l52.052,28.313
						C59.022,178.163,58.913,178.405,58.823,178.653"/>
					<path d="M59.147,177.932L7.096,149.62c0.105-0.197,0.223-0.385,0.348-0.564l52.051,28.314
						C59.367,177.549,59.253,177.737,59.147,177.932"/>
					<path d="M59.494,177.37L7.443,149.055c0.119-0.17,0.247-0.334,0.384-0.486l52.05,28.314
						C59.74,177.038,59.613,177.2,59.494,177.37"/>
					<path d="M59.877,176.883l-52.05-28.314c0.137-0.154,0.28-0.301,0.434-0.438l52.051,28.313
						C60.158,176.583,60.013,176.729,59.877,176.883"/>
					<path d="M60.312,176.444L8.261,148.131c0.163-0.148,0.335-0.285,0.515-0.408l52.051,28.314
						C60.646,176.161,60.475,176.297,60.312,176.444"/>
					<path d="M60.826,176.038L8.775,147.723c0.224-0.154,0.455-0.289,0.699-0.402l52.05,28.313
						C61.281,175.749,61.048,175.883,60.826,176.038"/>
					<path d="M61.524,175.633l-52.05-28.313c0.401-0.189,0.83-0.32,1.276-0.383l52.05,28.313
						C62.356,175.315,61.927,175.446,61.524,175.633"/>
				</g>
			</g>
			<g>
				<g>
					<path fill="#EBD600" d="M131.502,121.473c2.389-0.334,4.299,1.463,4.295,4.043l-0.073,39.486l36.82-5.174
						c2.401-0.338,4.302,1.461,4.296,4.039l-0.055,29.941c-0.006,2.578-1.913,4.912-4.313,5.25l-36.821,5.174l-0.074,39.742
						c-0.005,2.592-1.923,4.914-4.312,5.25l-27.74,3.898c-2.39,0.338-4.301-1.447-4.295-4.039l0.073-39.742l-36.574,5.141
						c-2.399,0.338-4.3-1.463-4.296-4.041l0.056-29.939c0.006-2.58,1.913-4.914,4.313-5.252l36.576-5.139l0.073-39.488
						c0.004-2.58,1.922-4.916,4.312-5.252L131.502,121.473z"/>
					<path fill="#FFFFFF" d="M102.95,254.165c-1.244,0-2.403-0.475-3.264-1.338c-0.942-0.944-1.459-2.274-1.456-3.744l0.071-38.59
						l-35.433,4.98c-1.529,0.217-2.952-0.264-3.975-1.287c-0.944-0.945-1.463-2.275-1.46-3.746l0.056-29.939
						c0.007-3.092,2.279-5.833,5.173-6.24l35.717-5.018l0.072-38.621c0.005-3.092,2.277-5.833,5.172-6.24l27.74-3.898
						c1.535-0.212,2.949,0.267,3.973,1.291c0.944,0.946,1.464,2.275,1.461,3.744l-0.071,38.334l35.68-5.014
						c1.525-0.218,2.954,0.263,3.978,1.288c0.943,0.944,1.46,2.274,1.457,3.743l-0.055,29.941c-0.007,3.091-2.279,5.831-5.174,6.238
						l-35.962,5.053l-0.073,38.875c-0.006,3.091-2.278,5.831-5.172,6.238l-27.74,3.898
						C103.422,254.148,103.183,254.165,102.95,254.165z M100.305,208.192l-0.075,40.895c-0.002,0.936,0.308,1.762,0.872,2.327
						c0.587,0.588,1.39,0.844,2.283,0.72l27.741-3.898c1.899-0.267,3.447-2.179,3.451-4.262l0.076-40.609l37.681-5.295
						c1.898-0.268,3.447-2.18,3.452-4.262l0.055-29.941c0.002-0.935-0.308-1.761-0.873-2.327c-0.587-0.588-1.389-0.843-2.283-0.72
						l-37.962,5.334l0.075-40.639c0.001-0.933-0.31-1.76-0.877-2.327c-0.588-0.589-1.389-0.85-2.279-0.724l-27.74,3.898
						c-1.899,0.267-3.448,2.18-3.451,4.264l-0.075,40.355l-37.436,5.26c-1.898,0.268-3.447,2.181-3.452,4.264l-0.056,29.939
						c-0.001,0.935,0.31,1.763,0.876,2.329c0.587,0.588,1.388,0.845,2.28,0.72L100.305,208.192z"/>
				</g>
			</g>
		</g>
		<circle cx="116.796" cy="235.625" r="4.823"/>
		<path fill="#181716" d="M115.577,239.548l-0.036-4.761l4-0.029l0.036,4.761L115.577,239.548z M115.504,229.788l-0.037-5l4-0.029
			l0.037,5L115.504,229.788z M115.43,219.789l-0.037-5l4-0.029l0.037,5L115.43,219.789z M115.355,209.789l-0.037-5l4-0.029l0.037,5
			L115.355,209.789z M115.281,199.789l-0.038-5l4-0.029l0.038,5L115.281,199.789z M115.206,189.789l-0.037-4.999l4-0.029
			l0.037,4.999L115.206,189.789z M115.131,179.79l-0.037-5l4-0.029l0.037,5L115.131,179.79z M115.057,169.79l-0.038-5l4-0.029
			l0.038,5L115.057,169.79z M114.982,159.79l-0.038-5l4-0.029l0.038,5L114.982,159.79z M114.908,149.791l-0.037-5l4-0.029l0.037,5
			L114.908,149.791z M114.833,139.791l-0.037-5l4-0.029l0.037,5L114.833,139.791z"/>
		<path fill="#181716" d="M70.966,196.168l-0.588-3.957l4.946-0.735l0.588,3.957L70.966,196.168z M80.857,194.697l-0.588-3.957
			l4.946-0.735l0.588,3.957L80.857,194.697z M90.748,193.225l-0.588-3.957l4.946-0.735l0.588,3.957L90.748,193.225z M100.64,191.754
			l-0.589-3.957l4.946-0.736l0.589,3.957L100.64,191.754z M110.53,190.283l-0.588-3.957l4.946-0.735l0.588,3.957L110.53,190.283z
			 M120.421,188.811l-0.588-3.957l4.946-0.735l0.588,3.957L120.421,188.811z M130.313,187.339l-0.588-3.957l4.946-0.735l0.588,3.957
			L130.313,187.339z M140.205,185.869l-0.589-3.957l4.945-0.736l0.589,3.957L140.205,185.869z M150.095,184.397l-0.588-3.957
			l4.945-0.735l0.588,3.957L150.095,184.397z M159.986,182.925l-0.588-3.957l4.945-0.735l0.588,3.957L159.986,182.925z"/>
	</g>
	<circle cx="163.515" cy="180.594" r="4.822"/>
</g>
<polygon points="172.956,99.752 220.626,64.702 208.007,50.682 164.543,92.743 "/>
<polygon points="150.522,96.95 177.161,4.413 156.131,4.413 143.512,96.95 "/>
<polygon points="130.894,85.733 118.275,61.897 105.656,67.506 122.48,88.538 "/>
</svg>
