<svg xmlns="http://www.w3.org/2000/svg" viewBox="0 0 198 191"><title>Fb_Insta_YT_icon_button</title><path d="M174.48,146.5c0,8.28-7.19,14.54-15.48,14.54H48A14.21,14.21,0,0,1,33.48,146.5V36.5C33.48,28.22,39.72,21,48,21H159A15.81,15.81,0,0,1,174.48,36.5v110Z" fill="#502d61" fill-rule="evenodd"/><path d="M153.23,38a5,5,0,0,1,5,5l0.29,14.95a4.88,4.88,0,0,1-4.84,5L136.93,63a5,5,0,0,1-5-5l-0.29-14.95a4.87,4.87,0,0,1,4.83-5Z" fill="#ffea0e"/><path d="M157.23,80.81l1.08,56.79a7.74,7.74,0,0,1-7.69,8l-92.37.48a8.42,8.42,0,0,1-8.47-7.93L48.7,81.38l13.58-.07a43.37,43.37,0,0,0-1,10.22c0.45,23.76,19.89,42.92,43.42,42.8a42.11,42.11,0,0,0,41.79-43.24,43.69,43.69,0,0,0-1.41-10.21Z" fill="#ffea0e"/><path d="M102.57,63.94a27.35,27.35,0,0,1,27.28,26.9A26.46,26.46,0,0,1,103.6,118,27.35,27.35,0,0,1,76.32,91.11,26.46,26.46,0,0,1,102.57,63.94Z" fill="#ffea0e"/></svg>