<svg xmlns="http://www.w3.org/2000/svg" data-name="Layer 1" viewBox="0 0 266.24 262.39"><path d="M32.3 128.6l1.2 37.3 14.8 16.3 58.5-1-7-17.8-67.5-35M17.8 54.4l21 19.6 19-2.6-5.3 45.3s5 3 5.8 2.7 9-68.5 9-68.5"/><path fill="#7ac2c2" fill-rule="evenodd" d="M32.3 128.6l15 39.4 56.5 21.8 21.7 3L156 150l18-48.5 2.4-16-33.2-13.4-57.5 21.4"/><path fill="#7ac2c2" fill-rule="evenodd" d="M175.6 83.4L120 21.6l-9 8.3-11-1.7L36.5 0 0 6l19.8 55.3L61 57l-2.7 62.4"/><path fill="#e64241" fill-rule="evenodd" d="M189 79.5l19 51.8 27.7 22 27 22.8-6.3 26-15 10-13 17-8.8-4-16.2 37-23-8.8 26.8-50.7-36.2-20-30.7-2.3 41-71-3.8-34 11.5 4.3"/><path fill="#7999a6" d="M114.7 27l45 52-6.4.5L110 37.2l4.7-10.2M88 37L140 85v4l-64-35.4L88.2 37M61.4 68L129 96.7l-4 4-65.2-16 1.6-17M60 103l53.8 16.2-5 7-50.5-6.8L60 103M104.7 143l-72.4-14.4 6 13.2 64 6 2.4-5M99.5 158.8l-35.3 8 21.5 5.8 14.2-9-.5-4.8"/><path fill-rule="evenodd" d="M191.7 178l.5 1.8 5-2.2-2.8 2.8-.5 1.7h2.7c2.5-1.8 4 .4 5.5 1.7.8.6 1.4 1.3 1.8 1.7a13.4 13.4 0 0 1 2.6-1.4 8 8 0 0 1 1.2 1.8l2.7-.5-1.4 3.5.5.3 3.4-1.5-2 2.2c1 1 2 1.8 3 2.5a1.6 1.6 0 0 0 1.4 0 30.7 30.7 0 0 0 15.4-24.8c.3-3.3-1.2-7-2.2-10.3a6 6 0 0 0-2-2.3c-1.5-1.4-4.2-.7-5.5-2.7 0-.3-.8-.2-1.5-.3l-5-4-.7 1-1.7-.8 1.2-3.2 16.4 9.4c2.5 1.5 4.8 3.3 7.2 5 7 4.7 14.2 9.5 21.4 14 4.7 3 7 7.7 7.8 12.8 1.6 9.8-2.4 17.5-10 23.3-3.5 2.6-7.7 3.3-12 3.8-3 .5-5.7 2-8.3 3.3-.7.4-.7 2.2-1 3.4l-1.2-.2 1.8-7.3c-1.6-1.2-4.3-.2-5.3-2.8-.2-.7-2-1-3-1.3-2.4-1-5-1.8-7.4-3a25.5 25.5 0 0 1-4-3.3c-1.7 1.5-2.3-1.7-4.2-1.7l1-1.8-.5-.4c-.8.6-2 1.2-2 1.7a3.3 3.3 0 0 0 1.5 2.4c2 1 2.6 2.5 2.6 4.6a4.4 4.4 0 0 0 .6 2.3c3.6 5.4 7.2 10.7 11 16a13.8 13.8 0 0 0 1.4 1.6l-.3-3.2 3 2.3c-1.3 2.3-2.8 2.5-4.8 1.4a43 43 0 0 0-5.4-2c1.5-3.6 0-6-2.5-8.6-1.4-1.6-2-4-3-6a31 31 0 0 0-2.3-2.8l-1 2.3-1-1.5c1 3.6-1.4 6-3 8.7s-2.7 6-4.7 8.4c-1.7 2.3-2.8 5-4.3 7.3-1.2 1.7-2 3.5-3 5.4-.4.4-1.6.4-1.8.8-1 2-1.6 4-2.7 6-1.6 2.7-3.5 5.2-5.2 8-.3.5 0 1.4-.5 2l-1.6 2.5 4.3 2.6.3-.6-1.3-1.2.2-.6 7.5 3.5.6-1-2.6-2v-.2l3.7 1.5.3-.3-2-2 3.3-1v-3.8l1.7 2.5 1-8a8 8 0 0 0 1 1.8 17.8 17.8 0 0 0 2.6-1l-.8-2a3.7 3.7 0 0 1-.2-2.2l.7 2c1.3-2.4 1.2-5.6 5-6a25 25 0 0 1-.2-3.2 1.5 1.5 0 0 1 1.3-.8 3.2 3.2 0 0 1 1.2.8l-.3-4 2.4 1.8v-3.5l2 .6-.4-3.8 2 1.4v-3l2.5.4-8.4 12.8-12.6 19c-.8 1.4-1.2 3.6-2.2 4-1.6.3-3.6-.3-5.3-1a111.7 111.7 0 0 1-11.6-4.3c-2.5-1-2.3-2.3 0-4a14.2 14.2 0 0 0 3-4c4.7-8.4 9.5-17 14-25.4.7-1 .3-2.6.5-4a5.7 5.7 0 0 1 1-2.5c2.7-3 5.3-5.8 8-9a3 3 0 0 0 .2-1.7 8.8 8.8 0 0 0-.3-2.6 11.7 11.7 0 0 0-2-3.8c-1-1.2-2-2-2.4-3.8-.3-1.5-2-3.2-3.7-4a98.6 98.6 0 0 0-37.8-10.4 121.8 121.8 0 0 0-14.2 0 8 8 0 0 0-4.4 2c-5.6 4.6-11.3 9-18 11.4-5.3 2-10.6 2.8-16 1.3a16 16 0 0 1-8.8-6.7c-4-6-5-12.5-4.8-19.4.2-10.7 2.7-21 6.2-31.2a156.5 156.5 0 0 1 15.5-32c8-12.7 17.4-24.3 29.6-33.4 5.5-4 11.4-7.3 18.3-8 10.4-1.3 18.3 5 21 16 2.3 10.8 1.2 21.4-1.6 31.7a161 161 0 0 1-8.2 23.5c-3.2 7.2-7.4 14-11.6 20.7-3 5-6.6 9.4-10 14-1 1.5-2.4 2.7-3.6 4l-1.2 1.7c3 1 4.7-.4 6.7-1.6a9.5 9.5 0 0 1 3-1.3 4.4 4.4 0 0 0 3.6-6l4.7 1.6.5 3.8 4-2c-2-1.4-3-3-1.5-5l1.8-.5 1.2 1.2.6 2.2c2.6-.5 5.2-1.2 7-3.6l-1.3 2c-1.3 2-2.7 4-2.3 7.2 1-1.4 1.2-3 2-3.4 3-1.4 2.4-4 2.4-6.4l1.7.5v2.6l3.6-1.3-3.3 2.5.2.3 2-.2-1.2 1.5c-3-1-3.3 2.2-4.6 2.7a3.5 3.5 0 0 0 .7 1.3 4.5 4.5 0 0 0 1.3.3l-1.6 1 .6.5 7-4 3.6 1.2 1 1.3-2.5 1.2-.5.6h.6zm44 6.6l-.5-1-.6 1-.8 1.2-1.3.3v.5l1.4.3 1.2 1 2.3-2.2a3.5 3.5 0 0 0-.6-1zm17 6.6l1.5 1.4 1.2-1-2-1.5a1.3 1.3 0 0 1-.5 0l-1.2.7zm-137.5-29l-.4-2.4-2.6-.6v-.6l4.2-.2-1.3-1 2.2-1v-.4l-2.2.4 1-3h.8a2.7 2.7 0 0 1 1 1c.5 3 3.4 1.4 4.8 2.5a4.6 4.6 0 0 0 1-1.2 12.7 12.7 0 0 0 1-1.7l-4.2-.8 3-.4-2-3.4a23.2 23.2 0 0 1 2.6 0c1.8 0 1.7-.6.8-1.7h1.3a7 7 0 0 0-6.7-.7 9.6 9.6 0 0 0-1.8-.6 23.3 23.3 0 0 0-2.6 0v-.6l4.8-.4v-.3l-2.3-.5v-.4l4.6-.3v-.5l-3-.2-1-2 3.7-1v-.3l-1.8-.3v-1.8l2-.5a11.2 11.2 0 0 0-2.4-.5 2.4 2.4 0 0 1-1-1 1 1 0 0 1 .3-.7 4.8 4.8 0 0 1 1.4.2l3.4 1 .2-.7-2.8-.5 7.6-2 .3 1.2-2 2.6c1.5 2 3 3.5 4 5.4 1 3 2.7 4 5.2 2a25.8 25.8 0 0 0 3.3-3.6l4.2 1 .2-.4-1.8-2c1.2-1.7 2.6-3.3 3.3-5 1.4-3.7 2.6-7.4 5-10.5a6.8 6.8 0 0 0 .7-1.8l-3.3 2.8c0-1.8.3-3.3.5-5l-3 1c.3-1.6 1-3.5.3-4.2-1.5-1.6-2.8-.2-4 1a46.6 46.6 0 0 1-4 4c-.5.4-1.5.2-1.7.5l-5.6 8.7c-.5.8.2 2.4-1.6 2l-5.3.6v-.4l3.3-1.3h-6l4.3-2.4-2.6-1 1.8-1 2.5-1c-.5-1-1-1.7-1.5-2.4a3.7 3.7 0 0 0-1-.7c1.8.4 3.7 1.2 5.5 0a3.4 3.4 0 0 0 .7-1.2l-.8-.3 1-2h-.4l-1 1-1-2 3-1-.6.8h.4v-1l-1.7-2.6 1-1.5v1l5-2-1-1.7h-.2c1-.6 3.8-.3 1.3-2.6l3.8-2.7-3.3-.3a6 6 0 0 1 1-.7l5.3-2-1.6-1.2 2-4 1.5.4a7 7 0 0 1 4-5.5l.7.4.5-1.2 1-1v-1.4l4.2-5.6c3 1.2 4-2 6-3.4l-2 3.4.8.5 6.6-7.3a19 19 0 0 1-1 2.7c-1 1.8-.5 2.8 1.3 3.3L168 84l4.6 4.7-3-.2 2 2.5h-.6a8.3 8.3 0 0 0 .4 2.8 15 15 0 0 0 2 2.5c-1 1-2.5 2.3-2.4 2.5a50 50 0 0 0 3.7 4.8c2-7.5 2.3-14.6.5-21.6-1.5-6-6.3-9.3-12.5-8.4s-11.3 3.7-16 7.3a102.5 102.5 0 0 0-22.3 23.4 146.7 146.7 0 0 0-17.5 33c-4 10.2-6.8 20.8-6.7 32 0 5 .7 10 3.3 14.7 2.2 4 6 6 10.2 5.3 6.3-1 11.6-4.2 16.4-8 .4-.5.4-1.5.6-2.2 2.2 1.3 2.5-1.2 4-1.6l-3-1.8 1 2.8-5.3-3.5-.5.4 4 3.8c-1.6.8-2.6-1.5-4.4-.4-1.5.8-3.4 1-5 1.2a3.8 3.8 0 0 1-2-.2l-7.2-2.8c-1-3.7 4-.4 4.4-2.4-1.3-1-2.5-1.5-3-2.4s0-2 0-3.2v-3.5l1.3-1.6c1 2 2 0 3.2-.2l-1-1zm135.2 28.2l.8-.7-1-.3-.8.4zm2.3 16.4l-12-6.2c-5.3-2.7-10.6-5.5-16-8a3 3 0 0 0-2.5 0 61.5 61.5 0 0 0-5 4l1 .4-1.2.8 1.6 2 2.3-3.2a1.7 1.7 0 0 1 1.5-1.2 12.8 12.8 0 0 1 4.2 2c3.6 3 8.2 4 12 6.4a2.5 2.5 0 0 0 .8.5c2.8.5 5 1.8 6 5l.6-2c4.8 2.3 6 2.2 6.7-.5zm-44.7 5.7l-.4-.3-8.3 7.5 2.5 4zm41-31.4l-3.3-3.6c-.5 1-1.4 2-1.3 3.2 0 .6 1.2 1.5 2 1.7.6.2 1.5-.6 2.6-1.2zm2 4.3l-.6-.3c-1 .8-1.6 2-2.7 2.4-2 .6-1.7 2-.8 3.8zm-4.3 9.2a1.6 1.6 0 0 0 .4-.6 1.4 1.4 0 0 0-.4-.6 1.4 1.4 0 0 0-.4.5 1.6 1.6 0 0 0 .5.5z"/><path fill-rule="evenodd" d="M213.2 144.8l-1.7 1c-1.6-1.4-3-3-4.7-4.3a21.5 21.5 0 0 1-3.3-3c-.8-1-2.5-.4-2.8-2 0-.6-.2-1.2-.6-1l13 9.4zM170.2 166l5.3-3 1.7 2.3a19 19 0 0 0-3.5 2.2c-1 1-1.7 1-2.5 0l-1-1.3zM191.7 178l-3-.8-.2-.5 2.4-1.2h5.7l.2 1.2zM186.4 168.6a25.8 25.8 0 0 1 3.7-.5 7 7 0 0 1 3.6 1c-2.3 1.6-4.7 1-7 .7l-.2-1zM170.2 166v.3l-2 .4-3.3 1.5 4-4.2-2 .7c.3-1.3 0-2.6 1.3-3.3l1 .3zM190 174l-3.6-1-1.6-.8c1.8-1.8 4-.3 6.3-1zM191 164.2l2-1.4c1.6 2 2 4.5.8 5.5a8.2 8.2 0 0 0-.5-3c-.4-.5-1.5-.7-2.4-1zM196.7 182H194l.4-1.6c2.6-1.8 1.4 1.3 2.3 1.7zM198.2 133.5l-2.6-3 .7-1.7 3 3.4z"/><path fill-rule="evenodd" d="M169.3 161.7l-1-.2a3 3 0 0 1 .6-1.5c1.3-.8 2.8-1.4 4-2l-.8 2zM200.8 178l2.7-1.5.3.2-1.5 1.5 3.4.7-.6 1.7zM175.5 163l-1.7-2.3c2.8-1.7 2 1.2 3.2 2.3zM232.4 217.5c-.4 1.5 2.3 3-.2 4.7l-.5-5zM115.8 153.4c-1.5-1-1.4-3.6.3-4a17.2 17.2 0 0 1 4.2-.3l-1.4 4-2 .4zM249 181c-1 .7-2 1.5-2.5 1.4-1-.3-2.2-1.2-2.2-1.8 0-1 1-2 1.4-3.2zM166 82.4l.8-3.2 3.6 5.2-2.6-.2zM237 184.5a3.5 3.5 0 0 1 .5 1c-.8 1-1.6 1.5-2.4 2.2l-.2-1 1-.7-1-.2v-1h-.2 1v-.2l.8.8zM147.7 90.7l1.3-2 1 1.6-.8 1c-.3-.8-.5-1.8-1.5-.6zM118.2 163.8l-2.5-.8 1.6-.4z"/><path fill-rule="evenodd" d="M148 92l-.4-1.2 1.5.5h.2l-.5 1.3zM255.3 191.7l-1.2 1-.3-1.7zM250.4 190.4l-1-.7.7-.3zM253.8 191h-1v.2l.2-1a1.3 1.3 0 0 0 .4 0l.4 1zM115.2 162.2l.6.8-1 1 .5-1.8zM134 110.7h.2-1l1-.7zM131.4 135.6c-.4-4 3-10 6-11.5 2-1 3.5 0 3 2.3a16.5 16.5 0 0 1-5 10c-.8.5-2.2.6-3.3.6-.2 0-.5-1.2-.6-1.4zM234.8 185.7v1h-1v-1z"/><path d="M181.7 86L152 45.5l-23.8-14 36.3 42.2 11 9.7 6.2 2.6"/></svg>