<svg xmlns="http://www.w3.org/2000/svg" viewBox="0 0 237.22 164.18"><title>Fb_Insta_YT_icon_button</title><g opacity="0.2"><path d="M237.22,54.44v47c-0.27,1.78-.58,3.56-0.81,5.35-1.05,7.91-1.58,15.92-3.24,23.7-2.6,12.19-10.23,19.95-22.69,22.27a94,94,0,0,1-14.86,1.66c-30.63.74-61.26,1.79-91.89,1.73-20.29,0-40.58-1.57-60.85-2.76-14-.82-24.13-9.67-26.71-23.38-1.78-9.43-2.66-19-3.94-28.56v-47C13.46,45.24,14.29,36,16,26.86,19,11.58,28.82,3.28,44.42,2.38,61.2,1.41,78-.26,94.79-0.1c37.45,0.35,74.9,1.39,112.33,2.71,13.76,0.48,23.66,9.76,26.17,23.3C235,35.33,235.94,44.92,237.22,54.44ZM95.69,112.9l71.63-37.12L95.69,38.41V112.9Z" fill-rule="evenodd"/></g><path d="M236.22,119.44a34,34,0,0,1-34,34s-56.52,2.6-75.37,2.63c-20.17,0-80.63-2.63-80.63-2.63a34,34,0,0,1-34-34S10,89.19,10,78.84s2.22-42.4,2.22-42.4a34,34,0,0,1,34-34S103,0,122,0c20.06,0,80.22,2.44,80.22,2.44a34,34,0,0,1,34,34s1,30,1,40.38S236.22,119.44,236.22,119.44Z" fill="#ffeb02"/><path d="M126.59,148c-20,0-79.42-2.78-80-2.8l-0.17-.2H46.22A25.24,25.24,0,0,1,20.7,119.44v-0.29l-0.26-.29c0-.3-2.32-30.07-2.32-40S20.48,37.31,20.5,37l0.2-.28V36.44C20.7,22.1,31.88,10,46.22,10h0.17l0.17,0.21C47.13,10.17,103.43,8,122,8h0.21c19.88,0,79.08,2.19,79.68,2.21l0.16-.21h0.16a26.23,26.23,0,0,1,26,26.23V36.6c0,0.3,1,30,1,40.17s-1,42.08-1,42.4v0a25.85,25.85,0,0,1-26,25.79H202l-0.18.2c-0.56,0-56.55,2.8-75,2.8h-0.25Z" fill="#502d61"/><polygon points="97.64 45.6 161.71 73.08 97.51 116.69 97.64 45.6" fill="#ffea0e"/></svg>