<svg xmlns="http://www.w3.org/2000/svg" xmlns:xlink="http://www.w3.org/1999/xlink" viewBox="0 0 198 191"><defs><clipPath id="a"><path d="M165.94,58.33l-17.16,9.06a4.84,4.84,0,0,1-2.24.56l17.16-9.06A4.82,4.82,0,0,0,165.94,58.33Z" fill="none"/></clipPath><clipPath id="b"><path d="M127.06,43.68l17.16-9.06a4.9,4.9,0,0,0-2.6,4.45l-17.16,9.06A4.9,4.9,0,0,1,127.06,43.68Z" fill="none"/></clipPath><clipPath id="c"><path d="M146.93,59L129.77,68a5,5,0,0,1-5-5L141.91,54A5,5,0,0,0,146.93,59Z" fill="none"/></clipPath><clipPath id="d"><path d="M125.73,111L108.57,120a26.19,26.19,0,0,1-12.13,3A27.35,27.35,0,0,1,69.16,96.17,26.62,26.62,0,0,1,83.27,72h0L85,71.12,92.71,67,100.44,63A26.63,26.63,0,0,0,86.32,87.11,27.35,27.35,0,0,0,113.6,114,26.2,26.2,0,0,0,125.73,111Z" fill="none"/></clipPath><clipPath id="e"><path d="M164.19,140.73L147,149.79a7.68,7.68,0,0,1-3.56.88l17.16-9.06A7.69,7.69,0,0,0,164.19,140.73Z" fill="none"/></clipPath><clipPath id="f"><path d="M134,125.51l-17.16,9.06A42.36,42.36,0,0,0,139.3,96.14a43.59,43.59,0,0,0-1.41-10.21l17.16-9.06a43.69,43.69,0,0,1,1.41,10.21A42.36,42.36,0,0,1,134,125.51Z" fill="none"/></clipPath><clipPath id="g"><path d="M68.25,142.09l-17.16,9.06a8.42,8.42,0,0,1-8.47-7.93l17.16-9.06A8.42,8.42,0,0,0,68.25,142.09Z" fill="none"/></clipPath></defs><title>Fb_Insta_YT_icon_button</title><g opacity="0.2"><path d="M35.23,91.5q0-25.48,0-51c0-12.43,6.35-18.79,18.75-18.8q51.46,0,102.93,0c12.74,0,18.93,6.28,18.93,19.12q0,51.21,0,102.43c0,12.79-6.24,19-19,19.05q-51.47,0-102.93,0c-12.36,0-18.65-6.38-18.68-18.88Q35.19,117.48,35.23,91.5ZM147.72,81.35c5.93,31-16.33,53.2-40.95,53.86A41.57,41.57,0,0,1,75.91,123.4c-12-11.52-15.43-25.81-12.5-41.88H51.47c-0.09,1.82-.22,3.29-0.23,4.76q0,25.74,0,51.48c0,6.77,1.79,8.56,8.57,8.56q45.73,0,91.46,0c6.81,0,8.55-1.74,8.55-8.54q0-26,0-52c0-1.43-.19-2.86-0.3-4.44H147.72ZM105.5,64.81c-14.87,0-27.42,12.75-27.18,27.52a27.62,27.62,0,0,0,27.27,26.94c14.82,0,27.4-12.77,27.19-27.53A27.61,27.61,0,0,0,105.5,64.81Zm40.84-27.08c-13.94,0-13.94,0-13.94,13.64,0,13.84,0,13.84,13.74,13.84s13.69,0,13.69-13.89C159.83,37.73,159.83,37.73,146.33,37.73Z" fill-rule="evenodd"/></g><path d="M166.48,154.5c0,8.28-7.19,14.54-15.48,14.54H40A14.21,14.21,0,0,1,25.48,154.5V44.5C25.48,36.22,31.72,29,40,29H151A15.81,15.81,0,0,1,166.48,44.5v110Z" fill-rule="evenodd"/><path d="M175.48,146.5c0,8.28-7.19,14.54-15.48,14.54H49A14.21,14.21,0,0,1,34.48,146.5V36.5C34.48,28.22,40.72,21,49,21H160A15.81,15.81,0,0,1,175.48,36.5v110Z" fill="#38a4dc" fill-rule="evenodd"/><polygon points="34.48 41 69.91 51.08 99.03 37.79 175.48 48.17 175.48 69.5 131.57 74.83 62.79 83.5 38.63 70.83 34.48 73.17 34.48 41" fill="#95c018"/><g style="isolation:isolate"><g style="isolation:isolate"><g clip-path="url(#a)"><g style="isolation:isolate"><path d="M165.94,58.33l-17.16,9.06a4.84,4.84,0,0,1-2.24.56l17.16-9.06a4.82,4.82,0,0,0,2.24-.56"/></g></g></g><g style="isolation:isolate"><g clip-path="url(#b)"><g style="isolation:isolate"><path d="M141.62,39.06l-17.16,9.06a4.9,4.9,0,0,1,2.59-4.45l17.16-9.06a4.9,4.9,0,0,0-2.6,4.45"/></g></g></g><polygon points="163.71 58.88 146.54 67.94 129.77 68.03 146.93 58.97 163.71 58.88"/><polygon points="141.91 54.01 124.75 63.07 124.46 48.12 141.62 39.06 141.91 54.01"/><g style="isolation:isolate"><g clip-path="url(#c)"><g style="isolation:isolate"><path d="M146.93,59L129.77,68a5,5,0,0,1-5-5L141.91,54a5,5,0,0,0,5,5"/></g></g></g><path d="M163.23,34a5,5,0,0,1,5,5l0.29,14.95a4.88,4.88,0,0,1-4.84,5L146.93,59a5,5,0,0,1-5-5l-0.29-14.95a4.87,4.87,0,0,1,4.83-5Z" fill="#ffea0e"/></g><polygon points="34.48 104.67 68.99 103.25 130.49 89.54 152.82 100.85 175.48 98.17 175.48 124.5 143.57 130.83 100.45 138.5 62.8 124.17 34.48 135.17 34.48 104.67" fill="#95c018"/><g style="isolation:isolate"><g clip-path="url(#d)"><path d="M125.73,111L108.57,120a26.19,26.19,0,0,1-12.13,3A27.35,27.35,0,0,1,69.16,96.17,26.62,26.62,0,0,1,83.27,72L100.44,63A26.63,26.63,0,0,0,86.32,87.11,27.35,27.35,0,0,0,113.6,114a26.2,26.2,0,0,0,12.13-3"/></g></g><g style="isolation:isolate"><g style="isolation:isolate"><g clip-path="url(#e)"><g style="isolation:isolate"><path d="M164.19,140.73L147,149.79a7.68,7.68,0,0,1-3.56.88l17.16-9.06a7.69,7.69,0,0,0,3.56-.88"/></g></g></g><g style="isolation:isolate"><g clip-path="url(#f)"><g style="isolation:isolate"><path d="M134,125.51l-17.16,9.06A42.36,42.36,0,0,0,139.3,96.14a43.59,43.59,0,0,0-1.41-10.21l17.16-9.06a43.69,43.69,0,0,1,1.41,10.21A42.36,42.36,0,0,1,134,125.51"/></g></g></g><polygon points="160.63 141.61 143.46 150.67 51.09 151.15 68.25 142.09 160.63 141.61"/><polygon points="59.78 134.16 42.62 143.22 41.54 86.44 58.7 77.38 59.78 134.16"/><g style="isolation:isolate"><g clip-path="url(#g)"><g style="isolation:isolate"><path d="M68.25,142.09l-17.16,9.06a8.42,8.42,0,0,1-8.47-7.93l17.16-9.06a8.42,8.42,0,0,0,8.47,7.93"/></g></g></g><path d="M167.23,76.81l1.08,56.79a7.74,7.74,0,0,1-7.69,8l-92.37.48a8.42,8.42,0,0,1-8.47-7.93L58.7,77.38l13.58-.07a43.37,43.37,0,0,0-1,10.22c0.45,23.76,19.89,42.92,43.42,42.8a42.11,42.11,0,0,0,41.79-43.24,43.69,43.69,0,0,0-1.41-10.21Z" fill="#ffea0e"/></g><path d="M112.57,59.94a27.35,27.35,0,0,1,27.28,26.9A26.46,26.46,0,0,1,113.6,114,27.35,27.35,0,0,1,86.32,87.11,26.46,26.46,0,0,1,112.57,59.94Z" fill="#ffea0e"/><circle cx="41.5" cy="7.5" r="7.5" fill="#e42225"/><circle cx="65.5" cy="7.5" r="7.5" fill="#e42225"/><circle cx="89.5" cy="7.5" r="7.5" fill="#e42225"/><circle cx="113.5" cy="7.5" r="7.5" fill="#e42225"/><circle cx="137.5" cy="7.5" r="7.5" fill="#e42225"/><circle cx="161.5" cy="7.5" r="7.5" fill="#e42225"/><circle cx="7.5" cy="38.5" r="7.5" fill="#e42225"/><circle cx="7.5" cy="62.5" r="7.5" fill="#e42225"/><circle cx="7.5" cy="86.5" r="7.5" fill="#e42225"/><circle cx="7.5" cy="110.5" r="7.5" fill="#e42225"/><circle cx="7.5" cy="134.5" r="7.5" fill="#e42225"/><circle cx="7.5" cy="158.5" r="7.5" fill="#e42225"/><circle cx="190.5" cy="38.5" r="7.5" fill="#e42225"/><circle cx="190.5" cy="62.5" r="7.5" fill="#e42225"/><circle cx="190.5" cy="86.5" r="7.5" fill="#e42225"/><circle cx="190.5" cy="110.5" r="7.5" fill="#e42225"/><circle cx="190.5" cy="134.5" r="7.5" fill="#e42225"/><circle cx="190.5" cy="158.5" r="7.5" fill="#e42225"/><circle cx="181.5" cy="177.5" r="7.5" fill="#e42225"/><circle cx="15.5" cy="181.5" r="7.5" fill="#e42225"/><circle cx="17.5" cy="13.5" r="7.5" fill="#e42225"/><circle cx="185.5" cy="16.5" r="7.5" fill="#e42225"/><circle cx="39.5" cy="183.5" r="7.5" fill="#e42225"/><circle cx="63.5" cy="183.5" r="7.5" fill="#e42225"/><circle cx="87.5" cy="183.5" r="7.5" fill="#e42225"/><circle cx="111.5" cy="183.5" r="7.5" fill="#e42225"/><circle cx="135.5" cy="183.5" r="7.5" fill="#e42225"/><circle cx="159.5" cy="183.5" r="7.5" fill="#e42225"/></svg>