<svg xmlns="http://www.w3.org/2000/svg" viewBox="0 0 17.45 17.08"><title>bullit</title><path d="M7.2,12.38a9.09,9.09,0,0,1-1.52.86,1.67,1.67,0,0,0-.46.26C4.69,14,4.1,14.17,3.57,14.56a0.8,0.8,0,0,1-1.06-.07c-0.26-.13-0.2-0.4-0.07-0.66a6.07,6.07,0,0,1,.92-1.45A27.43,27.43,0,0,1,6,10.07l0.86-.66C6.54,9.08,6.28,8.69,6,8.49A5.67,5.67,0,0,1,4.63,6.11a6.38,6.38,0,0,0-.86-1.78,0.59,0.59,0,0,1-.13-0.59,0.77,0.77,0,0,1,.53-0.4,0.91,0.91,0,0,1,.79.2A23.16,23.16,0,0,0,8.59,6.18c0.33,0.2.33,0.2,0.53-.33a16.41,16.41,0,0,0,.59-3A4,4,0,0,1,10,1.62a0.62,0.62,0,0,1,.53-0.46,0.52,0.52,0,0,1,.4.53,1.94,1.94,0,0,0,.13.59,8.4,8.4,0,0,1,.07,3.63,0.39,0.39,0,0,1-.07.26c0,0.07.07,0.07,0.07,0.13A2.15,2.15,0,0,0,12,5.85c1.32-.79,2.57-1.58,3.89-2.24a0.89,0.89,0,0,1,1.32.2,1.35,1.35,0,0,1-.33,1.78,1.1,1.1,0,0,1-.4.2A18.14,18.14,0,0,0,13.8,7.23a14.63,14.63,0,0,0-1.65,1.32c-0.26.2-.07,0.33,0.07,0.46,0.46,0.46,1,.92,1.45,1.45a23.75,23.75,0,0,1,2.91,3.76c0.13,0.13.13,0.26-.07,0.33s-0.07.2,0,.26a0.75,0.75,0,0,1,.07.53,0.84,0.84,0,0,1-.4-0.07c-0.13.26,0.13,0.46,0,.73-0.13.07-.2-0.07-0.26-0.13A25.17,25.17,0,0,0,12,12.65a18.49,18.49,0,0,1-1.85-1.26l-0.26-.13c-0.2-.07-0.33,0-0.4.26a4.62,4.62,0,0,0-.2,1.32,13.81,13.81,0,0,0-.13,1.65,8.51,8.51,0,0,1-.59,2.11c-0.2.59-.59,0.59-0.92,0.2a3,3,0,0,1-.13-1.72c0.13-.92.2-1.78,0.26-2.7a0.4,0.4,0,0,0-.07-0.27A1.93,1.93,0,0,0,7.2,12.38Z" transform="translate(0)" fill="#000001"/><path d="M4.87,11.22a9,9,0,0,1-1.52.86,1.69,1.69,0,0,0-.46.26C2.36,12.81,1.77,13,1.24,13.4a0.8,0.8,0,0,1-1.06-.07C-0.08,13.2,0,12.94.12,12.67A6.1,6.1,0,0,1,1,11.22,27.5,27.5,0,0,1,3.68,8.91l0.86-.66C4.21,7.92,3.94,7.53,3.68,7.33A5.68,5.68,0,0,1,2.29,5a6.34,6.34,0,0,0-.86-1.78A0.6,0.6,0,0,1,1.3,2.57a0.77,0.77,0,0,1,.53-0.4,0.91,0.91,0,0,1,.79.2A23.09,23.09,0,0,0,6.26,5c0.33,0.2.33,0.2,0.53-.33a16.42,16.42,0,0,0,.59-3A4.06,4.06,0,0,1,7.71.46,0.63,0.63,0,0,1,8.24,0a0.51,0.51,0,0,1,.4.53,2,2,0,0,0,.13.59,8.39,8.39,0,0,1,.07,3.63A0.39,0.39,0,0,1,8.76,5c0,0.07.07,0.07,0.07,0.13a2.14,2.14,0,0,0,.86-0.46c1.32-.79,2.58-1.58,3.9-2.24a0.89,0.89,0,0,1,1.32.2,1.35,1.35,0,0,1-.33,1.78,1.1,1.1,0,0,1-.4.2,18.08,18.08,0,0,0-2.71,1.45A14.54,14.54,0,0,0,9.82,7.39c-0.26.2-.07,0.33,0.07,0.46,0.46,0.46,1,.92,1.45,1.45a23.77,23.77,0,0,1,2.9,3.76c0.13,0.13.13,0.27-.07,0.33s-0.07.2,0,.26a0.75,0.75,0,0,1,.07.53,0.86,0.86,0,0,1-.4-0.07c-0.13.26,0.13,0.46,0,.73-0.13.07-.2-0.07-0.26-0.13a25.21,25.21,0,0,0-3.9-3.23,18.35,18.35,0,0,1-1.85-1.25L7.58,10.1c-0.2-.07-0.33,0-0.4.26A4.61,4.61,0,0,0,7,11.69a13.88,13.88,0,0,0-.13,1.65,8.48,8.48,0,0,1-.59,2.11c-0.2.59-.59,0.59-0.92,0.2a3,3,0,0,1-.13-1.72c0.13-.92.2-1.78,0.26-2.71A0.4,0.4,0,0,0,5.4,11,2,2,0,0,0,4.87,11.22Z" transform="translate(0)" fill="#fff"/></svg>