<svg xmlns="http://www.w3.org/2000/svg" xmlns:xlink="http://www.w3.org/1999/xlink" viewBox="0 0 224 220.58"><defs><clipPath id="a"><rect x="9" width="215" height="200" rx="12" ry="12" fill="none"/></clipPath><clipPath id="b"><path d="M139.32,219.86l-1.14-.62-12.54-6.82-9.12-5a6.66,6.66,0,0,1-3.3-6L136,213.83A6.66,6.66,0,0,0,139.32,219.86Z"/></clipPath><clipPath id="c"><path d="M169.74,88.07l22.79,12.4a6.09,6.09,0,0,0-3.8-.65l-22.79-12.4A6.09,6.09,0,0,1,169.74,88.07Z"/></clipPath><clipPath id="d"><path d="M171.65,21.54l22.79,12.4a6.1,6.1,0,0,0-3.8-.65l-22.79-12.4A6.1,6.1,0,0,1,171.65,21.54Z"/></clipPath><clipPath id="e"><path d="M114.55,142.67l-22.79-12.4a6.66,6.66,0,0,1-3.3-6l22.79,12.4A6.66,6.66,0,0,0,114.55,142.67Z"/></clipPath><clipPath id="f"><path d="M136.26,83.18l-22.79-12.4a8.64,8.64,0,0,1,.56-3l22.79,12.4A8.64,8.64,0,0,0,136.26,83.18Z"/></clipPath><clipPath id="g"><path d="M111.28,118.39L88.49,106c0-4.25,3.2-8.13,7.14-8.69l22.79,12.4C114.48,110.25,111.29,114.14,111.28,118.39Z"/></clipPath><clipPath id="h"><path d="M136.82,80.15L114,67.75c1.46-22.26,18.51-42.09,39.32-45l22.79,12.4C155.33,38.06,138.28,57.88,136.82,80.15Z"/></clipPath></defs><title>Fb_Insta_YT_icon_button</title><rect y="9" width="215" height="200" rx="12" ry="12"/><rect x="9" width="215" height="200" rx="12" ry="12" fill="#35a6de"/><g clip-path="url(#a)"><polygon points="124.87 -61.08 241.34 73.58 224.86 75.33 112.63 -34.48 124.87 -61.08" fill="#ffeb02"/><polygon points="36.38 -47.81 229.76 110.4 229.7 121.03 4.72 -5.05 36.38 -47.81" fill="#ffeb02"/><polygon points="-33.06 30.3 237.47 141.96 226.73 152.39 -37.08 73.97 -33.06 30.3" fill="#ffeb02"/><polygon points="-25.17 109.04 240.21 177.13 230.29 189.78 -35.74 148.02 -25.17 109.04" fill="#ffeb02"/><polygon points="149.12 206.81 -38.96 169.7 -23.51 203.98 143.08 219.3 149.12 206.81" fill="#ffeb02"/></g><g style="isolation:isolate"><path d="M139.32,219.86l-1.14-.62-12.54-6.82-9.12-5a6.66,6.66,0,0,1-3.3-6L136,213.83A6.66,6.66,0,0,0,139.32,219.86Z"/><g clip-path="url(#b)"><g style="isolation:isolate"><path d="M139.32,219.86l-22.79-12.4a6.66,6.66,0,0,1-3.3-6L136,213.83a6.66,6.66,0,0,0,3.3,6"/></g></g><path d="M169.74,88.07l22.79,12.4a6.09,6.09,0,0,0-3.8-.65l-22.79-12.4A6.09,6.09,0,0,1,169.74,88.07Z"/><g clip-path="url(#c)"><g style="isolation:isolate"><path d="M188.73,99.82l-22.79-12.4a6.29,6.29,0,0,1,2.45.13l22.79,12.4a6.29,6.29,0,0,0-2.45-.13"/><path d="M191.19,99.95l-22.79-12.4a5.84,5.84,0,0,1,1.12.41l22.79,12.4a5.84,5.84,0,0,0-1.12-.41"/><path d="M192.31,100.36L169.52,88l0.22,0.11,22.79,12.4-0.22-.11"/></g></g><polygon points="167.37 102.82 144.58 90.42 165.94 87.42 188.73 99.82 167.37 102.82"/><polygon points="136.02 213.83 113.23 201.43 113.36 128.43 136.16 140.82 136.02 213.83"/><path d="M171.65,21.54l22.79,12.4a6.1,6.1,0,0,0-3.8-.65l-22.79-12.4A6.1,6.1,0,0,1,171.65,21.54Z"/><g clip-path="url(#d)"><g style="isolation:isolate"><path d="M190.64,33.28l-22.79-12.4a6.32,6.32,0,0,1,2.46.13l22.79,12.4a6.32,6.32,0,0,0-2.46-.13"/><path d="M193.1,33.41L170.3,21a5.92,5.92,0,0,1,1.13.42l22.79,12.4a5.93,5.93,0,0,0-1.13-.42"/><path d="M194.22,33.82l-22.79-12.4,0.22,0.11,22.79,12.4-0.22-.11"/></g></g><polygon points="176.14 35.14 153.34 22.74 167.84 20.88 190.63 33.28 176.14 35.14"/><path d="M114.55,142.67l-22.79-12.4a6.66,6.66,0,0,1-3.3-6l22.79,12.4A6.66,6.66,0,0,0,114.55,142.67Z"/><g clip-path="url(#e)"><g style="isolation:isolate"><path d="M114.55,142.67l-22.79-12.4a6.66,6.66,0,0,1-3.3-6l22.79,12.4a6.66,6.66,0,0,0,3.3,6"/></g></g><polygon points="136.22 107.2 113.42 94.8 113.47 70.78 136.26 83.18 136.22 107.2"/><path d="M136.26,83.18l-22.79-12.4a8.64,8.64,0,0,1,.56-3l22.79,12.4A8.64,8.64,0,0,0,136.26,83.18Z"/><g clip-path="url(#f)"><g style="isolation:isolate"><path d="M136.26,83.18l-22.79-12.4a8.65,8.65,0,0,1,.53-3l22.79,12.4a8.63,8.63,0,0,0-.53,3"/><path d="M136.79,80.22L114,67.82l0-.07,22.79,12.4,0,0.07"/></g></g><polygon points="118.42 109.7 95.63 97.3 113.42 94.8 136.22 107.2 118.42 109.7"/><polygon points="111.25 136.64 88.46 124.24 88.49 105.99 111.28 118.39 111.25 136.64"/><path d="M111.28,118.39L88.49,106c0-4.25,3.2-8.13,7.14-8.69l22.79,12.4C114.48,110.25,111.29,114.14,111.28,118.39Z"/><g clip-path="url(#g)"><g style="isolation:isolate"><path d="M111.28,118.39L88.49,106a8.84,8.84,0,0,1,.55-3l22.79,12.4a8.84,8.84,0,0,0-.55,3"/><path d="M111.83,115.36L89,103a9.31,9.31,0,0,1,.54-1.2l22.79,12.4a9.37,9.37,0,0,0-.54,1.2"/><path d="M112.37,114.17l-22.79-12.4a9.36,9.36,0,0,1,.58-0.94L113,113.22a9.43,9.43,0,0,0-.58.94"/><path d="M113,113.22l-22.79-12.4A9.18,9.18,0,0,1,90.8,100l22.79,12.4a9.19,9.19,0,0,0-.64.81"/><path d="M113.59,112.41L90.8,100a9,9,0,0,1,.73-0.73l22.79,12.4a9,9,0,0,0-.73.73"/><path d="M114.32,111.68L91.52,99.28a8.56,8.56,0,0,1,.86-0.68L115.18,111a8.54,8.54,0,0,0-.86.68"/><path d="M115.18,111L92.39,98.6a8,8,0,0,1,1.16-.67l22.79,12.4a8,8,0,0,0-1.16.67"/><path d="M116.34,110.33L93.54,97.93a7.27,7.27,0,0,1,2.08-.63l22.79,12.4a7.3,7.3,0,0,0-2.08.63"/></g></g><path d="M176.14,35.14l14.5-1.86c3.93-.55,7.11,2.44,7.11,6.69l0,18.25c0,4.25-3.2,8.13-7.14,8.69l-13.12,1.84c-5.54,1.42-9.86,7.08-9.87,13.23l-0.21,20.84,21.36-3c3.93-.55,7.11,2.44,7.1,6.69l0,18.25c0,4.24-3.2,8.13-7.13,8.69l-21.36,3-0.14,73c0,4.25-3.2,8.13-7.14,8.69l-16.91,2.38c-3.93.55-7.12-2.44-7.11-6.69l0.14-73-17.8,2.5c-3.93.55-7.11-2.44-7.11-6.69l0-18.25c0-4.25,3.2-8.13,7.14-8.69l17.8-2.5,0-24a8.64,8.64,0,0,1,.56-3C138.28,57.88,155.33,38.06,176.14,35.14Z" fill="#fff"/><path d="M136.82,80.15L114,67.75c1.46-22.26,18.51-42.09,39.32-45l22.79,12.4C155.33,38.06,138.28,57.88,136.82,80.15Z"/><g clip-path="url(#h)"><g style="isolation:isolate"><path d="M136.82,80.15L114,67.75A49.18,49.18,0,0,1,117,54l22.79,12.4a49.19,49.19,0,0,0-2.92,13.71"/><path d="M139.74,66.44L117,54a51.36,51.36,0,0,1,3-6.63l22.79,12.4a51.42,51.42,0,0,0-3,6.63"/><path d="M142.72,59.81l-22.79-12.4a51.75,51.75,0,0,1,3.22-5.22l22.79,12.4a51.74,51.74,0,0,0-3.22,5.22"/><path d="M145.94,54.59l-22.79-12.4a51.11,51.11,0,0,1,3.54-4.5l22.79,12.4a51.13,51.13,0,0,0-3.54,4.5"/><path d="M149.48,50.1L126.69,37.7a49.76,49.76,0,0,1,4-4L153.49,46a49.85,49.85,0,0,0-4,4"/><path d="M153.49,46L130.7,33.65a47.57,47.57,0,0,1,4.77-3.77l22.79,12.4A47.58,47.58,0,0,0,153.49,46"/><path d="M158.26,42.27l-22.79-12.4a44.56,44.56,0,0,1,6.35-3.66l22.79,12.4a44.5,44.5,0,0,0-6.35,3.66"/><path d="M164.61,38.61l-22.79-12.4a40.21,40.21,0,0,1,11.53-3.47l22.79,12.4a40.22,40.22,0,0,0-11.53,3.47"/></g></g></g></svg>